%TF.GenerationSoftware,KiCad,Pcbnew,8.0.6*%
%TF.CreationDate,2025-04-08T19:24:05-05:00*%
%TF.ProjectId,Buck_Converter,4275636b-5f43-46f6-9e76-65727465722e,rev?*%
%TF.SameCoordinates,Original*%
%TF.FileFunction,Legend,Top*%
%TF.FilePolarity,Positive*%
%FSLAX46Y46*%
G04 Gerber Fmt 4.6, Leading zero omitted, Abs format (unit mm)*
G04 Created by KiCad (PCBNEW 8.0.6) date 2025-04-08 19:24:05*
%MOMM*%
%LPD*%
G01*
G04 APERTURE LIST*
%ADD10C,0.200000*%
%ADD11C,0.150000*%
%ADD12C,0.120000*%
G04 APERTURE END LIST*
D10*
X141605000Y-70358000D02*
X141605000Y-71120000D01*
X142726409Y-81338993D02*
X142774028Y-81196136D01*
X142774028Y-81196136D02*
X142821647Y-81148517D01*
X142821647Y-81148517D02*
X142916885Y-81100898D01*
X142916885Y-81100898D02*
X143059742Y-81100898D01*
X143059742Y-81100898D02*
X143154980Y-81148517D01*
X143154980Y-81148517D02*
X143202600Y-81196136D01*
X143202600Y-81196136D02*
X143250219Y-81291374D01*
X143250219Y-81291374D02*
X143250219Y-81672326D01*
X143250219Y-81672326D02*
X142250219Y-81672326D01*
X142250219Y-81672326D02*
X142250219Y-81338993D01*
X142250219Y-81338993D02*
X142297838Y-81243755D01*
X142297838Y-81243755D02*
X142345457Y-81196136D01*
X142345457Y-81196136D02*
X142440695Y-81148517D01*
X142440695Y-81148517D02*
X142535933Y-81148517D01*
X142535933Y-81148517D02*
X142631171Y-81196136D01*
X142631171Y-81196136D02*
X142678790Y-81243755D01*
X142678790Y-81243755D02*
X142726409Y-81338993D01*
X142726409Y-81338993D02*
X142726409Y-81672326D01*
X142250219Y-80767564D02*
X143250219Y-80529469D01*
X143250219Y-80529469D02*
X142535933Y-80338993D01*
X142535933Y-80338993D02*
X143250219Y-80148517D01*
X143250219Y-80148517D02*
X142250219Y-79910422D01*
X143202600Y-79148517D02*
X143250219Y-79243755D01*
X143250219Y-79243755D02*
X143250219Y-79434231D01*
X143250219Y-79434231D02*
X143202600Y-79529469D01*
X143202600Y-79529469D02*
X143107361Y-79577088D01*
X143107361Y-79577088D02*
X142726409Y-79577088D01*
X142726409Y-79577088D02*
X142631171Y-79529469D01*
X142631171Y-79529469D02*
X142583552Y-79434231D01*
X142583552Y-79434231D02*
X142583552Y-79243755D01*
X142583552Y-79243755D02*
X142631171Y-79148517D01*
X142631171Y-79148517D02*
X142726409Y-79100898D01*
X142726409Y-79100898D02*
X142821647Y-79100898D01*
X142821647Y-79100898D02*
X142916885Y-79577088D01*
X143202600Y-78719945D02*
X143250219Y-78624707D01*
X143250219Y-78624707D02*
X143250219Y-78434231D01*
X143250219Y-78434231D02*
X143202600Y-78338993D01*
X143202600Y-78338993D02*
X143107361Y-78291374D01*
X143107361Y-78291374D02*
X143059742Y-78291374D01*
X143059742Y-78291374D02*
X142964504Y-78338993D01*
X142964504Y-78338993D02*
X142916885Y-78434231D01*
X142916885Y-78434231D02*
X142916885Y-78577088D01*
X142916885Y-78577088D02*
X142869266Y-78672326D01*
X142869266Y-78672326D02*
X142774028Y-78719945D01*
X142774028Y-78719945D02*
X142726409Y-78719945D01*
X142726409Y-78719945D02*
X142631171Y-78672326D01*
X142631171Y-78672326D02*
X142583552Y-78577088D01*
X142583552Y-78577088D02*
X142583552Y-78434231D01*
X142583552Y-78434231D02*
X142631171Y-78338993D01*
X142583552Y-78005659D02*
X142583552Y-77624707D01*
X142250219Y-77862802D02*
X143107361Y-77862802D01*
X143107361Y-77862802D02*
X143202600Y-77815183D01*
X143202600Y-77815183D02*
X143250219Y-77719945D01*
X143250219Y-77719945D02*
X143250219Y-77624707D01*
X143250219Y-77148516D02*
X143202600Y-77243754D01*
X143202600Y-77243754D02*
X143107361Y-77291373D01*
X143107361Y-77291373D02*
X142250219Y-77291373D01*
X143202600Y-76386611D02*
X143250219Y-76481849D01*
X143250219Y-76481849D02*
X143250219Y-76672325D01*
X143250219Y-76672325D02*
X143202600Y-76767563D01*
X143202600Y-76767563D02*
X143107361Y-76815182D01*
X143107361Y-76815182D02*
X142726409Y-76815182D01*
X142726409Y-76815182D02*
X142631171Y-76767563D01*
X142631171Y-76767563D02*
X142583552Y-76672325D01*
X142583552Y-76672325D02*
X142583552Y-76481849D01*
X142583552Y-76481849D02*
X142631171Y-76386611D01*
X142631171Y-76386611D02*
X142726409Y-76338992D01*
X142726409Y-76338992D02*
X142821647Y-76338992D01*
X142821647Y-76338992D02*
X142916885Y-76815182D01*
X142583552Y-76005658D02*
X143250219Y-75767563D01*
X142583552Y-75529468D02*
X143250219Y-75767563D01*
X143250219Y-75767563D02*
X143488314Y-75862801D01*
X143488314Y-75862801D02*
X143535933Y-75910420D01*
X143535933Y-75910420D02*
X143583552Y-76005658D01*
X148404054Y-70209457D02*
X148451673Y-70161838D01*
X148451673Y-70161838D02*
X148546911Y-70114219D01*
X148546911Y-70114219D02*
X148785006Y-70114219D01*
X148785006Y-70114219D02*
X148880244Y-70161838D01*
X148880244Y-70161838D02*
X148927863Y-70209457D01*
X148927863Y-70209457D02*
X148975482Y-70304695D01*
X148975482Y-70304695D02*
X148975482Y-70399933D01*
X148975482Y-70399933D02*
X148927863Y-70542790D01*
X148927863Y-70542790D02*
X148356435Y-71114219D01*
X148356435Y-71114219D02*
X148975482Y-71114219D01*
X149880244Y-70114219D02*
X149404054Y-70114219D01*
X149404054Y-70114219D02*
X149356435Y-70590409D01*
X149356435Y-70590409D02*
X149404054Y-70542790D01*
X149404054Y-70542790D02*
X149499292Y-70495171D01*
X149499292Y-70495171D02*
X149737387Y-70495171D01*
X149737387Y-70495171D02*
X149832625Y-70542790D01*
X149832625Y-70542790D02*
X149880244Y-70590409D01*
X149880244Y-70590409D02*
X149927863Y-70685647D01*
X149927863Y-70685647D02*
X149927863Y-70923742D01*
X149927863Y-70923742D02*
X149880244Y-71018980D01*
X149880244Y-71018980D02*
X149832625Y-71066600D01*
X149832625Y-71066600D02*
X149737387Y-71114219D01*
X149737387Y-71114219D02*
X149499292Y-71114219D01*
X149499292Y-71114219D02*
X149404054Y-71066600D01*
X149404054Y-71066600D02*
X149356435Y-71018980D01*
X150927863Y-71114219D02*
X150594530Y-70638028D01*
X150356435Y-71114219D02*
X150356435Y-70114219D01*
X150356435Y-70114219D02*
X150737387Y-70114219D01*
X150737387Y-70114219D02*
X150832625Y-70161838D01*
X150832625Y-70161838D02*
X150880244Y-70209457D01*
X150880244Y-70209457D02*
X150927863Y-70304695D01*
X150927863Y-70304695D02*
X150927863Y-70447552D01*
X150927863Y-70447552D02*
X150880244Y-70542790D01*
X150880244Y-70542790D02*
X150832625Y-70590409D01*
X150832625Y-70590409D02*
X150737387Y-70638028D01*
X150737387Y-70638028D02*
X150356435Y-70638028D01*
X151880244Y-71114219D02*
X151308816Y-71114219D01*
X151594530Y-71114219D02*
X151594530Y-70114219D01*
X151594530Y-70114219D02*
X151499292Y-70257076D01*
X151499292Y-70257076D02*
X151404054Y-70352314D01*
X151404054Y-70352314D02*
X151308816Y-70399933D01*
X140345219Y-81894564D02*
X140345219Y-81275517D01*
X140345219Y-81275517D02*
X140726171Y-81608850D01*
X140726171Y-81608850D02*
X140726171Y-81465993D01*
X140726171Y-81465993D02*
X140773790Y-81370755D01*
X140773790Y-81370755D02*
X140821409Y-81323136D01*
X140821409Y-81323136D02*
X140916647Y-81275517D01*
X140916647Y-81275517D02*
X141154742Y-81275517D01*
X141154742Y-81275517D02*
X141249980Y-81323136D01*
X141249980Y-81323136D02*
X141297600Y-81370755D01*
X141297600Y-81370755D02*
X141345219Y-81465993D01*
X141345219Y-81465993D02*
X141345219Y-81751707D01*
X141345219Y-81751707D02*
X141297600Y-81846945D01*
X141297600Y-81846945D02*
X141249980Y-81894564D01*
X141249980Y-80846945D02*
X141297600Y-80799326D01*
X141297600Y-80799326D02*
X141345219Y-80846945D01*
X141345219Y-80846945D02*
X141297600Y-80894564D01*
X141297600Y-80894564D02*
X141249980Y-80846945D01*
X141249980Y-80846945D02*
X141345219Y-80846945D01*
X140345219Y-80465993D02*
X140345219Y-79846946D01*
X140345219Y-79846946D02*
X140726171Y-80180279D01*
X140726171Y-80180279D02*
X140726171Y-80037422D01*
X140726171Y-80037422D02*
X140773790Y-79942184D01*
X140773790Y-79942184D02*
X140821409Y-79894565D01*
X140821409Y-79894565D02*
X140916647Y-79846946D01*
X140916647Y-79846946D02*
X141154742Y-79846946D01*
X141154742Y-79846946D02*
X141249980Y-79894565D01*
X141249980Y-79894565D02*
X141297600Y-79942184D01*
X141297600Y-79942184D02*
X141345219Y-80037422D01*
X141345219Y-80037422D02*
X141345219Y-80323136D01*
X141345219Y-80323136D02*
X141297600Y-80418374D01*
X141297600Y-80418374D02*
X141249980Y-80465993D01*
X140392838Y-78132660D02*
X140345219Y-78227898D01*
X140345219Y-78227898D02*
X140345219Y-78370755D01*
X140345219Y-78370755D02*
X140392838Y-78513612D01*
X140392838Y-78513612D02*
X140488076Y-78608850D01*
X140488076Y-78608850D02*
X140583314Y-78656469D01*
X140583314Y-78656469D02*
X140773790Y-78704088D01*
X140773790Y-78704088D02*
X140916647Y-78704088D01*
X140916647Y-78704088D02*
X141107123Y-78656469D01*
X141107123Y-78656469D02*
X141202361Y-78608850D01*
X141202361Y-78608850D02*
X141297600Y-78513612D01*
X141297600Y-78513612D02*
X141345219Y-78370755D01*
X141345219Y-78370755D02*
X141345219Y-78275517D01*
X141345219Y-78275517D02*
X141297600Y-78132660D01*
X141297600Y-78132660D02*
X141249980Y-78085041D01*
X141249980Y-78085041D02*
X140916647Y-78085041D01*
X140916647Y-78085041D02*
X140916647Y-78275517D01*
X141345219Y-76370755D02*
X141345219Y-76942183D01*
X141345219Y-76656469D02*
X140345219Y-76656469D01*
X140345219Y-76656469D02*
X140488076Y-76751707D01*
X140488076Y-76751707D02*
X140583314Y-76846945D01*
X140583314Y-76846945D02*
X140630933Y-76942183D01*
X140440457Y-75989802D02*
X140392838Y-75942183D01*
X140392838Y-75942183D02*
X140345219Y-75846945D01*
X140345219Y-75846945D02*
X140345219Y-75608850D01*
X140345219Y-75608850D02*
X140392838Y-75513612D01*
X140392838Y-75513612D02*
X140440457Y-75465993D01*
X140440457Y-75465993D02*
X140535695Y-75418374D01*
X140535695Y-75418374D02*
X140630933Y-75418374D01*
X140630933Y-75418374D02*
X140773790Y-75465993D01*
X140773790Y-75465993D02*
X141345219Y-76037421D01*
X141345219Y-76037421D02*
X141345219Y-75418374D01*
X140392838Y-72942183D02*
X140345219Y-73037421D01*
X140345219Y-73037421D02*
X140345219Y-73180278D01*
X140345219Y-73180278D02*
X140392838Y-73323135D01*
X140392838Y-73323135D02*
X140488076Y-73418373D01*
X140488076Y-73418373D02*
X140583314Y-73465992D01*
X140583314Y-73465992D02*
X140773790Y-73513611D01*
X140773790Y-73513611D02*
X140916647Y-73513611D01*
X140916647Y-73513611D02*
X141107123Y-73465992D01*
X141107123Y-73465992D02*
X141202361Y-73418373D01*
X141202361Y-73418373D02*
X141297600Y-73323135D01*
X141297600Y-73323135D02*
X141345219Y-73180278D01*
X141345219Y-73180278D02*
X141345219Y-73085040D01*
X141345219Y-73085040D02*
X141297600Y-72942183D01*
X141297600Y-72942183D02*
X141249980Y-72894564D01*
X141249980Y-72894564D02*
X140916647Y-72894564D01*
X140916647Y-72894564D02*
X140916647Y-73085040D01*
X140345219Y-70465992D02*
X140345219Y-70942182D01*
X140345219Y-70942182D02*
X140821409Y-70989801D01*
X140821409Y-70989801D02*
X140773790Y-70942182D01*
X140773790Y-70942182D02*
X140726171Y-70846944D01*
X140726171Y-70846944D02*
X140726171Y-70608849D01*
X140726171Y-70608849D02*
X140773790Y-70513611D01*
X140773790Y-70513611D02*
X140821409Y-70465992D01*
X140821409Y-70465992D02*
X140916647Y-70418373D01*
X140916647Y-70418373D02*
X141154742Y-70418373D01*
X141154742Y-70418373D02*
X141249980Y-70465992D01*
X141249980Y-70465992D02*
X141297600Y-70513611D01*
X141297600Y-70513611D02*
X141345219Y-70608849D01*
X141345219Y-70608849D02*
X141345219Y-70846944D01*
X141345219Y-70846944D02*
X141297600Y-70942182D01*
X141297600Y-70942182D02*
X141249980Y-70989801D01*
D11*
X151109833Y-81607819D02*
X150776500Y-81131628D01*
X150538405Y-81607819D02*
X150538405Y-80607819D01*
X150538405Y-80607819D02*
X150919357Y-80607819D01*
X150919357Y-80607819D02*
X151014595Y-80655438D01*
X151014595Y-80655438D02*
X151062214Y-80703057D01*
X151062214Y-80703057D02*
X151109833Y-80798295D01*
X151109833Y-80798295D02*
X151109833Y-80941152D01*
X151109833Y-80941152D02*
X151062214Y-81036390D01*
X151062214Y-81036390D02*
X151014595Y-81084009D01*
X151014595Y-81084009D02*
X150919357Y-81131628D01*
X150919357Y-81131628D02*
X150538405Y-81131628D01*
X152062214Y-81607819D02*
X151490786Y-81607819D01*
X151776500Y-81607819D02*
X151776500Y-80607819D01*
X151776500Y-80607819D02*
X151681262Y-80750676D01*
X151681262Y-80750676D02*
X151586024Y-80845914D01*
X151586024Y-80845914D02*
X151490786Y-80893533D01*
X145012580Y-71032666D02*
X145060200Y-71080285D01*
X145060200Y-71080285D02*
X145107819Y-71223142D01*
X145107819Y-71223142D02*
X145107819Y-71318380D01*
X145107819Y-71318380D02*
X145060200Y-71461237D01*
X145060200Y-71461237D02*
X144964961Y-71556475D01*
X144964961Y-71556475D02*
X144869723Y-71604094D01*
X144869723Y-71604094D02*
X144679247Y-71651713D01*
X144679247Y-71651713D02*
X144536390Y-71651713D01*
X144536390Y-71651713D02*
X144345914Y-71604094D01*
X144345914Y-71604094D02*
X144250676Y-71556475D01*
X144250676Y-71556475D02*
X144155438Y-71461237D01*
X144155438Y-71461237D02*
X144107819Y-71318380D01*
X144107819Y-71318380D02*
X144107819Y-71223142D01*
X144107819Y-71223142D02*
X144155438Y-71080285D01*
X144155438Y-71080285D02*
X144203057Y-71032666D01*
X144107819Y-70699332D02*
X144107819Y-70080285D01*
X144107819Y-70080285D02*
X144488771Y-70413618D01*
X144488771Y-70413618D02*
X144488771Y-70270761D01*
X144488771Y-70270761D02*
X144536390Y-70175523D01*
X144536390Y-70175523D02*
X144584009Y-70127904D01*
X144584009Y-70127904D02*
X144679247Y-70080285D01*
X144679247Y-70080285D02*
X144917342Y-70080285D01*
X144917342Y-70080285D02*
X145012580Y-70127904D01*
X145012580Y-70127904D02*
X145060200Y-70175523D01*
X145060200Y-70175523D02*
X145107819Y-70270761D01*
X145107819Y-70270761D02*
X145107819Y-70556475D01*
X145107819Y-70556475D02*
X145060200Y-70651713D01*
X145060200Y-70651713D02*
X145012580Y-70699332D01*
X151109833Y-72876580D02*
X151062214Y-72924200D01*
X151062214Y-72924200D02*
X150919357Y-72971819D01*
X150919357Y-72971819D02*
X150824119Y-72971819D01*
X150824119Y-72971819D02*
X150681262Y-72924200D01*
X150681262Y-72924200D02*
X150586024Y-72828961D01*
X150586024Y-72828961D02*
X150538405Y-72733723D01*
X150538405Y-72733723D02*
X150490786Y-72543247D01*
X150490786Y-72543247D02*
X150490786Y-72400390D01*
X150490786Y-72400390D02*
X150538405Y-72209914D01*
X150538405Y-72209914D02*
X150586024Y-72114676D01*
X150586024Y-72114676D02*
X150681262Y-72019438D01*
X150681262Y-72019438D02*
X150824119Y-71971819D01*
X150824119Y-71971819D02*
X150919357Y-71971819D01*
X150919357Y-71971819D02*
X151062214Y-72019438D01*
X151062214Y-72019438D02*
X151109833Y-72067057D01*
X151490786Y-72067057D02*
X151538405Y-72019438D01*
X151538405Y-72019438D02*
X151633643Y-71971819D01*
X151633643Y-71971819D02*
X151871738Y-71971819D01*
X151871738Y-71971819D02*
X151966976Y-72019438D01*
X151966976Y-72019438D02*
X152014595Y-72067057D01*
X152014595Y-72067057D02*
X152062214Y-72162295D01*
X152062214Y-72162295D02*
X152062214Y-72257533D01*
X152062214Y-72257533D02*
X152014595Y-72400390D01*
X152014595Y-72400390D02*
X151443167Y-72971819D01*
X151443167Y-72971819D02*
X152062214Y-72971819D01*
X147788333Y-81487319D02*
X147455000Y-81011128D01*
X147216905Y-81487319D02*
X147216905Y-80487319D01*
X147216905Y-80487319D02*
X147597857Y-80487319D01*
X147597857Y-80487319D02*
X147693095Y-80534938D01*
X147693095Y-80534938D02*
X147740714Y-80582557D01*
X147740714Y-80582557D02*
X147788333Y-80677795D01*
X147788333Y-80677795D02*
X147788333Y-80820652D01*
X147788333Y-80820652D02*
X147740714Y-80915890D01*
X147740714Y-80915890D02*
X147693095Y-80963509D01*
X147693095Y-80963509D02*
X147597857Y-81011128D01*
X147597857Y-81011128D02*
X147216905Y-81011128D01*
X148169286Y-80582557D02*
X148216905Y-80534938D01*
X148216905Y-80534938D02*
X148312143Y-80487319D01*
X148312143Y-80487319D02*
X148550238Y-80487319D01*
X148550238Y-80487319D02*
X148645476Y-80534938D01*
X148645476Y-80534938D02*
X148693095Y-80582557D01*
X148693095Y-80582557D02*
X148740714Y-80677795D01*
X148740714Y-80677795D02*
X148740714Y-80773033D01*
X148740714Y-80773033D02*
X148693095Y-80915890D01*
X148693095Y-80915890D02*
X148121667Y-81487319D01*
X148121667Y-81487319D02*
X148740714Y-81487319D01*
X145012580Y-80430666D02*
X145060200Y-80478285D01*
X145060200Y-80478285D02*
X145107819Y-80621142D01*
X145107819Y-80621142D02*
X145107819Y-80716380D01*
X145107819Y-80716380D02*
X145060200Y-80859237D01*
X145060200Y-80859237D02*
X144964961Y-80954475D01*
X144964961Y-80954475D02*
X144869723Y-81002094D01*
X144869723Y-81002094D02*
X144679247Y-81049713D01*
X144679247Y-81049713D02*
X144536390Y-81049713D01*
X144536390Y-81049713D02*
X144345914Y-81002094D01*
X144345914Y-81002094D02*
X144250676Y-80954475D01*
X144250676Y-80954475D02*
X144155438Y-80859237D01*
X144155438Y-80859237D02*
X144107819Y-80716380D01*
X144107819Y-80716380D02*
X144107819Y-80621142D01*
X144107819Y-80621142D02*
X144155438Y-80478285D01*
X144155438Y-80478285D02*
X144203057Y-80430666D01*
X145107819Y-79478285D02*
X145107819Y-80049713D01*
X145107819Y-79763999D02*
X144107819Y-79763999D01*
X144107819Y-79763999D02*
X144250676Y-79859237D01*
X144250676Y-79859237D02*
X144345914Y-79954475D01*
X144345914Y-79954475D02*
X144393533Y-80049713D01*
X146264333Y-71320819D02*
X145788143Y-71320819D01*
X145788143Y-71320819D02*
X145788143Y-70320819D01*
X147121476Y-71320819D02*
X146550048Y-71320819D01*
X146835762Y-71320819D02*
X146835762Y-70320819D01*
X146835762Y-70320819D02*
X146740524Y-70463676D01*
X146740524Y-70463676D02*
X146645286Y-70558914D01*
X146645286Y-70558914D02*
X146550048Y-70606533D01*
X143234580Y-71032666D02*
X143282200Y-71080285D01*
X143282200Y-71080285D02*
X143329819Y-71223142D01*
X143329819Y-71223142D02*
X143329819Y-71318380D01*
X143329819Y-71318380D02*
X143282200Y-71461237D01*
X143282200Y-71461237D02*
X143186961Y-71556475D01*
X143186961Y-71556475D02*
X143091723Y-71604094D01*
X143091723Y-71604094D02*
X142901247Y-71651713D01*
X142901247Y-71651713D02*
X142758390Y-71651713D01*
X142758390Y-71651713D02*
X142567914Y-71604094D01*
X142567914Y-71604094D02*
X142472676Y-71556475D01*
X142472676Y-71556475D02*
X142377438Y-71461237D01*
X142377438Y-71461237D02*
X142329819Y-71318380D01*
X142329819Y-71318380D02*
X142329819Y-71223142D01*
X142329819Y-71223142D02*
X142377438Y-71080285D01*
X142377438Y-71080285D02*
X142425057Y-71032666D01*
X142663152Y-70175523D02*
X143329819Y-70175523D01*
X142282200Y-70413618D02*
X142996485Y-70651713D01*
X142996485Y-70651713D02*
X142996485Y-70032666D01*
D12*
%TO.C,U1*%
X147955000Y-75121500D02*
X147155000Y-75121500D01*
X147955000Y-75121500D02*
X148755000Y-75121500D01*
X147955000Y-78241500D02*
X147155000Y-78241500D01*
X147955000Y-78241500D02*
X148755000Y-78241500D01*
X146655000Y-75171500D02*
X146415000Y-74841500D01*
X146895000Y-74841500D01*
X146655000Y-75171500D01*
G36*
X146655000Y-75171500D02*
G01*
X146415000Y-74841500D01*
X146895000Y-74841500D01*
X146655000Y-75171500D01*
G37*
%TO.C,R1*%
X150734500Y-78968224D02*
X150734500Y-78458776D01*
X151779500Y-78968224D02*
X151779500Y-78458776D01*
%TO.C,C3*%
X144143000Y-73513733D02*
X144143000Y-73806267D01*
X145163000Y-73513733D02*
X145163000Y-73806267D01*
%TO.C,C2*%
X150747000Y-74656733D02*
X150747000Y-74949267D01*
X151767000Y-74656733D02*
X151767000Y-74949267D01*
%TO.C,J1*%
X137354000Y-69541000D02*
X138684000Y-69541000D01*
X137354000Y-70871000D02*
X137354000Y-69541000D01*
X137354000Y-72141000D02*
X137354000Y-82361000D01*
X137354000Y-72141000D02*
X140014000Y-72141000D01*
X137354000Y-82361000D02*
X140014000Y-82361000D01*
X140014000Y-72141000D02*
X140014000Y-82361000D01*
%TO.C,R2*%
X148209724Y-79080000D02*
X147700276Y-79080000D01*
X148209724Y-80125000D02*
X147700276Y-80125000D01*
%TO.C,C1*%
X144143000Y-77424233D02*
X144143000Y-77716767D01*
X145163000Y-77424233D02*
X145163000Y-77716767D01*
%TO.C,L1*%
X148216252Y-71888500D02*
X147693748Y-71888500D01*
X148216252Y-74108500D02*
X147693748Y-74108500D01*
%TO.C,C4*%
X142111000Y-73487233D02*
X142111000Y-73779767D01*
X143131000Y-73487233D02*
X143131000Y-73779767D01*
%TD*%
M02*
