%TF.GenerationSoftware,KiCad,Pcbnew,8.0.6*%
%TF.CreationDate,2025-04-08T19:24:05-05:00*%
%TF.ProjectId,Buck_Converter,4275636b-5f43-46f6-9e76-65727465722e,rev?*%
%TF.SameCoordinates,Original*%
%TF.FileFunction,Legend,Bot*%
%TF.FilePolarity,Positive*%
%FSLAX46Y46*%
G04 Gerber Fmt 4.6, Leading zero omitted, Abs format (unit mm)*
G04 Created by KiCad (PCBNEW 8.0.6) date 2025-04-08 19:24:05*
%MOMM*%
%LPD*%
G01*
G04 APERTURE LIST*
%ADD10C,0.200000*%
%ADD11C,0.150000*%
%ADD12C,0.120000*%
G04 APERTURE END LIST*
D10*
X141605000Y-79819500D02*
X141605000Y-81978500D01*
X140345219Y-71076863D02*
X140345219Y-70600673D01*
X140345219Y-70600673D02*
X140821409Y-70553054D01*
X140821409Y-70553054D02*
X140773790Y-70600673D01*
X140773790Y-70600673D02*
X140726171Y-70695911D01*
X140726171Y-70695911D02*
X140726171Y-70934006D01*
X140726171Y-70934006D02*
X140773790Y-71029244D01*
X140773790Y-71029244D02*
X140821409Y-71076863D01*
X140821409Y-71076863D02*
X140916647Y-71124482D01*
X140916647Y-71124482D02*
X141154742Y-71124482D01*
X141154742Y-71124482D02*
X141249980Y-71076863D01*
X141249980Y-71076863D02*
X141297600Y-71029244D01*
X141297600Y-71029244D02*
X141345219Y-70934006D01*
X141345219Y-70934006D02*
X141345219Y-70695911D01*
X141345219Y-70695911D02*
X141297600Y-70600673D01*
X141297600Y-70600673D02*
X141249980Y-70553054D01*
X140392838Y-73600673D02*
X140345219Y-73505435D01*
X140345219Y-73505435D02*
X140345219Y-73362578D01*
X140345219Y-73362578D02*
X140392838Y-73219721D01*
X140392838Y-73219721D02*
X140488076Y-73124483D01*
X140488076Y-73124483D02*
X140583314Y-73076864D01*
X140583314Y-73076864D02*
X140773790Y-73029245D01*
X140773790Y-73029245D02*
X140916647Y-73029245D01*
X140916647Y-73029245D02*
X141107123Y-73076864D01*
X141107123Y-73076864D02*
X141202361Y-73124483D01*
X141202361Y-73124483D02*
X141297600Y-73219721D01*
X141297600Y-73219721D02*
X141345219Y-73362578D01*
X141345219Y-73362578D02*
X141345219Y-73457816D01*
X141345219Y-73457816D02*
X141297600Y-73600673D01*
X141297600Y-73600673D02*
X141249980Y-73648292D01*
X141249980Y-73648292D02*
X140916647Y-73648292D01*
X140916647Y-73648292D02*
X140916647Y-73457816D01*
X141345219Y-76124483D02*
X141345219Y-75553055D01*
X141345219Y-75838769D02*
X140345219Y-75838769D01*
X140345219Y-75838769D02*
X140488076Y-75743531D01*
X140488076Y-75743531D02*
X140583314Y-75648293D01*
X140583314Y-75648293D02*
X140630933Y-75553055D01*
X140440457Y-76505436D02*
X140392838Y-76553055D01*
X140392838Y-76553055D02*
X140345219Y-76648293D01*
X140345219Y-76648293D02*
X140345219Y-76886388D01*
X140345219Y-76886388D02*
X140392838Y-76981626D01*
X140392838Y-76981626D02*
X140440457Y-77029245D01*
X140440457Y-77029245D02*
X140535695Y-77076864D01*
X140535695Y-77076864D02*
X140630933Y-77076864D01*
X140630933Y-77076864D02*
X140773790Y-77029245D01*
X140773790Y-77029245D02*
X141345219Y-76457817D01*
X141345219Y-76457817D02*
X141345219Y-77076864D01*
X140392838Y-78791150D02*
X140345219Y-78695912D01*
X140345219Y-78695912D02*
X140345219Y-78553055D01*
X140345219Y-78553055D02*
X140392838Y-78410198D01*
X140392838Y-78410198D02*
X140488076Y-78314960D01*
X140488076Y-78314960D02*
X140583314Y-78267341D01*
X140583314Y-78267341D02*
X140773790Y-78219722D01*
X140773790Y-78219722D02*
X140916647Y-78219722D01*
X140916647Y-78219722D02*
X141107123Y-78267341D01*
X141107123Y-78267341D02*
X141202361Y-78314960D01*
X141202361Y-78314960D02*
X141297600Y-78410198D01*
X141297600Y-78410198D02*
X141345219Y-78553055D01*
X141345219Y-78553055D02*
X141345219Y-78648293D01*
X141345219Y-78648293D02*
X141297600Y-78791150D01*
X141297600Y-78791150D02*
X141249980Y-78838769D01*
X141249980Y-78838769D02*
X140916647Y-78838769D01*
X140916647Y-78838769D02*
X140916647Y-78648293D01*
X140345219Y-79934008D02*
X140345219Y-80553055D01*
X140345219Y-80553055D02*
X140726171Y-80219722D01*
X140726171Y-80219722D02*
X140726171Y-80362579D01*
X140726171Y-80362579D02*
X140773790Y-80457817D01*
X140773790Y-80457817D02*
X140821409Y-80505436D01*
X140821409Y-80505436D02*
X140916647Y-80553055D01*
X140916647Y-80553055D02*
X141154742Y-80553055D01*
X141154742Y-80553055D02*
X141249980Y-80505436D01*
X141249980Y-80505436D02*
X141297600Y-80457817D01*
X141297600Y-80457817D02*
X141345219Y-80362579D01*
X141345219Y-80362579D02*
X141345219Y-80076865D01*
X141345219Y-80076865D02*
X141297600Y-79981627D01*
X141297600Y-79981627D02*
X141249980Y-79934008D01*
X141249980Y-80981627D02*
X141297600Y-81029246D01*
X141297600Y-81029246D02*
X141345219Y-80981627D01*
X141345219Y-80981627D02*
X141297600Y-80934008D01*
X141297600Y-80934008D02*
X141249980Y-80981627D01*
X141249980Y-80981627D02*
X141345219Y-80981627D01*
X140345219Y-81362579D02*
X140345219Y-81981626D01*
X140345219Y-81981626D02*
X140726171Y-81648293D01*
X140726171Y-81648293D02*
X140726171Y-81791150D01*
X140726171Y-81791150D02*
X140773790Y-81886388D01*
X140773790Y-81886388D02*
X140821409Y-81934007D01*
X140821409Y-81934007D02*
X140916647Y-81981626D01*
X140916647Y-81981626D02*
X141154742Y-81981626D01*
X141154742Y-81981626D02*
X141249980Y-81934007D01*
X141249980Y-81934007D02*
X141297600Y-81886388D01*
X141297600Y-81886388D02*
X141345219Y-81791150D01*
X141345219Y-81791150D02*
X141345219Y-81505436D01*
X141345219Y-81505436D02*
X141297600Y-81410198D01*
X141297600Y-81410198D02*
X141249980Y-81362579D01*
X143123219Y-70854673D02*
X142123219Y-70854673D01*
X142123219Y-70854673D02*
X142837504Y-71188006D01*
X142837504Y-71188006D02*
X142123219Y-71521339D01*
X142123219Y-71521339D02*
X143123219Y-71521339D01*
X142599409Y-71997530D02*
X142599409Y-72330863D01*
X143123219Y-72473720D02*
X143123219Y-71997530D01*
X143123219Y-71997530D02*
X142123219Y-71997530D01*
X142123219Y-71997530D02*
X142123219Y-72473720D01*
X143123219Y-72902292D02*
X142123219Y-72902292D01*
X143123219Y-73330863D02*
X142599409Y-73330863D01*
X142599409Y-73330863D02*
X142504171Y-73283244D01*
X142504171Y-73283244D02*
X142456552Y-73188006D01*
X142456552Y-73188006D02*
X142456552Y-73045149D01*
X142456552Y-73045149D02*
X142504171Y-72949911D01*
X142504171Y-72949911D02*
X142551790Y-72902292D01*
X143123219Y-73949911D02*
X143075600Y-73854673D01*
X143075600Y-73854673D02*
X142980361Y-73807054D01*
X142980361Y-73807054D02*
X142123219Y-73807054D01*
X143075600Y-74711816D02*
X143123219Y-74616578D01*
X143123219Y-74616578D02*
X143123219Y-74426102D01*
X143123219Y-74426102D02*
X143075600Y-74330864D01*
X143075600Y-74330864D02*
X142980361Y-74283245D01*
X142980361Y-74283245D02*
X142599409Y-74283245D01*
X142599409Y-74283245D02*
X142504171Y-74330864D01*
X142504171Y-74330864D02*
X142456552Y-74426102D01*
X142456552Y-74426102D02*
X142456552Y-74616578D01*
X142456552Y-74616578D02*
X142504171Y-74711816D01*
X142504171Y-74711816D02*
X142599409Y-74759435D01*
X142599409Y-74759435D02*
X142694647Y-74759435D01*
X142694647Y-74759435D02*
X142789885Y-74283245D01*
X143123219Y-75188007D02*
X142456552Y-75188007D01*
X142647028Y-75188007D02*
X142551790Y-75235626D01*
X142551790Y-75235626D02*
X142504171Y-75283245D01*
X142504171Y-75283245D02*
X142456552Y-75378483D01*
X142456552Y-75378483D02*
X142456552Y-75473721D01*
X143075600Y-75759436D02*
X143123219Y-75854674D01*
X143123219Y-75854674D02*
X143123219Y-76045150D01*
X143123219Y-76045150D02*
X143075600Y-76140388D01*
X143075600Y-76140388D02*
X142980361Y-76188007D01*
X142980361Y-76188007D02*
X142932742Y-76188007D01*
X142932742Y-76188007D02*
X142837504Y-76140388D01*
X142837504Y-76140388D02*
X142789885Y-76045150D01*
X142789885Y-76045150D02*
X142789885Y-75902293D01*
X142789885Y-75902293D02*
X142742266Y-75807055D01*
X142742266Y-75807055D02*
X142647028Y-75759436D01*
X142647028Y-75759436D02*
X142599409Y-75759436D01*
X142599409Y-75759436D02*
X142504171Y-75807055D01*
X142504171Y-75807055D02*
X142456552Y-75902293D01*
X142456552Y-75902293D02*
X142456552Y-76045150D01*
X142456552Y-76045150D02*
X142504171Y-76140388D01*
D11*
X151418166Y-71066819D02*
X151751499Y-70590628D01*
X151989594Y-71066819D02*
X151989594Y-70066819D01*
X151989594Y-70066819D02*
X151608642Y-70066819D01*
X151608642Y-70066819D02*
X151513404Y-70114438D01*
X151513404Y-70114438D02*
X151465785Y-70162057D01*
X151465785Y-70162057D02*
X151418166Y-70257295D01*
X151418166Y-70257295D02*
X151418166Y-70400152D01*
X151418166Y-70400152D02*
X151465785Y-70495390D01*
X151465785Y-70495390D02*
X151513404Y-70543009D01*
X151513404Y-70543009D02*
X151608642Y-70590628D01*
X151608642Y-70590628D02*
X151989594Y-70590628D01*
X151084832Y-70066819D02*
X150465785Y-70066819D01*
X150465785Y-70066819D02*
X150799118Y-70447771D01*
X150799118Y-70447771D02*
X150656261Y-70447771D01*
X150656261Y-70447771D02*
X150561023Y-70495390D01*
X150561023Y-70495390D02*
X150513404Y-70543009D01*
X150513404Y-70543009D02*
X150465785Y-70638247D01*
X150465785Y-70638247D02*
X150465785Y-70876342D01*
X150465785Y-70876342D02*
X150513404Y-70971580D01*
X150513404Y-70971580D02*
X150561023Y-71019200D01*
X150561023Y-71019200D02*
X150656261Y-71066819D01*
X150656261Y-71066819D02*
X150941975Y-71066819D01*
X150941975Y-71066819D02*
X151037213Y-71019200D01*
X151037213Y-71019200D02*
X151084832Y-70971580D01*
X151418166Y-79734580D02*
X151465785Y-79782200D01*
X151465785Y-79782200D02*
X151608642Y-79829819D01*
X151608642Y-79829819D02*
X151703880Y-79829819D01*
X151703880Y-79829819D02*
X151846737Y-79782200D01*
X151846737Y-79782200D02*
X151941975Y-79686961D01*
X151941975Y-79686961D02*
X151989594Y-79591723D01*
X151989594Y-79591723D02*
X152037213Y-79401247D01*
X152037213Y-79401247D02*
X152037213Y-79258390D01*
X152037213Y-79258390D02*
X151989594Y-79067914D01*
X151989594Y-79067914D02*
X151941975Y-78972676D01*
X151941975Y-78972676D02*
X151846737Y-78877438D01*
X151846737Y-78877438D02*
X151703880Y-78829819D01*
X151703880Y-78829819D02*
X151608642Y-78829819D01*
X151608642Y-78829819D02*
X151465785Y-78877438D01*
X151465785Y-78877438D02*
X151418166Y-78925057D01*
X150561023Y-78829819D02*
X150751499Y-78829819D01*
X150751499Y-78829819D02*
X150846737Y-78877438D01*
X150846737Y-78877438D02*
X150894356Y-78925057D01*
X150894356Y-78925057D02*
X150989594Y-79067914D01*
X150989594Y-79067914D02*
X151037213Y-79258390D01*
X151037213Y-79258390D02*
X151037213Y-79639342D01*
X151037213Y-79639342D02*
X150989594Y-79734580D01*
X150989594Y-79734580D02*
X150941975Y-79782200D01*
X150941975Y-79782200D02*
X150846737Y-79829819D01*
X150846737Y-79829819D02*
X150656261Y-79829819D01*
X150656261Y-79829819D02*
X150561023Y-79782200D01*
X150561023Y-79782200D02*
X150513404Y-79734580D01*
X150513404Y-79734580D02*
X150465785Y-79639342D01*
X150465785Y-79639342D02*
X150465785Y-79401247D01*
X150465785Y-79401247D02*
X150513404Y-79306009D01*
X150513404Y-79306009D02*
X150561023Y-79258390D01*
X150561023Y-79258390D02*
X150656261Y-79210771D01*
X150656261Y-79210771D02*
X150846737Y-79210771D01*
X150846737Y-79210771D02*
X150941975Y-79258390D01*
X150941975Y-79258390D02*
X150989594Y-79306009D01*
X150989594Y-79306009D02*
X151037213Y-79401247D01*
X148116166Y-71160819D02*
X148449499Y-70684628D01*
X148687594Y-71160819D02*
X148687594Y-70160819D01*
X148687594Y-70160819D02*
X148306642Y-70160819D01*
X148306642Y-70160819D02*
X148211404Y-70208438D01*
X148211404Y-70208438D02*
X148163785Y-70256057D01*
X148163785Y-70256057D02*
X148116166Y-70351295D01*
X148116166Y-70351295D02*
X148116166Y-70494152D01*
X148116166Y-70494152D02*
X148163785Y-70589390D01*
X148163785Y-70589390D02*
X148211404Y-70637009D01*
X148211404Y-70637009D02*
X148306642Y-70684628D01*
X148306642Y-70684628D02*
X148687594Y-70684628D01*
X147259023Y-70494152D02*
X147259023Y-71160819D01*
X147497118Y-70113200D02*
X147735213Y-70827485D01*
X147735213Y-70827485D02*
X147116166Y-70827485D01*
X145012580Y-80605333D02*
X145060200Y-80557714D01*
X145060200Y-80557714D02*
X145107819Y-80414857D01*
X145107819Y-80414857D02*
X145107819Y-80319619D01*
X145107819Y-80319619D02*
X145060200Y-80176762D01*
X145060200Y-80176762D02*
X144964961Y-80081524D01*
X144964961Y-80081524D02*
X144869723Y-80033905D01*
X144869723Y-80033905D02*
X144679247Y-79986286D01*
X144679247Y-79986286D02*
X144536390Y-79986286D01*
X144536390Y-79986286D02*
X144345914Y-80033905D01*
X144345914Y-80033905D02*
X144250676Y-80081524D01*
X144250676Y-80081524D02*
X144155438Y-80176762D01*
X144155438Y-80176762D02*
X144107819Y-80319619D01*
X144107819Y-80319619D02*
X144107819Y-80414857D01*
X144107819Y-80414857D02*
X144155438Y-80557714D01*
X144155438Y-80557714D02*
X144203057Y-80605333D01*
X144107819Y-80938667D02*
X144107819Y-81605333D01*
X144107819Y-81605333D02*
X145107819Y-81176762D01*
X142980580Y-80605333D02*
X143028200Y-80557714D01*
X143028200Y-80557714D02*
X143075819Y-80414857D01*
X143075819Y-80414857D02*
X143075819Y-80319619D01*
X143075819Y-80319619D02*
X143028200Y-80176762D01*
X143028200Y-80176762D02*
X142932961Y-80081524D01*
X142932961Y-80081524D02*
X142837723Y-80033905D01*
X142837723Y-80033905D02*
X142647247Y-79986286D01*
X142647247Y-79986286D02*
X142504390Y-79986286D01*
X142504390Y-79986286D02*
X142313914Y-80033905D01*
X142313914Y-80033905D02*
X142218676Y-80081524D01*
X142218676Y-80081524D02*
X142123438Y-80176762D01*
X142123438Y-80176762D02*
X142075819Y-80319619D01*
X142075819Y-80319619D02*
X142075819Y-80414857D01*
X142075819Y-80414857D02*
X142123438Y-80557714D01*
X142123438Y-80557714D02*
X142171057Y-80605333D01*
X142504390Y-81176762D02*
X142456771Y-81081524D01*
X142456771Y-81081524D02*
X142409152Y-81033905D01*
X142409152Y-81033905D02*
X142313914Y-80986286D01*
X142313914Y-80986286D02*
X142266295Y-80986286D01*
X142266295Y-80986286D02*
X142171057Y-81033905D01*
X142171057Y-81033905D02*
X142123438Y-81081524D01*
X142123438Y-81081524D02*
X142075819Y-81176762D01*
X142075819Y-81176762D02*
X142075819Y-81367238D01*
X142075819Y-81367238D02*
X142123438Y-81462476D01*
X142123438Y-81462476D02*
X142171057Y-81510095D01*
X142171057Y-81510095D02*
X142266295Y-81557714D01*
X142266295Y-81557714D02*
X142313914Y-81557714D01*
X142313914Y-81557714D02*
X142409152Y-81510095D01*
X142409152Y-81510095D02*
X142456771Y-81462476D01*
X142456771Y-81462476D02*
X142504390Y-81367238D01*
X142504390Y-81367238D02*
X142504390Y-81176762D01*
X142504390Y-81176762D02*
X142552009Y-81081524D01*
X142552009Y-81081524D02*
X142599628Y-81033905D01*
X142599628Y-81033905D02*
X142694866Y-80986286D01*
X142694866Y-80986286D02*
X142885342Y-80986286D01*
X142885342Y-80986286D02*
X142980580Y-81033905D01*
X142980580Y-81033905D02*
X143028200Y-81081524D01*
X143028200Y-81081524D02*
X143075819Y-81176762D01*
X143075819Y-81176762D02*
X143075819Y-81367238D01*
X143075819Y-81367238D02*
X143028200Y-81462476D01*
X143028200Y-81462476D02*
X142980580Y-81510095D01*
X142980580Y-81510095D02*
X142885342Y-81557714D01*
X142885342Y-81557714D02*
X142694866Y-81557714D01*
X142694866Y-81557714D02*
X142599628Y-81510095D01*
X142599628Y-81510095D02*
X142552009Y-81462476D01*
X142552009Y-81462476D02*
X142504390Y-81367238D01*
X148121666Y-81353819D02*
X148597856Y-81353819D01*
X148597856Y-81353819D02*
X148597856Y-80353819D01*
X147835951Y-80449057D02*
X147788332Y-80401438D01*
X147788332Y-80401438D02*
X147693094Y-80353819D01*
X147693094Y-80353819D02*
X147454999Y-80353819D01*
X147454999Y-80353819D02*
X147359761Y-80401438D01*
X147359761Y-80401438D02*
X147312142Y-80449057D01*
X147312142Y-80449057D02*
X147264523Y-80544295D01*
X147264523Y-80544295D02*
X147264523Y-80639533D01*
X147264523Y-80639533D02*
X147312142Y-80782390D01*
X147312142Y-80782390D02*
X147883570Y-81353819D01*
X147883570Y-81353819D02*
X147264523Y-81353819D01*
X145012580Y-71461333D02*
X145060200Y-71413714D01*
X145060200Y-71413714D02*
X145107819Y-71270857D01*
X145107819Y-71270857D02*
X145107819Y-71175619D01*
X145107819Y-71175619D02*
X145060200Y-71032762D01*
X145060200Y-71032762D02*
X144964961Y-70937524D01*
X144964961Y-70937524D02*
X144869723Y-70889905D01*
X144869723Y-70889905D02*
X144679247Y-70842286D01*
X144679247Y-70842286D02*
X144536390Y-70842286D01*
X144536390Y-70842286D02*
X144345914Y-70889905D01*
X144345914Y-70889905D02*
X144250676Y-70937524D01*
X144250676Y-70937524D02*
X144155438Y-71032762D01*
X144155438Y-71032762D02*
X144107819Y-71175619D01*
X144107819Y-71175619D02*
X144107819Y-71270857D01*
X144107819Y-71270857D02*
X144155438Y-71413714D01*
X144155438Y-71413714D02*
X144203057Y-71461333D01*
X144107819Y-72366095D02*
X144107819Y-71889905D01*
X144107819Y-71889905D02*
X144584009Y-71842286D01*
X144584009Y-71842286D02*
X144536390Y-71889905D01*
X144536390Y-71889905D02*
X144488771Y-71985143D01*
X144488771Y-71985143D02*
X144488771Y-72223238D01*
X144488771Y-72223238D02*
X144536390Y-72318476D01*
X144536390Y-72318476D02*
X144584009Y-72366095D01*
X144584009Y-72366095D02*
X144679247Y-72413714D01*
X144679247Y-72413714D02*
X144917342Y-72413714D01*
X144917342Y-72413714D02*
X145012580Y-72366095D01*
X145012580Y-72366095D02*
X145060200Y-72318476D01*
X145060200Y-72318476D02*
X145107819Y-72223238D01*
X145107819Y-72223238D02*
X145107819Y-71985143D01*
X145107819Y-71985143D02*
X145060200Y-71889905D01*
X145060200Y-71889905D02*
X145012580Y-71842286D01*
D12*
%TO.C,R3*%
X150729000Y-73279724D02*
X150729000Y-72770276D01*
X151774000Y-73279724D02*
X151774000Y-72770276D01*
%TO.C,U2*%
X147149500Y-73497000D02*
X147949500Y-73497000D01*
X147149500Y-76617000D02*
X147949500Y-76617000D01*
X148749500Y-73497000D02*
X147949500Y-73497000D01*
X148749500Y-76617000D02*
X147949500Y-76617000D01*
X146889500Y-76897000D02*
X146409500Y-76897000D01*
X146649500Y-76567000D01*
X146889500Y-76897000D01*
G36*
X146889500Y-76897000D02*
G01*
X146409500Y-76897000D01*
X146649500Y-76567000D01*
X146889500Y-76897000D01*
G37*
%TO.C,C6*%
X150741500Y-76789233D02*
X150741500Y-77081767D01*
X151761500Y-76789233D02*
X151761500Y-77081767D01*
%TO.C,R4*%
X147694776Y-71613500D02*
X148204224Y-71613500D01*
X147694776Y-72658500D02*
X148204224Y-72658500D01*
%TO.C,C7*%
X144137500Y-77932233D02*
X144137500Y-78224767D01*
X145157500Y-77932233D02*
X145157500Y-78224767D01*
%TO.C,C8*%
X142105500Y-77958733D02*
X142105500Y-78251267D01*
X143125500Y-77958733D02*
X143125500Y-78251267D01*
%TO.C,L2*%
X147688248Y-77630000D02*
X148210752Y-77630000D01*
X147688248Y-79850000D02*
X148210752Y-79850000D01*
%TO.C,C5*%
X144137500Y-74148733D02*
X144137500Y-74441267D01*
X145157500Y-74148733D02*
X145157500Y-74441267D01*
%TD*%
M02*
