%TF.GenerationSoftware,KiCad,Pcbnew,8.0.6*%
%TF.CreationDate,2025-04-08T19:24:05-05:00*%
%TF.ProjectId,Buck_Converter,4275636b-5f43-46f6-9e76-65727465722e,rev?*%
%TF.SameCoordinates,Original*%
%TF.FileFunction,Copper,L2,Bot*%
%TF.FilePolarity,Positive*%
%FSLAX46Y46*%
G04 Gerber Fmt 4.6, Leading zero omitted, Abs format (unit mm)*
G04 Created by KiCad (PCBNEW 8.0.6) date 2025-04-08 19:24:05*
%MOMM*%
%LPD*%
G01*
G04 APERTURE LIST*
G04 Aperture macros list*
%AMRoundRect*
0 Rectangle with rounded corners*
0 $1 Rounding radius*
0 $2 $3 $4 $5 $6 $7 $8 $9 X,Y pos of 4 corners*
0 Add a 4 corners polygon primitive as box body*
4,1,4,$2,$3,$4,$5,$6,$7,$8,$9,$2,$3,0*
0 Add four circle primitives for the rounded corners*
1,1,$1+$1,$2,$3*
1,1,$1+$1,$4,$5*
1,1,$1+$1,$6,$7*
1,1,$1+$1,$8,$9*
0 Add four rect primitives between the rounded corners*
20,1,$1+$1,$2,$3,$4,$5,0*
20,1,$1+$1,$4,$5,$6,$7,0*
20,1,$1+$1,$6,$7,$8,$9,0*
20,1,$1+$1,$8,$9,$2,$3,0*%
G04 Aperture macros list end*
%TA.AperFunction,ComponentPad*%
%ADD10R,1.700000X1.700000*%
%TD*%
%TA.AperFunction,ComponentPad*%
%ADD11O,1.700000X1.700000*%
%TD*%
%TA.AperFunction,SMDPad,CuDef*%
%ADD12RoundRect,0.237500X-0.237500X0.250000X-0.237500X-0.250000X0.237500X-0.250000X0.237500X0.250000X0*%
%TD*%
%TA.AperFunction,SMDPad,CuDef*%
%ADD13RoundRect,0.150000X-0.512500X-0.150000X0.512500X-0.150000X0.512500X0.150000X-0.512500X0.150000X0*%
%TD*%
%TA.AperFunction,SMDPad,CuDef*%
%ADD14RoundRect,0.237500X0.237500X-0.300000X0.237500X0.300000X-0.237500X0.300000X-0.237500X-0.300000X0*%
%TD*%
%TA.AperFunction,SMDPad,CuDef*%
%ADD15RoundRect,0.237500X0.250000X0.237500X-0.250000X0.237500X-0.250000X-0.237500X0.250000X-0.237500X0*%
%TD*%
%TA.AperFunction,SMDPad,CuDef*%
%ADD16RoundRect,0.250001X0.462499X0.849999X-0.462499X0.849999X-0.462499X-0.849999X0.462499X-0.849999X0*%
%TD*%
%TA.AperFunction,ViaPad*%
%ADD17C,0.600000*%
%TD*%
%TA.AperFunction,Conductor*%
%ADD18C,0.254000*%
%TD*%
%TA.AperFunction,Conductor*%
%ADD19C,0.381000*%
%TD*%
%TA.AperFunction,Conductor*%
%ADD20C,0.635000*%
%TD*%
G04 APERTURE END LIST*
D10*
%TO.P,J1,1,Pin_1*%
%TO.N,+5V*%
X138684000Y-70871000D03*
D11*
%TO.P,J1,2,Pin_2*%
%TO.N,GND*%
X138684000Y-73411000D03*
%TO.P,J1,3,Pin_3*%
%TO.N,+12V*%
X138684000Y-75951000D03*
%TO.P,J1,4,Pin_4*%
%TO.N,GND*%
X138684000Y-78491000D03*
%TO.P,J1,5,Pin_5*%
%TO.N,+3V3*%
X138684000Y-81031000D03*
%TD*%
D12*
%TO.P,R3,1*%
%TO.N,+3V3*%
X151251500Y-72112500D03*
%TO.P,R3,2*%
%TO.N,Net-(U2-FB)*%
X151251500Y-73937500D03*
%TD*%
D13*
%TO.P,U2,1,GND*%
%TO.N,GND*%
X146812000Y-76007000D03*
%TO.P,U2,2,SW*%
%TO.N,Net-(U2-SW)*%
X146812000Y-75057000D03*
%TO.P,U2,3,VIN*%
%TO.N,+12V*%
X146812000Y-74107000D03*
%TO.P,U2,4,FB*%
%TO.N,Net-(U2-FB)*%
X149087000Y-74107000D03*
%TO.P,U2,5,EN*%
%TO.N,unconnected-(U2-EN-Pad5)*%
X149087000Y-75057000D03*
%TO.P,U2,6,BST*%
%TO.N,Net-(U2-BST)*%
X149087000Y-76007000D03*
%TD*%
D14*
%TO.P,C6,1*%
%TO.N,Net-(U2-SW)*%
X151251500Y-77798000D03*
%TO.P,C6,2*%
%TO.N,Net-(U2-BST)*%
X151251500Y-76073000D03*
%TD*%
D15*
%TO.P,R4,1*%
%TO.N,Net-(U2-FB)*%
X148862000Y-72136000D03*
%TO.P,R4,2*%
%TO.N,GND*%
X147037000Y-72136000D03*
%TD*%
D14*
%TO.P,C7,1*%
%TO.N,+3V3*%
X144647500Y-78941000D03*
%TO.P,C7,2*%
%TO.N,GND*%
X144647500Y-77216000D03*
%TD*%
%TO.P,C8,1*%
%TO.N,+3V3*%
X142615500Y-78967500D03*
%TO.P,C8,2*%
%TO.N,GND*%
X142615500Y-77242500D03*
%TD*%
D16*
%TO.P,L2,1,1*%
%TO.N,Net-(U2-SW)*%
X149112000Y-78740000D03*
%TO.P,L2,2,2*%
%TO.N,+3V3*%
X146787000Y-78740000D03*
%TD*%
D14*
%TO.P,C5,1*%
%TO.N,+12V*%
X144647500Y-75157500D03*
%TO.P,C5,2*%
%TO.N,GND*%
X144647500Y-73432500D03*
%TD*%
D17*
%TO.N,GND*%
X145669000Y-76327000D03*
X145669000Y-75438000D03*
%TD*%
D18*
%TO.N,Net-(U2-BST)*%
X151205500Y-76119000D02*
X149087000Y-76119000D01*
%TO.N,Net-(U2-SW)*%
X150309500Y-78740000D02*
X151251500Y-77798000D01*
X147474499Y-75057000D02*
X146812000Y-75057000D01*
X147855500Y-77483500D02*
X147855500Y-75438001D01*
X149112000Y-78740000D02*
X147855500Y-77483500D01*
X149112000Y-78740000D02*
X150309500Y-78740000D01*
X147855500Y-75438001D02*
X147474499Y-75057000D01*
D19*
%TO.N,+3V3*%
X152117000Y-72978000D02*
X152117000Y-78364706D01*
X144647500Y-78941000D02*
X146586000Y-78941000D01*
X148277500Y-80230500D02*
X146787000Y-78740000D01*
X138684000Y-81031000D02*
X140552000Y-81031000D01*
X152117000Y-78364706D02*
X150251206Y-80230500D01*
X142615500Y-78967500D02*
X144621000Y-78967500D01*
X151251500Y-72112500D02*
X152117000Y-72978000D01*
X142615500Y-78967500D02*
X140589000Y-80994000D01*
X150251206Y-80230500D02*
X148277500Y-80230500D01*
D18*
%TO.N,Net-(U2-FB)*%
X149087000Y-74107000D02*
X151082000Y-74107000D01*
X149087000Y-74107000D02*
X149087000Y-72361000D01*
D20*
%TO.N,+12V*%
X146812000Y-74107000D02*
X145698000Y-74107000D01*
X139477500Y-75157500D02*
X138684000Y-75951000D01*
X144647500Y-75157500D02*
X139477500Y-75157500D01*
X145698000Y-74107000D02*
X144647500Y-75157500D01*
%TD*%
%TA.AperFunction,Conductor*%
%TO.N,GND*%
G36*
X145867032Y-74774697D02*
G01*
X145923868Y-74817244D01*
X145948679Y-74883764D01*
X145949000Y-74892753D01*
X145949000Y-75240261D01*
X145958927Y-75308394D01*
X146010301Y-75413482D01*
X146010303Y-75413485D01*
X146093014Y-75496196D01*
X146093017Y-75496198D01*
X146198107Y-75547573D01*
X146266240Y-75557500D01*
X146266245Y-75557500D01*
X147357755Y-75557500D01*
X147357760Y-75557500D01*
X147383832Y-75553701D01*
X147454124Y-75563671D01*
X147507868Y-75610061D01*
X147528000Y-75678144D01*
X147528000Y-77332587D01*
X147507998Y-77400708D01*
X147454342Y-77447201D01*
X147384068Y-77457305D01*
X147360387Y-77451517D01*
X147334200Y-77442354D01*
X147313191Y-77440384D01*
X147303765Y-77439500D01*
X147303763Y-77439500D01*
X146270243Y-77439500D01*
X146270228Y-77439501D01*
X146245888Y-77441783D01*
X146239802Y-77442354D01*
X146239798Y-77442355D01*
X146239795Y-77442356D01*
X146111618Y-77487206D01*
X146111614Y-77487208D01*
X146002349Y-77567849D01*
X145921708Y-77677114D01*
X145921706Y-77677118D01*
X145876855Y-77805296D01*
X145876854Y-77805300D01*
X145874000Y-77835734D01*
X145874000Y-78424000D01*
X145853998Y-78492121D01*
X145800342Y-78538614D01*
X145748000Y-78550000D01*
X145406600Y-78550000D01*
X145338479Y-78529998D01*
X145291986Y-78476342D01*
X145287671Y-78465616D01*
X145276616Y-78434025D01*
X145260730Y-78412500D01*
X145198211Y-78327789D01*
X145102506Y-78257156D01*
X145091974Y-78249383D01*
X145091975Y-78249383D01*
X144967354Y-78205776D01*
X144967349Y-78205775D01*
X144937758Y-78203000D01*
X144937756Y-78203000D01*
X144357244Y-78203000D01*
X144357241Y-78203000D01*
X144327650Y-78205775D01*
X144327645Y-78205776D01*
X144203025Y-78249383D01*
X144096789Y-78327789D01*
X144018384Y-78434023D01*
X144009111Y-78460525D01*
X143998057Y-78492116D01*
X143956679Y-78549807D01*
X143890679Y-78575969D01*
X143879128Y-78576500D01*
X143374600Y-78576500D01*
X143306479Y-78556498D01*
X143259986Y-78502842D01*
X143255671Y-78492116D01*
X143244616Y-78460525D01*
X143225057Y-78434023D01*
X143166211Y-78354289D01*
X143059975Y-78275884D01*
X143059974Y-78275883D01*
X143059975Y-78275883D01*
X142935354Y-78232276D01*
X142935349Y-78232275D01*
X142905758Y-78229500D01*
X142905756Y-78229500D01*
X142325244Y-78229500D01*
X142325241Y-78229500D01*
X142295650Y-78232275D01*
X142295645Y-78232276D01*
X142171025Y-78275883D01*
X142064789Y-78354289D01*
X141986383Y-78460525D01*
X141942776Y-78585145D01*
X141942775Y-78585150D01*
X141940000Y-78614741D01*
X141940000Y-79037852D01*
X141919998Y-79105973D01*
X141903095Y-79126947D01*
X140426947Y-80603095D01*
X140364635Y-80637121D01*
X140337852Y-80640000D01*
X139741677Y-80640000D01*
X139673556Y-80619998D01*
X139630555Y-80573396D01*
X139561686Y-80444552D01*
X139561685Y-80444550D01*
X139430410Y-80284590D01*
X139270450Y-80153315D01*
X139270448Y-80153314D01*
X139270447Y-80153313D01*
X139087954Y-80055768D01*
X139044007Y-80042437D01*
X138889934Y-79995700D01*
X138889933Y-79995699D01*
X138889927Y-79995698D01*
X138684003Y-79975417D01*
X138683997Y-79975417D01*
X138478072Y-79995698D01*
X138280045Y-80055768D01*
X138097552Y-80153313D01*
X137993433Y-80238761D01*
X137928085Y-80266514D01*
X137858107Y-80254532D01*
X137805716Y-80206619D01*
X137787500Y-80141361D01*
X137787500Y-76840638D01*
X137807502Y-76772517D01*
X137861158Y-76726024D01*
X137931432Y-76715920D01*
X137993430Y-76743236D01*
X138097550Y-76828685D01*
X138280046Y-76926232D01*
X138478066Y-76986300D01*
X138478070Y-76986300D01*
X138478072Y-76986301D01*
X138683997Y-77006583D01*
X138684000Y-77006583D01*
X138684003Y-77006583D01*
X138889927Y-76986301D01*
X138889928Y-76986300D01*
X138889934Y-76986300D01*
X139087954Y-76926232D01*
X139270450Y-76828685D01*
X139430410Y-76697410D01*
X139561685Y-76537450D01*
X139659232Y-76354954D01*
X139719300Y-76156934D01*
X139739583Y-75951000D01*
X139733843Y-75892725D01*
X139726075Y-75813850D01*
X139739303Y-75744097D01*
X139788144Y-75692569D01*
X139851468Y-75675500D01*
X143962912Y-75675500D01*
X144031033Y-75695502D01*
X144064291Y-75726679D01*
X144096788Y-75770710D01*
X144096789Y-75770711D01*
X144119710Y-75787627D01*
X144203021Y-75849114D01*
X144203024Y-75849116D01*
X144327645Y-75892723D01*
X144327651Y-75892725D01*
X144357244Y-75895500D01*
X144357247Y-75895500D01*
X144937753Y-75895500D01*
X144937756Y-75895500D01*
X144967349Y-75892725D01*
X145091975Y-75849116D01*
X145198211Y-75770711D01*
X145276616Y-75664475D01*
X145320225Y-75539849D01*
X145323000Y-75510256D01*
X145323000Y-75266753D01*
X145343002Y-75198632D01*
X145359905Y-75177658D01*
X145733905Y-74803658D01*
X145796217Y-74769632D01*
X145867032Y-74774697D01*
G37*
%TD.AperFunction*%
%TA.AperFunction,Conductor*%
G36*
X152349621Y-69989502D02*
G01*
X152396114Y-70043158D01*
X152407500Y-70095500D01*
X152407500Y-72411352D01*
X152387498Y-72479473D01*
X152333842Y-72525966D01*
X152263568Y-72536070D01*
X152198988Y-72506576D01*
X152192405Y-72500447D01*
X151963905Y-72271947D01*
X151929879Y-72209635D01*
X151927000Y-72182852D01*
X151927000Y-71809747D01*
X151927000Y-71809744D01*
X151924225Y-71780151D01*
X151910436Y-71740746D01*
X151880616Y-71655525D01*
X151802211Y-71549289D01*
X151695975Y-71470884D01*
X151695974Y-71470883D01*
X151695975Y-71470883D01*
X151571354Y-71427276D01*
X151571349Y-71427275D01*
X151541758Y-71424500D01*
X151541756Y-71424500D01*
X150961244Y-71424500D01*
X150961241Y-71424500D01*
X150931650Y-71427275D01*
X150931645Y-71427276D01*
X150807025Y-71470883D01*
X150700789Y-71549289D01*
X150622383Y-71655525D01*
X150578776Y-71780145D01*
X150578775Y-71780150D01*
X150576000Y-71809741D01*
X150576000Y-72415258D01*
X150578775Y-72444849D01*
X150578776Y-72444854D01*
X150622383Y-72569474D01*
X150630502Y-72580475D01*
X150700789Y-72675711D01*
X150807025Y-72754116D01*
X150807024Y-72754116D01*
X150931645Y-72797723D01*
X150931651Y-72797725D01*
X150961244Y-72800500D01*
X151334352Y-72800500D01*
X151402473Y-72820502D01*
X151423447Y-72837405D01*
X151620447Y-73034405D01*
X151654473Y-73096717D01*
X151649408Y-73167532D01*
X151606861Y-73224368D01*
X151540341Y-73249179D01*
X151531352Y-73249500D01*
X150961241Y-73249500D01*
X150931650Y-73252275D01*
X150931645Y-73252276D01*
X150807025Y-73295883D01*
X150700789Y-73374289D01*
X150622383Y-73480525D01*
X150578776Y-73605145D01*
X150578775Y-73605150D01*
X150576000Y-73634741D01*
X150576000Y-73653500D01*
X150555998Y-73721621D01*
X150502342Y-73768114D01*
X150450000Y-73779500D01*
X149969872Y-73779500D01*
X149901751Y-73759498D01*
X149880777Y-73742595D01*
X149805985Y-73667803D01*
X149805982Y-73667801D01*
X149700894Y-73616427D01*
X149632761Y-73606500D01*
X149632760Y-73606500D01*
X149540500Y-73606500D01*
X149472379Y-73586498D01*
X149425886Y-73532842D01*
X149414500Y-73480500D01*
X149414500Y-72742684D01*
X149434502Y-72674563D01*
X149439105Y-72667883D01*
X149503616Y-72580475D01*
X149547225Y-72455849D01*
X149550000Y-72426256D01*
X149550000Y-71845744D01*
X149547225Y-71816151D01*
X149503616Y-71691525D01*
X149425211Y-71585289D01*
X149318975Y-71506884D01*
X149318974Y-71506883D01*
X149318975Y-71506883D01*
X149194354Y-71463276D01*
X149194349Y-71463275D01*
X149164758Y-71460500D01*
X149164756Y-71460500D01*
X148559244Y-71460500D01*
X148559241Y-71460500D01*
X148529650Y-71463275D01*
X148529645Y-71463276D01*
X148405025Y-71506883D01*
X148298789Y-71585289D01*
X148220383Y-71691525D01*
X148176776Y-71816145D01*
X148176775Y-71816150D01*
X148174000Y-71845741D01*
X148174000Y-72426258D01*
X148176775Y-72455849D01*
X148176776Y-72455854D01*
X148220383Y-72580474D01*
X148220384Y-72580475D01*
X148298789Y-72686711D01*
X148405025Y-72765116D01*
X148405024Y-72765116D01*
X148529645Y-72808723D01*
X148529651Y-72808725D01*
X148559244Y-72811500D01*
X148633500Y-72811500D01*
X148701621Y-72831502D01*
X148748114Y-72885158D01*
X148759500Y-72937500D01*
X148759500Y-73480500D01*
X148739498Y-73548621D01*
X148685842Y-73595114D01*
X148633500Y-73606500D01*
X148541238Y-73606500D01*
X148473105Y-73616427D01*
X148368017Y-73667801D01*
X148368014Y-73667803D01*
X148285303Y-73750514D01*
X148285301Y-73750517D01*
X148233927Y-73855605D01*
X148224000Y-73923738D01*
X148224000Y-74290261D01*
X148233927Y-74358394D01*
X148285301Y-74463482D01*
X148285303Y-74463485D01*
X148314723Y-74492905D01*
X148348749Y-74555217D01*
X148343684Y-74626032D01*
X148314723Y-74671095D01*
X148285303Y-74700514D01*
X148285301Y-74700517D01*
X148233927Y-74805605D01*
X148224000Y-74873738D01*
X148224000Y-75039155D01*
X148203998Y-75107276D01*
X148150342Y-75153769D01*
X148080068Y-75163873D01*
X148015488Y-75134379D01*
X148008905Y-75128250D01*
X147675592Y-74794937D01*
X147673899Y-74793638D01*
X147672130Y-74791475D01*
X147669750Y-74789095D01*
X147669988Y-74788856D01*
X147637407Y-74749015D01*
X147634467Y-74743002D01*
X147613698Y-74700517D01*
X147613697Y-74700516D01*
X147613697Y-74700515D01*
X147584277Y-74671095D01*
X147550251Y-74608783D01*
X147555316Y-74537968D01*
X147584277Y-74492905D01*
X147613696Y-74463485D01*
X147613698Y-74463483D01*
X147665073Y-74358393D01*
X147675000Y-74290260D01*
X147675000Y-73923740D01*
X147665073Y-73855607D01*
X147613698Y-73750517D01*
X147613696Y-73750514D01*
X147530985Y-73667803D01*
X147530982Y-73667801D01*
X147425894Y-73616427D01*
X147357761Y-73606500D01*
X147357760Y-73606500D01*
X146962096Y-73606500D01*
X146929486Y-73602207D01*
X146880196Y-73589000D01*
X145629804Y-73589000D01*
X145569528Y-73605151D01*
X145498061Y-73624300D01*
X145498054Y-73624303D01*
X145422713Y-73667802D01*
X145379943Y-73692494D01*
X145379937Y-73692499D01*
X144689843Y-74382595D01*
X144627530Y-74416620D01*
X144600747Y-74419500D01*
X144357241Y-74419500D01*
X144327650Y-74422275D01*
X144327645Y-74422276D01*
X144203024Y-74465883D01*
X144203021Y-74465885D01*
X144096788Y-74544289D01*
X144064291Y-74588321D01*
X144007746Y-74631254D01*
X143962912Y-74639500D01*
X139409304Y-74639500D01*
X139338704Y-74658417D01*
X139277561Y-74674800D01*
X139277554Y-74674803D01*
X139233018Y-74700517D01*
X139159443Y-74742994D01*
X139159433Y-74743002D01*
X139017608Y-74884828D01*
X138955296Y-74918854D01*
X138896082Y-74916476D01*
X138895997Y-74916906D01*
X138893268Y-74916363D01*
X138891946Y-74916310D01*
X138889931Y-74915699D01*
X138684003Y-74895417D01*
X138683997Y-74895417D01*
X138478072Y-74915698D01*
X138280045Y-74975768D01*
X138097552Y-75073313D01*
X137993433Y-75158761D01*
X137928085Y-75186514D01*
X137858107Y-75174532D01*
X137805716Y-75126619D01*
X137787500Y-75061361D01*
X137787500Y-72047500D01*
X137807502Y-71979379D01*
X137861158Y-71932886D01*
X137913500Y-71921500D01*
X139553747Y-71921500D01*
X139553748Y-71921500D01*
X139612231Y-71909867D01*
X139678552Y-71865552D01*
X139722867Y-71799231D01*
X139734500Y-71740748D01*
X139734500Y-70095500D01*
X139754502Y-70027379D01*
X139808158Y-69980886D01*
X139860500Y-69969500D01*
X152281500Y-69969500D01*
X152349621Y-69989502D01*
G37*
%TD.AperFunction*%
%TD*%
M02*
