%TF.GenerationSoftware,KiCad,Pcbnew,9.0.7*%
%TF.CreationDate,2026-03-15T20:26:09-05:00*%
%TF.ProjectId,Smart_MoCo,536d6172-745f-44d6-9f43-6f2e6b696361,rev?*%
%TF.SameCoordinates,Original*%
%TF.FileFunction,Copper,L2,Inr*%
%TF.FilePolarity,Positive*%
%FSLAX46Y46*%
G04 Gerber Fmt 4.6, Leading zero omitted, Abs format (unit mm)*
G04 Created by KiCad (PCBNEW 9.0.7) date 2026-03-15 20:26:09*
%MOMM*%
%LPD*%
G01*
G04 APERTURE LIST*
G04 Aperture macros list*
%AMRoundRect*
0 Rectangle with rounded corners*
0 $1 Rounding radius*
0 $2 $3 $4 $5 $6 $7 $8 $9 X,Y pos of 4 corners*
0 Add a 4 corners polygon primitive as box body*
4,1,4,$2,$3,$4,$5,$6,$7,$8,$9,$2,$3,0*
0 Add four circle primitives for the rounded corners*
1,1,$1+$1,$2,$3*
1,1,$1+$1,$4,$5*
1,1,$1+$1,$6,$7*
1,1,$1+$1,$8,$9*
0 Add four rect primitives between the rounded corners*
20,1,$1+$1,$2,$3,$4,$5,0*
20,1,$1+$1,$4,$5,$6,$7,0*
20,1,$1+$1,$6,$7,$8,$9,0*
20,1,$1+$1,$8,$9,$2,$3,0*%
G04 Aperture macros list end*
%TA.AperFunction,ComponentPad*%
%ADD10C,1.574800*%
%TD*%
%TA.AperFunction,ComponentPad*%
%ADD11C,2.260600*%
%TD*%
%TA.AperFunction,ComponentPad*%
%ADD12RoundRect,0.250000X0.725000X-0.600000X0.725000X0.600000X-0.725000X0.600000X-0.725000X-0.600000X0*%
%TD*%
%TA.AperFunction,ComponentPad*%
%ADD13O,1.950000X1.700000*%
%TD*%
%TA.AperFunction,ComponentPad*%
%ADD14C,1.600000*%
%TD*%
%TA.AperFunction,ComponentPad*%
%ADD15RoundRect,0.250000X0.750000X-0.600000X0.750000X0.600000X-0.750000X0.600000X-0.750000X-0.600000X0*%
%TD*%
%TA.AperFunction,ComponentPad*%
%ADD16O,2.000000X1.700000*%
%TD*%
%TA.AperFunction,ComponentPad*%
%ADD17R,1.700000X1.700000*%
%TD*%
%TA.AperFunction,ComponentPad*%
%ADD18C,1.700000*%
%TD*%
%TA.AperFunction,ComponentPad*%
%ADD19RoundRect,0.250000X-0.825000X-0.825000X0.825000X-0.825000X0.825000X0.825000X-0.825000X0.825000X0*%
%TD*%
%TA.AperFunction,ViaPad*%
%ADD20C,0.600000*%
%TD*%
G04 APERTURE END LIST*
D10*
%TO.N,/OUTA*%
%TO.C,J6*%
X141500000Y-71499999D03*
%TO.N,/OUTB*%
X141500000Y-75000001D03*
D11*
%TO.N,GND*%
X133589932Y-69000000D03*
X133589932Y-77499998D03*
%TD*%
D10*
%TO.N,Net-(U5-D)*%
%TO.C,J5*%
X141500000Y-83000000D03*
%TO.N,GND*%
X141500000Y-86500002D03*
D11*
X133589932Y-80500001D03*
X133589932Y-88999999D03*
%TD*%
D12*
%TO.N,+3V3*%
%TO.C,J2*%
X162500000Y-73000000D03*
D13*
%TO.N,ENC_A{slash}PWM*%
X162500000Y-70500000D03*
%TO.N,ENC_B*%
X162500000Y-68000000D03*
%TO.N,GND*%
X162500000Y-65500000D03*
%TD*%
D14*
%TO.N,+12V*%
%TO.C,C2*%
X147000000Y-84800000D03*
%TO.N,GND*%
X150500000Y-84800000D03*
%TD*%
D15*
%TO.N,LIM_A*%
%TO.C,J3*%
X162555000Y-81500000D03*
D16*
%TO.N,LIM_B*%
X162555000Y-79000000D03*
%TD*%
D15*
%TO.N,CANH*%
%TO.C,J1*%
X162555000Y-90000000D03*
D16*
%TO.N,CANL*%
X162555000Y-87500000D03*
%TD*%
D17*
%TO.N,+3V3*%
%TO.C,J4*%
X149880000Y-93500000D03*
D18*
%TO.N,SWCLK*%
X152420000Y-93500000D03*
%TO.N,SWDIO*%
X154960000Y-93500000D03*
%TO.N,GND*%
X157500000Y-93500000D03*
%TD*%
D19*
%TO.N,GPIO*%
%TO.C,J7*%
X168900000Y-93800000D03*
%TD*%
D20*
%TO.N,+3V3*%
X158000000Y-81480998D03*
%TO.N,GND*%
X149675000Y-89700000D03*
X151500000Y-86350000D03*
X149400000Y-64406000D03*
X167675000Y-90950000D03*
X143500000Y-94000000D03*
X160264605Y-88650001D03*
X158000000Y-90571000D03*
X156400000Y-64406000D03*
X146000000Y-94000000D03*
X154400000Y-82656000D03*
X157400000Y-64406000D03*
X147400000Y-64406000D03*
X162500000Y-75275000D03*
X155000000Y-90571000D03*
X166162500Y-93200000D03*
X155400000Y-64406000D03*
X138129800Y-94000000D03*
X148400000Y-64406000D03*
X165921000Y-70825500D03*
%TO.N,+3V3*%
X158000000Y-89436000D03*
X162500000Y-77000000D03*
X170000000Y-70825500D03*
X166405000Y-90950000D03*
X164437500Y-93200000D03*
X155000000Y-89436000D03*
%TO.N,+12V*%
X157000000Y-78000000D03*
X148000000Y-81000000D03*
X148000000Y-75000000D03*
X154000000Y-75000000D03*
X165725000Y-72862500D03*
X148000000Y-78000000D03*
X144000000Y-78000000D03*
X151000000Y-75000000D03*
X154000000Y-78000000D03*
X158000000Y-75000000D03*
X154000000Y-81000000D03*
X147400000Y-82656000D03*
X148400000Y-82656000D03*
X151000000Y-81000000D03*
X151000000Y-78000000D03*
X157400000Y-82656000D03*
%TO.N,Net-(U2-EN{slash}DIAGA)*%
X155400000Y-82656000D03*
%TO.N,Net-(U2-EN{slash}DIAGB)*%
X151400000Y-82600000D03*
%TO.N,ENC_A{slash}PWM*%
X159382552Y-86000000D03*
%TO.N,Net-(D1-GA)*%
X140000000Y-90500000D03*
%TO.N,IN_A*%
X156400000Y-82656000D03*
X148000000Y-86974999D03*
%TO.N,Net-(D2-A)*%
X143500000Y-92250000D03*
%TO.N,LED_R*%
X138000000Y-89500000D03*
X158000000Y-86725000D03*
%TO.N,Net-(D3-A)*%
X146000000Y-92250000D03*
%TO.N,IN_B*%
X144800000Y-86975000D03*
X150400000Y-82656000D03*
%TO.N,Net-(D1-RA)*%
X138129800Y-92550000D03*
%TO.N,PWM*%
X153657552Y-86000000D03*
X153400000Y-82656000D03*
%TO.N,LED_G*%
X157500000Y-87500000D03*
X141825000Y-90500000D03*
%TO.N,/OUTB*%
X145400000Y-82656000D03*
%TO.N,/OUTA*%
X155000000Y-66000000D03*
X155000000Y-69000000D03*
X159000000Y-67500000D03*
X155000000Y-67500000D03*
X155000000Y-70500000D03*
X154400000Y-64406000D03*
X159000000Y-66000000D03*
X155000000Y-72000000D03*
X159000000Y-70500000D03*
X157000000Y-67500000D03*
X159000000Y-69000000D03*
X157000000Y-69000000D03*
X157000000Y-72000000D03*
X157000000Y-70500000D03*
X159400000Y-64406000D03*
X159000000Y-72000000D03*
X157000000Y-66000000D03*
%TO.N,LED_B*%
X158065687Y-88065687D03*
X142067476Y-91991386D03*
%TO.N,Net-(D1-BA)*%
X141000000Y-94000000D03*
%TO.N,GPIO*%
X155938066Y-91638065D03*
%TO.N,Net-(U5-G)*%
X142000000Y-81000000D03*
%TD*%
%TA.AperFunction,Conductor*%
%TO.N,GND*%
G36*
X169604119Y-63000770D02*
G01*
X169616905Y-63001608D01*
X169839699Y-63016210D01*
X169856022Y-63018358D01*
X170083539Y-63063615D01*
X170099442Y-63067876D01*
X170319095Y-63142439D01*
X170334302Y-63148738D01*
X170542351Y-63251336D01*
X170556608Y-63259567D01*
X170749478Y-63388438D01*
X170762543Y-63398463D01*
X170936946Y-63551411D01*
X170948588Y-63563053D01*
X171101532Y-63737451D01*
X171111562Y-63750524D01*
X171237904Y-63939608D01*
X171240427Y-63943383D01*
X171248666Y-63957653D01*
X171272264Y-64005505D01*
X171351257Y-64165687D01*
X171357563Y-64180912D01*
X171368393Y-64212816D01*
X171432120Y-64400549D01*
X171436386Y-64416468D01*
X171481639Y-64643967D01*
X171483790Y-64660308D01*
X171499230Y-64895880D01*
X171499500Y-64904121D01*
X171499500Y-93095878D01*
X171499230Y-93104119D01*
X171483790Y-93339691D01*
X171481639Y-93356032D01*
X171436386Y-93583531D01*
X171432120Y-93599450D01*
X171357564Y-93819085D01*
X171351257Y-93834312D01*
X171248668Y-94042342D01*
X171240427Y-94056616D01*
X171111565Y-94249472D01*
X171101532Y-94262548D01*
X170948594Y-94436940D01*
X170936940Y-94448594D01*
X170762548Y-94601532D01*
X170749472Y-94611565D01*
X170556616Y-94740427D01*
X170542342Y-94748668D01*
X170353119Y-94841982D01*
X170283177Y-94854172D01*
X170217747Y-94826613D01*
X170177604Y-94768054D01*
X170171942Y-94717210D01*
X170175499Y-94679285D01*
X170175500Y-94679264D01*
X170175500Y-92920735D01*
X170175500Y-92920734D01*
X170172646Y-92890301D01*
X170161105Y-92857320D01*
X170127793Y-92762118D01*
X170127791Y-92762114D01*
X170047150Y-92652849D01*
X169937885Y-92572208D01*
X169937881Y-92572206D01*
X169809704Y-92527355D01*
X169809700Y-92527354D01*
X169779266Y-92524500D01*
X168020734Y-92524500D01*
X168020733Y-92524500D01*
X167990299Y-92527354D01*
X167990295Y-92527355D01*
X167862118Y-92572206D01*
X167862114Y-92572208D01*
X167752849Y-92652849D01*
X167672208Y-92762114D01*
X167672206Y-92762118D01*
X167627355Y-92890295D01*
X167627354Y-92890299D01*
X167624500Y-92920733D01*
X167624500Y-94679266D01*
X167627354Y-94709700D01*
X167627355Y-94709704D01*
X167670108Y-94831885D01*
X167673728Y-94902789D01*
X167638438Y-94964394D01*
X167575445Y-94997141D01*
X167551179Y-94999500D01*
X134228799Y-94999500D01*
X134160678Y-94979498D01*
X134114185Y-94925842D01*
X134104081Y-94855568D01*
X134133575Y-94790988D01*
X134139704Y-94784405D01*
X134270976Y-94653132D01*
X134270991Y-94653117D01*
X134380711Y-94510127D01*
X134458559Y-94408675D01*
X134481034Y-94369748D01*
X134612622Y-94141830D01*
X134698664Y-93934108D01*
X140499500Y-93934108D01*
X140499500Y-94065892D01*
X140519847Y-94141830D01*
X140533607Y-94193183D01*
X140533610Y-94193190D01*
X140599497Y-94307310D01*
X140599505Y-94307320D01*
X140692679Y-94400494D01*
X140692684Y-94400498D01*
X140692686Y-94400500D01*
X140692687Y-94400501D01*
X140692689Y-94400502D01*
X140706845Y-94408675D01*
X140806814Y-94466392D01*
X140934108Y-94500500D01*
X140934110Y-94500500D01*
X141065890Y-94500500D01*
X141065892Y-94500500D01*
X141193186Y-94466392D01*
X141307314Y-94400500D01*
X141400500Y-94307314D01*
X141466392Y-94193186D01*
X141500500Y-94065892D01*
X141500500Y-93934108D01*
X141466392Y-93806814D01*
X141446815Y-93772906D01*
X141400502Y-93692689D01*
X141400494Y-93692679D01*
X141307320Y-93599505D01*
X141307310Y-93599497D01*
X141193190Y-93533610D01*
X141193187Y-93533609D01*
X141193186Y-93533608D01*
X141193184Y-93533607D01*
X141193183Y-93533607D01*
X141159073Y-93524467D01*
X141065892Y-93499500D01*
X140934108Y-93499500D01*
X140865894Y-93517777D01*
X140806816Y-93533607D01*
X140806809Y-93533610D01*
X140692689Y-93599497D01*
X140692679Y-93599505D01*
X140599505Y-93692679D01*
X140599497Y-93692689D01*
X140533610Y-93806809D01*
X140533607Y-93806816D01*
X140511983Y-93887517D01*
X140499500Y-93934108D01*
X134698664Y-93934108D01*
X134730535Y-93857164D01*
X134810282Y-93559544D01*
X134850500Y-93254060D01*
X134850500Y-92945940D01*
X134811605Y-92650502D01*
X134810283Y-92640462D01*
X134810282Y-92640460D01*
X134810282Y-92640456D01*
X134768389Y-92484108D01*
X137629300Y-92484108D01*
X137629300Y-92615892D01*
X137654267Y-92709073D01*
X137663407Y-92743183D01*
X137663410Y-92743190D01*
X137729297Y-92857310D01*
X137729305Y-92857320D01*
X137822479Y-92950494D01*
X137822484Y-92950498D01*
X137822486Y-92950500D01*
X137936614Y-93016392D01*
X138063908Y-93050500D01*
X138063910Y-93050500D01*
X138195690Y-93050500D01*
X138195692Y-93050500D01*
X138322986Y-93016392D01*
X138437114Y-92950500D01*
X138530300Y-92857314D01*
X138596192Y-92743186D01*
X138630300Y-92615892D01*
X138630300Y-92484108D01*
X138596192Y-92356814D01*
X138562640Y-92298700D01*
X138530302Y-92242689D01*
X138530294Y-92242679D01*
X138437120Y-92149505D01*
X138437110Y-92149497D01*
X138322990Y-92083610D01*
X138322987Y-92083609D01*
X138322986Y-92083608D01*
X138322984Y-92083607D01*
X138322983Y-92083607D01*
X138288873Y-92074467D01*
X138195692Y-92049500D01*
X138063908Y-92049500D01*
X137995694Y-92067777D01*
X137936616Y-92083607D01*
X137936609Y-92083610D01*
X137822489Y-92149497D01*
X137822479Y-92149505D01*
X137729305Y-92242679D01*
X137729297Y-92242689D01*
X137663410Y-92356809D01*
X137663407Y-92356816D01*
X137654010Y-92391888D01*
X137629300Y-92484108D01*
X134768389Y-92484108D01*
X134730535Y-92342836D01*
X134612622Y-92058170D01*
X134545949Y-91942689D01*
X134536022Y-91925494D01*
X141566976Y-91925494D01*
X141566976Y-92057278D01*
X141588757Y-92138565D01*
X141601083Y-92184569D01*
X141601086Y-92184576D01*
X141666973Y-92298696D01*
X141666981Y-92298706D01*
X141760155Y-92391880D01*
X141760160Y-92391884D01*
X141760162Y-92391886D01*
X141874290Y-92457778D01*
X142001584Y-92491886D01*
X142001586Y-92491886D01*
X142133366Y-92491886D01*
X142133368Y-92491886D01*
X142260662Y-92457778D01*
X142374790Y-92391886D01*
X142467976Y-92298700D01*
X142533868Y-92184572D01*
X142533992Y-92184108D01*
X142999500Y-92184108D01*
X142999500Y-92315892D01*
X143019861Y-92391880D01*
X143033607Y-92443183D01*
X143033610Y-92443190D01*
X143099497Y-92557310D01*
X143099505Y-92557320D01*
X143192679Y-92650494D01*
X143192684Y-92650498D01*
X143192686Y-92650500D01*
X143192687Y-92650501D01*
X143192689Y-92650502D01*
X143196756Y-92652850D01*
X143306814Y-92716392D01*
X143434108Y-92750500D01*
X143434110Y-92750500D01*
X143565890Y-92750500D01*
X143565892Y-92750500D01*
X143693186Y-92716392D01*
X143807314Y-92650500D01*
X143900500Y-92557314D01*
X143966392Y-92443186D01*
X144000500Y-92315892D01*
X144000500Y-92184108D01*
X145499500Y-92184108D01*
X145499500Y-92315892D01*
X145519861Y-92391880D01*
X145533607Y-92443183D01*
X145533610Y-92443190D01*
X145599497Y-92557310D01*
X145599505Y-92557320D01*
X145692679Y-92650494D01*
X145692684Y-92650498D01*
X145692686Y-92650500D01*
X145692687Y-92650501D01*
X145692689Y-92650502D01*
X145696756Y-92652850D01*
X145806814Y-92716392D01*
X145934108Y-92750500D01*
X145934110Y-92750500D01*
X146065890Y-92750500D01*
X146065892Y-92750500D01*
X146193186Y-92716392D01*
X146307314Y-92650500D01*
X146327565Y-92630249D01*
X148829500Y-92630249D01*
X148829500Y-94369750D01*
X148835615Y-94400494D01*
X148841133Y-94428231D01*
X148885448Y-94494552D01*
X148951769Y-94538867D01*
X149010252Y-94550500D01*
X149010253Y-94550500D01*
X150749747Y-94550500D01*
X150749748Y-94550500D01*
X150808231Y-94538867D01*
X150874552Y-94494552D01*
X150918867Y-94428231D01*
X150930500Y-94369748D01*
X150930500Y-93396532D01*
X151369500Y-93396532D01*
X151369500Y-93603467D01*
X151388801Y-93700500D01*
X151409870Y-93806420D01*
X151489059Y-93997598D01*
X151585431Y-94141830D01*
X151604024Y-94169656D01*
X151604029Y-94169662D01*
X151750337Y-94315970D01*
X151750343Y-94315975D01*
X151750345Y-94315977D01*
X151922402Y-94430941D01*
X152113580Y-94510130D01*
X152316535Y-94550500D01*
X152316536Y-94550500D01*
X152523464Y-94550500D01*
X152523465Y-94550500D01*
X152726420Y-94510130D01*
X152917598Y-94430941D01*
X153089655Y-94315977D01*
X153235977Y-94169655D01*
X153350941Y-93997598D01*
X153430130Y-93806420D01*
X153470500Y-93603465D01*
X153470500Y-93396535D01*
X153470499Y-93396532D01*
X153909500Y-93396532D01*
X153909500Y-93603467D01*
X153928801Y-93700500D01*
X153949870Y-93806420D01*
X154029059Y-93997598D01*
X154125431Y-94141830D01*
X154144024Y-94169656D01*
X154144029Y-94169662D01*
X154290337Y-94315970D01*
X154290343Y-94315975D01*
X154290345Y-94315977D01*
X154462402Y-94430941D01*
X154653580Y-94510130D01*
X154856535Y-94550500D01*
X154856536Y-94550500D01*
X155063464Y-94550500D01*
X155063465Y-94550500D01*
X155266420Y-94510130D01*
X155457598Y-94430941D01*
X155629655Y-94315977D01*
X155775977Y-94169655D01*
X155890941Y-93997598D01*
X155970130Y-93806420D01*
X156010500Y-93603465D01*
X156010500Y-93396535D01*
X155970130Y-93193580D01*
X155945496Y-93134108D01*
X163937000Y-93134108D01*
X163937000Y-93265892D01*
X163956774Y-93339691D01*
X163971107Y-93393183D01*
X163971110Y-93393190D01*
X164036997Y-93507310D01*
X164037005Y-93507320D01*
X164130179Y-93600494D01*
X164130184Y-93600498D01*
X164130186Y-93600500D01*
X164130187Y-93600501D01*
X164130189Y-93600502D01*
X164135325Y-93603467D01*
X164244314Y-93666392D01*
X164371608Y-93700500D01*
X164371610Y-93700500D01*
X164503390Y-93700500D01*
X164503392Y-93700500D01*
X164630686Y-93666392D01*
X164744814Y-93600500D01*
X164838000Y-93507314D01*
X164903892Y-93393186D01*
X164938000Y-93265892D01*
X164938000Y-93134108D01*
X164903892Y-93006814D01*
X164838000Y-92892686D01*
X164837998Y-92892684D01*
X164837994Y-92892679D01*
X164744820Y-92799505D01*
X164744810Y-92799497D01*
X164630690Y-92733610D01*
X164630687Y-92733609D01*
X164630686Y-92733608D01*
X164630684Y-92733607D01*
X164630683Y-92733607D01*
X164566423Y-92716389D01*
X164503392Y-92699500D01*
X164371608Y-92699500D01*
X164308577Y-92716389D01*
X164244316Y-92733607D01*
X164244309Y-92733610D01*
X164130189Y-92799497D01*
X164130179Y-92799505D01*
X164037005Y-92892679D01*
X164036997Y-92892689D01*
X163971110Y-93006809D01*
X163971107Y-93006816D01*
X163959402Y-93050500D01*
X163937000Y-93134108D01*
X155945496Y-93134108D01*
X155890941Y-93002402D01*
X155775977Y-92830345D01*
X155775975Y-92830343D01*
X155775970Y-92830337D01*
X155629662Y-92684029D01*
X155629656Y-92684024D01*
X155629655Y-92684023D01*
X155457598Y-92569059D01*
X155266420Y-92489870D01*
X155063467Y-92449500D01*
X155063465Y-92449500D01*
X154856535Y-92449500D01*
X154856532Y-92449500D01*
X154653579Y-92489870D01*
X154653574Y-92489872D01*
X154462402Y-92569059D01*
X154290343Y-92684024D01*
X154290337Y-92684029D01*
X154144029Y-92830337D01*
X154144024Y-92830343D01*
X154029059Y-93002402D01*
X153949872Y-93193574D01*
X153949870Y-93193579D01*
X153909500Y-93396532D01*
X153470499Y-93396532D01*
X153430130Y-93193580D01*
X153350941Y-93002402D01*
X153235977Y-92830345D01*
X153235975Y-92830343D01*
X153235970Y-92830337D01*
X153089662Y-92684029D01*
X153089656Y-92684024D01*
X153089655Y-92684023D01*
X152917598Y-92569059D01*
X152726420Y-92489870D01*
X152523467Y-92449500D01*
X152523465Y-92449500D01*
X152316535Y-92449500D01*
X152316532Y-92449500D01*
X152113579Y-92489870D01*
X152113574Y-92489872D01*
X151922402Y-92569059D01*
X151750343Y-92684024D01*
X151750337Y-92684029D01*
X151604029Y-92830337D01*
X151604024Y-92830343D01*
X151489059Y-93002402D01*
X151409872Y-93193574D01*
X151409870Y-93193579D01*
X151369500Y-93396532D01*
X150930500Y-93396532D01*
X150930500Y-92630252D01*
X150918867Y-92571769D01*
X150874552Y-92505448D01*
X150808231Y-92461133D01*
X150808228Y-92461132D01*
X150749750Y-92449500D01*
X150749748Y-92449500D01*
X149010252Y-92449500D01*
X149010249Y-92449500D01*
X148951771Y-92461132D01*
X148951768Y-92461133D01*
X148885448Y-92505448D01*
X148841133Y-92571768D01*
X148841132Y-92571771D01*
X148829500Y-92630249D01*
X146327565Y-92630249D01*
X146400500Y-92557314D01*
X146466392Y-92443186D01*
X146500500Y-92315892D01*
X146500500Y-92184108D01*
X146466392Y-92056814D01*
X146422180Y-91980236D01*
X146400502Y-91942689D01*
X146400494Y-91942679D01*
X146307320Y-91849505D01*
X146307310Y-91849497D01*
X146193190Y-91783610D01*
X146193187Y-91783609D01*
X146193186Y-91783608D01*
X146193184Y-91783607D01*
X146193183Y-91783607D01*
X146159073Y-91774467D01*
X146065892Y-91749500D01*
X145934108Y-91749500D01*
X145865894Y-91767777D01*
X145806816Y-91783607D01*
X145806809Y-91783610D01*
X145692689Y-91849497D01*
X145692679Y-91849505D01*
X145599505Y-91942679D01*
X145599497Y-91942689D01*
X145533610Y-92056809D01*
X145533607Y-92056816D01*
X145526428Y-92083610D01*
X145499500Y-92184108D01*
X144000500Y-92184108D01*
X143966392Y-92056814D01*
X143922180Y-91980236D01*
X143900502Y-91942689D01*
X143900494Y-91942679D01*
X143807320Y-91849505D01*
X143807310Y-91849497D01*
X143693190Y-91783610D01*
X143693187Y-91783609D01*
X143693186Y-91783608D01*
X143693184Y-91783607D01*
X143693183Y-91783607D01*
X143659073Y-91774467D01*
X143565892Y-91749500D01*
X143434108Y-91749500D01*
X143365894Y-91767777D01*
X143306816Y-91783607D01*
X143306809Y-91783610D01*
X143192689Y-91849497D01*
X143192679Y-91849505D01*
X143099505Y-91942679D01*
X143099497Y-91942689D01*
X143033610Y-92056809D01*
X143033607Y-92056816D01*
X143026428Y-92083610D01*
X142999500Y-92184108D01*
X142533992Y-92184108D01*
X142535769Y-92177475D01*
X142544944Y-92143238D01*
X142554374Y-92108038D01*
X142567976Y-92057278D01*
X142567976Y-91925494D01*
X142533868Y-91798200D01*
X142479457Y-91703957D01*
X142467978Y-91684075D01*
X142467970Y-91684065D01*
X142374796Y-91590891D01*
X142374786Y-91590883D01*
X142342379Y-91572173D01*
X155437566Y-91572173D01*
X155437566Y-91703957D01*
X155440353Y-91714358D01*
X155471673Y-91831248D01*
X155471676Y-91831255D01*
X155537563Y-91945375D01*
X155537571Y-91945385D01*
X155630745Y-92038559D01*
X155630750Y-92038563D01*
X155630752Y-92038565D01*
X155630753Y-92038566D01*
X155630755Y-92038567D01*
X155663160Y-92057276D01*
X155744880Y-92104457D01*
X155872174Y-92138565D01*
X155872176Y-92138565D01*
X156003956Y-92138565D01*
X156003958Y-92138565D01*
X156131252Y-92104457D01*
X156245380Y-92038565D01*
X156338566Y-91945379D01*
X156404458Y-91831251D01*
X156438566Y-91703957D01*
X156438566Y-91572173D01*
X156404458Y-91444879D01*
X156338566Y-91330751D01*
X156338564Y-91330749D01*
X156338560Y-91330744D01*
X156245386Y-91237570D01*
X156245376Y-91237562D01*
X156131256Y-91171675D01*
X156131253Y-91171674D01*
X156131252Y-91171673D01*
X156131250Y-91171672D01*
X156131249Y-91171672D01*
X156097139Y-91162532D01*
X156003958Y-91137565D01*
X155872174Y-91137565D01*
X155803960Y-91155842D01*
X155744882Y-91171672D01*
X155744875Y-91171675D01*
X155630755Y-91237562D01*
X155630745Y-91237570D01*
X155537571Y-91330744D01*
X155537563Y-91330754D01*
X155471676Y-91444874D01*
X155471673Y-91444881D01*
X155458426Y-91494322D01*
X155437566Y-91572173D01*
X142342379Y-91572173D01*
X142260666Y-91524996D01*
X142260663Y-91524995D01*
X142260662Y-91524994D01*
X142260660Y-91524993D01*
X142260659Y-91524993D01*
X142226549Y-91515853D01*
X142133368Y-91490886D01*
X142001584Y-91490886D01*
X141933370Y-91509163D01*
X141874292Y-91524993D01*
X141874285Y-91524996D01*
X141760165Y-91590883D01*
X141760155Y-91590891D01*
X141666981Y-91684065D01*
X141666973Y-91684075D01*
X141601086Y-91798195D01*
X141601084Y-91798200D01*
X141566976Y-91925494D01*
X134536022Y-91925494D01*
X134458559Y-91791324D01*
X134270995Y-91546888D01*
X134270993Y-91546886D01*
X134270991Y-91546883D01*
X134270985Y-91546877D01*
X134270976Y-91546867D01*
X134053132Y-91329023D01*
X134053111Y-91329004D01*
X133808675Y-91141440D01*
X133541842Y-90987384D01*
X133541834Y-90987380D01*
X133541830Y-90987378D01*
X133257164Y-90869465D01*
X132959544Y-90789718D01*
X132959542Y-90789717D01*
X132959536Y-90789716D01*
X132654062Y-90749500D01*
X132654060Y-90749500D01*
X132345940Y-90749500D01*
X132345937Y-90749500D01*
X132040463Y-90789716D01*
X131742836Y-90869465D01*
X131508835Y-90966392D01*
X131458168Y-90987379D01*
X131458157Y-90987384D01*
X131191324Y-91141440D01*
X130946888Y-91329004D01*
X130946867Y-91329023D01*
X130815595Y-91460296D01*
X130753283Y-91494322D01*
X130682468Y-91489257D01*
X130625632Y-91446710D01*
X130600821Y-91380190D01*
X130600500Y-91371201D01*
X130600500Y-90434108D01*
X139499500Y-90434108D01*
X139499500Y-90565892D01*
X139523179Y-90654264D01*
X139533607Y-90693183D01*
X139533610Y-90693190D01*
X139599497Y-90807310D01*
X139599505Y-90807320D01*
X139692679Y-90900494D01*
X139692684Y-90900498D01*
X139692686Y-90900500D01*
X139806814Y-90966392D01*
X139934108Y-91000500D01*
X139934110Y-91000500D01*
X140065890Y-91000500D01*
X140065892Y-91000500D01*
X140193186Y-90966392D01*
X140307314Y-90900500D01*
X140400500Y-90807314D01*
X140466392Y-90693186D01*
X140500500Y-90565892D01*
X140500500Y-90434108D01*
X141324500Y-90434108D01*
X141324500Y-90565892D01*
X141348179Y-90654264D01*
X141358607Y-90693183D01*
X141358610Y-90693190D01*
X141424497Y-90807310D01*
X141424505Y-90807320D01*
X141517679Y-90900494D01*
X141517684Y-90900498D01*
X141517686Y-90900500D01*
X141631814Y-90966392D01*
X141759108Y-91000500D01*
X141759110Y-91000500D01*
X141890890Y-91000500D01*
X141890892Y-91000500D01*
X142018186Y-90966392D01*
X142132314Y-90900500D01*
X142225500Y-90807314D01*
X142291392Y-90693186D01*
X142325500Y-90565892D01*
X142325500Y-90434108D01*
X142291392Y-90306814D01*
X142225500Y-90192686D01*
X142225498Y-90192684D01*
X142225494Y-90192679D01*
X142132320Y-90099505D01*
X142132310Y-90099497D01*
X142018190Y-90033610D01*
X142018187Y-90033609D01*
X142018186Y-90033608D01*
X142018184Y-90033607D01*
X142018183Y-90033607D01*
X141984073Y-90024467D01*
X141890892Y-89999500D01*
X141759108Y-89999500D01*
X141690894Y-90017777D01*
X141631816Y-90033607D01*
X141631809Y-90033610D01*
X141517689Y-90099497D01*
X141517679Y-90099505D01*
X141424505Y-90192679D01*
X141424497Y-90192689D01*
X141358610Y-90306809D01*
X141358608Y-90306814D01*
X141324500Y-90434108D01*
X140500500Y-90434108D01*
X140466392Y-90306814D01*
X140400500Y-90192686D01*
X140400498Y-90192684D01*
X140400494Y-90192679D01*
X140307320Y-90099505D01*
X140307310Y-90099497D01*
X140193190Y-90033610D01*
X140193187Y-90033609D01*
X140193186Y-90033608D01*
X140193184Y-90033607D01*
X140193183Y-90033607D01*
X140159073Y-90024467D01*
X140065892Y-89999500D01*
X139934108Y-89999500D01*
X139865894Y-90017777D01*
X139806816Y-90033607D01*
X139806809Y-90033610D01*
X139692689Y-90099497D01*
X139692679Y-90099505D01*
X139599505Y-90192679D01*
X139599497Y-90192689D01*
X139533610Y-90306809D01*
X139533608Y-90306814D01*
X139499500Y-90434108D01*
X130600500Y-90434108D01*
X130600500Y-89434108D01*
X137499500Y-89434108D01*
X137499500Y-89565892D01*
X137524467Y-89659073D01*
X137533607Y-89693183D01*
X137533610Y-89693190D01*
X137599497Y-89807310D01*
X137599505Y-89807320D01*
X137692679Y-89900494D01*
X137692684Y-89900498D01*
X137692686Y-89900500D01*
X137692687Y-89900501D01*
X137692689Y-89900502D01*
X137695963Y-89902392D01*
X137806814Y-89966392D01*
X137934108Y-90000500D01*
X137934110Y-90000500D01*
X138065890Y-90000500D01*
X138065892Y-90000500D01*
X138193186Y-89966392D01*
X138307314Y-89900500D01*
X138400500Y-89807314D01*
X138466392Y-89693186D01*
X138500500Y-89565892D01*
X138500500Y-89434108D01*
X138483351Y-89370108D01*
X154499500Y-89370108D01*
X154499500Y-89501892D01*
X154516648Y-89565890D01*
X154533607Y-89629183D01*
X154533610Y-89629190D01*
X154599497Y-89743310D01*
X154599505Y-89743320D01*
X154692679Y-89836494D01*
X154692684Y-89836498D01*
X154692686Y-89836500D01*
X154806814Y-89902392D01*
X154934108Y-89936500D01*
X154934110Y-89936500D01*
X155065890Y-89936500D01*
X155065892Y-89936500D01*
X155193186Y-89902392D01*
X155307314Y-89836500D01*
X155400500Y-89743314D01*
X155466392Y-89629186D01*
X155500500Y-89501892D01*
X155500500Y-89370108D01*
X157499500Y-89370108D01*
X157499500Y-89501892D01*
X157516648Y-89565890D01*
X157533607Y-89629183D01*
X157533610Y-89629190D01*
X157599497Y-89743310D01*
X157599505Y-89743320D01*
X157692679Y-89836494D01*
X157692684Y-89836498D01*
X157692686Y-89836500D01*
X157806814Y-89902392D01*
X157934108Y-89936500D01*
X157934110Y-89936500D01*
X158065890Y-89936500D01*
X158065892Y-89936500D01*
X158193186Y-89902392D01*
X158307314Y-89836500D01*
X158400500Y-89743314D01*
X158466392Y-89629186D01*
X158500500Y-89501892D01*
X158500500Y-89370108D01*
X158493969Y-89345733D01*
X161354500Y-89345733D01*
X161354500Y-90654266D01*
X161357354Y-90684700D01*
X161357355Y-90684704D01*
X161402206Y-90812881D01*
X161402208Y-90812885D01*
X161482849Y-90922150D01*
X161592114Y-91002791D01*
X161592118Y-91002793D01*
X161720301Y-91047646D01*
X161750734Y-91050500D01*
X161750736Y-91050500D01*
X163359264Y-91050500D01*
X163359266Y-91050500D01*
X163389699Y-91047646D01*
X163517882Y-91002793D01*
X163538768Y-90987379D01*
X163627150Y-90922150D01*
X163655226Y-90884108D01*
X165904500Y-90884108D01*
X165904500Y-91015892D01*
X165913773Y-91050499D01*
X165938607Y-91143183D01*
X165938610Y-91143190D01*
X166004497Y-91257310D01*
X166004505Y-91257320D01*
X166097679Y-91350494D01*
X166097684Y-91350498D01*
X166097686Y-91350500D01*
X166211814Y-91416392D01*
X166339108Y-91450500D01*
X166339110Y-91450500D01*
X166470890Y-91450500D01*
X166470892Y-91450500D01*
X166598186Y-91416392D01*
X166712314Y-91350500D01*
X166805500Y-91257314D01*
X166871392Y-91143186D01*
X166905500Y-91015892D01*
X166905500Y-90884108D01*
X166871392Y-90756814D01*
X166805500Y-90642686D01*
X166805498Y-90642684D01*
X166805494Y-90642679D01*
X166712320Y-90549505D01*
X166712310Y-90549497D01*
X166598190Y-90483610D01*
X166598187Y-90483609D01*
X166598186Y-90483608D01*
X166598184Y-90483607D01*
X166598183Y-90483607D01*
X166564073Y-90474467D01*
X166470892Y-90449500D01*
X166339108Y-90449500D01*
X166270894Y-90467777D01*
X166211816Y-90483607D01*
X166211809Y-90483610D01*
X166097689Y-90549497D01*
X166097679Y-90549505D01*
X166004505Y-90642679D01*
X166004497Y-90642689D01*
X165938610Y-90756809D01*
X165938608Y-90756814D01*
X165904500Y-90884108D01*
X163655226Y-90884108D01*
X163707788Y-90812889D01*
X163707788Y-90812888D01*
X163707793Y-90812882D01*
X163752646Y-90684699D01*
X163755500Y-90654266D01*
X163755500Y-89345734D01*
X163752646Y-89315301D01*
X163727282Y-89242816D01*
X163707793Y-89187118D01*
X163707791Y-89187114D01*
X163627150Y-89077849D01*
X163517885Y-88997208D01*
X163517881Y-88997206D01*
X163389704Y-88952355D01*
X163389700Y-88952354D01*
X163359266Y-88949500D01*
X161750734Y-88949500D01*
X161750733Y-88949500D01*
X161720299Y-88952354D01*
X161720295Y-88952355D01*
X161592118Y-88997206D01*
X161592114Y-88997208D01*
X161482849Y-89077849D01*
X161402208Y-89187114D01*
X161402206Y-89187118D01*
X161357355Y-89315295D01*
X161357354Y-89315299D01*
X161354500Y-89345733D01*
X158493969Y-89345733D01*
X158466392Y-89242814D01*
X158437451Y-89192686D01*
X158400502Y-89128689D01*
X158400494Y-89128679D01*
X158307320Y-89035505D01*
X158307310Y-89035497D01*
X158193190Y-88969610D01*
X158193187Y-88969609D01*
X158193186Y-88969608D01*
X158193184Y-88969607D01*
X158193183Y-88969607D01*
X158128796Y-88952355D01*
X158065892Y-88935500D01*
X157934108Y-88935500D01*
X157871204Y-88952355D01*
X157806816Y-88969607D01*
X157806809Y-88969610D01*
X157692689Y-89035497D01*
X157692679Y-89035505D01*
X157599505Y-89128679D01*
X157599497Y-89128689D01*
X157533610Y-89242809D01*
X157533608Y-89242814D01*
X157499500Y-89370108D01*
X155500500Y-89370108D01*
X155466392Y-89242814D01*
X155437451Y-89192686D01*
X155400502Y-89128689D01*
X155400494Y-89128679D01*
X155307320Y-89035505D01*
X155307310Y-89035497D01*
X155193190Y-88969610D01*
X155193187Y-88969609D01*
X155193186Y-88969608D01*
X155193184Y-88969607D01*
X155193183Y-88969607D01*
X155128796Y-88952355D01*
X155065892Y-88935500D01*
X154934108Y-88935500D01*
X154871204Y-88952355D01*
X154806816Y-88969607D01*
X154806809Y-88969610D01*
X154692689Y-89035497D01*
X154692679Y-89035505D01*
X154599505Y-89128679D01*
X154599497Y-89128689D01*
X154533610Y-89242809D01*
X154533608Y-89242814D01*
X154499500Y-89370108D01*
X138483351Y-89370108D01*
X138466392Y-89306814D01*
X138429443Y-89242816D01*
X138400502Y-89192689D01*
X138400494Y-89192679D01*
X138307320Y-89099505D01*
X138307310Y-89099497D01*
X138193190Y-89033610D01*
X138193187Y-89033609D01*
X138193186Y-89033608D01*
X138193184Y-89033607D01*
X138193183Y-89033607D01*
X138159073Y-89024467D01*
X138065892Y-88999500D01*
X137934108Y-88999500D01*
X137865894Y-89017777D01*
X137806816Y-89033607D01*
X137806809Y-89033610D01*
X137692689Y-89099497D01*
X137692679Y-89099505D01*
X137599505Y-89192679D01*
X137599497Y-89192689D01*
X137533610Y-89306809D01*
X137533607Y-89306816D01*
X137516648Y-89370109D01*
X137499500Y-89434108D01*
X130600500Y-89434108D01*
X130600500Y-86909108D01*
X144299500Y-86909108D01*
X144299500Y-87040892D01*
X144315203Y-87099497D01*
X144333607Y-87168183D01*
X144333610Y-87168190D01*
X144399497Y-87282310D01*
X144399505Y-87282320D01*
X144492679Y-87375494D01*
X144492684Y-87375498D01*
X144492686Y-87375500D01*
X144492687Y-87375501D01*
X144492689Y-87375502D01*
X144529121Y-87396536D01*
X144606814Y-87441392D01*
X144734108Y-87475500D01*
X144734110Y-87475500D01*
X144865890Y-87475500D01*
X144865892Y-87475500D01*
X144993186Y-87441392D01*
X145107314Y-87375500D01*
X145200500Y-87282314D01*
X145266392Y-87168186D01*
X145300500Y-87040892D01*
X145300500Y-86909108D01*
X145300500Y-86909107D01*
X147499500Y-86909107D01*
X147499500Y-87040891D01*
X147522169Y-87125494D01*
X147533607Y-87168182D01*
X147533610Y-87168189D01*
X147599497Y-87282309D01*
X147599505Y-87282319D01*
X147692679Y-87375493D01*
X147692684Y-87375497D01*
X147692686Y-87375499D01*
X147692687Y-87375500D01*
X147692689Y-87375501D01*
X147772906Y-87421814D01*
X147806814Y-87441391D01*
X147934108Y-87475499D01*
X147934110Y-87475499D01*
X148065890Y-87475499D01*
X148065892Y-87475499D01*
X148193186Y-87441391D01*
X148205800Y-87434108D01*
X156999500Y-87434108D01*
X156999500Y-87565892D01*
X157008451Y-87599297D01*
X157033607Y-87693183D01*
X157033610Y-87693190D01*
X157099497Y-87807310D01*
X157099505Y-87807320D01*
X157192679Y-87900494D01*
X157192684Y-87900498D01*
X157192686Y-87900500D01*
X157306814Y-87966392D01*
X157434108Y-88000500D01*
X157439187Y-88000500D01*
X157507308Y-88020502D01*
X157553801Y-88074158D01*
X157565187Y-88126500D01*
X157565187Y-88131579D01*
X157590154Y-88224760D01*
X157599294Y-88258870D01*
X157599297Y-88258877D01*
X157665184Y-88372997D01*
X157665192Y-88373007D01*
X157758366Y-88466181D01*
X157758371Y-88466185D01*
X157758373Y-88466187D01*
X157872501Y-88532079D01*
X157999795Y-88566187D01*
X157999797Y-88566187D01*
X158131577Y-88566187D01*
X158131579Y-88566187D01*
X158258873Y-88532079D01*
X158373001Y-88466187D01*
X158466187Y-88373001D01*
X158532079Y-88258873D01*
X158566187Y-88131579D01*
X158566187Y-87999795D01*
X158532079Y-87872501D01*
X158466187Y-87758373D01*
X158466185Y-87758371D01*
X158466181Y-87758366D01*
X158373007Y-87665192D01*
X158372997Y-87665184D01*
X158258877Y-87599297D01*
X158258874Y-87599296D01*
X158258873Y-87599295D01*
X158258871Y-87599294D01*
X158258870Y-87599294D01*
X158224760Y-87590154D01*
X158131579Y-87565187D01*
X158131577Y-87565187D01*
X158126500Y-87565187D01*
X158058379Y-87545185D01*
X158011886Y-87491529D01*
X158001877Y-87457767D01*
X158000500Y-87448532D01*
X158000500Y-87434108D01*
X157990432Y-87396532D01*
X161354500Y-87396532D01*
X161354500Y-87603467D01*
X161394870Y-87806420D01*
X161474059Y-87997598D01*
X161563582Y-88131579D01*
X161589024Y-88169656D01*
X161589029Y-88169662D01*
X161735337Y-88315970D01*
X161735343Y-88315975D01*
X161735345Y-88315977D01*
X161907402Y-88430941D01*
X162098580Y-88510130D01*
X162301535Y-88550500D01*
X162301536Y-88550500D01*
X162808464Y-88550500D01*
X162808465Y-88550500D01*
X163011420Y-88510130D01*
X163202598Y-88430941D01*
X163374655Y-88315977D01*
X163520977Y-88169655D01*
X163635941Y-87997598D01*
X163715130Y-87806420D01*
X163755500Y-87603465D01*
X163755500Y-87396535D01*
X163715130Y-87193580D01*
X163635941Y-87002402D01*
X163520977Y-86830345D01*
X163520975Y-86830343D01*
X163520970Y-86830337D01*
X163374662Y-86684029D01*
X163374656Y-86684024D01*
X163350209Y-86667689D01*
X163202598Y-86569059D01*
X163011420Y-86489870D01*
X162808467Y-86449500D01*
X162808465Y-86449500D01*
X162301535Y-86449500D01*
X162301532Y-86449500D01*
X162098579Y-86489870D01*
X162098574Y-86489872D01*
X161907402Y-86569059D01*
X161735343Y-86684024D01*
X161735337Y-86684029D01*
X161589029Y-86830337D01*
X161589024Y-86830343D01*
X161474059Y-87002402D01*
X161394872Y-87193574D01*
X161394870Y-87193579D01*
X161354500Y-87396532D01*
X157990432Y-87396532D01*
X157985339Y-87377525D01*
X157987029Y-87306551D01*
X158026824Y-87247755D01*
X158074431Y-87223211D01*
X158193186Y-87191392D01*
X158307314Y-87125500D01*
X158400500Y-87032314D01*
X158466392Y-86918186D01*
X158500500Y-86790892D01*
X158500500Y-86659108D01*
X158466392Y-86531814D01*
X158433301Y-86474499D01*
X158400502Y-86417689D01*
X158400494Y-86417679D01*
X158307320Y-86324505D01*
X158307310Y-86324497D01*
X158193190Y-86258610D01*
X158193187Y-86258609D01*
X158193186Y-86258608D01*
X158193184Y-86258607D01*
X158193183Y-86258607D01*
X158159073Y-86249467D01*
X158065892Y-86224500D01*
X157934108Y-86224500D01*
X157865894Y-86242777D01*
X157806816Y-86258607D01*
X157806809Y-86258610D01*
X157692689Y-86324497D01*
X157692679Y-86324505D01*
X157599505Y-86417679D01*
X157599497Y-86417689D01*
X157533610Y-86531809D01*
X157533607Y-86531816D01*
X157499500Y-86659109D01*
X157499500Y-86790892D01*
X157514660Y-86847472D01*
X157512970Y-86918449D01*
X157473175Y-86977244D01*
X157425565Y-87001789D01*
X157306814Y-87033608D01*
X157306809Y-87033610D01*
X157192689Y-87099497D01*
X157192679Y-87099505D01*
X157099505Y-87192679D01*
X157099497Y-87192689D01*
X157033610Y-87306809D01*
X157033607Y-87306816D01*
X157015203Y-87375502D01*
X156999500Y-87434108D01*
X148205800Y-87434108D01*
X148307314Y-87375499D01*
X148307320Y-87375493D01*
X148346059Y-87336755D01*
X148400494Y-87282319D01*
X148400500Y-87282313D01*
X148466392Y-87168185D01*
X148500500Y-87040891D01*
X148500500Y-86909107D01*
X148466392Y-86781813D01*
X148409936Y-86684029D01*
X148400502Y-86667688D01*
X148400501Y-86667686D01*
X148400500Y-86667685D01*
X148400498Y-86667683D01*
X148400494Y-86667678D01*
X148307320Y-86574504D01*
X148307310Y-86574496D01*
X148193190Y-86508609D01*
X148193187Y-86508608D01*
X148193186Y-86508607D01*
X148193184Y-86508606D01*
X148193183Y-86508606D01*
X148123265Y-86489872D01*
X148065892Y-86474499D01*
X147934108Y-86474499D01*
X147876742Y-86489870D01*
X147806816Y-86508606D01*
X147806809Y-86508609D01*
X147692689Y-86574496D01*
X147692679Y-86574504D01*
X147599505Y-86667678D01*
X147599497Y-86667688D01*
X147533610Y-86781808D01*
X147533607Y-86781815D01*
X147520604Y-86830345D01*
X147499500Y-86909107D01*
X145300500Y-86909107D01*
X145266392Y-86781814D01*
X145200500Y-86667686D01*
X145200498Y-86667684D01*
X145200494Y-86667679D01*
X145107320Y-86574505D01*
X145107310Y-86574497D01*
X144993190Y-86508610D01*
X144993187Y-86508609D01*
X144993186Y-86508608D01*
X144993184Y-86508607D01*
X144993183Y-86508607D01*
X144959073Y-86499467D01*
X144865892Y-86474500D01*
X144734108Y-86474500D01*
X144665894Y-86492777D01*
X144606816Y-86508607D01*
X144606809Y-86508610D01*
X144492689Y-86574497D01*
X144492679Y-86574505D01*
X144399505Y-86667679D01*
X144399497Y-86667689D01*
X144333610Y-86781809D01*
X144333607Y-86781816D01*
X144320606Y-86830337D01*
X144299500Y-86909108D01*
X130600500Y-86909108D01*
X130600500Y-84632025D01*
X131790101Y-84632025D01*
X131790101Y-84867974D01*
X131820896Y-85101890D01*
X131820898Y-85101897D01*
X131881964Y-85329800D01*
X131931345Y-85449017D01*
X131972254Y-85547780D01*
X131972259Y-85547789D01*
X132090225Y-85752112D01*
X132233861Y-85939303D01*
X132233870Y-85939313D01*
X132400687Y-86106130D01*
X132400697Y-86106139D01*
X132400698Y-86106140D01*
X132554948Y-86224500D01*
X132587888Y-86249775D01*
X132603191Y-86258610D01*
X132792217Y-86367745D01*
X133010201Y-86458037D01*
X133238104Y-86519103D01*
X133238108Y-86519103D01*
X133238110Y-86519104D01*
X133298396Y-86527040D01*
X133472029Y-86549900D01*
X133472036Y-86549900D01*
X133707966Y-86549900D01*
X133707973Y-86549900D01*
X133919384Y-86522066D01*
X133941891Y-86519104D01*
X133941891Y-86519103D01*
X133941898Y-86519103D01*
X134169801Y-86458037D01*
X134387785Y-86367745D01*
X134592117Y-86249773D01*
X134779304Y-86106140D01*
X134946141Y-85939303D01*
X134950127Y-85934108D01*
X153157052Y-85934108D01*
X153157052Y-86065892D01*
X153182019Y-86159073D01*
X153191159Y-86193183D01*
X153191162Y-86193190D01*
X153257049Y-86307310D01*
X153257057Y-86307320D01*
X153350231Y-86400494D01*
X153350236Y-86400498D01*
X153350238Y-86400500D01*
X153464366Y-86466392D01*
X153591660Y-86500500D01*
X153591662Y-86500500D01*
X153723442Y-86500500D01*
X153723444Y-86500500D01*
X153850738Y-86466392D01*
X153964866Y-86400500D01*
X154058052Y-86307314D01*
X154123944Y-86193186D01*
X154158052Y-86065892D01*
X154158052Y-85934108D01*
X158882052Y-85934108D01*
X158882052Y-86065892D01*
X158907019Y-86159073D01*
X158916159Y-86193183D01*
X158916162Y-86193190D01*
X158982049Y-86307310D01*
X158982057Y-86307320D01*
X159075231Y-86400494D01*
X159075236Y-86400498D01*
X159075238Y-86400500D01*
X159189366Y-86466392D01*
X159316660Y-86500500D01*
X159316662Y-86500500D01*
X159448442Y-86500500D01*
X159448444Y-86500500D01*
X159575738Y-86466392D01*
X159689866Y-86400500D01*
X159783052Y-86307314D01*
X159848944Y-86193186D01*
X159883052Y-86065892D01*
X159883052Y-85934108D01*
X159848944Y-85806814D01*
X159783052Y-85692686D01*
X159783050Y-85692684D01*
X159783046Y-85692679D01*
X159689872Y-85599505D01*
X159689862Y-85599497D01*
X159575742Y-85533610D01*
X159575739Y-85533609D01*
X159575738Y-85533608D01*
X159575736Y-85533607D01*
X159575735Y-85533607D01*
X159541625Y-85524467D01*
X159448444Y-85499500D01*
X159316660Y-85499500D01*
X159248446Y-85517777D01*
X159189368Y-85533607D01*
X159189361Y-85533610D01*
X159075241Y-85599497D01*
X159075231Y-85599505D01*
X158982057Y-85692679D01*
X158982049Y-85692689D01*
X158916162Y-85806809D01*
X158916160Y-85806814D01*
X158882052Y-85934108D01*
X154158052Y-85934108D01*
X154123944Y-85806814D01*
X154058052Y-85692686D01*
X154058050Y-85692684D01*
X154058046Y-85692679D01*
X153964872Y-85599505D01*
X153964862Y-85599497D01*
X153850742Y-85533610D01*
X153850739Y-85533609D01*
X153850738Y-85533608D01*
X153850736Y-85533607D01*
X153850735Y-85533607D01*
X153816625Y-85524467D01*
X153723444Y-85499500D01*
X153591660Y-85499500D01*
X153523446Y-85517777D01*
X153464368Y-85533607D01*
X153464361Y-85533610D01*
X153350241Y-85599497D01*
X153350231Y-85599505D01*
X153257057Y-85692679D01*
X153257049Y-85692689D01*
X153191162Y-85806809D01*
X153191160Y-85806814D01*
X153157052Y-85934108D01*
X134950127Y-85934108D01*
X135089774Y-85752116D01*
X135207746Y-85547784D01*
X135298038Y-85329800D01*
X135359104Y-85101897D01*
X135389901Y-84867972D01*
X135389901Y-84701455D01*
X145999500Y-84701455D01*
X145999500Y-84898544D01*
X146037949Y-85091835D01*
X146113368Y-85273914D01*
X146222861Y-85437782D01*
X146362218Y-85577139D01*
X146526086Y-85686632D01*
X146708165Y-85762051D01*
X146901459Y-85800500D01*
X147098540Y-85800500D01*
X147098541Y-85800500D01*
X147291835Y-85762051D01*
X147473914Y-85686632D01*
X147637782Y-85577139D01*
X147777139Y-85437782D01*
X147886632Y-85273914D01*
X147962051Y-85091835D01*
X148000500Y-84898541D01*
X148000500Y-84701459D01*
X147962051Y-84508165D01*
X147886632Y-84326086D01*
X147777139Y-84162218D01*
X147637782Y-84022861D01*
X147473914Y-83913368D01*
X147382410Y-83875466D01*
X147291838Y-83837950D01*
X147291835Y-83837949D01*
X147098544Y-83799500D01*
X147098541Y-83799500D01*
X146901459Y-83799500D01*
X146901455Y-83799500D01*
X146708164Y-83837949D01*
X146708161Y-83837950D01*
X146526085Y-83913368D01*
X146362222Y-84022858D01*
X146362215Y-84022863D01*
X146222863Y-84162215D01*
X146222858Y-84162222D01*
X146113368Y-84326085D01*
X146037950Y-84508161D01*
X146037949Y-84508164D01*
X145999500Y-84701455D01*
X135389901Y-84701455D01*
X135389901Y-84632028D01*
X135359104Y-84398103D01*
X135298038Y-84170200D01*
X135207746Y-83952216D01*
X135089774Y-83747884D01*
X134946141Y-83560697D01*
X134946140Y-83560696D01*
X134946131Y-83560686D01*
X134779314Y-83393869D01*
X134779304Y-83393860D01*
X134592113Y-83250224D01*
X134387790Y-83132258D01*
X134387781Y-83132253D01*
X134289018Y-83091344D01*
X134169801Y-83041963D01*
X133941898Y-82980897D01*
X133941891Y-82980895D01*
X133707975Y-82950100D01*
X133707973Y-82950100D01*
X133472029Y-82950100D01*
X133472026Y-82950100D01*
X133238110Y-82980895D01*
X133010201Y-83041963D01*
X132792220Y-83132253D01*
X132792211Y-83132258D01*
X132587888Y-83250224D01*
X132400697Y-83393860D01*
X132400687Y-83393869D01*
X132233870Y-83560686D01*
X132233861Y-83560696D01*
X132090225Y-83747887D01*
X131972259Y-83952210D01*
X131972254Y-83952219D01*
X131881964Y-84170200D01*
X131820896Y-84398109D01*
X131790101Y-84632025D01*
X130600500Y-84632025D01*
X130600500Y-82902697D01*
X140512100Y-82902697D01*
X140512100Y-83097302D01*
X140523875Y-83156500D01*
X140550064Y-83288160D01*
X140624534Y-83467946D01*
X140732648Y-83629750D01*
X140870250Y-83767352D01*
X141032054Y-83875466D01*
X141211840Y-83949936D01*
X141402700Y-83987900D01*
X141402701Y-83987900D01*
X141597299Y-83987900D01*
X141597300Y-83987900D01*
X141788160Y-83949936D01*
X141967946Y-83875466D01*
X142129750Y-83767352D01*
X142267352Y-83629750D01*
X142375466Y-83467946D01*
X142449936Y-83288160D01*
X142487900Y-83097300D01*
X142487900Y-82902700D01*
X142449936Y-82711840D01*
X142399513Y-82590108D01*
X144899500Y-82590108D01*
X144899500Y-82721892D01*
X144918602Y-82793183D01*
X144933607Y-82849183D01*
X144933610Y-82849190D01*
X144999497Y-82963310D01*
X144999505Y-82963320D01*
X145092679Y-83056494D01*
X145092684Y-83056498D01*
X145092686Y-83056500D01*
X145206814Y-83122392D01*
X145334108Y-83156500D01*
X145334110Y-83156500D01*
X145465890Y-83156500D01*
X145465892Y-83156500D01*
X145593186Y-83122392D01*
X145707314Y-83056500D01*
X145800500Y-82963314D01*
X145866392Y-82849186D01*
X145900500Y-82721892D01*
X145900500Y-82590108D01*
X146899500Y-82590108D01*
X146899500Y-82721892D01*
X146918602Y-82793183D01*
X146933607Y-82849183D01*
X146933610Y-82849190D01*
X146999497Y-82963310D01*
X146999505Y-82963320D01*
X147092679Y-83056494D01*
X147092684Y-83056498D01*
X147092686Y-83056500D01*
X147206814Y-83122392D01*
X147334108Y-83156500D01*
X147334110Y-83156500D01*
X147465890Y-83156500D01*
X147465892Y-83156500D01*
X147593186Y-83122392D01*
X147707314Y-83056500D01*
X147745597Y-83018217D01*
X147806340Y-82957475D01*
X147807404Y-82958539D01*
X147857368Y-82922051D01*
X147928239Y-82917825D01*
X147990144Y-82952585D01*
X147999058Y-82962873D01*
X148092679Y-83056494D01*
X148092684Y-83056498D01*
X148092686Y-83056500D01*
X148206814Y-83122392D01*
X148334108Y-83156500D01*
X148334110Y-83156500D01*
X148465890Y-83156500D01*
X148465892Y-83156500D01*
X148593186Y-83122392D01*
X148707314Y-83056500D01*
X148800500Y-82963314D01*
X148866392Y-82849186D01*
X148900500Y-82721892D01*
X148900500Y-82590108D01*
X149899500Y-82590108D01*
X149899500Y-82721892D01*
X149918602Y-82793183D01*
X149933607Y-82849183D01*
X149933610Y-82849190D01*
X149999497Y-82963310D01*
X149999505Y-82963320D01*
X150092679Y-83056494D01*
X150092684Y-83056498D01*
X150092686Y-83056500D01*
X150206814Y-83122392D01*
X150334108Y-83156500D01*
X150334110Y-83156500D01*
X150465890Y-83156500D01*
X150465892Y-83156500D01*
X150593186Y-83122392D01*
X150707314Y-83056500D01*
X150800500Y-82963314D01*
X150811732Y-82943858D01*
X150863113Y-82894865D01*
X150932827Y-82881427D01*
X150998738Y-82907813D01*
X151009947Y-82917762D01*
X151092679Y-83000494D01*
X151092684Y-83000498D01*
X151092686Y-83000500D01*
X151092687Y-83000501D01*
X151092689Y-83000502D01*
X151164502Y-83041963D01*
X151206814Y-83066392D01*
X151334108Y-83100500D01*
X151334110Y-83100500D01*
X151465890Y-83100500D01*
X151465892Y-83100500D01*
X151593186Y-83066392D01*
X151707314Y-83000500D01*
X151800500Y-82907314D01*
X151866392Y-82793186D01*
X151900500Y-82665892D01*
X151900500Y-82590108D01*
X152899500Y-82590108D01*
X152899500Y-82721892D01*
X152918602Y-82793183D01*
X152933607Y-82849183D01*
X152933610Y-82849190D01*
X152999497Y-82963310D01*
X152999505Y-82963320D01*
X153092679Y-83056494D01*
X153092684Y-83056498D01*
X153092686Y-83056500D01*
X153206814Y-83122392D01*
X153334108Y-83156500D01*
X153334110Y-83156500D01*
X153465890Y-83156500D01*
X153465892Y-83156500D01*
X153593186Y-83122392D01*
X153707314Y-83056500D01*
X153800500Y-82963314D01*
X153866392Y-82849186D01*
X153900500Y-82721892D01*
X153900500Y-82590108D01*
X154899500Y-82590108D01*
X154899500Y-82721892D01*
X154918602Y-82793183D01*
X154933607Y-82849183D01*
X154933610Y-82849190D01*
X154999497Y-82963310D01*
X154999505Y-82963320D01*
X155092679Y-83056494D01*
X155092684Y-83056498D01*
X155092686Y-83056500D01*
X155206814Y-83122392D01*
X155334108Y-83156500D01*
X155334110Y-83156500D01*
X155465890Y-83156500D01*
X155465892Y-83156500D01*
X155593186Y-83122392D01*
X155707314Y-83056500D01*
X155745597Y-83018217D01*
X155806340Y-82957475D01*
X155807404Y-82958539D01*
X155857368Y-82922051D01*
X155928239Y-82917825D01*
X155990144Y-82952585D01*
X155999058Y-82962873D01*
X156092679Y-83056494D01*
X156092684Y-83056498D01*
X156092686Y-83056500D01*
X156206814Y-83122392D01*
X156334108Y-83156500D01*
X156334110Y-83156500D01*
X156465890Y-83156500D01*
X156465892Y-83156500D01*
X156593186Y-83122392D01*
X156707314Y-83056500D01*
X156745597Y-83018217D01*
X156806340Y-82957475D01*
X156807404Y-82958539D01*
X156857368Y-82922051D01*
X156928239Y-82917825D01*
X156990144Y-82952585D01*
X156999058Y-82962873D01*
X157092679Y-83056494D01*
X157092684Y-83056498D01*
X157092686Y-83056500D01*
X157206814Y-83122392D01*
X157334108Y-83156500D01*
X157334110Y-83156500D01*
X157465890Y-83156500D01*
X157465892Y-83156500D01*
X157593186Y-83122392D01*
X157707314Y-83056500D01*
X157800500Y-82963314D01*
X157866392Y-82849186D01*
X157900500Y-82721892D01*
X157900500Y-82590108D01*
X157866392Y-82462814D01*
X157842915Y-82422150D01*
X157800502Y-82348689D01*
X157800494Y-82348679D01*
X157707320Y-82255505D01*
X157707310Y-82255497D01*
X157593190Y-82189610D01*
X157593187Y-82189609D01*
X157593186Y-82189608D01*
X157593184Y-82189607D01*
X157593183Y-82189607D01*
X157559073Y-82180467D01*
X157465892Y-82155500D01*
X157334108Y-82155500D01*
X157265894Y-82173777D01*
X157206816Y-82189607D01*
X157206809Y-82189610D01*
X157092689Y-82255497D01*
X157092679Y-82255505D01*
X156993660Y-82354525D01*
X156992596Y-82353461D01*
X156942622Y-82389951D01*
X156871751Y-82394172D01*
X156809849Y-82359406D01*
X156800941Y-82349126D01*
X156707320Y-82255505D01*
X156707310Y-82255497D01*
X156593190Y-82189610D01*
X156593187Y-82189609D01*
X156593186Y-82189608D01*
X156593184Y-82189607D01*
X156593183Y-82189607D01*
X156559073Y-82180467D01*
X156465892Y-82155500D01*
X156334108Y-82155500D01*
X156265894Y-82173777D01*
X156206816Y-82189607D01*
X156206809Y-82189610D01*
X156092689Y-82255497D01*
X156092679Y-82255505D01*
X155993660Y-82354525D01*
X155992596Y-82353461D01*
X155942622Y-82389951D01*
X155871751Y-82394172D01*
X155809849Y-82359406D01*
X155800941Y-82349126D01*
X155707320Y-82255505D01*
X155707310Y-82255497D01*
X155593190Y-82189610D01*
X155593187Y-82189609D01*
X155593186Y-82189608D01*
X155593184Y-82189607D01*
X155593183Y-82189607D01*
X155559073Y-82180467D01*
X155465892Y-82155500D01*
X155334108Y-82155500D01*
X155265894Y-82173777D01*
X155206816Y-82189607D01*
X155206809Y-82189610D01*
X155092689Y-82255497D01*
X155092679Y-82255505D01*
X154999505Y-82348679D01*
X154999497Y-82348689D01*
X154933610Y-82462809D01*
X154933608Y-82462814D01*
X154899500Y-82590108D01*
X153900500Y-82590108D01*
X153866392Y-82462814D01*
X153842915Y-82422150D01*
X153800502Y-82348689D01*
X153800494Y-82348679D01*
X153707320Y-82255505D01*
X153707310Y-82255497D01*
X153593190Y-82189610D01*
X153593187Y-82189609D01*
X153593186Y-82189608D01*
X153593184Y-82189607D01*
X153593183Y-82189607D01*
X153559073Y-82180467D01*
X153465892Y-82155500D01*
X153334108Y-82155500D01*
X153265894Y-82173777D01*
X153206816Y-82189607D01*
X153206809Y-82189610D01*
X153092689Y-82255497D01*
X153092679Y-82255505D01*
X152999505Y-82348679D01*
X152999497Y-82348689D01*
X152933610Y-82462809D01*
X152933608Y-82462814D01*
X152899500Y-82590108D01*
X151900500Y-82590108D01*
X151900500Y-82534108D01*
X151866392Y-82406814D01*
X151833086Y-82349126D01*
X151800502Y-82292689D01*
X151800501Y-82292687D01*
X151800500Y-82292686D01*
X151800498Y-82292684D01*
X151800494Y-82292679D01*
X151707320Y-82199505D01*
X151707310Y-82199497D01*
X151593190Y-82133610D01*
X151593187Y-82133609D01*
X151593186Y-82133608D01*
X151593184Y-82133607D01*
X151593183Y-82133607D01*
X151559073Y-82124467D01*
X151465892Y-82099500D01*
X151334108Y-82099500D01*
X151265894Y-82117777D01*
X151206816Y-82133607D01*
X151206809Y-82133610D01*
X151092689Y-82199497D01*
X151092679Y-82199505D01*
X150999505Y-82292679D01*
X150999499Y-82292687D01*
X150988265Y-82312145D01*
X150936881Y-82361137D01*
X150867167Y-82374571D01*
X150801257Y-82348183D01*
X150790052Y-82338237D01*
X150707320Y-82255505D01*
X150707310Y-82255497D01*
X150593190Y-82189610D01*
X150593187Y-82189609D01*
X150593186Y-82189608D01*
X150593184Y-82189607D01*
X150593183Y-82189607D01*
X150559073Y-82180467D01*
X150465892Y-82155500D01*
X150334108Y-82155500D01*
X150265894Y-82173777D01*
X150206816Y-82189607D01*
X150206809Y-82189610D01*
X150092689Y-82255497D01*
X150092679Y-82255505D01*
X149999505Y-82348679D01*
X149999497Y-82348689D01*
X149933610Y-82462809D01*
X149933608Y-82462814D01*
X149899500Y-82590108D01*
X148900500Y-82590108D01*
X148866392Y-82462814D01*
X148842915Y-82422150D01*
X148800502Y-82348689D01*
X148800494Y-82348679D01*
X148707320Y-82255505D01*
X148707310Y-82255497D01*
X148593190Y-82189610D01*
X148593187Y-82189609D01*
X148593186Y-82189608D01*
X148593184Y-82189607D01*
X148593183Y-82189607D01*
X148559073Y-82180467D01*
X148465892Y-82155500D01*
X148334108Y-82155500D01*
X148265894Y-82173777D01*
X148206816Y-82189607D01*
X148206809Y-82189610D01*
X148092689Y-82255497D01*
X148092679Y-82255505D01*
X147993660Y-82354525D01*
X147992596Y-82353461D01*
X147942622Y-82389951D01*
X147871751Y-82394172D01*
X147809849Y-82359406D01*
X147800941Y-82349126D01*
X147707320Y-82255505D01*
X147707310Y-82255497D01*
X147593190Y-82189610D01*
X147593187Y-82189609D01*
X147593186Y-82189608D01*
X147593184Y-82189607D01*
X147593183Y-82189607D01*
X147559073Y-82180467D01*
X147465892Y-82155500D01*
X147334108Y-82155500D01*
X147265894Y-82173777D01*
X147206816Y-82189607D01*
X147206809Y-82189610D01*
X147092689Y-82255497D01*
X147092679Y-82255505D01*
X146999505Y-82348679D01*
X146999497Y-82348689D01*
X146933610Y-82462809D01*
X146933608Y-82462814D01*
X146899500Y-82590108D01*
X145900500Y-82590108D01*
X145866392Y-82462814D01*
X145842915Y-82422150D01*
X145800502Y-82348689D01*
X145800494Y-82348679D01*
X145707320Y-82255505D01*
X145707310Y-82255497D01*
X145593190Y-82189610D01*
X145593187Y-82189609D01*
X145593186Y-82189608D01*
X145593184Y-82189607D01*
X145593183Y-82189607D01*
X145559073Y-82180467D01*
X145465892Y-82155500D01*
X145334108Y-82155500D01*
X145265894Y-82173777D01*
X145206816Y-82189607D01*
X145206809Y-82189610D01*
X145092689Y-82255497D01*
X145092679Y-82255505D01*
X144999505Y-82348679D01*
X144999497Y-82348689D01*
X144933610Y-82462809D01*
X144933608Y-82462814D01*
X144899500Y-82590108D01*
X142399513Y-82590108D01*
X142375466Y-82532054D01*
X142267352Y-82370250D01*
X142129750Y-82232648D01*
X141967946Y-82124534D01*
X141788160Y-82050064D01*
X141597302Y-82012100D01*
X141597300Y-82012100D01*
X141402700Y-82012100D01*
X141402697Y-82012100D01*
X141211839Y-82050064D01*
X141211834Y-82050066D01*
X141032054Y-82124534D01*
X140870254Y-82232645D01*
X140870247Y-82232650D01*
X140732650Y-82370247D01*
X140732645Y-82370254D01*
X140624534Y-82532054D01*
X140550066Y-82711834D01*
X140550064Y-82711839D01*
X140512100Y-82902697D01*
X130600500Y-82902697D01*
X130600500Y-80934108D01*
X141499500Y-80934108D01*
X141499500Y-81065892D01*
X141503413Y-81080495D01*
X141533607Y-81193183D01*
X141533610Y-81193190D01*
X141599497Y-81307310D01*
X141599505Y-81307320D01*
X141692679Y-81400494D01*
X141692684Y-81400498D01*
X141692686Y-81400500D01*
X141806814Y-81466392D01*
X141934108Y-81500500D01*
X141934110Y-81500500D01*
X142065890Y-81500500D01*
X142065892Y-81500500D01*
X142193186Y-81466392D01*
X142307314Y-81400500D01*
X142400500Y-81307314D01*
X142466392Y-81193186D01*
X142500500Y-81065892D01*
X142500500Y-80934108D01*
X147499500Y-80934108D01*
X147499500Y-81065892D01*
X147503413Y-81080495D01*
X147533607Y-81193183D01*
X147533610Y-81193190D01*
X147599497Y-81307310D01*
X147599505Y-81307320D01*
X147692679Y-81400494D01*
X147692684Y-81400498D01*
X147692686Y-81400500D01*
X147806814Y-81466392D01*
X147934108Y-81500500D01*
X147934110Y-81500500D01*
X148065890Y-81500500D01*
X148065892Y-81500500D01*
X148193186Y-81466392D01*
X148307314Y-81400500D01*
X148400500Y-81307314D01*
X148466392Y-81193186D01*
X148500500Y-81065892D01*
X148500500Y-80934108D01*
X150499500Y-80934108D01*
X150499500Y-81065892D01*
X150503413Y-81080495D01*
X150533607Y-81193183D01*
X150533610Y-81193190D01*
X150599497Y-81307310D01*
X150599505Y-81307320D01*
X150692679Y-81400494D01*
X150692684Y-81400498D01*
X150692686Y-81400500D01*
X150806814Y-81466392D01*
X150934108Y-81500500D01*
X150934110Y-81500500D01*
X151065890Y-81500500D01*
X151065892Y-81500500D01*
X151193186Y-81466392D01*
X151307314Y-81400500D01*
X151400500Y-81307314D01*
X151466392Y-81193186D01*
X151500500Y-81065892D01*
X151500500Y-80934108D01*
X153499500Y-80934108D01*
X153499500Y-81065892D01*
X153503413Y-81080495D01*
X153533607Y-81193183D01*
X153533610Y-81193190D01*
X153599497Y-81307310D01*
X153599505Y-81307320D01*
X153692679Y-81400494D01*
X153692684Y-81400498D01*
X153692686Y-81400500D01*
X153806814Y-81466392D01*
X153934108Y-81500500D01*
X153934110Y-81500500D01*
X154065890Y-81500500D01*
X154065892Y-81500500D01*
X154193186Y-81466392D01*
X154282016Y-81415106D01*
X157499500Y-81415106D01*
X157499500Y-81546890D01*
X157524467Y-81640071D01*
X157533607Y-81674181D01*
X157533610Y-81674188D01*
X157599497Y-81788308D01*
X157599505Y-81788318D01*
X157692679Y-81881492D01*
X157692684Y-81881496D01*
X157692686Y-81881498D01*
X157806814Y-81947390D01*
X157934108Y-81981498D01*
X157934110Y-81981498D01*
X158065890Y-81981498D01*
X158065892Y-81981498D01*
X158193186Y-81947390D01*
X158307314Y-81881498D01*
X158400500Y-81788312D01*
X158466392Y-81674184D01*
X158500500Y-81546890D01*
X158500500Y-81415106D01*
X158466392Y-81287812D01*
X158400500Y-81173684D01*
X158400498Y-81173682D01*
X158400494Y-81173677D01*
X158307320Y-81080503D01*
X158307310Y-81080495D01*
X158193190Y-81014608D01*
X158193187Y-81014607D01*
X158193186Y-81014606D01*
X158193184Y-81014605D01*
X158193183Y-81014605D01*
X158159073Y-81005465D01*
X158065892Y-80980498D01*
X157934108Y-80980498D01*
X157865894Y-80998775D01*
X157806816Y-81014605D01*
X157806809Y-81014608D01*
X157692689Y-81080495D01*
X157692679Y-81080503D01*
X157599505Y-81173677D01*
X157599497Y-81173687D01*
X157533610Y-81287807D01*
X157533607Y-81287814D01*
X157528381Y-81307320D01*
X157499500Y-81415106D01*
X154282016Y-81415106D01*
X154307314Y-81400500D01*
X154307320Y-81400494D01*
X154390062Y-81317753D01*
X154400494Y-81307320D01*
X154400500Y-81307314D01*
X154466392Y-81193186D01*
X154500500Y-81065892D01*
X154500500Y-80934108D01*
X154476820Y-80845733D01*
X161354500Y-80845733D01*
X161354500Y-82154266D01*
X161357354Y-82184700D01*
X161357355Y-82184704D01*
X161402206Y-82312881D01*
X161402208Y-82312885D01*
X161482849Y-82422150D01*
X161592114Y-82502791D01*
X161592118Y-82502793D01*
X161720301Y-82547646D01*
X161750734Y-82550500D01*
X161750736Y-82550500D01*
X163359264Y-82550500D01*
X163359266Y-82550500D01*
X163389699Y-82547646D01*
X163517882Y-82502793D01*
X163627150Y-82422150D01*
X163665456Y-82370247D01*
X163707791Y-82312885D01*
X163707793Y-82312881D01*
X163714859Y-82292689D01*
X163752646Y-82184699D01*
X163755500Y-82154266D01*
X163755500Y-80845734D01*
X163752646Y-80815301D01*
X163707793Y-80687118D01*
X163707791Y-80687114D01*
X163627150Y-80577849D01*
X163517885Y-80497208D01*
X163517881Y-80497206D01*
X163389704Y-80452355D01*
X163389700Y-80452354D01*
X163359266Y-80449500D01*
X161750734Y-80449500D01*
X161750733Y-80449500D01*
X161720299Y-80452354D01*
X161720295Y-80452355D01*
X161592118Y-80497206D01*
X161592114Y-80497208D01*
X161482849Y-80577849D01*
X161402208Y-80687114D01*
X161402206Y-80687118D01*
X161357355Y-80815295D01*
X161357354Y-80815299D01*
X161354500Y-80845733D01*
X154476820Y-80845733D01*
X154466392Y-80806814D01*
X154400500Y-80692686D01*
X154400498Y-80692684D01*
X154400494Y-80692679D01*
X154307320Y-80599505D01*
X154307310Y-80599497D01*
X154193190Y-80533610D01*
X154193187Y-80533609D01*
X154193186Y-80533608D01*
X154193184Y-80533607D01*
X154193183Y-80533607D01*
X154159073Y-80524467D01*
X154065892Y-80499500D01*
X153934108Y-80499500D01*
X153865894Y-80517777D01*
X153806816Y-80533607D01*
X153806809Y-80533610D01*
X153692689Y-80599497D01*
X153692679Y-80599505D01*
X153599505Y-80692679D01*
X153599497Y-80692689D01*
X153533610Y-80806809D01*
X153533607Y-80806816D01*
X153523179Y-80845735D01*
X153499500Y-80934108D01*
X151500500Y-80934108D01*
X151466392Y-80806814D01*
X151400500Y-80692686D01*
X151400498Y-80692684D01*
X151400494Y-80692679D01*
X151307320Y-80599505D01*
X151307310Y-80599497D01*
X151193190Y-80533610D01*
X151193187Y-80533609D01*
X151193186Y-80533608D01*
X151193184Y-80533607D01*
X151193183Y-80533607D01*
X151159073Y-80524467D01*
X151065892Y-80499500D01*
X150934108Y-80499500D01*
X150865894Y-80517777D01*
X150806816Y-80533607D01*
X150806809Y-80533610D01*
X150692689Y-80599497D01*
X150692679Y-80599505D01*
X150599505Y-80692679D01*
X150599497Y-80692689D01*
X150533610Y-80806809D01*
X150533607Y-80806816D01*
X150523179Y-80845735D01*
X150499500Y-80934108D01*
X148500500Y-80934108D01*
X148466392Y-80806814D01*
X148400500Y-80692686D01*
X148400498Y-80692684D01*
X148400494Y-80692679D01*
X148307320Y-80599505D01*
X148307310Y-80599497D01*
X148193190Y-80533610D01*
X148193187Y-80533609D01*
X148193186Y-80533608D01*
X148193184Y-80533607D01*
X148193183Y-80533607D01*
X148159073Y-80524467D01*
X148065892Y-80499500D01*
X147934108Y-80499500D01*
X147865894Y-80517777D01*
X147806816Y-80533607D01*
X147806809Y-80533610D01*
X147692689Y-80599497D01*
X147692679Y-80599505D01*
X147599505Y-80692679D01*
X147599497Y-80692689D01*
X147533610Y-80806809D01*
X147533607Y-80806816D01*
X147523179Y-80845735D01*
X147499500Y-80934108D01*
X142500500Y-80934108D01*
X142466392Y-80806814D01*
X142400500Y-80692686D01*
X142400498Y-80692684D01*
X142400494Y-80692679D01*
X142307320Y-80599505D01*
X142307310Y-80599497D01*
X142193190Y-80533610D01*
X142193187Y-80533609D01*
X142193186Y-80533608D01*
X142193184Y-80533607D01*
X142193183Y-80533607D01*
X142159073Y-80524467D01*
X142065892Y-80499500D01*
X141934108Y-80499500D01*
X141865894Y-80517777D01*
X141806816Y-80533607D01*
X141806809Y-80533610D01*
X141692689Y-80599497D01*
X141692679Y-80599505D01*
X141599505Y-80692679D01*
X141599497Y-80692689D01*
X141533610Y-80806809D01*
X141533607Y-80806816D01*
X141523179Y-80845735D01*
X141499500Y-80934108D01*
X130600500Y-80934108D01*
X130600500Y-78896532D01*
X161354500Y-78896532D01*
X161354500Y-78896535D01*
X161354500Y-79103465D01*
X161394870Y-79306420D01*
X161474059Y-79497598D01*
X161589023Y-79669655D01*
X161589024Y-79669656D01*
X161589029Y-79669662D01*
X161735337Y-79815970D01*
X161735343Y-79815975D01*
X161735345Y-79815977D01*
X161907402Y-79930941D01*
X162098580Y-80010130D01*
X162301535Y-80050500D01*
X162301536Y-80050500D01*
X162808464Y-80050500D01*
X162808465Y-80050500D01*
X163011420Y-80010130D01*
X163202598Y-79930941D01*
X163374655Y-79815977D01*
X163520977Y-79669655D01*
X163635941Y-79497598D01*
X163715130Y-79306420D01*
X163755500Y-79103465D01*
X163755500Y-78896535D01*
X163715130Y-78693580D01*
X163635941Y-78502402D01*
X163520977Y-78330345D01*
X163520975Y-78330343D01*
X163520970Y-78330337D01*
X163374662Y-78184029D01*
X163374656Y-78184024D01*
X163374655Y-78184023D01*
X163202598Y-78069059D01*
X163011420Y-77989870D01*
X162808467Y-77949500D01*
X162808465Y-77949500D01*
X162301535Y-77949500D01*
X162301532Y-77949500D01*
X162098579Y-77989870D01*
X162098574Y-77989872D01*
X161907402Y-78069059D01*
X161735343Y-78184024D01*
X161735337Y-78184029D01*
X161589029Y-78330337D01*
X161589024Y-78330343D01*
X161474059Y-78502402D01*
X161394872Y-78693574D01*
X161394870Y-78693579D01*
X161354500Y-78896532D01*
X130600500Y-78896532D01*
X130600500Y-77934108D01*
X143499500Y-77934108D01*
X143499500Y-78065892D01*
X143500349Y-78069059D01*
X143533607Y-78193183D01*
X143533610Y-78193190D01*
X143599497Y-78307310D01*
X143599505Y-78307320D01*
X143692679Y-78400494D01*
X143692684Y-78400498D01*
X143692686Y-78400500D01*
X143806814Y-78466392D01*
X143934108Y-78500500D01*
X143934110Y-78500500D01*
X144065890Y-78500500D01*
X144065892Y-78500500D01*
X144193186Y-78466392D01*
X144307314Y-78400500D01*
X144400500Y-78307314D01*
X144466392Y-78193186D01*
X144500500Y-78065892D01*
X144500500Y-77934108D01*
X147499500Y-77934108D01*
X147499500Y-78065892D01*
X147500349Y-78069059D01*
X147533607Y-78193183D01*
X147533610Y-78193190D01*
X147599497Y-78307310D01*
X147599505Y-78307320D01*
X147692679Y-78400494D01*
X147692684Y-78400498D01*
X147692686Y-78400500D01*
X147806814Y-78466392D01*
X147934108Y-78500500D01*
X147934110Y-78500500D01*
X148065890Y-78500500D01*
X148065892Y-78500500D01*
X148193186Y-78466392D01*
X148307314Y-78400500D01*
X148400500Y-78307314D01*
X148466392Y-78193186D01*
X148500500Y-78065892D01*
X148500500Y-77934108D01*
X150499500Y-77934108D01*
X150499500Y-78065892D01*
X150500349Y-78069059D01*
X150533607Y-78193183D01*
X150533610Y-78193190D01*
X150599497Y-78307310D01*
X150599505Y-78307320D01*
X150692679Y-78400494D01*
X150692684Y-78400498D01*
X150692686Y-78400500D01*
X150806814Y-78466392D01*
X150934108Y-78500500D01*
X150934110Y-78500500D01*
X151065890Y-78500500D01*
X151065892Y-78500500D01*
X151193186Y-78466392D01*
X151307314Y-78400500D01*
X151400500Y-78307314D01*
X151466392Y-78193186D01*
X151500500Y-78065892D01*
X151500500Y-77934108D01*
X153499500Y-77934108D01*
X153499500Y-78065892D01*
X153500349Y-78069059D01*
X153533607Y-78193183D01*
X153533610Y-78193190D01*
X153599497Y-78307310D01*
X153599505Y-78307320D01*
X153692679Y-78400494D01*
X153692684Y-78400498D01*
X153692686Y-78400500D01*
X153806814Y-78466392D01*
X153934108Y-78500500D01*
X153934110Y-78500500D01*
X154065890Y-78500500D01*
X154065892Y-78500500D01*
X154193186Y-78466392D01*
X154307314Y-78400500D01*
X154400500Y-78307314D01*
X154466392Y-78193186D01*
X154500500Y-78065892D01*
X154500500Y-77934108D01*
X156499500Y-77934108D01*
X156499500Y-78065892D01*
X156500349Y-78069059D01*
X156533607Y-78193183D01*
X156533610Y-78193190D01*
X156599497Y-78307310D01*
X156599505Y-78307320D01*
X156692679Y-78400494D01*
X156692684Y-78400498D01*
X156692686Y-78400500D01*
X156806814Y-78466392D01*
X156934108Y-78500500D01*
X156934110Y-78500500D01*
X157065890Y-78500500D01*
X157065892Y-78500500D01*
X157193186Y-78466392D01*
X157307314Y-78400500D01*
X157400500Y-78307314D01*
X157466392Y-78193186D01*
X157500500Y-78065892D01*
X157500500Y-77934108D01*
X157466392Y-77806814D01*
X157400500Y-77692686D01*
X157400498Y-77692684D01*
X157400494Y-77692679D01*
X157307320Y-77599505D01*
X157307310Y-77599497D01*
X157193190Y-77533610D01*
X157193187Y-77533609D01*
X157193186Y-77533608D01*
X157193184Y-77533607D01*
X157193183Y-77533607D01*
X157159073Y-77524467D01*
X157065892Y-77499500D01*
X156934108Y-77499500D01*
X156865894Y-77517777D01*
X156806816Y-77533607D01*
X156806809Y-77533610D01*
X156692689Y-77599497D01*
X156692679Y-77599505D01*
X156599505Y-77692679D01*
X156599497Y-77692689D01*
X156533610Y-77806809D01*
X156533608Y-77806814D01*
X156499500Y-77934108D01*
X154500500Y-77934108D01*
X154466392Y-77806814D01*
X154400500Y-77692686D01*
X154400498Y-77692684D01*
X154400494Y-77692679D01*
X154307320Y-77599505D01*
X154307310Y-77599497D01*
X154193190Y-77533610D01*
X154193187Y-77533609D01*
X154193186Y-77533608D01*
X154193184Y-77533607D01*
X154193183Y-77533607D01*
X154159073Y-77524467D01*
X154065892Y-77499500D01*
X153934108Y-77499500D01*
X153865894Y-77517777D01*
X153806816Y-77533607D01*
X153806809Y-77533610D01*
X153692689Y-77599497D01*
X153692679Y-77599505D01*
X153599505Y-77692679D01*
X153599497Y-77692689D01*
X153533610Y-77806809D01*
X153533608Y-77806814D01*
X153499500Y-77934108D01*
X151500500Y-77934108D01*
X151466392Y-77806814D01*
X151400500Y-77692686D01*
X151400498Y-77692684D01*
X151400494Y-77692679D01*
X151307320Y-77599505D01*
X151307310Y-77599497D01*
X151193190Y-77533610D01*
X151193187Y-77533609D01*
X151193186Y-77533608D01*
X151193184Y-77533607D01*
X151193183Y-77533607D01*
X151159073Y-77524467D01*
X151065892Y-77499500D01*
X150934108Y-77499500D01*
X150865894Y-77517777D01*
X150806816Y-77533607D01*
X150806809Y-77533610D01*
X150692689Y-77599497D01*
X150692679Y-77599505D01*
X150599505Y-77692679D01*
X150599497Y-77692689D01*
X150533610Y-77806809D01*
X150533608Y-77806814D01*
X150499500Y-77934108D01*
X148500500Y-77934108D01*
X148466392Y-77806814D01*
X148400500Y-77692686D01*
X148400498Y-77692684D01*
X148400494Y-77692679D01*
X148307320Y-77599505D01*
X148307310Y-77599497D01*
X148193190Y-77533610D01*
X148193187Y-77533609D01*
X148193186Y-77533608D01*
X148193184Y-77533607D01*
X148193183Y-77533607D01*
X148159073Y-77524467D01*
X148065892Y-77499500D01*
X147934108Y-77499500D01*
X147865894Y-77517777D01*
X147806816Y-77533607D01*
X147806809Y-77533610D01*
X147692689Y-77599497D01*
X147692679Y-77599505D01*
X147599505Y-77692679D01*
X147599497Y-77692689D01*
X147533610Y-77806809D01*
X147533608Y-77806814D01*
X147499500Y-77934108D01*
X144500500Y-77934108D01*
X144466392Y-77806814D01*
X144400500Y-77692686D01*
X144400498Y-77692684D01*
X144400494Y-77692679D01*
X144307320Y-77599505D01*
X144307310Y-77599497D01*
X144193190Y-77533610D01*
X144193187Y-77533609D01*
X144193186Y-77533608D01*
X144193184Y-77533607D01*
X144193183Y-77533607D01*
X144159073Y-77524467D01*
X144065892Y-77499500D01*
X143934108Y-77499500D01*
X143865894Y-77517777D01*
X143806816Y-77533607D01*
X143806809Y-77533610D01*
X143692689Y-77599497D01*
X143692679Y-77599505D01*
X143599505Y-77692679D01*
X143599497Y-77692689D01*
X143533610Y-77806809D01*
X143533608Y-77806814D01*
X143499500Y-77934108D01*
X130600500Y-77934108D01*
X130600500Y-76934108D01*
X161999500Y-76934108D01*
X161999500Y-77065892D01*
X162024467Y-77159073D01*
X162033607Y-77193183D01*
X162033610Y-77193190D01*
X162099497Y-77307310D01*
X162099505Y-77307320D01*
X162192679Y-77400494D01*
X162192684Y-77400498D01*
X162192686Y-77400500D01*
X162306814Y-77466392D01*
X162434108Y-77500500D01*
X162434110Y-77500500D01*
X162565890Y-77500500D01*
X162565892Y-77500500D01*
X162693186Y-77466392D01*
X162807314Y-77400500D01*
X162900500Y-77307314D01*
X162966392Y-77193186D01*
X163000500Y-77065892D01*
X163000500Y-76934108D01*
X162966392Y-76806814D01*
X162900500Y-76692686D01*
X162900498Y-76692684D01*
X162900494Y-76692679D01*
X162807320Y-76599505D01*
X162807310Y-76599497D01*
X162693190Y-76533610D01*
X162693187Y-76533609D01*
X162693186Y-76533608D01*
X162693184Y-76533607D01*
X162693183Y-76533607D01*
X162659073Y-76524467D01*
X162565892Y-76499500D01*
X162434108Y-76499500D01*
X162365894Y-76517777D01*
X162306816Y-76533607D01*
X162306809Y-76533610D01*
X162192689Y-76599497D01*
X162192679Y-76599505D01*
X162099505Y-76692679D01*
X162099497Y-76692689D01*
X162033610Y-76806809D01*
X162033608Y-76806814D01*
X161999500Y-76934108D01*
X130600500Y-76934108D01*
X130600500Y-73132024D01*
X131790101Y-73132024D01*
X131790101Y-73367973D01*
X131820896Y-73601889D01*
X131881964Y-73829798D01*
X131972254Y-74047779D01*
X131972259Y-74047788D01*
X132090225Y-74252111D01*
X132233861Y-74439302D01*
X132233870Y-74439312D01*
X132400687Y-74606129D01*
X132400697Y-74606138D01*
X132400698Y-74606139D01*
X132587885Y-74749772D01*
X132792217Y-74867744D01*
X133010201Y-74958036D01*
X133238104Y-75019102D01*
X133238108Y-75019102D01*
X133238110Y-75019103D01*
X133298396Y-75027039D01*
X133472029Y-75049899D01*
X133472036Y-75049899D01*
X133707966Y-75049899D01*
X133707973Y-75049899D01*
X133919384Y-75022065D01*
X133941891Y-75019103D01*
X133941891Y-75019102D01*
X133941898Y-75019102D01*
X134169801Y-74958036D01*
X134303399Y-74902698D01*
X140512100Y-74902698D01*
X140512100Y-75097303D01*
X140531173Y-75193190D01*
X140550064Y-75288161D01*
X140624534Y-75467947D01*
X140732648Y-75629751D01*
X140870250Y-75767353D01*
X141032054Y-75875467D01*
X141211840Y-75949937D01*
X141402700Y-75987901D01*
X141402701Y-75987901D01*
X141597299Y-75987901D01*
X141597300Y-75987901D01*
X141788160Y-75949937D01*
X141967946Y-75875467D01*
X142129750Y-75767353D01*
X142267352Y-75629751D01*
X142375466Y-75467947D01*
X142449936Y-75288161D01*
X142487900Y-75097301D01*
X142487900Y-74934108D01*
X147499500Y-74934108D01*
X147499500Y-75065892D01*
X147524467Y-75159073D01*
X147533607Y-75193183D01*
X147533610Y-75193190D01*
X147599497Y-75307310D01*
X147599505Y-75307320D01*
X147692679Y-75400494D01*
X147692684Y-75400498D01*
X147692686Y-75400500D01*
X147806814Y-75466392D01*
X147934108Y-75500500D01*
X147934110Y-75500500D01*
X148065890Y-75500500D01*
X148065892Y-75500500D01*
X148193186Y-75466392D01*
X148307314Y-75400500D01*
X148400500Y-75307314D01*
X148466392Y-75193186D01*
X148500500Y-75065892D01*
X148500500Y-74934108D01*
X150499500Y-74934108D01*
X150499500Y-75065892D01*
X150524467Y-75159073D01*
X150533607Y-75193183D01*
X150533610Y-75193190D01*
X150599497Y-75307310D01*
X150599505Y-75307320D01*
X150692679Y-75400494D01*
X150692684Y-75400498D01*
X150692686Y-75400500D01*
X150806814Y-75466392D01*
X150934108Y-75500500D01*
X150934110Y-75500500D01*
X151065890Y-75500500D01*
X151065892Y-75500500D01*
X151193186Y-75466392D01*
X151307314Y-75400500D01*
X151400500Y-75307314D01*
X151466392Y-75193186D01*
X151500500Y-75065892D01*
X151500500Y-74934108D01*
X153499500Y-74934108D01*
X153499500Y-75065892D01*
X153524467Y-75159073D01*
X153533607Y-75193183D01*
X153533610Y-75193190D01*
X153599497Y-75307310D01*
X153599505Y-75307320D01*
X153692679Y-75400494D01*
X153692684Y-75400498D01*
X153692686Y-75400500D01*
X153806814Y-75466392D01*
X153934108Y-75500500D01*
X153934110Y-75500500D01*
X154065890Y-75500500D01*
X154065892Y-75500500D01*
X154193186Y-75466392D01*
X154307314Y-75400500D01*
X154400500Y-75307314D01*
X154466392Y-75193186D01*
X154500500Y-75065892D01*
X154500500Y-74934108D01*
X157499500Y-74934108D01*
X157499500Y-75065892D01*
X157524467Y-75159073D01*
X157533607Y-75193183D01*
X157533610Y-75193190D01*
X157599497Y-75307310D01*
X157599505Y-75307320D01*
X157692679Y-75400494D01*
X157692684Y-75400498D01*
X157692686Y-75400500D01*
X157806814Y-75466392D01*
X157934108Y-75500500D01*
X157934110Y-75500500D01*
X158065890Y-75500500D01*
X158065892Y-75500500D01*
X158193186Y-75466392D01*
X158307314Y-75400500D01*
X158400500Y-75307314D01*
X158466392Y-75193186D01*
X158500500Y-75065892D01*
X158500500Y-74934108D01*
X158466392Y-74806814D01*
X158400500Y-74692686D01*
X158400498Y-74692684D01*
X158400494Y-74692679D01*
X158307320Y-74599505D01*
X158307310Y-74599497D01*
X158193190Y-74533610D01*
X158193187Y-74533609D01*
X158193186Y-74533608D01*
X158193184Y-74533607D01*
X158193183Y-74533607D01*
X158159073Y-74524467D01*
X158065892Y-74499500D01*
X157934108Y-74499500D01*
X157865894Y-74517777D01*
X157806816Y-74533607D01*
X157806809Y-74533610D01*
X157692689Y-74599497D01*
X157692679Y-74599505D01*
X157599505Y-74692679D01*
X157599497Y-74692689D01*
X157533610Y-74806809D01*
X157533608Y-74806814D01*
X157499500Y-74934108D01*
X154500500Y-74934108D01*
X154466392Y-74806814D01*
X154400500Y-74692686D01*
X154400498Y-74692684D01*
X154400494Y-74692679D01*
X154307320Y-74599505D01*
X154307310Y-74599497D01*
X154193190Y-74533610D01*
X154193187Y-74533609D01*
X154193186Y-74533608D01*
X154193184Y-74533607D01*
X154193183Y-74533607D01*
X154159073Y-74524467D01*
X154065892Y-74499500D01*
X153934108Y-74499500D01*
X153865894Y-74517777D01*
X153806816Y-74533607D01*
X153806809Y-74533610D01*
X153692689Y-74599497D01*
X153692679Y-74599505D01*
X153599505Y-74692679D01*
X153599497Y-74692689D01*
X153533610Y-74806809D01*
X153533608Y-74806814D01*
X153499500Y-74934108D01*
X151500500Y-74934108D01*
X151466392Y-74806814D01*
X151400500Y-74692686D01*
X151400498Y-74692684D01*
X151400494Y-74692679D01*
X151307320Y-74599505D01*
X151307310Y-74599497D01*
X151193190Y-74533610D01*
X151193187Y-74533609D01*
X151193186Y-74533608D01*
X151193184Y-74533607D01*
X151193183Y-74533607D01*
X151159073Y-74524467D01*
X151065892Y-74499500D01*
X150934108Y-74499500D01*
X150865894Y-74517777D01*
X150806816Y-74533607D01*
X150806809Y-74533610D01*
X150692689Y-74599497D01*
X150692679Y-74599505D01*
X150599505Y-74692679D01*
X150599497Y-74692689D01*
X150533610Y-74806809D01*
X150533608Y-74806814D01*
X150499500Y-74934108D01*
X148500500Y-74934108D01*
X148466392Y-74806814D01*
X148400500Y-74692686D01*
X148400498Y-74692684D01*
X148400494Y-74692679D01*
X148307320Y-74599505D01*
X148307310Y-74599497D01*
X148193190Y-74533610D01*
X148193187Y-74533609D01*
X148193186Y-74533608D01*
X148193184Y-74533607D01*
X148193183Y-74533607D01*
X148159073Y-74524467D01*
X148065892Y-74499500D01*
X147934108Y-74499500D01*
X147865894Y-74517777D01*
X147806816Y-74533607D01*
X147806809Y-74533610D01*
X147692689Y-74599497D01*
X147692679Y-74599505D01*
X147599505Y-74692679D01*
X147599497Y-74692689D01*
X147533610Y-74806809D01*
X147533608Y-74806814D01*
X147499500Y-74934108D01*
X142487900Y-74934108D01*
X142487900Y-74902701D01*
X142449936Y-74711841D01*
X142375466Y-74532055D01*
X142267352Y-74370251D01*
X142129750Y-74232649D01*
X141967946Y-74124535D01*
X141788160Y-74050065D01*
X141776713Y-74047788D01*
X141597302Y-74012101D01*
X141597300Y-74012101D01*
X141402700Y-74012101D01*
X141402697Y-74012101D01*
X141211839Y-74050065D01*
X141211834Y-74050067D01*
X141032054Y-74124535D01*
X140870254Y-74232646D01*
X140870247Y-74232651D01*
X140732650Y-74370248D01*
X140732645Y-74370255D01*
X140624534Y-74532055D01*
X140550066Y-74711835D01*
X140550064Y-74711840D01*
X140512100Y-74902698D01*
X134303399Y-74902698D01*
X134387785Y-74867744D01*
X134592117Y-74749772D01*
X134779304Y-74606139D01*
X134946141Y-74439302D01*
X135089774Y-74252115D01*
X135207746Y-74047783D01*
X135298038Y-73829799D01*
X135359104Y-73601896D01*
X135389901Y-73367971D01*
X135389901Y-73132027D01*
X135359104Y-72898102D01*
X135298038Y-72670199D01*
X135207746Y-72452215D01*
X135108195Y-72279789D01*
X135089776Y-72247886D01*
X135047806Y-72193190D01*
X134946141Y-72060696D01*
X134946140Y-72060695D01*
X134946131Y-72060685D01*
X134779314Y-71893868D01*
X134779304Y-71893859D01*
X134592113Y-71750223D01*
X134387790Y-71632257D01*
X134387781Y-71632252D01*
X134289018Y-71591343D01*
X134169801Y-71541962D01*
X133941898Y-71480896D01*
X133941891Y-71480894D01*
X133707975Y-71450099D01*
X133707973Y-71450099D01*
X133472029Y-71450099D01*
X133472026Y-71450099D01*
X133238110Y-71480894D01*
X133010201Y-71541962D01*
X132792220Y-71632252D01*
X132792211Y-71632257D01*
X132587888Y-71750223D01*
X132400697Y-71893859D01*
X132400687Y-71893868D01*
X132233870Y-72060685D01*
X132233861Y-72060695D01*
X132090225Y-72247886D01*
X131972259Y-72452209D01*
X131972254Y-72452218D01*
X131881964Y-72670199D01*
X131820896Y-72898108D01*
X131790101Y-73132024D01*
X130600500Y-73132024D01*
X130600500Y-71402696D01*
X140512100Y-71402696D01*
X140512100Y-71597301D01*
X140531072Y-71692679D01*
X140550064Y-71788159D01*
X140624534Y-71967945D01*
X140732648Y-72129749D01*
X140870250Y-72267351D01*
X141032054Y-72375465D01*
X141211840Y-72449935D01*
X141402700Y-72487899D01*
X141402701Y-72487899D01*
X141597299Y-72487899D01*
X141597300Y-72487899D01*
X141788160Y-72449935D01*
X141967946Y-72375465D01*
X142129750Y-72267351D01*
X142267352Y-72129749D01*
X142375466Y-71967945D01*
X142389482Y-71934108D01*
X154499500Y-71934108D01*
X154499500Y-72065892D01*
X154516609Y-72129744D01*
X154533607Y-72193183D01*
X154533610Y-72193190D01*
X154599497Y-72307310D01*
X154599505Y-72307320D01*
X154692679Y-72400494D01*
X154692684Y-72400498D01*
X154692686Y-72400500D01*
X154806814Y-72466392D01*
X154934108Y-72500500D01*
X154934110Y-72500500D01*
X155065890Y-72500500D01*
X155065892Y-72500500D01*
X155193186Y-72466392D01*
X155307314Y-72400500D01*
X155400500Y-72307314D01*
X155466392Y-72193186D01*
X155500500Y-72065892D01*
X155500500Y-71934108D01*
X156499500Y-71934108D01*
X156499500Y-72065892D01*
X156516609Y-72129744D01*
X156533607Y-72193183D01*
X156533610Y-72193190D01*
X156599497Y-72307310D01*
X156599505Y-72307320D01*
X156692679Y-72400494D01*
X156692684Y-72400498D01*
X156692686Y-72400500D01*
X156806814Y-72466392D01*
X156934108Y-72500500D01*
X156934110Y-72500500D01*
X157065890Y-72500500D01*
X157065892Y-72500500D01*
X157193186Y-72466392D01*
X157307314Y-72400500D01*
X157400500Y-72307314D01*
X157466392Y-72193186D01*
X157500500Y-72065892D01*
X157500500Y-71934108D01*
X158499500Y-71934108D01*
X158499500Y-72065892D01*
X158516609Y-72129744D01*
X158533607Y-72193183D01*
X158533610Y-72193190D01*
X158599497Y-72307310D01*
X158599505Y-72307320D01*
X158692679Y-72400494D01*
X158692684Y-72400498D01*
X158692686Y-72400500D01*
X158806814Y-72466392D01*
X158934108Y-72500500D01*
X158934110Y-72500500D01*
X159065890Y-72500500D01*
X159065892Y-72500500D01*
X159193186Y-72466392D01*
X159307314Y-72400500D01*
X159362081Y-72345733D01*
X161324500Y-72345733D01*
X161324500Y-73654266D01*
X161327354Y-73684700D01*
X161327355Y-73684704D01*
X161372206Y-73812881D01*
X161372208Y-73812885D01*
X161452849Y-73922150D01*
X161562114Y-74002791D01*
X161562118Y-74002793D01*
X161690301Y-74047646D01*
X161720734Y-74050500D01*
X161720736Y-74050500D01*
X163279264Y-74050500D01*
X163279266Y-74050500D01*
X163309699Y-74047646D01*
X163437882Y-74002793D01*
X163547150Y-73922150D01*
X163615308Y-73829799D01*
X163627791Y-73812885D01*
X163627793Y-73812881D01*
X163672644Y-73684704D01*
X163672646Y-73684699D01*
X163675500Y-73654266D01*
X163675500Y-72796608D01*
X165224500Y-72796608D01*
X165224500Y-72928392D01*
X165249467Y-73021573D01*
X165258607Y-73055683D01*
X165258610Y-73055690D01*
X165324497Y-73169810D01*
X165324505Y-73169820D01*
X165417679Y-73262994D01*
X165417684Y-73262998D01*
X165417686Y-73263000D01*
X165531814Y-73328892D01*
X165659108Y-73363000D01*
X165659110Y-73363000D01*
X165790890Y-73363000D01*
X165790892Y-73363000D01*
X165918186Y-73328892D01*
X166032314Y-73263000D01*
X166125500Y-73169814D01*
X166191392Y-73055686D01*
X166225500Y-72928392D01*
X166225500Y-72796608D01*
X166191392Y-72669314D01*
X166125500Y-72555186D01*
X166125498Y-72555184D01*
X166125494Y-72555179D01*
X166032320Y-72462005D01*
X166032310Y-72461997D01*
X165918190Y-72396110D01*
X165918187Y-72396109D01*
X165918186Y-72396108D01*
X165918184Y-72396107D01*
X165918183Y-72396107D01*
X165884073Y-72386967D01*
X165790892Y-72362000D01*
X165659108Y-72362000D01*
X165590894Y-72380277D01*
X165531816Y-72396107D01*
X165531809Y-72396110D01*
X165417689Y-72461997D01*
X165417679Y-72462005D01*
X165324505Y-72555179D01*
X165324497Y-72555189D01*
X165258610Y-72669309D01*
X165258607Y-72669316D01*
X165236983Y-72750017D01*
X165224500Y-72796608D01*
X163675500Y-72796608D01*
X163675500Y-72345734D01*
X163672646Y-72315301D01*
X163627793Y-72187118D01*
X163627791Y-72187114D01*
X163547150Y-72077849D01*
X163437885Y-71997208D01*
X163437881Y-71997206D01*
X163309704Y-71952355D01*
X163309700Y-71952354D01*
X163279266Y-71949500D01*
X161720734Y-71949500D01*
X161720733Y-71949500D01*
X161690299Y-71952354D01*
X161690295Y-71952355D01*
X161562118Y-71997206D01*
X161562114Y-71997208D01*
X161452849Y-72077849D01*
X161372208Y-72187114D01*
X161372206Y-72187118D01*
X161327355Y-72315295D01*
X161327354Y-72315299D01*
X161324500Y-72345733D01*
X159362081Y-72345733D01*
X159400500Y-72307314D01*
X159466392Y-72193186D01*
X159500500Y-72065892D01*
X159500500Y-71934108D01*
X159466392Y-71806814D01*
X159400500Y-71692686D01*
X159400498Y-71692684D01*
X159400494Y-71692679D01*
X159307320Y-71599505D01*
X159307310Y-71599497D01*
X159193190Y-71533610D01*
X159193187Y-71533609D01*
X159193186Y-71533608D01*
X159193184Y-71533607D01*
X159193183Y-71533607D01*
X159159073Y-71524467D01*
X159065892Y-71499500D01*
X158934108Y-71499500D01*
X158865894Y-71517777D01*
X158806816Y-71533607D01*
X158806809Y-71533610D01*
X158692689Y-71599497D01*
X158692679Y-71599505D01*
X158599505Y-71692679D01*
X158599497Y-71692689D01*
X158533610Y-71806809D01*
X158533607Y-71806816D01*
X158511983Y-71887517D01*
X158499500Y-71934108D01*
X157500500Y-71934108D01*
X157466392Y-71806814D01*
X157400500Y-71692686D01*
X157400498Y-71692684D01*
X157400494Y-71692679D01*
X157307320Y-71599505D01*
X157307310Y-71599497D01*
X157193190Y-71533610D01*
X157193187Y-71533609D01*
X157193186Y-71533608D01*
X157193184Y-71533607D01*
X157193183Y-71533607D01*
X157159073Y-71524467D01*
X157065892Y-71499500D01*
X156934108Y-71499500D01*
X156865894Y-71517777D01*
X156806816Y-71533607D01*
X156806809Y-71533610D01*
X156692689Y-71599497D01*
X156692679Y-71599505D01*
X156599505Y-71692679D01*
X156599497Y-71692689D01*
X156533610Y-71806809D01*
X156533607Y-71806816D01*
X156511983Y-71887517D01*
X156499500Y-71934108D01*
X155500500Y-71934108D01*
X155466392Y-71806814D01*
X155400500Y-71692686D01*
X155400498Y-71692684D01*
X155400494Y-71692679D01*
X155307320Y-71599505D01*
X155307310Y-71599497D01*
X155193190Y-71533610D01*
X155193187Y-71533609D01*
X155193186Y-71533608D01*
X155193184Y-71533607D01*
X155193183Y-71533607D01*
X155159073Y-71524467D01*
X155065892Y-71499500D01*
X154934108Y-71499500D01*
X154865894Y-71517777D01*
X154806816Y-71533607D01*
X154806809Y-71533610D01*
X154692689Y-71599497D01*
X154692679Y-71599505D01*
X154599505Y-71692679D01*
X154599497Y-71692689D01*
X154533610Y-71806809D01*
X154533607Y-71806816D01*
X154511983Y-71887517D01*
X154499500Y-71934108D01*
X142389482Y-71934108D01*
X142449936Y-71788159D01*
X142487900Y-71597299D01*
X142487900Y-71402699D01*
X142449936Y-71211839D01*
X142375466Y-71032053D01*
X142267352Y-70870249D01*
X142129750Y-70732647D01*
X141967946Y-70624533D01*
X141788160Y-70550063D01*
X141678333Y-70528217D01*
X141597302Y-70512099D01*
X141597300Y-70512099D01*
X141402700Y-70512099D01*
X141402697Y-70512099D01*
X141211839Y-70550063D01*
X141211834Y-70550065D01*
X141032054Y-70624533D01*
X140870254Y-70732644D01*
X140870247Y-70732649D01*
X140732650Y-70870246D01*
X140732645Y-70870253D01*
X140624534Y-71032053D01*
X140550066Y-71211833D01*
X140550064Y-71211838D01*
X140512100Y-71402696D01*
X130600500Y-71402696D01*
X130600500Y-70434108D01*
X154499500Y-70434108D01*
X154499500Y-70565892D01*
X154509567Y-70603463D01*
X154533607Y-70693183D01*
X154533610Y-70693190D01*
X154599497Y-70807310D01*
X154599505Y-70807320D01*
X154692679Y-70900494D01*
X154692684Y-70900498D01*
X154692686Y-70900500D01*
X154806814Y-70966392D01*
X154934108Y-71000500D01*
X154934110Y-71000500D01*
X155065890Y-71000500D01*
X155065892Y-71000500D01*
X155193186Y-70966392D01*
X155307314Y-70900500D01*
X155400500Y-70807314D01*
X155466392Y-70693186D01*
X155500500Y-70565892D01*
X155500500Y-70434108D01*
X156499500Y-70434108D01*
X156499500Y-70565892D01*
X156509567Y-70603463D01*
X156533607Y-70693183D01*
X156533610Y-70693190D01*
X156599497Y-70807310D01*
X156599505Y-70807320D01*
X156692679Y-70900494D01*
X156692684Y-70900498D01*
X156692686Y-70900500D01*
X156806814Y-70966392D01*
X156934108Y-71000500D01*
X156934110Y-71000500D01*
X157065890Y-71000500D01*
X157065892Y-71000500D01*
X157193186Y-70966392D01*
X157307314Y-70900500D01*
X157400500Y-70807314D01*
X157466392Y-70693186D01*
X157500500Y-70565892D01*
X157500500Y-70434108D01*
X158499500Y-70434108D01*
X158499500Y-70565892D01*
X158509567Y-70603463D01*
X158533607Y-70693183D01*
X158533610Y-70693190D01*
X158599497Y-70807310D01*
X158599505Y-70807320D01*
X158692679Y-70900494D01*
X158692684Y-70900498D01*
X158692686Y-70900500D01*
X158806814Y-70966392D01*
X158934108Y-71000500D01*
X158934110Y-71000500D01*
X159065890Y-71000500D01*
X159065892Y-71000500D01*
X159193186Y-70966392D01*
X159307314Y-70900500D01*
X159400500Y-70807314D01*
X159466392Y-70693186D01*
X159500500Y-70565892D01*
X159500500Y-70434108D01*
X159490432Y-70396532D01*
X161324500Y-70396532D01*
X161324500Y-70603467D01*
X161355559Y-70759609D01*
X161364870Y-70806420D01*
X161444059Y-70997598D01*
X161534407Y-71132814D01*
X161559024Y-71169656D01*
X161559029Y-71169662D01*
X161705337Y-71315970D01*
X161705343Y-71315975D01*
X161705345Y-71315977D01*
X161877402Y-71430941D01*
X162068580Y-71510130D01*
X162271535Y-71550500D01*
X162271536Y-71550500D01*
X162728464Y-71550500D01*
X162728465Y-71550500D01*
X162931420Y-71510130D01*
X163122598Y-71430941D01*
X163294655Y-71315977D01*
X163440977Y-71169655D01*
X163555941Y-70997598D01*
X163635130Y-70806420D01*
X163644441Y-70759608D01*
X169499500Y-70759608D01*
X169499500Y-70891392D01*
X169501941Y-70900502D01*
X169533607Y-71018683D01*
X169533610Y-71018690D01*
X169599497Y-71132810D01*
X169599505Y-71132820D01*
X169692679Y-71225994D01*
X169692684Y-71225998D01*
X169692686Y-71226000D01*
X169806814Y-71291892D01*
X169934108Y-71326000D01*
X169934110Y-71326000D01*
X170065890Y-71326000D01*
X170065892Y-71326000D01*
X170193186Y-71291892D01*
X170307314Y-71226000D01*
X170400500Y-71132814D01*
X170466392Y-71018686D01*
X170500500Y-70891392D01*
X170500500Y-70759608D01*
X170466392Y-70632314D01*
X170428042Y-70565890D01*
X170400502Y-70518189D01*
X170400494Y-70518179D01*
X170307320Y-70425005D01*
X170307310Y-70424997D01*
X170193190Y-70359110D01*
X170193187Y-70359109D01*
X170193186Y-70359108D01*
X170193184Y-70359107D01*
X170193183Y-70359107D01*
X170159073Y-70349967D01*
X170065892Y-70325000D01*
X169934108Y-70325000D01*
X169865894Y-70343277D01*
X169806816Y-70359107D01*
X169806809Y-70359110D01*
X169692689Y-70424997D01*
X169692679Y-70425005D01*
X169599505Y-70518179D01*
X169599497Y-70518189D01*
X169533610Y-70632309D01*
X169533607Y-70632316D01*
X169517296Y-70693190D01*
X169499500Y-70759608D01*
X163644441Y-70759608D01*
X163675500Y-70603465D01*
X163675500Y-70396535D01*
X163635130Y-70193580D01*
X163555941Y-70002402D01*
X163440977Y-69830345D01*
X163440975Y-69830343D01*
X163440970Y-69830337D01*
X163294662Y-69684029D01*
X163294656Y-69684024D01*
X163294655Y-69684023D01*
X163122598Y-69569059D01*
X162931420Y-69489870D01*
X162728467Y-69449500D01*
X162728465Y-69449500D01*
X162271535Y-69449500D01*
X162271532Y-69449500D01*
X162068579Y-69489870D01*
X162068574Y-69489872D01*
X161877402Y-69569059D01*
X161705343Y-69684024D01*
X161705337Y-69684029D01*
X161559029Y-69830337D01*
X161559024Y-69830343D01*
X161444059Y-70002402D01*
X161364872Y-70193574D01*
X161364870Y-70193579D01*
X161324500Y-70396532D01*
X159490432Y-70396532D01*
X159466392Y-70306814D01*
X159400500Y-70192686D01*
X159400498Y-70192684D01*
X159400494Y-70192679D01*
X159307320Y-70099505D01*
X159307310Y-70099497D01*
X159193190Y-70033610D01*
X159193187Y-70033609D01*
X159193186Y-70033608D01*
X159193184Y-70033607D01*
X159193183Y-70033607D01*
X159159073Y-70024467D01*
X159065892Y-69999500D01*
X158934108Y-69999500D01*
X158865894Y-70017777D01*
X158806816Y-70033607D01*
X158806809Y-70033610D01*
X158692689Y-70099497D01*
X158692679Y-70099505D01*
X158599505Y-70192679D01*
X158599497Y-70192689D01*
X158533610Y-70306809D01*
X158533608Y-70306814D01*
X158499500Y-70434108D01*
X157500500Y-70434108D01*
X157466392Y-70306814D01*
X157400500Y-70192686D01*
X157400498Y-70192684D01*
X157400494Y-70192679D01*
X157307320Y-70099505D01*
X157307310Y-70099497D01*
X157193190Y-70033610D01*
X157193187Y-70033609D01*
X157193186Y-70033608D01*
X157193184Y-70033607D01*
X157193183Y-70033607D01*
X157159073Y-70024467D01*
X157065892Y-69999500D01*
X156934108Y-69999500D01*
X156865894Y-70017777D01*
X156806816Y-70033607D01*
X156806809Y-70033610D01*
X156692689Y-70099497D01*
X156692679Y-70099505D01*
X156599505Y-70192679D01*
X156599497Y-70192689D01*
X156533610Y-70306809D01*
X156533608Y-70306814D01*
X156499500Y-70434108D01*
X155500500Y-70434108D01*
X155466392Y-70306814D01*
X155400500Y-70192686D01*
X155400498Y-70192684D01*
X155400494Y-70192679D01*
X155307320Y-70099505D01*
X155307310Y-70099497D01*
X155193190Y-70033610D01*
X155193187Y-70033609D01*
X155193186Y-70033608D01*
X155193184Y-70033607D01*
X155193183Y-70033607D01*
X155159073Y-70024467D01*
X155065892Y-69999500D01*
X154934108Y-69999500D01*
X154865894Y-70017777D01*
X154806816Y-70033607D01*
X154806809Y-70033610D01*
X154692689Y-70099497D01*
X154692679Y-70099505D01*
X154599505Y-70192679D01*
X154599497Y-70192689D01*
X154533610Y-70306809D01*
X154533608Y-70306814D01*
X154499500Y-70434108D01*
X130600500Y-70434108D01*
X130600500Y-68934108D01*
X154499500Y-68934108D01*
X154499500Y-69065892D01*
X154524467Y-69159073D01*
X154533607Y-69193183D01*
X154533610Y-69193190D01*
X154599497Y-69307310D01*
X154599505Y-69307320D01*
X154692679Y-69400494D01*
X154692684Y-69400498D01*
X154692686Y-69400500D01*
X154806814Y-69466392D01*
X154934108Y-69500500D01*
X154934110Y-69500500D01*
X155065890Y-69500500D01*
X155065892Y-69500500D01*
X155193186Y-69466392D01*
X155307314Y-69400500D01*
X155400500Y-69307314D01*
X155466392Y-69193186D01*
X155500500Y-69065892D01*
X155500500Y-68934108D01*
X156499500Y-68934108D01*
X156499500Y-69065892D01*
X156524467Y-69159073D01*
X156533607Y-69193183D01*
X156533610Y-69193190D01*
X156599497Y-69307310D01*
X156599505Y-69307320D01*
X156692679Y-69400494D01*
X156692684Y-69400498D01*
X156692686Y-69400500D01*
X156806814Y-69466392D01*
X156934108Y-69500500D01*
X156934110Y-69500500D01*
X157065890Y-69500500D01*
X157065892Y-69500500D01*
X157193186Y-69466392D01*
X157307314Y-69400500D01*
X157400500Y-69307314D01*
X157466392Y-69193186D01*
X157500500Y-69065892D01*
X157500500Y-68934108D01*
X158499500Y-68934108D01*
X158499500Y-69065892D01*
X158524467Y-69159073D01*
X158533607Y-69193183D01*
X158533610Y-69193190D01*
X158599497Y-69307310D01*
X158599505Y-69307320D01*
X158692679Y-69400494D01*
X158692684Y-69400498D01*
X158692686Y-69400500D01*
X158806814Y-69466392D01*
X158934108Y-69500500D01*
X158934110Y-69500500D01*
X159065890Y-69500500D01*
X159065892Y-69500500D01*
X159193186Y-69466392D01*
X159307314Y-69400500D01*
X159400500Y-69307314D01*
X159466392Y-69193186D01*
X159500500Y-69065892D01*
X159500500Y-68934108D01*
X159466392Y-68806814D01*
X159400500Y-68692686D01*
X159400498Y-68692684D01*
X159400494Y-68692679D01*
X159307320Y-68599505D01*
X159307310Y-68599497D01*
X159193190Y-68533610D01*
X159193187Y-68533609D01*
X159193186Y-68533608D01*
X159193184Y-68533607D01*
X159193183Y-68533607D01*
X159159073Y-68524467D01*
X159065892Y-68499500D01*
X158934108Y-68499500D01*
X158865894Y-68517777D01*
X158806816Y-68533607D01*
X158806809Y-68533610D01*
X158692689Y-68599497D01*
X158692679Y-68599505D01*
X158599505Y-68692679D01*
X158599497Y-68692689D01*
X158533610Y-68806809D01*
X158533607Y-68806816D01*
X158511983Y-68887517D01*
X158499500Y-68934108D01*
X157500500Y-68934108D01*
X157466392Y-68806814D01*
X157400500Y-68692686D01*
X157400498Y-68692684D01*
X157400494Y-68692679D01*
X157307320Y-68599505D01*
X157307310Y-68599497D01*
X157193190Y-68533610D01*
X157193187Y-68533609D01*
X157193186Y-68533608D01*
X157193184Y-68533607D01*
X157193183Y-68533607D01*
X157159073Y-68524467D01*
X157065892Y-68499500D01*
X156934108Y-68499500D01*
X156865894Y-68517777D01*
X156806816Y-68533607D01*
X156806809Y-68533610D01*
X156692689Y-68599497D01*
X156692679Y-68599505D01*
X156599505Y-68692679D01*
X156599497Y-68692689D01*
X156533610Y-68806809D01*
X156533607Y-68806816D01*
X156511983Y-68887517D01*
X156499500Y-68934108D01*
X155500500Y-68934108D01*
X155466392Y-68806814D01*
X155400500Y-68692686D01*
X155400498Y-68692684D01*
X155400494Y-68692679D01*
X155307320Y-68599505D01*
X155307310Y-68599497D01*
X155193190Y-68533610D01*
X155193187Y-68533609D01*
X155193186Y-68533608D01*
X155193184Y-68533607D01*
X155193183Y-68533607D01*
X155159073Y-68524467D01*
X155065892Y-68499500D01*
X154934108Y-68499500D01*
X154865894Y-68517777D01*
X154806816Y-68533607D01*
X154806809Y-68533610D01*
X154692689Y-68599497D01*
X154692679Y-68599505D01*
X154599505Y-68692679D01*
X154599497Y-68692689D01*
X154533610Y-68806809D01*
X154533607Y-68806816D01*
X154511983Y-68887517D01*
X154499500Y-68934108D01*
X130600500Y-68934108D01*
X130600500Y-67434108D01*
X154499500Y-67434108D01*
X154499500Y-67565892D01*
X154524467Y-67659073D01*
X154533607Y-67693183D01*
X154533610Y-67693190D01*
X154599497Y-67807310D01*
X154599505Y-67807320D01*
X154692679Y-67900494D01*
X154692684Y-67900498D01*
X154692686Y-67900500D01*
X154806814Y-67966392D01*
X154934108Y-68000500D01*
X154934110Y-68000500D01*
X155065890Y-68000500D01*
X155065892Y-68000500D01*
X155193186Y-67966392D01*
X155307314Y-67900500D01*
X155400500Y-67807314D01*
X155466392Y-67693186D01*
X155500500Y-67565892D01*
X155500500Y-67434108D01*
X156499500Y-67434108D01*
X156499500Y-67565892D01*
X156524467Y-67659073D01*
X156533607Y-67693183D01*
X156533610Y-67693190D01*
X156599497Y-67807310D01*
X156599505Y-67807320D01*
X156692679Y-67900494D01*
X156692684Y-67900498D01*
X156692686Y-67900500D01*
X156806814Y-67966392D01*
X156934108Y-68000500D01*
X156934110Y-68000500D01*
X157065890Y-68000500D01*
X157065892Y-68000500D01*
X157193186Y-67966392D01*
X157307314Y-67900500D01*
X157400500Y-67807314D01*
X157466392Y-67693186D01*
X157500500Y-67565892D01*
X157500500Y-67434108D01*
X158499500Y-67434108D01*
X158499500Y-67565892D01*
X158524467Y-67659073D01*
X158533607Y-67693183D01*
X158533610Y-67693190D01*
X158599497Y-67807310D01*
X158599505Y-67807320D01*
X158692679Y-67900494D01*
X158692684Y-67900498D01*
X158692686Y-67900500D01*
X158806814Y-67966392D01*
X158934108Y-68000500D01*
X158934110Y-68000500D01*
X159065890Y-68000500D01*
X159065892Y-68000500D01*
X159193186Y-67966392D01*
X159307314Y-67900500D01*
X159311282Y-67896532D01*
X161324500Y-67896532D01*
X161324500Y-67896535D01*
X161324500Y-68103465D01*
X161364870Y-68306420D01*
X161444059Y-68497598D01*
X161512151Y-68599505D01*
X161559024Y-68669656D01*
X161559029Y-68669662D01*
X161705337Y-68815970D01*
X161705343Y-68815975D01*
X161705345Y-68815977D01*
X161877402Y-68930941D01*
X162068580Y-69010130D01*
X162271535Y-69050500D01*
X162271536Y-69050500D01*
X162728464Y-69050500D01*
X162728465Y-69050500D01*
X162931420Y-69010130D01*
X163122598Y-68930941D01*
X163294655Y-68815977D01*
X163440977Y-68669655D01*
X163555941Y-68497598D01*
X163635130Y-68306420D01*
X163675500Y-68103465D01*
X163675500Y-67896535D01*
X163635130Y-67693580D01*
X163555941Y-67502402D01*
X163440977Y-67330345D01*
X163440975Y-67330343D01*
X163440970Y-67330337D01*
X163294662Y-67184029D01*
X163294656Y-67184024D01*
X163294655Y-67184023D01*
X163122598Y-67069059D01*
X162931420Y-66989870D01*
X162728467Y-66949500D01*
X162728465Y-66949500D01*
X162271535Y-66949500D01*
X162271532Y-66949500D01*
X162068579Y-66989870D01*
X162068574Y-66989872D01*
X161877402Y-67069059D01*
X161705343Y-67184024D01*
X161705337Y-67184029D01*
X161559029Y-67330337D01*
X161559024Y-67330343D01*
X161444059Y-67502402D01*
X161364872Y-67693574D01*
X161364870Y-67693579D01*
X161324500Y-67896532D01*
X159311282Y-67896532D01*
X159400500Y-67807314D01*
X159466392Y-67693186D01*
X159500500Y-67565892D01*
X159500500Y-67434108D01*
X159466392Y-67306814D01*
X159433879Y-67250500D01*
X159400502Y-67192689D01*
X159400494Y-67192679D01*
X159307320Y-67099505D01*
X159307310Y-67099497D01*
X159193190Y-67033610D01*
X159193187Y-67033609D01*
X159193186Y-67033608D01*
X159193184Y-67033607D01*
X159193183Y-67033607D01*
X159159073Y-67024467D01*
X159065892Y-66999500D01*
X158934108Y-66999500D01*
X158885136Y-67012622D01*
X158806816Y-67033607D01*
X158806809Y-67033610D01*
X158692689Y-67099497D01*
X158692679Y-67099505D01*
X158599505Y-67192679D01*
X158599497Y-67192689D01*
X158533610Y-67306809D01*
X158533608Y-67306814D01*
X158499500Y-67434108D01*
X157500500Y-67434108D01*
X157466392Y-67306814D01*
X157433879Y-67250500D01*
X157400502Y-67192689D01*
X157400494Y-67192679D01*
X157307320Y-67099505D01*
X157307310Y-67099497D01*
X157193190Y-67033610D01*
X157193187Y-67033609D01*
X157193186Y-67033608D01*
X157193184Y-67033607D01*
X157193183Y-67033607D01*
X157159073Y-67024467D01*
X157065892Y-66999500D01*
X156934108Y-66999500D01*
X156885136Y-67012622D01*
X156806816Y-67033607D01*
X156806809Y-67033610D01*
X156692689Y-67099497D01*
X156692679Y-67099505D01*
X156599505Y-67192679D01*
X156599497Y-67192689D01*
X156533610Y-67306809D01*
X156533608Y-67306814D01*
X156499500Y-67434108D01*
X155500500Y-67434108D01*
X155466392Y-67306814D01*
X155433879Y-67250500D01*
X155400502Y-67192689D01*
X155400494Y-67192679D01*
X155307320Y-67099505D01*
X155307310Y-67099497D01*
X155193190Y-67033610D01*
X155193187Y-67033609D01*
X155193186Y-67033608D01*
X155193184Y-67033607D01*
X155193183Y-67033607D01*
X155159073Y-67024467D01*
X155065892Y-66999500D01*
X154934108Y-66999500D01*
X154885136Y-67012622D01*
X154806816Y-67033607D01*
X154806809Y-67033610D01*
X154692689Y-67099497D01*
X154692679Y-67099505D01*
X154599505Y-67192679D01*
X154599497Y-67192689D01*
X154533610Y-67306809D01*
X154533608Y-67306814D01*
X154499500Y-67434108D01*
X130600500Y-67434108D01*
X130600500Y-66628799D01*
X130620502Y-66560678D01*
X130674158Y-66514185D01*
X130744432Y-66504081D01*
X130809012Y-66533575D01*
X130815595Y-66539704D01*
X130946867Y-66670976D01*
X130946877Y-66670985D01*
X130946883Y-66670991D01*
X130946886Y-66670993D01*
X130946888Y-66670995D01*
X131191324Y-66858559D01*
X131458157Y-67012615D01*
X131458161Y-67012616D01*
X131458170Y-67012622D01*
X131742836Y-67130535D01*
X132040456Y-67210282D01*
X132040462Y-67210282D01*
X132040463Y-67210283D01*
X132075515Y-67214897D01*
X132345940Y-67250500D01*
X132345947Y-67250500D01*
X132654053Y-67250500D01*
X132654060Y-67250500D01*
X132959544Y-67210282D01*
X133257164Y-67130535D01*
X133541830Y-67012622D01*
X133808670Y-66858562D01*
X133808670Y-66858561D01*
X133808675Y-66858559D01*
X133950632Y-66749630D01*
X134053117Y-66670991D01*
X134270991Y-66453117D01*
X134399500Y-66285641D01*
X134458559Y-66208675D01*
X134612615Y-65941842D01*
X134612614Y-65941842D01*
X134612622Y-65941830D01*
X134615821Y-65934108D01*
X154499500Y-65934108D01*
X154499500Y-66065892D01*
X154524467Y-66159073D01*
X154533607Y-66193183D01*
X154533610Y-66193190D01*
X154599497Y-66307310D01*
X154599505Y-66307320D01*
X154692679Y-66400494D01*
X154692684Y-66400498D01*
X154692686Y-66400500D01*
X154806814Y-66466392D01*
X154934108Y-66500500D01*
X154934110Y-66500500D01*
X155065890Y-66500500D01*
X155065892Y-66500500D01*
X155193186Y-66466392D01*
X155307314Y-66400500D01*
X155400500Y-66307314D01*
X155466392Y-66193186D01*
X155500500Y-66065892D01*
X155500500Y-65934108D01*
X156499500Y-65934108D01*
X156499500Y-66065892D01*
X156524467Y-66159073D01*
X156533607Y-66193183D01*
X156533610Y-66193190D01*
X156599497Y-66307310D01*
X156599505Y-66307320D01*
X156692679Y-66400494D01*
X156692684Y-66400498D01*
X156692686Y-66400500D01*
X156806814Y-66466392D01*
X156934108Y-66500500D01*
X156934110Y-66500500D01*
X157065890Y-66500500D01*
X157065892Y-66500500D01*
X157193186Y-66466392D01*
X157307314Y-66400500D01*
X157400500Y-66307314D01*
X157466392Y-66193186D01*
X157500500Y-66065892D01*
X157500500Y-65934108D01*
X158499500Y-65934108D01*
X158499500Y-66065892D01*
X158524467Y-66159073D01*
X158533607Y-66193183D01*
X158533610Y-66193190D01*
X158599497Y-66307310D01*
X158599505Y-66307320D01*
X158692679Y-66400494D01*
X158692684Y-66400498D01*
X158692686Y-66400500D01*
X158806814Y-66466392D01*
X158934108Y-66500500D01*
X158934110Y-66500500D01*
X159065890Y-66500500D01*
X159065892Y-66500500D01*
X159193186Y-66466392D01*
X159307314Y-66400500D01*
X159400500Y-66307314D01*
X159466392Y-66193186D01*
X159500500Y-66065892D01*
X159500500Y-65934108D01*
X159466392Y-65806814D01*
X159400500Y-65692686D01*
X159400498Y-65692684D01*
X159400494Y-65692679D01*
X159307320Y-65599505D01*
X159307310Y-65599497D01*
X159193190Y-65533610D01*
X159193187Y-65533609D01*
X159193186Y-65533608D01*
X159193184Y-65533607D01*
X159193183Y-65533607D01*
X159159073Y-65524467D01*
X159065892Y-65499500D01*
X158934108Y-65499500D01*
X158865894Y-65517777D01*
X158806816Y-65533607D01*
X158806809Y-65533610D01*
X158692689Y-65599497D01*
X158692679Y-65599505D01*
X158599505Y-65692679D01*
X158599497Y-65692689D01*
X158533610Y-65806809D01*
X158533607Y-65806816D01*
X158511983Y-65887517D01*
X158499500Y-65934108D01*
X157500500Y-65934108D01*
X157466392Y-65806814D01*
X157400500Y-65692686D01*
X157400498Y-65692684D01*
X157400494Y-65692679D01*
X157307320Y-65599505D01*
X157307310Y-65599497D01*
X157193190Y-65533610D01*
X157193187Y-65533609D01*
X157193186Y-65533608D01*
X157193184Y-65533607D01*
X157193183Y-65533607D01*
X157159073Y-65524467D01*
X157065892Y-65499500D01*
X156934108Y-65499500D01*
X156865894Y-65517777D01*
X156806816Y-65533607D01*
X156806809Y-65533610D01*
X156692689Y-65599497D01*
X156692679Y-65599505D01*
X156599505Y-65692679D01*
X156599497Y-65692689D01*
X156533610Y-65806809D01*
X156533607Y-65806816D01*
X156511983Y-65887517D01*
X156499500Y-65934108D01*
X155500500Y-65934108D01*
X155466392Y-65806814D01*
X155400500Y-65692686D01*
X155400498Y-65692684D01*
X155400494Y-65692679D01*
X155307320Y-65599505D01*
X155307310Y-65599497D01*
X155193190Y-65533610D01*
X155193187Y-65533609D01*
X155193186Y-65533608D01*
X155193184Y-65533607D01*
X155193183Y-65533607D01*
X155159073Y-65524467D01*
X155065892Y-65499500D01*
X154934108Y-65499500D01*
X154865894Y-65517777D01*
X154806816Y-65533607D01*
X154806809Y-65533610D01*
X154692689Y-65599497D01*
X154692679Y-65599505D01*
X154599505Y-65692679D01*
X154599497Y-65692689D01*
X154533610Y-65806809D01*
X154533607Y-65806816D01*
X154511983Y-65887517D01*
X154499500Y-65934108D01*
X134615821Y-65934108D01*
X134730535Y-65657164D01*
X134810282Y-65359544D01*
X134850500Y-65054060D01*
X134850500Y-64745940D01*
X134814421Y-64471892D01*
X134810283Y-64440462D01*
X134810282Y-64440460D01*
X134810282Y-64440456D01*
X134783394Y-64340108D01*
X153899500Y-64340108D01*
X153899500Y-64471892D01*
X153924467Y-64565073D01*
X153933607Y-64599183D01*
X153933610Y-64599190D01*
X153999497Y-64713310D01*
X153999505Y-64713320D01*
X154092679Y-64806494D01*
X154092684Y-64806498D01*
X154092686Y-64806500D01*
X154206814Y-64872392D01*
X154334108Y-64906500D01*
X154334110Y-64906500D01*
X154465890Y-64906500D01*
X154465892Y-64906500D01*
X154593186Y-64872392D01*
X154707314Y-64806500D01*
X154800500Y-64713314D01*
X154866392Y-64599186D01*
X154900500Y-64471892D01*
X154900500Y-64340108D01*
X158899500Y-64340108D01*
X158899500Y-64471892D01*
X158924467Y-64565073D01*
X158933607Y-64599183D01*
X158933610Y-64599190D01*
X158999497Y-64713310D01*
X158999505Y-64713320D01*
X159092679Y-64806494D01*
X159092684Y-64806498D01*
X159092686Y-64806500D01*
X159206814Y-64872392D01*
X159334108Y-64906500D01*
X159334110Y-64906500D01*
X159465890Y-64906500D01*
X159465892Y-64906500D01*
X159593186Y-64872392D01*
X159707314Y-64806500D01*
X159800500Y-64713314D01*
X159866392Y-64599186D01*
X159900500Y-64471892D01*
X159900500Y-64340108D01*
X159866392Y-64212814D01*
X159800500Y-64098686D01*
X159800498Y-64098684D01*
X159800494Y-64098679D01*
X159707320Y-64005505D01*
X159707310Y-64005497D01*
X159593190Y-63939610D01*
X159593187Y-63939609D01*
X159593186Y-63939608D01*
X159593184Y-63939607D01*
X159593183Y-63939607D01*
X159559073Y-63930467D01*
X159465892Y-63905500D01*
X159334108Y-63905500D01*
X159265894Y-63923777D01*
X159206816Y-63939607D01*
X159206809Y-63939610D01*
X159092689Y-64005497D01*
X159092679Y-64005505D01*
X158999505Y-64098679D01*
X158999497Y-64098689D01*
X158933610Y-64212809D01*
X158933608Y-64212814D01*
X158899500Y-64340108D01*
X154900500Y-64340108D01*
X154866392Y-64212814D01*
X154800500Y-64098686D01*
X154800498Y-64098684D01*
X154800494Y-64098679D01*
X154707320Y-64005505D01*
X154707310Y-64005497D01*
X154593190Y-63939610D01*
X154593187Y-63939609D01*
X154593186Y-63939608D01*
X154593184Y-63939607D01*
X154593183Y-63939607D01*
X154559073Y-63930467D01*
X154465892Y-63905500D01*
X154334108Y-63905500D01*
X154265894Y-63923777D01*
X154206816Y-63939607D01*
X154206809Y-63939610D01*
X154092689Y-64005497D01*
X154092679Y-64005505D01*
X153999505Y-64098679D01*
X153999497Y-64098689D01*
X153933610Y-64212809D01*
X153933608Y-64212814D01*
X153899500Y-64340108D01*
X134783394Y-64340108D01*
X134730535Y-64142836D01*
X134612622Y-63858170D01*
X134612616Y-63858161D01*
X134612615Y-63858157D01*
X134458559Y-63591324D01*
X134270995Y-63346888D01*
X134270993Y-63346886D01*
X134270991Y-63346883D01*
X134270985Y-63346877D01*
X134270976Y-63346867D01*
X134139704Y-63215595D01*
X134105678Y-63153283D01*
X134110743Y-63082468D01*
X134153290Y-63025632D01*
X134219810Y-63000821D01*
X134228799Y-63000500D01*
X169534108Y-63000500D01*
X169595879Y-63000500D01*
X169604119Y-63000770D01*
G37*
%TD.AperFunction*%
%TD*%
M02*
