%TF.GenerationSoftware,KiCad,Pcbnew,9.0.7*%
%TF.CreationDate,2026-03-15T18:36:40-05:00*%
%TF.ProjectId,Smart_MoCo,536d6172-745f-44d6-9f43-6f2e6b696361,rev?*%
%TF.SameCoordinates,Original*%
%TF.FileFunction,Paste,Bot*%
%TF.FilePolarity,Positive*%
%FSLAX46Y46*%
G04 Gerber Fmt 4.6, Leading zero omitted, Abs format (unit mm)*
G04 Created by KiCad (PCBNEW 9.0.7) date 2026-03-15 18:36:40*
%MOMM*%
%LPD*%
G01*
G04 APERTURE LIST*
G04 Aperture macros list*
%AMRoundRect*
0 Rectangle with rounded corners*
0 $1 Rounding radius*
0 $2 $3 $4 $5 $6 $7 $8 $9 X,Y pos of 4 corners*
0 Add a 4 corners polygon primitive as box body*
4,1,4,$2,$3,$4,$5,$6,$7,$8,$9,$2,$3,0*
0 Add four circle primitives for the rounded corners*
1,1,$1+$1,$2,$3*
1,1,$1+$1,$4,$5*
1,1,$1+$1,$6,$7*
1,1,$1+$1,$8,$9*
0 Add four rect primitives between the rounded corners*
20,1,$1+$1,$2,$3,$4,$5,0*
20,1,$1+$1,$4,$5,$6,$7,0*
20,1,$1+$1,$6,$7,$8,$9,0*
20,1,$1+$1,$8,$9,$2,$3,0*%
G04 Aperture macros list end*
%ADD10RoundRect,0.150000X0.150000X-0.825000X0.150000X0.825000X-0.150000X0.825000X-0.150000X-0.825000X0*%
%ADD11RoundRect,0.100000X-0.637500X-0.100000X0.637500X-0.100000X0.637500X0.100000X-0.637500X0.100000X0*%
%ADD12RoundRect,0.237500X0.250000X0.237500X-0.250000X0.237500X-0.250000X-0.237500X0.250000X-0.237500X0*%
%ADD13RoundRect,0.237500X-0.237500X0.250000X-0.237500X-0.250000X0.237500X-0.250000X0.237500X0.250000X0*%
%ADD14RoundRect,0.237500X0.237500X-0.300000X0.237500X0.300000X-0.237500X0.300000X-0.237500X-0.300000X0*%
%ADD15RoundRect,0.250001X0.462499X0.849999X-0.462499X0.849999X-0.462499X-0.849999X0.462499X-0.849999X0*%
%ADD16RoundRect,0.150000X0.825000X0.150000X-0.825000X0.150000X-0.825000X-0.150000X0.825000X-0.150000X0*%
%ADD17RoundRect,0.237500X-0.250000X-0.237500X0.250000X-0.237500X0.250000X0.237500X-0.250000X0.237500X0*%
%ADD18R,0.660000X1.350000*%
%ADD19R,10.300000X5.250000*%
%ADD20R,6.230000X5.250000*%
%ADD21RoundRect,0.237500X-0.300000X-0.237500X0.300000X-0.237500X0.300000X0.237500X-0.300000X0.237500X0*%
%ADD22RoundRect,0.150000X-0.512500X-0.150000X0.512500X-0.150000X0.512500X0.150000X-0.512500X0.150000X0*%
G04 APERTURE END LIST*
D10*
%TO.C,U3*%
X168945000Y-90950000D03*
X167675000Y-90950000D03*
X166405000Y-90950000D03*
X165135000Y-90950000D03*
X165135000Y-86000000D03*
X166405000Y-86000000D03*
X167675000Y-86000000D03*
X168945000Y-86000000D03*
%TD*%
D11*
%TO.C,U1*%
X153657552Y-91900000D03*
X153657552Y-91250000D03*
X153657552Y-90600000D03*
X153657552Y-89950000D03*
X153657552Y-89300000D03*
X153657552Y-88650000D03*
X153657552Y-88000000D03*
X153657552Y-87350000D03*
X153657552Y-86700000D03*
X153657552Y-86050000D03*
X159382552Y-86050000D03*
X159382552Y-86700000D03*
X159382552Y-87350000D03*
X159382552Y-88000000D03*
X159382552Y-88650000D03*
X159382552Y-89300000D03*
X159382552Y-89950000D03*
X159382552Y-90600000D03*
X159382552Y-91250000D03*
X159382552Y-91900000D03*
%TD*%
D12*
%TO.C,R7*%
X167746000Y-70825500D03*
X165921000Y-70825500D03*
%TD*%
D13*
%TO.C,R10*%
X141000000Y-92175000D03*
X141000000Y-94000000D03*
%TD*%
D14*
%TO.C,C4*%
X164000000Y-77000000D03*
X164000000Y-75275000D03*
%TD*%
D15*
%TO.C,L1*%
X168019500Y-77429500D03*
X165694500Y-77429500D03*
%TD*%
D16*
%TO.C,U5*%
X142000000Y-77190000D03*
X142000000Y-78460000D03*
X142000000Y-79730000D03*
X142000000Y-81000000D03*
X137050000Y-81000000D03*
X137050000Y-79730000D03*
X137050000Y-78460000D03*
X137050000Y-77190000D03*
%TD*%
D12*
%TO.C,R9*%
X141825000Y-90500000D03*
X140000000Y-90500000D03*
%TD*%
D17*
%TO.C,R1*%
X149675000Y-88200000D03*
X151500000Y-88200000D03*
%TD*%
D13*
%TO.C,R6*%
X170000000Y-70825500D03*
X170000000Y-72650500D03*
%TD*%
%TO.C,R12*%
X143500000Y-90175000D03*
X143500000Y-92000000D03*
%TD*%
D18*
%TO.C,U2*%
X159400000Y-82656000D03*
X158400000Y-82656000D03*
X157400000Y-82656000D03*
X156400000Y-82656000D03*
X155400000Y-82656000D03*
X154400000Y-82656000D03*
X153400000Y-82656000D03*
X152400000Y-82656000D03*
X151400000Y-82656000D03*
X150400000Y-82656000D03*
X149400000Y-82656000D03*
X148400000Y-82656000D03*
X147400000Y-82656000D03*
X146400000Y-82656000D03*
X145400000Y-82656000D03*
X145400000Y-64406000D03*
X146400000Y-64406000D03*
X147400000Y-64406000D03*
X148400000Y-64406000D03*
X149400000Y-64406000D03*
X150400000Y-64406000D03*
X151400000Y-64406000D03*
X152400000Y-64406000D03*
X153400000Y-64406000D03*
X154400000Y-64406000D03*
X155400000Y-64406000D03*
X156400000Y-64406000D03*
X157400000Y-64406000D03*
X158400000Y-64406000D03*
X159400000Y-64406000D03*
D19*
X152400000Y-76581000D03*
D20*
X148235000Y-70481000D03*
X156565000Y-70481000D03*
%TD*%
D21*
%TO.C,C11*%
X164437500Y-93200000D03*
X166162500Y-93200000D03*
%TD*%
D17*
%TO.C,R4*%
X149675000Y-86700000D03*
X151500000Y-86700000D03*
%TD*%
D14*
%TO.C,C5*%
X162500000Y-77000000D03*
X162500000Y-75275000D03*
%TD*%
D21*
%TO.C,C1*%
X149675000Y-89700000D03*
X151400000Y-89700000D03*
%TD*%
D22*
%TO.C,U4*%
X165725000Y-74762500D03*
X165725000Y-73812500D03*
X165725000Y-72862500D03*
X168000000Y-72862500D03*
X168000000Y-73812500D03*
X168000000Y-74762500D03*
%TD*%
D13*
%TO.C,R11*%
X146000000Y-90175000D03*
X146000000Y-92000000D03*
%TD*%
D12*
%TO.C,R5*%
X167857500Y-84000000D03*
X166032500Y-84000000D03*
%TD*%
D13*
%TO.C,R8*%
X138000000Y-90675000D03*
X138000000Y-92500000D03*
%TD*%
D14*
%TO.C,C3*%
X170000000Y-76641000D03*
X170000000Y-74916000D03*
%TD*%
M02*
