%TF.GenerationSoftware,KiCad,Pcbnew,9.0.7-9.0.7~ubuntu24.04.1*%
%TF.CreationDate,2026-03-15T04:49:07-05:00*%
%TF.ProjectId,Smart_MoCo,536d6172-745f-44d6-9f43-6f2e6b696361,rev?*%
%TF.SameCoordinates,Original*%
%TF.FileFunction,Copper,L1,Top*%
%TF.FilePolarity,Positive*%
%FSLAX46Y46*%
G04 Gerber Fmt 4.6, Leading zero omitted, Abs format (unit mm)*
G04 Created by KiCad (PCBNEW 9.0.7-9.0.7~ubuntu24.04.1) date 2026-03-15 04:49:07*
%MOMM*%
%LPD*%
G01*
G04 APERTURE LIST*
G04 Aperture macros list*
%AMRoundRect*
0 Rectangle with rounded corners*
0 $1 Rounding radius*
0 $2 $3 $4 $5 $6 $7 $8 $9 X,Y pos of 4 corners*
0 Add a 4 corners polygon primitive as box body*
4,1,4,$2,$3,$4,$5,$6,$7,$8,$9,$2,$3,0*
0 Add four circle primitives for the rounded corners*
1,1,$1+$1,$2,$3*
1,1,$1+$1,$4,$5*
1,1,$1+$1,$6,$7*
1,1,$1+$1,$8,$9*
0 Add four rect primitives between the rounded corners*
20,1,$1+$1,$2,$3,$4,$5,0*
20,1,$1+$1,$4,$5,$6,$7,0*
20,1,$1+$1,$6,$7,$8,$9,0*
20,1,$1+$1,$8,$9,$2,$3,0*%
G04 Aperture macros list end*
%TA.AperFunction,SMDPad,CuDef*%
%ADD10RoundRect,0.155000X-0.155000X0.212500X-0.155000X-0.212500X0.155000X-0.212500X0.155000X0.212500X0*%
%TD*%
%TA.AperFunction,SMDPad,CuDef*%
%ADD11R,1.143000X0.990600*%
%TD*%
%TA.AperFunction,SMDPad,CuDef*%
%ADD12RoundRect,0.237500X0.237500X-0.250000X0.237500X0.250000X-0.237500X0.250000X-0.237500X-0.250000X0*%
%TD*%
%TA.AperFunction,ComponentPad*%
%ADD13C,1.574800*%
%TD*%
%TA.AperFunction,ComponentPad*%
%ADD14C,2.260600*%
%TD*%
%TA.AperFunction,SMDPad,CuDef*%
%ADD15RoundRect,0.237500X0.237500X-0.287500X0.237500X0.287500X-0.237500X0.287500X-0.237500X-0.287500X0*%
%TD*%
%TA.AperFunction,ComponentPad*%
%ADD16RoundRect,0.250000X0.725000X-0.600000X0.725000X0.600000X-0.725000X0.600000X-0.725000X-0.600000X0*%
%TD*%
%TA.AperFunction,ComponentPad*%
%ADD17O,1.950000X1.700000*%
%TD*%
%TA.AperFunction,SMDPad,CuDef*%
%ADD18RoundRect,0.237500X-0.237500X0.250000X-0.237500X-0.250000X0.237500X-0.250000X0.237500X0.250000X0*%
%TD*%
%TA.AperFunction,ComponentPad*%
%ADD19C,1.600000*%
%TD*%
%TA.AperFunction,ComponentPad*%
%ADD20RoundRect,0.250000X0.750000X-0.600000X0.750000X0.600000X-0.750000X0.600000X-0.750000X-0.600000X0*%
%TD*%
%TA.AperFunction,ComponentPad*%
%ADD21O,2.000000X1.700000*%
%TD*%
%TA.AperFunction,ComponentPad*%
%ADD22R,1.700000X1.700000*%
%TD*%
%TA.AperFunction,ComponentPad*%
%ADD23C,1.700000*%
%TD*%
%TA.AperFunction,ViaPad*%
%ADD24C,0.600000*%
%TD*%
%TA.AperFunction,Conductor*%
%ADD25C,0.250000*%
%TD*%
G04 APERTURE END LIST*
D10*
%TO.P,C7,1*%
%TO.N,+3V3*%
X155000000Y-89436000D03*
%TO.P,C7,2*%
%TO.N,GND*%
X155000000Y-90571000D03*
%TD*%
D11*
%TO.P,D1,1,RA*%
%TO.N,Net-(D1-RA)*%
X138129800Y-92550000D03*
%TO.P,D1,2,GA*%
%TO.N,Net-(D1-GA)*%
X141000000Y-92550000D03*
%TO.P,D1,3,BA*%
%TO.N,Net-(D1-BA)*%
X141000000Y-94000000D03*
%TO.P,D1,4,K*%
%TO.N,GND*%
X138129800Y-94000000D03*
%TD*%
D12*
%TO.P,R2,1*%
%TO.N,Net-(U2-EN{slash}DIAGA)*%
X155400000Y-80911500D03*
%TO.P,R2,2*%
%TO.N,+3V3*%
X155400000Y-79086500D03*
%TD*%
D13*
%TO.P,J6,1,1*%
%TO.N,/OUTA*%
X141500000Y-71499999D03*
%TO.P,J6,2,2*%
%TO.N,/OUTB*%
X141500000Y-75000001D03*
D14*
%TO.P,J6,MP*%
%TO.N,N/C*%
X133589932Y-69000000D03*
X133589932Y-77499998D03*
%TD*%
D15*
%TO.P,D3,1,K*%
%TO.N,GND*%
X146000000Y-94000000D03*
%TO.P,D3,2,A*%
%TO.N,Net-(D3-A)*%
X146000000Y-92250000D03*
%TD*%
D10*
%TO.P,C10,1*%
%TO.N,+3V3*%
X158000000Y-89436000D03*
%TO.P,C10,2*%
%TO.N,GND*%
X158000000Y-90571000D03*
%TD*%
D15*
%TO.P,D2,1,K*%
%TO.N,GND*%
X143500000Y-94000000D03*
%TO.P,D2,2,A*%
%TO.N,Net-(D2-A)*%
X143500000Y-92250000D03*
%TD*%
D16*
%TO.P,J2,1,Pin_1*%
%TO.N,+3V3*%
X162500000Y-73000000D03*
D17*
%TO.P,J2,2,Pin_2*%
%TO.N,ENC_A{slash}PWM*%
X162500000Y-70500000D03*
%TO.P,J2,3,Pin_3*%
%TO.N,ENC_B*%
X162500000Y-68000000D03*
%TO.P,J2,4,Pin_4*%
%TO.N,GND*%
X162500000Y-65500000D03*
%TD*%
D13*
%TO.P,J5,1,1*%
%TO.N,+12V*%
X141500000Y-83000000D03*
%TO.P,J5,2,2*%
%TO.N,GND*%
X141500000Y-86500002D03*
D14*
%TO.P,J5,MP*%
%TO.N,N/C*%
X133589932Y-80500001D03*
X133589932Y-88999999D03*
%TD*%
D10*
%TO.P,C9,1*%
%TO.N,+3V3*%
X157000000Y-89432500D03*
%TO.P,C9,2*%
%TO.N,GND*%
X157000000Y-90567500D03*
%TD*%
D18*
%TO.P,R3,1*%
%TO.N,+3V3*%
X152500000Y-79087500D03*
%TO.P,R3,2*%
%TO.N,Net-(U2-EN{slash}DIAGB)*%
X152500000Y-80912500D03*
%TD*%
D19*
%TO.P,C2,1*%
%TO.N,+12V*%
X146500000Y-84500000D03*
%TO.P,C2,2*%
%TO.N,GND*%
X150000000Y-84500000D03*
%TD*%
D20*
%TO.P,J3,1,Pin_1*%
%TO.N,LIM_A*%
X162555000Y-81500000D03*
D21*
%TO.P,J3,2,Pin_2*%
%TO.N,LIM_B*%
X162555000Y-79000000D03*
%TD*%
D20*
%TO.P,J1,1,Pin_1*%
%TO.N,CANH*%
X162555000Y-90000000D03*
D21*
%TO.P,J1,2,Pin_2*%
%TO.N,CANL*%
X162555000Y-87500000D03*
%TD*%
D22*
%TO.P,J4,1,Pin_1*%
%TO.N,+3V3*%
X149880000Y-93500000D03*
D23*
%TO.P,J4,2,Pin_2*%
%TO.N,SWCLK*%
X152420000Y-93500000D03*
%TO.P,J4,3,Pin_3*%
%TO.N,SWDIO*%
X154960000Y-93500000D03*
%TO.P,J4,4,Pin_4*%
%TO.N,GND*%
X157500000Y-93500000D03*
%TD*%
D10*
%TO.P,C8,1*%
%TO.N,+3V3*%
X156000000Y-89436000D03*
%TO.P,C8,2*%
%TO.N,GND*%
X156000000Y-90571000D03*
%TD*%
%TO.P,C6,1*%
%TO.N,+3V3*%
X154000000Y-89436000D03*
%TO.P,C6,2*%
%TO.N,GND*%
X154000000Y-90571000D03*
%TD*%
D24*
%TO.N,GND*%
X149675000Y-89500000D03*
X151500000Y-86500000D03*
X149400000Y-64406000D03*
X167675000Y-90950000D03*
X143500000Y-94000000D03*
X161000000Y-89500000D03*
X158000000Y-90571000D03*
X156400000Y-64406000D03*
X146000000Y-94000000D03*
X154400000Y-82656000D03*
X157400000Y-64406000D03*
X147400000Y-64406000D03*
X165725000Y-74762500D03*
X155000000Y-90571000D03*
X155400000Y-64406000D03*
X138129800Y-94000000D03*
X148400000Y-64406000D03*
X165921000Y-70825500D03*
%TO.N,+3V3*%
X158000000Y-89436000D03*
X165694500Y-77429500D03*
X170000000Y-70825500D03*
X166405000Y-90950000D03*
X155000000Y-89436000D03*
X159000000Y-80500000D03*
%TO.N,+12V*%
X157000000Y-78000000D03*
X148000000Y-81000000D03*
X148000000Y-75000000D03*
X154000000Y-75000000D03*
X165725000Y-72862500D03*
X148000000Y-78000000D03*
X151000000Y-75000000D03*
X154000000Y-78000000D03*
X158000000Y-75000000D03*
X154000000Y-81000000D03*
X147400000Y-82656000D03*
X148400000Y-82656000D03*
X151000000Y-81000000D03*
X151000000Y-78000000D03*
X157000000Y-81000000D03*
%TO.N,Net-(U2-EN{slash}DIAGA)*%
X155400000Y-82656000D03*
%TO.N,Net-(U2-EN{slash}DIAGB)*%
X151400000Y-82600000D03*
%TO.N,ENC_A{slash}PWM*%
X159382552Y-86000000D03*
%TO.N,Net-(D1-GA)*%
X140000000Y-90500000D03*
%TO.N,IN_A*%
X146500000Y-88837500D03*
X156400000Y-82656000D03*
X157000000Y-88000000D03*
%TO.N,Net-(D2-A)*%
X143500000Y-92250000D03*
%TO.N,LED_R*%
X138000000Y-89500000D03*
X158000000Y-86725000D03*
%TO.N,Net-(D3-A)*%
X146000000Y-92250000D03*
%TO.N,IN_B*%
X144837500Y-88837500D03*
X155875000Y-87350000D03*
X150400000Y-82656000D03*
%TO.N,Net-(D1-RA)*%
X138129800Y-92550000D03*
%TO.N,PWM*%
X153657552Y-86000000D03*
X153400000Y-82656000D03*
%TO.N,/OUTA*%
X155000000Y-66000000D03*
X155000000Y-69000000D03*
X159000000Y-67500000D03*
X155000000Y-67500000D03*
X155000000Y-70500000D03*
X154400000Y-64406000D03*
X159000000Y-66000000D03*
X155000000Y-72000000D03*
X159000000Y-70500000D03*
X157000000Y-67500000D03*
X159000000Y-69000000D03*
X157000000Y-69000000D03*
X157000000Y-72000000D03*
X157000000Y-70500000D03*
X159400000Y-64406000D03*
X159000000Y-72000000D03*
X157000000Y-66000000D03*
%TO.N,Net-(D1-BA)*%
X141000000Y-94000000D03*
%TD*%
D25*
%TO.N,GND*%
X154000000Y-90567500D02*
X157996500Y-90567500D01*
%TO.N,+3V3*%
X159000000Y-80500000D02*
X159000000Y-80087501D01*
X157997071Y-79087500D02*
X152500000Y-79087500D01*
X154000000Y-89432500D02*
X157996500Y-89432500D01*
X158706249Y-79381251D02*
X158708319Y-79383321D01*
X158706249Y-79381251D02*
G75*
G03*
X157997071Y-79087512I-709149J-709149D01*
G01*
X158708319Y-79383321D02*
G75*
G02*
X158999988Y-80087501I-704219J-704179D01*
G01*
%TO.N,+12V*%
X164656245Y-73931243D02*
X165725000Y-72862500D01*
X162076050Y-74999987D02*
X158000022Y-74999987D01*
X164656245Y-73931243D02*
G75*
G02*
X162076050Y-75000016I-2580245J2580243D01*
G01*
%TO.N,Net-(U2-EN{slash}DIAGA)*%
X155364916Y-82596264D02*
X155365000Y-80911500D01*
X155382457Y-82638516D02*
X155400000Y-82656000D01*
X155364916Y-82596264D02*
G75*
G03*
X155382434Y-82638539I59684J-36D01*
G01*
%TO.N,Net-(U2-EN{slash}DIAGB)*%
X151400000Y-82600000D02*
X152396114Y-81603837D01*
X152499973Y-81353111D02*
X152499982Y-81206241D01*
X152499973Y-81353111D02*
G75*
G02*
X152396109Y-81603832I-354573J11D01*
G01*
%TO.N,ENC_A{slash}PWM*%
X159626000Y-85584408D02*
X159626000Y-80097564D01*
X162500000Y-70514338D02*
X162500000Y-70500000D01*
X158707106Y-73500000D02*
X158764338Y-73500000D01*
X159382552Y-86000000D02*
X159504276Y-85878276D01*
X160069144Y-72959531D02*
X162489861Y-70538814D01*
X157394106Y-76008808D02*
X158313000Y-76927702D01*
X157499999Y-73999999D02*
X157394106Y-74105893D01*
X158707106Y-73500000D02*
G75*
G03*
X157499998Y-73999998I-6J-1707100D01*
G01*
X157000000Y-75057351D02*
G75*
G03*
X157394074Y-76008840I1345600J-49D01*
G01*
X160069144Y-72959531D02*
G75*
G02*
X158764338Y-73500019I-1304844J1304831D01*
G01*
X159626000Y-85584408D02*
G75*
G02*
X159504274Y-85878274I-415600J8D01*
G01*
X162500000Y-70514338D02*
G75*
G02*
X162489839Y-70538792I-34600J38D01*
G01*
X158313000Y-76927702D02*
G75*
G02*
X159626014Y-80097564I-3169900J-3169898D01*
G01*
X157394106Y-74105893D02*
G75*
G03*
X157000046Y-75057351I951494J-951407D01*
G01*
%TO.N,Net-(D1-GA)*%
X140000000Y-90500000D02*
X140000000Y-91024997D01*
X140371228Y-91921225D02*
X141000000Y-92550000D01*
X140000000Y-91024997D02*
G75*
G03*
X140371239Y-91921214I1267400J-3D01*
G01*
%TO.N,IN_A*%
X157000000Y-83680264D02*
X157000000Y-88000000D01*
X156700000Y-82956000D02*
X156400000Y-82656000D01*
X147929701Y-88000000D02*
X157000000Y-88000000D01*
X146500000Y-88837500D02*
X146918750Y-88418750D01*
X156700000Y-82956000D02*
G75*
G02*
X157000015Y-83680264I-724300J-724300D01*
G01*
X147929701Y-88000000D02*
G75*
G03*
X146918749Y-88418749I-1J-1429700D01*
G01*
%TO.N,LED_R*%
X158000001Y-87552788D02*
X158000000Y-86725000D01*
X149171294Y-88632455D02*
X156920359Y-88632468D01*
X147076775Y-89500038D02*
X138000000Y-89500000D01*
X158000001Y-87552788D02*
G75*
G02*
X157683790Y-88316238I-1079701J-12D01*
G01*
X149171294Y-88632455D02*
G75*
G03*
X148124037Y-89066249I6J-1481045D01*
G01*
X147076775Y-89500038D02*
G75*
G03*
X148124046Y-89066258I25J1481038D01*
G01*
X156920359Y-88632468D02*
G75*
G03*
X157683817Y-88316265I41J1079668D01*
G01*
%TO.N,IN_B*%
X144837500Y-88837500D02*
X146043799Y-87631281D01*
X146131284Y-87543802D02*
X146043799Y-87631281D01*
X146043799Y-87631281D02*
X146131283Y-87543800D01*
X154560660Y-87350000D02*
X155875000Y-87350000D01*
X146206312Y-87468770D02*
X146131283Y-87543800D01*
X146493051Y-87350000D02*
X152439339Y-87350000D01*
X150400000Y-82656000D02*
X151436435Y-83692435D01*
X146131284Y-87543802D02*
X146175027Y-87500063D01*
X152750000Y-86600000D02*
X152563564Y-86413564D01*
X154560660Y-87350000D02*
X152439339Y-87350000D01*
X152439339Y-87350000D02*
G75*
G03*
X152749932Y-86600068I-39J439300D01*
G01*
X146493051Y-87350000D02*
G75*
G03*
X146206289Y-87468747I-51J-405500D01*
G01*
X146131283Y-87543800D02*
X146131284Y-87543802D01*
X152750000Y-86600000D02*
G75*
G03*
X154560660Y-87350016I1810700J1810700D01*
G01*
X152000000Y-85053000D02*
G75*
G03*
X152563570Y-86413558I1924100J0D01*
G01*
X151436435Y-83692435D02*
G75*
G02*
X152000008Y-85053000I-1360535J-1360565D01*
G01*
%TO.N,PWM*%
X153400042Y-85560317D02*
X153400000Y-82656000D01*
X153528798Y-85871213D02*
X153657552Y-86000000D01*
X153400042Y-85560317D02*
G75*
G03*
X153528800Y-85871211I439758J17D01*
G01*
%TD*%
%TA.AperFunction,Conductor*%
%TO.N,PWM*%
G36*
X153657829Y-82707161D02*
G01*
X153681478Y-82711946D01*
X153688907Y-82716946D01*
X153690626Y-82725734D01*
X153690315Y-82726938D01*
X153527590Y-83242058D01*
X153521830Y-83248915D01*
X153516433Y-83250234D01*
X153283582Y-83250236D01*
X153275309Y-83246809D01*
X153272426Y-83242061D01*
X153109685Y-82726939D01*
X153110460Y-82718017D01*
X153117316Y-82712258D01*
X153118518Y-82711946D01*
X153397682Y-82655470D01*
X153402318Y-82655470D01*
X153657829Y-82707161D01*
G37*
%TD.AperFunction*%
%TD*%
%TA.AperFunction,Conductor*%
%TO.N,IN_B*%
G36*
X145175377Y-88334997D02*
G01*
X145257709Y-88417334D01*
X145340024Y-88499655D01*
X145343451Y-88507927D01*
X145342132Y-88513324D01*
X145092944Y-88992623D01*
X145086087Y-88998383D01*
X145077166Y-88997607D01*
X145076095Y-88996975D01*
X144838765Y-88839515D01*
X144835484Y-88836234D01*
X144678024Y-88598904D01*
X144676305Y-88590116D01*
X144681305Y-88582687D01*
X144682361Y-88582064D01*
X145161709Y-88332888D01*
X145170629Y-88332114D01*
X145175377Y-88334997D01*
G37*
%TD.AperFunction*%
%TD*%
%TA.AperFunction,Conductor*%
%TO.N,+3V3*%
G36*
X154992353Y-89322664D02*
G01*
X154994236Y-89329029D01*
X154994236Y-89542970D01*
X154990809Y-89551243D01*
X154982536Y-89554670D01*
X154980041Y-89554401D01*
X154733176Y-89500511D01*
X154725824Y-89495398D01*
X154724240Y-89486585D01*
X154729304Y-89479264D01*
X154976171Y-89319211D01*
X154984977Y-89317587D01*
X154992353Y-89322664D01*
G37*
%TD.AperFunction*%
%TD*%
%TA.AperFunction,Conductor*%
%TO.N,GND*%
G36*
X154279825Y-90263749D02*
G01*
X154613742Y-90439212D01*
X154619472Y-90446093D01*
X154620000Y-90449568D01*
X154620000Y-90685521D01*
X154616573Y-90693794D01*
X154613858Y-90695816D01*
X154281860Y-90875060D01*
X154272952Y-90875975D01*
X154267566Y-90872547D01*
X154107211Y-90692500D01*
X154005870Y-90578713D01*
X154002927Y-90570255D01*
X154005802Y-90563227D01*
X154265581Y-90266401D01*
X154273607Y-90262433D01*
X154279825Y-90263749D01*
G37*
%TD.AperFunction*%
%TD*%
%TA.AperFunction,Conductor*%
%TO.N,+3V3*%
G36*
X154279825Y-89128749D02*
G01*
X154613742Y-89304212D01*
X154619472Y-89311093D01*
X154620000Y-89314568D01*
X154620000Y-89550521D01*
X154616573Y-89558794D01*
X154613858Y-89560816D01*
X154281860Y-89740060D01*
X154272952Y-89740975D01*
X154267566Y-89737547D01*
X154107211Y-89557500D01*
X154005870Y-89443713D01*
X154002927Y-89435255D01*
X154005802Y-89428227D01*
X154265581Y-89131401D01*
X154273607Y-89127433D01*
X154279825Y-89128749D01*
G37*
%TD.AperFunction*%
%TD*%
%TA.AperFunction,Conductor*%
%TO.N,+3V3*%
G36*
X157734418Y-89131402D02*
G01*
X157994196Y-89428226D01*
X157997066Y-89436708D01*
X157994129Y-89443713D01*
X157732433Y-89737547D01*
X157724372Y-89741445D01*
X157718138Y-89740060D01*
X157386142Y-89560816D01*
X157380490Y-89553870D01*
X157380000Y-89550521D01*
X157380000Y-89314568D01*
X157383427Y-89306295D01*
X157386255Y-89304213D01*
X157720173Y-89128749D01*
X157729089Y-89127935D01*
X157734418Y-89131402D01*
G37*
%TD.AperFunction*%
%TD*%
%TA.AperFunction,Conductor*%
%TO.N,IN_A*%
G36*
X157124699Y-87409191D02*
G01*
X157127583Y-87413940D01*
X157290315Y-87929062D01*
X157289539Y-87937983D01*
X157282682Y-87943743D01*
X157281478Y-87944054D01*
X157002320Y-88000530D01*
X156997680Y-88000530D01*
X156764553Y-87953366D01*
X156718520Y-87944053D01*
X156711092Y-87939054D01*
X156709373Y-87930266D01*
X156709680Y-87929075D01*
X156872417Y-87413939D01*
X156878177Y-87407083D01*
X156883574Y-87405764D01*
X157116426Y-87405764D01*
X157124699Y-87409191D01*
G37*
%TD.AperFunction*%
%TD*%
%TA.AperFunction,Conductor*%
%TO.N,LED_R*%
G36*
X158257829Y-86776161D02*
G01*
X158281478Y-86780946D01*
X158288907Y-86785946D01*
X158290626Y-86794734D01*
X158290315Y-86795938D01*
X158127582Y-87311059D01*
X158121822Y-87317916D01*
X158116425Y-87319235D01*
X157883575Y-87319235D01*
X157875302Y-87315808D01*
X157872418Y-87311060D01*
X157872418Y-87311059D01*
X157709684Y-86795936D01*
X157710460Y-86787017D01*
X157717316Y-86781257D01*
X157718517Y-86780946D01*
X157997682Y-86724470D01*
X158002318Y-86724470D01*
X158257829Y-86776161D01*
G37*
%TD.AperFunction*%
%TD*%
%TA.AperFunction,Conductor*%
%TO.N,IN_B*%
G36*
X155812983Y-87060460D02*
G01*
X155818743Y-87067317D01*
X155819054Y-87068521D01*
X155875530Y-87347680D01*
X155875530Y-87352320D01*
X155819054Y-87631478D01*
X155814054Y-87638907D01*
X155805266Y-87640626D01*
X155804062Y-87640315D01*
X155288940Y-87477582D01*
X155282083Y-87471822D01*
X155280764Y-87466425D01*
X155280764Y-87233574D01*
X155284191Y-87225301D01*
X155288940Y-87222417D01*
X155804063Y-87059684D01*
X155812983Y-87060460D01*
G37*
%TD.AperFunction*%
%TD*%
%TA.AperFunction,Conductor*%
%TO.N,IN_A*%
G36*
X146837922Y-88335164D02*
G01*
X146999801Y-88502567D01*
X147003088Y-88510896D01*
X147001783Y-88516073D01*
X146755431Y-88992582D01*
X146748588Y-88998358D01*
X146739665Y-88997602D01*
X146738570Y-88996958D01*
X146501254Y-88839503D01*
X146497973Y-88836222D01*
X146340524Y-88598904D01*
X146338805Y-88590116D01*
X146343805Y-88582687D01*
X146344859Y-88582064D01*
X146824117Y-88332915D01*
X146833035Y-88332140D01*
X146837922Y-88335164D01*
G37*
%TD.AperFunction*%
%TD*%
%TA.AperFunction,Conductor*%
%TO.N,+3V3*%
G36*
X157938028Y-89146416D02*
G01*
X157943747Y-89153307D01*
X157944038Y-89154445D01*
X158000530Y-89433680D01*
X158000530Y-89438320D01*
X157944069Y-89717402D01*
X157939069Y-89724831D01*
X157930281Y-89726550D01*
X157929010Y-89726217D01*
X157413873Y-89560114D01*
X157407051Y-89554314D01*
X157405764Y-89548979D01*
X157405764Y-89316127D01*
X157409191Y-89307854D01*
X157414006Y-89304950D01*
X157900484Y-89154445D01*
X157929112Y-89145588D01*
X157938028Y-89146416D01*
G37*
%TD.AperFunction*%
%TD*%
%TA.AperFunction,Conductor*%
%TO.N,IN_B*%
G36*
X150654812Y-82499805D02*
G01*
X150655444Y-82500876D01*
X150904621Y-82980191D01*
X150905397Y-82989112D01*
X150902513Y-82993861D01*
X150737861Y-83158513D01*
X150729588Y-83161940D01*
X150724191Y-83160621D01*
X150244876Y-82911444D01*
X150239116Y-82904587D01*
X150239892Y-82895666D01*
X150240516Y-82894607D01*
X150397985Y-82657263D01*
X150401263Y-82653985D01*
X150638596Y-82496523D01*
X150647383Y-82494805D01*
X150654812Y-82499805D01*
G37*
%TD.AperFunction*%
%TD*%
%TA.AperFunction,Conductor*%
%TO.N,GND*%
G36*
X157734418Y-90266402D02*
G01*
X157994196Y-90563226D01*
X157997066Y-90571708D01*
X157994129Y-90578713D01*
X157732433Y-90872547D01*
X157724372Y-90876445D01*
X157718138Y-90875060D01*
X157386142Y-90695816D01*
X157380490Y-90688870D01*
X157380000Y-90685521D01*
X157380000Y-90449568D01*
X157383427Y-90441295D01*
X157386255Y-90439213D01*
X157720173Y-90263749D01*
X157729089Y-90262935D01*
X157734418Y-90266402D01*
G37*
%TD.AperFunction*%
%TD*%
%TA.AperFunction,Conductor*%
%TO.N,+3V3*%
G36*
X159119435Y-79968943D02*
G01*
X159123926Y-79974661D01*
X159289573Y-80428693D01*
X159289190Y-80437640D01*
X159282592Y-80443694D01*
X159280903Y-80444171D01*
X159002512Y-80500510D01*
X158997873Y-80500510D01*
X158719481Y-80444245D01*
X158712051Y-80439247D01*
X158710331Y-80430459D01*
X158710923Y-80428464D01*
X158872945Y-80019928D01*
X158879181Y-80013502D01*
X158881533Y-80012768D01*
X159110654Y-79967196D01*
X159119435Y-79968943D01*
G37*
%TD.AperFunction*%
%TD*%
%TA.AperFunction,Conductor*%
%TO.N,Net-(D1-GA)*%
G36*
X140301375Y-91634049D02*
G01*
X141202588Y-92049932D01*
X141208664Y-92056510D01*
X141208441Y-92065160D01*
X141002869Y-92545249D01*
X140996463Y-92551506D01*
X140994440Y-92552110D01*
X140438190Y-92664970D01*
X140429401Y-92663257D01*
X140424946Y-92657709D01*
X140193388Y-92056510D01*
X140077262Y-91755010D01*
X140077486Y-91746059D01*
X140082865Y-91740383D01*
X140291162Y-91634246D01*
X140300088Y-91633545D01*
X140301375Y-91634049D01*
G37*
%TD.AperFunction*%
%TD*%
%TA.AperFunction,Conductor*%
%TO.N,LED_R*%
G36*
X138070938Y-89209685D02*
G01*
X138586060Y-89372420D01*
X138592916Y-89378180D01*
X138594235Y-89383577D01*
X138594235Y-89616427D01*
X138590808Y-89624700D01*
X138586059Y-89627584D01*
X138070938Y-89790315D01*
X138062017Y-89789539D01*
X138056257Y-89782682D01*
X138055946Y-89781478D01*
X138024290Y-89625002D01*
X137999470Y-89502318D01*
X137999470Y-89497680D01*
X138022554Y-89383577D01*
X138055946Y-89218519D01*
X138060945Y-89211093D01*
X138069733Y-89209374D01*
X138070938Y-89209685D01*
G37*
%TD.AperFunction*%
%TD*%
%TA.AperFunction,Conductor*%
%TO.N,Net-(U2-EN{slash}DIAGA)*%
G36*
X155407007Y-80915744D02*
G01*
X155614493Y-81070993D01*
X155848522Y-81246103D01*
X155853094Y-81253803D01*
X155851588Y-81261419D01*
X155493347Y-81868253D01*
X155486191Y-81873635D01*
X155483271Y-81874005D01*
X155247330Y-81873993D01*
X155239057Y-81870566D01*
X155236773Y-81867335D01*
X154947213Y-81261044D01*
X154946741Y-81252104D01*
X154950760Y-81246639D01*
X155392991Y-80915744D01*
X155401668Y-80913532D01*
X155407007Y-80915744D01*
G37*
%TD.AperFunction*%
%TD*%
%TA.AperFunction,Conductor*%
%TO.N,ENC_A{slash}PWM*%
G36*
X162493907Y-70498122D02*
G01*
X162501478Y-70502902D01*
X162502972Y-70505809D01*
X162787033Y-71322758D01*
X162786513Y-71331698D01*
X162779967Y-71337601D01*
X161356689Y-71853224D01*
X161347744Y-71852820D01*
X161344431Y-71850497D01*
X161177723Y-71683789D01*
X161174296Y-71675516D01*
X161174712Y-71672425D01*
X161266439Y-71337601D01*
X161538528Y-70344410D01*
X161544018Y-70337338D01*
X161551793Y-70335973D01*
X162493907Y-70498122D01*
G37*
%TD.AperFunction*%
%TD*%
%TA.AperFunction,Conductor*%
%TO.N,ENC_A{slash}PWM*%
G36*
X159745964Y-85487807D02*
G01*
X159749391Y-85496080D01*
X159749294Y-85497580D01*
X159678387Y-86046149D01*
X159673928Y-86053914D01*
X159665284Y-86056252D01*
X159664539Y-86056132D01*
X159387342Y-86001936D01*
X159379880Y-85996985D01*
X159379847Y-85996935D01*
X159221379Y-85758820D01*
X159219648Y-85750034D01*
X159223133Y-85743787D01*
X159497628Y-85487527D01*
X159505612Y-85484380D01*
X159737691Y-85484380D01*
X159745964Y-85487807D01*
G37*
%TD.AperFunction*%
%TD*%
%TA.AperFunction,Conductor*%
%TO.N,+3V3*%
G36*
X152837589Y-78623177D02*
G01*
X153443971Y-78959159D01*
X153449546Y-78966165D01*
X153450000Y-78969392D01*
X153450000Y-79205607D01*
X153446573Y-79213880D01*
X153443970Y-79215841D01*
X152837590Y-79551821D01*
X152828693Y-79552833D01*
X152822343Y-79548307D01*
X152503715Y-79094220D01*
X152501768Y-79085480D01*
X152503715Y-79080780D01*
X152822343Y-78626692D01*
X152829900Y-78621888D01*
X152837589Y-78623177D01*
G37*
%TD.AperFunction*%
%TD*%
%TA.AperFunction,Conductor*%
%TO.N,IN_A*%
G36*
X156654431Y-82500059D02*
G01*
X156655241Y-82501490D01*
X156869226Y-82950128D01*
X156869695Y-82959071D01*
X156865166Y-82964893D01*
X156671087Y-83094573D01*
X156662304Y-83096320D01*
X156659824Y-83095532D01*
X156245963Y-82911072D01*
X156239801Y-82904574D01*
X156240039Y-82895622D01*
X156240971Y-82893926D01*
X156398138Y-82657137D01*
X156401411Y-82653864D01*
X156638213Y-82496776D01*
X156647002Y-82495059D01*
X156654431Y-82500059D01*
G37*
%TD.AperFunction*%
%TD*%
%TA.AperFunction,Conductor*%
%TO.N,IN_A*%
G36*
X156937983Y-87710460D02*
G01*
X156943743Y-87717317D01*
X156944054Y-87718521D01*
X157000530Y-87997680D01*
X157000530Y-88002320D01*
X156944054Y-88281478D01*
X156939054Y-88288907D01*
X156930266Y-88290626D01*
X156929062Y-88290315D01*
X156413940Y-88127582D01*
X156407083Y-88121822D01*
X156405764Y-88116425D01*
X156405764Y-87883574D01*
X156409191Y-87875301D01*
X156413940Y-87872417D01*
X156929063Y-87709684D01*
X156937983Y-87710460D01*
G37*
%TD.AperFunction*%
%TD*%
%TA.AperFunction,Conductor*%
%TO.N,+12V*%
G36*
X165485333Y-72702392D02*
G01*
X165486400Y-72703021D01*
X165712419Y-72852977D01*
X165723734Y-72860484D01*
X165727015Y-72863765D01*
X165884475Y-73101095D01*
X165886194Y-73109883D01*
X165881194Y-73117312D01*
X165880123Y-73117944D01*
X165400805Y-73367119D01*
X165391883Y-73367895D01*
X165387135Y-73365011D01*
X165222484Y-73200358D01*
X165219057Y-73192085D01*
X165220374Y-73186692D01*
X165469556Y-72707374D01*
X165476412Y-72701616D01*
X165485333Y-72702392D01*
G37*
%TD.AperFunction*%
%TD*%
%TA.AperFunction,Conductor*%
%TO.N,GND*%
G36*
X157938028Y-90281416D02*
G01*
X157943747Y-90288307D01*
X157944038Y-90289445D01*
X158000530Y-90568680D01*
X158000530Y-90573320D01*
X157944069Y-90852402D01*
X157939069Y-90859831D01*
X157930281Y-90861550D01*
X157929010Y-90861217D01*
X157413873Y-90695114D01*
X157407051Y-90689314D01*
X157405764Y-90683979D01*
X157405764Y-90451127D01*
X157409191Y-90442854D01*
X157414006Y-90439950D01*
X157900484Y-90289445D01*
X157929112Y-90280588D01*
X157938028Y-90281416D01*
G37*
%TD.AperFunction*%
%TD*%
%TA.AperFunction,Conductor*%
%TO.N,Net-(U2-EN{slash}DIAGB)*%
G36*
X152507751Y-80920832D02*
G01*
X152847202Y-81356436D01*
X152849584Y-81365068D01*
X152845907Y-81372227D01*
X152318375Y-81858998D01*
X152309971Y-81862090D01*
X152302168Y-81858672D01*
X152135811Y-81692323D01*
X152132626Y-81686419D01*
X152123237Y-81641020D01*
X152044586Y-81260676D01*
X152046267Y-81251883D01*
X152049042Y-81248935D01*
X152491523Y-80918647D01*
X152500203Y-80916445D01*
X152507751Y-80920832D01*
G37*
%TD.AperFunction*%
%TD*%
%TA.AperFunction,Conductor*%
%TO.N,PWM*%
G36*
X153528347Y-85491766D02*
G01*
X153816504Y-85743807D01*
X153820475Y-85751834D01*
X153818541Y-85759096D01*
X153660256Y-85996934D01*
X153652820Y-86001923D01*
X153652761Y-86001935D01*
X153375259Y-86056191D01*
X153366482Y-86054415D01*
X153361531Y-86046953D01*
X153361452Y-86046500D01*
X153316915Y-85759096D01*
X153277131Y-85502365D01*
X153279251Y-85493666D01*
X153286901Y-85489013D01*
X153288682Y-85488875D01*
X153520644Y-85488873D01*
X153528347Y-85491766D01*
G37*
%TD.AperFunction*%
%TD*%
%TA.AperFunction,Conductor*%
%TO.N,GND*%
G36*
X154992353Y-90457664D02*
G01*
X154994236Y-90464029D01*
X154994236Y-90677970D01*
X154990809Y-90686243D01*
X154982536Y-90689670D01*
X154980041Y-90689401D01*
X154733176Y-90635511D01*
X154725824Y-90630398D01*
X154724240Y-90621585D01*
X154729304Y-90614264D01*
X154976171Y-90454211D01*
X154984977Y-90452587D01*
X154992353Y-90457664D01*
G37*
%TD.AperFunction*%
%TD*%
%TA.AperFunction,Conductor*%
%TO.N,Net-(U2-EN{slash}DIAGB)*%
G36*
X151737848Y-82097476D02*
G01*
X151902505Y-82262125D01*
X151905932Y-82270398D01*
X151904613Y-82275794D01*
X151655444Y-82755122D01*
X151648588Y-82760882D01*
X151639667Y-82760107D01*
X151638595Y-82759475D01*
X151401265Y-82602015D01*
X151397984Y-82598734D01*
X151240524Y-82361404D01*
X151238805Y-82352616D01*
X151243805Y-82345187D01*
X151244864Y-82344562D01*
X151724181Y-82095369D01*
X151733101Y-82094594D01*
X151737848Y-82097476D01*
G37*
%TD.AperFunction*%
%TD*%
%TA.AperFunction,Conductor*%
%TO.N,+12V*%
G36*
X158070929Y-74709681D02*
G01*
X158586060Y-74872404D01*
X158592917Y-74878164D01*
X158594236Y-74883561D01*
X158594236Y-75116413D01*
X158590809Y-75124686D01*
X158586061Y-75127569D01*
X158070939Y-75290314D01*
X158062018Y-75289539D01*
X158056258Y-75282683D01*
X158055946Y-75281478D01*
X158046108Y-75232850D01*
X157999469Y-75002318D01*
X157999469Y-74997680D01*
X158023649Y-74878164D01*
X158055946Y-74718520D01*
X158060946Y-74711092D01*
X158069734Y-74709373D01*
X158070929Y-74709681D01*
G37*
%TD.AperFunction*%
%TD*%
%TA.AperFunction,Conductor*%
%TO.N,Net-(D1-GA)*%
G36*
X140280906Y-90555830D02*
G01*
X140288335Y-90560830D01*
X140290054Y-90569618D01*
X140289579Y-90571304D01*
X140127736Y-91015370D01*
X140121683Y-91021970D01*
X140116937Y-91023062D01*
X139883376Y-91026926D01*
X139875047Y-91023637D01*
X139872178Y-91019203D01*
X139710371Y-90571280D01*
X139710783Y-90562335D01*
X139717400Y-90556301D01*
X139719042Y-90555840D01*
X139997666Y-90499470D01*
X140002302Y-90499470D01*
X140280906Y-90555830D01*
G37*
%TD.AperFunction*%
%TD*%
%TA.AperFunction,Conductor*%
%TO.N,Net-(U2-EN{slash}DIAGA)*%
G36*
X155481883Y-82061770D02*
G01*
X155490155Y-82065197D01*
X155492813Y-82069301D01*
X155689316Y-82584573D01*
X155689062Y-82593524D01*
X155682553Y-82599674D01*
X155680704Y-82600210D01*
X155402320Y-82656529D01*
X155397680Y-82656529D01*
X155117769Y-82599901D01*
X155110340Y-82594901D01*
X155108621Y-82586113D01*
X155108740Y-82585590D01*
X155108995Y-82584573D01*
X155237724Y-82070613D01*
X155243058Y-82063423D01*
X155249072Y-82061758D01*
X155481883Y-82061770D01*
G37*
%TD.AperFunction*%
%TD*%
M02*
