%TF.GenerationSoftware,KiCad,Pcbnew,9.0.7-9.0.7~ubuntu24.04.1*%
%TF.CreationDate,2026-03-15T04:49:07-05:00*%
%TF.ProjectId,Smart_MoCo,536d6172-745f-44d6-9f43-6f2e6b696361,rev?*%
%TF.SameCoordinates,Original*%
%TF.FileFunction,Soldermask,Bot*%
%TF.FilePolarity,Negative*%
%FSLAX46Y46*%
G04 Gerber Fmt 4.6, Leading zero omitted, Abs format (unit mm)*
G04 Created by KiCad (PCBNEW 9.0.7-9.0.7~ubuntu24.04.1) date 2026-03-15 04:49:07*
%MOMM*%
%LPD*%
G01*
G04 APERTURE LIST*
G04 Aperture macros list*
%AMRoundRect*
0 Rectangle with rounded corners*
0 $1 Rounding radius*
0 $2 $3 $4 $5 $6 $7 $8 $9 X,Y pos of 4 corners*
0 Add a 4 corners polygon primitive as box body*
4,1,4,$2,$3,$4,$5,$6,$7,$8,$9,$2,$3,0*
0 Add four circle primitives for the rounded corners*
1,1,$1+$1,$2,$3*
1,1,$1+$1,$4,$5*
1,1,$1+$1,$6,$7*
1,1,$1+$1,$8,$9*
0 Add four rect primitives between the rounded corners*
20,1,$1+$1,$2,$3,$4,$5,0*
20,1,$1+$1,$4,$5,$6,$7,0*
20,1,$1+$1,$6,$7,$8,$9,0*
20,1,$1+$1,$8,$9,$2,$3,0*%
G04 Aperture macros list end*
%ADD10C,3.098800*%
%ADD11C,1.574800*%
%ADD12C,2.260600*%
%ADD13C,2.946400*%
%ADD14RoundRect,0.250000X0.725000X-0.600000X0.725000X0.600000X-0.725000X0.600000X-0.725000X-0.600000X0*%
%ADD15O,1.950000X1.700000*%
%ADD16C,1.600000*%
%ADD17RoundRect,0.250000X0.750000X-0.600000X0.750000X0.600000X-0.750000X0.600000X-0.750000X-0.600000X0*%
%ADD18O,2.000000X1.700000*%
%ADD19R,1.700000X1.700000*%
%ADD20C,1.700000*%
%ADD21RoundRect,0.150000X0.150000X-0.825000X0.150000X0.825000X-0.150000X0.825000X-0.150000X-0.825000X0*%
%ADD22RoundRect,0.100000X-0.637500X-0.100000X0.637500X-0.100000X0.637500X0.100000X-0.637500X0.100000X0*%
%ADD23RoundRect,0.237500X0.250000X0.237500X-0.250000X0.237500X-0.250000X-0.237500X0.250000X-0.237500X0*%
%ADD24RoundRect,0.237500X-0.237500X0.250000X-0.237500X-0.250000X0.237500X-0.250000X0.237500X0.250000X0*%
%ADD25RoundRect,0.237500X0.237500X-0.300000X0.237500X0.300000X-0.237500X0.300000X-0.237500X-0.300000X0*%
%ADD26RoundRect,0.250001X0.462499X0.849999X-0.462499X0.849999X-0.462499X-0.849999X0.462499X-0.849999X0*%
%ADD27RoundRect,0.237500X-0.250000X-0.237500X0.250000X-0.237500X0.250000X0.237500X-0.250000X0.237500X0*%
%ADD28R,0.660000X1.350000*%
%ADD29R,10.300000X5.250000*%
%ADD30R,6.230000X5.250000*%
%ADD31RoundRect,0.237500X-0.300000X-0.237500X0.300000X-0.237500X0.300000X0.237500X-0.300000X0.237500X0*%
%ADD32RoundRect,0.150000X-0.512500X-0.150000X0.512500X-0.150000X0.512500X0.150000X-0.512500X0.150000X0*%
G04 APERTURE END LIST*
D10*
%TO.C,J6*%
X133590001Y-73249999D03*
D11*
X141500000Y-71499999D03*
X141500000Y-75000001D03*
D12*
X133589932Y-69000000D03*
X133589932Y-77499998D03*
%TD*%
D13*
%TO.C,H1*%
X133900000Y-93100000D03*
%TD*%
D14*
%TO.C,J2*%
X162500000Y-73000000D03*
D15*
X162500000Y-70500000D03*
X162500000Y-68000000D03*
X162500000Y-65500000D03*
%TD*%
D10*
%TO.C,J5*%
X133590001Y-84750000D03*
D11*
X141500000Y-83000000D03*
X141500000Y-86500002D03*
D12*
X133589932Y-80500001D03*
X133589932Y-88999999D03*
%TD*%
D13*
%TO.C,H2*%
X133900000Y-64900000D03*
%TD*%
D16*
%TO.C,C2*%
X146500000Y-84500000D03*
X150000000Y-84500000D03*
%TD*%
D17*
%TO.C,J3*%
X162555000Y-81500000D03*
D18*
X162555000Y-79000000D03*
%TD*%
D17*
%TO.C,J1*%
X162555000Y-90000000D03*
D18*
X162555000Y-87500000D03*
%TD*%
D19*
%TO.C,J4*%
X149880000Y-93500000D03*
D20*
X152420000Y-93500000D03*
X154960000Y-93500000D03*
X157500000Y-93500000D03*
%TD*%
D21*
%TO.C,U3*%
X168945000Y-90950000D03*
X167675000Y-90950000D03*
X166405000Y-90950000D03*
X165135000Y-90950000D03*
X165135000Y-86000000D03*
X166405000Y-86000000D03*
X167675000Y-86000000D03*
X168945000Y-86000000D03*
%TD*%
D22*
%TO.C,U1*%
X153657552Y-91900000D03*
X153657552Y-91250000D03*
X153657552Y-90600000D03*
X153657552Y-89950000D03*
X153657552Y-89300000D03*
X153657552Y-88650000D03*
X153657552Y-88000000D03*
X153657552Y-87350000D03*
X153657552Y-86700000D03*
X153657552Y-86050000D03*
X159382552Y-86050000D03*
X159382552Y-86700000D03*
X159382552Y-87350000D03*
X159382552Y-88000000D03*
X159382552Y-88650000D03*
X159382552Y-89300000D03*
X159382552Y-89950000D03*
X159382552Y-90600000D03*
X159382552Y-91250000D03*
X159382552Y-91900000D03*
%TD*%
D23*
%TO.C,R7*%
X167746000Y-70825500D03*
X165921000Y-70825500D03*
%TD*%
D24*
%TO.C,R10*%
X141000000Y-92175000D03*
X141000000Y-94000000D03*
%TD*%
D25*
%TO.C,C4*%
X164000000Y-77000000D03*
X164000000Y-75275000D03*
%TD*%
D26*
%TO.C,L1*%
X168019500Y-77429500D03*
X165694500Y-77429500D03*
%TD*%
D23*
%TO.C,R9*%
X141825000Y-90500000D03*
X140000000Y-90500000D03*
%TD*%
D27*
%TO.C,R1*%
X149675000Y-88000000D03*
X151500000Y-88000000D03*
%TD*%
D24*
%TO.C,R6*%
X170000000Y-70825500D03*
X170000000Y-72650500D03*
%TD*%
%TO.C,R12*%
X143500000Y-90175000D03*
X143500000Y-92000000D03*
%TD*%
D28*
%TO.C,U2*%
X159400000Y-82656000D03*
X158400000Y-82656000D03*
X157400000Y-82656000D03*
X156400000Y-82656000D03*
X155400000Y-82656000D03*
X154400000Y-82656000D03*
X153400000Y-82656000D03*
X152400000Y-82656000D03*
X151400000Y-82656000D03*
X150400000Y-82656000D03*
X149400000Y-82656000D03*
X148400000Y-82656000D03*
X147400000Y-82656000D03*
X146400000Y-82656000D03*
X145400000Y-82656000D03*
X145400000Y-64406000D03*
X146400000Y-64406000D03*
X147400000Y-64406000D03*
X148400000Y-64406000D03*
X149400000Y-64406000D03*
X150400000Y-64406000D03*
X151400000Y-64406000D03*
X152400000Y-64406000D03*
X153400000Y-64406000D03*
X154400000Y-64406000D03*
X155400000Y-64406000D03*
X156400000Y-64406000D03*
X157400000Y-64406000D03*
X158400000Y-64406000D03*
X159400000Y-64406000D03*
D29*
X152400000Y-76581000D03*
D30*
X148235000Y-70481000D03*
X156565000Y-70481000D03*
%TD*%
D27*
%TO.C,R4*%
X149675000Y-86500000D03*
X151500000Y-86500000D03*
%TD*%
D25*
%TO.C,C5*%
X162500000Y-77000000D03*
X162500000Y-75275000D03*
%TD*%
D31*
%TO.C,C1*%
X149675000Y-89500000D03*
X151400000Y-89500000D03*
%TD*%
D32*
%TO.C,U4*%
X165725000Y-74762500D03*
X165725000Y-73812500D03*
X165725000Y-72862500D03*
X168000000Y-72862500D03*
X168000000Y-73812500D03*
X168000000Y-74762500D03*
%TD*%
D24*
%TO.C,R11*%
X146000000Y-90175000D03*
X146000000Y-92000000D03*
%TD*%
D23*
%TO.C,R5*%
X167857500Y-84000000D03*
X166032500Y-84000000D03*
%TD*%
D24*
%TO.C,R8*%
X138000000Y-90675000D03*
X138000000Y-92500000D03*
%TD*%
D25*
%TO.C,C3*%
X170000000Y-76641000D03*
X170000000Y-74916000D03*
%TD*%
M02*
