M48
; DRILL file {KiCad 9.0.7-9.0.7~ubuntu24.04.1} date 2026-03-15T04:49:04-0500
; FORMAT={-:-/ absolute / metric / decimal}
; #@! TF.CreationDate,2026-03-15T04:49:04-05:00
; #@! TF.GenerationSoftware,Kicad,Pcbnew,9.0.7-9.0.7~ubuntu24.04.1
; #@! TF.FileFunction,Plated,1,4,PTH
FMAT,2
METRIC
; #@! TA.AperFunction,Plated,PTH,ViaDrill
T1C0.300
; #@! TA.AperFunction,Plated,PTH,ComponentDrill
T2C0.800
; #@! TA.AperFunction,Plated,PTH,ComponentDrill
T3C0.950
; #@! TA.AperFunction,Plated,PTH,ComponentDrill
T4C1.000
; #@! TA.AperFunction,Plated,PTH,ComponentDrill
T5C1.067
; #@! TA.AperFunction,Plated,PTH,ComponentDrill
T6C1.753
%
G90
G05
T1
X138.0Y-89.5
X138.13Y-92.55
X138.13Y-94.0
X140.0Y-90.5
X141.0Y-94.0
X143.5Y-92.25
X143.5Y-94.0
X144.838Y-88.837
X146.0Y-92.25
X146.0Y-94.0
X146.5Y-88.837
X147.4Y-64.406
X147.4Y-82.656
X148.0Y-75.0
X148.0Y-78.0
X148.0Y-81.0
X148.4Y-64.406
X148.4Y-82.656
X149.4Y-64.406
X149.675Y-89.5
X150.4Y-82.656
X151.0Y-75.0
X151.0Y-78.0
X151.0Y-81.0
X151.4Y-82.6
X151.5Y-86.5
X153.4Y-82.656
X153.658Y-86.0
X154.0Y-75.0
X154.0Y-78.0
X154.0Y-81.0
X154.4Y-64.406
X154.4Y-82.656
X155.0Y-66.0
X155.0Y-67.5
X155.0Y-69.0
X155.0Y-70.5
X155.0Y-72.0
X155.0Y-89.436
X155.0Y-90.571
X155.4Y-64.406
X155.4Y-82.656
X155.875Y-87.35
X156.4Y-64.406
X156.4Y-82.656
X157.0Y-66.0
X157.0Y-67.5
X157.0Y-69.0
X157.0Y-70.5
X157.0Y-72.0
X157.0Y-78.0
X157.0Y-81.0
X157.0Y-88.0
X157.4Y-64.406
X158.0Y-75.0
X158.0Y-86.725
X158.0Y-89.436
X158.0Y-90.571
X159.0Y-66.0
X159.0Y-67.5
X159.0Y-69.0
X159.0Y-70.5
X159.0Y-72.0
X159.0Y-80.5
X159.383Y-86.0
X159.4Y-64.406
X161.0Y-89.5
X165.695Y-77.429
X165.725Y-72.862
X165.725Y-74.763
X165.921Y-70.825
X166.405Y-90.95
X167.675Y-90.95
X170.0Y-70.825
T2
X146.5Y-84.5
X150.0Y-84.5
T3
X162.5Y-65.5
X162.5Y-68.0
X162.5Y-70.5
X162.5Y-73.0
T4
X149.88Y-93.5
X152.42Y-93.5
X154.96Y-93.5
X157.5Y-93.5
X162.555Y-79.0
X162.555Y-81.5
X162.555Y-87.5
X162.555Y-90.0
T5
X141.5Y-71.5
X141.5Y-75.0
X141.5Y-83.0
X141.5Y-86.5
T6
X133.59Y-69.0
X133.59Y-77.5
X133.59Y-80.5
X133.59Y-89.0
M30
