%TF.GenerationSoftware,KiCad,Pcbnew,9.0.7*%
%TF.CreationDate,2026-03-15T18:36:39-05:00*%
%TF.ProjectId,Smart_MoCo,536d6172-745f-44d6-9f43-6f2e6b696361,rev?*%
%TF.SameCoordinates,Original*%
%TF.FileFunction,Copper,L3,Inr*%
%TF.FilePolarity,Positive*%
%FSLAX46Y46*%
G04 Gerber Fmt 4.6, Leading zero omitted, Abs format (unit mm)*
G04 Created by KiCad (PCBNEW 9.0.7) date 2026-03-15 18:36:39*
%MOMM*%
%LPD*%
G01*
G04 APERTURE LIST*
G04 Aperture macros list*
%AMRoundRect*
0 Rectangle with rounded corners*
0 $1 Rounding radius*
0 $2 $3 $4 $5 $6 $7 $8 $9 X,Y pos of 4 corners*
0 Add a 4 corners polygon primitive as box body*
4,1,4,$2,$3,$4,$5,$6,$7,$8,$9,$2,$3,0*
0 Add four circle primitives for the rounded corners*
1,1,$1+$1,$2,$3*
1,1,$1+$1,$4,$5*
1,1,$1+$1,$6,$7*
1,1,$1+$1,$8,$9*
0 Add four rect primitives between the rounded corners*
20,1,$1+$1,$2,$3,$4,$5,0*
20,1,$1+$1,$4,$5,$6,$7,0*
20,1,$1+$1,$6,$7,$8,$9,0*
20,1,$1+$1,$8,$9,$2,$3,0*%
G04 Aperture macros list end*
%TA.AperFunction,ComponentPad*%
%ADD10C,1.574800*%
%TD*%
%TA.AperFunction,ComponentPad*%
%ADD11C,2.260600*%
%TD*%
%TA.AperFunction,ComponentPad*%
%ADD12RoundRect,0.250000X0.725000X-0.600000X0.725000X0.600000X-0.725000X0.600000X-0.725000X-0.600000X0*%
%TD*%
%TA.AperFunction,ComponentPad*%
%ADD13O,1.950000X1.700000*%
%TD*%
%TA.AperFunction,ComponentPad*%
%ADD14C,1.600000*%
%TD*%
%TA.AperFunction,ComponentPad*%
%ADD15RoundRect,0.250000X0.750000X-0.600000X0.750000X0.600000X-0.750000X0.600000X-0.750000X-0.600000X0*%
%TD*%
%TA.AperFunction,ComponentPad*%
%ADD16O,2.000000X1.700000*%
%TD*%
%TA.AperFunction,ComponentPad*%
%ADD17R,1.700000X1.700000*%
%TD*%
%TA.AperFunction,ComponentPad*%
%ADD18C,1.700000*%
%TD*%
%TA.AperFunction,ComponentPad*%
%ADD19RoundRect,0.250000X-0.825000X-0.825000X0.825000X-0.825000X0.825000X0.825000X-0.825000X0.825000X0*%
%TD*%
%TA.AperFunction,ViaPad*%
%ADD20C,0.600000*%
%TD*%
G04 APERTURE END LIST*
D10*
%TO.N,/OUTA*%
%TO.C,J6*%
X141500000Y-71499999D03*
%TO.N,/OUTB*%
X141500000Y-75000001D03*
D11*
%TO.N,N/C*%
X133589932Y-69000000D03*
X133589932Y-77499998D03*
%TD*%
D12*
%TO.N,+3V3*%
%TO.C,J2*%
X162500000Y-73000000D03*
D13*
%TO.N,ENC_A{slash}PWM*%
X162500000Y-70500000D03*
%TO.N,ENC_B*%
X162500000Y-68000000D03*
%TO.N,GND*%
X162500000Y-65500000D03*
%TD*%
D10*
%TO.N,Net-(U5-D)*%
%TO.C,J5*%
X141500000Y-83000000D03*
%TO.N,GND*%
X141500000Y-86500002D03*
D11*
%TO.N,N/C*%
X133589932Y-80500001D03*
X133589932Y-88999999D03*
%TD*%
D14*
%TO.N,+12V*%
%TO.C,C2*%
X147000000Y-84800000D03*
%TO.N,GND*%
X150500000Y-84800000D03*
%TD*%
D15*
%TO.N,LIM_A*%
%TO.C,J3*%
X162555000Y-81500000D03*
D16*
%TO.N,LIM_B*%
X162555000Y-79000000D03*
%TD*%
D15*
%TO.N,CANH*%
%TO.C,J1*%
X162555000Y-90000000D03*
D16*
%TO.N,CANL*%
X162555000Y-87500000D03*
%TD*%
D17*
%TO.N,+3V3*%
%TO.C,J4*%
X149880000Y-93500000D03*
D18*
%TO.N,SWCLK*%
X152420000Y-93500000D03*
%TO.N,SWDIO*%
X154960000Y-93500000D03*
%TO.N,GND*%
X157500000Y-93500000D03*
%TD*%
D19*
%TO.N,GPIO*%
%TO.C,J7*%
X168900000Y-93800000D03*
%TD*%
D20*
%TO.N,GND*%
X149675000Y-89700000D03*
X151500000Y-86350000D03*
X149400000Y-64406000D03*
X167675000Y-90950000D03*
X143500000Y-94000000D03*
X161000000Y-89500000D03*
X158000000Y-90571000D03*
X156400000Y-64406000D03*
X146000000Y-94000000D03*
X154400000Y-82656000D03*
X157400000Y-64406000D03*
X147400000Y-64406000D03*
X162500000Y-75275000D03*
X155000000Y-90571000D03*
X166162500Y-93200000D03*
X155400000Y-64406000D03*
X138129800Y-94000000D03*
X148400000Y-64406000D03*
X165921000Y-70825500D03*
%TO.N,+3V3*%
X158000000Y-89436000D03*
X162500000Y-77000000D03*
X170000000Y-70825500D03*
X166405000Y-90950000D03*
X164437500Y-93200000D03*
X155000000Y-89436000D03*
X159000000Y-80500000D03*
%TO.N,+12V*%
X157000000Y-78000000D03*
X148000000Y-81000000D03*
X148000000Y-75000000D03*
X154000000Y-75000000D03*
X165725000Y-72862500D03*
X148000000Y-78000000D03*
X144000000Y-78000000D03*
X151000000Y-75000000D03*
X154000000Y-78000000D03*
X158000000Y-75000000D03*
X154000000Y-81000000D03*
X147400000Y-82656000D03*
X148400000Y-82656000D03*
X151000000Y-81000000D03*
X151000000Y-78000000D03*
X157000000Y-81000000D03*
%TO.N,Net-(U2-EN{slash}DIAGA)*%
X155400000Y-82656000D03*
%TO.N,Net-(U2-EN{slash}DIAGB)*%
X151400000Y-82600000D03*
%TO.N,ENC_A{slash}PWM*%
X159382552Y-86000000D03*
%TO.N,Net-(D1-GA)*%
X140000000Y-90500000D03*
%TO.N,IN_A*%
X156400000Y-82656000D03*
X148000000Y-86974999D03*
%TO.N,Net-(D2-A)*%
X143500000Y-92250000D03*
%TO.N,LED_R*%
X138000000Y-89500000D03*
X158000000Y-86725000D03*
%TO.N,Net-(D3-A)*%
X146000000Y-92250000D03*
%TO.N,IN_B*%
X144800000Y-86975000D03*
X150400000Y-82656000D03*
%TO.N,Net-(D1-RA)*%
X138129800Y-92550000D03*
%TO.N,PWM*%
X153657552Y-86000000D03*
X153400000Y-82656000D03*
%TO.N,LED_G*%
X157500000Y-87500000D03*
X141825000Y-90500000D03*
%TO.N,/OUTB*%
X145400000Y-82656000D03*
%TO.N,/OUTA*%
X155000000Y-66000000D03*
X155000000Y-69000000D03*
X159000000Y-67500000D03*
X155000000Y-67500000D03*
X155000000Y-70500000D03*
X154400000Y-64406000D03*
X159000000Y-66000000D03*
X155000000Y-72000000D03*
X159000000Y-70500000D03*
X157000000Y-67500000D03*
X159000000Y-69000000D03*
X157000000Y-69000000D03*
X157000000Y-72000000D03*
X157000000Y-70500000D03*
X159400000Y-64406000D03*
X159000000Y-72000000D03*
X157000000Y-66000000D03*
%TO.N,LED_B*%
X158065687Y-88065687D03*
X142067476Y-91991386D03*
%TO.N,Net-(D1-BA)*%
X141000000Y-94000000D03*
%TO.N,GPIO*%
X155938066Y-91638065D03*
%TO.N,Net-(U5-G)*%
X142000000Y-81000000D03*
%TD*%
%TA.AperFunction,Conductor*%
%TO.N,+12V*%
G36*
X158119657Y-73725502D02*
G01*
X158131457Y-73734092D01*
X158193514Y-73785020D01*
X158210978Y-73802484D01*
X158299162Y-73909937D01*
X158319595Y-73934834D01*
X158333318Y-73955372D01*
X158414029Y-74106370D01*
X158423482Y-74129191D01*
X158473183Y-74293037D01*
X158478001Y-74317261D01*
X158495393Y-74493836D01*
X158496000Y-74506187D01*
X158496000Y-82552807D01*
X158495388Y-82565212D01*
X158477842Y-82742562D01*
X158472981Y-82766890D01*
X158422846Y-82931391D01*
X158413312Y-82954295D01*
X158331920Y-83105777D01*
X158318083Y-83126370D01*
X158208579Y-83258976D01*
X158190975Y-83276457D01*
X158057620Y-83385029D01*
X158036932Y-83398723D01*
X157884882Y-83479063D01*
X157861913Y-83488437D01*
X157697070Y-83537427D01*
X157672708Y-83542119D01*
X157495242Y-83558431D01*
X157482833Y-83558957D01*
X153748000Y-83533000D01*
X149000000Y-83500000D01*
X149000000Y-84993812D01*
X148999393Y-85006162D01*
X148999393Y-85006163D01*
X148982001Y-85182738D01*
X148977183Y-85206962D01*
X148927482Y-85370808D01*
X148918029Y-85393629D01*
X148837318Y-85544627D01*
X148823595Y-85565165D01*
X148714979Y-85697514D01*
X148697514Y-85714979D01*
X148565165Y-85823595D01*
X148544627Y-85837318D01*
X148393629Y-85918029D01*
X148370808Y-85927482D01*
X148206962Y-85977183D01*
X148182738Y-85982001D01*
X148034273Y-85996624D01*
X148006161Y-85999393D01*
X147993813Y-86000000D01*
X146506187Y-86000000D01*
X146493838Y-85999393D01*
X146461095Y-85996168D01*
X146317261Y-85982001D01*
X146293037Y-85977183D01*
X146129191Y-85927482D01*
X146106372Y-85918030D01*
X146058011Y-85892180D01*
X145955372Y-85837318D01*
X145934834Y-85823595D01*
X145802485Y-85714979D01*
X145785020Y-85697514D01*
X145676404Y-85565165D01*
X145662681Y-85544627D01*
X145649064Y-85519153D01*
X145581967Y-85393622D01*
X145572520Y-85370815D01*
X145522815Y-85206959D01*
X145517998Y-85182737D01*
X145500607Y-85006162D01*
X145500000Y-84993812D01*
X145500000Y-83244044D01*
X145520002Y-83175923D01*
X145573658Y-83129430D01*
X145592842Y-83122534D01*
X145593180Y-83122393D01*
X145593186Y-83122392D01*
X145707314Y-83056500D01*
X145800500Y-82963314D01*
X145866392Y-82849186D01*
X145900500Y-82721892D01*
X145900500Y-82590108D01*
X149899500Y-82590108D01*
X149899500Y-82721892D01*
X149911557Y-82766890D01*
X149933607Y-82849183D01*
X149933610Y-82849190D01*
X149999497Y-82963310D01*
X149999505Y-82963320D01*
X150092679Y-83056494D01*
X150092684Y-83056498D01*
X150092686Y-83056500D01*
X150206814Y-83122392D01*
X150334108Y-83156500D01*
X150334110Y-83156500D01*
X150465890Y-83156500D01*
X150465892Y-83156500D01*
X150593186Y-83122392D01*
X150707314Y-83056500D01*
X150800500Y-82963314D01*
X150811732Y-82943858D01*
X150863113Y-82894865D01*
X150932827Y-82881427D01*
X150998738Y-82907813D01*
X151009947Y-82917762D01*
X151092679Y-83000494D01*
X151092684Y-83000498D01*
X151092686Y-83000500D01*
X151206814Y-83066392D01*
X151334108Y-83100500D01*
X151334110Y-83100500D01*
X151465890Y-83100500D01*
X151465892Y-83100500D01*
X151593186Y-83066392D01*
X151707314Y-83000500D01*
X151800500Y-82907314D01*
X151866392Y-82793186D01*
X151900500Y-82665892D01*
X151900500Y-82590108D01*
X152899500Y-82590108D01*
X152899500Y-82721892D01*
X152911557Y-82766890D01*
X152933607Y-82849183D01*
X152933610Y-82849190D01*
X152999497Y-82963310D01*
X152999505Y-82963320D01*
X153092679Y-83056494D01*
X153092684Y-83056498D01*
X153092686Y-83056500D01*
X153206814Y-83122392D01*
X153334108Y-83156500D01*
X153334110Y-83156500D01*
X153465890Y-83156500D01*
X153465892Y-83156500D01*
X153593186Y-83122392D01*
X153707314Y-83056500D01*
X153707320Y-83056494D01*
X153806340Y-82957475D01*
X153807404Y-82958539D01*
X153857368Y-82922051D01*
X153928239Y-82917825D01*
X153990144Y-82952585D01*
X153999058Y-82962873D01*
X154092679Y-83056494D01*
X154092684Y-83056498D01*
X154092686Y-83056500D01*
X154206814Y-83122392D01*
X154334108Y-83156500D01*
X154334110Y-83156500D01*
X154465890Y-83156500D01*
X154465892Y-83156500D01*
X154593186Y-83122392D01*
X154707314Y-83056500D01*
X154707320Y-83056494D01*
X154806340Y-82957475D01*
X154807404Y-82958539D01*
X154857368Y-82922051D01*
X154928239Y-82917825D01*
X154990144Y-82952585D01*
X154999058Y-82962873D01*
X155092679Y-83056494D01*
X155092684Y-83056498D01*
X155092686Y-83056500D01*
X155206814Y-83122392D01*
X155334108Y-83156500D01*
X155334110Y-83156500D01*
X155465890Y-83156500D01*
X155465892Y-83156500D01*
X155593186Y-83122392D01*
X155707314Y-83056500D01*
X155707320Y-83056494D01*
X155806340Y-82957475D01*
X155807404Y-82958539D01*
X155857368Y-82922051D01*
X155928239Y-82917825D01*
X155990144Y-82952585D01*
X155999058Y-82962873D01*
X156092679Y-83056494D01*
X156092684Y-83056498D01*
X156092686Y-83056500D01*
X156206814Y-83122392D01*
X156334108Y-83156500D01*
X156334110Y-83156500D01*
X156465890Y-83156500D01*
X156465892Y-83156500D01*
X156593186Y-83122392D01*
X156707314Y-83056500D01*
X156800500Y-82963314D01*
X156866392Y-82849186D01*
X156900500Y-82721892D01*
X156900500Y-82590108D01*
X156866392Y-82462814D01*
X156846815Y-82428906D01*
X156800502Y-82348689D01*
X156800494Y-82348679D01*
X156707320Y-82255505D01*
X156707310Y-82255497D01*
X156593190Y-82189610D01*
X156593187Y-82189609D01*
X156593186Y-82189608D01*
X156593184Y-82189607D01*
X156593183Y-82189607D01*
X156559073Y-82180467D01*
X156465892Y-82155500D01*
X156334108Y-82155500D01*
X156265894Y-82173777D01*
X156206816Y-82189607D01*
X156206809Y-82189610D01*
X156092689Y-82255497D01*
X156092679Y-82255505D01*
X155993660Y-82354525D01*
X155992596Y-82353461D01*
X155942622Y-82389951D01*
X155871751Y-82394172D01*
X155809849Y-82359406D01*
X155800941Y-82349126D01*
X155707320Y-82255505D01*
X155707310Y-82255497D01*
X155593190Y-82189610D01*
X155593187Y-82189609D01*
X155593186Y-82189608D01*
X155593184Y-82189607D01*
X155593183Y-82189607D01*
X155559073Y-82180467D01*
X155465892Y-82155500D01*
X155334108Y-82155500D01*
X155265894Y-82173777D01*
X155206816Y-82189607D01*
X155206809Y-82189610D01*
X155092689Y-82255497D01*
X155092679Y-82255505D01*
X154993660Y-82354525D01*
X154992596Y-82353461D01*
X154942622Y-82389951D01*
X154871751Y-82394172D01*
X154809849Y-82359406D01*
X154800941Y-82349126D01*
X154707320Y-82255505D01*
X154707310Y-82255497D01*
X154593190Y-82189610D01*
X154593187Y-82189609D01*
X154593186Y-82189608D01*
X154593184Y-82189607D01*
X154593183Y-82189607D01*
X154559073Y-82180467D01*
X154465892Y-82155500D01*
X154334108Y-82155500D01*
X154265894Y-82173777D01*
X154206816Y-82189607D01*
X154206809Y-82189610D01*
X154092689Y-82255497D01*
X154092679Y-82255505D01*
X153993660Y-82354525D01*
X153992596Y-82353461D01*
X153942622Y-82389951D01*
X153871751Y-82394172D01*
X153809849Y-82359406D01*
X153800941Y-82349126D01*
X153707320Y-82255505D01*
X153707310Y-82255497D01*
X153593190Y-82189610D01*
X153593187Y-82189609D01*
X153593186Y-82189608D01*
X153593184Y-82189607D01*
X153593183Y-82189607D01*
X153559073Y-82180467D01*
X153465892Y-82155500D01*
X153334108Y-82155500D01*
X153265894Y-82173777D01*
X153206816Y-82189607D01*
X153206809Y-82189610D01*
X153092689Y-82255497D01*
X153092679Y-82255505D01*
X152999505Y-82348679D01*
X152999497Y-82348689D01*
X152933610Y-82462809D01*
X152933608Y-82462814D01*
X152899500Y-82590108D01*
X151900500Y-82590108D01*
X151900500Y-82534108D01*
X151866392Y-82406814D01*
X151833086Y-82349126D01*
X151800502Y-82292689D01*
X151800501Y-82292687D01*
X151800500Y-82292686D01*
X151800498Y-82292684D01*
X151800494Y-82292679D01*
X151707320Y-82199505D01*
X151707310Y-82199497D01*
X151593190Y-82133610D01*
X151593187Y-82133609D01*
X151593186Y-82133608D01*
X151593184Y-82133607D01*
X151593183Y-82133607D01*
X151559073Y-82124467D01*
X151465892Y-82099500D01*
X151334108Y-82099500D01*
X151265894Y-82117777D01*
X151206816Y-82133607D01*
X151206809Y-82133610D01*
X151092689Y-82199497D01*
X151092679Y-82199505D01*
X150999505Y-82292679D01*
X150999499Y-82292687D01*
X150988265Y-82312145D01*
X150936881Y-82361137D01*
X150867167Y-82374571D01*
X150801257Y-82348183D01*
X150790052Y-82338237D01*
X150707320Y-82255505D01*
X150707310Y-82255497D01*
X150593190Y-82189610D01*
X150593187Y-82189609D01*
X150593186Y-82189608D01*
X150593184Y-82189607D01*
X150593183Y-82189607D01*
X150559073Y-82180467D01*
X150465892Y-82155500D01*
X150334108Y-82155500D01*
X150265894Y-82173777D01*
X150206816Y-82189607D01*
X150206809Y-82189610D01*
X150092689Y-82255497D01*
X150092679Y-82255505D01*
X149999505Y-82348679D01*
X149999497Y-82348689D01*
X149933610Y-82462809D01*
X149933608Y-82462814D01*
X149899500Y-82590108D01*
X145900500Y-82590108D01*
X145866392Y-82462814D01*
X145846815Y-82428906D01*
X145800502Y-82348689D01*
X145800494Y-82348679D01*
X145707320Y-82255505D01*
X145707310Y-82255497D01*
X145593190Y-82189610D01*
X145593188Y-82189609D01*
X145593186Y-82189608D01*
X145593183Y-82189607D01*
X145585555Y-82186448D01*
X145586070Y-82185204D01*
X145532756Y-82152699D01*
X145501742Y-82088835D01*
X145500000Y-82067955D01*
X145500000Y-82000000D01*
X145499999Y-81999999D01*
X143250000Y-81000000D01*
X141599395Y-80266397D01*
X141588590Y-80260959D01*
X141437439Y-80175562D01*
X141417637Y-80161713D01*
X141290190Y-80052972D01*
X141273406Y-80035606D01*
X141169067Y-79904535D01*
X141155899Y-79884272D01*
X141078506Y-79735702D01*
X141069448Y-79713297D01*
X141021841Y-79552675D01*
X141017230Y-79528966D01*
X141000581Y-79356156D01*
X141000000Y-79344073D01*
X141000000Y-76050762D01*
X141020002Y-75982641D01*
X141073658Y-75936148D01*
X141143932Y-75926044D01*
X141174219Y-75934354D01*
X141211829Y-75949933D01*
X141211833Y-75949934D01*
X141211840Y-75949937D01*
X141402700Y-75987901D01*
X141402701Y-75987901D01*
X141597299Y-75987901D01*
X141597300Y-75987901D01*
X141788160Y-75949937D01*
X141967946Y-75875467D01*
X142129750Y-75767353D01*
X142267352Y-75629751D01*
X142375466Y-75467947D01*
X142449936Y-75288161D01*
X142487900Y-75097301D01*
X142487900Y-74902701D01*
X142449936Y-74711841D01*
X142375466Y-74532055D01*
X142267352Y-74370251D01*
X142129750Y-74232649D01*
X141967946Y-74124535D01*
X141788160Y-74050065D01*
X141597302Y-74012101D01*
X141597300Y-74012101D01*
X141402700Y-74012101D01*
X141402699Y-74012101D01*
X141402689Y-74012102D01*
X141401835Y-74012272D01*
X141401379Y-74012231D01*
X141396536Y-74012708D01*
X141396445Y-74011788D01*
X141373469Y-74009729D01*
X141345007Y-74010488D01*
X141338591Y-74006602D01*
X141331122Y-74005933D01*
X141308636Y-73988460D01*
X141284280Y-73973709D01*
X141280983Y-73966972D01*
X141275061Y-73962370D01*
X141265591Y-73935513D01*
X141253077Y-73909937D01*
X141253946Y-73902487D01*
X141251452Y-73895414D01*
X141258004Y-73867704D01*
X141261304Y-73839419D01*
X141266862Y-73830241D01*
X141267789Y-73826323D01*
X141279871Y-73808760D01*
X141285035Y-73802467D01*
X141302479Y-73785025D01*
X141364532Y-73734099D01*
X141429878Y-73706347D01*
X141444464Y-73705500D01*
X158051536Y-73705500D01*
X158119657Y-73725502D01*
G37*
%TD.AperFunction*%
%TD*%
%TA.AperFunction,Conductor*%
%TO.N,+3V3*%
G36*
X169604119Y-63000770D02*
G01*
X169616905Y-63001608D01*
X169839699Y-63016210D01*
X169856022Y-63018358D01*
X170083539Y-63063615D01*
X170099442Y-63067876D01*
X170319095Y-63142439D01*
X170334302Y-63148738D01*
X170542351Y-63251336D01*
X170556608Y-63259567D01*
X170749478Y-63388438D01*
X170762543Y-63398463D01*
X170936946Y-63551411D01*
X170948588Y-63563053D01*
X171044228Y-63672109D01*
X171101532Y-63737451D01*
X171111562Y-63750524D01*
X171183704Y-63858492D01*
X171240427Y-63943383D01*
X171248666Y-63957653D01*
X171303844Y-64069543D01*
X171351257Y-64165687D01*
X171357563Y-64180912D01*
X171375378Y-64233393D01*
X171432120Y-64400549D01*
X171436386Y-64416468D01*
X171481639Y-64643967D01*
X171483790Y-64660308D01*
X171499230Y-64895880D01*
X171499500Y-64904121D01*
X171499500Y-93095878D01*
X171499230Y-93104119D01*
X171483790Y-93339691D01*
X171481639Y-93356032D01*
X171436386Y-93583531D01*
X171432120Y-93599450D01*
X171357564Y-93819085D01*
X171351257Y-93834312D01*
X171248668Y-94042342D01*
X171240427Y-94056616D01*
X171111565Y-94249472D01*
X171101532Y-94262548D01*
X170948594Y-94436940D01*
X170936940Y-94448594D01*
X170762548Y-94601532D01*
X170749472Y-94611565D01*
X170556616Y-94740427D01*
X170542342Y-94748668D01*
X170353119Y-94841982D01*
X170283177Y-94854172D01*
X170217747Y-94826613D01*
X170177604Y-94768054D01*
X170171942Y-94717210D01*
X170175499Y-94679285D01*
X170175500Y-94679264D01*
X170175500Y-92920735D01*
X170175500Y-92920734D01*
X170172646Y-92890301D01*
X170161105Y-92857320D01*
X170127793Y-92762118D01*
X170127791Y-92762114D01*
X170047150Y-92652849D01*
X169937885Y-92572208D01*
X169937881Y-92572206D01*
X169809704Y-92527355D01*
X169809700Y-92527354D01*
X169779266Y-92524500D01*
X168020734Y-92524500D01*
X168020733Y-92524500D01*
X167990299Y-92527354D01*
X167990295Y-92527355D01*
X167862118Y-92572206D01*
X167862114Y-92572208D01*
X167752849Y-92652849D01*
X167672208Y-92762114D01*
X167672206Y-92762118D01*
X167627355Y-92890295D01*
X167627354Y-92890299D01*
X167624500Y-92920733D01*
X167624500Y-94679266D01*
X167627354Y-94709700D01*
X167627355Y-94709704D01*
X167670108Y-94831885D01*
X167673728Y-94902789D01*
X167638438Y-94964394D01*
X167575445Y-94997141D01*
X167551179Y-94999500D01*
X135628799Y-94999500D01*
X135560678Y-94979498D01*
X135514185Y-94925842D01*
X135504081Y-94855568D01*
X135533575Y-94790988D01*
X135539704Y-94784405D01*
X135670976Y-94653132D01*
X135670991Y-94653117D01*
X135780711Y-94510127D01*
X135858559Y-94408675D01*
X135946509Y-94256342D01*
X136012622Y-94141830D01*
X136098664Y-93934108D01*
X137629300Y-93934108D01*
X137629300Y-94065892D01*
X137649647Y-94141830D01*
X137663407Y-94193183D01*
X137663410Y-94193190D01*
X137729297Y-94307310D01*
X137729305Y-94307320D01*
X137822479Y-94400494D01*
X137822484Y-94400498D01*
X137822486Y-94400500D01*
X137822487Y-94400501D01*
X137822489Y-94400502D01*
X137836645Y-94408675D01*
X137936614Y-94466392D01*
X138063908Y-94500500D01*
X138063910Y-94500500D01*
X138195690Y-94500500D01*
X138195692Y-94500500D01*
X138322986Y-94466392D01*
X138437114Y-94400500D01*
X138530300Y-94307314D01*
X138596192Y-94193186D01*
X138630300Y-94065892D01*
X138630300Y-93934108D01*
X140499500Y-93934108D01*
X140499500Y-94065892D01*
X140519847Y-94141830D01*
X140533607Y-94193183D01*
X140533610Y-94193190D01*
X140599497Y-94307310D01*
X140599505Y-94307320D01*
X140692679Y-94400494D01*
X140692684Y-94400498D01*
X140692686Y-94400500D01*
X140692687Y-94400501D01*
X140692689Y-94400502D01*
X140706845Y-94408675D01*
X140806814Y-94466392D01*
X140934108Y-94500500D01*
X140934110Y-94500500D01*
X141065890Y-94500500D01*
X141065892Y-94500500D01*
X141193186Y-94466392D01*
X141307314Y-94400500D01*
X141400500Y-94307314D01*
X141466392Y-94193186D01*
X141500500Y-94065892D01*
X141500500Y-93934108D01*
X142999500Y-93934108D01*
X142999500Y-94065892D01*
X143019847Y-94141830D01*
X143033607Y-94193183D01*
X143033610Y-94193190D01*
X143099497Y-94307310D01*
X143099505Y-94307320D01*
X143192679Y-94400494D01*
X143192684Y-94400498D01*
X143192686Y-94400500D01*
X143192687Y-94400501D01*
X143192689Y-94400502D01*
X143206845Y-94408675D01*
X143306814Y-94466392D01*
X143434108Y-94500500D01*
X143434110Y-94500500D01*
X143565890Y-94500500D01*
X143565892Y-94500500D01*
X143693186Y-94466392D01*
X143807314Y-94400500D01*
X143900500Y-94307314D01*
X143966392Y-94193186D01*
X144000500Y-94065892D01*
X144000500Y-93934108D01*
X145499500Y-93934108D01*
X145499500Y-94065892D01*
X145519847Y-94141830D01*
X145533607Y-94193183D01*
X145533610Y-94193190D01*
X145599497Y-94307310D01*
X145599505Y-94307320D01*
X145692679Y-94400494D01*
X145692684Y-94400498D01*
X145692686Y-94400500D01*
X145692687Y-94400501D01*
X145692689Y-94400502D01*
X145706845Y-94408675D01*
X145806814Y-94466392D01*
X145934108Y-94500500D01*
X145934110Y-94500500D01*
X146065890Y-94500500D01*
X146065892Y-94500500D01*
X146193186Y-94466392D01*
X146307314Y-94400500D01*
X146400500Y-94307314D01*
X146466392Y-94193186D01*
X146500500Y-94065892D01*
X146500500Y-93934108D01*
X146466392Y-93806814D01*
X146446815Y-93772906D01*
X146400502Y-93692689D01*
X146400494Y-93692679D01*
X146307320Y-93599505D01*
X146307310Y-93599497D01*
X146193190Y-93533610D01*
X146193187Y-93533609D01*
X146193186Y-93533608D01*
X146193184Y-93533607D01*
X146193183Y-93533607D01*
X146172729Y-93528126D01*
X146065892Y-93499500D01*
X145934108Y-93499500D01*
X145887263Y-93512052D01*
X145806816Y-93533607D01*
X145806809Y-93533610D01*
X145692689Y-93599497D01*
X145692679Y-93599505D01*
X145599505Y-93692679D01*
X145599497Y-93692689D01*
X145533610Y-93806809D01*
X145533607Y-93806816D01*
X145511983Y-93887517D01*
X145499500Y-93934108D01*
X144000500Y-93934108D01*
X143966392Y-93806814D01*
X143946815Y-93772906D01*
X143900502Y-93692689D01*
X143900494Y-93692679D01*
X143807320Y-93599505D01*
X143807310Y-93599497D01*
X143693190Y-93533610D01*
X143693187Y-93533609D01*
X143693186Y-93533608D01*
X143693184Y-93533607D01*
X143693183Y-93533607D01*
X143659073Y-93524467D01*
X143565892Y-93499500D01*
X143434108Y-93499500D01*
X143387263Y-93512052D01*
X143306816Y-93533607D01*
X143306809Y-93533610D01*
X143192689Y-93599497D01*
X143192679Y-93599505D01*
X143099505Y-93692679D01*
X143099497Y-93692689D01*
X143033610Y-93806809D01*
X143033607Y-93806816D01*
X143011983Y-93887517D01*
X142999500Y-93934108D01*
X141500500Y-93934108D01*
X141466392Y-93806814D01*
X141446815Y-93772906D01*
X141400502Y-93692689D01*
X141400494Y-93692679D01*
X141307320Y-93599505D01*
X141307310Y-93599497D01*
X141193190Y-93533610D01*
X141193187Y-93533609D01*
X141193186Y-93533608D01*
X141193184Y-93533607D01*
X141193183Y-93533607D01*
X141159073Y-93524467D01*
X141065892Y-93499500D01*
X140934108Y-93499500D01*
X140887263Y-93512052D01*
X140806816Y-93533607D01*
X140806809Y-93533610D01*
X140692689Y-93599497D01*
X140692679Y-93599505D01*
X140599505Y-93692679D01*
X140599497Y-93692689D01*
X140533610Y-93806809D01*
X140533607Y-93806816D01*
X140511983Y-93887517D01*
X140499500Y-93934108D01*
X138630300Y-93934108D01*
X138596192Y-93806814D01*
X138576615Y-93772906D01*
X138530302Y-93692689D01*
X138530294Y-93692679D01*
X138437120Y-93599505D01*
X138437110Y-93599497D01*
X138322990Y-93533610D01*
X138322987Y-93533609D01*
X138322986Y-93533608D01*
X138322984Y-93533607D01*
X138322983Y-93533607D01*
X138288873Y-93524467D01*
X138195692Y-93499500D01*
X138063908Y-93499500D01*
X138017063Y-93512052D01*
X137936616Y-93533607D01*
X137936609Y-93533610D01*
X137822489Y-93599497D01*
X137822479Y-93599505D01*
X137729305Y-93692679D01*
X137729297Y-93692689D01*
X137663410Y-93806809D01*
X137663407Y-93806816D01*
X137641783Y-93887517D01*
X137629300Y-93934108D01*
X136098664Y-93934108D01*
X136130535Y-93857164D01*
X136210282Y-93559544D01*
X136231743Y-93396532D01*
X151369500Y-93396532D01*
X151369500Y-93603467D01*
X151388801Y-93700500D01*
X151409870Y-93806420D01*
X151489059Y-93997598D01*
X151585431Y-94141830D01*
X151604024Y-94169656D01*
X151604029Y-94169662D01*
X151750337Y-94315970D01*
X151750343Y-94315975D01*
X151750345Y-94315977D01*
X151922402Y-94430941D01*
X152113580Y-94510130D01*
X152316535Y-94550500D01*
X152316536Y-94550500D01*
X152523464Y-94550500D01*
X152523465Y-94550500D01*
X152726420Y-94510130D01*
X152917598Y-94430941D01*
X153089655Y-94315977D01*
X153235977Y-94169655D01*
X153350941Y-93997598D01*
X153430130Y-93806420D01*
X153470500Y-93603465D01*
X153470500Y-93396535D01*
X153470499Y-93396532D01*
X153909500Y-93396532D01*
X153909500Y-93603467D01*
X153928801Y-93700500D01*
X153949870Y-93806420D01*
X154029059Y-93997598D01*
X154125431Y-94141830D01*
X154144024Y-94169656D01*
X154144029Y-94169662D01*
X154290337Y-94315970D01*
X154290343Y-94315975D01*
X154290345Y-94315977D01*
X154462402Y-94430941D01*
X154653580Y-94510130D01*
X154856535Y-94550500D01*
X154856536Y-94550500D01*
X155063464Y-94550500D01*
X155063465Y-94550500D01*
X155266420Y-94510130D01*
X155457598Y-94430941D01*
X155629655Y-94315977D01*
X155775977Y-94169655D01*
X155890941Y-93997598D01*
X155970130Y-93806420D01*
X156010500Y-93603465D01*
X156010500Y-93396535D01*
X156010499Y-93396532D01*
X156449500Y-93396532D01*
X156449500Y-93603467D01*
X156468801Y-93700500D01*
X156489870Y-93806420D01*
X156569059Y-93997598D01*
X156665431Y-94141830D01*
X156684024Y-94169656D01*
X156684029Y-94169662D01*
X156830337Y-94315970D01*
X156830343Y-94315975D01*
X156830345Y-94315977D01*
X157002402Y-94430941D01*
X157193580Y-94510130D01*
X157396535Y-94550500D01*
X157396536Y-94550500D01*
X157603464Y-94550500D01*
X157603465Y-94550500D01*
X157806420Y-94510130D01*
X157997598Y-94430941D01*
X158169655Y-94315977D01*
X158315977Y-94169655D01*
X158430941Y-93997598D01*
X158510130Y-93806420D01*
X158550500Y-93603465D01*
X158550500Y-93396535D01*
X158510130Y-93193580D01*
X158485496Y-93134108D01*
X165662000Y-93134108D01*
X165662000Y-93265892D01*
X165681774Y-93339691D01*
X165696107Y-93393183D01*
X165696110Y-93393190D01*
X165761997Y-93507310D01*
X165762005Y-93507320D01*
X165855179Y-93600494D01*
X165855184Y-93600498D01*
X165855186Y-93600500D01*
X165855187Y-93600501D01*
X165855189Y-93600502D01*
X165860325Y-93603467D01*
X165969314Y-93666392D01*
X166096608Y-93700500D01*
X166096610Y-93700500D01*
X166228390Y-93700500D01*
X166228392Y-93700500D01*
X166355686Y-93666392D01*
X166469814Y-93600500D01*
X166563000Y-93507314D01*
X166628892Y-93393186D01*
X166663000Y-93265892D01*
X166663000Y-93134108D01*
X166628892Y-93006814D01*
X166563000Y-92892686D01*
X166562998Y-92892684D01*
X166562994Y-92892679D01*
X166469820Y-92799505D01*
X166469810Y-92799497D01*
X166355690Y-92733610D01*
X166355687Y-92733609D01*
X166355686Y-92733608D01*
X166355684Y-92733607D01*
X166355683Y-92733607D01*
X166291423Y-92716389D01*
X166228392Y-92699500D01*
X166096608Y-92699500D01*
X166033577Y-92716389D01*
X165969316Y-92733607D01*
X165969309Y-92733610D01*
X165855189Y-92799497D01*
X165855179Y-92799505D01*
X165762005Y-92892679D01*
X165761997Y-92892689D01*
X165696110Y-93006809D01*
X165696107Y-93006816D01*
X165684402Y-93050500D01*
X165662000Y-93134108D01*
X158485496Y-93134108D01*
X158430941Y-93002402D01*
X158315977Y-92830345D01*
X158315975Y-92830343D01*
X158315970Y-92830337D01*
X158169662Y-92684029D01*
X158169656Y-92684024D01*
X158169655Y-92684023D01*
X157997598Y-92569059D01*
X157806420Y-92489870D01*
X157603467Y-92449500D01*
X157603465Y-92449500D01*
X157396535Y-92449500D01*
X157396532Y-92449500D01*
X157193579Y-92489870D01*
X157193574Y-92489872D01*
X157002402Y-92569059D01*
X156830343Y-92684024D01*
X156830337Y-92684029D01*
X156684029Y-92830337D01*
X156684024Y-92830343D01*
X156569059Y-93002402D01*
X156489872Y-93193574D01*
X156489870Y-93193579D01*
X156449500Y-93396532D01*
X156010499Y-93396532D01*
X155970130Y-93193580D01*
X155890941Y-93002402D01*
X155775977Y-92830345D01*
X155775975Y-92830343D01*
X155775970Y-92830337D01*
X155629662Y-92684029D01*
X155629656Y-92684024D01*
X155629655Y-92684023D01*
X155457598Y-92569059D01*
X155266420Y-92489870D01*
X155063467Y-92449500D01*
X155063465Y-92449500D01*
X154856535Y-92449500D01*
X154856532Y-92449500D01*
X154653579Y-92489870D01*
X154653574Y-92489872D01*
X154462402Y-92569059D01*
X154290343Y-92684024D01*
X154290337Y-92684029D01*
X154144029Y-92830337D01*
X154144024Y-92830343D01*
X154029059Y-93002402D01*
X153949872Y-93193574D01*
X153949870Y-93193579D01*
X153909500Y-93396532D01*
X153470499Y-93396532D01*
X153430130Y-93193580D01*
X153350941Y-93002402D01*
X153235977Y-92830345D01*
X153235975Y-92830343D01*
X153235970Y-92830337D01*
X153089662Y-92684029D01*
X153089656Y-92684024D01*
X153089655Y-92684023D01*
X152917598Y-92569059D01*
X152726420Y-92489870D01*
X152523467Y-92449500D01*
X152523465Y-92449500D01*
X152316535Y-92449500D01*
X152316532Y-92449500D01*
X152113579Y-92489870D01*
X152113574Y-92489872D01*
X151922402Y-92569059D01*
X151750343Y-92684024D01*
X151750337Y-92684029D01*
X151604029Y-92830337D01*
X151604024Y-92830343D01*
X151489059Y-93002402D01*
X151409872Y-93193574D01*
X151409870Y-93193579D01*
X151369500Y-93396532D01*
X136231743Y-93396532D01*
X136250500Y-93254060D01*
X136250500Y-92945940D01*
X136211605Y-92650502D01*
X136210283Y-92640462D01*
X136210282Y-92640460D01*
X136210282Y-92640456D01*
X136168389Y-92484108D01*
X137629300Y-92484108D01*
X137629300Y-92615892D01*
X137654267Y-92709073D01*
X137663407Y-92743183D01*
X137663410Y-92743190D01*
X137729297Y-92857310D01*
X137729305Y-92857320D01*
X137822479Y-92950494D01*
X137822484Y-92950498D01*
X137822486Y-92950500D01*
X137936614Y-93016392D01*
X138063908Y-93050500D01*
X138063910Y-93050500D01*
X138195690Y-93050500D01*
X138195692Y-93050500D01*
X138322986Y-93016392D01*
X138437114Y-92950500D01*
X138530300Y-92857314D01*
X138596192Y-92743186D01*
X138630300Y-92615892D01*
X138630300Y-92484108D01*
X138596192Y-92356814D01*
X138562640Y-92298700D01*
X138530302Y-92242689D01*
X138530294Y-92242679D01*
X138437120Y-92149505D01*
X138437110Y-92149497D01*
X138322990Y-92083610D01*
X138322987Y-92083609D01*
X138322986Y-92083608D01*
X138322984Y-92083607D01*
X138322983Y-92083607D01*
X138288873Y-92074467D01*
X138195692Y-92049500D01*
X138063908Y-92049500D01*
X137995694Y-92067777D01*
X137936616Y-92083607D01*
X137936609Y-92083610D01*
X137822489Y-92149497D01*
X137822479Y-92149505D01*
X137729305Y-92242679D01*
X137729297Y-92242689D01*
X137663410Y-92356809D01*
X137663407Y-92356816D01*
X137654010Y-92391888D01*
X137629300Y-92484108D01*
X136168389Y-92484108D01*
X136130535Y-92342836D01*
X136012622Y-92058170D01*
X135945949Y-91942689D01*
X135936022Y-91925494D01*
X141566976Y-91925494D01*
X141566976Y-92057278D01*
X141588757Y-92138565D01*
X141601083Y-92184569D01*
X141601086Y-92184576D01*
X141666973Y-92298696D01*
X141666981Y-92298706D01*
X141760155Y-92391880D01*
X141760160Y-92391884D01*
X141760162Y-92391886D01*
X141874290Y-92457778D01*
X142001584Y-92491886D01*
X142001586Y-92491886D01*
X142133366Y-92491886D01*
X142133368Y-92491886D01*
X142260662Y-92457778D01*
X142374790Y-92391886D01*
X142467976Y-92298700D01*
X142533868Y-92184572D01*
X142533992Y-92184108D01*
X142999500Y-92184108D01*
X142999500Y-92315892D01*
X143019861Y-92391880D01*
X143033607Y-92443183D01*
X143033610Y-92443190D01*
X143099497Y-92557310D01*
X143099505Y-92557320D01*
X143192679Y-92650494D01*
X143192684Y-92650498D01*
X143192686Y-92650500D01*
X143192687Y-92650501D01*
X143192689Y-92650502D01*
X143196756Y-92652850D01*
X143306814Y-92716392D01*
X143434108Y-92750500D01*
X143434110Y-92750500D01*
X143565890Y-92750500D01*
X143565892Y-92750500D01*
X143693186Y-92716392D01*
X143807314Y-92650500D01*
X143900500Y-92557314D01*
X143966392Y-92443186D01*
X144000500Y-92315892D01*
X144000500Y-92184108D01*
X145499500Y-92184108D01*
X145499500Y-92315892D01*
X145519861Y-92391880D01*
X145533607Y-92443183D01*
X145533610Y-92443190D01*
X145599497Y-92557310D01*
X145599505Y-92557320D01*
X145692679Y-92650494D01*
X145692684Y-92650498D01*
X145692686Y-92650500D01*
X145692687Y-92650501D01*
X145692689Y-92650502D01*
X145696756Y-92652850D01*
X145806814Y-92716392D01*
X145934108Y-92750500D01*
X145934110Y-92750500D01*
X146065890Y-92750500D01*
X146065892Y-92750500D01*
X146193186Y-92716392D01*
X146307314Y-92650500D01*
X146400500Y-92557314D01*
X146466392Y-92443186D01*
X146500500Y-92315892D01*
X146500500Y-92184108D01*
X146466392Y-92056814D01*
X146422180Y-91980236D01*
X146400502Y-91942689D01*
X146400494Y-91942679D01*
X146307320Y-91849505D01*
X146307310Y-91849497D01*
X146193190Y-91783610D01*
X146193187Y-91783609D01*
X146193186Y-91783608D01*
X146193184Y-91783607D01*
X146193183Y-91783607D01*
X146159073Y-91774467D01*
X146065892Y-91749500D01*
X145934108Y-91749500D01*
X145865894Y-91767777D01*
X145806816Y-91783607D01*
X145806809Y-91783610D01*
X145692689Y-91849497D01*
X145692679Y-91849505D01*
X145599505Y-91942679D01*
X145599497Y-91942689D01*
X145533610Y-92056809D01*
X145533607Y-92056816D01*
X145526428Y-92083610D01*
X145499500Y-92184108D01*
X144000500Y-92184108D01*
X143966392Y-92056814D01*
X143922180Y-91980236D01*
X143900502Y-91942689D01*
X143900494Y-91942679D01*
X143807320Y-91849505D01*
X143807310Y-91849497D01*
X143693190Y-91783610D01*
X143693187Y-91783609D01*
X143693186Y-91783608D01*
X143693184Y-91783607D01*
X143693183Y-91783607D01*
X143659073Y-91774467D01*
X143565892Y-91749500D01*
X143434108Y-91749500D01*
X143365894Y-91767777D01*
X143306816Y-91783607D01*
X143306809Y-91783610D01*
X143192689Y-91849497D01*
X143192679Y-91849505D01*
X143099505Y-91942679D01*
X143099497Y-91942689D01*
X143033610Y-92056809D01*
X143033607Y-92056816D01*
X143026428Y-92083610D01*
X142999500Y-92184108D01*
X142533992Y-92184108D01*
X142535769Y-92177475D01*
X142544944Y-92143238D01*
X142554374Y-92108038D01*
X142567976Y-92057278D01*
X142567976Y-91925494D01*
X142533868Y-91798200D01*
X142479457Y-91703957D01*
X142467978Y-91684075D01*
X142467970Y-91684065D01*
X142374796Y-91590891D01*
X142374786Y-91590883D01*
X142342379Y-91572173D01*
X155437566Y-91572173D01*
X155437566Y-91703957D01*
X155440353Y-91714358D01*
X155471673Y-91831248D01*
X155471676Y-91831255D01*
X155537563Y-91945375D01*
X155537571Y-91945385D01*
X155630745Y-92038559D01*
X155630750Y-92038563D01*
X155630752Y-92038565D01*
X155630753Y-92038566D01*
X155630755Y-92038567D01*
X155663160Y-92057276D01*
X155744880Y-92104457D01*
X155872174Y-92138565D01*
X155872176Y-92138565D01*
X156003956Y-92138565D01*
X156003958Y-92138565D01*
X156131252Y-92104457D01*
X156245380Y-92038565D01*
X156338566Y-91945379D01*
X156404458Y-91831251D01*
X156438566Y-91703957D01*
X156438566Y-91572173D01*
X156404458Y-91444879D01*
X156338566Y-91330751D01*
X156338564Y-91330749D01*
X156338560Y-91330744D01*
X156245386Y-91237570D01*
X156245376Y-91237562D01*
X156131256Y-91171675D01*
X156131253Y-91171674D01*
X156131252Y-91171673D01*
X156131250Y-91171672D01*
X156131249Y-91171672D01*
X156097139Y-91162532D01*
X156003958Y-91137565D01*
X155872174Y-91137565D01*
X155803960Y-91155842D01*
X155744882Y-91171672D01*
X155744875Y-91171675D01*
X155630755Y-91237562D01*
X155630745Y-91237570D01*
X155537571Y-91330744D01*
X155537563Y-91330754D01*
X155471676Y-91444874D01*
X155471673Y-91444881D01*
X155458426Y-91494322D01*
X155437566Y-91572173D01*
X142342379Y-91572173D01*
X142260666Y-91524996D01*
X142260663Y-91524995D01*
X142260662Y-91524994D01*
X142260660Y-91524993D01*
X142260659Y-91524993D01*
X142226549Y-91515853D01*
X142133368Y-91490886D01*
X142001584Y-91490886D01*
X141933370Y-91509163D01*
X141874292Y-91524993D01*
X141874285Y-91524996D01*
X141760165Y-91590883D01*
X141760155Y-91590891D01*
X141666981Y-91684065D01*
X141666973Y-91684075D01*
X141601086Y-91798195D01*
X141601084Y-91798200D01*
X141566976Y-91925494D01*
X135936022Y-91925494D01*
X135858559Y-91791324D01*
X135670995Y-91546888D01*
X135670993Y-91546886D01*
X135670991Y-91546883D01*
X135670985Y-91546877D01*
X135670976Y-91546867D01*
X135453132Y-91329023D01*
X135453111Y-91329004D01*
X135208675Y-91141440D01*
X134941842Y-90987384D01*
X134941834Y-90987380D01*
X134941830Y-90987378D01*
X134657164Y-90869465D01*
X134359544Y-90789718D01*
X134359542Y-90789717D01*
X134359536Y-90789716D01*
X134054062Y-90749500D01*
X134054060Y-90749500D01*
X133745940Y-90749500D01*
X133745937Y-90749500D01*
X133440463Y-90789716D01*
X133142836Y-90869465D01*
X132896518Y-90971494D01*
X132858168Y-90987379D01*
X132858157Y-90987384D01*
X132591324Y-91141440D01*
X132346888Y-91329004D01*
X132346867Y-91329023D01*
X132215595Y-91460296D01*
X132153283Y-91494322D01*
X132082468Y-91489257D01*
X132025632Y-91446710D01*
X132000821Y-91380190D01*
X132000500Y-91371201D01*
X132000500Y-90434108D01*
X139499500Y-90434108D01*
X139499500Y-90565892D01*
X139523179Y-90654264D01*
X139533607Y-90693183D01*
X139533610Y-90693190D01*
X139599497Y-90807310D01*
X139599505Y-90807320D01*
X139692679Y-90900494D01*
X139692684Y-90900498D01*
X139692686Y-90900500D01*
X139806814Y-90966392D01*
X139934108Y-91000500D01*
X139934110Y-91000500D01*
X140065890Y-91000500D01*
X140065892Y-91000500D01*
X140193186Y-90966392D01*
X140307314Y-90900500D01*
X140400500Y-90807314D01*
X140466392Y-90693186D01*
X140500500Y-90565892D01*
X140500500Y-90434108D01*
X141324500Y-90434108D01*
X141324500Y-90565892D01*
X141348179Y-90654264D01*
X141358607Y-90693183D01*
X141358610Y-90693190D01*
X141424497Y-90807310D01*
X141424505Y-90807320D01*
X141517679Y-90900494D01*
X141517684Y-90900498D01*
X141517686Y-90900500D01*
X141631814Y-90966392D01*
X141759108Y-91000500D01*
X141759110Y-91000500D01*
X141890890Y-91000500D01*
X141890892Y-91000500D01*
X142018186Y-90966392D01*
X142132314Y-90900500D01*
X142225500Y-90807314D01*
X142291392Y-90693186D01*
X142325500Y-90565892D01*
X142325500Y-90505108D01*
X154499500Y-90505108D01*
X154499500Y-90636892D01*
X154512310Y-90684699D01*
X154533607Y-90764183D01*
X154533610Y-90764190D01*
X154599497Y-90878310D01*
X154599505Y-90878320D01*
X154692679Y-90971494D01*
X154692684Y-90971498D01*
X154692686Y-90971500D01*
X154806814Y-91037392D01*
X154934108Y-91071500D01*
X154934110Y-91071500D01*
X155065890Y-91071500D01*
X155065892Y-91071500D01*
X155193186Y-91037392D01*
X155307314Y-90971500D01*
X155400500Y-90878314D01*
X155466392Y-90764186D01*
X155500500Y-90636892D01*
X155500500Y-90505108D01*
X157499500Y-90505108D01*
X157499500Y-90636892D01*
X157512310Y-90684699D01*
X157533607Y-90764183D01*
X157533610Y-90764190D01*
X157599497Y-90878310D01*
X157599505Y-90878320D01*
X157692679Y-90971494D01*
X157692684Y-90971498D01*
X157692686Y-90971500D01*
X157806814Y-91037392D01*
X157934108Y-91071500D01*
X157934110Y-91071500D01*
X158065890Y-91071500D01*
X158065892Y-91071500D01*
X158193186Y-91037392D01*
X158307314Y-90971500D01*
X158400500Y-90878314D01*
X158466392Y-90764186D01*
X158500500Y-90636892D01*
X158500500Y-90505108D01*
X158466392Y-90377814D01*
X158420329Y-90298030D01*
X158400502Y-90263689D01*
X158400494Y-90263679D01*
X158307320Y-90170505D01*
X158307310Y-90170497D01*
X158193190Y-90104610D01*
X158193187Y-90104609D01*
X158193186Y-90104608D01*
X158193184Y-90104607D01*
X158193183Y-90104607D01*
X158128867Y-90087374D01*
X158065892Y-90070500D01*
X157934108Y-90070500D01*
X157871133Y-90087374D01*
X157806816Y-90104607D01*
X157806809Y-90104610D01*
X157692689Y-90170497D01*
X157692679Y-90170505D01*
X157599505Y-90263679D01*
X157599497Y-90263689D01*
X157533610Y-90377809D01*
X157533608Y-90377814D01*
X157499500Y-90505108D01*
X155500500Y-90505108D01*
X155466392Y-90377814D01*
X155420329Y-90298030D01*
X155400502Y-90263689D01*
X155400494Y-90263679D01*
X155307320Y-90170505D01*
X155307310Y-90170497D01*
X155193190Y-90104610D01*
X155193187Y-90104609D01*
X155193186Y-90104608D01*
X155193184Y-90104607D01*
X155193183Y-90104607D01*
X155128867Y-90087374D01*
X155065892Y-90070500D01*
X154934108Y-90070500D01*
X154871133Y-90087374D01*
X154806816Y-90104607D01*
X154806809Y-90104610D01*
X154692689Y-90170497D01*
X154692679Y-90170505D01*
X154599505Y-90263679D01*
X154599497Y-90263689D01*
X154533610Y-90377809D01*
X154533608Y-90377814D01*
X154499500Y-90505108D01*
X142325500Y-90505108D01*
X142325500Y-90434108D01*
X142291392Y-90306814D01*
X142248949Y-90233300D01*
X142225502Y-90192689D01*
X142225494Y-90192679D01*
X142132320Y-90099505D01*
X142132310Y-90099497D01*
X142018190Y-90033610D01*
X142018187Y-90033609D01*
X142018186Y-90033608D01*
X142018184Y-90033607D01*
X142018183Y-90033607D01*
X141984073Y-90024467D01*
X141890892Y-89999500D01*
X141759108Y-89999500D01*
X141700977Y-90015076D01*
X141631816Y-90033607D01*
X141631809Y-90033610D01*
X141517689Y-90099497D01*
X141517679Y-90099505D01*
X141424505Y-90192679D01*
X141424497Y-90192689D01*
X141358610Y-90306809D01*
X141358608Y-90306814D01*
X141324500Y-90434108D01*
X140500500Y-90434108D01*
X140466392Y-90306814D01*
X140423949Y-90233300D01*
X140400502Y-90192689D01*
X140400494Y-90192679D01*
X140307320Y-90099505D01*
X140307310Y-90099497D01*
X140193190Y-90033610D01*
X140193187Y-90033609D01*
X140193186Y-90033608D01*
X140193184Y-90033607D01*
X140193183Y-90033607D01*
X140159073Y-90024467D01*
X140065892Y-89999500D01*
X139934108Y-89999500D01*
X139875977Y-90015076D01*
X139806816Y-90033607D01*
X139806809Y-90033610D01*
X139692689Y-90099497D01*
X139692679Y-90099505D01*
X139599505Y-90192679D01*
X139599497Y-90192689D01*
X139533610Y-90306809D01*
X139533608Y-90306814D01*
X139499500Y-90434108D01*
X132000500Y-90434108D01*
X132000500Y-88895263D01*
X132259132Y-88895263D01*
X132259132Y-89104735D01*
X132291139Y-89306816D01*
X132291902Y-89311634D01*
X132356629Y-89510844D01*
X132356631Y-89510849D01*
X132451730Y-89697490D01*
X132574855Y-89866957D01*
X132574857Y-89866959D01*
X132574859Y-89866962D01*
X132722968Y-90015071D01*
X132722971Y-90015073D01*
X132722974Y-90015076D01*
X132892441Y-90138201D01*
X133079082Y-90233300D01*
X133278296Y-90298028D01*
X133278297Y-90298028D01*
X133278302Y-90298030D01*
X133485196Y-90330799D01*
X133485199Y-90330799D01*
X133694665Y-90330799D01*
X133694668Y-90330799D01*
X133901562Y-90298030D01*
X134100782Y-90233300D01*
X134287423Y-90138201D01*
X134456890Y-90015076D01*
X134605009Y-89866957D01*
X134728134Y-89697490D01*
X134823233Y-89510849D01*
X134848167Y-89434108D01*
X137499500Y-89434108D01*
X137499500Y-89565892D01*
X137506828Y-89593239D01*
X137533607Y-89693183D01*
X137533610Y-89693190D01*
X137599497Y-89807310D01*
X137599505Y-89807320D01*
X137692679Y-89900494D01*
X137692684Y-89900498D01*
X137692686Y-89900500D01*
X137806814Y-89966392D01*
X137934108Y-90000500D01*
X137934110Y-90000500D01*
X138065890Y-90000500D01*
X138065892Y-90000500D01*
X138193186Y-89966392D01*
X138307314Y-89900500D01*
X138400500Y-89807314D01*
X138466392Y-89693186D01*
X138482222Y-89634108D01*
X149174500Y-89634108D01*
X149174500Y-89765892D01*
X149197924Y-89853314D01*
X149208607Y-89893183D01*
X149208610Y-89893190D01*
X149274497Y-90007310D01*
X149274505Y-90007320D01*
X149367679Y-90100494D01*
X149367684Y-90100498D01*
X149367686Y-90100500D01*
X149367687Y-90100501D01*
X149367689Y-90100502D01*
X149432981Y-90138198D01*
X149481814Y-90166392D01*
X149609108Y-90200500D01*
X149609110Y-90200500D01*
X149740890Y-90200500D01*
X149740892Y-90200500D01*
X149868186Y-90166392D01*
X149982314Y-90100500D01*
X150075500Y-90007314D01*
X150141392Y-89893186D01*
X150175500Y-89765892D01*
X150175500Y-89634108D01*
X150141392Y-89506814D01*
X150099415Y-89434108D01*
X160499500Y-89434108D01*
X160499500Y-89565892D01*
X160506828Y-89593239D01*
X160533607Y-89693183D01*
X160533610Y-89693190D01*
X160599497Y-89807310D01*
X160599505Y-89807320D01*
X160692679Y-89900494D01*
X160692684Y-89900498D01*
X160692686Y-89900500D01*
X160806814Y-89966392D01*
X160934108Y-90000500D01*
X160934110Y-90000500D01*
X161065890Y-90000500D01*
X161065892Y-90000500D01*
X161193186Y-89966392D01*
X161193188Y-89966390D01*
X161195889Y-89965667D01*
X161266865Y-89967357D01*
X161325661Y-90007151D01*
X161353609Y-90072415D01*
X161354500Y-90087374D01*
X161354500Y-90654266D01*
X161357354Y-90684700D01*
X161357355Y-90684704D01*
X161402206Y-90812881D01*
X161402208Y-90812885D01*
X161482849Y-90922150D01*
X161592114Y-91002791D01*
X161592118Y-91002793D01*
X161690996Y-91037392D01*
X161720301Y-91047646D01*
X161750734Y-91050500D01*
X161750736Y-91050500D01*
X163359264Y-91050500D01*
X163359266Y-91050500D01*
X163389699Y-91047646D01*
X163517882Y-91002793D01*
X163538768Y-90987379D01*
X163627150Y-90922150D01*
X163655226Y-90884108D01*
X167174500Y-90884108D01*
X167174500Y-91015892D01*
X167183773Y-91050499D01*
X167208607Y-91143183D01*
X167208610Y-91143190D01*
X167274497Y-91257310D01*
X167274505Y-91257320D01*
X167367679Y-91350494D01*
X167367684Y-91350498D01*
X167367686Y-91350500D01*
X167481814Y-91416392D01*
X167609108Y-91450500D01*
X167609110Y-91450500D01*
X167740890Y-91450500D01*
X167740892Y-91450500D01*
X167868186Y-91416392D01*
X167982314Y-91350500D01*
X168075500Y-91257314D01*
X168141392Y-91143186D01*
X168175500Y-91015892D01*
X168175500Y-90884108D01*
X168141392Y-90756814D01*
X168075500Y-90642686D01*
X168075498Y-90642684D01*
X168075494Y-90642679D01*
X167982320Y-90549505D01*
X167982310Y-90549497D01*
X167868190Y-90483610D01*
X167868187Y-90483609D01*
X167868186Y-90483608D01*
X167868184Y-90483607D01*
X167868183Y-90483607D01*
X167834073Y-90474467D01*
X167740892Y-90449500D01*
X167609108Y-90449500D01*
X167540894Y-90467777D01*
X167481816Y-90483607D01*
X167481809Y-90483610D01*
X167367689Y-90549497D01*
X167367679Y-90549505D01*
X167274505Y-90642679D01*
X167274497Y-90642689D01*
X167208610Y-90756809D01*
X167208607Y-90756816D01*
X167199792Y-90789716D01*
X167174500Y-90884108D01*
X163655226Y-90884108D01*
X163707788Y-90812889D01*
X163707788Y-90812888D01*
X163707793Y-90812882D01*
X163752646Y-90684699D01*
X163755500Y-90654266D01*
X163755500Y-89345734D01*
X163752646Y-89315301D01*
X163724060Y-89233608D01*
X163707793Y-89187118D01*
X163707791Y-89187114D01*
X163627150Y-89077849D01*
X163517885Y-88997208D01*
X163517881Y-88997206D01*
X163389704Y-88952355D01*
X163389700Y-88952354D01*
X163359266Y-88949500D01*
X161750734Y-88949500D01*
X161750733Y-88949500D01*
X161720299Y-88952354D01*
X161720295Y-88952355D01*
X161592118Y-88997206D01*
X161592114Y-88997208D01*
X161482848Y-89077850D01*
X161476173Y-89084526D01*
X161474393Y-89082746D01*
X161428846Y-89117314D01*
X161358065Y-89122845D01*
X161314846Y-89102970D01*
X161314466Y-89103629D01*
X161307369Y-89099531D01*
X161307335Y-89099516D01*
X161307313Y-89099499D01*
X161193190Y-89033610D01*
X161193187Y-89033609D01*
X161193186Y-89033608D01*
X161193184Y-89033607D01*
X161193183Y-89033607D01*
X161159073Y-89024467D01*
X161065892Y-88999500D01*
X160934108Y-88999500D01*
X160865894Y-89017777D01*
X160806816Y-89033607D01*
X160806809Y-89033610D01*
X160692689Y-89099497D01*
X160692679Y-89099505D01*
X160599505Y-89192679D01*
X160599497Y-89192689D01*
X160533610Y-89306809D01*
X160533607Y-89306816D01*
X160523179Y-89345735D01*
X160499500Y-89434108D01*
X150099415Y-89434108D01*
X150075500Y-89392686D01*
X150075498Y-89392684D01*
X150075494Y-89392679D01*
X149982320Y-89299505D01*
X149982310Y-89299497D01*
X149868190Y-89233610D01*
X149868187Y-89233609D01*
X149868186Y-89233608D01*
X149868184Y-89233607D01*
X149868183Y-89233607D01*
X149834073Y-89224467D01*
X149740892Y-89199500D01*
X149609108Y-89199500D01*
X149540894Y-89217777D01*
X149481816Y-89233607D01*
X149481809Y-89233610D01*
X149367689Y-89299497D01*
X149367679Y-89299505D01*
X149274505Y-89392679D01*
X149274497Y-89392689D01*
X149208610Y-89506809D01*
X149208607Y-89506816D01*
X149192779Y-89565890D01*
X149174500Y-89634108D01*
X138482222Y-89634108D01*
X138500500Y-89565892D01*
X138500500Y-89434108D01*
X138466392Y-89306814D01*
X138424128Y-89233610D01*
X138400502Y-89192689D01*
X138400494Y-89192679D01*
X138307320Y-89099505D01*
X138307310Y-89099497D01*
X138193190Y-89033610D01*
X138193187Y-89033609D01*
X138193186Y-89033608D01*
X138193184Y-89033607D01*
X138193183Y-89033607D01*
X138159073Y-89024467D01*
X138065892Y-88999500D01*
X137934108Y-88999500D01*
X137865894Y-89017777D01*
X137806816Y-89033607D01*
X137806809Y-89033610D01*
X137692689Y-89099497D01*
X137692679Y-89099505D01*
X137599505Y-89192679D01*
X137599497Y-89192689D01*
X137533610Y-89306809D01*
X137533607Y-89306816D01*
X137523179Y-89345735D01*
X137499500Y-89434108D01*
X134848167Y-89434108D01*
X134863502Y-89386914D01*
X134886770Y-89315301D01*
X134887963Y-89311629D01*
X134920732Y-89104735D01*
X134920732Y-88895263D01*
X134887963Y-88688369D01*
X134823233Y-88489149D01*
X134728134Y-88302508D01*
X134605009Y-88133041D01*
X134605006Y-88133038D01*
X134605004Y-88133035D01*
X134456895Y-87984926D01*
X134456892Y-87984924D01*
X134456890Y-87984922D01*
X134287423Y-87861797D01*
X134100782Y-87766698D01*
X134100779Y-87766697D01*
X134100777Y-87766696D01*
X133901565Y-87701969D01*
X133901569Y-87701969D01*
X133846096Y-87693183D01*
X133694668Y-87669199D01*
X133485196Y-87669199D01*
X133278302Y-87701968D01*
X133278296Y-87701969D01*
X133079086Y-87766696D01*
X133079080Y-87766699D01*
X132892437Y-87861799D01*
X132722971Y-87984924D01*
X132722968Y-87984926D01*
X132574859Y-88133035D01*
X132574857Y-88133038D01*
X132451732Y-88302504D01*
X132356632Y-88489147D01*
X132356629Y-88489153D01*
X132291902Y-88688363D01*
X132291901Y-88688368D01*
X132291901Y-88688369D01*
X132259132Y-88895263D01*
X132000500Y-88895263D01*
X132000500Y-86006365D01*
X132020502Y-85938244D01*
X132074158Y-85891751D01*
X132144432Y-85881647D01*
X132209012Y-85911141D01*
X132226463Y-85929662D01*
X132233855Y-85939296D01*
X132233870Y-85939313D01*
X132400687Y-86106130D01*
X132400697Y-86106139D01*
X132400698Y-86106140D01*
X132554948Y-86224500D01*
X132587888Y-86249775D01*
X132647356Y-86284109D01*
X132792217Y-86367745D01*
X133010201Y-86458037D01*
X133238104Y-86519103D01*
X133238108Y-86519103D01*
X133238110Y-86519104D01*
X133298396Y-86527040D01*
X133472029Y-86549900D01*
X133472036Y-86549900D01*
X133707966Y-86549900D01*
X133707973Y-86549900D01*
X133919384Y-86522066D01*
X133941891Y-86519104D01*
X133941891Y-86519103D01*
X133941898Y-86519103D01*
X134169801Y-86458037D01*
X134303399Y-86402699D01*
X140512100Y-86402699D01*
X140512100Y-86597304D01*
X140529350Y-86684024D01*
X140550064Y-86788162D01*
X140624534Y-86967948D01*
X140732648Y-87129752D01*
X140870250Y-87267354D01*
X141032054Y-87375468D01*
X141211840Y-87449938D01*
X141402700Y-87487902D01*
X141402701Y-87487902D01*
X141597299Y-87487902D01*
X141597300Y-87487902D01*
X141788160Y-87449938D01*
X141967946Y-87375468D01*
X142129750Y-87267354D01*
X142267352Y-87129752D01*
X142375466Y-86967948D01*
X142399838Y-86909108D01*
X144299500Y-86909108D01*
X144299500Y-87040892D01*
X144315203Y-87099497D01*
X144333607Y-87168183D01*
X144333610Y-87168190D01*
X144399497Y-87282310D01*
X144399505Y-87282320D01*
X144492679Y-87375494D01*
X144492684Y-87375498D01*
X144492686Y-87375500D01*
X144492687Y-87375501D01*
X144492689Y-87375502D01*
X144529121Y-87396536D01*
X144606814Y-87441392D01*
X144734108Y-87475500D01*
X144734110Y-87475500D01*
X144865890Y-87475500D01*
X144865892Y-87475500D01*
X144993186Y-87441392D01*
X145107314Y-87375500D01*
X145200500Y-87282314D01*
X145266392Y-87168186D01*
X145300500Y-87040892D01*
X145300500Y-86909108D01*
X145300500Y-86909107D01*
X147499500Y-86909107D01*
X147499500Y-87040891D01*
X147522169Y-87125494D01*
X147533607Y-87168182D01*
X147533610Y-87168189D01*
X147599497Y-87282309D01*
X147599505Y-87282319D01*
X147692679Y-87375493D01*
X147692684Y-87375497D01*
X147692686Y-87375499D01*
X147692687Y-87375500D01*
X147692689Y-87375501D01*
X147772906Y-87421814D01*
X147806814Y-87441391D01*
X147934108Y-87475499D01*
X147934110Y-87475499D01*
X148065890Y-87475499D01*
X148065892Y-87475499D01*
X148193186Y-87441391D01*
X148205800Y-87434108D01*
X156999500Y-87434108D01*
X156999500Y-87565892D01*
X157008451Y-87599297D01*
X157033607Y-87693183D01*
X157033610Y-87693190D01*
X157099497Y-87807310D01*
X157099505Y-87807320D01*
X157192679Y-87900494D01*
X157192684Y-87900498D01*
X157192686Y-87900500D01*
X157306814Y-87966392D01*
X157434108Y-88000500D01*
X157439187Y-88000500D01*
X157507308Y-88020502D01*
X157553801Y-88074158D01*
X157565187Y-88126500D01*
X157565187Y-88131579D01*
X157590154Y-88224760D01*
X157599294Y-88258870D01*
X157599297Y-88258877D01*
X157665184Y-88372997D01*
X157665192Y-88373007D01*
X157758366Y-88466181D01*
X157758371Y-88466185D01*
X157758373Y-88466187D01*
X157872501Y-88532079D01*
X157999795Y-88566187D01*
X157999797Y-88566187D01*
X158131577Y-88566187D01*
X158131579Y-88566187D01*
X158258873Y-88532079D01*
X158373001Y-88466187D01*
X158466187Y-88373001D01*
X158532079Y-88258873D01*
X158566187Y-88131579D01*
X158566187Y-87999795D01*
X158532079Y-87872501D01*
X158470994Y-87766699D01*
X158466189Y-87758376D01*
X158466181Y-87758366D01*
X158373007Y-87665192D01*
X158372997Y-87665184D01*
X158258877Y-87599297D01*
X158258874Y-87599296D01*
X158258873Y-87599295D01*
X158258871Y-87599294D01*
X158258870Y-87599294D01*
X158224760Y-87590154D01*
X158131579Y-87565187D01*
X158131577Y-87565187D01*
X158126500Y-87565187D01*
X158058379Y-87545185D01*
X158011886Y-87491529D01*
X158001877Y-87457767D01*
X158000500Y-87448532D01*
X158000500Y-87434108D01*
X157990432Y-87396532D01*
X161354500Y-87396532D01*
X161354500Y-87603467D01*
X161386968Y-87766696D01*
X161394870Y-87806420D01*
X161474059Y-87997598D01*
X161589023Y-88169655D01*
X161589024Y-88169656D01*
X161589029Y-88169662D01*
X161735337Y-88315970D01*
X161735343Y-88315975D01*
X161735345Y-88315977D01*
X161907402Y-88430941D01*
X162098580Y-88510130D01*
X162301535Y-88550500D01*
X162301536Y-88550500D01*
X162808464Y-88550500D01*
X162808465Y-88550500D01*
X163011420Y-88510130D01*
X163202598Y-88430941D01*
X163374655Y-88315977D01*
X163520977Y-88169655D01*
X163635941Y-87997598D01*
X163715130Y-87806420D01*
X163755500Y-87603465D01*
X163755500Y-87396535D01*
X163715130Y-87193580D01*
X163635941Y-87002402D01*
X163520977Y-86830345D01*
X163520975Y-86830343D01*
X163520970Y-86830337D01*
X163374662Y-86684029D01*
X163374656Y-86684024D01*
X163350209Y-86667689D01*
X163202598Y-86569059D01*
X163011420Y-86489870D01*
X162808467Y-86449500D01*
X162808465Y-86449500D01*
X162301535Y-86449500D01*
X162301532Y-86449500D01*
X162098579Y-86489870D01*
X162098574Y-86489872D01*
X161907402Y-86569059D01*
X161735343Y-86684024D01*
X161735337Y-86684029D01*
X161589029Y-86830337D01*
X161589024Y-86830343D01*
X161474059Y-87002402D01*
X161394872Y-87193574D01*
X161394870Y-87193579D01*
X161354500Y-87396532D01*
X157990432Y-87396532D01*
X157985339Y-87377525D01*
X157987029Y-87306551D01*
X158026824Y-87247755D01*
X158074431Y-87223211D01*
X158193186Y-87191392D01*
X158307314Y-87125500D01*
X158400500Y-87032314D01*
X158466392Y-86918186D01*
X158500500Y-86790892D01*
X158500500Y-86659108D01*
X158466392Y-86531814D01*
X158433301Y-86474499D01*
X158400502Y-86417689D01*
X158400494Y-86417679D01*
X158307320Y-86324505D01*
X158307310Y-86324497D01*
X158193190Y-86258610D01*
X158193187Y-86258609D01*
X158193186Y-86258608D01*
X158193184Y-86258607D01*
X158193183Y-86258607D01*
X158159073Y-86249467D01*
X158065892Y-86224500D01*
X157934108Y-86224500D01*
X157865894Y-86242777D01*
X157806816Y-86258607D01*
X157806809Y-86258610D01*
X157692689Y-86324497D01*
X157692679Y-86324505D01*
X157599505Y-86417679D01*
X157599497Y-86417689D01*
X157533610Y-86531809D01*
X157533607Y-86531816D01*
X157499500Y-86659109D01*
X157499500Y-86790892D01*
X157514660Y-86847472D01*
X157512970Y-86918449D01*
X157473175Y-86977244D01*
X157425565Y-87001789D01*
X157306814Y-87033608D01*
X157306809Y-87033610D01*
X157192689Y-87099497D01*
X157192679Y-87099505D01*
X157099505Y-87192679D01*
X157099497Y-87192689D01*
X157033610Y-87306809D01*
X157033607Y-87306816D01*
X157015203Y-87375502D01*
X156999500Y-87434108D01*
X148205800Y-87434108D01*
X148307314Y-87375499D01*
X148307346Y-87375467D01*
X148346059Y-87336755D01*
X148400494Y-87282319D01*
X148400500Y-87282313D01*
X148466392Y-87168185D01*
X148500500Y-87040891D01*
X148500500Y-86909107D01*
X148466392Y-86781813D01*
X148409936Y-86684029D01*
X148400502Y-86667688D01*
X148400501Y-86667686D01*
X148400500Y-86667685D01*
X148400498Y-86667683D01*
X148400494Y-86667678D01*
X148307320Y-86574504D01*
X148307310Y-86574496D01*
X148193190Y-86508609D01*
X148193187Y-86508608D01*
X148193186Y-86508607D01*
X148193184Y-86508606D01*
X148193183Y-86508606D01*
X148123265Y-86489872D01*
X148065892Y-86474499D01*
X147934108Y-86474499D01*
X147876742Y-86489870D01*
X147806816Y-86508606D01*
X147806809Y-86508609D01*
X147692689Y-86574496D01*
X147692679Y-86574504D01*
X147599505Y-86667678D01*
X147599497Y-86667688D01*
X147533610Y-86781808D01*
X147533607Y-86781815D01*
X147511983Y-86862516D01*
X147499500Y-86909107D01*
X145300500Y-86909107D01*
X145266392Y-86781814D01*
X145200500Y-86667686D01*
X145200498Y-86667684D01*
X145200494Y-86667679D01*
X145107320Y-86574505D01*
X145107310Y-86574497D01*
X144993190Y-86508610D01*
X144993187Y-86508609D01*
X144993186Y-86508608D01*
X144993184Y-86508607D01*
X144993183Y-86508607D01*
X144959073Y-86499467D01*
X144865892Y-86474500D01*
X144734108Y-86474500D01*
X144665894Y-86492777D01*
X144606816Y-86508607D01*
X144606809Y-86508610D01*
X144492689Y-86574497D01*
X144492679Y-86574505D01*
X144399505Y-86667679D01*
X144399497Y-86667689D01*
X144333610Y-86781809D01*
X144333607Y-86781816D01*
X144324343Y-86816392D01*
X144299500Y-86909108D01*
X142399838Y-86909108D01*
X142449936Y-86788162D01*
X142487900Y-86597302D01*
X142487900Y-86402702D01*
X142464310Y-86284108D01*
X150999500Y-86284108D01*
X150999500Y-86415892D01*
X151015204Y-86474499D01*
X151033607Y-86543183D01*
X151033610Y-86543190D01*
X151099497Y-86657310D01*
X151099505Y-86657320D01*
X151192679Y-86750494D01*
X151192684Y-86750498D01*
X151192686Y-86750500D01*
X151192687Y-86750501D01*
X151192689Y-86750502D01*
X151246923Y-86781814D01*
X151306814Y-86816392D01*
X151434108Y-86850500D01*
X151434110Y-86850500D01*
X151565890Y-86850500D01*
X151565892Y-86850500D01*
X151693186Y-86816392D01*
X151807314Y-86750500D01*
X151900500Y-86657314D01*
X151966392Y-86543186D01*
X152000500Y-86415892D01*
X152000500Y-86284108D01*
X151966392Y-86156814D01*
X151938149Y-86107896D01*
X151900502Y-86042689D01*
X151900494Y-86042679D01*
X151807320Y-85949505D01*
X151807310Y-85949497D01*
X151780655Y-85934108D01*
X153157052Y-85934108D01*
X153157052Y-86065892D01*
X153168305Y-86107888D01*
X153191159Y-86193183D01*
X153191162Y-86193190D01*
X153257049Y-86307310D01*
X153257057Y-86307320D01*
X153350231Y-86400494D01*
X153350236Y-86400498D01*
X153350238Y-86400500D01*
X153350239Y-86400501D01*
X153350241Y-86400502D01*
X153379993Y-86417679D01*
X153464366Y-86466392D01*
X153591660Y-86500500D01*
X153591662Y-86500500D01*
X153723442Y-86500500D01*
X153723444Y-86500500D01*
X153850738Y-86466392D01*
X153964866Y-86400500D01*
X154058052Y-86307314D01*
X154123944Y-86193186D01*
X154158052Y-86065892D01*
X154158052Y-85934108D01*
X158882052Y-85934108D01*
X158882052Y-86065892D01*
X158893305Y-86107888D01*
X158916159Y-86193183D01*
X158916162Y-86193190D01*
X158982049Y-86307310D01*
X158982057Y-86307320D01*
X159075231Y-86400494D01*
X159075236Y-86400498D01*
X159075238Y-86400500D01*
X159075239Y-86400501D01*
X159075241Y-86400502D01*
X159104993Y-86417679D01*
X159189366Y-86466392D01*
X159316660Y-86500500D01*
X159316662Y-86500500D01*
X159448442Y-86500500D01*
X159448444Y-86500500D01*
X159575738Y-86466392D01*
X159689866Y-86400500D01*
X159783052Y-86307314D01*
X159848944Y-86193186D01*
X159883052Y-86065892D01*
X159883052Y-85934108D01*
X159848944Y-85806814D01*
X159817362Y-85752112D01*
X159783054Y-85692689D01*
X159783046Y-85692679D01*
X159689872Y-85599505D01*
X159689862Y-85599497D01*
X159575742Y-85533610D01*
X159575739Y-85533609D01*
X159575738Y-85533608D01*
X159575736Y-85533607D01*
X159575735Y-85533607D01*
X159541625Y-85524467D01*
X159448444Y-85499500D01*
X159316660Y-85499500D01*
X159248446Y-85517777D01*
X159189368Y-85533607D01*
X159189361Y-85533610D01*
X159075241Y-85599497D01*
X159075231Y-85599505D01*
X158982057Y-85692679D01*
X158982049Y-85692689D01*
X158916162Y-85806809D01*
X158916159Y-85806816D01*
X158901831Y-85860291D01*
X158882052Y-85934108D01*
X154158052Y-85934108D01*
X154123944Y-85806814D01*
X154092362Y-85752112D01*
X154058054Y-85692689D01*
X154058046Y-85692679D01*
X153964872Y-85599505D01*
X153964862Y-85599497D01*
X153850742Y-85533610D01*
X153850739Y-85533609D01*
X153850738Y-85533608D01*
X153850736Y-85533607D01*
X153850735Y-85533607D01*
X153816625Y-85524467D01*
X153723444Y-85499500D01*
X153591660Y-85499500D01*
X153523446Y-85517777D01*
X153464368Y-85533607D01*
X153464361Y-85533610D01*
X153350241Y-85599497D01*
X153350231Y-85599505D01*
X153257057Y-85692679D01*
X153257049Y-85692689D01*
X153191162Y-85806809D01*
X153191159Y-85806816D01*
X153176831Y-85860291D01*
X153157052Y-85934108D01*
X151780655Y-85934108D01*
X151693190Y-85883610D01*
X151693187Y-85883609D01*
X151693186Y-85883608D01*
X151693184Y-85883607D01*
X151693183Y-85883607D01*
X151643329Y-85870249D01*
X151565892Y-85849500D01*
X151434108Y-85849500D01*
X151365894Y-85867777D01*
X151306816Y-85883607D01*
X151306809Y-85883610D01*
X151192689Y-85949497D01*
X151192679Y-85949505D01*
X151099505Y-86042679D01*
X151099497Y-86042689D01*
X151033610Y-86156809D01*
X151033607Y-86156816D01*
X151020792Y-86204645D01*
X150999500Y-86284108D01*
X142464310Y-86284108D01*
X142449936Y-86211842D01*
X142375466Y-86032056D01*
X142267352Y-85870252D01*
X142129750Y-85732650D01*
X141967946Y-85624536D01*
X141788160Y-85550066D01*
X141776713Y-85547789D01*
X141597302Y-85512102D01*
X141597300Y-85512102D01*
X141402700Y-85512102D01*
X141402697Y-85512102D01*
X141211839Y-85550066D01*
X141211834Y-85550068D01*
X141032054Y-85624536D01*
X140870254Y-85732647D01*
X140870247Y-85732652D01*
X140732650Y-85870249D01*
X140732645Y-85870256D01*
X140624534Y-86032056D01*
X140550066Y-86211836D01*
X140550064Y-86211841D01*
X140512100Y-86402699D01*
X134303399Y-86402699D01*
X134387785Y-86367745D01*
X134532648Y-86284108D01*
X134576816Y-86258607D01*
X134592117Y-86249773D01*
X134779304Y-86106140D01*
X134946141Y-85939303D01*
X135089774Y-85752116D01*
X135207746Y-85547784D01*
X135298038Y-85329800D01*
X135359104Y-85101897D01*
X135389901Y-84867972D01*
X135389901Y-84632028D01*
X135359104Y-84398103D01*
X135298038Y-84170200D01*
X135207746Y-83952216D01*
X135101012Y-83767349D01*
X135089776Y-83747887D01*
X135079436Y-83734412D01*
X134946141Y-83560697D01*
X134946140Y-83560696D01*
X134946131Y-83560686D01*
X134779314Y-83393869D01*
X134779304Y-83393860D01*
X134592113Y-83250224D01*
X134387790Y-83132258D01*
X134387781Y-83132253D01*
X134204896Y-83056500D01*
X134169801Y-83041963D01*
X133941898Y-82980897D01*
X133941891Y-82980895D01*
X133707975Y-82950100D01*
X133707973Y-82950100D01*
X133472029Y-82950100D01*
X133472026Y-82950100D01*
X133238110Y-82980895D01*
X133010201Y-83041963D01*
X132792220Y-83132253D01*
X132792211Y-83132258D01*
X132587888Y-83250224D01*
X132400697Y-83393860D01*
X132400687Y-83393869D01*
X132233870Y-83560686D01*
X132233856Y-83560702D01*
X132226461Y-83570340D01*
X132169122Y-83612206D01*
X132098251Y-83616426D01*
X132036348Y-83581661D01*
X132003069Y-83518947D01*
X132000500Y-83493634D01*
X132000500Y-82902697D01*
X140512100Y-82902697D01*
X140512100Y-83097302D01*
X140543910Y-83257221D01*
X140550064Y-83288160D01*
X140624534Y-83467946D01*
X140732648Y-83629750D01*
X140870250Y-83767352D01*
X141032054Y-83875466D01*
X141211840Y-83949936D01*
X141402700Y-83987900D01*
X141402701Y-83987900D01*
X141597299Y-83987900D01*
X141597300Y-83987900D01*
X141788160Y-83949936D01*
X141967946Y-83875466D01*
X142129750Y-83767352D01*
X142267352Y-83629750D01*
X142375466Y-83467946D01*
X142449936Y-83288160D01*
X142487900Y-83097300D01*
X142487900Y-82902700D01*
X142449936Y-82711840D01*
X142375466Y-82532054D01*
X142267352Y-82370250D01*
X142129750Y-82232648D01*
X141967946Y-82124534D01*
X141788160Y-82050064D01*
X141597302Y-82012100D01*
X141597300Y-82012100D01*
X141402700Y-82012100D01*
X141402697Y-82012100D01*
X141211839Y-82050064D01*
X141211834Y-82050066D01*
X141032054Y-82124534D01*
X140870254Y-82232645D01*
X140870247Y-82232650D01*
X140732650Y-82370247D01*
X140732645Y-82370254D01*
X140624534Y-82532054D01*
X140550066Y-82711834D01*
X140550064Y-82711839D01*
X140512100Y-82902697D01*
X132000500Y-82902697D01*
X132000500Y-80395265D01*
X132259132Y-80395265D01*
X132259132Y-80604737D01*
X132291901Y-80811631D01*
X132291902Y-80811636D01*
X132356629Y-81010846D01*
X132356631Y-81010851D01*
X132451730Y-81197492D01*
X132574855Y-81366959D01*
X132574857Y-81366961D01*
X132574859Y-81366964D01*
X132722968Y-81515073D01*
X132722971Y-81515075D01*
X132722974Y-81515078D01*
X132892441Y-81638203D01*
X133079082Y-81733302D01*
X133278296Y-81798030D01*
X133278297Y-81798030D01*
X133278302Y-81798032D01*
X133485196Y-81830801D01*
X133485199Y-81830801D01*
X133694665Y-81830801D01*
X133694668Y-81830801D01*
X133901562Y-81798032D01*
X134100782Y-81733302D01*
X134287423Y-81638203D01*
X134456890Y-81515078D01*
X134605009Y-81366959D01*
X134728134Y-81197492D01*
X134823233Y-81010851D01*
X134887963Y-80811631D01*
X134920732Y-80604737D01*
X134920732Y-80395265D01*
X134887963Y-80188371D01*
X134823233Y-79989151D01*
X134728134Y-79802510D01*
X134605009Y-79633043D01*
X134605006Y-79633040D01*
X134605004Y-79633037D01*
X134456895Y-79484928D01*
X134456892Y-79484926D01*
X134456890Y-79484924D01*
X134306804Y-79375880D01*
X134287426Y-79361801D01*
X134287425Y-79361800D01*
X134287423Y-79361799D01*
X134100782Y-79266700D01*
X134100779Y-79266699D01*
X134100777Y-79266698D01*
X133901565Y-79201971D01*
X133901569Y-79201971D01*
X133863048Y-79195870D01*
X133694668Y-79169201D01*
X133485196Y-79169201D01*
X133278302Y-79201970D01*
X133278296Y-79201971D01*
X133079086Y-79266698D01*
X133079080Y-79266701D01*
X132892437Y-79361801D01*
X132722971Y-79484926D01*
X132722968Y-79484928D01*
X132574859Y-79633037D01*
X132574857Y-79633040D01*
X132451732Y-79802506D01*
X132356632Y-79989149D01*
X132356629Y-79989155D01*
X132291902Y-80188365D01*
X132291901Y-80188370D01*
X132291901Y-80188371D01*
X132259132Y-80395265D01*
X132000500Y-80395265D01*
X132000500Y-77395262D01*
X132259132Y-77395262D01*
X132259132Y-77604734D01*
X132291901Y-77811628D01*
X132291902Y-77811633D01*
X132356629Y-78010843D01*
X132356631Y-78010848D01*
X132451730Y-78197489D01*
X132574855Y-78366956D01*
X132574857Y-78366958D01*
X132574859Y-78366961D01*
X132722968Y-78515070D01*
X132722971Y-78515072D01*
X132722974Y-78515075D01*
X132892441Y-78638200D01*
X133079082Y-78733299D01*
X133278296Y-78798027D01*
X133278297Y-78798027D01*
X133278302Y-78798029D01*
X133485196Y-78830798D01*
X133485199Y-78830798D01*
X133694665Y-78830798D01*
X133694668Y-78830798D01*
X133901562Y-78798029D01*
X134100782Y-78733299D01*
X134287423Y-78638200D01*
X134456890Y-78515075D01*
X134605009Y-78366956D01*
X134728134Y-78197489D01*
X134823233Y-78010848D01*
X134887963Y-77811628D01*
X134920732Y-77604734D01*
X134920732Y-77395262D01*
X134887963Y-77188368D01*
X134823233Y-76989148D01*
X134728134Y-76802507D01*
X134605009Y-76633040D01*
X134605006Y-76633037D01*
X134605004Y-76633034D01*
X134456895Y-76484925D01*
X134456892Y-76484923D01*
X134456890Y-76484921D01*
X134287423Y-76361796D01*
X134100782Y-76266697D01*
X134100779Y-76266696D01*
X134100777Y-76266695D01*
X133901565Y-76201968D01*
X133901569Y-76201968D01*
X133863048Y-76195867D01*
X133694668Y-76169198D01*
X133485196Y-76169198D01*
X133278302Y-76201967D01*
X133278296Y-76201968D01*
X133079086Y-76266695D01*
X133079080Y-76266698D01*
X132892437Y-76361798D01*
X132722971Y-76484923D01*
X132722968Y-76484925D01*
X132574859Y-76633034D01*
X132574857Y-76633037D01*
X132451732Y-76802503D01*
X132356632Y-76989146D01*
X132356629Y-76989152D01*
X132291902Y-77188362D01*
X132291901Y-77188367D01*
X132291901Y-77188368D01*
X132259132Y-77395262D01*
X132000500Y-77395262D01*
X132000500Y-74506364D01*
X132020502Y-74438243D01*
X132074158Y-74391750D01*
X132144432Y-74381646D01*
X132209012Y-74411140D01*
X132226463Y-74429661D01*
X132233855Y-74439295D01*
X132233870Y-74439312D01*
X132400687Y-74606129D01*
X132400697Y-74606138D01*
X132400698Y-74606139D01*
X132587885Y-74749772D01*
X132792217Y-74867744D01*
X133010201Y-74958036D01*
X133238104Y-75019102D01*
X133238108Y-75019102D01*
X133238110Y-75019103D01*
X133298396Y-75027039D01*
X133472029Y-75049899D01*
X133472036Y-75049899D01*
X133707966Y-75049899D01*
X133707973Y-75049899D01*
X133919384Y-75022065D01*
X133941891Y-75019103D01*
X133941891Y-75019102D01*
X133941898Y-75019102D01*
X134169801Y-74958036D01*
X134387785Y-74867744D01*
X134592117Y-74749772D01*
X134779304Y-74606139D01*
X134946141Y-74439302D01*
X135089774Y-74252115D01*
X135207746Y-74047783D01*
X135298038Y-73829799D01*
X135359104Y-73601896D01*
X135389901Y-73367971D01*
X135389901Y-73132027D01*
X135359104Y-72898102D01*
X135298038Y-72670199D01*
X135207746Y-72452215D01*
X135089774Y-72247883D01*
X134946141Y-72060696D01*
X134946140Y-72060695D01*
X134946131Y-72060685D01*
X134779314Y-71893868D01*
X134779304Y-71893859D01*
X134592113Y-71750223D01*
X134387790Y-71632257D01*
X134387781Y-71632252D01*
X134289018Y-71591343D01*
X134169801Y-71541962D01*
X133941898Y-71480896D01*
X133941891Y-71480894D01*
X133707975Y-71450099D01*
X133707973Y-71450099D01*
X133472029Y-71450099D01*
X133472026Y-71450099D01*
X133238110Y-71480894D01*
X133010201Y-71541962D01*
X132792220Y-71632252D01*
X132792211Y-71632257D01*
X132587888Y-71750223D01*
X132400697Y-71893859D01*
X132400687Y-71893868D01*
X132233870Y-72060685D01*
X132233856Y-72060701D01*
X132226461Y-72070339D01*
X132169122Y-72112205D01*
X132098251Y-72116425D01*
X132036348Y-72081660D01*
X132003069Y-72018946D01*
X132000500Y-71993633D01*
X132000500Y-68895264D01*
X132259132Y-68895264D01*
X132259132Y-69104736D01*
X132291901Y-69311630D01*
X132291902Y-69311635D01*
X132356629Y-69510845D01*
X132356631Y-69510850D01*
X132451730Y-69697491D01*
X132574855Y-69866958D01*
X132574857Y-69866960D01*
X132574859Y-69866963D01*
X132722968Y-70015072D01*
X132722971Y-70015074D01*
X132722974Y-70015077D01*
X132892441Y-70138202D01*
X133079082Y-70233301D01*
X133278296Y-70298029D01*
X133278297Y-70298029D01*
X133278302Y-70298031D01*
X133485196Y-70330800D01*
X133485199Y-70330800D01*
X133694665Y-70330800D01*
X133694668Y-70330800D01*
X133901562Y-70298031D01*
X134100782Y-70233301D01*
X134287423Y-70138202D01*
X134456890Y-70015077D01*
X134605009Y-69866958D01*
X134728134Y-69697491D01*
X134823233Y-69510850D01*
X134887963Y-69311630D01*
X134920732Y-69104736D01*
X134920732Y-68895264D01*
X134887963Y-68688370D01*
X134823233Y-68489150D01*
X134728134Y-68302509D01*
X134605009Y-68133042D01*
X134605006Y-68133039D01*
X134605004Y-68133036D01*
X134456895Y-67984927D01*
X134456892Y-67984925D01*
X134456890Y-67984923D01*
X134287423Y-67861798D01*
X134100782Y-67766699D01*
X134100779Y-67766698D01*
X134100777Y-67766697D01*
X133901565Y-67701970D01*
X133901569Y-67701970D01*
X133848558Y-67693574D01*
X133694668Y-67669200D01*
X133485196Y-67669200D01*
X133278302Y-67701969D01*
X133278296Y-67701970D01*
X133079086Y-67766697D01*
X133079080Y-67766700D01*
X132892437Y-67861800D01*
X132722971Y-67984925D01*
X132722968Y-67984927D01*
X132574859Y-68133036D01*
X132574857Y-68133039D01*
X132451732Y-68302505D01*
X132356632Y-68489148D01*
X132356629Y-68489154D01*
X132291902Y-68688364D01*
X132291901Y-68688369D01*
X132291901Y-68688370D01*
X132259132Y-68895264D01*
X132000500Y-68895264D01*
X132000500Y-66628799D01*
X132020502Y-66560678D01*
X132074158Y-66514185D01*
X132144432Y-66504081D01*
X132209012Y-66533575D01*
X132215595Y-66539704D01*
X132346867Y-66670976D01*
X132346877Y-66670985D01*
X132346883Y-66670991D01*
X132346886Y-66670993D01*
X132346888Y-66670995D01*
X132591324Y-66858559D01*
X132858157Y-67012615D01*
X132858161Y-67012616D01*
X132858170Y-67012622D01*
X133142836Y-67130535D01*
X133440456Y-67210282D01*
X133440462Y-67210282D01*
X133440463Y-67210283D01*
X133475515Y-67214897D01*
X133745940Y-67250500D01*
X133745947Y-67250500D01*
X134054053Y-67250500D01*
X134054060Y-67250500D01*
X134359544Y-67210282D01*
X134657164Y-67130535D01*
X134941830Y-67012622D01*
X135208670Y-66858562D01*
X135208670Y-66858561D01*
X135208675Y-66858559D01*
X135350632Y-66749630D01*
X135453117Y-66670991D01*
X135670991Y-66453117D01*
X135749630Y-66350632D01*
X135858559Y-66208675D01*
X136012615Y-65941842D01*
X136012614Y-65941842D01*
X136012622Y-65941830D01*
X136130535Y-65657164D01*
X136210282Y-65359544D01*
X136250500Y-65054060D01*
X136250500Y-64745940D01*
X136218936Y-64506187D01*
X139794500Y-64506187D01*
X139794500Y-64509966D01*
X139794500Y-72493810D01*
X139794748Y-72503901D01*
X139795354Y-72516235D01*
X139796099Y-72526334D01*
X139813485Y-72702860D01*
X139813488Y-72702879D01*
X139816446Y-72722828D01*
X139816448Y-72722837D01*
X139821262Y-72747042D01*
X139826164Y-72766612D01*
X139866051Y-72898102D01*
X139875866Y-72930458D01*
X139875873Y-72930481D01*
X139882658Y-72949444D01*
X139882677Y-72949494D01*
X139892099Y-72972239D01*
X139892102Y-72972246D01*
X139892106Y-72972255D01*
X139892110Y-72972264D01*
X139900732Y-72990493D01*
X139967018Y-73114507D01*
X139967038Y-73114546D01*
X139981438Y-73141485D01*
X139991819Y-73158804D01*
X139991821Y-73158808D01*
X140005537Y-73179335D01*
X140017550Y-73195533D01*
X140126172Y-73327889D01*
X140139707Y-73342822D01*
X140157176Y-73360291D01*
X140165642Y-73367964D01*
X140172117Y-73373833D01*
X140304465Y-73482448D01*
X140320653Y-73494454D01*
X140320665Y-73494462D01*
X140341203Y-73508185D01*
X140358499Y-73518552D01*
X140509499Y-73599264D01*
X140527730Y-73607887D01*
X140550549Y-73617339D01*
X140569539Y-73624134D01*
X140733385Y-73673835D01*
X140733393Y-73673837D01*
X140752919Y-73678728D01*
X140752934Y-73678731D01*
X140752950Y-73678735D01*
X140777174Y-73683553D01*
X140797118Y-73686511D01*
X140797122Y-73686511D01*
X140797133Y-73686513D01*
X140939780Y-73700563D01*
X140946974Y-73703467D01*
X140954717Y-73702946D01*
X140979438Y-73716576D01*
X141005612Y-73727146D01*
X141010094Y-73733480D01*
X141016889Y-73737227D01*
X141030314Y-73762055D01*
X141046621Y-73785100D01*
X141047814Y-73794419D01*
X141050658Y-73799678D01*
X141051049Y-73819682D01*
X141053070Y-73835460D01*
X141052415Y-73844112D01*
X141051466Y-73848128D01*
X141047190Y-73872895D01*
X141048880Y-73887585D01*
X141048224Y-73899507D01*
X141048220Y-73899570D01*
X141047580Y-73911217D01*
X141047581Y-73911220D01*
X141055465Y-73944796D01*
X141057647Y-73963751D01*
X141060141Y-73970824D01*
X141061467Y-73970356D01*
X141066001Y-73989666D01*
X141068803Y-74001599D01*
X141064902Y-74072489D01*
X141023295Y-74130016D01*
X141016141Y-74135167D01*
X140870254Y-74232646D01*
X140870247Y-74232651D01*
X140732650Y-74370248D01*
X140732645Y-74370255D01*
X140624534Y-74532055D01*
X140550066Y-74711835D01*
X140550064Y-74711840D01*
X140512100Y-74902698D01*
X140512100Y-75097303D01*
X140534340Y-75209109D01*
X140550064Y-75288161D01*
X140624534Y-75467947D01*
X140732648Y-75629751D01*
X140828888Y-75725991D01*
X140862913Y-75788303D01*
X140857847Y-75859119D01*
X140849758Y-75876595D01*
X140822825Y-75924745D01*
X140822824Y-75924747D01*
X140802827Y-75992853D01*
X140802824Y-75992866D01*
X140794500Y-76050764D01*
X140794500Y-79344055D01*
X140794737Y-79353947D01*
X140795318Y-79366030D01*
X140796029Y-79375880D01*
X140812677Y-79548676D01*
X140815506Y-79568181D01*
X140815515Y-79568235D01*
X140820113Y-79591879D01*
X140820123Y-79591921D01*
X140824812Y-79611071D01*
X140869935Y-79763312D01*
X140872420Y-79771694D01*
X140877745Y-79786934D01*
X140878932Y-79790330D01*
X140887982Y-79812715D01*
X140896256Y-79830652D01*
X140973641Y-79979205D01*
X140973653Y-79979227D01*
X140983577Y-79996233D01*
X140983583Y-79996242D01*
X140983587Y-79996249D01*
X140996755Y-80016512D01*
X141008289Y-80032522D01*
X141112628Y-80163593D01*
X141125641Y-80178419D01*
X141135259Y-80188371D01*
X141142429Y-80195789D01*
X141142442Y-80195802D01*
X141156791Y-80209287D01*
X141156806Y-80209301D01*
X141284253Y-80318042D01*
X141290061Y-80322534D01*
X141299839Y-80330099D01*
X141299874Y-80330125D01*
X141319644Y-80343951D01*
X141319672Y-80343970D01*
X141336350Y-80354479D01*
X141336369Y-80354490D01*
X141408546Y-80395268D01*
X141487505Y-80439878D01*
X141496205Y-80444522D01*
X141507010Y-80449960D01*
X141515934Y-80454185D01*
X141571255Y-80478772D01*
X141625381Y-80524716D01*
X141646075Y-80592630D01*
X141626768Y-80660951D01*
X141609180Y-80683005D01*
X141599503Y-80692682D01*
X141599497Y-80692689D01*
X141533610Y-80806809D01*
X141533607Y-80806816D01*
X141523179Y-80845735D01*
X141499500Y-80934108D01*
X141499500Y-81065892D01*
X141524467Y-81159073D01*
X141533607Y-81193183D01*
X141533610Y-81193190D01*
X141599497Y-81307310D01*
X141599505Y-81307320D01*
X141692679Y-81400494D01*
X141692684Y-81400498D01*
X141692686Y-81400500D01*
X141806814Y-81466392D01*
X141934108Y-81500500D01*
X141934110Y-81500500D01*
X142065890Y-81500500D01*
X142065892Y-81500500D01*
X142193186Y-81466392D01*
X142307314Y-81400500D01*
X142400500Y-81307314D01*
X142466392Y-81193186D01*
X142500500Y-81065892D01*
X142500500Y-81065890D01*
X142502637Y-81057915D01*
X142504626Y-81058447D01*
X142528865Y-81003648D01*
X142588129Y-80964554D01*
X142659120Y-80963705D01*
X142676240Y-80969876D01*
X145073668Y-82035400D01*
X145127793Y-82081343D01*
X145148487Y-82149257D01*
X145129180Y-82217578D01*
X145099206Y-82250495D01*
X145092686Y-82255498D01*
X144999505Y-82348679D01*
X144999497Y-82348689D01*
X144933610Y-82462809D01*
X144933608Y-82462814D01*
X144899500Y-82590108D01*
X144899500Y-82721892D01*
X144922346Y-82807155D01*
X144933607Y-82849183D01*
X144933610Y-82849190D01*
X144999497Y-82963310D01*
X144999505Y-82963320D01*
X145092679Y-83056494D01*
X145092684Y-83056498D01*
X145092686Y-83056500D01*
X145206814Y-83122392D01*
X145206820Y-83122393D01*
X145214445Y-83125552D01*
X145213306Y-83128300D01*
X145261723Y-83157803D01*
X145292753Y-83221659D01*
X145294500Y-83242570D01*
X145294500Y-84993810D01*
X145294748Y-85003901D01*
X145295354Y-85016235D01*
X145296099Y-85026334D01*
X145313485Y-85202860D01*
X145313488Y-85202879D01*
X145316446Y-85222828D01*
X145316448Y-85222837D01*
X145321262Y-85247042D01*
X145326164Y-85266612D01*
X145345332Y-85329800D01*
X145375866Y-85430458D01*
X145375873Y-85430481D01*
X145382658Y-85449444D01*
X145382677Y-85449494D01*
X145392099Y-85472239D01*
X145392102Y-85472246D01*
X145392106Y-85472255D01*
X145392110Y-85472264D01*
X145400732Y-85490493D01*
X145467018Y-85614507D01*
X145467038Y-85614546D01*
X145481438Y-85641485D01*
X145491819Y-85658804D01*
X145491821Y-85658808D01*
X145505537Y-85679335D01*
X145515439Y-85692686D01*
X145517550Y-85695533D01*
X145603693Y-85800499D01*
X145626172Y-85827889D01*
X145639707Y-85842822D01*
X145657176Y-85860291D01*
X145666516Y-85868756D01*
X145672117Y-85873833D01*
X145751905Y-85939313D01*
X145804465Y-85982448D01*
X145820653Y-85994454D01*
X145820665Y-85994462D01*
X145841203Y-86008185D01*
X145858499Y-86018552D01*
X146009499Y-86099264D01*
X146027730Y-86107887D01*
X146050549Y-86117339D01*
X146069539Y-86124134D01*
X146233385Y-86173835D01*
X146233393Y-86173837D01*
X146252919Y-86178728D01*
X146252934Y-86178731D01*
X146252950Y-86178735D01*
X146277174Y-86183553D01*
X146297118Y-86186511D01*
X146297122Y-86186511D01*
X146297133Y-86186513D01*
X146473668Y-86203901D01*
X146473694Y-86203902D01*
X146473695Y-86203903D01*
X146483749Y-86204645D01*
X146496098Y-86205252D01*
X146506187Y-86205500D01*
X146506189Y-86205500D01*
X147993811Y-86205500D01*
X147993813Y-86205500D01*
X148003903Y-86205252D01*
X148016251Y-86204645D01*
X148026304Y-86203903D01*
X148090492Y-86197580D01*
X148202865Y-86186513D01*
X148202873Y-86186511D01*
X148202881Y-86186511D01*
X148222825Y-86183553D01*
X148247049Y-86178735D01*
X148247068Y-86178730D01*
X148247079Y-86178728D01*
X148260141Y-86175455D01*
X148266614Y-86173835D01*
X148430460Y-86124134D01*
X148449451Y-86117339D01*
X148472272Y-86107886D01*
X148490502Y-86099263D01*
X148641500Y-86018552D01*
X148658796Y-86008185D01*
X148679334Y-85994462D01*
X148695533Y-85982449D01*
X148827882Y-85873833D01*
X148842824Y-85860289D01*
X148860289Y-85842824D01*
X148873833Y-85827882D01*
X148982449Y-85695533D01*
X148994462Y-85679334D01*
X149008185Y-85658796D01*
X149018552Y-85641500D01*
X149099263Y-85490502D01*
X149107886Y-85472272D01*
X149117339Y-85449451D01*
X149124134Y-85430460D01*
X149173835Y-85266614D01*
X149175455Y-85260141D01*
X149178728Y-85247079D01*
X149178730Y-85247065D01*
X149178735Y-85247049D01*
X149183553Y-85222825D01*
X149186511Y-85202882D01*
X149186514Y-85202860D01*
X149203901Y-85026324D01*
X149203903Y-85026307D01*
X149204645Y-85016250D01*
X149205252Y-85003899D01*
X149205500Y-84993812D01*
X149205500Y-83833811D01*
X149225502Y-83765690D01*
X149279158Y-83719197D01*
X149332372Y-83707814D01*
X149913191Y-83711851D01*
X149981170Y-83732326D01*
X150027289Y-83786304D01*
X150036904Y-83856646D01*
X150006963Y-83921020D01*
X149982316Y-83942613D01*
X149862222Y-84022857D01*
X149862215Y-84022863D01*
X149722863Y-84162215D01*
X149722858Y-84162222D01*
X149613368Y-84326085D01*
X149537950Y-84508161D01*
X149537949Y-84508164D01*
X149499500Y-84701455D01*
X149499500Y-84898544D01*
X149537949Y-85091835D01*
X149537950Y-85091838D01*
X149592204Y-85222820D01*
X149613368Y-85273914D01*
X149722861Y-85437782D01*
X149862218Y-85577139D01*
X150026086Y-85686632D01*
X150208165Y-85762051D01*
X150401459Y-85800500D01*
X150598541Y-85800500D01*
X150791835Y-85762051D01*
X150973914Y-85686632D01*
X151137782Y-85577139D01*
X151277139Y-85437782D01*
X151386632Y-85273914D01*
X151462051Y-85091835D01*
X151500500Y-84898541D01*
X151500500Y-84701459D01*
X151462051Y-84508165D01*
X151386632Y-84326086D01*
X151277139Y-84162218D01*
X151137782Y-84022861D01*
X151030037Y-83950868D01*
X150984509Y-83896391D01*
X150975661Y-83825948D01*
X151006302Y-83761904D01*
X151066704Y-83724593D01*
X151100911Y-83720106D01*
X157481405Y-83764452D01*
X157481408Y-83764451D01*
X157481419Y-83764452D01*
X157485703Y-83764376D01*
X157491536Y-83764273D01*
X157503945Y-83763747D01*
X157514051Y-83763068D01*
X157691517Y-83746756D01*
X157711572Y-83743911D01*
X157735934Y-83739219D01*
X157755612Y-83734412D01*
X157871713Y-83699907D01*
X157920429Y-83685430D01*
X157920439Y-83685426D01*
X157920455Y-83685422D01*
X157939563Y-83678702D01*
X157962532Y-83669328D01*
X157980886Y-83660759D01*
X158132936Y-83580419D01*
X158150360Y-83570083D01*
X158171048Y-83556389D01*
X158187366Y-83544391D01*
X158320721Y-83435819D01*
X158335775Y-83422276D01*
X158353379Y-83404795D01*
X158367035Y-83389827D01*
X158476539Y-83257221D01*
X158488654Y-83240981D01*
X158502491Y-83220388D01*
X158512944Y-83203042D01*
X158594336Y-83051560D01*
X158603032Y-83033268D01*
X158612566Y-83010364D01*
X158619419Y-82991301D01*
X158669554Y-82826800D01*
X158674498Y-82807155D01*
X158679359Y-82782827D01*
X158682344Y-82762794D01*
X158699890Y-82585444D01*
X158700638Y-82575338D01*
X158701250Y-82562933D01*
X158701500Y-82552807D01*
X158701500Y-80845733D01*
X161354500Y-80845733D01*
X161354500Y-82154266D01*
X161357354Y-82184700D01*
X161357355Y-82184704D01*
X161402206Y-82312881D01*
X161402208Y-82312885D01*
X161482849Y-82422150D01*
X161592114Y-82502791D01*
X161592118Y-82502793D01*
X161720301Y-82547646D01*
X161750734Y-82550500D01*
X161750736Y-82550500D01*
X163359264Y-82550500D01*
X163359266Y-82550500D01*
X163389699Y-82547646D01*
X163517882Y-82502793D01*
X163627150Y-82422150D01*
X163665456Y-82370247D01*
X163707791Y-82312885D01*
X163707793Y-82312881D01*
X163727872Y-82255500D01*
X163752646Y-82184699D01*
X163755500Y-82154266D01*
X163755500Y-80845734D01*
X163752646Y-80815301D01*
X163707793Y-80687118D01*
X163707791Y-80687114D01*
X163627150Y-80577849D01*
X163517885Y-80497208D01*
X163517881Y-80497206D01*
X163389704Y-80452355D01*
X163389700Y-80452354D01*
X163359266Y-80449500D01*
X161750734Y-80449500D01*
X161750733Y-80449500D01*
X161720299Y-80452354D01*
X161720295Y-80452355D01*
X161592118Y-80497206D01*
X161592114Y-80497208D01*
X161482849Y-80577849D01*
X161402208Y-80687114D01*
X161402206Y-80687118D01*
X161357355Y-80815295D01*
X161357354Y-80815299D01*
X161354500Y-80845733D01*
X158701500Y-80845733D01*
X158701500Y-78896532D01*
X161354500Y-78896532D01*
X161354500Y-79103467D01*
X161374094Y-79201970D01*
X161394870Y-79306420D01*
X161474059Y-79497598D01*
X161564556Y-79633037D01*
X161589024Y-79669656D01*
X161589029Y-79669662D01*
X161735337Y-79815970D01*
X161735343Y-79815975D01*
X161735345Y-79815977D01*
X161907402Y-79930941D01*
X162098580Y-80010130D01*
X162301535Y-80050500D01*
X162301536Y-80050500D01*
X162808464Y-80050500D01*
X162808465Y-80050500D01*
X163011420Y-80010130D01*
X163202598Y-79930941D01*
X163374655Y-79815977D01*
X163520977Y-79669655D01*
X163635941Y-79497598D01*
X163715130Y-79306420D01*
X163755500Y-79103465D01*
X163755500Y-78896535D01*
X163715130Y-78693580D01*
X163635941Y-78502402D01*
X163520977Y-78330345D01*
X163520975Y-78330343D01*
X163520970Y-78330337D01*
X163374662Y-78184029D01*
X163374656Y-78184024D01*
X163374655Y-78184023D01*
X163202598Y-78069059D01*
X163011420Y-77989870D01*
X162808467Y-77949500D01*
X162808465Y-77949500D01*
X162301535Y-77949500D01*
X162301532Y-77949500D01*
X162098579Y-77989870D01*
X162098574Y-77989872D01*
X161907402Y-78069059D01*
X161735343Y-78184024D01*
X161735337Y-78184029D01*
X161589029Y-78330337D01*
X161589024Y-78330343D01*
X161474059Y-78502402D01*
X161394872Y-78693574D01*
X161394870Y-78693579D01*
X161354500Y-78896532D01*
X158701500Y-78896532D01*
X158701500Y-75209108D01*
X161999500Y-75209108D01*
X161999500Y-75340892D01*
X162024467Y-75434073D01*
X162033607Y-75468183D01*
X162033610Y-75468190D01*
X162099497Y-75582310D01*
X162099505Y-75582320D01*
X162192679Y-75675494D01*
X162192684Y-75675498D01*
X162192686Y-75675500D01*
X162306814Y-75741392D01*
X162434108Y-75775500D01*
X162434110Y-75775500D01*
X162565890Y-75775500D01*
X162565892Y-75775500D01*
X162693186Y-75741392D01*
X162807314Y-75675500D01*
X162900500Y-75582314D01*
X162966392Y-75468186D01*
X163000500Y-75340892D01*
X163000500Y-75209108D01*
X162966392Y-75081814D01*
X162900500Y-74967686D01*
X162900498Y-74967684D01*
X162900494Y-74967679D01*
X162807320Y-74874505D01*
X162807310Y-74874497D01*
X162693190Y-74808610D01*
X162693187Y-74808609D01*
X162693186Y-74808608D01*
X162693184Y-74808607D01*
X162693183Y-74808607D01*
X162659073Y-74799467D01*
X162565892Y-74774500D01*
X162434108Y-74774500D01*
X162365894Y-74792777D01*
X162306816Y-74808607D01*
X162306809Y-74808610D01*
X162192689Y-74874497D01*
X162192679Y-74874505D01*
X162099505Y-74967679D01*
X162099497Y-74967689D01*
X162033610Y-75081809D01*
X162033607Y-75081816D01*
X162011983Y-75162517D01*
X161999500Y-75209108D01*
X158701500Y-75209108D01*
X158701500Y-74506187D01*
X158701252Y-74496100D01*
X158700645Y-74483749D01*
X158699903Y-74473692D01*
X158689715Y-74370255D01*
X158682513Y-74297132D01*
X158679554Y-74277180D01*
X158679550Y-74277161D01*
X158674739Y-74252971D01*
X158674728Y-74252919D01*
X158669837Y-74233393D01*
X158669611Y-74232649D01*
X158620134Y-74069539D01*
X158613339Y-74050548D01*
X158603886Y-74027727D01*
X158595263Y-74009497D01*
X158560679Y-73944796D01*
X158531869Y-73890896D01*
X158517397Y-73821390D01*
X158542801Y-73755094D01*
X158600014Y-73713056D01*
X158642991Y-73705500D01*
X159267811Y-73705500D01*
X159267813Y-73705500D01*
X159277903Y-73705252D01*
X159290251Y-73704645D01*
X159300304Y-73703903D01*
X159364492Y-73697580D01*
X159476865Y-73686513D01*
X159476873Y-73686511D01*
X159476881Y-73686511D01*
X159496825Y-73683553D01*
X159521049Y-73678735D01*
X159521068Y-73678730D01*
X159521079Y-73678728D01*
X159534141Y-73675455D01*
X159540614Y-73673835D01*
X159704460Y-73624134D01*
X159723451Y-73617339D01*
X159746272Y-73607886D01*
X159764502Y-73599263D01*
X159915500Y-73518552D01*
X159932796Y-73508185D01*
X159953334Y-73494462D01*
X159969533Y-73482449D01*
X160101882Y-73373833D01*
X160116824Y-73360289D01*
X160134289Y-73342824D01*
X160147833Y-73327882D01*
X160256449Y-73195533D01*
X160268462Y-73179334D01*
X160282185Y-73158796D01*
X160292552Y-73141500D01*
X160373263Y-72990502D01*
X160381886Y-72972272D01*
X160391339Y-72949451D01*
X160398134Y-72930460D01*
X160438737Y-72796608D01*
X165224500Y-72796608D01*
X165224500Y-72928392D01*
X165241142Y-72990500D01*
X165258607Y-73055683D01*
X165258610Y-73055690D01*
X165324497Y-73169810D01*
X165324505Y-73169820D01*
X165417679Y-73262994D01*
X165417684Y-73262998D01*
X165417686Y-73263000D01*
X165531814Y-73328892D01*
X165659108Y-73363000D01*
X165659110Y-73363000D01*
X165790890Y-73363000D01*
X165790892Y-73363000D01*
X165918186Y-73328892D01*
X166032314Y-73263000D01*
X166125500Y-73169814D01*
X166191392Y-73055686D01*
X166225500Y-72928392D01*
X166225500Y-72796608D01*
X166191392Y-72669314D01*
X166125500Y-72555186D01*
X166125498Y-72555184D01*
X166125494Y-72555179D01*
X166032320Y-72462005D01*
X166032310Y-72461997D01*
X165918190Y-72396110D01*
X165918187Y-72396109D01*
X165918186Y-72396108D01*
X165918184Y-72396107D01*
X165918183Y-72396107D01*
X165884073Y-72386967D01*
X165790892Y-72362000D01*
X165659108Y-72362000D01*
X165590894Y-72380277D01*
X165531816Y-72396107D01*
X165531809Y-72396110D01*
X165417689Y-72461997D01*
X165417679Y-72462005D01*
X165324505Y-72555179D01*
X165324497Y-72555189D01*
X165258610Y-72669309D01*
X165258607Y-72669316D01*
X165244272Y-72722818D01*
X165224500Y-72796608D01*
X160438737Y-72796608D01*
X160447835Y-72766614D01*
X160452735Y-72747049D01*
X160457553Y-72722825D01*
X160460511Y-72702882D01*
X160460514Y-72702860D01*
X160475058Y-72555189D01*
X160477903Y-72526307D01*
X160478645Y-72516250D01*
X160479252Y-72503899D01*
X160479500Y-72493812D01*
X160479500Y-70396532D01*
X161324500Y-70396532D01*
X161324500Y-70603467D01*
X161355559Y-70759609D01*
X161364870Y-70806420D01*
X161444059Y-70997598D01*
X161534407Y-71132814D01*
X161559024Y-71169656D01*
X161559029Y-71169662D01*
X161705337Y-71315970D01*
X161705343Y-71315975D01*
X161705345Y-71315977D01*
X161877402Y-71430941D01*
X162068580Y-71510130D01*
X162271535Y-71550500D01*
X162271536Y-71550500D01*
X162728464Y-71550500D01*
X162728465Y-71550500D01*
X162931420Y-71510130D01*
X163122598Y-71430941D01*
X163294655Y-71315977D01*
X163440977Y-71169655D01*
X163555941Y-70997598D01*
X163635130Y-70806420D01*
X163644441Y-70759608D01*
X165420500Y-70759608D01*
X165420500Y-70891392D01*
X165445467Y-70984573D01*
X165454607Y-71018683D01*
X165454610Y-71018690D01*
X165520497Y-71132810D01*
X165520505Y-71132820D01*
X165613679Y-71225994D01*
X165613684Y-71225998D01*
X165613686Y-71226000D01*
X165727814Y-71291892D01*
X165855108Y-71326000D01*
X165855110Y-71326000D01*
X165986890Y-71326000D01*
X165986892Y-71326000D01*
X166114186Y-71291892D01*
X166228314Y-71226000D01*
X166321500Y-71132814D01*
X166387392Y-71018686D01*
X166421500Y-70891392D01*
X166421500Y-70759608D01*
X166387392Y-70632314D01*
X166321500Y-70518186D01*
X166321498Y-70518184D01*
X166321494Y-70518179D01*
X166228320Y-70425005D01*
X166228310Y-70424997D01*
X166114190Y-70359110D01*
X166114187Y-70359109D01*
X166114186Y-70359108D01*
X166114184Y-70359107D01*
X166114183Y-70359107D01*
X166080073Y-70349967D01*
X165986892Y-70325000D01*
X165855108Y-70325000D01*
X165786894Y-70343277D01*
X165727816Y-70359107D01*
X165727809Y-70359110D01*
X165613689Y-70424997D01*
X165613679Y-70425005D01*
X165520505Y-70518179D01*
X165520497Y-70518189D01*
X165454610Y-70632309D01*
X165454608Y-70632314D01*
X165420500Y-70759608D01*
X163644441Y-70759608D01*
X163675500Y-70603465D01*
X163675500Y-70396535D01*
X163635130Y-70193580D01*
X163555941Y-70002402D01*
X163440977Y-69830345D01*
X163440975Y-69830343D01*
X163440970Y-69830337D01*
X163294662Y-69684029D01*
X163294656Y-69684024D01*
X163294655Y-69684023D01*
X163122598Y-69569059D01*
X162931420Y-69489870D01*
X162728467Y-69449500D01*
X162728465Y-69449500D01*
X162271535Y-69449500D01*
X162271532Y-69449500D01*
X162068579Y-69489870D01*
X162068574Y-69489872D01*
X161877402Y-69569059D01*
X161705343Y-69684024D01*
X161705337Y-69684029D01*
X161559029Y-69830337D01*
X161559024Y-69830343D01*
X161444059Y-70002402D01*
X161364872Y-70193574D01*
X161364870Y-70193579D01*
X161324500Y-70396532D01*
X160479500Y-70396532D01*
X160479500Y-67896532D01*
X161324500Y-67896532D01*
X161324500Y-68103467D01*
X161330383Y-68133042D01*
X161364870Y-68306420D01*
X161444059Y-68497598D01*
X161559023Y-68669655D01*
X161559024Y-68669656D01*
X161559029Y-68669662D01*
X161705337Y-68815970D01*
X161705343Y-68815975D01*
X161705345Y-68815977D01*
X161877402Y-68930941D01*
X162068580Y-69010130D01*
X162271535Y-69050500D01*
X162271536Y-69050500D01*
X162728464Y-69050500D01*
X162728465Y-69050500D01*
X162931420Y-69010130D01*
X163122598Y-68930941D01*
X163294655Y-68815977D01*
X163440977Y-68669655D01*
X163555941Y-68497598D01*
X163635130Y-68306420D01*
X163675500Y-68103465D01*
X163675500Y-67896535D01*
X163635130Y-67693580D01*
X163555941Y-67502402D01*
X163440977Y-67330345D01*
X163440975Y-67330343D01*
X163440970Y-67330337D01*
X163294662Y-67184029D01*
X163294656Y-67184024D01*
X163294655Y-67184023D01*
X163122598Y-67069059D01*
X162931420Y-66989870D01*
X162728467Y-66949500D01*
X162728465Y-66949500D01*
X162271535Y-66949500D01*
X162271532Y-66949500D01*
X162068579Y-66989870D01*
X162068574Y-66989872D01*
X161877402Y-67069059D01*
X161705343Y-67184024D01*
X161705337Y-67184029D01*
X161559029Y-67330337D01*
X161559024Y-67330343D01*
X161444059Y-67502402D01*
X161364872Y-67693574D01*
X161364870Y-67693579D01*
X161324500Y-67896532D01*
X160479500Y-67896532D01*
X160479500Y-65396532D01*
X161324500Y-65396532D01*
X161324500Y-65396535D01*
X161324500Y-65603465D01*
X161364870Y-65806420D01*
X161444059Y-65997598D01*
X161559023Y-66169655D01*
X161559024Y-66169656D01*
X161559029Y-66169662D01*
X161705337Y-66315970D01*
X161705343Y-66315975D01*
X161705345Y-66315977D01*
X161877402Y-66430941D01*
X162068580Y-66510130D01*
X162271535Y-66550500D01*
X162271536Y-66550500D01*
X162728464Y-66550500D01*
X162728465Y-66550500D01*
X162931420Y-66510130D01*
X163122598Y-66430941D01*
X163294655Y-66315977D01*
X163440977Y-66169655D01*
X163555941Y-65997598D01*
X163635130Y-65806420D01*
X163675500Y-65603465D01*
X163675500Y-65396535D01*
X163635130Y-65193580D01*
X163555941Y-65002402D01*
X163440977Y-64830345D01*
X163440975Y-64830343D01*
X163440970Y-64830337D01*
X163294662Y-64684029D01*
X163294656Y-64684024D01*
X163294655Y-64684023D01*
X163122598Y-64569059D01*
X162959425Y-64501470D01*
X162931425Y-64489872D01*
X162931420Y-64489870D01*
X162728467Y-64449500D01*
X162728465Y-64449500D01*
X162271535Y-64449500D01*
X162271532Y-64449500D01*
X162068579Y-64489870D01*
X162068574Y-64489872D01*
X161877402Y-64569059D01*
X161705343Y-64684024D01*
X161705337Y-64684029D01*
X161559029Y-64830337D01*
X161559024Y-64830343D01*
X161444059Y-65002402D01*
X161364872Y-65193574D01*
X161364870Y-65193579D01*
X161324500Y-65396532D01*
X160479500Y-65396532D01*
X160479500Y-64506187D01*
X160479252Y-64496100D01*
X160478645Y-64483749D01*
X160477903Y-64473692D01*
X160470699Y-64400549D01*
X160460513Y-64297132D01*
X160460509Y-64297108D01*
X160457553Y-64277174D01*
X160452735Y-64252950D01*
X160452732Y-64252938D01*
X160452728Y-64252919D01*
X160447837Y-64233393D01*
X160447835Y-64233385D01*
X160398134Y-64069539D01*
X160391339Y-64050548D01*
X160381886Y-64027727D01*
X160373263Y-64009497D01*
X160292552Y-63858499D01*
X160282185Y-63841203D01*
X160268462Y-63820665D01*
X160268454Y-63820653D01*
X160256470Y-63804494D01*
X160256449Y-63804466D01*
X160147833Y-63672117D01*
X160147814Y-63672096D01*
X160134291Y-63657176D01*
X160116822Y-63639707D01*
X160106682Y-63630517D01*
X160101882Y-63626166D01*
X159969533Y-63517550D01*
X159969503Y-63517528D01*
X159953335Y-63505537D01*
X159932808Y-63491821D01*
X159932804Y-63491819D01*
X159932769Y-63491798D01*
X159915504Y-63481449D01*
X159915498Y-63481445D01*
X159915485Y-63481438D01*
X159888546Y-63467038D01*
X159888507Y-63467018D01*
X159764493Y-63400732D01*
X159746264Y-63392110D01*
X159746255Y-63392106D01*
X159746246Y-63392102D01*
X159746239Y-63392099D01*
X159723494Y-63382677D01*
X159723444Y-63382658D01*
X159704481Y-63375873D01*
X159704458Y-63375866D01*
X159540599Y-63326160D01*
X159521056Y-63321265D01*
X159521050Y-63321263D01*
X159504742Y-63318020D01*
X159496827Y-63316446D01*
X159496819Y-63316444D01*
X159476867Y-63313485D01*
X159300296Y-63296094D01*
X159290257Y-63295353D01*
X159277877Y-63294746D01*
X159267814Y-63294500D01*
X159267813Y-63294500D01*
X141006187Y-63294500D01*
X141006186Y-63294500D01*
X141004928Y-63294530D01*
X140996115Y-63294747D01*
X140993326Y-63294883D01*
X140983741Y-63295353D01*
X140973698Y-63296095D01*
X140797131Y-63313485D01*
X140777189Y-63316442D01*
X140777177Y-63316445D01*
X140777174Y-63316445D01*
X140777171Y-63316446D01*
X140752956Y-63321262D01*
X140743201Y-63323705D01*
X140733361Y-63326169D01*
X140569567Y-63375856D01*
X140569539Y-63375866D01*
X140569527Y-63375870D01*
X140550543Y-63382662D01*
X140550535Y-63382665D01*
X140550512Y-63382674D01*
X140527762Y-63392097D01*
X140527749Y-63392102D01*
X140527742Y-63392106D01*
X140519262Y-63396116D01*
X140509509Y-63400729D01*
X140358497Y-63481446D01*
X140358492Y-63481449D01*
X140341227Y-63491798D01*
X140341207Y-63491810D01*
X140320657Y-63505541D01*
X140304494Y-63517528D01*
X140172108Y-63626174D01*
X140172096Y-63626185D01*
X140157161Y-63639721D01*
X140139721Y-63657161D01*
X140126185Y-63672096D01*
X140126174Y-63672108D01*
X140017528Y-63804494D01*
X140005541Y-63820657D01*
X139991810Y-63841207D01*
X139991798Y-63841227D01*
X139981449Y-63858492D01*
X139981446Y-63858497D01*
X139900729Y-64009509D01*
X139896116Y-64019262D01*
X139892111Y-64027733D01*
X139892097Y-64027762D01*
X139882674Y-64050512D01*
X139882665Y-64050535D01*
X139882662Y-64050543D01*
X139875870Y-64069527D01*
X139875866Y-64069538D01*
X139875866Y-64069540D01*
X139875856Y-64069567D01*
X139826171Y-64233358D01*
X139821258Y-64252973D01*
X139816442Y-64277198D01*
X139816439Y-64277215D01*
X139813488Y-64297108D01*
X139813487Y-64297118D01*
X139813486Y-64297131D01*
X139811237Y-64319966D01*
X139806675Y-64366282D01*
X139806669Y-64366344D01*
X139806589Y-64367164D01*
X139796097Y-64473694D01*
X139795355Y-64483749D01*
X139794748Y-64496099D01*
X139794500Y-64506187D01*
X136218936Y-64506187D01*
X136217608Y-64496099D01*
X136210283Y-64440462D01*
X136210282Y-64440460D01*
X136210282Y-64440456D01*
X136130535Y-64142836D01*
X136012622Y-63858170D01*
X136012616Y-63858161D01*
X136012615Y-63858157D01*
X135858559Y-63591324D01*
X135670995Y-63346888D01*
X135670993Y-63346886D01*
X135670991Y-63346883D01*
X135670985Y-63346877D01*
X135670976Y-63346867D01*
X135539704Y-63215595D01*
X135505678Y-63153283D01*
X135510743Y-63082468D01*
X135553290Y-63025632D01*
X135619810Y-63000821D01*
X135628799Y-63000500D01*
X169534108Y-63000500D01*
X169595879Y-63000500D01*
X169604119Y-63000770D01*
G37*
%TD.AperFunction*%
%TD*%
%TA.AperFunction,Conductor*%
%TO.N,/OUTA*%
G36*
X159280162Y-63500606D02*
G01*
X159456740Y-63517998D01*
X159480959Y-63522815D01*
X159644815Y-63572520D01*
X159667622Y-63581967D01*
X159793153Y-63649064D01*
X159818627Y-63662681D01*
X159839165Y-63676404D01*
X159971514Y-63785020D01*
X159988979Y-63802485D01*
X160097595Y-63934834D01*
X160111318Y-63955372D01*
X160192029Y-64106370D01*
X160201482Y-64129191D01*
X160251183Y-64293037D01*
X160256001Y-64317261D01*
X160273393Y-64493836D01*
X160274000Y-64506187D01*
X160274000Y-72493812D01*
X160273393Y-72506162D01*
X160273393Y-72506163D01*
X160256001Y-72682738D01*
X160251183Y-72706962D01*
X160201482Y-72870808D01*
X160192029Y-72893629D01*
X160111318Y-73044627D01*
X160097595Y-73065165D01*
X159988979Y-73197514D01*
X159971514Y-73214979D01*
X159839165Y-73323595D01*
X159818627Y-73337318D01*
X159667629Y-73418029D01*
X159644808Y-73427482D01*
X159480962Y-73477183D01*
X159456738Y-73482001D01*
X159308273Y-73496624D01*
X159280161Y-73499393D01*
X159267813Y-73500000D01*
X141006187Y-73500000D01*
X140993838Y-73499393D01*
X140961095Y-73496168D01*
X140817261Y-73482001D01*
X140793037Y-73477183D01*
X140629191Y-73427482D01*
X140606372Y-73418030D01*
X140558011Y-73392180D01*
X140455372Y-73337318D01*
X140434834Y-73323595D01*
X140302485Y-73214979D01*
X140285020Y-73197514D01*
X140176404Y-73065165D01*
X140162681Y-73044627D01*
X140149064Y-73019153D01*
X140081967Y-72893622D01*
X140072520Y-72870815D01*
X140022815Y-72706959D01*
X140017998Y-72682737D01*
X140000607Y-72506162D01*
X140000000Y-72493812D01*
X140000000Y-64506187D01*
X140000607Y-64493837D01*
X140015748Y-64340109D01*
X140015748Y-64340108D01*
X146899500Y-64340108D01*
X146899500Y-64471892D01*
X146924467Y-64565073D01*
X146933607Y-64599183D01*
X146933610Y-64599190D01*
X146999497Y-64713310D01*
X146999505Y-64713320D01*
X147092679Y-64806494D01*
X147092684Y-64806498D01*
X147092686Y-64806500D01*
X147206814Y-64872392D01*
X147334108Y-64906500D01*
X147334110Y-64906500D01*
X147465890Y-64906500D01*
X147465892Y-64906500D01*
X147593186Y-64872392D01*
X147707314Y-64806500D01*
X147707320Y-64806494D01*
X147806340Y-64707475D01*
X147807404Y-64708539D01*
X147857368Y-64672051D01*
X147928239Y-64667825D01*
X147990144Y-64702585D01*
X147999058Y-64712873D01*
X148092679Y-64806494D01*
X148092684Y-64806498D01*
X148092686Y-64806500D01*
X148206814Y-64872392D01*
X148334108Y-64906500D01*
X148334110Y-64906500D01*
X148465890Y-64906500D01*
X148465892Y-64906500D01*
X148593186Y-64872392D01*
X148707314Y-64806500D01*
X148707320Y-64806494D01*
X148806340Y-64707475D01*
X148807404Y-64708539D01*
X148857368Y-64672051D01*
X148928239Y-64667825D01*
X148990144Y-64702585D01*
X148999058Y-64712873D01*
X149092679Y-64806494D01*
X149092684Y-64806498D01*
X149092686Y-64806500D01*
X149206814Y-64872392D01*
X149334108Y-64906500D01*
X149334110Y-64906500D01*
X149465890Y-64906500D01*
X149465892Y-64906500D01*
X149593186Y-64872392D01*
X149707314Y-64806500D01*
X149800500Y-64713314D01*
X149866392Y-64599186D01*
X149900500Y-64471892D01*
X149900500Y-64340108D01*
X154899500Y-64340108D01*
X154899500Y-64471892D01*
X154924467Y-64565073D01*
X154933607Y-64599183D01*
X154933610Y-64599190D01*
X154999497Y-64713310D01*
X154999505Y-64713320D01*
X155092679Y-64806494D01*
X155092684Y-64806498D01*
X155092686Y-64806500D01*
X155206814Y-64872392D01*
X155334108Y-64906500D01*
X155334110Y-64906500D01*
X155465890Y-64906500D01*
X155465892Y-64906500D01*
X155593186Y-64872392D01*
X155707314Y-64806500D01*
X155707320Y-64806494D01*
X155806340Y-64707475D01*
X155807404Y-64708539D01*
X155857368Y-64672051D01*
X155928239Y-64667825D01*
X155990144Y-64702585D01*
X155999058Y-64712873D01*
X156092679Y-64806494D01*
X156092684Y-64806498D01*
X156092686Y-64806500D01*
X156206814Y-64872392D01*
X156334108Y-64906500D01*
X156334110Y-64906500D01*
X156465890Y-64906500D01*
X156465892Y-64906500D01*
X156593186Y-64872392D01*
X156707314Y-64806500D01*
X156707320Y-64806494D01*
X156806340Y-64707475D01*
X156807404Y-64708539D01*
X156857368Y-64672051D01*
X156928239Y-64667825D01*
X156990144Y-64702585D01*
X156999058Y-64712873D01*
X157092679Y-64806494D01*
X157092684Y-64806498D01*
X157092686Y-64806500D01*
X157206814Y-64872392D01*
X157334108Y-64906500D01*
X157334110Y-64906500D01*
X157465890Y-64906500D01*
X157465892Y-64906500D01*
X157593186Y-64872392D01*
X157707314Y-64806500D01*
X157800500Y-64713314D01*
X157866392Y-64599186D01*
X157900500Y-64471892D01*
X157900500Y-64340108D01*
X157866392Y-64212814D01*
X157846815Y-64178906D01*
X157800502Y-64098689D01*
X157800494Y-64098679D01*
X157707320Y-64005505D01*
X157707310Y-64005497D01*
X157593190Y-63939610D01*
X157593187Y-63939609D01*
X157593186Y-63939608D01*
X157593184Y-63939607D01*
X157593183Y-63939607D01*
X157559073Y-63930467D01*
X157465892Y-63905500D01*
X157334108Y-63905500D01*
X157265894Y-63923777D01*
X157206816Y-63939607D01*
X157206809Y-63939610D01*
X157092689Y-64005497D01*
X157092679Y-64005505D01*
X156993660Y-64104525D01*
X156992596Y-64103461D01*
X156942622Y-64139951D01*
X156871751Y-64144172D01*
X156809849Y-64109406D01*
X156800941Y-64099126D01*
X156707320Y-64005505D01*
X156707310Y-64005497D01*
X156593190Y-63939610D01*
X156593187Y-63939609D01*
X156593186Y-63939608D01*
X156593184Y-63939607D01*
X156593183Y-63939607D01*
X156559073Y-63930467D01*
X156465892Y-63905500D01*
X156334108Y-63905500D01*
X156265894Y-63923777D01*
X156206816Y-63939607D01*
X156206809Y-63939610D01*
X156092689Y-64005497D01*
X156092679Y-64005505D01*
X155993660Y-64104525D01*
X155992596Y-64103461D01*
X155942622Y-64139951D01*
X155871751Y-64144172D01*
X155809849Y-64109406D01*
X155800941Y-64099126D01*
X155707320Y-64005505D01*
X155707310Y-64005497D01*
X155593190Y-63939610D01*
X155593187Y-63939609D01*
X155593186Y-63939608D01*
X155593184Y-63939607D01*
X155593183Y-63939607D01*
X155559073Y-63930467D01*
X155465892Y-63905500D01*
X155334108Y-63905500D01*
X155265894Y-63923777D01*
X155206816Y-63939607D01*
X155206809Y-63939610D01*
X155092689Y-64005497D01*
X155092679Y-64005505D01*
X154999505Y-64098679D01*
X154999497Y-64098689D01*
X154933610Y-64212809D01*
X154933608Y-64212814D01*
X154899500Y-64340108D01*
X149900500Y-64340108D01*
X149866392Y-64212814D01*
X149846815Y-64178906D01*
X149800502Y-64098689D01*
X149800494Y-64098679D01*
X149707320Y-64005505D01*
X149707310Y-64005497D01*
X149593190Y-63939610D01*
X149593187Y-63939609D01*
X149593186Y-63939608D01*
X149593184Y-63939607D01*
X149593183Y-63939607D01*
X149559073Y-63930467D01*
X149465892Y-63905500D01*
X149334108Y-63905500D01*
X149265894Y-63923777D01*
X149206816Y-63939607D01*
X149206809Y-63939610D01*
X149092689Y-64005497D01*
X149092679Y-64005505D01*
X148993660Y-64104525D01*
X148992596Y-64103461D01*
X148942622Y-64139951D01*
X148871751Y-64144172D01*
X148809849Y-64109406D01*
X148800941Y-64099126D01*
X148707320Y-64005505D01*
X148707310Y-64005497D01*
X148593190Y-63939610D01*
X148593187Y-63939609D01*
X148593186Y-63939608D01*
X148593184Y-63939607D01*
X148593183Y-63939607D01*
X148559073Y-63930467D01*
X148465892Y-63905500D01*
X148334108Y-63905500D01*
X148265894Y-63923777D01*
X148206816Y-63939607D01*
X148206809Y-63939610D01*
X148092689Y-64005497D01*
X148092679Y-64005505D01*
X147993660Y-64104525D01*
X147992596Y-64103461D01*
X147942622Y-64139951D01*
X147871751Y-64144172D01*
X147809849Y-64109406D01*
X147800941Y-64099126D01*
X147707320Y-64005505D01*
X147707310Y-64005497D01*
X147593190Y-63939610D01*
X147593187Y-63939609D01*
X147593186Y-63939608D01*
X147593184Y-63939607D01*
X147593183Y-63939607D01*
X147559073Y-63930467D01*
X147465892Y-63905500D01*
X147334108Y-63905500D01*
X147265894Y-63923777D01*
X147206816Y-63939607D01*
X147206809Y-63939610D01*
X147092689Y-64005497D01*
X147092679Y-64005505D01*
X146999505Y-64098679D01*
X146999497Y-64098689D01*
X146933610Y-64212809D01*
X146933608Y-64212814D01*
X146899500Y-64340108D01*
X140015748Y-64340108D01*
X140017997Y-64317273D01*
X140022814Y-64293042D01*
X140072521Y-64129181D01*
X140081965Y-64106380D01*
X140162682Y-63955369D01*
X140176398Y-63934842D01*
X140285025Y-63802479D01*
X140302479Y-63785025D01*
X140434842Y-63676398D01*
X140455369Y-63662682D01*
X140606380Y-63581965D01*
X140629181Y-63572521D01*
X140793042Y-63522814D01*
X140817257Y-63517998D01*
X140993837Y-63500606D01*
X141006187Y-63500000D01*
X159267813Y-63500000D01*
X159280162Y-63500606D01*
G37*
%TD.AperFunction*%
%TD*%
M02*
