%TF.GenerationSoftware,KiCad,Pcbnew,9.0.4*%
%TF.CreationDate,2025-11-09T18:49:48-06:00*%
%TF.ProjectId,Smart_MoCo,536d6172-745f-44d6-9f43-6f2e6b696361,rev?*%
%TF.SameCoordinates,Original*%
%TF.FileFunction,Legend,Bot*%
%TF.FilePolarity,Positive*%
%FSLAX46Y46*%
G04 Gerber Fmt 4.6, Leading zero omitted, Abs format (unit mm)*
G04 Created by KiCad (PCBNEW 9.0.4) date 2025-11-09 18:49:48*
%MOMM*%
%LPD*%
G01*
G04 APERTURE LIST*
%ADD10C,0.120000*%
%ADD11C,0.010000*%
G04 APERTURE END LIST*
D10*
%TO.C,R10*%
X165585224Y-89139500D02*
X165075776Y-89139500D01*
X165585224Y-90184500D02*
X165075776Y-90184500D01*
%TO.C,U3*%
X163048000Y-84644000D02*
X163048000Y-82694000D01*
X163048000Y-84644000D02*
X163048000Y-86594000D01*
X168168000Y-84644000D02*
X168168000Y-82694000D01*
X168168000Y-84644000D02*
X168168000Y-86594000D01*
X168403000Y-87584000D02*
X168073000Y-87344000D01*
X168403000Y-87104000D01*
X168403000Y-87584000D01*
G36*
X168403000Y-87584000D02*
G01*
X168073000Y-87344000D01*
X168403000Y-87104000D01*
X168403000Y-87584000D01*
G37*
%TO.C,U1*%
X158300500Y-86154000D02*
X156100500Y-86154000D01*
X158300500Y-86154000D02*
X160500500Y-86154000D01*
X158300500Y-92924000D02*
X156100500Y-92924000D01*
X158300500Y-92924000D02*
X160500500Y-92924000D01*
X154440500Y-92464000D02*
X154110500Y-92704000D01*
X154110500Y-92224000D01*
X154440500Y-92464000D01*
G36*
X154440500Y-92464000D02*
G01*
X154110500Y-92704000D01*
X154110500Y-92224000D01*
X154440500Y-92464000D01*
G37*
D11*
%TO.C,G\u002A\u002A\u002A*%
X147013706Y-88470441D02*
X147009970Y-88474176D01*
X147006235Y-88470441D01*
X147009970Y-88466706D01*
X147013706Y-88470441D01*
G36*
X147013706Y-88470441D02*
G01*
X147009970Y-88474176D01*
X147006235Y-88470441D01*
X147009970Y-88466706D01*
X147013706Y-88470441D01*
G37*
X146995029Y-88480054D02*
X146994197Y-88480692D01*
X146982964Y-88487625D01*
X146960585Y-88500618D01*
X146928666Y-88518779D01*
X146888812Y-88541214D01*
X146842629Y-88567031D01*
X146791722Y-88595335D01*
X146737696Y-88625235D01*
X146682157Y-88655836D01*
X146626710Y-88686246D01*
X146572961Y-88715572D01*
X146522514Y-88742920D01*
X146491506Y-88759857D01*
X146458420Y-88778415D01*
X146432153Y-88793703D01*
X146414834Y-88804478D01*
X146408588Y-88809498D01*
X146409465Y-88811566D01*
X146420439Y-88821086D01*
X146442503Y-88835444D01*
X146473797Y-88853693D01*
X146512459Y-88874882D01*
X146556628Y-88898064D01*
X146604443Y-88922289D01*
X146654042Y-88946609D01*
X146703564Y-88970075D01*
X146751147Y-88991739D01*
X146794931Y-89010650D01*
X146833054Y-89025862D01*
X146910138Y-89054864D01*
X146877878Y-89073657D01*
X146877345Y-89073966D01*
X146860143Y-89083806D01*
X146832668Y-89099339D01*
X146797574Y-89119072D01*
X146757515Y-89141513D01*
X146715148Y-89165168D01*
X146713574Y-89166045D01*
X146664794Y-89193473D01*
X146607942Y-89225797D01*
X146547623Y-89260377D01*
X146488441Y-89294574D01*
X146435001Y-89325748D01*
X146381440Y-89357048D01*
X146319985Y-89392720D01*
X146256520Y-89429358D01*
X146196001Y-89464103D01*
X146143382Y-89494092D01*
X146085142Y-89527277D01*
X145858812Y-89659132D01*
X145626712Y-89798775D01*
X145392588Y-89943962D01*
X145291605Y-90007629D01*
X145172016Y-90083391D01*
X145063389Y-90152708D01*
X144964693Y-90216296D01*
X144874893Y-90274870D01*
X144792956Y-90329144D01*
X144717851Y-90379832D01*
X144648543Y-90427650D01*
X144584001Y-90473311D01*
X144523191Y-90517530D01*
X144465079Y-90561022D01*
X144408634Y-90604501D01*
X144352823Y-90648682D01*
X144296612Y-90694280D01*
X144238968Y-90742008D01*
X144178193Y-90793526D01*
X144062124Y-90896912D01*
X143959743Y-90995511D01*
X143870834Y-91089592D01*
X143795177Y-91179422D01*
X143732553Y-91265270D01*
X143682745Y-91347405D01*
X143645534Y-91426095D01*
X143620701Y-91501608D01*
X143620037Y-91504284D01*
X143610160Y-91569085D01*
X143609577Y-91642145D01*
X143618325Y-91720147D01*
X143622116Y-91742558D01*
X143610822Y-91718187D01*
X143608193Y-91712114D01*
X143596618Y-91672300D01*
X143589566Y-91623401D01*
X143587478Y-91569891D01*
X143590801Y-91516245D01*
X143591769Y-91508354D01*
X143599190Y-91462427D01*
X143609959Y-91418750D01*
X143625299Y-91373646D01*
X143646435Y-91323435D01*
X143674590Y-91264441D01*
X143674849Y-91263920D01*
X143718277Y-91184777D01*
X143771580Y-91102416D01*
X143835052Y-91016555D01*
X143908987Y-90926912D01*
X143993680Y-90833204D01*
X144089424Y-90735151D01*
X144196513Y-90632469D01*
X144315241Y-90524877D01*
X144445903Y-90412093D01*
X144588792Y-90293835D01*
X144744203Y-90169821D01*
X144912429Y-90039769D01*
X145093764Y-89903397D01*
X145104435Y-89895513D01*
X145142812Y-89867566D01*
X145191531Y-89832539D01*
X145249130Y-89791456D01*
X145314145Y-89745341D01*
X145385114Y-89695219D01*
X145460573Y-89642112D01*
X145539060Y-89587045D01*
X145619111Y-89531042D01*
X145699265Y-89475127D01*
X145778057Y-89420323D01*
X145854024Y-89367656D01*
X145925705Y-89318148D01*
X145991636Y-89272824D01*
X146050354Y-89232708D01*
X146100395Y-89198823D01*
X146130494Y-89178497D01*
X146168914Y-89152320D01*
X146201559Y-89129807D01*
X146226767Y-89112115D01*
X146242876Y-89100402D01*
X146248221Y-89095829D01*
X146246640Y-89096112D01*
X146233795Y-89100939D01*
X146209106Y-89111136D01*
X146173800Y-89126155D01*
X146129109Y-89145450D01*
X146076261Y-89168473D01*
X146016487Y-89194679D01*
X145951014Y-89223519D01*
X145881074Y-89254448D01*
X145807895Y-89286918D01*
X145732707Y-89320383D01*
X145656739Y-89354295D01*
X145581221Y-89388108D01*
X145507383Y-89421275D01*
X145436453Y-89453249D01*
X145369662Y-89483484D01*
X145308239Y-89511431D01*
X145253413Y-89536545D01*
X145206413Y-89558279D01*
X145168470Y-89576086D01*
X145130520Y-89594167D01*
X145025968Y-89644830D01*
X144931898Y-89691743D01*
X144848729Y-89734669D01*
X144776880Y-89773370D01*
X144716769Y-89807612D01*
X144668817Y-89837158D01*
X144633443Y-89861771D01*
X144611065Y-89881216D01*
X144602104Y-89895256D01*
X144602072Y-89895433D01*
X144606966Y-89908827D01*
X144624476Y-89923242D01*
X144627506Y-89925152D01*
X144638047Y-89934201D01*
X144636480Y-89938410D01*
X144624748Y-89937137D01*
X144604792Y-89929742D01*
X144593015Y-89921763D01*
X144585875Y-89904593D01*
X144591775Y-89881954D01*
X144610418Y-89854378D01*
X144641509Y-89822393D01*
X144684752Y-89786531D01*
X144720051Y-89760928D01*
X144770340Y-89727032D01*
X144831854Y-89687552D01*
X144903512Y-89643132D01*
X144984234Y-89594416D01*
X145072937Y-89542048D01*
X145168544Y-89486673D01*
X145269971Y-89428934D01*
X145376141Y-89369475D01*
X145485970Y-89308941D01*
X145509780Y-89295916D01*
X145577982Y-89258556D01*
X145650341Y-89218853D01*
X145723403Y-89178706D01*
X145793712Y-89140015D01*
X145857813Y-89104680D01*
X145912253Y-89074599D01*
X145949783Y-89053876D01*
X146011923Y-89019736D01*
X146076528Y-88984418D01*
X146139720Y-88950035D01*
X146197619Y-88918700D01*
X146246348Y-88892529D01*
X146267070Y-88881416D01*
X146307494Y-88859451D01*
X146342224Y-88840200D01*
X146369377Y-88824726D01*
X146387073Y-88814092D01*
X146393433Y-88809362D01*
X146393119Y-88808585D01*
X146384888Y-88801039D01*
X146367745Y-88788339D01*
X146344714Y-88772756D01*
X146338391Y-88768556D01*
X146317757Y-88753484D01*
X146304680Y-88741665D01*
X146301759Y-88735364D01*
X146302275Y-88735044D01*
X146312817Y-88730513D01*
X146335477Y-88721531D01*
X146368671Y-88708690D01*
X146410814Y-88692586D01*
X146460324Y-88673814D01*
X146515616Y-88652967D01*
X146575106Y-88630641D01*
X146637212Y-88607431D01*
X146700348Y-88583930D01*
X146762932Y-88560734D01*
X146823379Y-88538437D01*
X146880106Y-88517633D01*
X146931529Y-88498918D01*
X146953383Y-88491212D01*
X146977021Y-88483507D01*
X146991750Y-88479536D01*
X146995029Y-88480054D01*
G36*
X146995029Y-88480054D02*
G01*
X146994197Y-88480692D01*
X146982964Y-88487625D01*
X146960585Y-88500618D01*
X146928666Y-88518779D01*
X146888812Y-88541214D01*
X146842629Y-88567031D01*
X146791722Y-88595335D01*
X146737696Y-88625235D01*
X146682157Y-88655836D01*
X146626710Y-88686246D01*
X146572961Y-88715572D01*
X146522514Y-88742920D01*
X146491506Y-88759857D01*
X146458420Y-88778415D01*
X146432153Y-88793703D01*
X146414834Y-88804478D01*
X146408588Y-88809498D01*
X146409465Y-88811566D01*
X146420439Y-88821086D01*
X146442503Y-88835444D01*
X146473797Y-88853693D01*
X146512459Y-88874882D01*
X146556628Y-88898064D01*
X146604443Y-88922289D01*
X146654042Y-88946609D01*
X146703564Y-88970075D01*
X146751147Y-88991739D01*
X146794931Y-89010650D01*
X146833054Y-89025862D01*
X146910138Y-89054864D01*
X146877878Y-89073657D01*
X146877345Y-89073966D01*
X146860143Y-89083806D01*
X146832668Y-89099339D01*
X146797574Y-89119072D01*
X146757515Y-89141513D01*
X146715148Y-89165168D01*
X146713574Y-89166045D01*
X146664794Y-89193473D01*
X146607942Y-89225797D01*
X146547623Y-89260377D01*
X146488441Y-89294574D01*
X146435001Y-89325748D01*
X146381440Y-89357048D01*
X146319985Y-89392720D01*
X146256520Y-89429358D01*
X146196001Y-89464103D01*
X146143382Y-89494092D01*
X146085142Y-89527277D01*
X145858812Y-89659132D01*
X145626712Y-89798775D01*
X145392588Y-89943962D01*
X145291605Y-90007629D01*
X145172016Y-90083391D01*
X145063389Y-90152708D01*
X144964693Y-90216296D01*
X144874893Y-90274870D01*
X144792956Y-90329144D01*
X144717851Y-90379832D01*
X144648543Y-90427650D01*
X144584001Y-90473311D01*
X144523191Y-90517530D01*
X144465079Y-90561022D01*
X144408634Y-90604501D01*
X144352823Y-90648682D01*
X144296612Y-90694280D01*
X144238968Y-90742008D01*
X144178193Y-90793526D01*
X144062124Y-90896912D01*
X143959743Y-90995511D01*
X143870834Y-91089592D01*
X143795177Y-91179422D01*
X143732553Y-91265270D01*
X143682745Y-91347405D01*
X143645534Y-91426095D01*
X143620701Y-91501608D01*
X143620037Y-91504284D01*
X143610160Y-91569085D01*
X143609577Y-91642145D01*
X143618325Y-91720147D01*
X143622116Y-91742558D01*
X143610822Y-91718187D01*
X143608193Y-91712114D01*
X143596618Y-91672300D01*
X143589566Y-91623401D01*
X143587478Y-91569891D01*
X143590801Y-91516245D01*
X143591769Y-91508354D01*
X143599190Y-91462427D01*
X143609959Y-91418750D01*
X143625299Y-91373646D01*
X143646435Y-91323435D01*
X143674590Y-91264441D01*
X143674849Y-91263920D01*
X143718277Y-91184777D01*
X143771580Y-91102416D01*
X143835052Y-91016555D01*
X143908987Y-90926912D01*
X143993680Y-90833204D01*
X144089424Y-90735151D01*
X144196513Y-90632469D01*
X144315241Y-90524877D01*
X144445903Y-90412093D01*
X144588792Y-90293835D01*
X144744203Y-90169821D01*
X144912429Y-90039769D01*
X145093764Y-89903397D01*
X145104435Y-89895513D01*
X145142812Y-89867566D01*
X145191531Y-89832539D01*
X145249130Y-89791456D01*
X145314145Y-89745341D01*
X145385114Y-89695219D01*
X145460573Y-89642112D01*
X145539060Y-89587045D01*
X145619111Y-89531042D01*
X145699265Y-89475127D01*
X145778057Y-89420323D01*
X145854024Y-89367656D01*
X145925705Y-89318148D01*
X145991636Y-89272824D01*
X146050354Y-89232708D01*
X146100395Y-89198823D01*
X146130494Y-89178497D01*
X146168914Y-89152320D01*
X146201559Y-89129807D01*
X146226767Y-89112115D01*
X146242876Y-89100402D01*
X146248221Y-89095829D01*
X146246640Y-89096112D01*
X146233795Y-89100939D01*
X146209106Y-89111136D01*
X146173800Y-89126155D01*
X146129109Y-89145450D01*
X146076261Y-89168473D01*
X146016487Y-89194679D01*
X145951014Y-89223519D01*
X145881074Y-89254448D01*
X145807895Y-89286918D01*
X145732707Y-89320383D01*
X145656739Y-89354295D01*
X145581221Y-89388108D01*
X145507383Y-89421275D01*
X145436453Y-89453249D01*
X145369662Y-89483484D01*
X145308239Y-89511431D01*
X145253413Y-89536545D01*
X145206413Y-89558279D01*
X145168470Y-89576086D01*
X145130520Y-89594167D01*
X145025968Y-89644830D01*
X144931898Y-89691743D01*
X144848729Y-89734669D01*
X144776880Y-89773370D01*
X144716769Y-89807612D01*
X144668817Y-89837158D01*
X144633443Y-89861771D01*
X144611065Y-89881216D01*
X144602104Y-89895256D01*
X144602072Y-89895433D01*
X144606966Y-89908827D01*
X144624476Y-89923242D01*
X144627506Y-89925152D01*
X144638047Y-89934201D01*
X144636480Y-89938410D01*
X144624748Y-89937137D01*
X144604792Y-89929742D01*
X144593015Y-89921763D01*
X144585875Y-89904593D01*
X144591775Y-89881954D01*
X144610418Y-89854378D01*
X144641509Y-89822393D01*
X144684752Y-89786531D01*
X144720051Y-89760928D01*
X144770340Y-89727032D01*
X144831854Y-89687552D01*
X144903512Y-89643132D01*
X144984234Y-89594416D01*
X145072937Y-89542048D01*
X145168544Y-89486673D01*
X145269971Y-89428934D01*
X145376141Y-89369475D01*
X145485970Y-89308941D01*
X145509780Y-89295916D01*
X145577982Y-89258556D01*
X145650341Y-89218853D01*
X145723403Y-89178706D01*
X145793712Y-89140015D01*
X145857813Y-89104680D01*
X145912253Y-89074599D01*
X145949783Y-89053876D01*
X146011923Y-89019736D01*
X146076528Y-88984418D01*
X146139720Y-88950035D01*
X146197619Y-88918700D01*
X146246348Y-88892529D01*
X146267070Y-88881416D01*
X146307494Y-88859451D01*
X146342224Y-88840200D01*
X146369377Y-88824726D01*
X146387073Y-88814092D01*
X146393433Y-88809362D01*
X146393119Y-88808585D01*
X146384888Y-88801039D01*
X146367745Y-88788339D01*
X146344714Y-88772756D01*
X146338391Y-88768556D01*
X146317757Y-88753484D01*
X146304680Y-88741665D01*
X146301759Y-88735364D01*
X146302275Y-88735044D01*
X146312817Y-88730513D01*
X146335477Y-88721531D01*
X146368671Y-88708690D01*
X146410814Y-88692586D01*
X146460324Y-88673814D01*
X146515616Y-88652967D01*
X146575106Y-88630641D01*
X146637212Y-88607431D01*
X146700348Y-88583930D01*
X146762932Y-88560734D01*
X146823379Y-88538437D01*
X146880106Y-88517633D01*
X146931529Y-88498918D01*
X146953383Y-88491212D01*
X146977021Y-88483507D01*
X146991750Y-88479536D01*
X146995029Y-88480054D01*
G37*
X147799102Y-84281974D02*
X147860292Y-84283657D01*
X147913396Y-84286239D01*
X147955000Y-84289722D01*
X148086533Y-84307745D01*
X148277726Y-84345761D01*
X148462060Y-84397024D01*
X148639618Y-84461562D01*
X148810482Y-84539403D01*
X148974735Y-84630575D01*
X149056911Y-84680525D01*
X149154217Y-84681304D01*
X149299706Y-84682468D01*
X149374946Y-84683337D01*
X149454352Y-84685110D01*
X149523464Y-84687872D01*
X149584816Y-84691829D01*
X149640946Y-84697191D01*
X149694389Y-84704164D01*
X149747683Y-84712958D01*
X149803363Y-84723779D01*
X149804985Y-84724111D01*
X149846465Y-84730944D01*
X149884914Y-84734362D01*
X149917455Y-84734358D01*
X149941211Y-84730928D01*
X149953304Y-84724066D01*
X149953279Y-84723306D01*
X149944844Y-84718154D01*
X149924679Y-84710231D01*
X149895006Y-84700228D01*
X149858045Y-84688835D01*
X149816018Y-84676744D01*
X149771145Y-84664646D01*
X149725647Y-84653232D01*
X149698471Y-84647052D01*
X149633758Y-84634289D01*
X149559446Y-84621678D01*
X149478991Y-84609660D01*
X149395846Y-84598677D01*
X149313466Y-84589170D01*
X149235308Y-84581582D01*
X149164824Y-84576355D01*
X149105470Y-84573929D01*
X149086586Y-84573475D01*
X149074920Y-84572374D01*
X149075493Y-84570086D01*
X149086794Y-84565969D01*
X149090962Y-84564905D01*
X149112852Y-84562098D01*
X149146663Y-84559987D01*
X149190130Y-84558555D01*
X149240985Y-84557787D01*
X149296962Y-84557667D01*
X149355795Y-84558178D01*
X149415217Y-84559306D01*
X149472962Y-84561033D01*
X149526763Y-84563344D01*
X149574355Y-84566224D01*
X149613470Y-84569657D01*
X149738800Y-84585393D01*
X149862678Y-84605559D01*
X149976998Y-84629110D01*
X150065441Y-84651923D01*
X150080027Y-84655685D01*
X150170029Y-84684927D01*
X150173073Y-84686029D01*
X150209367Y-84697330D01*
X150247459Y-84706561D01*
X150279584Y-84711818D01*
X150285484Y-84712426D01*
X150374069Y-84727468D01*
X150453936Y-84752454D01*
X150524235Y-84786884D01*
X150584122Y-84830258D01*
X150632656Y-84881980D01*
X150632747Y-84882076D01*
X150669265Y-84941838D01*
X150671306Y-84946183D01*
X150684305Y-84975973D01*
X150694744Y-85003312D01*
X150700522Y-85022764D01*
X150705178Y-85037513D01*
X150716812Y-85062799D01*
X150731780Y-85088524D01*
X150745755Y-85110766D01*
X150790012Y-85196110D01*
X150826152Y-85290309D01*
X150846630Y-85365763D01*
X150853187Y-85389922D01*
X150870132Y-85491507D01*
X150876000Y-85591621D01*
X150876309Y-85605866D01*
X150879502Y-85625907D01*
X150888256Y-85643535D01*
X150905120Y-85665191D01*
X150927648Y-85693247D01*
X150980865Y-85774297D01*
X151019685Y-85859144D01*
X151044053Y-85947674D01*
X151050106Y-85995425D01*
X151051533Y-86060236D01*
X151046696Y-86126530D01*
X151035818Y-86187795D01*
X151024110Y-86226095D01*
X151004844Y-86275108D01*
X150980941Y-86327045D01*
X150954601Y-86377153D01*
X150928025Y-86420680D01*
X150892809Y-86470067D01*
X150839637Y-86535507D01*
X150778267Y-86601601D01*
X150707763Y-86669191D01*
X150627191Y-86739117D01*
X150535614Y-86812221D01*
X150432097Y-86889344D01*
X150315706Y-86971328D01*
X150283771Y-86993302D01*
X150243341Y-87021153D01*
X150207829Y-87045650D01*
X150179084Y-87065518D01*
X150158955Y-87079479D01*
X150149291Y-87086256D01*
X150140746Y-87098478D01*
X150132502Y-87123817D01*
X150124508Y-87163088D01*
X150121361Y-87180992D01*
X150084028Y-87349687D01*
X150033107Y-87518694D01*
X149969535Y-87685529D01*
X149894247Y-87847707D01*
X149808181Y-88002743D01*
X149780010Y-88048170D01*
X149672348Y-88203904D01*
X149553544Y-88350184D01*
X149424315Y-88486485D01*
X149285380Y-88612280D01*
X149137457Y-88727043D01*
X148981262Y-88830249D01*
X148817514Y-88921370D01*
X148646930Y-88999882D01*
X148470228Y-89065257D01*
X148288127Y-89116969D01*
X148181988Y-89140618D01*
X148079700Y-89158772D01*
X147978417Y-89171573D01*
X147874275Y-89179408D01*
X147763410Y-89182663D01*
X147641961Y-89181727D01*
X147631149Y-89181472D01*
X147543389Y-89178451D01*
X147465818Y-89173691D01*
X147394214Y-89166704D01*
X147324352Y-89157002D01*
X147252010Y-89144096D01*
X147172964Y-89127498D01*
X147081957Y-89107292D01*
X147061024Y-89123758D01*
X147054872Y-89128866D01*
X147036986Y-89144439D01*
X147010832Y-89167658D01*
X146978098Y-89196990D01*
X146940474Y-89230901D01*
X146899648Y-89267860D01*
X146857309Y-89306334D01*
X146815146Y-89344788D01*
X146774847Y-89381692D01*
X146738102Y-89415511D01*
X146706599Y-89444713D01*
X146682027Y-89467764D01*
X146653839Y-89495521D01*
X146618196Y-89532770D01*
X146581170Y-89573310D01*
X146545168Y-89614386D01*
X146512597Y-89653246D01*
X146485864Y-89687136D01*
X146467376Y-89713302D01*
X146466450Y-89714773D01*
X146450643Y-89747819D01*
X146445703Y-89781124D01*
X146445539Y-89793588D01*
X146444372Y-89806696D01*
X146440961Y-89808181D01*
X146433975Y-89800206D01*
X146431970Y-89797297D01*
X146425672Y-89773137D01*
X146430501Y-89739424D01*
X146446364Y-89696417D01*
X146473171Y-89644376D01*
X146510829Y-89583558D01*
X146513085Y-89580158D01*
X146544954Y-89534273D01*
X146582039Y-89484725D01*
X146625269Y-89430401D01*
X146675571Y-89370189D01*
X146733874Y-89302976D01*
X146801106Y-89227648D01*
X146878195Y-89143094D01*
X146882601Y-89138300D01*
X146908585Y-89109790D01*
X146925748Y-89090018D01*
X146935291Y-89077065D01*
X146938415Y-89069009D01*
X146936321Y-89063931D01*
X146930208Y-89059910D01*
X146922920Y-89055622D01*
X146920344Y-89050699D01*
X146927785Y-89044446D01*
X146946948Y-89034251D01*
X146956751Y-89029182D01*
X146980603Y-89016333D01*
X146998764Y-89005888D01*
X146999444Y-89005476D01*
X147004973Y-89003912D01*
X146999825Y-89011982D01*
X146984289Y-89029223D01*
X146968533Y-89046607D01*
X146957432Y-89060624D01*
X146954407Y-89067147D01*
X146956298Y-89068237D01*
X146969453Y-89073147D01*
X146991004Y-89080025D01*
X147016558Y-89087596D01*
X147041724Y-89094584D01*
X147062112Y-89099712D01*
X147073330Y-89101706D01*
X147076414Y-89100530D01*
X147089970Y-89091700D01*
X147111509Y-89075637D01*
X147138808Y-89054029D01*
X147169643Y-89028563D01*
X147175790Y-89023392D01*
X147213199Y-88992115D01*
X147251898Y-88960033D01*
X147287663Y-88930636D01*
X147316264Y-88907418D01*
X147328219Y-88897771D01*
X147356725Y-88874594D01*
X147392819Y-88845101D01*
X147434009Y-88811332D01*
X147477801Y-88775330D01*
X147521706Y-88739136D01*
X147553639Y-88712911D01*
X147599407Y-88676134D01*
X147639007Y-88645748D01*
X147675558Y-88619550D01*
X147712181Y-88595339D01*
X147751994Y-88570914D01*
X147798117Y-88544072D01*
X147875656Y-88499341D01*
X148037665Y-88403078D01*
X148190662Y-88307963D01*
X148338240Y-88211677D01*
X148483995Y-88111900D01*
X148631521Y-88006312D01*
X148700172Y-87957005D01*
X148763080Y-87913853D01*
X148822808Y-87875336D01*
X148883430Y-87838827D01*
X148949021Y-87801701D01*
X148954488Y-87798675D01*
X149007778Y-87768435D01*
X149064521Y-87735082D01*
X149120549Y-87701136D01*
X149171696Y-87669117D01*
X149213794Y-87641547D01*
X149241771Y-87623119D01*
X149287725Y-87594136D01*
X149341069Y-87561568D01*
X149398521Y-87527387D01*
X149456798Y-87493565D01*
X149512617Y-87462073D01*
X149548186Y-87442228D01*
X149612781Y-87405649D01*
X149678904Y-87367591D01*
X149745235Y-87328859D01*
X149810455Y-87290259D01*
X149873243Y-87252597D01*
X149932280Y-87216677D01*
X149986246Y-87183306D01*
X150033822Y-87153290D01*
X150073686Y-87127434D01*
X150104521Y-87106543D01*
X150125005Y-87091424D01*
X150133819Y-87082882D01*
X150138680Y-87069522D01*
X150144937Y-87038690D01*
X150150109Y-86996379D01*
X150154181Y-86944630D01*
X150157139Y-86885481D01*
X150158967Y-86820974D01*
X150159651Y-86753146D01*
X150159176Y-86684039D01*
X150157526Y-86615691D01*
X150154687Y-86550143D01*
X150150644Y-86489433D01*
X150145382Y-86435603D01*
X150138886Y-86390690D01*
X150137734Y-86384251D01*
X150638670Y-86384251D01*
X150642375Y-86382673D01*
X150654429Y-86372139D01*
X150673355Y-86353991D01*
X150697677Y-86329576D01*
X150713617Y-86313032D01*
X150755018Y-86266364D01*
X150787537Y-86222449D01*
X150813941Y-86177257D01*
X150836998Y-86126759D01*
X150847795Y-86095890D01*
X150855033Y-86059931D01*
X150858180Y-86016353D01*
X150858428Y-86006850D01*
X150858579Y-85976589D01*
X150857780Y-85952081D01*
X150856150Y-85937911D01*
X150853117Y-85928201D01*
X150846630Y-85917859D01*
X150840702Y-85922337D01*
X150835793Y-85941554D01*
X150831673Y-85961801D01*
X150821362Y-86000271D01*
X150807239Y-86045376D01*
X150790698Y-86092963D01*
X150773138Y-86138879D01*
X150755954Y-86178970D01*
X150754692Y-86181688D01*
X150725837Y-86238478D01*
X150687594Y-86305196D01*
X150639637Y-86382411D01*
X150638670Y-86384251D01*
X150137734Y-86384251D01*
X150134351Y-86365351D01*
X150078745Y-86424308D01*
X150023139Y-86483264D01*
X150069879Y-86424999D01*
X150083105Y-86408665D01*
X150101743Y-86386213D01*
X150115738Y-86370063D01*
X150122780Y-86362925D01*
X150124742Y-86361122D01*
X150127979Y-86349975D01*
X150138838Y-86349975D01*
X150142517Y-86347791D01*
X150153723Y-86336100D01*
X150170328Y-86316527D01*
X150190312Y-86291368D01*
X150205722Y-86271332D01*
X150235531Y-86231822D01*
X150255941Y-86203486D01*
X150266886Y-86186416D01*
X150268301Y-86180706D01*
X150267931Y-86180818D01*
X150260803Y-86187779D01*
X150247273Y-86203711D01*
X150229311Y-86226037D01*
X150208888Y-86252180D01*
X150187975Y-86279565D01*
X150168543Y-86305613D01*
X150152562Y-86327749D01*
X150142003Y-86343395D01*
X150138838Y-86349975D01*
X150127979Y-86349975D01*
X150128279Y-86348942D01*
X150127709Y-86326007D01*
X150122945Y-86291139D01*
X150113898Y-86243160D01*
X150111493Y-86231819D01*
X150104820Y-86202463D01*
X150096942Y-86169500D01*
X150270882Y-86169500D01*
X150274617Y-86173235D01*
X150278353Y-86169500D01*
X150274617Y-86165764D01*
X150270882Y-86169500D01*
X150096942Y-86169500D01*
X150096404Y-86167249D01*
X150086989Y-86129089D01*
X150077318Y-86090899D01*
X150068132Y-86055590D01*
X150060175Y-86026076D01*
X150054190Y-86005272D01*
X150050919Y-85996089D01*
X150047185Y-85999137D01*
X150034087Y-86011273D01*
X150012949Y-86031367D01*
X149985212Y-86058039D01*
X149952312Y-86089913D01*
X149915687Y-86125611D01*
X149904873Y-86136166D01*
X149838149Y-86200670D01*
X149765813Y-86269666D01*
X149689495Y-86341661D01*
X149610822Y-86415157D01*
X149531423Y-86488662D01*
X149452925Y-86560678D01*
X149376958Y-86629713D01*
X149305148Y-86694270D01*
X149239126Y-86752854D01*
X149180518Y-86803971D01*
X149130953Y-86846125D01*
X149113346Y-86861625D01*
X149084728Y-86888253D01*
X149048419Y-86923042D01*
X149005837Y-86964596D01*
X148958402Y-87011520D01*
X148907532Y-87062419D01*
X148854645Y-87115897D01*
X148801159Y-87170558D01*
X148771708Y-87200863D01*
X148708850Y-87265756D01*
X148654829Y-87321582D01*
X148608362Y-87369327D01*
X148568166Y-87409979D01*
X148532960Y-87444525D01*
X148501460Y-87473950D01*
X148472384Y-87499242D01*
X148444449Y-87521387D01*
X148416373Y-87541371D01*
X148386873Y-87560181D01*
X148354667Y-87578805D01*
X148318471Y-87598228D01*
X148277004Y-87619437D01*
X148228983Y-87643419D01*
X148173124Y-87671160D01*
X148108147Y-87703647D01*
X148060418Y-87727617D01*
X147976236Y-87769727D01*
X147888761Y-87813267D01*
X147797068Y-87858690D01*
X147700229Y-87906451D01*
X147597316Y-87957002D01*
X147487402Y-88010796D01*
X147369560Y-88068289D01*
X147242862Y-88129932D01*
X147106382Y-88196181D01*
X146959191Y-88267487D01*
X146800363Y-88344305D01*
X146628970Y-88427089D01*
X146599197Y-88441468D01*
X146524711Y-88477499D01*
X146454612Y-88511492D01*
X146390033Y-88542892D01*
X146332110Y-88571142D01*
X146281976Y-88595689D01*
X146240768Y-88615977D01*
X146209618Y-88631451D01*
X146189663Y-88641556D01*
X146182036Y-88645736D01*
X146182433Y-88648751D01*
X146191545Y-88659348D01*
X146209255Y-88674992D01*
X146233244Y-88693519D01*
X146290623Y-88735422D01*
X146269296Y-88743486D01*
X146257805Y-88747839D01*
X146200528Y-88769719D01*
X146134401Y-88795218D01*
X146061958Y-88823342D01*
X145985733Y-88853095D01*
X145908260Y-88883482D01*
X145832073Y-88913506D01*
X145759704Y-88942172D01*
X145693689Y-88968485D01*
X145636560Y-88991449D01*
X145590852Y-89010068D01*
X145537915Y-89031961D01*
X145479416Y-89056552D01*
X145431731Y-89077222D01*
X145393090Y-89094809D01*
X145361724Y-89110154D01*
X145335864Y-89124096D01*
X145313741Y-89137475D01*
X145293585Y-89151129D01*
X145283250Y-89158428D01*
X145264096Y-89171151D01*
X145255092Y-89175063D01*
X145255038Y-89170410D01*
X145262734Y-89157438D01*
X145268897Y-89149935D01*
X145290696Y-89130873D01*
X145324868Y-89106185D01*
X145370640Y-89076318D01*
X145427241Y-89041719D01*
X145493896Y-89002835D01*
X145569832Y-88960112D01*
X145654277Y-88913996D01*
X145746457Y-88864936D01*
X145845600Y-88813377D01*
X145950931Y-88759766D01*
X145985162Y-88742475D01*
X146034913Y-88717164D01*
X146079113Y-88694460D01*
X146116199Y-88675176D01*
X146144608Y-88660129D01*
X146162778Y-88650132D01*
X146169147Y-88646000D01*
X146164107Y-88640341D01*
X146150165Y-88628187D01*
X146130476Y-88612382D01*
X146112249Y-88597340D01*
X146079927Y-88568335D01*
X146041569Y-88532015D01*
X145999410Y-88490646D01*
X145955686Y-88446495D01*
X145912635Y-88401829D01*
X145872493Y-88358915D01*
X145837495Y-88320020D01*
X145809879Y-88287411D01*
X145743941Y-88202403D01*
X145633909Y-88042630D01*
X145537865Y-87877640D01*
X145455743Y-87707273D01*
X145387479Y-87531370D01*
X145333005Y-87349772D01*
X145292256Y-87162319D01*
X145265166Y-86968853D01*
X145262537Y-86938449D01*
X145259228Y-86876978D01*
X145257385Y-86806791D01*
X145256976Y-86731767D01*
X145257972Y-86655783D01*
X145260343Y-86582718D01*
X145264058Y-86516448D01*
X145269089Y-86460853D01*
X145288491Y-86325277D01*
X145328007Y-86137162D01*
X145381431Y-85953942D01*
X145448518Y-85776183D01*
X145529020Y-85604451D01*
X145622691Y-85439313D01*
X145729282Y-85281337D01*
X145848548Y-85131088D01*
X145867017Y-85110087D01*
X145911729Y-85061998D01*
X145963050Y-85009636D01*
X146017736Y-84956145D01*
X146072540Y-84904665D01*
X146124220Y-84858338D01*
X146169529Y-84820305D01*
X146224232Y-84777720D01*
X146298666Y-84725684D01*
X149127882Y-84725684D01*
X149129962Y-84728276D01*
X149141547Y-84738407D01*
X149161021Y-84753966D01*
X149185779Y-84772830D01*
X149272631Y-84841042D01*
X149409861Y-84963707D01*
X149538017Y-85097450D01*
X149656353Y-85241261D01*
X149764125Y-85394133D01*
X149860587Y-85555056D01*
X149944993Y-85723021D01*
X150016596Y-85897020D01*
X150017214Y-85898700D01*
X150029420Y-85931585D01*
X150039716Y-85958784D01*
X150047035Y-85977512D01*
X150050309Y-85984985D01*
X150052246Y-85984131D01*
X150062488Y-85974680D01*
X150080044Y-85956404D01*
X150089178Y-85946474D01*
X150587563Y-85946474D01*
X150587594Y-85954555D01*
X150587600Y-85954560D01*
X150591260Y-85949688D01*
X150597770Y-85933040D01*
X150606328Y-85907318D01*
X150616135Y-85875228D01*
X150626392Y-85839472D01*
X150636299Y-85802754D01*
X150645056Y-85767779D01*
X150651863Y-85737251D01*
X150652608Y-85733581D01*
X150660111Y-85695635D01*
X150664445Y-85669187D01*
X150665522Y-85651348D01*
X150663256Y-85639229D01*
X150657558Y-85629941D01*
X150648342Y-85620595D01*
X150646587Y-85618947D01*
X150638579Y-85611964D01*
X150632656Y-85609486D01*
X150628268Y-85613244D01*
X150624864Y-85624969D01*
X150621894Y-85646392D01*
X150618806Y-85679245D01*
X150615051Y-85725258D01*
X150611119Y-85768539D01*
X150606143Y-85814493D01*
X150600856Y-85856508D01*
X150595897Y-85889099D01*
X150593946Y-85900501D01*
X150589831Y-85927269D01*
X150587563Y-85946474D01*
X150089178Y-85946474D01*
X150103399Y-85931014D01*
X150131038Y-85900220D01*
X150161447Y-85865733D01*
X150193111Y-85829263D01*
X150224515Y-85792520D01*
X150254144Y-85757217D01*
X150268301Y-85739933D01*
X150274617Y-85732223D01*
X150280483Y-85725062D01*
X150289321Y-85714018D01*
X150320176Y-85674421D01*
X150350865Y-85633660D01*
X150378253Y-85595946D01*
X150399205Y-85565494D01*
X150412281Y-85544747D01*
X150427986Y-85517145D01*
X150438726Y-85494835D01*
X150442706Y-85481295D01*
X150442372Y-85477314D01*
X150439046Y-85468878D01*
X150430998Y-85459351D01*
X150416817Y-85447747D01*
X150395091Y-85433076D01*
X150364408Y-85414351D01*
X150323359Y-85390584D01*
X150270530Y-85360787D01*
X150264607Y-85357475D01*
X150209005Y-85326816D01*
X150157658Y-85299506D01*
X150107955Y-85274326D01*
X150057286Y-85250057D01*
X150003043Y-85225481D01*
X149942615Y-85199381D01*
X149873392Y-85170536D01*
X149792764Y-85137729D01*
X149754232Y-85122081D01*
X149704108Y-85101409D01*
X149660481Y-85083042D01*
X149624828Y-85067623D01*
X149598628Y-85055793D01*
X149583358Y-85048195D01*
X149580496Y-85045471D01*
X149584754Y-85045779D01*
X149603972Y-85049165D01*
X149634207Y-85055800D01*
X149673112Y-85065079D01*
X149718339Y-85076398D01*
X149767540Y-85089151D01*
X149818366Y-85102736D01*
X149868470Y-85116547D01*
X149915503Y-85129979D01*
X149957117Y-85142429D01*
X149979822Y-85149629D01*
X150037716Y-85169218D01*
X150102755Y-85192549D01*
X150170652Y-85217998D01*
X150237121Y-85243940D01*
X150297878Y-85268751D01*
X150348635Y-85290807D01*
X150353685Y-85293080D01*
X150377846Y-85303310D01*
X150395578Y-85309770D01*
X150403344Y-85311145D01*
X150403490Y-85310963D01*
X150402175Y-85301708D01*
X150394830Y-85282768D01*
X150382962Y-85257127D01*
X150368082Y-85227769D01*
X150351697Y-85197676D01*
X150335316Y-85169833D01*
X150320448Y-85147222D01*
X150315904Y-85141008D01*
X150278564Y-85096152D01*
X150233240Y-85049843D01*
X150184636Y-85006612D01*
X150137455Y-84970987D01*
X150115331Y-84956975D01*
X150070741Y-84931874D01*
X150018628Y-84905332D01*
X149963110Y-84879328D01*
X149908302Y-84855838D01*
X149858321Y-84836843D01*
X149793142Y-84814142D01*
X149703997Y-84828685D01*
X149675716Y-84833471D01*
X149624110Y-84842773D01*
X149570814Y-84852933D01*
X149523714Y-84862471D01*
X149520386Y-84863171D01*
X149485881Y-84870117D01*
X149457289Y-84875324D01*
X149437503Y-84878300D01*
X149429414Y-84878551D01*
X149429428Y-84877162D01*
X149438832Y-84870875D01*
X149460562Y-84861105D01*
X149493187Y-84848421D01*
X149535275Y-84833391D01*
X149585395Y-84816584D01*
X149589551Y-84815219D01*
X149621302Y-84804123D01*
X149637961Y-84797501D01*
X150065441Y-84797501D01*
X150138079Y-84834634D01*
X150224950Y-84883345D01*
X150311907Y-84943570D01*
X150386886Y-85009743D01*
X150451218Y-85083057D01*
X150506234Y-85164706D01*
X150509725Y-85170630D01*
X150524278Y-85195227D01*
X150533202Y-85209751D01*
X150538158Y-85216552D01*
X150540810Y-85217978D01*
X150542822Y-85216377D01*
X150544874Y-85208662D01*
X150547655Y-85190000D01*
X150550450Y-85164706D01*
X150555081Y-85116147D01*
X150518769Y-85071323D01*
X150492014Y-85039979D01*
X150415608Y-84965035D01*
X150326287Y-84896015D01*
X150223464Y-84832446D01*
X150206007Y-84823081D01*
X150178094Y-84810785D01*
X150151415Y-84804061D01*
X150118876Y-84800759D01*
X150065441Y-84797501D01*
X149637961Y-84797501D01*
X149645838Y-84794370D01*
X149660802Y-84786972D01*
X149663836Y-84782938D01*
X149655104Y-84780062D01*
X149633175Y-84775086D01*
X149601724Y-84769021D01*
X149563684Y-84762358D01*
X149521987Y-84755588D01*
X149479568Y-84749200D01*
X149439359Y-84743686D01*
X149404294Y-84739536D01*
X149383256Y-84737479D01*
X149344583Y-84734239D01*
X149302652Y-84731243D01*
X149260056Y-84728622D01*
X149219390Y-84726506D01*
X149183245Y-84725024D01*
X149154217Y-84724306D01*
X149134898Y-84724483D01*
X149127882Y-84725684D01*
X146298666Y-84725684D01*
X146381841Y-84667537D01*
X146545796Y-84570867D01*
X146716130Y-84487696D01*
X146892878Y-84418010D01*
X147076073Y-84361795D01*
X147265749Y-84319037D01*
X147461941Y-84289722D01*
X147491350Y-84287068D01*
X147541761Y-84284249D01*
X147601155Y-84282330D01*
X147666120Y-84281311D01*
X147733240Y-84281192D01*
X147799102Y-84281974D01*
G36*
X147799102Y-84281974D02*
G01*
X147860292Y-84283657D01*
X147913396Y-84286239D01*
X147955000Y-84289722D01*
X148086533Y-84307745D01*
X148277726Y-84345761D01*
X148462060Y-84397024D01*
X148639618Y-84461562D01*
X148810482Y-84539403D01*
X148974735Y-84630575D01*
X149056911Y-84680525D01*
X149154217Y-84681304D01*
X149299706Y-84682468D01*
X149374946Y-84683337D01*
X149454352Y-84685110D01*
X149523464Y-84687872D01*
X149584816Y-84691829D01*
X149640946Y-84697191D01*
X149694389Y-84704164D01*
X149747683Y-84712958D01*
X149803363Y-84723779D01*
X149804985Y-84724111D01*
X149846465Y-84730944D01*
X149884914Y-84734362D01*
X149917455Y-84734358D01*
X149941211Y-84730928D01*
X149953304Y-84724066D01*
X149953279Y-84723306D01*
X149944844Y-84718154D01*
X149924679Y-84710231D01*
X149895006Y-84700228D01*
X149858045Y-84688835D01*
X149816018Y-84676744D01*
X149771145Y-84664646D01*
X149725647Y-84653232D01*
X149698471Y-84647052D01*
X149633758Y-84634289D01*
X149559446Y-84621678D01*
X149478991Y-84609660D01*
X149395846Y-84598677D01*
X149313466Y-84589170D01*
X149235308Y-84581582D01*
X149164824Y-84576355D01*
X149105470Y-84573929D01*
X149086586Y-84573475D01*
X149074920Y-84572374D01*
X149075493Y-84570086D01*
X149086794Y-84565969D01*
X149090962Y-84564905D01*
X149112852Y-84562098D01*
X149146663Y-84559987D01*
X149190130Y-84558555D01*
X149240985Y-84557787D01*
X149296962Y-84557667D01*
X149355795Y-84558178D01*
X149415217Y-84559306D01*
X149472962Y-84561033D01*
X149526763Y-84563344D01*
X149574355Y-84566224D01*
X149613470Y-84569657D01*
X149738800Y-84585393D01*
X149862678Y-84605559D01*
X149976998Y-84629110D01*
X150065441Y-84651923D01*
X150080027Y-84655685D01*
X150170029Y-84684927D01*
X150173073Y-84686029D01*
X150209367Y-84697330D01*
X150247459Y-84706561D01*
X150279584Y-84711818D01*
X150285484Y-84712426D01*
X150374069Y-84727468D01*
X150453936Y-84752454D01*
X150524235Y-84786884D01*
X150584122Y-84830258D01*
X150632656Y-84881980D01*
X150632747Y-84882076D01*
X150669265Y-84941838D01*
X150671306Y-84946183D01*
X150684305Y-84975973D01*
X150694744Y-85003312D01*
X150700522Y-85022764D01*
X150705178Y-85037513D01*
X150716812Y-85062799D01*
X150731780Y-85088524D01*
X150745755Y-85110766D01*
X150790012Y-85196110D01*
X150826152Y-85290309D01*
X150846630Y-85365763D01*
X150853187Y-85389922D01*
X150870132Y-85491507D01*
X150876000Y-85591621D01*
X150876309Y-85605866D01*
X150879502Y-85625907D01*
X150888256Y-85643535D01*
X150905120Y-85665191D01*
X150927648Y-85693247D01*
X150980865Y-85774297D01*
X151019685Y-85859144D01*
X151044053Y-85947674D01*
X151050106Y-85995425D01*
X151051533Y-86060236D01*
X151046696Y-86126530D01*
X151035818Y-86187795D01*
X151024110Y-86226095D01*
X151004844Y-86275108D01*
X150980941Y-86327045D01*
X150954601Y-86377153D01*
X150928025Y-86420680D01*
X150892809Y-86470067D01*
X150839637Y-86535507D01*
X150778267Y-86601601D01*
X150707763Y-86669191D01*
X150627191Y-86739117D01*
X150535614Y-86812221D01*
X150432097Y-86889344D01*
X150315706Y-86971328D01*
X150283771Y-86993302D01*
X150243341Y-87021153D01*
X150207829Y-87045650D01*
X150179084Y-87065518D01*
X150158955Y-87079479D01*
X150149291Y-87086256D01*
X150140746Y-87098478D01*
X150132502Y-87123817D01*
X150124508Y-87163088D01*
X150121361Y-87180992D01*
X150084028Y-87349687D01*
X150033107Y-87518694D01*
X149969535Y-87685529D01*
X149894247Y-87847707D01*
X149808181Y-88002743D01*
X149780010Y-88048170D01*
X149672348Y-88203904D01*
X149553544Y-88350184D01*
X149424315Y-88486485D01*
X149285380Y-88612280D01*
X149137457Y-88727043D01*
X148981262Y-88830249D01*
X148817514Y-88921370D01*
X148646930Y-88999882D01*
X148470228Y-89065257D01*
X148288127Y-89116969D01*
X148181988Y-89140618D01*
X148079700Y-89158772D01*
X147978417Y-89171573D01*
X147874275Y-89179408D01*
X147763410Y-89182663D01*
X147641961Y-89181727D01*
X147631149Y-89181472D01*
X147543389Y-89178451D01*
X147465818Y-89173691D01*
X147394214Y-89166704D01*
X147324352Y-89157002D01*
X147252010Y-89144096D01*
X147172964Y-89127498D01*
X147081957Y-89107292D01*
X147061024Y-89123758D01*
X147054872Y-89128866D01*
X147036986Y-89144439D01*
X147010832Y-89167658D01*
X146978098Y-89196990D01*
X146940474Y-89230901D01*
X146899648Y-89267860D01*
X146857309Y-89306334D01*
X146815146Y-89344788D01*
X146774847Y-89381692D01*
X146738102Y-89415511D01*
X146706599Y-89444713D01*
X146682027Y-89467764D01*
X146653839Y-89495521D01*
X146618196Y-89532770D01*
X146581170Y-89573310D01*
X146545168Y-89614386D01*
X146512597Y-89653246D01*
X146485864Y-89687136D01*
X146467376Y-89713302D01*
X146466450Y-89714773D01*
X146450643Y-89747819D01*
X146445703Y-89781124D01*
X146445539Y-89793588D01*
X146444372Y-89806696D01*
X146440961Y-89808181D01*
X146433975Y-89800206D01*
X146431970Y-89797297D01*
X146425672Y-89773137D01*
X146430501Y-89739424D01*
X146446364Y-89696417D01*
X146473171Y-89644376D01*
X146510829Y-89583558D01*
X146513085Y-89580158D01*
X146544954Y-89534273D01*
X146582039Y-89484725D01*
X146625269Y-89430401D01*
X146675571Y-89370189D01*
X146733874Y-89302976D01*
X146801106Y-89227648D01*
X146878195Y-89143094D01*
X146882601Y-89138300D01*
X146908585Y-89109790D01*
X146925748Y-89090018D01*
X146935291Y-89077065D01*
X146938415Y-89069009D01*
X146936321Y-89063931D01*
X146930208Y-89059910D01*
X146922920Y-89055622D01*
X146920344Y-89050699D01*
X146927785Y-89044446D01*
X146946948Y-89034251D01*
X146956751Y-89029182D01*
X146980603Y-89016333D01*
X146998764Y-89005888D01*
X146999444Y-89005476D01*
X147004973Y-89003912D01*
X146999825Y-89011982D01*
X146984289Y-89029223D01*
X146968533Y-89046607D01*
X146957432Y-89060624D01*
X146954407Y-89067147D01*
X146956298Y-89068237D01*
X146969453Y-89073147D01*
X146991004Y-89080025D01*
X147016558Y-89087596D01*
X147041724Y-89094584D01*
X147062112Y-89099712D01*
X147073330Y-89101706D01*
X147076414Y-89100530D01*
X147089970Y-89091700D01*
X147111509Y-89075637D01*
X147138808Y-89054029D01*
X147169643Y-89028563D01*
X147175790Y-89023392D01*
X147213199Y-88992115D01*
X147251898Y-88960033D01*
X147287663Y-88930636D01*
X147316264Y-88907418D01*
X147328219Y-88897771D01*
X147356725Y-88874594D01*
X147392819Y-88845101D01*
X147434009Y-88811332D01*
X147477801Y-88775330D01*
X147521706Y-88739136D01*
X147553639Y-88712911D01*
X147599407Y-88676134D01*
X147639007Y-88645748D01*
X147675558Y-88619550D01*
X147712181Y-88595339D01*
X147751994Y-88570914D01*
X147798117Y-88544072D01*
X147875656Y-88499341D01*
X148037665Y-88403078D01*
X148190662Y-88307963D01*
X148338240Y-88211677D01*
X148483995Y-88111900D01*
X148631521Y-88006312D01*
X148700172Y-87957005D01*
X148763080Y-87913853D01*
X148822808Y-87875336D01*
X148883430Y-87838827D01*
X148949021Y-87801701D01*
X148954488Y-87798675D01*
X149007778Y-87768435D01*
X149064521Y-87735082D01*
X149120549Y-87701136D01*
X149171696Y-87669117D01*
X149213794Y-87641547D01*
X149241771Y-87623119D01*
X149287725Y-87594136D01*
X149341069Y-87561568D01*
X149398521Y-87527387D01*
X149456798Y-87493565D01*
X149512617Y-87462073D01*
X149548186Y-87442228D01*
X149612781Y-87405649D01*
X149678904Y-87367591D01*
X149745235Y-87328859D01*
X149810455Y-87290259D01*
X149873243Y-87252597D01*
X149932280Y-87216677D01*
X149986246Y-87183306D01*
X150033822Y-87153290D01*
X150073686Y-87127434D01*
X150104521Y-87106543D01*
X150125005Y-87091424D01*
X150133819Y-87082882D01*
X150138680Y-87069522D01*
X150144937Y-87038690D01*
X150150109Y-86996379D01*
X150154181Y-86944630D01*
X150157139Y-86885481D01*
X150158967Y-86820974D01*
X150159651Y-86753146D01*
X150159176Y-86684039D01*
X150157526Y-86615691D01*
X150154687Y-86550143D01*
X150150644Y-86489433D01*
X150145382Y-86435603D01*
X150138886Y-86390690D01*
X150137734Y-86384251D01*
X150638670Y-86384251D01*
X150642375Y-86382673D01*
X150654429Y-86372139D01*
X150673355Y-86353991D01*
X150697677Y-86329576D01*
X150713617Y-86313032D01*
X150755018Y-86266364D01*
X150787537Y-86222449D01*
X150813941Y-86177257D01*
X150836998Y-86126759D01*
X150847795Y-86095890D01*
X150855033Y-86059931D01*
X150858180Y-86016353D01*
X150858428Y-86006850D01*
X150858579Y-85976589D01*
X150857780Y-85952081D01*
X150856150Y-85937911D01*
X150853117Y-85928201D01*
X150846630Y-85917859D01*
X150840702Y-85922337D01*
X150835793Y-85941554D01*
X150831673Y-85961801D01*
X150821362Y-86000271D01*
X150807239Y-86045376D01*
X150790698Y-86092963D01*
X150773138Y-86138879D01*
X150755954Y-86178970D01*
X150754692Y-86181688D01*
X150725837Y-86238478D01*
X150687594Y-86305196D01*
X150639637Y-86382411D01*
X150638670Y-86384251D01*
X150137734Y-86384251D01*
X150134351Y-86365351D01*
X150078745Y-86424308D01*
X150023139Y-86483264D01*
X150069879Y-86424999D01*
X150083105Y-86408665D01*
X150101743Y-86386213D01*
X150115738Y-86370063D01*
X150122780Y-86362925D01*
X150124742Y-86361122D01*
X150127979Y-86349975D01*
X150138838Y-86349975D01*
X150142517Y-86347791D01*
X150153723Y-86336100D01*
X150170328Y-86316527D01*
X150190312Y-86291368D01*
X150205722Y-86271332D01*
X150235531Y-86231822D01*
X150255941Y-86203486D01*
X150266886Y-86186416D01*
X150268301Y-86180706D01*
X150267931Y-86180818D01*
X150260803Y-86187779D01*
X150247273Y-86203711D01*
X150229311Y-86226037D01*
X150208888Y-86252180D01*
X150187975Y-86279565D01*
X150168543Y-86305613D01*
X150152562Y-86327749D01*
X150142003Y-86343395D01*
X150138838Y-86349975D01*
X150127979Y-86349975D01*
X150128279Y-86348942D01*
X150127709Y-86326007D01*
X150122945Y-86291139D01*
X150113898Y-86243160D01*
X150111493Y-86231819D01*
X150104820Y-86202463D01*
X150096942Y-86169500D01*
X150270882Y-86169500D01*
X150274617Y-86173235D01*
X150278353Y-86169500D01*
X150274617Y-86165764D01*
X150270882Y-86169500D01*
X150096942Y-86169500D01*
X150096404Y-86167249D01*
X150086989Y-86129089D01*
X150077318Y-86090899D01*
X150068132Y-86055590D01*
X150060175Y-86026076D01*
X150054190Y-86005272D01*
X150050919Y-85996089D01*
X150047185Y-85999137D01*
X150034087Y-86011273D01*
X150012949Y-86031367D01*
X149985212Y-86058039D01*
X149952312Y-86089913D01*
X149915687Y-86125611D01*
X149904873Y-86136166D01*
X149838149Y-86200670D01*
X149765813Y-86269666D01*
X149689495Y-86341661D01*
X149610822Y-86415157D01*
X149531423Y-86488662D01*
X149452925Y-86560678D01*
X149376958Y-86629713D01*
X149305148Y-86694270D01*
X149239126Y-86752854D01*
X149180518Y-86803971D01*
X149130953Y-86846125D01*
X149113346Y-86861625D01*
X149084728Y-86888253D01*
X149048419Y-86923042D01*
X149005837Y-86964596D01*
X148958402Y-87011520D01*
X148907532Y-87062419D01*
X148854645Y-87115897D01*
X148801159Y-87170558D01*
X148771708Y-87200863D01*
X148708850Y-87265756D01*
X148654829Y-87321582D01*
X148608362Y-87369327D01*
X148568166Y-87409979D01*
X148532960Y-87444525D01*
X148501460Y-87473950D01*
X148472384Y-87499242D01*
X148444449Y-87521387D01*
X148416373Y-87541371D01*
X148386873Y-87560181D01*
X148354667Y-87578805D01*
X148318471Y-87598228D01*
X148277004Y-87619437D01*
X148228983Y-87643419D01*
X148173124Y-87671160D01*
X148108147Y-87703647D01*
X148060418Y-87727617D01*
X147976236Y-87769727D01*
X147888761Y-87813267D01*
X147797068Y-87858690D01*
X147700229Y-87906451D01*
X147597316Y-87957002D01*
X147487402Y-88010796D01*
X147369560Y-88068289D01*
X147242862Y-88129932D01*
X147106382Y-88196181D01*
X146959191Y-88267487D01*
X146800363Y-88344305D01*
X146628970Y-88427089D01*
X146599197Y-88441468D01*
X146524711Y-88477499D01*
X146454612Y-88511492D01*
X146390033Y-88542892D01*
X146332110Y-88571142D01*
X146281976Y-88595689D01*
X146240768Y-88615977D01*
X146209618Y-88631451D01*
X146189663Y-88641556D01*
X146182036Y-88645736D01*
X146182433Y-88648751D01*
X146191545Y-88659348D01*
X146209255Y-88674992D01*
X146233244Y-88693519D01*
X146290623Y-88735422D01*
X146269296Y-88743486D01*
X146257805Y-88747839D01*
X146200528Y-88769719D01*
X146134401Y-88795218D01*
X146061958Y-88823342D01*
X145985733Y-88853095D01*
X145908260Y-88883482D01*
X145832073Y-88913506D01*
X145759704Y-88942172D01*
X145693689Y-88968485D01*
X145636560Y-88991449D01*
X145590852Y-89010068D01*
X145537915Y-89031961D01*
X145479416Y-89056552D01*
X145431731Y-89077222D01*
X145393090Y-89094809D01*
X145361724Y-89110154D01*
X145335864Y-89124096D01*
X145313741Y-89137475D01*
X145293585Y-89151129D01*
X145283250Y-89158428D01*
X145264096Y-89171151D01*
X145255092Y-89175063D01*
X145255038Y-89170410D01*
X145262734Y-89157438D01*
X145268897Y-89149935D01*
X145290696Y-89130873D01*
X145324868Y-89106185D01*
X145370640Y-89076318D01*
X145427241Y-89041719D01*
X145493896Y-89002835D01*
X145569832Y-88960112D01*
X145654277Y-88913996D01*
X145746457Y-88864936D01*
X145845600Y-88813377D01*
X145950931Y-88759766D01*
X145985162Y-88742475D01*
X146034913Y-88717164D01*
X146079113Y-88694460D01*
X146116199Y-88675176D01*
X146144608Y-88660129D01*
X146162778Y-88650132D01*
X146169147Y-88646000D01*
X146164107Y-88640341D01*
X146150165Y-88628187D01*
X146130476Y-88612382D01*
X146112249Y-88597340D01*
X146079927Y-88568335D01*
X146041569Y-88532015D01*
X145999410Y-88490646D01*
X145955686Y-88446495D01*
X145912635Y-88401829D01*
X145872493Y-88358915D01*
X145837495Y-88320020D01*
X145809879Y-88287411D01*
X145743941Y-88202403D01*
X145633909Y-88042630D01*
X145537865Y-87877640D01*
X145455743Y-87707273D01*
X145387479Y-87531370D01*
X145333005Y-87349772D01*
X145292256Y-87162319D01*
X145265166Y-86968853D01*
X145262537Y-86938449D01*
X145259228Y-86876978D01*
X145257385Y-86806791D01*
X145256976Y-86731767D01*
X145257972Y-86655783D01*
X145260343Y-86582718D01*
X145264058Y-86516448D01*
X145269089Y-86460853D01*
X145288491Y-86325277D01*
X145328007Y-86137162D01*
X145381431Y-85953942D01*
X145448518Y-85776183D01*
X145529020Y-85604451D01*
X145622691Y-85439313D01*
X145729282Y-85281337D01*
X145848548Y-85131088D01*
X145867017Y-85110087D01*
X145911729Y-85061998D01*
X145963050Y-85009636D01*
X146017736Y-84956145D01*
X146072540Y-84904665D01*
X146124220Y-84858338D01*
X146169529Y-84820305D01*
X146224232Y-84777720D01*
X146298666Y-84725684D01*
X149127882Y-84725684D01*
X149129962Y-84728276D01*
X149141547Y-84738407D01*
X149161021Y-84753966D01*
X149185779Y-84772830D01*
X149272631Y-84841042D01*
X149409861Y-84963707D01*
X149538017Y-85097450D01*
X149656353Y-85241261D01*
X149764125Y-85394133D01*
X149860587Y-85555056D01*
X149944993Y-85723021D01*
X150016596Y-85897020D01*
X150017214Y-85898700D01*
X150029420Y-85931585D01*
X150039716Y-85958784D01*
X150047035Y-85977512D01*
X150050309Y-85984985D01*
X150052246Y-85984131D01*
X150062488Y-85974680D01*
X150080044Y-85956404D01*
X150089178Y-85946474D01*
X150587563Y-85946474D01*
X150587594Y-85954555D01*
X150587600Y-85954560D01*
X150591260Y-85949688D01*
X150597770Y-85933040D01*
X150606328Y-85907318D01*
X150616135Y-85875228D01*
X150626392Y-85839472D01*
X150636299Y-85802754D01*
X150645056Y-85767779D01*
X150651863Y-85737251D01*
X150652608Y-85733581D01*
X150660111Y-85695635D01*
X150664445Y-85669187D01*
X150665522Y-85651348D01*
X150663256Y-85639229D01*
X150657558Y-85629941D01*
X150648342Y-85620595D01*
X150646587Y-85618947D01*
X150638579Y-85611964D01*
X150632656Y-85609486D01*
X150628268Y-85613244D01*
X150624864Y-85624969D01*
X150621894Y-85646392D01*
X150618806Y-85679245D01*
X150615051Y-85725258D01*
X150611119Y-85768539D01*
X150606143Y-85814493D01*
X150600856Y-85856508D01*
X150595897Y-85889099D01*
X150593946Y-85900501D01*
X150589831Y-85927269D01*
X150587563Y-85946474D01*
X150089178Y-85946474D01*
X150103399Y-85931014D01*
X150131038Y-85900220D01*
X150161447Y-85865733D01*
X150193111Y-85829263D01*
X150224515Y-85792520D01*
X150254144Y-85757217D01*
X150268301Y-85739933D01*
X150274617Y-85732223D01*
X150280483Y-85725062D01*
X150289321Y-85714018D01*
X150320176Y-85674421D01*
X150350865Y-85633660D01*
X150378253Y-85595946D01*
X150399205Y-85565494D01*
X150412281Y-85544747D01*
X150427986Y-85517145D01*
X150438726Y-85494835D01*
X150442706Y-85481295D01*
X150442372Y-85477314D01*
X150439046Y-85468878D01*
X150430998Y-85459351D01*
X150416817Y-85447747D01*
X150395091Y-85433076D01*
X150364408Y-85414351D01*
X150323359Y-85390584D01*
X150270530Y-85360787D01*
X150264607Y-85357475D01*
X150209005Y-85326816D01*
X150157658Y-85299506D01*
X150107955Y-85274326D01*
X150057286Y-85250057D01*
X150003043Y-85225481D01*
X149942615Y-85199381D01*
X149873392Y-85170536D01*
X149792764Y-85137729D01*
X149754232Y-85122081D01*
X149704108Y-85101409D01*
X149660481Y-85083042D01*
X149624828Y-85067623D01*
X149598628Y-85055793D01*
X149583358Y-85048195D01*
X149580496Y-85045471D01*
X149584754Y-85045779D01*
X149603972Y-85049165D01*
X149634207Y-85055800D01*
X149673112Y-85065079D01*
X149718339Y-85076398D01*
X149767540Y-85089151D01*
X149818366Y-85102736D01*
X149868470Y-85116547D01*
X149915503Y-85129979D01*
X149957117Y-85142429D01*
X149979822Y-85149629D01*
X150037716Y-85169218D01*
X150102755Y-85192549D01*
X150170652Y-85217998D01*
X150237121Y-85243940D01*
X150297878Y-85268751D01*
X150348635Y-85290807D01*
X150353685Y-85293080D01*
X150377846Y-85303310D01*
X150395578Y-85309770D01*
X150403344Y-85311145D01*
X150403490Y-85310963D01*
X150402175Y-85301708D01*
X150394830Y-85282768D01*
X150382962Y-85257127D01*
X150368082Y-85227769D01*
X150351697Y-85197676D01*
X150335316Y-85169833D01*
X150320448Y-85147222D01*
X150315904Y-85141008D01*
X150278564Y-85096152D01*
X150233240Y-85049843D01*
X150184636Y-85006612D01*
X150137455Y-84970987D01*
X150115331Y-84956975D01*
X150070741Y-84931874D01*
X150018628Y-84905332D01*
X149963110Y-84879328D01*
X149908302Y-84855838D01*
X149858321Y-84836843D01*
X149793142Y-84814142D01*
X149703997Y-84828685D01*
X149675716Y-84833471D01*
X149624110Y-84842773D01*
X149570814Y-84852933D01*
X149523714Y-84862471D01*
X149520386Y-84863171D01*
X149485881Y-84870117D01*
X149457289Y-84875324D01*
X149437503Y-84878300D01*
X149429414Y-84878551D01*
X149429428Y-84877162D01*
X149438832Y-84870875D01*
X149460562Y-84861105D01*
X149493187Y-84848421D01*
X149535275Y-84833391D01*
X149585395Y-84816584D01*
X149589551Y-84815219D01*
X149621302Y-84804123D01*
X149637961Y-84797501D01*
X150065441Y-84797501D01*
X150138079Y-84834634D01*
X150224950Y-84883345D01*
X150311907Y-84943570D01*
X150386886Y-85009743D01*
X150451218Y-85083057D01*
X150506234Y-85164706D01*
X150509725Y-85170630D01*
X150524278Y-85195227D01*
X150533202Y-85209751D01*
X150538158Y-85216552D01*
X150540810Y-85217978D01*
X150542822Y-85216377D01*
X150544874Y-85208662D01*
X150547655Y-85190000D01*
X150550450Y-85164706D01*
X150555081Y-85116147D01*
X150518769Y-85071323D01*
X150492014Y-85039979D01*
X150415608Y-84965035D01*
X150326287Y-84896015D01*
X150223464Y-84832446D01*
X150206007Y-84823081D01*
X150178094Y-84810785D01*
X150151415Y-84804061D01*
X150118876Y-84800759D01*
X150065441Y-84797501D01*
X149637961Y-84797501D01*
X149645838Y-84794370D01*
X149660802Y-84786972D01*
X149663836Y-84782938D01*
X149655104Y-84780062D01*
X149633175Y-84775086D01*
X149601724Y-84769021D01*
X149563684Y-84762358D01*
X149521987Y-84755588D01*
X149479568Y-84749200D01*
X149439359Y-84743686D01*
X149404294Y-84739536D01*
X149383256Y-84737479D01*
X149344583Y-84734239D01*
X149302652Y-84731243D01*
X149260056Y-84728622D01*
X149219390Y-84726506D01*
X149183245Y-84725024D01*
X149154217Y-84724306D01*
X149134898Y-84724483D01*
X149127882Y-84725684D01*
X146298666Y-84725684D01*
X146381841Y-84667537D01*
X146545796Y-84570867D01*
X146716130Y-84487696D01*
X146892878Y-84418010D01*
X147076073Y-84361795D01*
X147265749Y-84319037D01*
X147461941Y-84289722D01*
X147491350Y-84287068D01*
X147541761Y-84284249D01*
X147601155Y-84282330D01*
X147666120Y-84281311D01*
X147733240Y-84281192D01*
X147799102Y-84281974D01*
G37*
D10*
%TO.C,R11*%
X165585224Y-91171500D02*
X165075776Y-91171500D01*
X165585224Y-92216500D02*
X165075776Y-92216500D01*
%TO.C,U2*%
X143700000Y-65431000D02*
X143700000Y-65531000D01*
X143700000Y-81631000D02*
X143700000Y-65531000D01*
X144900000Y-65431000D02*
X143700000Y-65431000D01*
X144900000Y-81631000D02*
X143700000Y-81631000D01*
X159900000Y-65431000D02*
X161100000Y-65431000D01*
X159900000Y-81631000D02*
X161100000Y-81631000D01*
X161100000Y-65431000D02*
X161100000Y-65531000D01*
X161100000Y-81531000D02*
X161100000Y-65531000D01*
X161100000Y-81631000D02*
X161100000Y-81531000D01*
X160330000Y-82371000D02*
X160000000Y-82131000D01*
X160330000Y-81891000D01*
X160330000Y-82371000D01*
G36*
X160330000Y-82371000D02*
G01*
X160000000Y-82131000D01*
X160330000Y-81891000D01*
X160330000Y-82371000D01*
G37*
%TO.C,R8*%
X159257276Y-84313500D02*
X159766724Y-84313500D01*
X159257276Y-85358500D02*
X159766724Y-85358500D01*
%TO.C,R12*%
X165585224Y-93203500D02*
X165075776Y-93203500D01*
X165585224Y-94248500D02*
X165075776Y-94248500D01*
%TO.C,R9*%
X165376776Y-79106500D02*
X165886224Y-79106500D01*
X165376776Y-80151500D02*
X165886224Y-80151500D01*
%TD*%
M02*
