%TF.GenerationSoftware,KiCad,Pcbnew,9.0.4*%
%TF.CreationDate,2025-11-09T18:49:48-06:00*%
%TF.ProjectId,Smart_MoCo,536d6172-745f-44d6-9f43-6f2e6b696361,rev?*%
%TF.SameCoordinates,Original*%
%TF.FileFunction,Legend,Top*%
%TF.FilePolarity,Positive*%
%FSLAX46Y46*%
G04 Gerber Fmt 4.6, Leading zero omitted, Abs format (unit mm)*
G04 Created by KiCad (PCBNEW 9.0.4) date 2025-11-09 18:49:48*
%MOMM*%
%LPD*%
G01*
G04 APERTURE LIST*
%ADD10C,0.200000*%
%ADD11C,0.120000*%
%ADD12C,0.100000*%
%ADD13C,0.152400*%
G04 APERTURE END LIST*
D10*
X157420674Y-92824656D02*
X157563531Y-92872275D01*
X157563531Y-92872275D02*
X157801626Y-92872275D01*
X157801626Y-92872275D02*
X157896864Y-92824656D01*
X157896864Y-92824656D02*
X157944483Y-92777036D01*
X157944483Y-92777036D02*
X157992102Y-92681798D01*
X157992102Y-92681798D02*
X157992102Y-92586560D01*
X157992102Y-92586560D02*
X157944483Y-92491322D01*
X157944483Y-92491322D02*
X157896864Y-92443703D01*
X157896864Y-92443703D02*
X157801626Y-92396084D01*
X157801626Y-92396084D02*
X157611150Y-92348465D01*
X157611150Y-92348465D02*
X157515912Y-92300846D01*
X157515912Y-92300846D02*
X157468293Y-92253227D01*
X157468293Y-92253227D02*
X157420674Y-92157989D01*
X157420674Y-92157989D02*
X157420674Y-92062751D01*
X157420674Y-92062751D02*
X157468293Y-91967513D01*
X157468293Y-91967513D02*
X157515912Y-91919894D01*
X157515912Y-91919894D02*
X157611150Y-91872275D01*
X157611150Y-91872275D02*
X157849245Y-91872275D01*
X157849245Y-91872275D02*
X157992102Y-91919894D01*
X158325436Y-91872275D02*
X158563531Y-92872275D01*
X158563531Y-92872275D02*
X158754007Y-92157989D01*
X158754007Y-92157989D02*
X158944483Y-92872275D01*
X158944483Y-92872275D02*
X159182579Y-91872275D01*
X159563531Y-92872275D02*
X159563531Y-91872275D01*
X159563531Y-91872275D02*
X159801626Y-91872275D01*
X159801626Y-91872275D02*
X159944483Y-91919894D01*
X159944483Y-91919894D02*
X160039721Y-92015132D01*
X160039721Y-92015132D02*
X160087340Y-92110370D01*
X160087340Y-92110370D02*
X160134959Y-92300846D01*
X160134959Y-92300846D02*
X160134959Y-92443703D01*
X160134959Y-92443703D02*
X160087340Y-92634179D01*
X160087340Y-92634179D02*
X160039721Y-92729417D01*
X160039721Y-92729417D02*
X159944483Y-92824656D01*
X159944483Y-92824656D02*
X159801626Y-92872275D01*
X159801626Y-92872275D02*
X159563531Y-92872275D01*
X154325435Y-93482219D02*
X154944482Y-93482219D01*
X154944482Y-93482219D02*
X154611149Y-93863171D01*
X154611149Y-93863171D02*
X154754006Y-93863171D01*
X154754006Y-93863171D02*
X154849244Y-93910790D01*
X154849244Y-93910790D02*
X154896863Y-93958409D01*
X154896863Y-93958409D02*
X154944482Y-94053647D01*
X154944482Y-94053647D02*
X154944482Y-94291742D01*
X154944482Y-94291742D02*
X154896863Y-94386980D01*
X154896863Y-94386980D02*
X154849244Y-94434600D01*
X154849244Y-94434600D02*
X154754006Y-94482219D01*
X154754006Y-94482219D02*
X154468292Y-94482219D01*
X154468292Y-94482219D02*
X154373054Y-94434600D01*
X154373054Y-94434600D02*
X154325435Y-94386980D01*
X155230197Y-93482219D02*
X155563530Y-94482219D01*
X155563530Y-94482219D02*
X155896863Y-93482219D01*
X156134959Y-93482219D02*
X156754006Y-93482219D01*
X156754006Y-93482219D02*
X156420673Y-93863171D01*
X156420673Y-93863171D02*
X156563530Y-93863171D01*
X156563530Y-93863171D02*
X156658768Y-93910790D01*
X156658768Y-93910790D02*
X156706387Y-93958409D01*
X156706387Y-93958409D02*
X156754006Y-94053647D01*
X156754006Y-94053647D02*
X156754006Y-94291742D01*
X156754006Y-94291742D02*
X156706387Y-94386980D01*
X156706387Y-94386980D02*
X156658768Y-94434600D01*
X156658768Y-94434600D02*
X156563530Y-94482219D01*
X156563530Y-94482219D02*
X156277816Y-94482219D01*
X156277816Y-94482219D02*
X156182578Y-94434600D01*
X156182578Y-94434600D02*
X156134959Y-94386980D01*
X158515911Y-94386980D02*
X158468292Y-94434600D01*
X158468292Y-94434600D02*
X158325435Y-94482219D01*
X158325435Y-94482219D02*
X158230197Y-94482219D01*
X158230197Y-94482219D02*
X158087340Y-94434600D01*
X158087340Y-94434600D02*
X157992102Y-94339361D01*
X157992102Y-94339361D02*
X157944483Y-94244123D01*
X157944483Y-94244123D02*
X157896864Y-94053647D01*
X157896864Y-94053647D02*
X157896864Y-93910790D01*
X157896864Y-93910790D02*
X157944483Y-93720314D01*
X157944483Y-93720314D02*
X157992102Y-93625076D01*
X157992102Y-93625076D02*
X158087340Y-93529838D01*
X158087340Y-93529838D02*
X158230197Y-93482219D01*
X158230197Y-93482219D02*
X158325435Y-93482219D01*
X158325435Y-93482219D02*
X158468292Y-93529838D01*
X158468292Y-93529838D02*
X158515911Y-93577457D01*
X160468293Y-94482219D02*
X160468293Y-93482219D01*
X160468293Y-93482219D02*
X160706388Y-93482219D01*
X160706388Y-93482219D02*
X160849245Y-93529838D01*
X160849245Y-93529838D02*
X160944483Y-93625076D01*
X160944483Y-93625076D02*
X160992102Y-93720314D01*
X160992102Y-93720314D02*
X161039721Y-93910790D01*
X161039721Y-93910790D02*
X161039721Y-94053647D01*
X161039721Y-94053647D02*
X160992102Y-94244123D01*
X160992102Y-94244123D02*
X160944483Y-94339361D01*
X160944483Y-94339361D02*
X160849245Y-94434600D01*
X160849245Y-94434600D02*
X160706388Y-94482219D01*
X160706388Y-94482219D02*
X160468293Y-94482219D01*
X162754007Y-93529838D02*
X162658769Y-93482219D01*
X162658769Y-93482219D02*
X162515912Y-93482219D01*
X162515912Y-93482219D02*
X162373055Y-93529838D01*
X162373055Y-93529838D02*
X162277817Y-93625076D01*
X162277817Y-93625076D02*
X162230198Y-93720314D01*
X162230198Y-93720314D02*
X162182579Y-93910790D01*
X162182579Y-93910790D02*
X162182579Y-94053647D01*
X162182579Y-94053647D02*
X162230198Y-94244123D01*
X162230198Y-94244123D02*
X162277817Y-94339361D01*
X162277817Y-94339361D02*
X162373055Y-94434600D01*
X162373055Y-94434600D02*
X162515912Y-94482219D01*
X162515912Y-94482219D02*
X162611150Y-94482219D01*
X162611150Y-94482219D02*
X162754007Y-94434600D01*
X162754007Y-94434600D02*
X162801626Y-94386980D01*
X162801626Y-94386980D02*
X162801626Y-94053647D01*
X162801626Y-94053647D02*
X162611150Y-94053647D01*
X163136054Y-90116600D02*
X163278911Y-90164219D01*
X163278911Y-90164219D02*
X163517006Y-90164219D01*
X163517006Y-90164219D02*
X163612244Y-90116600D01*
X163612244Y-90116600D02*
X163659863Y-90068980D01*
X163659863Y-90068980D02*
X163707482Y-89973742D01*
X163707482Y-89973742D02*
X163707482Y-89878504D01*
X163707482Y-89878504D02*
X163659863Y-89783266D01*
X163659863Y-89783266D02*
X163612244Y-89735647D01*
X163612244Y-89735647D02*
X163517006Y-89688028D01*
X163517006Y-89688028D02*
X163326530Y-89640409D01*
X163326530Y-89640409D02*
X163231292Y-89592790D01*
X163231292Y-89592790D02*
X163183673Y-89545171D01*
X163183673Y-89545171D02*
X163136054Y-89449933D01*
X163136054Y-89449933D02*
X163136054Y-89354695D01*
X163136054Y-89354695D02*
X163183673Y-89259457D01*
X163183673Y-89259457D02*
X163231292Y-89211838D01*
X163231292Y-89211838D02*
X163326530Y-89164219D01*
X163326530Y-89164219D02*
X163564625Y-89164219D01*
X163564625Y-89164219D02*
X163707482Y-89211838D01*
X164326530Y-89688028D02*
X164326530Y-90164219D01*
X163993197Y-89164219D02*
X164326530Y-89688028D01*
X164326530Y-89688028D02*
X164659863Y-89164219D01*
X164945578Y-90116600D02*
X165088435Y-90164219D01*
X165088435Y-90164219D02*
X165326530Y-90164219D01*
X165326530Y-90164219D02*
X165421768Y-90116600D01*
X165421768Y-90116600D02*
X165469387Y-90068980D01*
X165469387Y-90068980D02*
X165517006Y-89973742D01*
X165517006Y-89973742D02*
X165517006Y-89878504D01*
X165517006Y-89878504D02*
X165469387Y-89783266D01*
X165469387Y-89783266D02*
X165421768Y-89735647D01*
X165421768Y-89735647D02*
X165326530Y-89688028D01*
X165326530Y-89688028D02*
X165136054Y-89640409D01*
X165136054Y-89640409D02*
X165040816Y-89592790D01*
X165040816Y-89592790D02*
X164993197Y-89545171D01*
X164993197Y-89545171D02*
X164945578Y-89449933D01*
X164945578Y-89449933D02*
X164945578Y-89354695D01*
X164945578Y-89354695D02*
X164993197Y-89259457D01*
X164993197Y-89259457D02*
X165040816Y-89211838D01*
X165040816Y-89211838D02*
X165136054Y-89164219D01*
X165136054Y-89164219D02*
X165374149Y-89164219D01*
X165374149Y-89164219D02*
X165517006Y-89211838D01*
X163437673Y-92196219D02*
X163437673Y-91196219D01*
X163913863Y-92196219D02*
X163913863Y-91196219D01*
X163913863Y-91196219D02*
X164485291Y-92196219D01*
X164485291Y-92196219D02*
X164485291Y-91196219D01*
X165294815Y-91672409D02*
X165437672Y-91720028D01*
X165437672Y-91720028D02*
X165485291Y-91767647D01*
X165485291Y-91767647D02*
X165532910Y-91862885D01*
X165532910Y-91862885D02*
X165532910Y-92005742D01*
X165532910Y-92005742D02*
X165485291Y-92100980D01*
X165485291Y-92100980D02*
X165437672Y-92148600D01*
X165437672Y-92148600D02*
X165342434Y-92196219D01*
X165342434Y-92196219D02*
X164961482Y-92196219D01*
X164961482Y-92196219D02*
X164961482Y-91196219D01*
X164961482Y-91196219D02*
X165294815Y-91196219D01*
X165294815Y-91196219D02*
X165390053Y-91243838D01*
X165390053Y-91243838D02*
X165437672Y-91291457D01*
X165437672Y-91291457D02*
X165485291Y-91386695D01*
X165485291Y-91386695D02*
X165485291Y-91481933D01*
X165485291Y-91481933D02*
X165437672Y-91577171D01*
X165437672Y-91577171D02*
X165390053Y-91624790D01*
X165390053Y-91624790D02*
X165294815Y-91672409D01*
X165294815Y-91672409D02*
X164961482Y-91672409D01*
X157595673Y-79750219D02*
X157595673Y-78750219D01*
X157595673Y-78750219D02*
X157833768Y-78750219D01*
X157833768Y-78750219D02*
X157976625Y-78797838D01*
X157976625Y-78797838D02*
X158071863Y-78893076D01*
X158071863Y-78893076D02*
X158119482Y-78988314D01*
X158119482Y-78988314D02*
X158167101Y-79178790D01*
X158167101Y-79178790D02*
X158167101Y-79321647D01*
X158167101Y-79321647D02*
X158119482Y-79512123D01*
X158119482Y-79512123D02*
X158071863Y-79607361D01*
X158071863Y-79607361D02*
X157976625Y-79702600D01*
X157976625Y-79702600D02*
X157833768Y-79750219D01*
X157833768Y-79750219D02*
X157595673Y-79750219D01*
X158929006Y-79226409D02*
X159071863Y-79274028D01*
X159071863Y-79274028D02*
X159119482Y-79321647D01*
X159119482Y-79321647D02*
X159167101Y-79416885D01*
X159167101Y-79416885D02*
X159167101Y-79559742D01*
X159167101Y-79559742D02*
X159119482Y-79654980D01*
X159119482Y-79654980D02*
X159071863Y-79702600D01*
X159071863Y-79702600D02*
X158976625Y-79750219D01*
X158976625Y-79750219D02*
X158595673Y-79750219D01*
X158595673Y-79750219D02*
X158595673Y-78750219D01*
X158595673Y-78750219D02*
X158929006Y-78750219D01*
X158929006Y-78750219D02*
X159024244Y-78797838D01*
X159024244Y-78797838D02*
X159071863Y-78845457D01*
X159071863Y-78845457D02*
X159119482Y-78940695D01*
X159119482Y-78940695D02*
X159119482Y-79035933D01*
X159119482Y-79035933D02*
X159071863Y-79131171D01*
X159071863Y-79131171D02*
X159024244Y-79178790D01*
X159024244Y-79178790D02*
X158929006Y-79226409D01*
X158929006Y-79226409D02*
X158595673Y-79226409D01*
X150063378Y-72782611D02*
X150063378Y-72020707D01*
X150444331Y-72401659D02*
X149682426Y-72401659D01*
X150158616Y-71592135D02*
X150158616Y-71115945D01*
X150444331Y-71687373D02*
X149444331Y-71354040D01*
X149444331Y-71354040D02*
X150444331Y-71020707D01*
X149920521Y-70354040D02*
X149968140Y-70211183D01*
X149968140Y-70211183D02*
X150015759Y-70163564D01*
X150015759Y-70163564D02*
X150110997Y-70115945D01*
X150110997Y-70115945D02*
X150253854Y-70115945D01*
X150253854Y-70115945D02*
X150349092Y-70163564D01*
X150349092Y-70163564D02*
X150396712Y-70211183D01*
X150396712Y-70211183D02*
X150444331Y-70306421D01*
X150444331Y-70306421D02*
X150444331Y-70687373D01*
X150444331Y-70687373D02*
X149444331Y-70687373D01*
X149444331Y-70687373D02*
X149444331Y-70354040D01*
X149444331Y-70354040D02*
X149491950Y-70258802D01*
X149491950Y-70258802D02*
X149539569Y-70211183D01*
X149539569Y-70211183D02*
X149634807Y-70163564D01*
X149634807Y-70163564D02*
X149730045Y-70163564D01*
X149730045Y-70163564D02*
X149825283Y-70211183D01*
X149825283Y-70211183D02*
X149872902Y-70258802D01*
X149872902Y-70258802D02*
X149920521Y-70354040D01*
X149920521Y-70354040D02*
X149920521Y-70687373D01*
X150063378Y-69687373D02*
X150063378Y-68925469D01*
X151673322Y-72782611D02*
X151673322Y-72020707D01*
X152054275Y-72401659D02*
X151292370Y-72401659D01*
X152054275Y-71544516D02*
X151054275Y-71544516D01*
X151054275Y-71544516D02*
X151054275Y-71163564D01*
X151054275Y-71163564D02*
X151101894Y-71068326D01*
X151101894Y-71068326D02*
X151149513Y-71020707D01*
X151149513Y-71020707D02*
X151244751Y-70973088D01*
X151244751Y-70973088D02*
X151387608Y-70973088D01*
X151387608Y-70973088D02*
X151482846Y-71020707D01*
X151482846Y-71020707D02*
X151530465Y-71068326D01*
X151530465Y-71068326D02*
X151578084Y-71163564D01*
X151578084Y-71163564D02*
X151578084Y-71544516D01*
X151673322Y-69782611D02*
X151673322Y-69020707D01*
X153140409Y-75068326D02*
X153140409Y-74734993D01*
X153664219Y-74592136D02*
X153664219Y-75068326D01*
X153664219Y-75068326D02*
X152664219Y-75068326D01*
X152664219Y-75068326D02*
X152664219Y-74592136D01*
X153664219Y-74163564D02*
X152664219Y-74163564D01*
X152664219Y-74163564D02*
X153664219Y-73592136D01*
X153664219Y-73592136D02*
X152664219Y-73592136D01*
X153568980Y-72544517D02*
X153616600Y-72592136D01*
X153616600Y-72592136D02*
X153664219Y-72734993D01*
X153664219Y-72734993D02*
X153664219Y-72830231D01*
X153664219Y-72830231D02*
X153616600Y-72973088D01*
X153616600Y-72973088D02*
X153521361Y-73068326D01*
X153521361Y-73068326D02*
X153426123Y-73115945D01*
X153426123Y-73115945D02*
X153235647Y-73163564D01*
X153235647Y-73163564D02*
X153092790Y-73163564D01*
X153092790Y-73163564D02*
X152902314Y-73115945D01*
X152902314Y-73115945D02*
X152807076Y-73068326D01*
X152807076Y-73068326D02*
X152711838Y-72973088D01*
X152711838Y-72973088D02*
X152664219Y-72830231D01*
X152664219Y-72830231D02*
X152664219Y-72734993D01*
X152664219Y-72734993D02*
X152711838Y-72592136D01*
X152711838Y-72592136D02*
X152759457Y-72544517D01*
X152664219Y-71925469D02*
X152664219Y-71734993D01*
X152664219Y-71734993D02*
X152711838Y-71639755D01*
X152711838Y-71639755D02*
X152807076Y-71544517D01*
X152807076Y-71544517D02*
X152997552Y-71496898D01*
X152997552Y-71496898D02*
X153330885Y-71496898D01*
X153330885Y-71496898D02*
X153521361Y-71544517D01*
X153521361Y-71544517D02*
X153616600Y-71639755D01*
X153616600Y-71639755D02*
X153664219Y-71734993D01*
X153664219Y-71734993D02*
X153664219Y-71925469D01*
X153664219Y-71925469D02*
X153616600Y-72020707D01*
X153616600Y-72020707D02*
X153521361Y-72115945D01*
X153521361Y-72115945D02*
X153330885Y-72163564D01*
X153330885Y-72163564D02*
X152997552Y-72163564D01*
X152997552Y-72163564D02*
X152807076Y-72115945D01*
X152807076Y-72115945D02*
X152711838Y-72020707D01*
X152711838Y-72020707D02*
X152664219Y-71925469D01*
X153664219Y-71068326D02*
X152664219Y-71068326D01*
X152664219Y-71068326D02*
X152664219Y-70830231D01*
X152664219Y-70830231D02*
X152711838Y-70687374D01*
X152711838Y-70687374D02*
X152807076Y-70592136D01*
X152807076Y-70592136D02*
X152902314Y-70544517D01*
X152902314Y-70544517D02*
X153092790Y-70496898D01*
X153092790Y-70496898D02*
X153235647Y-70496898D01*
X153235647Y-70496898D02*
X153426123Y-70544517D01*
X153426123Y-70544517D02*
X153521361Y-70592136D01*
X153521361Y-70592136D02*
X153616600Y-70687374D01*
X153616600Y-70687374D02*
X153664219Y-70830231D01*
X153664219Y-70830231D02*
X153664219Y-71068326D01*
X153140409Y-70068326D02*
X153140409Y-69734993D01*
X153664219Y-69592136D02*
X153664219Y-70068326D01*
X153664219Y-70068326D02*
X152664219Y-70068326D01*
X152664219Y-70068326D02*
X152664219Y-69592136D01*
X153664219Y-68592136D02*
X153188028Y-68925469D01*
X153664219Y-69163564D02*
X152664219Y-69163564D01*
X152664219Y-69163564D02*
X152664219Y-68782612D01*
X152664219Y-68782612D02*
X152711838Y-68687374D01*
X152711838Y-68687374D02*
X152759457Y-68639755D01*
X152759457Y-68639755D02*
X152854695Y-68592136D01*
X152854695Y-68592136D02*
X152997552Y-68592136D01*
X152997552Y-68592136D02*
X153092790Y-68639755D01*
X153092790Y-68639755D02*
X153140409Y-68687374D01*
X153140409Y-68687374D02*
X153188028Y-68782612D01*
X153188028Y-68782612D02*
X153188028Y-69163564D01*
X157595673Y-81782219D02*
X157595673Y-80782219D01*
X157595673Y-80782219D02*
X157833768Y-80782219D01*
X157833768Y-80782219D02*
X157976625Y-80829838D01*
X157976625Y-80829838D02*
X158071863Y-80925076D01*
X158071863Y-80925076D02*
X158119482Y-81020314D01*
X158119482Y-81020314D02*
X158167101Y-81210790D01*
X158167101Y-81210790D02*
X158167101Y-81353647D01*
X158167101Y-81353647D02*
X158119482Y-81544123D01*
X158119482Y-81544123D02*
X158071863Y-81639361D01*
X158071863Y-81639361D02*
X157976625Y-81734600D01*
X157976625Y-81734600D02*
X157833768Y-81782219D01*
X157833768Y-81782219D02*
X157595673Y-81782219D01*
X158548054Y-81496504D02*
X159024244Y-81496504D01*
X158452816Y-81782219D02*
X158786149Y-80782219D01*
X158786149Y-80782219D02*
X159119482Y-81782219D01*
X156977780Y-61964673D02*
X157977780Y-61964673D01*
X157977780Y-61964673D02*
X157263495Y-62298006D01*
X157263495Y-62298006D02*
X157977780Y-62631339D01*
X157977780Y-62631339D02*
X156977780Y-62631339D01*
X157358733Y-63107530D02*
X157358733Y-63869435D01*
X156977780Y-63488482D02*
X157739685Y-63488482D01*
X158143712Y-76893945D02*
X158191331Y-76751088D01*
X158191331Y-76751088D02*
X158191331Y-76512993D01*
X158191331Y-76512993D02*
X158143712Y-76417755D01*
X158143712Y-76417755D02*
X158096092Y-76370136D01*
X158096092Y-76370136D02*
X158000854Y-76322517D01*
X158000854Y-76322517D02*
X157905616Y-76322517D01*
X157905616Y-76322517D02*
X157810378Y-76370136D01*
X157810378Y-76370136D02*
X157762759Y-76417755D01*
X157762759Y-76417755D02*
X157715140Y-76512993D01*
X157715140Y-76512993D02*
X157667521Y-76703469D01*
X157667521Y-76703469D02*
X157619902Y-76798707D01*
X157619902Y-76798707D02*
X157572283Y-76846326D01*
X157572283Y-76846326D02*
X157477045Y-76893945D01*
X157477045Y-76893945D02*
X157381807Y-76893945D01*
X157381807Y-76893945D02*
X157286569Y-76846326D01*
X157286569Y-76846326D02*
X157238950Y-76798707D01*
X157238950Y-76798707D02*
X157191331Y-76703469D01*
X157191331Y-76703469D02*
X157191331Y-76465374D01*
X157191331Y-76465374D02*
X157238950Y-76322517D01*
X158191331Y-75893945D02*
X157524664Y-75893945D01*
X157619902Y-75893945D02*
X157572283Y-75846326D01*
X157572283Y-75846326D02*
X157524664Y-75751088D01*
X157524664Y-75751088D02*
X157524664Y-75608231D01*
X157524664Y-75608231D02*
X157572283Y-75512993D01*
X157572283Y-75512993D02*
X157667521Y-75465374D01*
X157667521Y-75465374D02*
X158191331Y-75465374D01*
X157667521Y-75465374D02*
X157572283Y-75417755D01*
X157572283Y-75417755D02*
X157524664Y-75322517D01*
X157524664Y-75322517D02*
X157524664Y-75179660D01*
X157524664Y-75179660D02*
X157572283Y-75084421D01*
X157572283Y-75084421D02*
X157667521Y-75036802D01*
X157667521Y-75036802D02*
X158191331Y-75036802D01*
X158191331Y-74132041D02*
X157667521Y-74132041D01*
X157667521Y-74132041D02*
X157572283Y-74179660D01*
X157572283Y-74179660D02*
X157524664Y-74274898D01*
X157524664Y-74274898D02*
X157524664Y-74465374D01*
X157524664Y-74465374D02*
X157572283Y-74560612D01*
X158143712Y-74132041D02*
X158191331Y-74227279D01*
X158191331Y-74227279D02*
X158191331Y-74465374D01*
X158191331Y-74465374D02*
X158143712Y-74560612D01*
X158143712Y-74560612D02*
X158048473Y-74608231D01*
X158048473Y-74608231D02*
X157953235Y-74608231D01*
X157953235Y-74608231D02*
X157857997Y-74560612D01*
X157857997Y-74560612D02*
X157810378Y-74465374D01*
X157810378Y-74465374D02*
X157810378Y-74227279D01*
X157810378Y-74227279D02*
X157762759Y-74132041D01*
X158191331Y-73655850D02*
X157524664Y-73655850D01*
X157715140Y-73655850D02*
X157619902Y-73608231D01*
X157619902Y-73608231D02*
X157572283Y-73560612D01*
X157572283Y-73560612D02*
X157524664Y-73465374D01*
X157524664Y-73465374D02*
X157524664Y-73370136D01*
X157524664Y-73179659D02*
X157524664Y-72798707D01*
X157191331Y-73036802D02*
X158048473Y-73036802D01*
X158048473Y-73036802D02*
X158143712Y-72989183D01*
X158143712Y-72989183D02*
X158191331Y-72893945D01*
X158191331Y-72893945D02*
X158191331Y-72798707D01*
X158191331Y-72465373D02*
X157191331Y-72465373D01*
X157191331Y-72465373D02*
X157905616Y-72132040D01*
X157905616Y-72132040D02*
X157191331Y-71798707D01*
X157191331Y-71798707D02*
X158191331Y-71798707D01*
X158191331Y-71179659D02*
X158143712Y-71274897D01*
X158143712Y-71274897D02*
X158096092Y-71322516D01*
X158096092Y-71322516D02*
X158000854Y-71370135D01*
X158000854Y-71370135D02*
X157715140Y-71370135D01*
X157715140Y-71370135D02*
X157619902Y-71322516D01*
X157619902Y-71322516D02*
X157572283Y-71274897D01*
X157572283Y-71274897D02*
X157524664Y-71179659D01*
X157524664Y-71179659D02*
X157524664Y-71036802D01*
X157524664Y-71036802D02*
X157572283Y-70941564D01*
X157572283Y-70941564D02*
X157619902Y-70893945D01*
X157619902Y-70893945D02*
X157715140Y-70846326D01*
X157715140Y-70846326D02*
X158000854Y-70846326D01*
X158000854Y-70846326D02*
X158096092Y-70893945D01*
X158096092Y-70893945D02*
X158143712Y-70941564D01*
X158143712Y-70941564D02*
X158191331Y-71036802D01*
X158191331Y-71036802D02*
X158191331Y-71179659D01*
X158096092Y-69846326D02*
X158143712Y-69893945D01*
X158143712Y-69893945D02*
X158191331Y-70036802D01*
X158191331Y-70036802D02*
X158191331Y-70132040D01*
X158191331Y-70132040D02*
X158143712Y-70274897D01*
X158143712Y-70274897D02*
X158048473Y-70370135D01*
X158048473Y-70370135D02*
X157953235Y-70417754D01*
X157953235Y-70417754D02*
X157762759Y-70465373D01*
X157762759Y-70465373D02*
X157619902Y-70465373D01*
X157619902Y-70465373D02*
X157429426Y-70417754D01*
X157429426Y-70417754D02*
X157334188Y-70370135D01*
X157334188Y-70370135D02*
X157238950Y-70274897D01*
X157238950Y-70274897D02*
X157191331Y-70132040D01*
X157191331Y-70132040D02*
X157191331Y-70036802D01*
X157191331Y-70036802D02*
X157238950Y-69893945D01*
X157238950Y-69893945D02*
X157286569Y-69846326D01*
X158191331Y-69274897D02*
X158143712Y-69370135D01*
X158143712Y-69370135D02*
X158096092Y-69417754D01*
X158096092Y-69417754D02*
X158000854Y-69465373D01*
X158000854Y-69465373D02*
X157715140Y-69465373D01*
X157715140Y-69465373D02*
X157619902Y-69417754D01*
X157619902Y-69417754D02*
X157572283Y-69370135D01*
X157572283Y-69370135D02*
X157524664Y-69274897D01*
X157524664Y-69274897D02*
X157524664Y-69132040D01*
X157524664Y-69132040D02*
X157572283Y-69036802D01*
X157572283Y-69036802D02*
X157619902Y-68989183D01*
X157619902Y-68989183D02*
X157715140Y-68941564D01*
X157715140Y-68941564D02*
X158000854Y-68941564D01*
X158000854Y-68941564D02*
X158096092Y-68989183D01*
X158096092Y-68989183D02*
X158143712Y-69036802D01*
X158143712Y-69036802D02*
X158191331Y-69132040D01*
X158191331Y-69132040D02*
X158191331Y-69274897D01*
X158191331Y-67179659D02*
X157715140Y-67512992D01*
X158191331Y-67751087D02*
X157191331Y-67751087D01*
X157191331Y-67751087D02*
X157191331Y-67370135D01*
X157191331Y-67370135D02*
X157238950Y-67274897D01*
X157238950Y-67274897D02*
X157286569Y-67227278D01*
X157286569Y-67227278D02*
X157381807Y-67179659D01*
X157381807Y-67179659D02*
X157524664Y-67179659D01*
X157524664Y-67179659D02*
X157619902Y-67227278D01*
X157619902Y-67227278D02*
X157667521Y-67274897D01*
X157667521Y-67274897D02*
X157715140Y-67370135D01*
X157715140Y-67370135D02*
X157715140Y-67751087D01*
X158143712Y-66370135D02*
X158191331Y-66465373D01*
X158191331Y-66465373D02*
X158191331Y-66655849D01*
X158191331Y-66655849D02*
X158143712Y-66751087D01*
X158143712Y-66751087D02*
X158048473Y-66798706D01*
X158048473Y-66798706D02*
X157667521Y-66798706D01*
X157667521Y-66798706D02*
X157572283Y-66751087D01*
X157572283Y-66751087D02*
X157524664Y-66655849D01*
X157524664Y-66655849D02*
X157524664Y-66465373D01*
X157524664Y-66465373D02*
X157572283Y-66370135D01*
X157572283Y-66370135D02*
X157667521Y-66322516D01*
X157667521Y-66322516D02*
X157762759Y-66322516D01*
X157762759Y-66322516D02*
X157857997Y-66798706D01*
X157524664Y-65989182D02*
X158191331Y-65751087D01*
X158191331Y-65751087D02*
X157524664Y-65512992D01*
X158191331Y-64608230D02*
X158191331Y-65179658D01*
X158191331Y-64893944D02*
X157191331Y-64893944D01*
X157191331Y-64893944D02*
X157334188Y-64989182D01*
X157334188Y-64989182D02*
X157429426Y-65084420D01*
X157429426Y-65084420D02*
X157477045Y-65179658D01*
X159801275Y-76846326D02*
X158801275Y-76846326D01*
X158801275Y-76846326D02*
X159515560Y-76512993D01*
X159515560Y-76512993D02*
X158801275Y-76179660D01*
X158801275Y-76179660D02*
X159801275Y-76179660D01*
X159801275Y-75132041D02*
X159325084Y-75465374D01*
X159801275Y-75703469D02*
X158801275Y-75703469D01*
X158801275Y-75703469D02*
X158801275Y-75322517D01*
X158801275Y-75322517D02*
X158848894Y-75227279D01*
X158848894Y-75227279D02*
X158896513Y-75179660D01*
X158896513Y-75179660D02*
X158991751Y-75132041D01*
X158991751Y-75132041D02*
X159134608Y-75132041D01*
X159134608Y-75132041D02*
X159229846Y-75179660D01*
X159229846Y-75179660D02*
X159277465Y-75227279D01*
X159277465Y-75227279D02*
X159325084Y-75322517D01*
X159325084Y-75322517D02*
X159325084Y-75703469D01*
X159801275Y-74703469D02*
X158801275Y-74703469D01*
X158801275Y-74703469D02*
X158801275Y-74465374D01*
X158801275Y-74465374D02*
X158848894Y-74322517D01*
X158848894Y-74322517D02*
X158944132Y-74227279D01*
X158944132Y-74227279D02*
X159039370Y-74179660D01*
X159039370Y-74179660D02*
X159229846Y-74132041D01*
X159229846Y-74132041D02*
X159372703Y-74132041D01*
X159372703Y-74132041D02*
X159563179Y-74179660D01*
X159563179Y-74179660D02*
X159658417Y-74227279D01*
X159658417Y-74227279D02*
X159753656Y-74322517D01*
X159753656Y-74322517D02*
X159801275Y-74465374D01*
X159801275Y-74465374D02*
X159801275Y-74703469D01*
X158801275Y-73846326D02*
X158801275Y-73274898D01*
X159801275Y-73560612D02*
X158801275Y-73560612D01*
X159801275Y-72179659D02*
X158801275Y-72179659D01*
X158801275Y-72179659D02*
X159515560Y-71846326D01*
X159515560Y-71846326D02*
X158801275Y-71512993D01*
X158801275Y-71512993D02*
X159801275Y-71512993D01*
X159753656Y-71084421D02*
X159801275Y-70941564D01*
X159801275Y-70941564D02*
X159801275Y-70703469D01*
X159801275Y-70703469D02*
X159753656Y-70608231D01*
X159753656Y-70608231D02*
X159706036Y-70560612D01*
X159706036Y-70560612D02*
X159610798Y-70512993D01*
X159610798Y-70512993D02*
X159515560Y-70512993D01*
X159515560Y-70512993D02*
X159420322Y-70560612D01*
X159420322Y-70560612D02*
X159372703Y-70608231D01*
X159372703Y-70608231D02*
X159325084Y-70703469D01*
X159325084Y-70703469D02*
X159277465Y-70893945D01*
X159277465Y-70893945D02*
X159229846Y-70989183D01*
X159229846Y-70989183D02*
X159182227Y-71036802D01*
X159182227Y-71036802D02*
X159086989Y-71084421D01*
X159086989Y-71084421D02*
X158991751Y-71084421D01*
X158991751Y-71084421D02*
X158896513Y-71036802D01*
X158896513Y-71036802D02*
X158848894Y-70989183D01*
X158848894Y-70989183D02*
X158801275Y-70893945D01*
X158801275Y-70893945D02*
X158801275Y-70655850D01*
X158801275Y-70655850D02*
X158848894Y-70512993D01*
X158801275Y-70227278D02*
X158801275Y-69655850D01*
X159801275Y-69941564D02*
X158801275Y-69941564D01*
X159753656Y-69274897D02*
X159801275Y-69274897D01*
X159801275Y-69274897D02*
X159896513Y-69322516D01*
X159896513Y-69322516D02*
X159944132Y-69370135D01*
X158896513Y-68132040D02*
X158848894Y-68084421D01*
X158848894Y-68084421D02*
X158801275Y-67989183D01*
X158801275Y-67989183D02*
X158801275Y-67751088D01*
X158801275Y-67751088D02*
X158848894Y-67655850D01*
X158848894Y-67655850D02*
X158896513Y-67608231D01*
X158896513Y-67608231D02*
X158991751Y-67560612D01*
X158991751Y-67560612D02*
X159086989Y-67560612D01*
X159086989Y-67560612D02*
X159229846Y-67608231D01*
X159229846Y-67608231D02*
X159801275Y-68179659D01*
X159801275Y-68179659D02*
X159801275Y-67560612D01*
X158801275Y-66941564D02*
X158801275Y-66846326D01*
X158801275Y-66846326D02*
X158848894Y-66751088D01*
X158848894Y-66751088D02*
X158896513Y-66703469D01*
X158896513Y-66703469D02*
X158991751Y-66655850D01*
X158991751Y-66655850D02*
X159182227Y-66608231D01*
X159182227Y-66608231D02*
X159420322Y-66608231D01*
X159420322Y-66608231D02*
X159610798Y-66655850D01*
X159610798Y-66655850D02*
X159706036Y-66703469D01*
X159706036Y-66703469D02*
X159753656Y-66751088D01*
X159753656Y-66751088D02*
X159801275Y-66846326D01*
X159801275Y-66846326D02*
X159801275Y-66941564D01*
X159801275Y-66941564D02*
X159753656Y-67036802D01*
X159753656Y-67036802D02*
X159706036Y-67084421D01*
X159706036Y-67084421D02*
X159610798Y-67132040D01*
X159610798Y-67132040D02*
X159420322Y-67179659D01*
X159420322Y-67179659D02*
X159182227Y-67179659D01*
X159182227Y-67179659D02*
X158991751Y-67132040D01*
X158991751Y-67132040D02*
X158896513Y-67084421D01*
X158896513Y-67084421D02*
X158848894Y-67036802D01*
X158848894Y-67036802D02*
X158801275Y-66941564D01*
X158896513Y-66227278D02*
X158848894Y-66179659D01*
X158848894Y-66179659D02*
X158801275Y-66084421D01*
X158801275Y-66084421D02*
X158801275Y-65846326D01*
X158801275Y-65846326D02*
X158848894Y-65751088D01*
X158848894Y-65751088D02*
X158896513Y-65703469D01*
X158896513Y-65703469D02*
X158991751Y-65655850D01*
X158991751Y-65655850D02*
X159086989Y-65655850D01*
X159086989Y-65655850D02*
X159229846Y-65703469D01*
X159229846Y-65703469D02*
X159801275Y-66274897D01*
X159801275Y-66274897D02*
X159801275Y-65655850D01*
X158801275Y-64798707D02*
X158801275Y-64989183D01*
X158801275Y-64989183D02*
X158848894Y-65084421D01*
X158848894Y-65084421D02*
X158896513Y-65132040D01*
X158896513Y-65132040D02*
X159039370Y-65227278D01*
X159039370Y-65227278D02*
X159229846Y-65274897D01*
X159229846Y-65274897D02*
X159610798Y-65274897D01*
X159610798Y-65274897D02*
X159706036Y-65227278D01*
X159706036Y-65227278D02*
X159753656Y-65179659D01*
X159753656Y-65179659D02*
X159801275Y-65084421D01*
X159801275Y-65084421D02*
X159801275Y-64893945D01*
X159801275Y-64893945D02*
X159753656Y-64798707D01*
X159753656Y-64798707D02*
X159706036Y-64751088D01*
X159706036Y-64751088D02*
X159610798Y-64703469D01*
X159610798Y-64703469D02*
X159372703Y-64703469D01*
X159372703Y-64703469D02*
X159277465Y-64751088D01*
X159277465Y-64751088D02*
X159229846Y-64798707D01*
X159229846Y-64798707D02*
X159182227Y-64893945D01*
X159182227Y-64893945D02*
X159182227Y-65084421D01*
X159182227Y-65084421D02*
X159229846Y-65179659D01*
X159229846Y-65179659D02*
X159277465Y-65227278D01*
X159277465Y-65227278D02*
X159372703Y-65274897D01*
X160887409Y-76512993D02*
X160935028Y-76370136D01*
X160935028Y-76370136D02*
X160982647Y-76322517D01*
X160982647Y-76322517D02*
X161077885Y-76274898D01*
X161077885Y-76274898D02*
X161220742Y-76274898D01*
X161220742Y-76274898D02*
X161315980Y-76322517D01*
X161315980Y-76322517D02*
X161363600Y-76370136D01*
X161363600Y-76370136D02*
X161411219Y-76465374D01*
X161411219Y-76465374D02*
X161411219Y-76846326D01*
X161411219Y-76846326D02*
X160411219Y-76846326D01*
X160411219Y-76846326D02*
X160411219Y-76512993D01*
X160411219Y-76512993D02*
X160458838Y-76417755D01*
X160458838Y-76417755D02*
X160506457Y-76370136D01*
X160506457Y-76370136D02*
X160601695Y-76322517D01*
X160601695Y-76322517D02*
X160696933Y-76322517D01*
X160696933Y-76322517D02*
X160792171Y-76370136D01*
X160792171Y-76370136D02*
X160839790Y-76417755D01*
X160839790Y-76417755D02*
X160887409Y-76512993D01*
X160887409Y-76512993D02*
X160887409Y-76846326D01*
X161411219Y-75846326D02*
X160744552Y-75846326D01*
X160935028Y-75846326D02*
X160839790Y-75798707D01*
X160839790Y-75798707D02*
X160792171Y-75751088D01*
X160792171Y-75751088D02*
X160744552Y-75655850D01*
X160744552Y-75655850D02*
X160744552Y-75560612D01*
X161363600Y-74846326D02*
X161411219Y-74941564D01*
X161411219Y-74941564D02*
X161411219Y-75132040D01*
X161411219Y-75132040D02*
X161363600Y-75227278D01*
X161363600Y-75227278D02*
X161268361Y-75274897D01*
X161268361Y-75274897D02*
X160887409Y-75274897D01*
X160887409Y-75274897D02*
X160792171Y-75227278D01*
X160792171Y-75227278D02*
X160744552Y-75132040D01*
X160744552Y-75132040D02*
X160744552Y-74941564D01*
X160744552Y-74941564D02*
X160792171Y-74846326D01*
X160792171Y-74846326D02*
X160887409Y-74798707D01*
X160887409Y-74798707D02*
X160982647Y-74798707D01*
X160982647Y-74798707D02*
X161077885Y-75274897D01*
X160744552Y-74370135D02*
X161411219Y-74370135D01*
X160839790Y-74370135D02*
X160792171Y-74322516D01*
X160792171Y-74322516D02*
X160744552Y-74227278D01*
X160744552Y-74227278D02*
X160744552Y-74084421D01*
X160744552Y-74084421D02*
X160792171Y-73989183D01*
X160792171Y-73989183D02*
X160887409Y-73941564D01*
X160887409Y-73941564D02*
X161411219Y-73941564D01*
X161411219Y-73036802D02*
X160411219Y-73036802D01*
X161363600Y-73036802D02*
X161411219Y-73132040D01*
X161411219Y-73132040D02*
X161411219Y-73322516D01*
X161411219Y-73322516D02*
X161363600Y-73417754D01*
X161363600Y-73417754D02*
X161315980Y-73465373D01*
X161315980Y-73465373D02*
X161220742Y-73512992D01*
X161220742Y-73512992D02*
X160935028Y-73512992D01*
X160935028Y-73512992D02*
X160839790Y-73465373D01*
X160839790Y-73465373D02*
X160792171Y-73417754D01*
X160792171Y-73417754D02*
X160744552Y-73322516D01*
X160744552Y-73322516D02*
X160744552Y-73132040D01*
X160744552Y-73132040D02*
X160792171Y-73036802D01*
X161411219Y-72132040D02*
X160887409Y-72132040D01*
X160887409Y-72132040D02*
X160792171Y-72179659D01*
X160792171Y-72179659D02*
X160744552Y-72274897D01*
X160744552Y-72274897D02*
X160744552Y-72465373D01*
X160744552Y-72465373D02*
X160792171Y-72560611D01*
X161363600Y-72132040D02*
X161411219Y-72227278D01*
X161411219Y-72227278D02*
X161411219Y-72465373D01*
X161411219Y-72465373D02*
X161363600Y-72560611D01*
X161363600Y-72560611D02*
X161268361Y-72608230D01*
X161268361Y-72608230D02*
X161173123Y-72608230D01*
X161173123Y-72608230D02*
X161077885Y-72560611D01*
X161077885Y-72560611D02*
X161030266Y-72465373D01*
X161030266Y-72465373D02*
X161030266Y-72227278D01*
X161030266Y-72227278D02*
X160982647Y-72132040D01*
X160744552Y-71655849D02*
X161411219Y-71655849D01*
X160839790Y-71655849D02*
X160792171Y-71608230D01*
X160792171Y-71608230D02*
X160744552Y-71512992D01*
X160744552Y-71512992D02*
X160744552Y-71370135D01*
X160744552Y-71370135D02*
X160792171Y-71274897D01*
X160792171Y-71274897D02*
X160887409Y-71227278D01*
X160887409Y-71227278D02*
X161411219Y-71227278D01*
X160411219Y-70084420D02*
X161411219Y-69846325D01*
X161411219Y-69846325D02*
X160696933Y-69655849D01*
X160696933Y-69655849D02*
X161411219Y-69465373D01*
X161411219Y-69465373D02*
X160411219Y-69227278D01*
X161363600Y-68465373D02*
X161411219Y-68560611D01*
X161411219Y-68560611D02*
X161411219Y-68751087D01*
X161411219Y-68751087D02*
X161363600Y-68846325D01*
X161363600Y-68846325D02*
X161268361Y-68893944D01*
X161268361Y-68893944D02*
X160887409Y-68893944D01*
X160887409Y-68893944D02*
X160792171Y-68846325D01*
X160792171Y-68846325D02*
X160744552Y-68751087D01*
X160744552Y-68751087D02*
X160744552Y-68560611D01*
X160744552Y-68560611D02*
X160792171Y-68465373D01*
X160792171Y-68465373D02*
X160887409Y-68417754D01*
X160887409Y-68417754D02*
X160982647Y-68417754D01*
X160982647Y-68417754D02*
X161077885Y-68893944D01*
X161363600Y-68036801D02*
X161411219Y-67941563D01*
X161411219Y-67941563D02*
X161411219Y-67751087D01*
X161411219Y-67751087D02*
X161363600Y-67655849D01*
X161363600Y-67655849D02*
X161268361Y-67608230D01*
X161268361Y-67608230D02*
X161220742Y-67608230D01*
X161220742Y-67608230D02*
X161125504Y-67655849D01*
X161125504Y-67655849D02*
X161077885Y-67751087D01*
X161077885Y-67751087D02*
X161077885Y-67893944D01*
X161077885Y-67893944D02*
X161030266Y-67989182D01*
X161030266Y-67989182D02*
X160935028Y-68036801D01*
X160935028Y-68036801D02*
X160887409Y-68036801D01*
X160887409Y-68036801D02*
X160792171Y-67989182D01*
X160792171Y-67989182D02*
X160744552Y-67893944D01*
X160744552Y-67893944D02*
X160744552Y-67751087D01*
X160744552Y-67751087D02*
X160792171Y-67655849D01*
X160744552Y-67322515D02*
X160744552Y-66941563D01*
X160411219Y-67179658D02*
X161268361Y-67179658D01*
X161268361Y-67179658D02*
X161363600Y-67132039D01*
X161363600Y-67132039D02*
X161411219Y-67036801D01*
X161411219Y-67036801D02*
X161411219Y-66941563D01*
X161411219Y-66465372D02*
X161363600Y-66560610D01*
X161363600Y-66560610D02*
X161268361Y-66608229D01*
X161268361Y-66608229D02*
X160411219Y-66608229D01*
X161363600Y-65703467D02*
X161411219Y-65798705D01*
X161411219Y-65798705D02*
X161411219Y-65989181D01*
X161411219Y-65989181D02*
X161363600Y-66084419D01*
X161363600Y-66084419D02*
X161268361Y-66132038D01*
X161268361Y-66132038D02*
X160887409Y-66132038D01*
X160887409Y-66132038D02*
X160792171Y-66084419D01*
X160792171Y-66084419D02*
X160744552Y-65989181D01*
X160744552Y-65989181D02*
X160744552Y-65798705D01*
X160744552Y-65798705D02*
X160792171Y-65703467D01*
X160792171Y-65703467D02*
X160887409Y-65655848D01*
X160887409Y-65655848D02*
X160982647Y-65655848D01*
X160982647Y-65655848D02*
X161077885Y-66132038D01*
X160744552Y-65322514D02*
X161411219Y-65084419D01*
X160744552Y-64846324D02*
X161411219Y-65084419D01*
X161411219Y-65084419D02*
X161649314Y-65179657D01*
X161649314Y-65179657D02*
X161696933Y-65227276D01*
X161696933Y-65227276D02*
X161744552Y-65322514D01*
X150625513Y-73893850D02*
X150577894Y-73989088D01*
X150577894Y-73989088D02*
X150482656Y-74084326D01*
X150482656Y-74084326D02*
X150339798Y-74227183D01*
X150339798Y-74227183D02*
X150292179Y-74322421D01*
X150292179Y-74322421D02*
X150292179Y-74417659D01*
X150530275Y-74370040D02*
X150482656Y-74465278D01*
X150482656Y-74465278D02*
X150387417Y-74560516D01*
X150387417Y-74560516D02*
X150196941Y-74608135D01*
X150196941Y-74608135D02*
X149863608Y-74608135D01*
X149863608Y-74608135D02*
X149673132Y-74560516D01*
X149673132Y-74560516D02*
X149577894Y-74465278D01*
X149577894Y-74465278D02*
X149530275Y-74370040D01*
X149530275Y-74370040D02*
X149530275Y-74179564D01*
X149530275Y-74179564D02*
X149577894Y-74084326D01*
X149577894Y-74084326D02*
X149673132Y-73989088D01*
X149673132Y-73989088D02*
X149863608Y-73941469D01*
X149863608Y-73941469D02*
X150196941Y-73941469D01*
X150196941Y-73941469D02*
X150387417Y-73989088D01*
X150387417Y-73989088D02*
X150482656Y-74084326D01*
X150482656Y-74084326D02*
X150530275Y-74179564D01*
X150530275Y-74179564D02*
X150530275Y-74370040D01*
X151854504Y-76131945D02*
X151854504Y-75655755D01*
X152140219Y-76227183D02*
X151140219Y-75893850D01*
X151140219Y-75893850D02*
X152140219Y-75560517D01*
X151616409Y-74893850D02*
X151664028Y-74750993D01*
X151664028Y-74750993D02*
X151711647Y-74703374D01*
X151711647Y-74703374D02*
X151806885Y-74655755D01*
X151806885Y-74655755D02*
X151949742Y-74655755D01*
X151949742Y-74655755D02*
X152044980Y-74703374D01*
X152044980Y-74703374D02*
X152092600Y-74750993D01*
X152092600Y-74750993D02*
X152140219Y-74846231D01*
X152140219Y-74846231D02*
X152140219Y-75227183D01*
X152140219Y-75227183D02*
X151140219Y-75227183D01*
X151140219Y-75227183D02*
X151140219Y-74893850D01*
X151140219Y-74893850D02*
X151187838Y-74798612D01*
X151187838Y-74798612D02*
X151235457Y-74750993D01*
X151235457Y-74750993D02*
X151330695Y-74703374D01*
X151330695Y-74703374D02*
X151425933Y-74703374D01*
X151425933Y-74703374D02*
X151521171Y-74750993D01*
X151521171Y-74750993D02*
X151568790Y-74798612D01*
X151568790Y-74798612D02*
X151616409Y-74893850D01*
X151616409Y-74893850D02*
X151616409Y-75227183D01*
X152092600Y-74274802D02*
X152140219Y-74131945D01*
X152140219Y-74131945D02*
X152140219Y-73893850D01*
X152140219Y-73893850D02*
X152092600Y-73798612D01*
X152092600Y-73798612D02*
X152044980Y-73750993D01*
X152044980Y-73750993D02*
X151949742Y-73703374D01*
X151949742Y-73703374D02*
X151854504Y-73703374D01*
X151854504Y-73703374D02*
X151759266Y-73750993D01*
X151759266Y-73750993D02*
X151711647Y-73798612D01*
X151711647Y-73798612D02*
X151664028Y-73893850D01*
X151664028Y-73893850D02*
X151616409Y-74084326D01*
X151616409Y-74084326D02*
X151568790Y-74179564D01*
X151568790Y-74179564D02*
X151521171Y-74227183D01*
X151521171Y-74227183D02*
X151425933Y-74274802D01*
X151425933Y-74274802D02*
X151330695Y-74274802D01*
X151330695Y-74274802D02*
X151235457Y-74227183D01*
X151235457Y-74227183D02*
X151187838Y-74179564D01*
X151187838Y-74179564D02*
X151140219Y-74084326D01*
X151140219Y-74084326D02*
X151140219Y-73846231D01*
X151140219Y-73846231D02*
X151187838Y-73703374D01*
X154882161Y-90936482D02*
X154929780Y-90841244D01*
X154929780Y-90841244D02*
X154929780Y-90698387D01*
X154929780Y-90698387D02*
X154882161Y-90555530D01*
X154882161Y-90555530D02*
X154786923Y-90460292D01*
X154786923Y-90460292D02*
X154691685Y-90412673D01*
X154691685Y-90412673D02*
X154501209Y-90365054D01*
X154501209Y-90365054D02*
X154358352Y-90365054D01*
X154358352Y-90365054D02*
X154167876Y-90412673D01*
X154167876Y-90412673D02*
X154072638Y-90460292D01*
X154072638Y-90460292D02*
X153977400Y-90555530D01*
X153977400Y-90555530D02*
X153929780Y-90698387D01*
X153929780Y-90698387D02*
X153929780Y-90793625D01*
X153929780Y-90793625D02*
X153977400Y-90936482D01*
X153977400Y-90936482D02*
X154025019Y-90984101D01*
X154025019Y-90984101D02*
X154358352Y-90984101D01*
X154358352Y-90984101D02*
X154358352Y-90793625D01*
X162046266Y-86371326D02*
X162046266Y-85609422D01*
X162427219Y-85990374D02*
X161665314Y-85990374D01*
X162046266Y-84371326D02*
X162046266Y-83609422D01*
X163437673Y-94228219D02*
X163437673Y-93228219D01*
X163913863Y-94228219D02*
X163913863Y-93228219D01*
X163913863Y-93228219D02*
X164485291Y-94228219D01*
X164485291Y-94228219D02*
X164485291Y-93228219D01*
X164913863Y-93942504D02*
X165390053Y-93942504D01*
X164818625Y-94228219D02*
X165151958Y-93228219D01*
X165151958Y-93228219D02*
X165485291Y-94228219D01*
X147949219Y-63130326D02*
X146949219Y-63130326D01*
X146949219Y-63130326D02*
X147663504Y-62796993D01*
X147663504Y-62796993D02*
X146949219Y-62463660D01*
X146949219Y-62463660D02*
X147949219Y-62463660D01*
X147568266Y-61987469D02*
X147568266Y-61225565D01*
X165660101Y-81178980D02*
X165612482Y-81226600D01*
X165612482Y-81226600D02*
X165469625Y-81274219D01*
X165469625Y-81274219D02*
X165374387Y-81274219D01*
X165374387Y-81274219D02*
X165231530Y-81226600D01*
X165231530Y-81226600D02*
X165136292Y-81131361D01*
X165136292Y-81131361D02*
X165088673Y-81036123D01*
X165088673Y-81036123D02*
X165041054Y-80845647D01*
X165041054Y-80845647D02*
X165041054Y-80702790D01*
X165041054Y-80702790D02*
X165088673Y-80512314D01*
X165088673Y-80512314D02*
X165136292Y-80417076D01*
X165136292Y-80417076D02*
X165231530Y-80321838D01*
X165231530Y-80321838D02*
X165374387Y-80274219D01*
X165374387Y-80274219D02*
X165469625Y-80274219D01*
X165469625Y-80274219D02*
X165612482Y-80321838D01*
X165612482Y-80321838D02*
X165660101Y-80369457D01*
X166041054Y-80988504D02*
X166517244Y-80988504D01*
X165945816Y-81274219D02*
X166279149Y-80274219D01*
X166279149Y-80274219D02*
X166612482Y-81274219D01*
X166945816Y-81274219D02*
X166945816Y-80274219D01*
X166945816Y-80274219D02*
X167517244Y-81274219D01*
X167517244Y-81274219D02*
X167517244Y-80274219D01*
X144774219Y-91435517D02*
X144774219Y-92006945D01*
X144774219Y-91721231D02*
X143774219Y-91721231D01*
X143774219Y-91721231D02*
X143917076Y-91816469D01*
X143917076Y-91816469D02*
X144012314Y-91911707D01*
X144012314Y-91911707D02*
X144059933Y-92006945D01*
X143869457Y-91054564D02*
X143821838Y-91006945D01*
X143821838Y-91006945D02*
X143774219Y-90911707D01*
X143774219Y-90911707D02*
X143774219Y-90673612D01*
X143774219Y-90673612D02*
X143821838Y-90578374D01*
X143821838Y-90578374D02*
X143869457Y-90530755D01*
X143869457Y-90530755D02*
X143964695Y-90483136D01*
X143964695Y-90483136D02*
X144059933Y-90483136D01*
X144059933Y-90483136D02*
X144202790Y-90530755D01*
X144202790Y-90530755D02*
X144774219Y-91102183D01*
X144774219Y-91102183D02*
X144774219Y-90483136D01*
X143774219Y-90197421D02*
X144774219Y-89864088D01*
X144774219Y-89864088D02*
X143774219Y-89530755D01*
X148752322Y-87641326D02*
X148752322Y-86879422D01*
X149133275Y-87260374D02*
X148371370Y-87260374D01*
X148609465Y-83022278D02*
X148657084Y-82879421D01*
X148657084Y-82879421D02*
X148704703Y-82831802D01*
X148704703Y-82831802D02*
X148799941Y-82784183D01*
X148799941Y-82784183D02*
X148942798Y-82784183D01*
X148942798Y-82784183D02*
X149038036Y-82831802D01*
X149038036Y-82831802D02*
X149085656Y-82879421D01*
X149085656Y-82879421D02*
X149133275Y-82974659D01*
X149133275Y-82974659D02*
X149133275Y-83355611D01*
X149133275Y-83355611D02*
X148133275Y-83355611D01*
X148133275Y-83355611D02*
X148133275Y-83022278D01*
X148133275Y-83022278D02*
X148180894Y-82927040D01*
X148180894Y-82927040D02*
X148228513Y-82879421D01*
X148228513Y-82879421D02*
X148323751Y-82831802D01*
X148323751Y-82831802D02*
X148418989Y-82831802D01*
X148418989Y-82831802D02*
X148514227Y-82879421D01*
X148514227Y-82879421D02*
X148561846Y-82927040D01*
X148561846Y-82927040D02*
X148609465Y-83022278D01*
X148609465Y-83022278D02*
X148609465Y-83355611D01*
X148752322Y-80831801D02*
X148752322Y-80069897D01*
X149133275Y-80450849D02*
X148371370Y-80450849D01*
X148847560Y-76593705D02*
X148847560Y-76117515D01*
X149133275Y-76688943D02*
X148133275Y-76355610D01*
X148133275Y-76355610D02*
X149133275Y-76022277D01*
X150743219Y-80307991D02*
X150743219Y-80784181D01*
X150743219Y-80784181D02*
X149743219Y-80784181D01*
X150743219Y-79974657D02*
X149743219Y-79974657D01*
X150743219Y-79498467D02*
X149743219Y-79498467D01*
X149743219Y-79498467D02*
X150457504Y-79165134D01*
X150457504Y-79165134D02*
X149743219Y-78831801D01*
X149743219Y-78831801D02*
X150743219Y-78831801D01*
X150743219Y-78355610D02*
X149743219Y-78355610D01*
X149743219Y-78022277D02*
X149743219Y-77450849D01*
X150743219Y-77736563D02*
X149743219Y-77736563D01*
D11*
%TO.C,R2*%
X160884776Y-80757500D02*
X161394224Y-80757500D01*
X160884776Y-81802500D02*
X161394224Y-81802500D01*
%TO.C,R6*%
X164315224Y-76566500D02*
X163805776Y-76566500D01*
X164315224Y-77611500D02*
X163805776Y-77611500D01*
D12*
%TO.C,H1*%
X169228000Y-61087000D02*
G75*
G02*
X164528000Y-61087000I-2350000J0D01*
G01*
X164528000Y-61087000D02*
G75*
G02*
X169228000Y-61087000I2350000J0D01*
G01*
D11*
%TO.C,L2*%
X164345252Y-69375000D02*
X163822748Y-69375000D01*
X164345252Y-71595000D02*
X163822748Y-71595000D01*
%TO.C,D3*%
X166346000Y-94461000D02*
X168806000Y-94461000D01*
X168806000Y-92991000D02*
X166346000Y-92991000D01*
X168806000Y-94461000D02*
X168806000Y-92991000D01*
D13*
%TO.C,J4*%
X148427498Y-59036600D02*
X148427498Y-64650000D01*
X148529098Y-64650000D02*
X148529098Y-67952010D01*
X148529098Y-67952010D02*
X156580898Y-67952010D01*
X151753777Y-59036600D02*
X148427498Y-59036600D01*
X156580898Y-67952010D02*
X156580898Y-64650010D01*
X156682498Y-59036600D02*
X153356219Y-59036600D01*
X156682498Y-64650010D02*
X156682498Y-59036600D01*
D11*
%TO.C,D2*%
X166346000Y-92429000D02*
X168806000Y-92429000D01*
X168806000Y-90959000D02*
X166346000Y-90959000D01*
X168806000Y-92429000D02*
X168806000Y-90959000D01*
%TO.C,R4*%
X158077000Y-85493776D02*
X158077000Y-86003224D01*
X159122000Y-85493776D02*
X159122000Y-86003224D01*
%TO.C,R5*%
X166990500Y-76431224D02*
X166990500Y-75921776D01*
X168035500Y-76431224D02*
X168035500Y-75921776D01*
%TO.C,J5*%
X143081000Y-68835000D02*
X143081000Y-72715000D01*
X145051000Y-67665000D02*
X147551000Y-67665000D01*
X145051000Y-73885000D02*
X147551000Y-73885000D01*
X147551000Y-67665000D02*
X147551000Y-68715000D01*
X147551000Y-68715000D02*
X148541000Y-68715000D01*
X147551000Y-73885000D02*
X147551000Y-72835000D01*
%TO.C,J7*%
X143081000Y-77568000D02*
X143081000Y-79448000D01*
X145051000Y-76398000D02*
X147551000Y-76398000D01*
X145051000Y-80618000D02*
X147551000Y-80618000D01*
X147551000Y-76398000D02*
X147551000Y-77448000D01*
X147551000Y-77448000D02*
X148541000Y-77448000D01*
X147551000Y-80618000D02*
X147551000Y-79568000D01*
%TO.C,R3*%
X161394224Y-78725500D02*
X160884776Y-78725500D01*
X161394224Y-79770500D02*
X160884776Y-79770500D01*
D12*
%TO.C,H2*%
X147130000Y-61087000D02*
G75*
G02*
X142430000Y-61087000I-2350000J0D01*
G01*
X142430000Y-61087000D02*
G75*
G02*
X147130000Y-61087000I2350000J0D01*
G01*
D11*
%TO.C,C7*%
X157508000Y-84455000D02*
G75*
G02*
X149268000Y-84455000I-4120000J0D01*
G01*
X149268000Y-84455000D02*
G75*
G02*
X157508000Y-84455000I4120000J0D01*
G01*
%TO.C,C2*%
X159923989Y-85607508D02*
X159923989Y-85900042D01*
X160943989Y-85607508D02*
X160943989Y-85900042D01*
%TO.C,U4*%
X164089500Y-72542000D02*
X163289500Y-72542000D01*
X164089500Y-72542000D02*
X164889500Y-72542000D01*
X164089500Y-75662000D02*
X163289500Y-75662000D01*
X164089500Y-75662000D02*
X164889500Y-75662000D01*
X162789500Y-72592000D02*
X162549500Y-72262000D01*
X163029500Y-72262000D01*
X162789500Y-72592000D01*
G36*
X162789500Y-72592000D02*
G01*
X162549500Y-72262000D01*
X163029500Y-72262000D01*
X162789500Y-72592000D01*
G37*
%TO.C,J6*%
X143081000Y-84299000D02*
X143081000Y-86179000D01*
X145051000Y-83129000D02*
X147551000Y-83129000D01*
X145051000Y-87349000D02*
X147551000Y-87349000D01*
X147551000Y-83129000D02*
X147551000Y-84179000D01*
X147551000Y-84179000D02*
X148541000Y-84179000D01*
X147551000Y-87349000D02*
X147551000Y-86299000D01*
D10*
%TO.C,REF\u002A\u002A*%
X162392579Y-66052025D02*
X162393046Y-65949569D01*
X162393046Y-65949569D02*
X162398110Y-65860774D01*
X162398110Y-65860774D02*
X162402628Y-65849198D01*
X162398701Y-66185597D02*
X162392579Y-66052025D01*
X162402628Y-65849198D02*
X162408973Y-65836855D01*
X162408973Y-65836855D02*
X162418663Y-65822031D01*
X162415320Y-66344594D02*
X162398701Y-66185597D01*
X162418663Y-65822031D02*
X162424907Y-65814132D01*
X162424907Y-65814132D02*
X162432161Y-65806144D01*
X162432161Y-65806144D02*
X162440484Y-65798245D01*
X162440484Y-65798245D02*
X162449934Y-65790612D01*
X162446347Y-66523325D02*
X162415320Y-66344594D01*
X162449934Y-65790612D02*
X162460569Y-65783421D01*
X162460569Y-65783421D02*
X162472447Y-65776851D01*
X162472447Y-65776851D02*
X162485626Y-65771078D01*
X162485626Y-65771078D02*
X162500164Y-65766280D01*
X162495688Y-66716096D02*
X162446347Y-66523325D01*
X162500164Y-65766280D02*
X162516119Y-65762633D01*
X162516119Y-65762633D02*
X162533551Y-65760315D01*
X162528449Y-66815969D02*
X162495688Y-66716096D01*
X162533551Y-65760315D02*
X162552515Y-65759503D01*
X162552515Y-65759503D02*
X162573072Y-65760374D01*
X162567255Y-66917217D02*
X162528449Y-66815969D01*
X162573072Y-65760374D02*
X162595278Y-65763105D01*
X162595278Y-65763105D02*
X162619193Y-65767874D01*
X162605893Y-60708118D02*
X161974777Y-60153334D01*
X162612594Y-67019130D02*
X162567255Y-66917217D01*
X162619193Y-65767874D02*
X162644874Y-65774858D01*
X162644874Y-65774858D02*
X162672379Y-65784233D01*
X162664954Y-67120996D02*
X162612594Y-67019130D01*
X162672379Y-65784233D02*
X162701767Y-65796178D01*
X162701767Y-65796178D02*
X162733095Y-65810869D01*
X162724826Y-67222103D02*
X162664954Y-67120996D01*
X162733095Y-65810869D02*
X162766423Y-65828483D01*
X162766423Y-65828483D02*
X162801807Y-65849198D01*
X162792697Y-67321740D02*
X162724826Y-67222103D01*
X162801807Y-65849198D02*
X162839306Y-65873191D01*
X162839306Y-65873191D02*
X162878978Y-65900638D01*
X162869055Y-67419196D02*
X162792697Y-67321740D01*
X162878978Y-65900638D02*
X162920882Y-65931718D01*
X162881920Y-68226905D02*
X162902059Y-68214606D01*
X162881920Y-68226905D02*
X163310664Y-68060520D01*
X162902059Y-68214606D02*
X162927565Y-68200544D01*
X162920882Y-65931718D02*
X162965075Y-65966607D01*
X162927565Y-68200544D02*
X162963657Y-68182375D01*
X162954391Y-67513759D02*
X162869055Y-67419196D01*
X162963657Y-68182375D02*
X163010557Y-68160971D01*
X162965075Y-65966607D02*
X163059272Y-66046564D01*
X163010557Y-68160971D02*
X163068486Y-68137210D01*
X163049191Y-67604717D02*
X162954391Y-67513759D01*
X163059272Y-66046564D02*
X163159374Y-66138114D01*
X163068486Y-68137210D02*
X163137666Y-68111964D01*
X163137666Y-68111964D02*
X163218319Y-68086109D01*
X163153945Y-67691360D02*
X163049191Y-67604717D01*
X163159374Y-66138114D02*
X163263786Y-66239891D01*
X163218319Y-68086109D02*
X163263016Y-68073227D01*
X163232710Y-61296848D02*
X162605893Y-60708118D01*
X163263016Y-68073227D02*
X163310664Y-68060520D01*
X163263786Y-66239891D02*
X163370914Y-66350526D01*
X163269141Y-67772975D02*
X163153945Y-67691360D01*
X163310664Y-68060520D02*
X163361292Y-68048098D01*
X163361292Y-68048098D02*
X163414925Y-68036071D01*
X163370914Y-66350526D02*
X163479163Y-66468653D01*
X163395268Y-67848851D02*
X163269141Y-67772975D01*
X163414925Y-68036071D02*
X163471593Y-68024548D01*
X163471593Y-68024548D02*
X163531323Y-68013638D01*
X163479163Y-66468653D02*
X163586940Y-66592906D01*
X163531323Y-68013638D02*
X163594142Y-68003451D01*
X163532815Y-67918277D02*
X163395268Y-67848851D01*
X163576662Y-61638496D02*
X163232710Y-61296848D01*
X163586940Y-66592906D02*
X163692650Y-66721917D01*
X163594142Y-68003451D02*
X163660078Y-67994095D01*
X163597690Y-66493731D02*
X163599449Y-66452187D01*
X163599449Y-66452187D02*
X163613074Y-66414984D01*
X163607127Y-66539453D02*
X163597690Y-66493731D01*
X163613074Y-66414984D02*
X163639234Y-66382289D01*
X163627093Y-66589187D02*
X163607127Y-66539453D01*
X163639234Y-66382289D02*
X163678598Y-66354265D01*
X163656916Y-66642768D02*
X163627093Y-66589187D01*
X163660078Y-67994095D02*
X163729159Y-67985681D01*
X163678598Y-66354265D02*
X163731835Y-66331078D01*
X163682270Y-67980541D02*
X163532815Y-67918277D01*
X163692650Y-66721917D02*
X163794699Y-66854320D01*
X163695929Y-66700031D02*
X163656916Y-66642768D01*
X163729159Y-67985681D02*
X163801413Y-67978318D01*
X163731835Y-66331078D02*
X163799614Y-66312893D01*
X163794699Y-66854320D02*
X163891493Y-66988747D01*
X163798846Y-66824945D02*
X163695929Y-66700031D01*
X163799614Y-66312893D02*
X163882605Y-66299874D01*
X163801413Y-67978318D02*
X163876867Y-67972114D01*
X163844121Y-68034932D02*
X163682270Y-67980541D01*
X163876867Y-67972114D02*
X163955549Y-67967179D01*
X163882605Y-66299874D02*
X163981477Y-66292187D01*
X163891493Y-66988747D02*
X163981437Y-67123832D01*
X163922966Y-62000026D02*
X163576662Y-61638496D01*
X163930492Y-66962610D02*
X163798846Y-66824945D01*
X163955549Y-67967179D02*
X164037487Y-67963624D01*
X163955814Y-66896281D02*
X163956935Y-66794332D01*
X163956935Y-66794332D02*
X163966573Y-66698027D01*
X163966573Y-66698027D02*
X163985719Y-66609109D01*
X163975161Y-67110131D02*
X163955814Y-66896281D01*
X163981437Y-67123832D02*
X164062938Y-67258208D01*
X163981477Y-66292187D02*
X164096898Y-66289996D01*
X163985719Y-66609109D02*
X164015362Y-66529324D01*
X164015362Y-66529324D02*
X164056494Y-66460414D01*
X164016691Y-67325623D02*
X163975161Y-67110131D01*
X164018859Y-68080738D02*
X163844121Y-68034932D01*
X164037487Y-67963624D02*
X164122708Y-67961556D01*
X164056494Y-66460414D02*
X164110104Y-66404125D01*
X164062938Y-67258208D02*
X164134401Y-67390507D01*
X164072479Y-67528802D02*
X164016691Y-67325623D01*
X164085511Y-67111706D02*
X163930492Y-66962610D01*
X164096898Y-66289996D02*
X164229538Y-66293467D01*
X164110104Y-66404125D02*
X164177184Y-66362201D01*
X164122708Y-67961556D02*
X164211240Y-67961086D01*
X164134401Y-67390507D02*
X164194232Y-67519364D01*
X164134604Y-67705715D02*
X164072479Y-67528802D01*
X164177184Y-66362201D02*
X164258723Y-66336385D01*
X164194232Y-67519364D02*
X164219287Y-67582074D01*
X164195141Y-67842406D02*
X164134604Y-67705715D01*
X164206970Y-68117248D02*
X164018859Y-68080738D01*
X164211240Y-67961086D02*
X164303110Y-67962322D01*
X164219287Y-67582074D02*
X164240837Y-67643411D01*
X164229538Y-66293467D02*
X164380066Y-66302764D01*
X164240837Y-67643411D02*
X164258681Y-67703203D01*
X164246167Y-67924921D02*
X164195141Y-67842406D01*
X164258117Y-62372709D02*
X163922966Y-62000026D01*
X164258681Y-67703203D02*
X164272621Y-67761281D01*
X164258723Y-66336385D02*
X164355712Y-66328424D01*
X164265637Y-67941502D02*
X164246167Y-67924921D01*
X164272621Y-67761281D02*
X164282458Y-67817472D01*
X164279758Y-67939306D02*
X164265637Y-67941502D01*
X164282458Y-67817472D02*
X164287991Y-67871607D01*
X164287540Y-67916589D02*
X164279758Y-67939306D01*
X164287991Y-67871607D02*
X164287540Y-67916589D01*
X164303110Y-67962322D02*
X164492900Y-67968820D01*
X164355712Y-66328424D02*
X164469141Y-66340060D01*
X164380066Y-66302764D02*
X164549151Y-66318052D01*
X164408944Y-68143750D02*
X164206970Y-68117248D01*
X164469141Y-66340060D02*
X164600002Y-66373037D01*
X164492900Y-67968820D02*
X164700094Y-67979945D01*
X164549151Y-66318052D02*
X164945670Y-66367262D01*
X164568607Y-62747817D02*
X164258117Y-62372709D01*
X164600002Y-66373037D02*
X164749283Y-66429102D01*
X164616869Y-68163764D02*
X164408944Y-68143750D01*
X164700094Y-67979945D02*
X164914518Y-67995256D01*
X164749283Y-66429102D02*
X164917977Y-66509996D01*
X164806479Y-68179787D02*
X164616869Y-68163764D01*
X164832277Y-67796012D02*
X164085511Y-67111706D01*
X164840932Y-63116620D02*
X164568607Y-62747817D01*
X164877797Y-65054492D02*
X164879684Y-65019166D01*
X164879289Y-65089098D02*
X164877797Y-65054492D01*
X164879684Y-65019166D02*
X164885068Y-64983040D01*
X164884042Y-65123060D02*
X164879289Y-65089098D01*
X164885068Y-64983040D02*
X164894068Y-64946035D01*
X164891937Y-65156459D02*
X164884042Y-65123060D01*
X164894068Y-64946035D02*
X164906802Y-64908075D01*
X164902855Y-65189371D02*
X164891937Y-65156459D01*
X164906802Y-64908075D02*
X164923389Y-64869079D01*
X164914518Y-67995256D02*
X165125997Y-68014315D01*
X164916679Y-65221877D02*
X164902855Y-65189371D01*
X164917977Y-66509996D02*
X165107072Y-66617466D01*
X164923389Y-64869079D02*
X164943948Y-64828969D01*
X164932622Y-67885280D02*
X164832277Y-67796012D01*
X164933289Y-65254053D02*
X164916679Y-65221877D01*
X164943948Y-64828969D02*
X164968597Y-64787668D01*
X164945670Y-66367262D02*
X165323828Y-66415383D01*
X164952567Y-65285979D02*
X164933289Y-65254053D01*
X164958561Y-63295929D02*
X164840932Y-63116620D01*
X164968597Y-64787668D02*
X164997454Y-64745097D01*
X164974394Y-65317733D02*
X164952567Y-65285979D01*
X164978134Y-68192060D02*
X164806479Y-68179787D01*
X164997454Y-64745097D02*
X165030638Y-64701176D01*
X164998653Y-65349394D02*
X164974394Y-65317733D01*
X165025224Y-65381040D02*
X164998653Y-65349394D01*
X165030638Y-64701176D02*
X165068268Y-64655828D01*
X165038752Y-67968711D02*
X164932622Y-67885280D01*
X165061584Y-63470388D02*
X164958561Y-63295929D01*
X165068268Y-64655828D02*
X165110461Y-64608974D01*
X165084831Y-65444600D02*
X165025224Y-65381040D01*
X165107072Y-66617466D02*
X165317560Y-66753255D01*
X165110461Y-64608974D02*
X165157337Y-64560536D01*
X165125997Y-68014315D02*
X165324357Y-68036681D01*
X165132191Y-68200822D02*
X164978134Y-68192060D01*
X165148312Y-63638907D02*
X165061584Y-63470388D01*
X165149585Y-68046134D02*
X165038752Y-67968711D01*
X165152265Y-65509041D02*
X165084831Y-65444600D01*
X165157337Y-64560536D02*
X165231945Y-64464156D01*
X165217057Y-63800393D02*
X165148312Y-63638907D01*
X165226581Y-65574992D02*
X165152265Y-65509041D01*
X165231945Y-64464156D02*
X165278440Y-64354196D01*
X165264041Y-68117380D02*
X165149585Y-68046134D01*
X165266131Y-63953757D02*
X165217057Y-63800393D01*
X165269011Y-68206312D02*
X165132191Y-68200822D01*
X165278440Y-64354196D02*
X165298510Y-64231749D01*
X165293844Y-64097906D02*
X165266131Y-63953757D01*
X165298510Y-64231749D02*
X165293844Y-64097906D01*
X165317560Y-66753255D02*
X165550432Y-66919107D01*
X165323828Y-66415383D02*
X165622261Y-66441868D01*
X165324357Y-68036681D02*
X165499423Y-68061915D01*
X165381038Y-68182282D02*
X165264041Y-68117380D01*
X165388951Y-68208769D02*
X165269011Y-68206312D01*
X165392062Y-65713933D02*
X165226581Y-65574992D01*
X165466739Y-65770397D02*
X165392062Y-65713933D01*
X165492371Y-68208434D02*
X165388951Y-68208769D01*
X165499423Y-68061915D02*
X165641022Y-68089577D01*
X165499495Y-68240669D02*
X165381038Y-68182282D01*
X165537999Y-68207293D02*
X165492371Y-68208434D01*
X165550432Y-66919107D02*
X165773455Y-67089357D01*
X165560764Y-65834554D02*
X165466739Y-65770397D01*
X165579630Y-68205544D02*
X165537999Y-68207293D01*
X165617312Y-68203217D02*
X165579630Y-68205544D01*
X165618332Y-68292374D02*
X165499495Y-68240669D01*
X165622261Y-66441868D02*
X165848046Y-66448811D01*
X165641022Y-68089577D02*
X165696092Y-68104182D01*
X165651087Y-68200341D02*
X165617312Y-68203217D01*
X165681002Y-68196946D02*
X165651087Y-68200341D01*
X165696092Y-68104182D02*
X165738980Y-68119229D01*
X165707101Y-68193063D02*
X165681002Y-68196946D01*
X165729429Y-68188720D02*
X165707101Y-68193063D01*
X165736467Y-68337226D02*
X165618332Y-68292374D01*
X165738980Y-68119229D02*
X165755172Y-68126643D01*
X165748031Y-68183949D02*
X165729429Y-68188720D01*
X165755172Y-68126643D02*
X165768087Y-68133928D01*
X165762951Y-68178779D02*
X165748031Y-68183949D01*
X165768087Y-68133928D02*
X165777679Y-68141054D01*
X165773455Y-67089357D02*
X165969832Y-67248703D01*
X165774235Y-68173239D02*
X165762951Y-68178779D01*
X165777679Y-68141054D02*
X165783904Y-68147990D01*
X165778550Y-65977564D02*
X165560764Y-65834554D01*
X165781928Y-68167361D02*
X165774235Y-68173239D01*
X165783904Y-68147990D02*
X165785740Y-68151377D01*
X165784441Y-68164304D02*
X165781928Y-68167361D01*
X165785740Y-68151377D02*
X165786717Y-68154706D01*
X165786073Y-68161173D02*
X165784441Y-68164304D01*
X165786717Y-68154706D02*
X165786830Y-68157973D01*
X165786830Y-68157973D02*
X165786073Y-68161173D01*
X165848046Y-66448811D02*
X165935906Y-66445608D01*
X165852819Y-68375059D02*
X165736467Y-68337226D01*
X165888157Y-66052228D02*
X165778550Y-65977564D01*
X165935906Y-66445608D02*
X166008258Y-66438306D01*
X165966307Y-68405701D02*
X165852819Y-68375059D01*
X165969832Y-67248703D02*
X166140643Y-67397313D01*
X165988805Y-66126204D02*
X165888157Y-66052228D01*
X166008258Y-66438306D02*
X166065986Y-66427165D01*
X166065986Y-66427165D02*
X166109974Y-66412449D01*
X166073417Y-66197398D02*
X165988805Y-66126204D01*
X166075850Y-68428986D02*
X165966307Y-68405701D01*
X166109974Y-66412449D02*
X166141108Y-66394418D01*
X166134916Y-66263714D02*
X166073417Y-66197398D01*
X166140643Y-67397313D02*
X166286968Y-67535356D01*
X166141108Y-66394418D02*
X166160272Y-66373335D01*
X166154788Y-66294389D02*
X166134916Y-66263714D01*
X166160272Y-66373335D02*
X166168350Y-66349461D01*
X166166227Y-66323058D02*
X166154788Y-66294389D01*
X166168350Y-66349461D02*
X166166227Y-66323058D01*
X166180367Y-68444743D02*
X166075850Y-68428986D01*
X166278777Y-68452804D02*
X166180367Y-68444743D01*
X166286968Y-67535356D02*
X166409890Y-67663001D01*
X166370000Y-68453000D02*
X166278777Y-68452804D01*
X166409890Y-67663001D02*
X166510489Y-67780416D01*
X166452952Y-68445162D02*
X166370000Y-68453000D01*
X166510489Y-67780416D02*
X166589847Y-67887772D01*
X166526555Y-68429122D02*
X166452952Y-68445162D01*
X166589727Y-68404710D02*
X166526555Y-68429122D01*
X166589847Y-67887772D02*
X166649043Y-67985236D01*
X166641386Y-68371757D02*
X166589727Y-68404710D01*
X166649043Y-67985236D02*
X166689160Y-68072977D01*
X166680451Y-68330095D02*
X166641386Y-68371757D01*
X166689160Y-68072977D02*
X166711278Y-68151165D01*
X166705843Y-68279555D02*
X166680451Y-68330095D01*
X166711278Y-68151165D02*
X166716479Y-68219968D01*
X166716479Y-68219968D02*
X166705843Y-68279555D01*
D11*
%TO.C,J3*%
X164172000Y-82577000D02*
X164172000Y-83627000D01*
X164172000Y-85747000D02*
X163182000Y-85747000D01*
X164172000Y-86797000D02*
X164172000Y-85747000D01*
X166672000Y-82577000D02*
X164172000Y-82577000D01*
X166672000Y-86797000D02*
X164172000Y-86797000D01*
X168642000Y-85627000D02*
X168642000Y-83747000D01*
%TO.C,C10*%
X167003000Y-72016233D02*
X167003000Y-72308767D01*
X168023000Y-72016233D02*
X168023000Y-72308767D01*
D13*
%TO.C,J2*%
X145252498Y-89389600D02*
X145252498Y-95003000D01*
X145354098Y-95003000D02*
X145354098Y-98305010D01*
X145354098Y-98305010D02*
X153405898Y-98305010D01*
X148578777Y-89389600D02*
X145252498Y-89389600D01*
X153405898Y-98305010D02*
X153405898Y-95003010D01*
X153507498Y-89389600D02*
X150181219Y-89389600D01*
X153507498Y-95003010D02*
X153507498Y-89389600D01*
D11*
%TO.C,J1*%
X154372000Y-95317000D02*
X155702000Y-95317000D01*
X154372000Y-96647000D02*
X154372000Y-95317000D01*
X156972000Y-95317000D02*
X164652000Y-95317000D01*
X156972000Y-97977000D02*
X156972000Y-95317000D01*
X156972000Y-97977000D02*
X164652000Y-97977000D01*
X164652000Y-97977000D02*
X164652000Y-95317000D01*
%TO.C,D1*%
X166346000Y-90397000D02*
X168806000Y-90397000D01*
X168806000Y-88927000D02*
X166346000Y-88927000D01*
X168806000Y-90397000D02*
X168806000Y-88927000D01*
%TD*%
M02*
