%TF.GenerationSoftware,KiCad,Pcbnew,9.0.7-9.0.7~ubuntu24.04.1*%
%TF.CreationDate,2026-03-15T04:49:07-05:00*%
%TF.ProjectId,Smart_MoCo,536d6172-745f-44d6-9f43-6f2e6b696361,rev?*%
%TF.SameCoordinates,Original*%
%TF.FileFunction,Copper,L4,Bot*%
%TF.FilePolarity,Positive*%
%FSLAX46Y46*%
G04 Gerber Fmt 4.6, Leading zero omitted, Abs format (unit mm)*
G04 Created by KiCad (PCBNEW 9.0.7-9.0.7~ubuntu24.04.1) date 2026-03-15 04:49:07*
%MOMM*%
%LPD*%
G01*
G04 APERTURE LIST*
G04 Aperture macros list*
%AMRoundRect*
0 Rectangle with rounded corners*
0 $1 Rounding radius*
0 $2 $3 $4 $5 $6 $7 $8 $9 X,Y pos of 4 corners*
0 Add a 4 corners polygon primitive as box body*
4,1,4,$2,$3,$4,$5,$6,$7,$8,$9,$2,$3,0*
0 Add four circle primitives for the rounded corners*
1,1,$1+$1,$2,$3*
1,1,$1+$1,$4,$5*
1,1,$1+$1,$6,$7*
1,1,$1+$1,$8,$9*
0 Add four rect primitives between the rounded corners*
20,1,$1+$1,$2,$3,$4,$5,0*
20,1,$1+$1,$4,$5,$6,$7,0*
20,1,$1+$1,$6,$7,$8,$9,0*
20,1,$1+$1,$8,$9,$2,$3,0*%
G04 Aperture macros list end*
%TA.AperFunction,ComponentPad*%
%ADD10C,1.574800*%
%TD*%
%TA.AperFunction,ComponentPad*%
%ADD11C,2.260600*%
%TD*%
%TA.AperFunction,ComponentPad*%
%ADD12RoundRect,0.250000X0.725000X-0.600000X0.725000X0.600000X-0.725000X0.600000X-0.725000X-0.600000X0*%
%TD*%
%TA.AperFunction,ComponentPad*%
%ADD13O,1.950000X1.700000*%
%TD*%
%TA.AperFunction,ComponentPad*%
%ADD14C,1.600000*%
%TD*%
%TA.AperFunction,ComponentPad*%
%ADD15RoundRect,0.250000X0.750000X-0.600000X0.750000X0.600000X-0.750000X0.600000X-0.750000X-0.600000X0*%
%TD*%
%TA.AperFunction,ComponentPad*%
%ADD16O,2.000000X1.700000*%
%TD*%
%TA.AperFunction,ComponentPad*%
%ADD17R,1.700000X1.700000*%
%TD*%
%TA.AperFunction,ComponentPad*%
%ADD18C,1.700000*%
%TD*%
%TA.AperFunction,SMDPad,CuDef*%
%ADD19RoundRect,0.150000X0.150000X-0.825000X0.150000X0.825000X-0.150000X0.825000X-0.150000X-0.825000X0*%
%TD*%
%TA.AperFunction,SMDPad,CuDef*%
%ADD20RoundRect,0.100000X-0.637500X-0.100000X0.637500X-0.100000X0.637500X0.100000X-0.637500X0.100000X0*%
%TD*%
%TA.AperFunction,SMDPad,CuDef*%
%ADD21RoundRect,0.237500X0.250000X0.237500X-0.250000X0.237500X-0.250000X-0.237500X0.250000X-0.237500X0*%
%TD*%
%TA.AperFunction,SMDPad,CuDef*%
%ADD22RoundRect,0.237500X-0.237500X0.250000X-0.237500X-0.250000X0.237500X-0.250000X0.237500X0.250000X0*%
%TD*%
%TA.AperFunction,SMDPad,CuDef*%
%ADD23RoundRect,0.237500X0.237500X-0.300000X0.237500X0.300000X-0.237500X0.300000X-0.237500X-0.300000X0*%
%TD*%
%TA.AperFunction,SMDPad,CuDef*%
%ADD24RoundRect,0.250001X0.462499X0.849999X-0.462499X0.849999X-0.462499X-0.849999X0.462499X-0.849999X0*%
%TD*%
%TA.AperFunction,SMDPad,CuDef*%
%ADD25RoundRect,0.237500X-0.250000X-0.237500X0.250000X-0.237500X0.250000X0.237500X-0.250000X0.237500X0*%
%TD*%
%TA.AperFunction,SMDPad,CuDef*%
%ADD26R,0.660000X1.350000*%
%TD*%
%TA.AperFunction,SMDPad,CuDef*%
%ADD27R,10.300000X5.250000*%
%TD*%
%TA.AperFunction,SMDPad,CuDef*%
%ADD28R,6.230000X5.250000*%
%TD*%
%TA.AperFunction,SMDPad,CuDef*%
%ADD29RoundRect,0.237500X-0.300000X-0.237500X0.300000X-0.237500X0.300000X0.237500X-0.300000X0.237500X0*%
%TD*%
%TA.AperFunction,SMDPad,CuDef*%
%ADD30RoundRect,0.150000X-0.512500X-0.150000X0.512500X-0.150000X0.512500X0.150000X-0.512500X0.150000X0*%
%TD*%
%TA.AperFunction,ViaPad*%
%ADD31C,0.600000*%
%TD*%
%TA.AperFunction,Conductor*%
%ADD32C,0.250000*%
%TD*%
G04 APERTURE END LIST*
D10*
%TO.P,J6,1,1*%
%TO.N,/OUTA*%
X141500000Y-71499999D03*
%TO.P,J6,2,2*%
%TO.N,/OUTB*%
X141500000Y-75000001D03*
D11*
%TO.P,J6,MP*%
%TO.N,N/C*%
X133589932Y-69000000D03*
X133589932Y-77499998D03*
%TD*%
D12*
%TO.P,J2,1,Pin_1*%
%TO.N,+3V3*%
X162500000Y-73000000D03*
D13*
%TO.P,J2,2,Pin_2*%
%TO.N,ENC_A{slash}PWM*%
X162500000Y-70500000D03*
%TO.P,J2,3,Pin_3*%
%TO.N,ENC_B*%
X162500000Y-68000000D03*
%TO.P,J2,4,Pin_4*%
%TO.N,GND*%
X162500000Y-65500000D03*
%TD*%
D10*
%TO.P,J5,1,1*%
%TO.N,+12V*%
X141500000Y-83000000D03*
%TO.P,J5,2,2*%
%TO.N,GND*%
X141500000Y-86500002D03*
D11*
%TO.P,J5,MP*%
%TO.N,N/C*%
X133589932Y-80500001D03*
X133589932Y-88999999D03*
%TD*%
D14*
%TO.P,C2,1*%
%TO.N,+12V*%
X146500000Y-84500000D03*
%TO.P,C2,2*%
%TO.N,GND*%
X150000000Y-84500000D03*
%TD*%
D15*
%TO.P,J3,1,Pin_1*%
%TO.N,LIM_A*%
X162555000Y-81500000D03*
D16*
%TO.P,J3,2,Pin_2*%
%TO.N,LIM_B*%
X162555000Y-79000000D03*
%TD*%
D15*
%TO.P,J1,1,Pin_1*%
%TO.N,CANH*%
X162555000Y-90000000D03*
D16*
%TO.P,J1,2,Pin_2*%
%TO.N,CANL*%
X162555000Y-87500000D03*
%TD*%
D17*
%TO.P,J4,1,Pin_1*%
%TO.N,+3V3*%
X149880000Y-93500000D03*
D18*
%TO.P,J4,2,Pin_2*%
%TO.N,SWCLK*%
X152420000Y-93500000D03*
%TO.P,J4,3,Pin_3*%
%TO.N,SWDIO*%
X154960000Y-93500000D03*
%TO.P,J4,4,Pin_4*%
%TO.N,GND*%
X157500000Y-93500000D03*
%TD*%
D19*
%TO.P,U3,1,D*%
%TO.N,CAN_TX*%
X168945000Y-90950000D03*
%TO.P,U3,2,GND*%
%TO.N,GND*%
X167675000Y-90950000D03*
%TO.P,U3,3,VCC*%
%TO.N,+3V3*%
X166405000Y-90950000D03*
%TO.P,U3,4,R*%
%TO.N,CAN_RX*%
X165135000Y-90950000D03*
%TO.P,U3,5,NC*%
%TO.N,unconnected-(U3-NC-Pad5)*%
X165135000Y-86000000D03*
%TO.P,U3,6,CANL*%
%TO.N,CANL*%
X166405000Y-86000000D03*
%TO.P,U3,7,CANH*%
%TO.N,CANH*%
X167675000Y-86000000D03*
%TO.P,U3,8,NC*%
%TO.N,unconnected-(U3-NC-Pad8)*%
X168945000Y-86000000D03*
%TD*%
D20*
%TO.P,U1,1,PB8*%
%TO.N,GND*%
X153657552Y-91900000D03*
%TO.P,U1,2,PF0*%
%TO.N,LED_B*%
X153657552Y-91250000D03*
%TO.P,U1,3,PF1*%
%TO.N,LED_G*%
X153657552Y-90600000D03*
%TO.P,U1,4,NRST*%
%TO.N,unconnected-(U1-NRST-Pad4)*%
X153657552Y-89950000D03*
%TO.P,U1,5,VDDA*%
%TO.N,+3V3*%
X153657552Y-89300000D03*
%TO.P,U1,6,PA0*%
%TO.N,CS*%
X153657552Y-88650000D03*
%TO.P,U1,7,PA1*%
%TO.N,ENC_B*%
X153657552Y-88000000D03*
%TO.P,U1,8,PA2*%
%TO.N,LIM_A*%
X153657552Y-87350000D03*
%TO.P,U1,9,PA3*%
%TO.N,LIM_B*%
X153657552Y-86700000D03*
%TO.P,U1,10,PA4*%
%TO.N,PWM*%
X153657552Y-86050000D03*
%TO.P,U1,11,PA5*%
%TO.N,ENC_A{slash}PWM*%
X159382552Y-86050000D03*
%TO.P,U1,12,PA6*%
%TO.N,LED_R*%
X159382552Y-86700000D03*
%TO.P,U1,13,PA7*%
%TO.N,IN_B*%
X159382552Y-87350000D03*
%TO.P,U1,14,PB1*%
%TO.N,IN_A*%
X159382552Y-88000000D03*
%TO.P,U1,15,VSSA*%
%TO.N,GND*%
X159382552Y-88650000D03*
%TO.P,U1,16,VDD*%
%TO.N,+3V3*%
X159382552Y-89300000D03*
%TO.P,U1,17,PA9/PA11*%
%TO.N,CAN_RX*%
X159382552Y-89950000D03*
%TO.P,U1,18,PA10/PA12*%
%TO.N,CAN_TX*%
X159382552Y-90600000D03*
%TO.P,U1,19,PA13*%
%TO.N,SWDIO*%
X159382552Y-91250000D03*
%TO.P,U1,20,PA14*%
%TO.N,SWCLK*%
X159382552Y-91900000D03*
%TD*%
D21*
%TO.P,R7,1*%
%TO.N,Net-(U4-FB)*%
X167746000Y-70825500D03*
%TO.P,R7,2*%
%TO.N,GND*%
X165921000Y-70825500D03*
%TD*%
D22*
%TO.P,R10,1*%
%TO.N,LED_B*%
X141000000Y-92175000D03*
%TO.P,R10,2*%
%TO.N,Net-(D1-BA)*%
X141000000Y-94000000D03*
%TD*%
D23*
%TO.P,C4,1*%
%TO.N,+3V3*%
X164000000Y-77000000D03*
%TO.P,C4,2*%
%TO.N,GND*%
X164000000Y-75275000D03*
%TD*%
D24*
%TO.P,L1,1,1*%
%TO.N,Net-(U4-SW)*%
X168019500Y-77429500D03*
%TO.P,L1,2,2*%
%TO.N,+3V3*%
X165694500Y-77429500D03*
%TD*%
D21*
%TO.P,R9,1*%
%TO.N,LED_G*%
X141825000Y-90500000D03*
%TO.P,R9,2*%
%TO.N,Net-(D1-GA)*%
X140000000Y-90500000D03*
%TD*%
D25*
%TO.P,R1,1*%
%TO.N,Net-(U2-CS)*%
X149675000Y-88000000D03*
%TO.P,R1,2*%
%TO.N,CS*%
X151500000Y-88000000D03*
%TD*%
D22*
%TO.P,R6,1*%
%TO.N,+3V3*%
X170000000Y-70825500D03*
%TO.P,R6,2*%
%TO.N,Net-(U4-FB)*%
X170000000Y-72650500D03*
%TD*%
%TO.P,R12,1*%
%TO.N,IN_B*%
X143500000Y-90175000D03*
%TO.P,R12,2*%
%TO.N,Net-(D2-A)*%
X143500000Y-92000000D03*
%TD*%
D26*
%TO.P,U2,1,OUTA*%
%TO.N,/OUTA*%
X159400000Y-82656000D03*
%TO.P,U2,2,NC*%
%TO.N,unconnected-(U2-NC-Pad2)*%
X158400000Y-82656000D03*
%TO.P,U2,3,VCC*%
%TO.N,+12V*%
X157400000Y-82656000D03*
%TO.P,U2,4,INA*%
%TO.N,IN_A*%
X156400000Y-82656000D03*
%TO.P,U2,5,EN/DIAGA*%
%TO.N,Net-(U2-EN{slash}DIAGA)*%
X155400000Y-82656000D03*
%TO.P,U2,6,CS_DIS*%
%TO.N,GND*%
X154400000Y-82656000D03*
%TO.P,U2,7,PWM*%
%TO.N,PWM*%
X153400000Y-82656000D03*
%TO.P,U2,8,CS*%
%TO.N,Net-(U2-CS)*%
X152400000Y-82656000D03*
%TO.P,U2,9,EN/DIAGB*%
%TO.N,Net-(U2-EN{slash}DIAGB)*%
X151400000Y-82656000D03*
%TO.P,U2,10,INB*%
%TO.N,IN_B*%
X150400000Y-82656000D03*
%TO.P,U2,11,CP*%
%TO.N,unconnected-(U2-CP-Pad11)*%
X149400000Y-82656000D03*
%TO.P,U2,12,VBAT*%
%TO.N,+12V*%
X148400000Y-82656000D03*
%TO.P,U2,13,VCC*%
X147400000Y-82656000D03*
%TO.P,U2,14,NC*%
%TO.N,unconnected-(U2-NC-Pad14)*%
X146400000Y-82656000D03*
%TO.P,U2,15,OUTB*%
%TO.N,/OUTB*%
X145400000Y-82656000D03*
%TO.P,U2,16,OUTB*%
X145400000Y-64406000D03*
%TO.P,U2,17,NC*%
%TO.N,unconnected-(U2-NC-Pad17)*%
X146400000Y-64406000D03*
%TO.P,U2,18,GNDB*%
%TO.N,GND*%
X147400000Y-64406000D03*
%TO.P,U2,19,GNDB*%
X148400000Y-64406000D03*
%TO.P,U2,20,GNDB*%
X149400000Y-64406000D03*
%TO.P,U2,21,OUTB*%
%TO.N,/OUTB*%
X150400000Y-64406000D03*
%TO.P,U2,22,NC*%
%TO.N,unconnected-(U2-NC-Pad22)*%
X151400000Y-64406000D03*
%TO.P,U2,23,VCC*%
%TO.N,+12V*%
X152400000Y-64406000D03*
%TO.P,U2,24,NC*%
%TO.N,unconnected-(U2-NC-Pad24)*%
X153400000Y-64406000D03*
%TO.P,U2,25,OUTA*%
%TO.N,/OUTA*%
X154400000Y-64406000D03*
%TO.P,U2,26,GNDA*%
%TO.N,GND*%
X155400000Y-64406000D03*
%TO.P,U2,27,GNDA*%
X156400000Y-64406000D03*
%TO.P,U2,28,GNDA*%
X157400000Y-64406000D03*
%TO.P,U2,29,NC*%
%TO.N,unconnected-(U2-NC-Pad29)*%
X158400000Y-64406000D03*
%TO.P,U2,30,OUTA*%
%TO.N,/OUTA*%
X159400000Y-64406000D03*
D27*
%TO.P,U2,31,VCC*%
%TO.N,+12V*%
X152400000Y-76581000D03*
D28*
%TO.P,U2,32,OUTB*%
%TO.N,/OUTB*%
X148235000Y-70481000D03*
%TO.P,U2,33,OUTA*%
%TO.N,/OUTA*%
X156565000Y-70481000D03*
%TD*%
D25*
%TO.P,R4,1*%
%TO.N,Net-(U2-CS)*%
X149675000Y-86500000D03*
%TO.P,R4,2*%
%TO.N,GND*%
X151500000Y-86500000D03*
%TD*%
D23*
%TO.P,C5,1*%
%TO.N,+3V3*%
X162500000Y-77000000D03*
%TO.P,C5,2*%
%TO.N,GND*%
X162500000Y-75275000D03*
%TD*%
D29*
%TO.P,C1,1*%
%TO.N,GND*%
X149675000Y-89500000D03*
%TO.P,C1,2*%
%TO.N,CS*%
X151400000Y-89500000D03*
%TD*%
D30*
%TO.P,U4,1,GND*%
%TO.N,GND*%
X165725000Y-74762500D03*
%TO.P,U4,2,SW*%
%TO.N,Net-(U4-SW)*%
X165725000Y-73812500D03*
%TO.P,U4,3,VIN*%
%TO.N,+12V*%
X165725000Y-72862500D03*
%TO.P,U4,4,FB*%
%TO.N,Net-(U4-FB)*%
X168000000Y-72862500D03*
%TO.P,U4,5,EN*%
%TO.N,unconnected-(U4-EN-Pad5)*%
X168000000Y-73812500D03*
%TO.P,U4,6,BST*%
%TO.N,Net-(U4-BST)*%
X168000000Y-74762500D03*
%TD*%
D22*
%TO.P,R11,1*%
%TO.N,IN_A*%
X146000000Y-90175000D03*
%TO.P,R11,2*%
%TO.N,Net-(D3-A)*%
X146000000Y-92000000D03*
%TD*%
D21*
%TO.P,R5,1*%
%TO.N,CANH*%
X167857500Y-84000000D03*
%TO.P,R5,2*%
%TO.N,CANL*%
X166032500Y-84000000D03*
%TD*%
D22*
%TO.P,R8,1*%
%TO.N,LED_R*%
X138000000Y-90675000D03*
%TO.P,R8,2*%
%TO.N,Net-(D1-RA)*%
X138000000Y-92500000D03*
%TD*%
D23*
%TO.P,C3,1*%
%TO.N,Net-(U4-SW)*%
X170000000Y-76641000D03*
%TO.P,C3,2*%
%TO.N,Net-(U4-BST)*%
X170000000Y-74916000D03*
%TD*%
D31*
%TO.N,GND*%
X149675000Y-89500000D03*
X151500000Y-86500000D03*
X149400000Y-64406000D03*
X167675000Y-90950000D03*
X143500000Y-94000000D03*
X161000000Y-89500000D03*
X158000000Y-90571000D03*
X156400000Y-64406000D03*
X146000000Y-94000000D03*
X154400000Y-82656000D03*
X157400000Y-64406000D03*
X147400000Y-64406000D03*
X165725000Y-74762500D03*
X155000000Y-90571000D03*
X155400000Y-64406000D03*
X138129800Y-94000000D03*
X148400000Y-64406000D03*
X165921000Y-70825500D03*
%TO.N,+3V3*%
X158000000Y-89436000D03*
X165694500Y-77429500D03*
X170000000Y-70825500D03*
X166405000Y-90950000D03*
X155000000Y-89436000D03*
X159000000Y-80500000D03*
%TO.N,+12V*%
X157000000Y-78000000D03*
X148000000Y-81000000D03*
X148000000Y-75000000D03*
X154000000Y-75000000D03*
X165725000Y-72862500D03*
X148000000Y-78000000D03*
X151000000Y-75000000D03*
X154000000Y-78000000D03*
X158000000Y-75000000D03*
X154000000Y-81000000D03*
X147400000Y-82656000D03*
X148400000Y-82656000D03*
X151000000Y-81000000D03*
X151000000Y-78000000D03*
X157000000Y-81000000D03*
%TO.N,Net-(U2-EN{slash}DIAGA)*%
X155400000Y-82656000D03*
%TO.N,Net-(U2-EN{slash}DIAGB)*%
X151400000Y-82600000D03*
%TO.N,ENC_A{slash}PWM*%
X159382552Y-86000000D03*
%TO.N,Net-(D1-GA)*%
X140000000Y-90500000D03*
%TO.N,IN_A*%
X146500000Y-88837500D03*
X156400000Y-82656000D03*
X157000000Y-88000000D03*
%TO.N,Net-(D2-A)*%
X143500000Y-92250000D03*
%TO.N,LED_R*%
X138000000Y-89500000D03*
X158000000Y-86725000D03*
%TO.N,Net-(D3-A)*%
X146000000Y-92250000D03*
%TO.N,IN_B*%
X144837500Y-88837500D03*
X155875000Y-87350000D03*
X150400000Y-82656000D03*
%TO.N,Net-(D1-RA)*%
X138129800Y-92550000D03*
%TO.N,PWM*%
X153657552Y-86000000D03*
X153400000Y-82656000D03*
%TO.N,/OUTA*%
X155000000Y-66000000D03*
X155000000Y-69000000D03*
X159000000Y-67500000D03*
X155000000Y-67500000D03*
X155000000Y-70500000D03*
X154400000Y-64406000D03*
X159000000Y-66000000D03*
X155000000Y-72000000D03*
X159000000Y-70500000D03*
X157000000Y-67500000D03*
X159000000Y-69000000D03*
X157000000Y-69000000D03*
X157000000Y-72000000D03*
X157000000Y-70500000D03*
X159400000Y-64406000D03*
X159000000Y-72000000D03*
X157000000Y-66000000D03*
%TO.N,Net-(D1-BA)*%
X141000000Y-94000000D03*
%TD*%
D32*
%TO.N,CS*%
X152609618Y-88649999D02*
X153657552Y-88650000D01*
X151500000Y-88459619D02*
X151500000Y-89400000D01*
X151825000Y-88325000D02*
G75*
G03*
X151500047Y-88459619I-134600J-134600D01*
G01*
X151825000Y-88325000D02*
G75*
G03*
X152609618Y-88649992I784600J784600D01*
G01*
%TO.N,GND*%
X161000000Y-89500000D02*
X160285657Y-88785669D01*
X155000027Y-91217162D02*
X155000000Y-90571000D01*
X159958133Y-88650001D02*
X159766275Y-88649996D01*
X165725000Y-74762500D02*
X165468749Y-75018750D01*
X164850105Y-75275000D02*
X162500000Y-75275000D01*
X154317138Y-91899986D02*
X153657552Y-91900000D01*
X155000027Y-91217162D02*
G75*
G02*
X154800019Y-91700002I-682727J-38D01*
G01*
X165468749Y-75018750D02*
G75*
G02*
X164850105Y-75275003I-618649J618650D01*
G01*
X154800013Y-91699996D02*
G75*
G02*
X154317138Y-91900001I-482913J482996D01*
G01*
X159958133Y-88650001D02*
G75*
G02*
X160285644Y-88785682I-33J-463199D01*
G01*
%TO.N,+3V3*%
X164465312Y-77000000D02*
X164522890Y-77000000D01*
X165119296Y-77000000D02*
X165065078Y-77000000D01*
X154767821Y-89300028D02*
X153657552Y-89300000D01*
X164590702Y-77000000D02*
X164556796Y-77000000D01*
X154931991Y-89368015D02*
X155000000Y-89436000D01*
X158000000Y-89436000D02*
X158068010Y-89368025D01*
X165119296Y-77000000D02*
X165146405Y-77000000D01*
X164465312Y-77000000D02*
X164316250Y-77000000D01*
X163626796Y-77000000D02*
X163460702Y-77000000D01*
X158232177Y-89300046D02*
X159382552Y-89300000D01*
X165027812Y-77000000D02*
X164899062Y-77000000D01*
X163460702Y-77000000D02*
X163082812Y-77000000D01*
X164590702Y-77000000D02*
X164899062Y-77000000D01*
X162825312Y-77000000D02*
X162760937Y-77000000D01*
X162954062Y-77000000D02*
X162825312Y-77000000D01*
X163082812Y-77000000D02*
X162954062Y-77000000D01*
X164556796Y-77000000D02*
X164522890Y-77000000D01*
X165065078Y-77000000D02*
X165027812Y-77000000D01*
X163626796Y-77000000D02*
X163709843Y-77000000D01*
X164316250Y-77000000D02*
X164241719Y-77000000D01*
X158232177Y-89300046D02*
G75*
G03*
X158068014Y-89368029I23J-232254D01*
G01*
X154767821Y-89300028D02*
G75*
G02*
X154931973Y-89368033I-21J-232172D01*
G01*
%TO.N,Net-(U2-CS)*%
X152004377Y-84170628D02*
X150205354Y-85969686D01*
X149675017Y-87250008D02*
X149675000Y-88000000D01*
X152400000Y-83215499D02*
X152400000Y-82656000D01*
X150205354Y-85969686D02*
G75*
G03*
X149674969Y-87250008I1280346J-1280414D01*
G01*
X152400000Y-83215499D02*
G75*
G02*
X152004384Y-84170635I-1350800J-1D01*
G01*
%TO.N,SWCLK*%
X159382534Y-92868939D02*
X159382552Y-91900000D01*
X157575486Y-94675962D02*
X154427557Y-94675991D01*
X153008000Y-94087999D02*
X152420000Y-93500000D01*
X159382534Y-92868939D02*
G75*
G02*
X158853244Y-94146688I-1807034J39D01*
G01*
X158853251Y-94146695D02*
G75*
G02*
X157575486Y-94675944I-1277751J1277795D01*
G01*
X153008000Y-94087999D02*
G75*
G03*
X154427557Y-94675975I1419500J1419499D01*
G01*
%TO.N,SWDIO*%
X156441893Y-92018123D02*
X154960000Y-93500000D01*
X158296280Y-91250008D02*
X159382552Y-91250000D01*
X158296280Y-91250008D02*
G75*
G03*
X156441903Y-92018133I20J-2622492D01*
G01*
%TO.N,CANH*%
X166633277Y-88366705D02*
X167440769Y-87559227D01*
X167675000Y-84542020D02*
X167675000Y-85141218D01*
X167675000Y-86993750D02*
X167675000Y-86662500D01*
X167675000Y-84302340D02*
X167675000Y-84542020D01*
X165024032Y-89033295D02*
X164322885Y-89734402D01*
X163681730Y-89999976D02*
X163306154Y-89999986D01*
X167675000Y-85141218D02*
X167675002Y-85414563D01*
X167675000Y-84302340D02*
X167675000Y-84182500D01*
X167675000Y-86993750D02*
G75*
G02*
X167440744Y-87559202I-799700J50D01*
G01*
X165828658Y-88700004D02*
G75*
G03*
X165024034Y-89033297I42J-1137996D01*
G01*
X164322885Y-89734402D02*
G75*
G02*
X163681730Y-89999985I-641185J641202D01*
G01*
X166633277Y-88366705D02*
G75*
G02*
X165828658Y-88700005I-804677J804705D01*
G01*
%TO.N,CANL*%
X166405016Y-86792191D02*
X166405012Y-86609377D01*
X165508753Y-87499977D02*
X162555000Y-87500000D01*
X166311873Y-84279375D02*
X166218749Y-84186250D01*
X166142503Y-87237490D02*
X166275743Y-87104267D01*
X166404998Y-84504198D02*
X166404999Y-85351250D01*
X166311873Y-84279375D02*
G75*
G02*
X166404985Y-84504198I-224873J-224825D01*
G01*
X166405016Y-86792191D02*
G75*
G02*
X166275746Y-87104270I-441316J-9D01*
G01*
X166142503Y-87237490D02*
G75*
G02*
X165508753Y-87500024I-633803J633790D01*
G01*
%TO.N,ENC_B*%
X152757034Y-87837005D02*
X152838543Y-87918505D01*
X152594018Y-87443482D02*
X152594019Y-85375880D01*
X161749993Y-68749998D02*
X162500000Y-68000000D01*
X160548999Y-80687101D02*
X160548959Y-82827525D01*
X153969902Y-84000004D02*
X159376548Y-84000004D01*
X153035311Y-88000004D02*
X153150573Y-88000006D01*
X160999990Y-70560659D02*
X161000020Y-79598286D01*
X160774513Y-80142694D02*
G75*
G03*
X160549007Y-80687101I544387J-544406D01*
G01*
X152594018Y-87443482D02*
G75*
G03*
X152757027Y-87837012I556482J-18D01*
G01*
X161749993Y-68749998D02*
G75*
G03*
X160999948Y-70560659I1810607J-1810702D01*
G01*
X160548959Y-82827525D02*
G75*
G02*
X160205567Y-83656582I-1172559J25D01*
G01*
X152838543Y-87918505D02*
G75*
G03*
X153035311Y-87999990I196757J196805D01*
G01*
X160205570Y-83656585D02*
G75*
G02*
X159376548Y-84000022I-829070J828985D01*
G01*
X153969902Y-84000004D02*
G75*
G03*
X152997004Y-84402986I-2J-1375896D01*
G01*
X161000020Y-79598286D02*
G75*
G02*
X160774525Y-80142706I-769920J-14D01*
G01*
X152997007Y-84402989D02*
G75*
G03*
X152594009Y-85375880I972893J-972911D01*
G01*
%TO.N,LIM_A*%
X156064701Y-86274999D02*
X155460683Y-86879004D01*
X160753998Y-85200000D02*
X158659980Y-85200009D01*
X162554999Y-83398998D02*
X162555000Y-81500000D01*
X154323623Y-87349991D02*
X153657552Y-87350000D01*
X155460683Y-86879004D02*
G75*
G02*
X154323623Y-87349993I-1137083J1137104D01*
G01*
X162027498Y-84672497D02*
G75*
G02*
X160753998Y-85199997I-1273498J1273497D01*
G01*
X158659980Y-85200009D02*
G75*
G03*
X156064713Y-86275011I20J-3670291D01*
G01*
X162554999Y-83398998D02*
G75*
G02*
X162027499Y-84672498I-1800999J-2D01*
G01*
%TO.N,LIM_B*%
X156096382Y-84999992D02*
X156096572Y-84999991D01*
X156100267Y-85000348D02*
X156100449Y-85000158D01*
X160999990Y-81654550D02*
X160999983Y-83611805D01*
X156106666Y-84999996D02*
X156106478Y-85000002D01*
X156100973Y-85000090D02*
X156105719Y-85000008D01*
X156102198Y-84999568D02*
X156109396Y-84997852D01*
X156329688Y-84774487D02*
X156101145Y-85000000D01*
X156100325Y-85000136D02*
X156100400Y-85000104D01*
X156094640Y-85000401D02*
X156094374Y-85000667D01*
X156095624Y-84999994D02*
X156096001Y-84999994D01*
X156101919Y-84999489D02*
X156111550Y-84995690D01*
X156099453Y-85000432D02*
X156099926Y-85000223D01*
X156101372Y-84999706D02*
X156101694Y-84999578D01*
X156108178Y-84999067D02*
X156108318Y-84998929D01*
X156101413Y-84999994D02*
X156101403Y-84999992D01*
X161777497Y-79777499D02*
X162555000Y-79000000D01*
X156101413Y-84999994D02*
X156101531Y-84999996D01*
X156100978Y-84999863D02*
X156100868Y-84999908D01*
X156101229Y-84999762D02*
X156101339Y-84999719D01*
X156099249Y-85000316D02*
X156094177Y-85000953D01*
X156101403Y-84999992D02*
X156101275Y-84999991D01*
X156099379Y-85001248D02*
X154525633Y-86569840D01*
X156101392Y-84999939D02*
X156101273Y-84999905D01*
X156094154Y-85000792D02*
X156098695Y-85000078D01*
X156099453Y-85000432D02*
X156099312Y-85000495D01*
X156094105Y-85000935D02*
X156093970Y-85001069D01*
X154210674Y-86699999D02*
X154026300Y-86700000D01*
X156099251Y-85000328D02*
X156092891Y-85002144D01*
X156099312Y-85000495D02*
X156090740Y-85004308D01*
X156101406Y-84999985D02*
X156101410Y-84999968D01*
X156101365Y-84999765D02*
X156101265Y-84999815D01*
X156100008Y-85000272D02*
X156099703Y-85000404D01*
X156100884Y-84999980D02*
X156101007Y-84999984D01*
X156098687Y-84999987D02*
X156098094Y-84999990D01*
X156101393Y-84999749D02*
X156101480Y-84999690D01*
X156101437Y-84999950D02*
X156101534Y-84999972D01*
X156879305Y-84548975D02*
X160062830Y-84548975D01*
X156100278Y-85000351D02*
X156100383Y-85000229D01*
X156100260Y-85000357D02*
X156100087Y-85000533D01*
X156100979Y-84999864D02*
X156100870Y-84999910D01*
X156099716Y-85000875D02*
X156099953Y-85000586D01*
X156100972Y-85000074D02*
X156102671Y-85000002D01*
X156100272Y-85000361D02*
X156100260Y-85000357D01*
X156100964Y-85000087D02*
X156100965Y-85000084D01*
X156100967Y-85000081D01*
X156100969Y-85000078D01*
X156100971Y-85000075D01*
X156100972Y-85000074D01*
X156099953Y-85000586D02*
G75*
G02*
X156100973Y-85000110I1047J-914D01*
G01*
X154525633Y-86569840D02*
G75*
G02*
X154210674Y-86699966I-314933J316040D01*
G01*
X156099926Y-85000223D02*
G75*
G03*
X156099873Y-84999977I-26J123D01*
G01*
X156100383Y-85000229D02*
G75*
G03*
X156100347Y-85000126I-83J29D01*
G01*
X156100275Y-85000356D02*
X156100267Y-85000348D01*
X156099379Y-85001248D02*
G75*
G03*
X156099720Y-85000878I-3479J3548D01*
G01*
X156094154Y-85000792D02*
G75*
G03*
X156094153Y-85001008I46J-108D01*
G01*
X156099251Y-85000328D02*
X156099249Y-85000316D01*
X156101406Y-84999988D02*
X156101411Y-84999994D01*
X156099735Y-85000892D02*
X156099734Y-85000893D01*
X156099733Y-85000893D01*
X156099732Y-85000894D01*
X156099731Y-85000895D01*
X156099730Y-85000895D01*
X156099729Y-85000895D01*
X156099728Y-85000896D01*
X156099727Y-85000896D01*
X156099726Y-85000896D01*
X156099725Y-85000896D01*
X156099724Y-85000896D01*
X156099723Y-85000895D01*
X156099722Y-85000895D01*
X156099721Y-85000895D01*
X156099720Y-85000894D01*
X156099719Y-85000893D01*
X156099718Y-85000893D01*
X156099717Y-85000892D01*
X156099716Y-85000891D01*
X156099716Y-85000890D01*
X156099715Y-85000889D01*
X156099714Y-85000888D01*
X156099714Y-85000887D01*
X156099714Y-85000886D01*
X156099713Y-85000885D01*
X156099713Y-85000884D01*
X156099713Y-85000883D01*
X156099713Y-85000882D01*
X156099713Y-85000881D01*
X156099714Y-85000880D01*
X156099714Y-85000879D01*
X156099714Y-85000878D01*
X156099715Y-85000877D01*
X156099716Y-85000876D01*
X156099716Y-85000875D01*
X156101524Y-84999980D02*
X156101526Y-84999982D01*
X156101527Y-84999985D01*
X156101528Y-84999987D01*
X156101529Y-84999990D01*
X156101530Y-84999992D01*
X156101531Y-84999995D01*
X156101531Y-84999996D01*
X156107368Y-84999853D02*
G75*
G02*
X156107045Y-85000008I-368J353D01*
G01*
X156099401Y-85000324D02*
G75*
G03*
X156099248Y-85000311I-101J-276D01*
G01*
X156094911Y-85000123D02*
G75*
G02*
X156094640Y-85000401I-12911J12323D01*
G01*
X156098687Y-84999987D02*
X156099874Y-84999981D01*
X156099735Y-85000892D02*
X156099379Y-85001248D01*
X156100870Y-84999910D02*
X156100868Y-84999908D01*
X156099401Y-85000324D02*
G75*
G02*
X156099476Y-85000405I-1J-76D01*
G01*
X156100008Y-85000272D02*
G75*
G02*
X156100325Y-85000136I29892J-69228D01*
G01*
X156101355Y-84999727D02*
X156101353Y-84999730D01*
X156099249Y-85000316D02*
G75*
G02*
X156099400Y-85000326I51J-384D01*
G01*
X156100400Y-85000104D02*
G75*
G02*
X156100870Y-84999909I5800J-13296D01*
G01*
X156101406Y-84999985D02*
X156101406Y-84999991D01*
X156100087Y-85000533D02*
G75*
G03*
X156099735Y-85000892I64313J-63367D01*
G01*
X156107911Y-84999331D02*
G75*
G02*
X156107640Y-84999591I-35411J36631D01*
G01*
X156099874Y-84999981D02*
G75*
G03*
X156098695Y-85000076I26J-7719D01*
G01*
X156101007Y-84999984D02*
G75*
G03*
X156101275Y-84999991I593J17984D01*
G01*
X156095237Y-84999988D02*
G75*
G03*
X156094901Y-85000114I-37J-412D01*
G01*
X156098695Y-85000078D02*
G75*
G03*
X156098645Y-84999945I5J78D01*
G01*
X156101919Y-84999489D02*
G75*
G03*
X156101694Y-84999579I4081J-10511D01*
G01*
X156101229Y-84999762D02*
G75*
G03*
X156100979Y-84999864I3571J-9138D01*
G01*
X156101403Y-84999992D02*
X156101406Y-84999985D01*
X156101044Y-84999840D02*
X156102198Y-84999568D01*
X156101411Y-84999994D02*
X156101406Y-84999993D01*
X156101339Y-84999719D02*
X156101355Y-84999714D01*
X156101371Y-84999711D01*
X156101373Y-84999711D01*
X156099874Y-84999981D02*
G75*
G03*
X156101044Y-84999841I-74J5581D01*
G01*
X156879305Y-84548975D02*
G75*
G03*
X156329684Y-84774483I-5J-782525D01*
G01*
X160725498Y-84274482D02*
G75*
G02*
X160062830Y-84548985I-662698J662682D01*
G01*
X156099430Y-85000402D02*
X156099430Y-85000405D01*
X156099429Y-85000407D01*
X156099428Y-85000410D01*
X156099428Y-85000412D01*
X156099426Y-85000414D01*
X156099426Y-85000416D01*
X156101694Y-84999578D02*
G75*
G02*
X156101919Y-84999488I4306J-10422D01*
G01*
X156101376Y-84999715D02*
X156101375Y-84999713D01*
X156101374Y-84999711D01*
X156101373Y-84999709D01*
X156101372Y-84999706D01*
X156101372Y-84999706D01*
X156100325Y-85000136D02*
X156100323Y-85000137D01*
X156101406Y-84999991D02*
X156101406Y-84999988D01*
X161777497Y-79777499D02*
G75*
G03*
X160999948Y-81654550I1877003J-1877101D01*
G01*
X160999983Y-83611805D02*
G75*
G02*
X160725496Y-84274480I-937183J5D01*
G01*
X156101406Y-84999991D02*
X156101413Y-84999994D01*
X156094374Y-85000667D02*
G75*
G03*
X156094105Y-85000935I35926J-36333D01*
G01*
X156108178Y-84999067D02*
G75*
G03*
X156107911Y-84999331I35122J-35733D01*
G01*
X156101365Y-84999765D02*
X156101365Y-84999753D01*
X156100978Y-84999863D02*
G75*
G02*
X156101229Y-84999762I5422J-13037D01*
G01*
X156101045Y-84999845D02*
X156101044Y-84999840D01*
X156101419Y-84999941D02*
X156101424Y-84999942D01*
X156101429Y-84999945D01*
X156101433Y-84999947D01*
X156101437Y-84999950D01*
X156107043Y-84999987D02*
G75*
G03*
X156106666Y-84999995I57J-11713D01*
G01*
X156096001Y-84999994D02*
X156096382Y-84999992D01*
X156101393Y-84999749D02*
X156101365Y-84999765D01*
X156100267Y-85000348D02*
X156100272Y-85000361D01*
X156101045Y-84999845D02*
X156101044Y-84999840D01*
X156101391Y-84999763D02*
X156101386Y-84999762D01*
X156101380Y-84999760D01*
X156101375Y-84999758D01*
X156101370Y-84999756D01*
X156101365Y-84999753D01*
X156101365Y-84999753D01*
X156101396Y-84999967D02*
X156101399Y-84999967D01*
X156101401Y-84999967D01*
X156101404Y-84999967D01*
X156101407Y-84999967D01*
X156101410Y-84999968D01*
X156099312Y-85000495D02*
G75*
G03*
X156099437Y-85000408I-112J295D01*
G01*
X156100260Y-85000357D02*
X156100264Y-85000354D01*
X156100268Y-85000351D01*
X156100271Y-85000349D01*
X156101694Y-84999578D02*
G75*
G03*
X156101481Y-84999691I406J-1022D01*
G01*
X156100278Y-85000351D02*
X156100272Y-85000361D01*
X156100973Y-85000090D02*
G75*
G03*
X156099966Y-85000596I27J-1310D01*
G01*
X156101406Y-84999993D02*
X156101406Y-84999991D01*
X156102198Y-84999568D02*
G75*
G03*
X156101045Y-84999845I67502J-283532D01*
G01*
X156100979Y-84999864D02*
X156100978Y-84999863D01*
X156095237Y-84999988D02*
G75*
G03*
X156095624Y-84999994I463J18588D01*
G01*
X156101369Y-84999747D02*
X156101365Y-84999744D01*
X156101362Y-84999740D01*
X156101358Y-84999737D01*
X156101355Y-84999733D01*
X156101353Y-84999730D01*
X156107640Y-84999591D02*
G75*
G03*
X156107369Y-84999854I17060J-17909D01*
G01*
X156100331Y-85000151D02*
G75*
G03*
X156100006Y-85000268I1169J-3749D01*
G01*
X156100868Y-84999908D02*
G75*
G03*
X156100400Y-85000104I13232J-32292D01*
G01*
X156101044Y-84999840D02*
G75*
G03*
X156099929Y-85000230I1356J-5660D01*
G01*
X156101437Y-84999948D02*
X156101399Y-84999941D01*
X156101392Y-84999939D01*
X156101265Y-84999815D02*
G75*
G03*
X156101210Y-84999917I35J-85D01*
G01*
X156100884Y-84999980D02*
G75*
G03*
X156100485Y-85000186I16J-520D01*
G01*
%TO.N,IN_A*%
X146500000Y-88837500D02*
X146250000Y-89087500D01*
X157000000Y-88000000D02*
X159382552Y-88000000D01*
X146000000Y-89691053D02*
X146000000Y-90175000D01*
X146250000Y-89087500D02*
G75*
G03*
X145999981Y-89691053I603600J-603600D01*
G01*
%TO.N,LED_R*%
X138000000Y-89500000D02*
X138000000Y-90675000D01*
X158033849Y-86700039D02*
X159382552Y-86700000D01*
X158006253Y-86718757D02*
X158000000Y-86725000D01*
X158018761Y-86706278D02*
X158006253Y-86718757D01*
X158033849Y-86700039D02*
G75*
G03*
X158018737Y-86706254I-49J-21361D01*
G01*
%TO.N,IN_B*%
X144837500Y-88837500D02*
X143500000Y-90175000D01*
X155875000Y-87350000D02*
X159382552Y-87350000D01*
%TO.N,CAN_TX*%
X159920639Y-90599995D02*
X159741277Y-90599998D01*
X162918444Y-92251029D02*
X168388474Y-92251021D01*
X168863519Y-92006509D02*
X168782014Y-92088013D01*
X160925500Y-91425512D02*
X160226828Y-90726823D01*
X168945019Y-91809742D02*
X168945015Y-91694478D01*
X168945019Y-91809742D02*
G75*
G02*
X168863536Y-92006526I-278219J-58D01*
G01*
X160226828Y-90726823D02*
G75*
G03*
X159920639Y-90599964I-306228J-306177D01*
G01*
X160925500Y-91425512D02*
G75*
G03*
X162918444Y-92250995I1992900J1992912D01*
G01*
X168782014Y-92088013D02*
G75*
G02*
X168388474Y-92251012I-393514J393513D01*
G01*
%TO.N,CAN_RX*%
X160250438Y-90080335D02*
X160895076Y-90724966D01*
X159935684Y-89949973D02*
X159751306Y-89949985D01*
X164859999Y-91225000D02*
X165135000Y-90950000D01*
X164196088Y-91499996D02*
X162766117Y-91499982D01*
X164196088Y-91499996D02*
G75*
G03*
X164859999Y-91225000I12J938896D01*
G01*
X160895076Y-90724966D02*
G75*
G03*
X162766117Y-91499957I1871024J1871066D01*
G01*
X160250438Y-90080335D02*
G75*
G03*
X159935684Y-89949974I-314738J-314765D01*
G01*
%TO.N,LED_G*%
X145662498Y-87999999D02*
X146292888Y-87999999D01*
X147499997Y-88499998D02*
X147646448Y-88646449D01*
X143379247Y-88945753D02*
X141825000Y-90500000D01*
X148000011Y-89575729D02*
X148000010Y-89499993D01*
X149024260Y-90599994D02*
X153657552Y-90600000D01*
X148300012Y-90299991D02*
G75*
G03*
X149024260Y-90600029I724288J724191D01*
G01*
X145662498Y-87999999D02*
G75*
G03*
X143379248Y-88945754I2J-3229001D01*
G01*
X147499997Y-88499998D02*
G75*
G03*
X146292888Y-88000004I-1207097J-1207102D01*
G01*
X147646448Y-88646449D02*
G75*
G02*
X148000001Y-89499993I-853548J-853551D01*
G01*
X148000011Y-89575729D02*
G75*
G03*
X148300020Y-90299983I1024289J29D01*
G01*
%TO.N,Net-(U4-BST)*%
X168000000Y-74762500D02*
X169846500Y-74762500D01*
%TO.N,Net-(U4-SW)*%
X168615501Y-77429524D02*
X168653947Y-77429525D01*
X167366503Y-76776502D02*
X167598057Y-77008064D01*
X169605755Y-77035268D02*
X170000000Y-76641000D01*
X166468998Y-73893997D02*
X166550499Y-73975498D01*
X166713507Y-75200009D02*
X166713502Y-74369019D01*
X166272237Y-73812497D02*
X166156977Y-73812498D01*
X167598057Y-77008064D02*
G75*
G03*
X168615501Y-77429497I1017443J1017464D01*
G01*
X166713507Y-75200009D02*
G75*
G03*
X167366492Y-76776513I2229593J9D01*
G01*
X166468998Y-73893997D02*
G75*
G03*
X166272237Y-73812482I-196798J-196803D01*
G01*
X166550499Y-73975498D02*
G75*
G02*
X166713494Y-74369019I-393499J-393502D01*
G01*
X168653947Y-77429525D02*
G75*
G03*
X169605777Y-77035290I53J1346025D01*
G01*
%TO.N,Net-(U4-FB)*%
X168891500Y-72862500D02*
X169788000Y-72862500D01*
X168000000Y-71971000D02*
X168000000Y-71079500D01*
X168000000Y-71971000D02*
G75*
G03*
X168891500Y-72862500I891500J0D01*
G01*
%TO.N,LED_B*%
X142408362Y-92999996D02*
X146790549Y-92999985D01*
X151015428Y-91249980D02*
X153657552Y-91250000D01*
X141412500Y-92587499D02*
X141000000Y-92175000D01*
X151015428Y-91249980D02*
G75*
G03*
X148902982Y-92124969I-28J-2987420D01*
G01*
X148902989Y-92124976D02*
G75*
G02*
X146790549Y-93000001I-2112489J2112476D01*
G01*
X141412500Y-92587499D02*
G75*
G03*
X142408362Y-93000015I995900J995899D01*
G01*
%TD*%
%TA.AperFunction,Conductor*%
%TO.N,IN_B*%
G36*
X155945929Y-87059681D02*
G01*
X156461060Y-87222417D01*
X156467917Y-87228177D01*
X156469236Y-87233574D01*
X156469236Y-87466425D01*
X156465809Y-87474698D01*
X156461060Y-87477582D01*
X155945937Y-87640315D01*
X155937016Y-87639539D01*
X155931256Y-87632682D01*
X155930949Y-87631494D01*
X155874469Y-87352318D01*
X155874469Y-87347680D01*
X155897554Y-87233574D01*
X155930946Y-87068518D01*
X155935945Y-87061092D01*
X155944733Y-87059373D01*
X155945929Y-87059681D01*
G37*
%TD.AperFunction*%
%TD*%
%TA.AperFunction,Conductor*%
%TO.N,Net-(U4-BST)*%
G36*
X168574868Y-74475986D02*
G01*
X168575733Y-74476347D01*
X168955300Y-74634500D01*
X168961619Y-74640845D01*
X168962500Y-74645300D01*
X168962500Y-74879699D01*
X168959073Y-74887972D01*
X168955300Y-74890499D01*
X168574874Y-75049010D01*
X168565919Y-75049029D01*
X168565096Y-75048652D01*
X168019657Y-74772942D01*
X168013819Y-74766151D01*
X168014493Y-74757222D01*
X168019657Y-74752058D01*
X168565097Y-74476346D01*
X168574025Y-74475673D01*
X168574868Y-74475986D01*
G37*
%TD.AperFunction*%
%TD*%
%TA.AperFunction,Conductor*%
%TO.N,LIM_B*%
G36*
X162548900Y-78998042D02*
G01*
X162556491Y-79002788D01*
X162557909Y-79005445D01*
X162866467Y-79822128D01*
X162866185Y-79831078D01*
X162859657Y-79837208D01*
X162859075Y-79837411D01*
X161553903Y-80253350D01*
X161544980Y-80252597D01*
X161544125Y-80252109D01*
X161343752Y-80126199D01*
X161338570Y-80118895D01*
X161338466Y-80114198D01*
X161391600Y-79822128D01*
X161569268Y-78845523D01*
X161574119Y-78837999D01*
X161582710Y-78836080D01*
X162548900Y-78998042D01*
G37*
%TD.AperFunction*%
%TD*%
%TA.AperFunction,Conductor*%
%TO.N,LED_R*%
G36*
X138126257Y-89715927D02*
G01*
X138128305Y-89718689D01*
X138452189Y-90325252D01*
X138453063Y-90334164D01*
X138448877Y-90340131D01*
X138007009Y-90670755D01*
X137998332Y-90672968D01*
X137992991Y-90670755D01*
X137551122Y-90340131D01*
X137546550Y-90332431D01*
X137547810Y-90325252D01*
X137871695Y-89718689D01*
X137878615Y-89713005D01*
X137882016Y-89712500D01*
X138117984Y-89712500D01*
X138126257Y-89715927D01*
G37*
%TD.AperFunction*%
%TD*%
%TA.AperFunction,Conductor*%
%TO.N,CANL*%
G36*
X166117452Y-85975596D02*
G01*
X166396207Y-85998512D01*
X166404169Y-86002604D01*
X166406860Y-86008757D01*
X166524009Y-86970033D01*
X166521608Y-86978660D01*
X166521441Y-86978868D01*
X166271836Y-87283143D01*
X166263939Y-87287366D01*
X166255370Y-87284769D01*
X166254516Y-87283996D01*
X166156243Y-87185711D01*
X166090383Y-87119843D01*
X166086958Y-87111570D01*
X166086958Y-87111445D01*
X166104801Y-85987070D01*
X166108359Y-85978855D01*
X166116686Y-85975559D01*
X166117452Y-85975596D01*
G37*
%TD.AperFunction*%
%TD*%
%TA.AperFunction,Conductor*%
%TO.N,SWCLK*%
G36*
X153131556Y-93038622D02*
G01*
X153132458Y-93040241D01*
X153344865Y-93504387D01*
X153766903Y-94426616D01*
X153767229Y-94435565D01*
X153767073Y-94435962D01*
X153677150Y-94653064D01*
X153670819Y-94659396D01*
X153663702Y-94659986D01*
X152265209Y-94336221D01*
X152257922Y-94331016D01*
X152256370Y-94322553D01*
X152418134Y-93504384D01*
X152423099Y-93496936D01*
X153115331Y-93035377D01*
X153124115Y-93033640D01*
X153131556Y-93038622D01*
G37*
%TD.AperFunction*%
%TD*%
%TA.AperFunction,Conductor*%
%TO.N,+3V3*%
G36*
X158551229Y-89174311D02*
G01*
X158559258Y-89178276D01*
X158562158Y-89185985D01*
X158562168Y-89418726D01*
X158558742Y-89427000D01*
X158556902Y-89428499D01*
X158176349Y-89679068D01*
X158167555Y-89680755D01*
X158160206Y-89675824D01*
X158001727Y-89440056D01*
X157999957Y-89431279D01*
X157999970Y-89431210D01*
X158056498Y-89151790D01*
X158061497Y-89144364D01*
X158068734Y-89142438D01*
X158551229Y-89174311D01*
G37*
%TD.AperFunction*%
%TD*%
%TA.AperFunction,Conductor*%
%TO.N,+12V*%
G36*
X152682740Y-63517998D02*
G01*
X152706959Y-63522815D01*
X152786318Y-63546888D01*
X152845697Y-63585802D01*
X152874613Y-63650643D01*
X152873320Y-63692041D01*
X152869501Y-63711241D01*
X152869500Y-63711251D01*
X152869500Y-63711252D01*
X152869500Y-65100748D01*
X152881133Y-65159231D01*
X152925448Y-65225552D01*
X152991769Y-65269867D01*
X153050252Y-65281500D01*
X153050253Y-65281500D01*
X153374000Y-65281500D01*
X153442121Y-65301502D01*
X153488614Y-65355158D01*
X153500000Y-65407500D01*
X153500000Y-67538220D01*
X153479998Y-67606341D01*
X153426342Y-67652834D01*
X153398583Y-67661799D01*
X153371771Y-67667132D01*
X153371768Y-67667133D01*
X153305448Y-67711448D01*
X153261133Y-67777768D01*
X153261132Y-67777771D01*
X153249500Y-67836249D01*
X153249500Y-73125750D01*
X153261132Y-73184228D01*
X153261133Y-73184231D01*
X153305448Y-73250552D01*
X153371769Y-73294867D01*
X153398580Y-73300200D01*
X153461490Y-73333107D01*
X153484113Y-73362533D01*
X153500000Y-73391096D01*
X153500000Y-73500000D01*
X151500000Y-73500000D01*
X151500000Y-73280619D01*
X151520002Y-73212498D01*
X151521160Y-73210730D01*
X151538867Y-73184231D01*
X151550500Y-73125748D01*
X151550500Y-67836252D01*
X151538867Y-67777769D01*
X151538866Y-67777767D01*
X151521235Y-67751380D01*
X151500020Y-67683627D01*
X151500000Y-67681378D01*
X151500000Y-65407500D01*
X151520002Y-65339379D01*
X151573658Y-65292886D01*
X151626000Y-65281500D01*
X151749747Y-65281500D01*
X151749748Y-65281500D01*
X151808231Y-65269867D01*
X151874552Y-65225552D01*
X151918867Y-65159231D01*
X151930500Y-65100748D01*
X151930500Y-63751497D01*
X151934512Y-63737832D01*
X151933623Y-63723617D01*
X151944316Y-63704442D01*
X151950502Y-63683376D01*
X151961962Y-63672800D01*
X151968203Y-63661611D01*
X151997099Y-63640377D01*
X152106384Y-63581963D01*
X152129181Y-63572521D01*
X152293042Y-63522814D01*
X152317257Y-63517998D01*
X152487654Y-63501216D01*
X152512346Y-63501216D01*
X152682740Y-63517998D01*
G37*
%TD.AperFunction*%
%TD*%
%TA.AperFunction,Conductor*%
%TO.N,Net-(U4-FB)*%
G36*
X168188755Y-72270221D02*
G01*
X168335307Y-72554420D01*
X168336053Y-72563343D01*
X168332674Y-72568533D01*
X168009160Y-72855632D01*
X168000697Y-72858560D01*
X167992643Y-72854647D01*
X167992619Y-72854620D01*
X167876594Y-72723061D01*
X167742462Y-72570970D01*
X167739561Y-72562500D01*
X167743194Y-72554737D01*
X167951289Y-72357808D01*
X167954848Y-72355501D01*
X168173881Y-72264774D01*
X168182833Y-72264774D01*
X168188755Y-72270221D01*
G37*
%TD.AperFunction*%
%TD*%
%TA.AperFunction,Conductor*%
%TO.N,+3V3*%
G36*
X154528616Y-89157912D02*
G01*
X154586272Y-89172762D01*
X154593429Y-89178144D01*
X154595054Y-89184092D01*
X154595048Y-89415952D01*
X154591621Y-89424225D01*
X154586264Y-89427283D01*
X154336387Y-89491598D01*
X154330272Y-89491521D01*
X153696141Y-89311254D01*
X153689120Y-89305696D01*
X153688086Y-89296801D01*
X153693644Y-89289780D01*
X153696141Y-89288746D01*
X154330273Y-89108477D01*
X154336387Y-89108402D01*
X154528616Y-89157912D01*
G37*
%TD.AperFunction*%
%TD*%
%TA.AperFunction,Conductor*%
%TO.N,LIM_A*%
G36*
X154565568Y-87200049D02*
G01*
X154573079Y-87204924D01*
X154574995Y-87209724D01*
X154611235Y-87438522D01*
X154609145Y-87447229D01*
X154603201Y-87451509D01*
X154352638Y-87530614D01*
X154346151Y-87530775D01*
X153903686Y-87414883D01*
X153695926Y-87360465D01*
X153688793Y-87355055D01*
X153687574Y-87346183D01*
X153692985Y-87339049D01*
X153695389Y-87337985D01*
X154292280Y-87150868D01*
X154297906Y-87150528D01*
X154565568Y-87200049D01*
G37*
%TD.AperFunction*%
%TD*%
%TA.AperFunction,Conductor*%
%TO.N,Net-(U2-CS)*%
G36*
X149795797Y-87126439D02*
G01*
X149803432Y-87131118D01*
X149803862Y-87131753D01*
X150138476Y-87662189D01*
X150139991Y-87671014D01*
X150135299Y-87678010D01*
X149681564Y-87996272D01*
X149672823Y-87998217D01*
X149668123Y-87996269D01*
X149214475Y-87677857D01*
X149209672Y-87670300D01*
X149211152Y-87662282D01*
X149550056Y-87094942D01*
X149557239Y-87089598D01*
X149561928Y-87089387D01*
X149795797Y-87126439D01*
G37*
%TD.AperFunction*%
%TD*%
%TA.AperFunction,Conductor*%
%TO.N,IN_A*%
G36*
X146260380Y-88677543D02*
G01*
X146262106Y-88678489D01*
X146498585Y-88835362D01*
X146501864Y-88838641D01*
X146659344Y-89075903D01*
X146661064Y-89084691D01*
X146656066Y-89092121D01*
X146654811Y-89092846D01*
X146247776Y-89295518D01*
X146238843Y-89296138D01*
X146236061Y-89294773D01*
X146042025Y-89165117D01*
X146037050Y-89157671D01*
X146037829Y-89150647D01*
X146244942Y-88683496D01*
X146251428Y-88677323D01*
X146260380Y-88677543D01*
G37*
%TD.AperFunction*%
%TD*%
%TA.AperFunction,Conductor*%
%TO.N,Net-(U4-FB)*%
G36*
X169585255Y-72265565D02*
G01*
X169777850Y-72443887D01*
X169993503Y-72643559D01*
X169997245Y-72651693D01*
X169995131Y-72658863D01*
X169676058Y-73113585D01*
X169668501Y-73118389D01*
X169664043Y-73118308D01*
X169059262Y-72989473D01*
X169051885Y-72984398D01*
X169050000Y-72978030D01*
X169050000Y-72742676D01*
X169053427Y-72734403D01*
X169053811Y-72734036D01*
X169569439Y-72265490D01*
X169577865Y-72262463D01*
X169585255Y-72265565D01*
G37*
%TD.AperFunction*%
%TD*%
%TA.AperFunction,Conductor*%
%TO.N,SWDIO*%
G36*
X156064147Y-92224015D02*
G01*
X156067355Y-92226289D01*
X156233721Y-92392658D01*
X156237148Y-92400931D01*
X156236487Y-92404808D01*
X155797027Y-93656257D01*
X155791053Y-93662927D01*
X155783717Y-93663857D01*
X154966978Y-93502227D01*
X154959527Y-93497260D01*
X154957772Y-93493021D01*
X154951507Y-93461368D01*
X154796141Y-92676279D01*
X154797896Y-92667501D01*
X154803739Y-92662973D01*
X156055207Y-92223523D01*
X156064147Y-92224015D01*
G37*
%TD.AperFunction*%
%TD*%
%TA.AperFunction,Conductor*%
%TO.N,Net-(U4-SW)*%
G36*
X169535217Y-76422972D02*
G01*
X169995386Y-76637975D01*
X170001430Y-76644582D01*
X170001953Y-76646529D01*
X170094611Y-77168249D01*
X170092683Y-77176994D01*
X170086462Y-77181499D01*
X169238343Y-77436701D01*
X169229434Y-77435803D01*
X169224548Y-77430810D01*
X169118205Y-77222091D01*
X169117504Y-77213166D01*
X169118215Y-77211454D01*
X169519854Y-76428231D01*
X169526677Y-76422435D01*
X169535217Y-76422972D01*
G37*
%TD.AperFunction*%
%TD*%
%TA.AperFunction,Conductor*%
%TO.N,LIM_A*%
G36*
X162563167Y-81506967D02*
G01*
X163397263Y-82320530D01*
X163400793Y-82328760D01*
X163398090Y-82336386D01*
X162683507Y-83195779D01*
X162675583Y-83199950D01*
X162674511Y-83199999D01*
X162435487Y-83199999D01*
X162427214Y-83196572D01*
X162426491Y-83195779D01*
X161711909Y-82336386D01*
X161709254Y-82327834D01*
X161712734Y-82320532D01*
X162546832Y-81506967D01*
X162555146Y-81503645D01*
X162563167Y-81506967D01*
G37*
%TD.AperFunction*%
%TD*%
%TA.AperFunction,Conductor*%
%TO.N,CS*%
G36*
X151992694Y-87778931D02*
G01*
X152361739Y-88489493D01*
X152362831Y-88497168D01*
X152317307Y-88726045D01*
X152312332Y-88733491D01*
X152303550Y-88735238D01*
X152302770Y-88735055D01*
X151355714Y-88478222D01*
X151348626Y-88472749D01*
X151347484Y-88463868D01*
X151347647Y-88463318D01*
X151497455Y-88004595D01*
X151503280Y-87997796D01*
X151503537Y-87997669D01*
X151977312Y-87773745D01*
X151986256Y-87773309D01*
X151992694Y-87778931D01*
G37*
%TD.AperFunction*%
%TD*%
%TA.AperFunction,Conductor*%
%TO.N,CS*%
G36*
X152984830Y-88458478D02*
G01*
X153618963Y-88638746D01*
X153625984Y-88644304D01*
X153627018Y-88653199D01*
X153621460Y-88660220D01*
X153618963Y-88661254D01*
X152984831Y-88841521D01*
X152978715Y-88841597D01*
X152728835Y-88777260D01*
X152721677Y-88771879D01*
X152720052Y-88765930D01*
X152720052Y-88534067D01*
X152723479Y-88525794D01*
X152728832Y-88522738D01*
X152978715Y-88458402D01*
X152984830Y-88458478D01*
G37*
%TD.AperFunction*%
%TD*%
%TA.AperFunction,Conductor*%
%TO.N,SWCLK*%
G36*
X159390802Y-91907293D02*
G01*
X159485253Y-92002217D01*
X159577248Y-92094674D01*
X159580654Y-92102955D01*
X159579909Y-92107034D01*
X159510391Y-92292409D01*
X159504277Y-92298952D01*
X159499436Y-92300001D01*
X159265653Y-92299997D01*
X159257380Y-92296570D01*
X159254698Y-92292405D01*
X159185186Y-92107035D01*
X159185490Y-92098085D01*
X159187845Y-92094676D01*
X159374260Y-91907334D01*
X159382523Y-91903888D01*
X159390802Y-91907293D01*
G37*
%TD.AperFunction*%
%TD*%
%TA.AperFunction,Conductor*%
%TO.N,ENC_B*%
G36*
X162493701Y-67997964D02*
G01*
X162501273Y-68002744D01*
X162502767Y-68005651D01*
X162786924Y-68822448D01*
X162786406Y-68831387D01*
X162779718Y-68837342D01*
X162779550Y-68837399D01*
X161506781Y-69258663D01*
X161497850Y-69258010D01*
X161497255Y-69257688D01*
X161292542Y-69139491D01*
X161287091Y-69132387D01*
X161286912Y-69127100D01*
X161343930Y-68837342D01*
X161539127Y-67845379D01*
X161544087Y-67837925D01*
X161552590Y-67836109D01*
X162493701Y-67997964D01*
G37*
%TD.AperFunction*%
%TD*%
%TA.AperFunction,Conductor*%
%TO.N,LED_B*%
G36*
X152984830Y-91058477D02*
G01*
X153221612Y-91125789D01*
X153618962Y-91238746D01*
X153625983Y-91244304D01*
X153627017Y-91253199D01*
X153621459Y-91260220D01*
X153618962Y-91261254D01*
X152984831Y-91441521D01*
X152978714Y-91441597D01*
X152728834Y-91377253D01*
X152721677Y-91371872D01*
X152720052Y-91365923D01*
X152720052Y-91250000D01*
X152720052Y-91134059D01*
X152723479Y-91125789D01*
X152728831Y-91122733D01*
X152978719Y-91058401D01*
X152984830Y-91058477D01*
G37*
%TD.AperFunction*%
%TD*%
%TA.AperFunction,Conductor*%
%TO.N,Net-(U4-SW)*%
G36*
X168013472Y-76327237D02*
G01*
X168020632Y-76332614D01*
X168022260Y-76338593D01*
X168019899Y-77422258D01*
X168016454Y-77430524D01*
X168012212Y-77433223D01*
X167318297Y-77686617D01*
X167309351Y-77686236D01*
X167303294Y-77679640D01*
X167303199Y-77679371D01*
X166802268Y-76180534D01*
X166802896Y-76171602D01*
X166808888Y-76166017D01*
X167026174Y-76076015D01*
X167033561Y-76075493D01*
X168013472Y-76327237D01*
G37*
%TD.AperFunction*%
%TD*%
%TA.AperFunction,Conductor*%
%TO.N,IN_A*%
G36*
X146039112Y-89171878D02*
G01*
X146234729Y-89302588D01*
X146239039Y-89307840D01*
X146453440Y-89825706D01*
X146453439Y-89834661D01*
X146449632Y-89839556D01*
X146007697Y-90169666D01*
X145999018Y-90171871D01*
X145992285Y-90168425D01*
X145660930Y-89825706D01*
X145601433Y-89764168D01*
X145598146Y-89755838D01*
X145600420Y-89749102D01*
X146023191Y-89174669D01*
X146030853Y-89170039D01*
X146039112Y-89171878D01*
G37*
%TD.AperFunction*%
%TD*%
%TA.AperFunction,Conductor*%
%TO.N,IN_B*%
G36*
X144159672Y-89343280D02*
G01*
X144163450Y-89345809D01*
X144329146Y-89511505D01*
X144332573Y-89519778D01*
X144331657Y-89524317D01*
X143979504Y-90361048D01*
X143973136Y-90367344D01*
X143964262Y-90367326D01*
X143503996Y-90177645D01*
X143497653Y-90171325D01*
X143497515Y-90170977D01*
X143319738Y-89698110D01*
X143320035Y-89689162D01*
X143326229Y-89683178D01*
X144150718Y-89343265D01*
X144159672Y-89343280D01*
G37*
%TD.AperFunction*%
%TD*%
%TA.AperFunction,Conductor*%
%TO.N,Net-(U2-CS)*%
G36*
X150339366Y-85670023D02*
G01*
X150505058Y-85835712D01*
X150508485Y-85843985D01*
X150507599Y-85848450D01*
X150166824Y-86673783D01*
X150160500Y-86680122D01*
X150151893Y-86680270D01*
X149679053Y-86502496D01*
X149672516Y-86496377D01*
X149672354Y-86496003D01*
X149482677Y-86035730D01*
X149482693Y-86026777D01*
X149488948Y-86020493D01*
X150326549Y-85667513D01*
X150335504Y-85667459D01*
X150339366Y-85670023D01*
G37*
%TD.AperFunction*%
%TD*%
%TA.AperFunction,Conductor*%
%TO.N,Net-(U2-CS)*%
G36*
X152404571Y-82672975D02*
G01*
X152410242Y-82679005D01*
X152678227Y-83325278D01*
X152678230Y-83334233D01*
X152677202Y-83336178D01*
X152449392Y-83683436D01*
X152441988Y-83688473D01*
X152435994Y-83688145D01*
X152211472Y-83615195D01*
X152204662Y-83609380D01*
X152204585Y-83609224D01*
X152072476Y-83336120D01*
X152071959Y-83327181D01*
X152072493Y-83325896D01*
X152388923Y-82678348D01*
X152395633Y-82672422D01*
X152404571Y-82672975D01*
G37*
%TD.AperFunction*%
%TD*%
%TA.AperFunction,Conductor*%
%TO.N,GND*%
G36*
X160675801Y-88995380D02*
G01*
X161155124Y-89244556D01*
X161160882Y-89251411D01*
X161160107Y-89260333D01*
X161159475Y-89261404D01*
X161002015Y-89498734D01*
X160998734Y-89502015D01*
X160761404Y-89659475D01*
X160752616Y-89661194D01*
X160745187Y-89656194D01*
X160744559Y-89655130D01*
X160495374Y-89175810D01*
X160494599Y-89166891D01*
X160497481Y-89162144D01*
X160662134Y-88997488D01*
X160670406Y-88994062D01*
X160675801Y-88995380D01*
G37*
%TD.AperFunction*%
%TD*%
%TA.AperFunction,Conductor*%
%TO.N,CANH*%
G36*
X167864448Y-84006154D02*
G01*
X168253905Y-84407158D01*
X168257211Y-84415480D01*
X168254374Y-84422949D01*
X167803500Y-84945940D01*
X167795502Y-84949968D01*
X167794638Y-84950000D01*
X167559042Y-84950000D01*
X167550769Y-84946573D01*
X167547720Y-84941249D01*
X167410598Y-84414840D01*
X167390126Y-84336245D01*
X167391357Y-84327377D01*
X167394726Y-84323722D01*
X167849337Y-84004727D01*
X167858075Y-84002781D01*
X167864448Y-84006154D01*
G37*
%TD.AperFunction*%
%TD*%
%TA.AperFunction,Conductor*%
%TO.N,LED_B*%
G36*
X141479953Y-91967469D02*
G01*
X141848346Y-92740487D01*
X141848812Y-92749429D01*
X141848209Y-92750832D01*
X141741927Y-92959414D01*
X141735117Y-92965229D01*
X141727733Y-92965178D01*
X140849233Y-92666233D01*
X140842505Y-92660324D01*
X140841890Y-92651496D01*
X140997509Y-92179398D01*
X141003353Y-92172616D01*
X141003719Y-92172439D01*
X141464529Y-91961859D01*
X141473477Y-91961539D01*
X141479953Y-91967469D01*
G37*
%TD.AperFunction*%
%TD*%
%TA.AperFunction,Conductor*%
%TO.N,GND*%
G36*
X154532154Y-91726830D02*
G01*
X154539989Y-91731166D01*
X154541647Y-91733979D01*
X154630052Y-91947418D01*
X154630052Y-91956373D01*
X154623720Y-91962704D01*
X154623375Y-91962841D01*
X154378491Y-92055280D01*
X154371875Y-92055767D01*
X153699776Y-91909755D01*
X153692419Y-91904650D01*
X153690827Y-91895838D01*
X153695932Y-91888481D01*
X153698752Y-91887160D01*
X154292691Y-91700740D01*
X154297509Y-91700278D01*
X154532154Y-91726830D01*
G37*
%TD.AperFunction*%
%TD*%
%TA.AperFunction,Conductor*%
%TO.N,+3V3*%
G36*
X162903536Y-76530464D02*
G01*
X163444540Y-76871558D01*
X163449711Y-76878868D01*
X163450000Y-76881454D01*
X163450000Y-77118545D01*
X163446573Y-77126818D01*
X163444540Y-77128442D01*
X162903537Y-77469534D01*
X162894711Y-77471048D01*
X162888309Y-77467128D01*
X162505243Y-77007491D01*
X162502579Y-76998941D01*
X162505243Y-76992509D01*
X162888309Y-76532871D01*
X162896238Y-76528710D01*
X162903536Y-76530464D01*
G37*
%TD.AperFunction*%
%TD*%
%TA.AperFunction,Conductor*%
%TO.N,CANH*%
G36*
X167800473Y-84728427D02*
G01*
X167803000Y-84732200D01*
X167961912Y-85113589D01*
X167962234Y-85121722D01*
X167686122Y-85966953D01*
X167680295Y-85973753D01*
X167671367Y-85974442D01*
X167664567Y-85968615D01*
X167663878Y-85966953D01*
X167597995Y-85765274D01*
X167387765Y-85121720D01*
X167388086Y-85113591D01*
X167547000Y-84732199D01*
X167553345Y-84725881D01*
X167557800Y-84725000D01*
X167792200Y-84725000D01*
X167800473Y-84728427D01*
G37*
%TD.AperFunction*%
%TD*%
%TA.AperFunction,Conductor*%
%TO.N,IN_B*%
G36*
X158709830Y-87158478D02*
G01*
X159343963Y-87338746D01*
X159350984Y-87344304D01*
X159352018Y-87353199D01*
X159346460Y-87360220D01*
X159343963Y-87361254D01*
X158709830Y-87541521D01*
X158703714Y-87541597D01*
X158453835Y-87477261D01*
X158446677Y-87471880D01*
X158445052Y-87465931D01*
X158445052Y-87234068D01*
X158448479Y-87225795D01*
X158453832Y-87222739D01*
X158703715Y-87158402D01*
X158709830Y-87158478D01*
G37*
%TD.AperFunction*%
%TD*%
%TA.AperFunction,Conductor*%
%TO.N,CANL*%
G36*
X166515595Y-83940862D02*
G01*
X166520041Y-83948635D01*
X166520134Y-83949995D01*
X166529877Y-84903143D01*
X166526535Y-84911451D01*
X166518298Y-84914962D01*
X166518178Y-84914963D01*
X166284080Y-84914963D01*
X166276803Y-84912425D01*
X165715864Y-84466897D01*
X165711517Y-84459068D01*
X165713580Y-84450993D01*
X166029531Y-84003208D01*
X166037099Y-83998426D01*
X166037582Y-83998352D01*
X166506955Y-83938509D01*
X166515595Y-83940862D01*
G37*
%TD.AperFunction*%
%TD*%
%TA.AperFunction,Conductor*%
%TO.N,CS*%
G36*
X151625849Y-88553427D02*
G01*
X151628162Y-88556717D01*
X151908913Y-89153177D01*
X151909336Y-89162122D01*
X151904771Y-89167926D01*
X151407946Y-89495756D01*
X151399153Y-89497452D01*
X151393250Y-89494284D01*
X151059623Y-89162346D01*
X150974976Y-89078128D01*
X150971529Y-89069865D01*
X150974012Y-89062627D01*
X151371487Y-88554490D01*
X151379284Y-88550086D01*
X151380703Y-88550000D01*
X151617576Y-88550000D01*
X151625849Y-88553427D01*
G37*
%TD.AperFunction*%
%TD*%
%TA.AperFunction,Conductor*%
%TO.N,IN_A*%
G36*
X158709830Y-87808478D02*
G01*
X159343963Y-87988746D01*
X159350984Y-87994304D01*
X159352018Y-88003199D01*
X159346460Y-88010220D01*
X159343963Y-88011254D01*
X158709830Y-88191521D01*
X158703714Y-88191597D01*
X158453835Y-88127261D01*
X158446677Y-88121880D01*
X158445052Y-88115931D01*
X158445052Y-87884068D01*
X158448479Y-87875795D01*
X158453832Y-87872739D01*
X158703715Y-87808402D01*
X158709830Y-87808478D01*
G37*
%TD.AperFunction*%
%TD*%
%TA.AperFunction,Conductor*%
%TO.N,IN_A*%
G36*
X157070929Y-87709681D02*
G01*
X157586060Y-87872417D01*
X157592917Y-87878177D01*
X157594236Y-87883574D01*
X157594236Y-88116425D01*
X157590809Y-88124698D01*
X157586060Y-88127582D01*
X157070937Y-88290315D01*
X157062016Y-88289539D01*
X157056256Y-88282682D01*
X157055949Y-88281494D01*
X156999469Y-88002318D01*
X156999469Y-87997680D01*
X157022554Y-87883574D01*
X157055946Y-87718518D01*
X157060945Y-87711092D01*
X157069733Y-87709373D01*
X157070929Y-87709681D01*
G37*
%TD.AperFunction*%
%TD*%
%TA.AperFunction,Conductor*%
%TO.N,SWDIO*%
G36*
X158709830Y-91058477D02*
G01*
X159044560Y-91153633D01*
X159343962Y-91238746D01*
X159350983Y-91244304D01*
X159352017Y-91253199D01*
X159346459Y-91260220D01*
X159343962Y-91261254D01*
X158709832Y-91441521D01*
X158703716Y-91441598D01*
X158453836Y-91377267D01*
X158446678Y-91371885D01*
X158445053Y-91365939D01*
X158445051Y-91134074D01*
X158448478Y-91125802D01*
X158453830Y-91122746D01*
X158703715Y-91058402D01*
X158709830Y-91058477D01*
G37*
%TD.AperFunction*%
%TD*%
%TA.AperFunction,Conductor*%
%TO.N,+3V3*%
G36*
X154939743Y-89145313D02*
G01*
X154943501Y-89151793D01*
X155000029Y-89431210D01*
X154998310Y-89439998D01*
X154998271Y-89440057D01*
X154839794Y-89675822D01*
X154832335Y-89680776D01*
X154823649Y-89679067D01*
X154443105Y-89428486D01*
X154438080Y-89421074D01*
X154437840Y-89418714D01*
X154437846Y-89185971D01*
X154441273Y-89177700D01*
X154448773Y-89174298D01*
X154931262Y-89142438D01*
X154939743Y-89145313D01*
G37*
%TD.AperFunction*%
%TD*%
%TA.AperFunction,Conductor*%
%TO.N,Net-(U4-FB)*%
G36*
X167754102Y-70828464D02*
G01*
X168225780Y-71059223D01*
X168231705Y-71065937D01*
X168232204Y-71071496D01*
X168126515Y-71764767D01*
X168121881Y-71772429D01*
X168114949Y-71774704D01*
X167879920Y-71774704D01*
X167871647Y-71771277D01*
X167871559Y-71771188D01*
X167717448Y-71613739D01*
X167378080Y-71267018D01*
X167374743Y-71258711D01*
X167377585Y-71251192D01*
X167740104Y-70831327D01*
X167748105Y-70827305D01*
X167754102Y-70828464D01*
G37*
%TD.AperFunction*%
%TD*%
%TA.AperFunction,Conductor*%
%TO.N,LED_R*%
G36*
X158709830Y-86508477D02*
G01*
X159178170Y-86641615D01*
X159343962Y-86688746D01*
X159350983Y-86694304D01*
X159352017Y-86703199D01*
X159346459Y-86710220D01*
X159343962Y-86711254D01*
X158709831Y-86891521D01*
X158703716Y-86891598D01*
X158453839Y-86827286D01*
X158446681Y-86821905D01*
X158445055Y-86815957D01*
X158445049Y-86584093D01*
X158448476Y-86575821D01*
X158453827Y-86572765D01*
X158703716Y-86508402D01*
X158709830Y-86508477D01*
G37*
%TD.AperFunction*%
%TD*%
%TA.AperFunction,Conductor*%
%TO.N,LED_G*%
G36*
X142488494Y-89670853D02*
G01*
X142654190Y-89836549D01*
X142657617Y-89844822D01*
X142656734Y-89849281D01*
X142316821Y-90673769D01*
X142310499Y-90680112D01*
X142301887Y-90680262D01*
X141829053Y-90502496D01*
X141822516Y-90496378D01*
X141822354Y-90496003D01*
X141632674Y-90035737D01*
X141632690Y-90026782D01*
X141638951Y-90020495D01*
X142475682Y-89668341D01*
X142484637Y-89668291D01*
X142488494Y-89670853D01*
G37*
%TD.AperFunction*%
%TD*%
%TA.AperFunction,Conductor*%
%TO.N,GND*%
G36*
X160123341Y-88561512D02*
G01*
X160362273Y-88691756D01*
X160367897Y-88698725D01*
X160366946Y-88707629D01*
X160364946Y-88710302D01*
X160202811Y-88872438D01*
X160194538Y-88875865D01*
X160194171Y-88875859D01*
X159383237Y-88850375D01*
X159375075Y-88846690D01*
X159371910Y-88838314D01*
X159371920Y-88838067D01*
X159381329Y-88659106D01*
X159385185Y-88651027D01*
X159391600Y-88648109D01*
X160116333Y-88560170D01*
X160123341Y-88561512D01*
G37*
%TD.AperFunction*%
%TD*%
%TA.AperFunction,Conductor*%
%TO.N,CAN_TX*%
G36*
X168952469Y-90992812D02*
G01*
X168953570Y-90996163D01*
X169107971Y-91916513D01*
X169105960Y-91925239D01*
X169104964Y-91926455D01*
X168878667Y-92167593D01*
X168870506Y-92171281D01*
X168862129Y-92168119D01*
X168861862Y-92167860D01*
X168696035Y-92002032D01*
X168692887Y-91996300D01*
X168676405Y-91922229D01*
X168657115Y-91835535D01*
X168657417Y-91829352D01*
X168930912Y-90994457D01*
X168936744Y-90987661D01*
X168945673Y-90986980D01*
X168952469Y-90992812D01*
G37*
%TD.AperFunction*%
%TD*%
%TA.AperFunction,Conductor*%
%TO.N,GND*%
G36*
X165724021Y-74766320D02*
G01*
X165729689Y-74772836D01*
X165827855Y-75052212D01*
X165827365Y-75061154D01*
X165821464Y-75066829D01*
X165224917Y-75324975D01*
X165215963Y-75325115D01*
X165209532Y-75318884D01*
X165209461Y-75318714D01*
X165118478Y-75099064D01*
X165118226Y-75098401D01*
X165077822Y-74981225D01*
X165078365Y-74972289D01*
X165085069Y-74966352D01*
X165085251Y-74966291D01*
X165715099Y-74765567D01*
X165724021Y-74766320D01*
G37*
%TD.AperFunction*%
%TD*%
%TA.AperFunction,Conductor*%
%TO.N,Net-(U4-SW)*%
G36*
X168740907Y-76597015D02*
G01*
X168740922Y-76597028D01*
X169329563Y-77098085D01*
X169331445Y-77100117D01*
X169471643Y-77293091D01*
X169473733Y-77301799D01*
X169470378Y-77308313D01*
X168739612Y-78026448D01*
X168731309Y-78029803D01*
X168723851Y-78027033D01*
X168491242Y-77830120D01*
X168027629Y-77437653D01*
X168023530Y-77429694D01*
X168026259Y-77421167D01*
X168724419Y-76598365D01*
X168732382Y-76594276D01*
X168740907Y-76597015D01*
G37*
%TD.AperFunction*%
%TD*%
%TA.AperFunction,Conductor*%
%TO.N,CAN_TX*%
G36*
X160123259Y-90542660D02*
G01*
X160350622Y-90678990D01*
X160355955Y-90686183D01*
X160354639Y-90695041D01*
X160352878Y-90697297D01*
X160190508Y-90859665D01*
X160182235Y-90863092D01*
X160181333Y-90863057D01*
X160101873Y-90856912D01*
X160098049Y-90855950D01*
X160090043Y-90852414D01*
X160064927Y-90849501D01*
X160064924Y-90849500D01*
X160064917Y-90849500D01*
X160064909Y-90849500D01*
X160006468Y-90849500D01*
X160005566Y-90849465D01*
X159377629Y-90800903D01*
X159369645Y-90796849D01*
X159366866Y-90788338D01*
X159381056Y-90609240D01*
X159385125Y-90601265D01*
X159391791Y-90598504D01*
X160116323Y-90541032D01*
X160123259Y-90542660D01*
G37*
%TD.AperFunction*%
%TD*%
%TA.AperFunction,Conductor*%
%TO.N,Net-(U4-SW)*%
G36*
X166384740Y-73639231D02*
G01*
X166387056Y-73640989D01*
X166630422Y-73878838D01*
X166633943Y-73887071D01*
X166630611Y-73895383D01*
X166630517Y-73895478D01*
X166464519Y-74061476D01*
X166458787Y-74064624D01*
X166298994Y-74100171D01*
X166291162Y-74099185D01*
X165751609Y-73825641D01*
X165745780Y-73818844D01*
X165746465Y-73809915D01*
X165753262Y-73804086D01*
X165753850Y-73803911D01*
X166375866Y-73638051D01*
X166384740Y-73639231D01*
G37*
%TD.AperFunction*%
%TD*%
%TA.AperFunction,Conductor*%
%TO.N,GND*%
G36*
X162903536Y-74805464D02*
G01*
X163444540Y-75146558D01*
X163449711Y-75153868D01*
X163450000Y-75156454D01*
X163450000Y-75393545D01*
X163446573Y-75401818D01*
X163444540Y-75403442D01*
X162903537Y-75744534D01*
X162894711Y-75746048D01*
X162888309Y-75742128D01*
X162505243Y-75282491D01*
X162502579Y-75273941D01*
X162505243Y-75267509D01*
X162888309Y-74807871D01*
X162896238Y-74803710D01*
X162903536Y-74805464D01*
G37*
%TD.AperFunction*%
%TD*%
%TA.AperFunction,Conductor*%
%TO.N,GND*%
G36*
X165485352Y-74602460D02*
G01*
X165486741Y-74603251D01*
X165723859Y-74760636D01*
X165727138Y-74763915D01*
X165884018Y-75000405D01*
X165885736Y-75009194D01*
X165880736Y-75016623D01*
X165879020Y-75017564D01*
X165420527Y-75221368D01*
X165411576Y-75221597D01*
X165406047Y-75217177D01*
X165276341Y-75023058D01*
X165274594Y-75014275D01*
X165275523Y-75011491D01*
X165469736Y-74607927D01*
X165476411Y-74601961D01*
X165485352Y-74602460D01*
G37*
%TD.AperFunction*%
%TD*%
%TA.AperFunction,Conductor*%
%TO.N,CAN_RX*%
G36*
X164844464Y-90815413D02*
G01*
X165056142Y-90912882D01*
X165125253Y-90944705D01*
X165131334Y-90951277D01*
X165130986Y-90960226D01*
X165130967Y-90960268D01*
X164839400Y-91586840D01*
X164832802Y-91592895D01*
X164825101Y-91593007D01*
X164806550Y-91586840D01*
X164638875Y-91531097D01*
X164632105Y-91525235D01*
X164631766Y-91524490D01*
X164540408Y-91303928D01*
X164540408Y-91294974D01*
X164541219Y-91293377D01*
X164829580Y-90819954D01*
X164836809Y-90814672D01*
X164844464Y-90815413D01*
G37*
%TD.AperFunction*%
%TD*%
%TA.AperFunction,Conductor*%
%TO.N,+3V3*%
G36*
X163601331Y-76539856D02*
G01*
X163994336Y-76992328D01*
X163997174Y-77000821D01*
X163994336Y-77007672D01*
X163601331Y-77460143D01*
X163593319Y-77464142D01*
X163585985Y-77462190D01*
X163087999Y-77128475D01*
X163083034Y-77121023D01*
X163082812Y-77118756D01*
X163082812Y-76881243D01*
X163086239Y-76872970D01*
X163087999Y-76871524D01*
X163585986Y-76537808D01*
X163594765Y-76536050D01*
X163601331Y-76539856D01*
G37*
%TD.AperFunction*%
%TD*%
%TA.AperFunction,Conductor*%
%TO.N,CS*%
G36*
X151506720Y-88003715D02*
G01*
X151960807Y-88322343D01*
X151965611Y-88329900D01*
X151964321Y-88337590D01*
X151628341Y-88943970D01*
X151621334Y-88949546D01*
X151618107Y-88950000D01*
X151381893Y-88950000D01*
X151373620Y-88946573D01*
X151371659Y-88943970D01*
X151035678Y-88337590D01*
X151034666Y-88328693D01*
X151039191Y-88322343D01*
X151493280Y-88003714D01*
X151502020Y-88001768D01*
X151506720Y-88003715D01*
G37*
%TD.AperFunction*%
%TD*%
%TA.AperFunction,Conductor*%
%TO.N,CAN_RX*%
G36*
X160123299Y-89879578D02*
G01*
X160354538Y-90013228D01*
X160359986Y-90020334D01*
X160358813Y-90029212D01*
X160356956Y-90031630D01*
X160194669Y-90193920D01*
X160186396Y-90197347D01*
X160185720Y-90197327D01*
X159379931Y-90150683D01*
X159371870Y-90146784D01*
X159368927Y-90138327D01*
X159368934Y-90138205D01*
X159376990Y-90020334D01*
X159381169Y-89959181D01*
X159385152Y-89951162D01*
X159391709Y-89948336D01*
X160116317Y-89878064D01*
X160123299Y-89879578D01*
G37*
%TD.AperFunction*%
%TD*%
%TA.AperFunction,Conductor*%
%TO.N,Net-(U4-BST)*%
G36*
X169671602Y-74400257D02*
G01*
X169676759Y-74404695D01*
X169995758Y-74907735D01*
X169997294Y-74916557D01*
X169993790Y-74922619D01*
X169563009Y-75318153D01*
X169554597Y-75321224D01*
X169547436Y-75318379D01*
X169054040Y-74890999D01*
X169050030Y-74882992D01*
X169050000Y-74882155D01*
X169050000Y-74645513D01*
X169053427Y-74637240D01*
X169057472Y-74634604D01*
X169662652Y-74400052D01*
X169671602Y-74400257D01*
G37*
%TD.AperFunction*%
%TD*%
%TA.AperFunction,Conductor*%
%TO.N,LED_G*%
G36*
X152984830Y-90408478D02*
G01*
X153618962Y-90588746D01*
X153625983Y-90594304D01*
X153627017Y-90603199D01*
X153621459Y-90610220D01*
X153618962Y-90611254D01*
X152984831Y-90791521D01*
X152978715Y-90791597D01*
X152728835Y-90727259D01*
X152721677Y-90721878D01*
X152720052Y-90715929D01*
X152720052Y-90600000D01*
X152720052Y-90484064D01*
X152723479Y-90475794D01*
X152728832Y-90472738D01*
X152978715Y-90408402D01*
X152984830Y-90408478D01*
G37*
%TD.AperFunction*%
%TD*%
%TA.AperFunction,Conductor*%
%TO.N,CANL*%
G36*
X166530471Y-84728427D02*
G01*
X166532998Y-84732200D01*
X166691912Y-85113589D01*
X166692234Y-85121722D01*
X166416122Y-85966952D01*
X166410295Y-85973752D01*
X166401367Y-85974441D01*
X166394567Y-85968614D01*
X166393878Y-85966952D01*
X166324323Y-85754032D01*
X166117765Y-85121720D01*
X166118086Y-85113591D01*
X166276999Y-84732199D01*
X166283344Y-84725881D01*
X166287794Y-84725000D01*
X166522198Y-84725000D01*
X166530471Y-84728427D01*
G37*
%TD.AperFunction*%
%TD*%
%TA.AperFunction,Conductor*%
%TO.N,LIM_B*%
G36*
X154469487Y-86455759D02*
G01*
X154469987Y-86456231D01*
X154518106Y-86504509D01*
X154632017Y-86618795D01*
X154635430Y-86627074D01*
X154631990Y-86635342D01*
X154629579Y-86637188D01*
X154398301Y-86770671D01*
X154391319Y-86772183D01*
X153666709Y-86701665D01*
X153658806Y-86697453D01*
X153656169Y-86690818D01*
X153644045Y-86512995D01*
X153646901Y-86504509D01*
X153654922Y-86500527D01*
X153655718Y-86500500D01*
X153723445Y-86500500D01*
X153727386Y-86499443D01*
X153746702Y-86494268D01*
X153749033Y-86493891D01*
X154461032Y-86452814D01*
X154469487Y-86455759D01*
G37*
%TD.AperFunction*%
%TD*%
%TA.AperFunction,Conductor*%
%TO.N,LED_R*%
G36*
X138281479Y-89555946D02*
G01*
X138288907Y-89560945D01*
X138290626Y-89569733D01*
X138290315Y-89570937D01*
X138127583Y-90086060D01*
X138121823Y-90092917D01*
X138116426Y-90094236D01*
X137883574Y-90094236D01*
X137875301Y-90090809D01*
X137872417Y-90086060D01*
X137709684Y-89570937D01*
X137710460Y-89562016D01*
X137717317Y-89556256D01*
X137718500Y-89555950D01*
X137997682Y-89499469D01*
X138002318Y-89499469D01*
X138281479Y-89555946D01*
G37*
%TD.AperFunction*%
%TD*%
%TA.AperFunction,Conductor*%
%TO.N,GND*%
G36*
X155257829Y-90622161D02*
G01*
X155281478Y-90626946D01*
X155288907Y-90631946D01*
X155290626Y-90640734D01*
X155290315Y-90641938D01*
X155127606Y-91157054D01*
X155121846Y-91163911D01*
X155116450Y-91165230D01*
X154883598Y-91165240D01*
X154875324Y-91161814D01*
X154872442Y-91157067D01*
X154709685Y-90641937D01*
X154710460Y-90633018D01*
X154717316Y-90627258D01*
X154718518Y-90626946D01*
X154997682Y-90570470D01*
X155002318Y-90570470D01*
X155257829Y-90622161D01*
G37*
%TD.AperFunction*%
%TD*%
%TA.AperFunction,Conductor*%
%TO.N,+3V3*%
G36*
X158709830Y-89108477D02*
G01*
X159178170Y-89241615D01*
X159343962Y-89288746D01*
X159350983Y-89294304D01*
X159352017Y-89303199D01*
X159346459Y-89310220D01*
X159343962Y-89311254D01*
X158709831Y-89491521D01*
X158703716Y-89491598D01*
X158453841Y-89427297D01*
X158446683Y-89421916D01*
X158445057Y-89415969D01*
X158445047Y-89184105D01*
X158448473Y-89175832D01*
X158453825Y-89172776D01*
X158703717Y-89108402D01*
X158709830Y-89108477D01*
G37*
%TD.AperFunction*%
%TD*%
%TA.AperFunction,Conductor*%
%TO.N,ENC_B*%
G36*
X152860234Y-87758522D02*
G01*
X153659474Y-87799394D01*
X153667561Y-87803239D01*
X153670561Y-87811677D01*
X153670551Y-87811839D01*
X153658901Y-87990833D01*
X153654944Y-87998866D01*
X153648415Y-88001712D01*
X152923845Y-88075728D01*
X152916759Y-88074194D01*
X152691403Y-87942690D01*
X152685985Y-87935561D01*
X152687195Y-87926688D01*
X152689019Y-87924320D01*
X152851388Y-87761934D01*
X152859659Y-87758508D01*
X152860234Y-87758522D01*
G37*
%TD.AperFunction*%
%TD*%
%TA.AperFunction,Conductor*%
%TO.N,/OUTA*%
G36*
X154826110Y-63520002D02*
G01*
X154872603Y-63573658D01*
X154882707Y-63643932D01*
X154881568Y-63650582D01*
X154869500Y-63711249D01*
X154869500Y-63711252D01*
X154869500Y-65100748D01*
X154881133Y-65159231D01*
X154925448Y-65225552D01*
X154991769Y-65269867D01*
X155050252Y-65281500D01*
X155050253Y-65281500D01*
X155749747Y-65281500D01*
X155749748Y-65281500D01*
X155808231Y-65269867D01*
X155829997Y-65255322D01*
X155897750Y-65234107D01*
X155966217Y-65252889D01*
X155969995Y-65255318D01*
X155991769Y-65269867D01*
X156050252Y-65281500D01*
X156050253Y-65281500D01*
X156749747Y-65281500D01*
X156749748Y-65281500D01*
X156808231Y-65269867D01*
X156829997Y-65255322D01*
X156897750Y-65234107D01*
X156966217Y-65252889D01*
X156969995Y-65255318D01*
X156991769Y-65269867D01*
X157050252Y-65281500D01*
X157050253Y-65281500D01*
X157749747Y-65281500D01*
X157749748Y-65281500D01*
X157808231Y-65269867D01*
X157829997Y-65255322D01*
X157897750Y-65234107D01*
X157966217Y-65252889D01*
X157969995Y-65255318D01*
X157991769Y-65269867D01*
X158050252Y-65281500D01*
X158050253Y-65281500D01*
X158749747Y-65281500D01*
X158749748Y-65281500D01*
X158808231Y-65269867D01*
X158874552Y-65225552D01*
X158918867Y-65159231D01*
X158930500Y-65100748D01*
X158930500Y-63711252D01*
X158918867Y-63652769D01*
X158918432Y-63650582D01*
X158920340Y-63629260D01*
X158917293Y-63608068D01*
X158923441Y-63594606D01*
X158924760Y-63579868D01*
X158937893Y-63562960D01*
X158946787Y-63543488D01*
X158959234Y-63535488D01*
X158968314Y-63523800D01*
X158988504Y-63516677D01*
X159006513Y-63505104D01*
X159031493Y-63501512D01*
X159035267Y-63500181D01*
X159042011Y-63500000D01*
X159267813Y-63500000D01*
X159280162Y-63500606D01*
X159456740Y-63517998D01*
X159480959Y-63522815D01*
X159644815Y-63572520D01*
X159667622Y-63581967D01*
X159716454Y-63608068D01*
X159818627Y-63662681D01*
X159839162Y-63676402D01*
X159896694Y-63723617D01*
X159971514Y-63785020D01*
X159988979Y-63802485D01*
X160097595Y-63934834D01*
X160111318Y-63955372D01*
X160192029Y-64106370D01*
X160201482Y-64129191D01*
X160251183Y-64293037D01*
X160256001Y-64317261D01*
X160273393Y-64493836D01*
X160274000Y-64506187D01*
X160274000Y-80338223D01*
X160267833Y-80377160D01*
X160250474Y-80430582D01*
X160250473Y-80430587D01*
X160250473Y-80430588D01*
X160229043Y-80565892D01*
X160223499Y-80600892D01*
X160223499Y-80679522D01*
X160223460Y-82775964D01*
X160223460Y-82775965D01*
X160223459Y-82822573D01*
X160223070Y-82832459D01*
X160213807Y-82950124D01*
X160210715Y-82969649D01*
X160195123Y-83034594D01*
X160191532Y-83046798D01*
X160190647Y-83049327D01*
X160178406Y-83074745D01*
X160087600Y-83219262D01*
X160070008Y-83241321D01*
X159949321Y-83362008D01*
X159927262Y-83379600D01*
X159782743Y-83470408D01*
X159757322Y-83482650D01*
X159596223Y-83539021D01*
X159568715Y-83545300D01*
X159399107Y-83564410D01*
X159370893Y-83564410D01*
X159201284Y-83545300D01*
X159173777Y-83539021D01*
X159081836Y-83506850D01*
X159014164Y-83483170D01*
X158956473Y-83441791D01*
X158930310Y-83375791D01*
X158930388Y-83351879D01*
X158930498Y-83350753D01*
X158930500Y-83350748D01*
X158930500Y-81961252D01*
X158918867Y-81902769D01*
X158874552Y-81836448D01*
X158808231Y-81792133D01*
X158808228Y-81792132D01*
X158749750Y-81780500D01*
X158749748Y-81780500D01*
X158622000Y-81780500D01*
X158553879Y-81760498D01*
X158507386Y-81706842D01*
X158496000Y-81654500D01*
X158496000Y-81005080D01*
X158516002Y-80936959D01*
X158569658Y-80890466D01*
X158639932Y-80880362D01*
X158684044Y-80898950D01*
X158685534Y-80896371D01*
X158692686Y-80900500D01*
X158806814Y-80966392D01*
X158934108Y-81000500D01*
X158934110Y-81000500D01*
X159065890Y-81000500D01*
X159065892Y-81000500D01*
X159193186Y-80966392D01*
X159307314Y-80900500D01*
X159400500Y-80807314D01*
X159466392Y-80693186D01*
X159500500Y-80565892D01*
X159500500Y-80434108D01*
X159466392Y-80306814D01*
X159443177Y-80266604D01*
X159400502Y-80192689D01*
X159400494Y-80192679D01*
X159307320Y-80099505D01*
X159307310Y-80099497D01*
X159193190Y-80033610D01*
X159193187Y-80033609D01*
X159193186Y-80033608D01*
X159193184Y-80033607D01*
X159193183Y-80033607D01*
X159159073Y-80024467D01*
X159065892Y-79999500D01*
X158934108Y-79999500D01*
X158865894Y-80017777D01*
X158806816Y-80033607D01*
X158806809Y-80033610D01*
X158685534Y-80103629D01*
X158683817Y-80100655D01*
X158632372Y-80120491D01*
X158562836Y-80106165D01*
X158512084Y-80056519D01*
X158496000Y-79994919D01*
X158496000Y-75082686D01*
X158500500Y-75065892D01*
X158500500Y-74934108D01*
X158496000Y-74917313D01*
X158496000Y-73500000D01*
X157496000Y-73500000D01*
X154506187Y-73500000D01*
X154493838Y-73499393D01*
X154461095Y-73496168D01*
X154317261Y-73482001D01*
X154293037Y-73477183D01*
X154129191Y-73427482D01*
X154106372Y-73418030D01*
X154058011Y-73392180D01*
X153955372Y-73337318D01*
X153934834Y-73323595D01*
X153802485Y-73214979D01*
X153785020Y-73197514D01*
X153676404Y-73065165D01*
X153662681Y-73044627D01*
X153649064Y-73019153D01*
X153581967Y-72893622D01*
X153572520Y-72870815D01*
X153522815Y-72706959D01*
X153517998Y-72682737D01*
X153500607Y-72506162D01*
X153500000Y-72493812D01*
X153500000Y-67916093D01*
X153520002Y-67847972D01*
X153556783Y-67813272D01*
X153555738Y-67811788D01*
X153560908Y-67808145D01*
X153560916Y-67808141D01*
X153614572Y-67761648D01*
X153632527Y-67744055D01*
X153677174Y-67664237D01*
X153677174Y-67664236D01*
X153677176Y-67664233D01*
X153697172Y-67596128D01*
X153697176Y-67596116D01*
X153705500Y-67538220D01*
X153705500Y-65407500D01*
X153705482Y-65407329D01*
X153705488Y-65407292D01*
X153705319Y-65404127D01*
X153706066Y-65404086D01*
X153718084Y-65337459D01*
X153766460Y-65285495D01*
X153806178Y-65270275D01*
X153808231Y-65269867D01*
X153874552Y-65225552D01*
X153918867Y-65159231D01*
X153930500Y-65100748D01*
X153930500Y-63751497D01*
X153934512Y-63737832D01*
X153933623Y-63723617D01*
X153944316Y-63704442D01*
X153950502Y-63683376D01*
X153961962Y-63672800D01*
X153968203Y-63661611D01*
X153997099Y-63640377D01*
X154106384Y-63581963D01*
X154129181Y-63572521D01*
X154293042Y-63522814D01*
X154317257Y-63517998D01*
X154493837Y-63500606D01*
X154506187Y-63500000D01*
X154757989Y-63500000D01*
X154826110Y-63520002D01*
G37*
%TD.AperFunction*%
%TD*%
%TA.AperFunction,Conductor*%
%TO.N,CANH*%
G36*
X167685228Y-86033215D02*
G01*
X167686017Y-86035202D01*
X167942735Y-86907192D01*
X167941951Y-86915778D01*
X167752487Y-87290241D01*
X167745694Y-87296076D01*
X167737569Y-87295768D01*
X167521157Y-87206113D01*
X167514825Y-87199781D01*
X167514789Y-87199692D01*
X167388021Y-86886365D01*
X167387747Y-86878339D01*
X167663564Y-86035202D01*
X167663674Y-86034866D01*
X167669502Y-86028071D01*
X167678431Y-86027386D01*
X167685228Y-86033215D01*
G37*
%TD.AperFunction*%
%TD*%
%TA.AperFunction,Conductor*%
%TO.N,IN_B*%
G36*
X144597833Y-88677392D02*
G01*
X144598900Y-88678021D01*
X144824919Y-88827977D01*
X144836234Y-88835484D01*
X144839515Y-88838765D01*
X144996975Y-89076095D01*
X144998694Y-89084883D01*
X144993694Y-89092312D01*
X144992623Y-89092944D01*
X144513308Y-89342121D01*
X144504387Y-89342897D01*
X144499638Y-89340013D01*
X144334986Y-89175361D01*
X144331559Y-89167088D01*
X144332877Y-89161694D01*
X144582057Y-88682374D01*
X144588912Y-88676616D01*
X144597833Y-88677392D01*
G37*
%TD.AperFunction*%
%TD*%
%TA.AperFunction,Conductor*%
%TO.N,+3V3*%
G36*
X165054345Y-76423700D02*
G01*
X165055977Y-76425724D01*
X165689409Y-77419940D01*
X165690965Y-77428759D01*
X165686138Y-77435890D01*
X164993118Y-77908977D01*
X164984354Y-77910811D01*
X164976859Y-77905910D01*
X164976034Y-77904499D01*
X164591914Y-77127451D01*
X164590702Y-77122266D01*
X164590702Y-76879814D01*
X164594090Y-76871580D01*
X165037800Y-76423775D01*
X165046056Y-76420311D01*
X165054345Y-76423700D01*
G37*
%TD.AperFunction*%
%TD*%
%TA.AperFunction,Conductor*%
%TO.N,LED_R*%
G36*
X158070551Y-86434002D02*
G01*
X158585575Y-86572691D01*
X158592672Y-86578152D01*
X158594232Y-86583989D01*
X158594238Y-86816818D01*
X158590811Y-86825091D01*
X158586526Y-86827817D01*
X158071291Y-87014608D01*
X158062345Y-87014207D01*
X158056304Y-87007597D01*
X158055835Y-87005929D01*
X158043454Y-86944734D01*
X157999470Y-86727318D01*
X157999470Y-86722680D01*
X158056055Y-86442980D01*
X158061054Y-86435554D01*
X158069842Y-86433835D01*
X158070551Y-86434002D01*
G37*
%TD.AperFunction*%
%TD*%
%TA.AperFunction,Conductor*%
%TO.N,/OUTB*%
G36*
X150495322Y-63511539D02*
G01*
X150673304Y-63527239D01*
X150697739Y-63531859D01*
X150730913Y-63541602D01*
X150783184Y-63556955D01*
X150842906Y-63595343D01*
X150872394Y-63659926D01*
X150871255Y-63702425D01*
X150869500Y-63711246D01*
X150869500Y-65100750D01*
X150879092Y-65148973D01*
X150881133Y-65159231D01*
X150925448Y-65225552D01*
X150991769Y-65269867D01*
X151050252Y-65281500D01*
X151168500Y-65281500D01*
X151236621Y-65301502D01*
X151283114Y-65355158D01*
X151294500Y-65407500D01*
X151294500Y-67681364D01*
X151294507Y-67683234D01*
X151294527Y-67685451D01*
X151303908Y-67745030D01*
X151303911Y-67745041D01*
X151325120Y-67812779D01*
X151325124Y-67812787D01*
X151332662Y-67828544D01*
X151345000Y-67882921D01*
X151345000Y-72994001D01*
X151337894Y-73018201D01*
X151334974Y-73043257D01*
X151326359Y-73057483D01*
X151324998Y-73062122D01*
X151316404Y-73073927D01*
X151266274Y-73135010D01*
X151214979Y-73197514D01*
X151197514Y-73214979D01*
X151065165Y-73323595D01*
X151044627Y-73337318D01*
X150893629Y-73418029D01*
X150870808Y-73427482D01*
X150706962Y-73477183D01*
X150682738Y-73482001D01*
X150534273Y-73496624D01*
X150506161Y-73499393D01*
X150493813Y-73500000D01*
X146500000Y-73500000D01*
X146500000Y-81654500D01*
X146479998Y-81722621D01*
X146426342Y-81769114D01*
X146374000Y-81780500D01*
X146050249Y-81780500D01*
X145991771Y-81792132D01*
X145991768Y-81792133D01*
X145925448Y-81836448D01*
X145881133Y-81902768D01*
X145881132Y-81902771D01*
X145869500Y-81961249D01*
X145869500Y-83350750D01*
X145874713Y-83376956D01*
X145874453Y-83379856D01*
X145875687Y-83382495D01*
X145871307Y-83415007D01*
X145868385Y-83447670D01*
X145866598Y-83449969D01*
X145866210Y-83452856D01*
X145844955Y-83477831D01*
X145824831Y-83503738D01*
X145821508Y-83505382D01*
X145820197Y-83506924D01*
X145787709Y-83522113D01*
X145717424Y-83543433D01*
X145693200Y-83548251D01*
X145525303Y-83564788D01*
X145500700Y-83564798D01*
X145331798Y-83548296D01*
X145307762Y-83543554D01*
X145145196Y-83494659D01*
X145122541Y-83485358D01*
X144972510Y-83405922D01*
X144952077Y-83392408D01*
X144820266Y-83285442D01*
X144802831Y-83268225D01*
X144694216Y-83137771D01*
X144680443Y-83117506D01*
X144599127Y-82968491D01*
X144589540Y-82945948D01*
X144538606Y-82784019D01*
X144533561Y-82760041D01*
X144514252Y-82585164D01*
X144513502Y-82572949D01*
X144512426Y-82487416D01*
X144500000Y-81500000D01*
X144499999Y-81500000D01*
X141006187Y-81500000D01*
X140993838Y-81499393D01*
X140961095Y-81496168D01*
X140817261Y-81482001D01*
X140793037Y-81477183D01*
X140629191Y-81427482D01*
X140606372Y-81418030D01*
X140558011Y-81392180D01*
X140455372Y-81337318D01*
X140434834Y-81323595D01*
X140302485Y-81214979D01*
X140285020Y-81197514D01*
X140176404Y-81065165D01*
X140162681Y-81044627D01*
X140149064Y-81019153D01*
X140081967Y-80893622D01*
X140072520Y-80870815D01*
X140022815Y-80706959D01*
X140017998Y-80682737D01*
X140000607Y-80506162D01*
X140000000Y-80493812D01*
X140000000Y-74506187D01*
X140000607Y-74493837D01*
X140017998Y-74317262D01*
X140022814Y-74293042D01*
X140072521Y-74129181D01*
X140081965Y-74106380D01*
X140162682Y-73955369D01*
X140176398Y-73934842D01*
X140285025Y-73802479D01*
X140302479Y-73785025D01*
X140434842Y-73676398D01*
X140455369Y-73662682D01*
X140606380Y-73581965D01*
X140629181Y-73572521D01*
X140793042Y-73522814D01*
X140817257Y-73517998D01*
X140993837Y-73500606D01*
X141006187Y-73500000D01*
X143500000Y-73500000D01*
X143500000Y-64582334D01*
X143500598Y-64570070D01*
X143517750Y-64394693D01*
X143522503Y-64370627D01*
X143539401Y-64314511D01*
X143571534Y-64207801D01*
X143580852Y-64185133D01*
X143660504Y-64034888D01*
X143674040Y-64014450D01*
X143781289Y-63882492D01*
X143798531Y-63865062D01*
X143929314Y-63756384D01*
X143949605Y-63742625D01*
X144098980Y-63661340D01*
X144121545Y-63651777D01*
X144283828Y-63600980D01*
X144307832Y-63595967D01*
X144483014Y-63576907D01*
X144495263Y-63576176D01*
X145744173Y-63562594D01*
X145812503Y-63581853D01*
X145859577Y-63635000D01*
X145870444Y-63705160D01*
X145869594Y-63710292D01*
X145869500Y-63711253D01*
X145869500Y-65100750D01*
X145879092Y-65148973D01*
X145881133Y-65159231D01*
X145925448Y-65225552D01*
X145991769Y-65269867D01*
X146050252Y-65281500D01*
X146050253Y-65281500D01*
X146749747Y-65281500D01*
X146749748Y-65281500D01*
X146808231Y-65269867D01*
X146829997Y-65255322D01*
X146897750Y-65234107D01*
X146966217Y-65252889D01*
X146969995Y-65255318D01*
X146991769Y-65269867D01*
X147050252Y-65281500D01*
X147050253Y-65281500D01*
X147749747Y-65281500D01*
X147749748Y-65281500D01*
X147808231Y-65269867D01*
X147829997Y-65255322D01*
X147897750Y-65234107D01*
X147966217Y-65252889D01*
X147969995Y-65255318D01*
X147991769Y-65269867D01*
X148050252Y-65281500D01*
X148050253Y-65281500D01*
X148749747Y-65281500D01*
X148749748Y-65281500D01*
X148808231Y-65269867D01*
X148829997Y-65255322D01*
X148897750Y-65234107D01*
X148966217Y-65252889D01*
X148969995Y-65255318D01*
X148991769Y-65269867D01*
X149050252Y-65281500D01*
X149050253Y-65281500D01*
X149749747Y-65281500D01*
X149749748Y-65281500D01*
X149808231Y-65269867D01*
X149874552Y-65225552D01*
X149918867Y-65159231D01*
X149930500Y-65100748D01*
X149930500Y-63711252D01*
X149921580Y-63666409D01*
X149927908Y-63595697D01*
X149971461Y-63539629D01*
X150038414Y-63516009D01*
X150043739Y-63515836D01*
X150482910Y-63511060D01*
X150495322Y-63511539D01*
G37*
%TD.AperFunction*%
%TD*%
%TA.AperFunction,Conductor*%
%TO.N,CANL*%
G36*
X163185217Y-86797084D02*
G01*
X164382032Y-87371800D01*
X164388005Y-87378469D01*
X164388666Y-87382346D01*
X164388666Y-87617624D01*
X164385239Y-87625897D01*
X164382031Y-87628171D01*
X163185217Y-88202915D01*
X163176276Y-88203407D01*
X163171377Y-88200106D01*
X162665021Y-87625897D01*
X162560823Y-87507736D01*
X162557922Y-87499267D01*
X162560823Y-87492263D01*
X163171378Y-86799892D01*
X163179419Y-86795954D01*
X163185217Y-86797084D01*
G37*
%TD.AperFunction*%
%TD*%
%TA.AperFunction,Conductor*%
%TO.N,+3V3*%
G36*
X164460731Y-76621243D02*
G01*
X164462785Y-76624725D01*
X164556049Y-76873011D01*
X164556796Y-76877125D01*
X164556796Y-77122874D01*
X164556049Y-77126988D01*
X164462785Y-77375274D01*
X164456668Y-77381814D01*
X164447718Y-77382113D01*
X164444236Y-77380059D01*
X164147765Y-77126988D01*
X164009424Y-77008898D01*
X164005357Y-77000921D01*
X164008122Y-76992404D01*
X164009425Y-76991101D01*
X164142947Y-76877125D01*
X164444238Y-76619939D01*
X164452753Y-76617175D01*
X164460731Y-76621243D01*
G37*
%TD.AperFunction*%
%TD*%
%TA.AperFunction,Conductor*%
%TO.N,+12V*%
G36*
X153857128Y-73517836D02*
G01*
X153857136Y-73517823D01*
X153857152Y-73517831D01*
X153857171Y-73517799D01*
X153857341Y-73517895D01*
X153857457Y-73517927D01*
X153858499Y-73518552D01*
X154009499Y-73599264D01*
X154027730Y-73607887D01*
X154050549Y-73617339D01*
X154069539Y-73624134D01*
X154233385Y-73673835D01*
X154233393Y-73673837D01*
X154252919Y-73678728D01*
X154252934Y-73678731D01*
X154252950Y-73678735D01*
X154277174Y-73683553D01*
X154297118Y-73686511D01*
X154297122Y-73686511D01*
X154297133Y-73686513D01*
X154473668Y-73703901D01*
X154473694Y-73703902D01*
X154473695Y-73703903D01*
X154483749Y-73704645D01*
X154496098Y-73705252D01*
X154506187Y-73705500D01*
X158051536Y-73705500D01*
X158075736Y-73712605D01*
X158100792Y-73715526D01*
X158115018Y-73724140D01*
X158119657Y-73725502D01*
X158131457Y-73734092D01*
X158193515Y-73785021D01*
X158210976Y-73802482D01*
X158261898Y-73864530D01*
X158289653Y-73929876D01*
X158290500Y-73944464D01*
X158290500Y-74917317D01*
X158293922Y-74943306D01*
X158295000Y-74959751D01*
X158295000Y-75040245D01*
X158293922Y-75056692D01*
X158290500Y-75082680D01*
X158290500Y-79994923D01*
X158297163Y-80046819D01*
X158297166Y-80046834D01*
X158313248Y-80108429D01*
X158313257Y-80108459D01*
X158318873Y-80126520D01*
X158318874Y-80126523D01*
X158368381Y-80203418D01*
X158368387Y-80203426D01*
X158419121Y-80253054D01*
X158419127Y-80253059D01*
X158419135Y-80253067D01*
X158438147Y-80269514D01*
X158438148Y-80269514D01*
X158444964Y-80275411D01*
X158444090Y-80276420D01*
X158444097Y-80276427D01*
X158452512Y-80280271D01*
X158466998Y-80302812D01*
X158484569Y-80323055D01*
X158486910Y-80333794D01*
X158490896Y-80339997D01*
X158496000Y-80375495D01*
X158496000Y-80627068D01*
X158475998Y-80695189D01*
X158439399Y-80728941D01*
X158440918Y-80731153D01*
X158435086Y-80735157D01*
X158435084Y-80735159D01*
X158421370Y-80747042D01*
X158381431Y-80781648D01*
X158363471Y-80799247D01*
X158318823Y-80879066D01*
X158298827Y-80947171D01*
X158298824Y-80947184D01*
X158290500Y-81005082D01*
X158290500Y-81654500D01*
X158270498Y-81722621D01*
X158216842Y-81769114D01*
X158164500Y-81780500D01*
X158050249Y-81780500D01*
X157991771Y-81792132D01*
X157991768Y-81792133D01*
X157925448Y-81836448D01*
X157881133Y-81902768D01*
X157881132Y-81902771D01*
X157869500Y-81961249D01*
X157869500Y-83350750D01*
X157872530Y-83365984D01*
X157872237Y-83369246D01*
X157873608Y-83372221D01*
X157869094Y-83404361D01*
X157866200Y-83436698D01*
X157864190Y-83439284D01*
X157863735Y-83442528D01*
X157842560Y-83467126D01*
X157822644Y-83492764D01*
X157818915Y-83494596D01*
X157817418Y-83496336D01*
X157784845Y-83511341D01*
X157697070Y-83537427D01*
X157672708Y-83542119D01*
X157495242Y-83558431D01*
X157482833Y-83558957D01*
X157042348Y-83555896D01*
X156974368Y-83535421D01*
X156928249Y-83481444D01*
X156918634Y-83411101D01*
X156919639Y-83405346D01*
X156930500Y-83350748D01*
X156930500Y-81961252D01*
X156918867Y-81902769D01*
X156874552Y-81836448D01*
X156808231Y-81792133D01*
X156808228Y-81792132D01*
X156749750Y-81780500D01*
X156749748Y-81780500D01*
X156050252Y-81780500D01*
X156050249Y-81780500D01*
X155991771Y-81792132D01*
X155991768Y-81792133D01*
X155970001Y-81806678D01*
X155902248Y-81827892D01*
X155833781Y-81809108D01*
X155829999Y-81806678D01*
X155808231Y-81792133D01*
X155808228Y-81792132D01*
X155749750Y-81780500D01*
X155749748Y-81780500D01*
X155050252Y-81780500D01*
X155050249Y-81780500D01*
X154991771Y-81792132D01*
X154991768Y-81792133D01*
X154970001Y-81806678D01*
X154902248Y-81827892D01*
X154833781Y-81809108D01*
X154829999Y-81806678D01*
X154808231Y-81792133D01*
X154808228Y-81792132D01*
X154749750Y-81780500D01*
X154749748Y-81780500D01*
X154050252Y-81780500D01*
X154050249Y-81780500D01*
X153991771Y-81792132D01*
X153991768Y-81792133D01*
X153970001Y-81806678D01*
X153902248Y-81827892D01*
X153833781Y-81809108D01*
X153829999Y-81806678D01*
X153808231Y-81792133D01*
X153808228Y-81792132D01*
X153749750Y-81780500D01*
X153749748Y-81780500D01*
X153050252Y-81780500D01*
X153050249Y-81780500D01*
X152991771Y-81792132D01*
X152991768Y-81792133D01*
X152970001Y-81806678D01*
X152902248Y-81827892D01*
X152833781Y-81809108D01*
X152829999Y-81806678D01*
X152808231Y-81792133D01*
X152808228Y-81792132D01*
X152749750Y-81780500D01*
X152749748Y-81780500D01*
X152050252Y-81780500D01*
X152050249Y-81780500D01*
X151991771Y-81792132D01*
X151991768Y-81792133D01*
X151970001Y-81806678D01*
X151902248Y-81827892D01*
X151833781Y-81809108D01*
X151829999Y-81806678D01*
X151808231Y-81792133D01*
X151808228Y-81792132D01*
X151749750Y-81780500D01*
X151749748Y-81780500D01*
X151050252Y-81780500D01*
X151050249Y-81780500D01*
X150991771Y-81792132D01*
X150991768Y-81792133D01*
X150970001Y-81806678D01*
X150902248Y-81827892D01*
X150833781Y-81809108D01*
X150829999Y-81806678D01*
X150808231Y-81792133D01*
X150808228Y-81792132D01*
X150749750Y-81780500D01*
X150749748Y-81780500D01*
X150050252Y-81780500D01*
X150050249Y-81780500D01*
X149991771Y-81792132D01*
X149991768Y-81792133D01*
X149970001Y-81806678D01*
X149902248Y-81827892D01*
X149833781Y-81809108D01*
X149829999Y-81806678D01*
X149808231Y-81792133D01*
X149808228Y-81792132D01*
X149749750Y-81780500D01*
X149749748Y-81780500D01*
X149050252Y-81780500D01*
X149050249Y-81780500D01*
X148991771Y-81792132D01*
X148991768Y-81792133D01*
X148925448Y-81836448D01*
X148881133Y-81902768D01*
X148881132Y-81902771D01*
X148869500Y-81961249D01*
X148869500Y-83350750D01*
X148879241Y-83399722D01*
X148881133Y-83409231D01*
X148925448Y-83475552D01*
X148944002Y-83487950D01*
X148989529Y-83542425D01*
X149000000Y-83592714D01*
X149000000Y-84390192D01*
X148999999Y-84390772D01*
X148999960Y-84399143D01*
X148999500Y-84401459D01*
X148999500Y-84499250D01*
X148999499Y-84499468D01*
X148999466Y-84499578D01*
X148998893Y-84511239D01*
X148982001Y-84682738D01*
X148977183Y-84706962D01*
X148927482Y-84870808D01*
X148918029Y-84893629D01*
X148837318Y-85044627D01*
X148823595Y-85065165D01*
X148714979Y-85197514D01*
X148697514Y-85214979D01*
X148565165Y-85323595D01*
X148544627Y-85337318D01*
X148393629Y-85418029D01*
X148370808Y-85427482D01*
X148206962Y-85477183D01*
X148182738Y-85482001D01*
X148034273Y-85496624D01*
X148006161Y-85499393D01*
X147993813Y-85500000D01*
X141006187Y-85500000D01*
X140993838Y-85499393D01*
X140961095Y-85496168D01*
X140817261Y-85482001D01*
X140793037Y-85477183D01*
X140629191Y-85427482D01*
X140606372Y-85418030D01*
X140558011Y-85392180D01*
X140455372Y-85337318D01*
X140434834Y-85323595D01*
X140302485Y-85214979D01*
X140285020Y-85197514D01*
X140176404Y-85065165D01*
X140162681Y-85044627D01*
X140149064Y-85019153D01*
X140081967Y-84893622D01*
X140072520Y-84870815D01*
X140022815Y-84706959D01*
X140017998Y-84682737D01*
X140000607Y-84506162D01*
X140000000Y-84493812D01*
X140000000Y-81498984D01*
X140020002Y-81430863D01*
X140073658Y-81384370D01*
X140143932Y-81374266D01*
X140205931Y-81401583D01*
X140304465Y-81482448D01*
X140320653Y-81494454D01*
X140320665Y-81494462D01*
X140341203Y-81508185D01*
X140358499Y-81518552D01*
X140509499Y-81599264D01*
X140527730Y-81607887D01*
X140550549Y-81617339D01*
X140569539Y-81624134D01*
X140733385Y-81673835D01*
X140733393Y-81673837D01*
X140752919Y-81678728D01*
X140752934Y-81678731D01*
X140752950Y-81678735D01*
X140777174Y-81683553D01*
X140797118Y-81686511D01*
X140797122Y-81686511D01*
X140797133Y-81686513D01*
X140973668Y-81703901D01*
X140973694Y-81703902D01*
X140973695Y-81703903D01*
X140983749Y-81704645D01*
X140996098Y-81705252D01*
X141006187Y-81705500D01*
X144172645Y-81705500D01*
X144240766Y-81725502D01*
X144287259Y-81779158D01*
X144298634Y-81829913D01*
X144300288Y-81961252D01*
X144308017Y-82575521D01*
X144308388Y-82585555D01*
X144309138Y-82597766D01*
X144309991Y-82607700D01*
X144329302Y-82782591D01*
X144332465Y-82802358D01*
X144337510Y-82826338D01*
X144342566Y-82845650D01*
X144342578Y-82845692D01*
X144393509Y-83007611D01*
X144400431Y-83026372D01*
X144400444Y-83026403D01*
X144410001Y-83048876D01*
X144410036Y-83048954D01*
X144418718Y-83066891D01*
X144418732Y-83066918D01*
X144418737Y-83066928D01*
X144500053Y-83215943D01*
X144510482Y-83233019D01*
X144518441Y-83244730D01*
X144524247Y-83253273D01*
X144524253Y-83253281D01*
X144524255Y-83253284D01*
X144536289Y-83269260D01*
X144644904Y-83399714D01*
X144649173Y-83404361D01*
X144658430Y-83414439D01*
X144658437Y-83414445D01*
X144658438Y-83414447D01*
X144675873Y-83431664D01*
X144675881Y-83431672D01*
X144675887Y-83431677D01*
X144684380Y-83439284D01*
X144690774Y-83445011D01*
X144822585Y-83551977D01*
X144823947Y-83552976D01*
X144838694Y-83563797D01*
X144838703Y-83563803D01*
X144838714Y-83563811D01*
X144859147Y-83577325D01*
X144866803Y-83581869D01*
X144876360Y-83587542D01*
X144956178Y-83629802D01*
X145026383Y-83666973D01*
X145026389Y-83666976D01*
X145026397Y-83666980D01*
X145026402Y-83666982D01*
X145044484Y-83675457D01*
X145044493Y-83675461D01*
X145057893Y-83680962D01*
X145067149Y-83684762D01*
X145086007Y-83691451D01*
X145248573Y-83740346D01*
X145258726Y-83742867D01*
X145267953Y-83745160D01*
X145267966Y-83745163D01*
X145267986Y-83745168D01*
X145292022Y-83749910D01*
X145311815Y-83752822D01*
X145480717Y-83769324D01*
X145500784Y-83770298D01*
X145500787Y-83770297D01*
X145500788Y-83770298D01*
X145500827Y-83770297D01*
X145525387Y-83770288D01*
X145545446Y-83769298D01*
X145626222Y-83761342D01*
X145713325Y-83752763D01*
X145713329Y-83752762D01*
X145713343Y-83752761D01*
X145733287Y-83749803D01*
X145757511Y-83744985D01*
X145757530Y-83744980D01*
X145757541Y-83744978D01*
X145765469Y-83742991D01*
X145777076Y-83740085D01*
X145833858Y-83722861D01*
X145847352Y-83718768D01*
X145847355Y-83718766D01*
X145847361Y-83718765D01*
X145874743Y-83708272D01*
X145907231Y-83693083D01*
X145907241Y-83693075D01*
X145910182Y-83691295D01*
X145914538Y-83688903D01*
X145916344Y-83687737D01*
X145916353Y-83687733D01*
X145943652Y-83665384D01*
X145946987Y-83662747D01*
X145976760Y-83640033D01*
X145976765Y-83640026D01*
X145976771Y-83640021D01*
X145981671Y-83634262D01*
X145987121Y-83629802D01*
X146004431Y-83607517D01*
X146022707Y-83586043D01*
X146025839Y-83581868D01*
X146082726Y-83539391D01*
X146126616Y-83531500D01*
X146749747Y-83531500D01*
X146749748Y-83531500D01*
X146808231Y-83519867D01*
X146874552Y-83475552D01*
X146918867Y-83409231D01*
X146930500Y-83350748D01*
X146930500Y-81961252D01*
X146918867Y-81902769D01*
X146874552Y-81836448D01*
X146808231Y-81792133D01*
X146808226Y-81792131D01*
X146806243Y-81791737D01*
X146802322Y-81789686D01*
X146796763Y-81787383D01*
X146796969Y-81786885D01*
X146743335Y-81758826D01*
X146708207Y-81697129D01*
X146706594Y-81659090D01*
X146705179Y-81658989D01*
X146705500Y-81654500D01*
X146705500Y-73944464D01*
X146712605Y-73920263D01*
X146715526Y-73895208D01*
X146724140Y-73880981D01*
X146725502Y-73876343D01*
X146734092Y-73864542D01*
X146785025Y-73802479D01*
X146802479Y-73785025D01*
X146864534Y-73734098D01*
X146929878Y-73706347D01*
X146944464Y-73705500D01*
X150493811Y-73705500D01*
X150493813Y-73705500D01*
X150503903Y-73705252D01*
X150516251Y-73704645D01*
X150526304Y-73703903D01*
X150590492Y-73697580D01*
X150702865Y-73686513D01*
X150702873Y-73686511D01*
X150702881Y-73686511D01*
X150722825Y-73683553D01*
X150747049Y-73678735D01*
X150747068Y-73678730D01*
X150747079Y-73678728D01*
X150760141Y-73675455D01*
X150766614Y-73673835D01*
X150930460Y-73624134D01*
X150949451Y-73617339D01*
X150972272Y-73607886D01*
X150990502Y-73599263D01*
X151141500Y-73518552D01*
X151142541Y-73517927D01*
X151142657Y-73517895D01*
X151142828Y-73517799D01*
X151142846Y-73517832D01*
X151142864Y-73517823D01*
X151142871Y-73517836D01*
X151207320Y-73500000D01*
X151500000Y-73500000D01*
X153500000Y-73500000D01*
X153792679Y-73500000D01*
X153857128Y-73517836D01*
G37*
%TD.AperFunction*%
%TD*%
M02*
