%TF.GenerationSoftware,KiCad,Pcbnew,9.0.7*%
%TF.CreationDate,2026-03-15T18:36:39-05:00*%
%TF.ProjectId,Smart_MoCo,536d6172-745f-44d6-9f43-6f2e6b696361,rev?*%
%TF.SameCoordinates,Original*%
%TF.FileFunction,Copper,L4,Bot*%
%TF.FilePolarity,Positive*%
%FSLAX46Y46*%
G04 Gerber Fmt 4.6, Leading zero omitted, Abs format (unit mm)*
G04 Created by KiCad (PCBNEW 9.0.7) date 2026-03-15 18:36:39*
%MOMM*%
%LPD*%
G01*
G04 APERTURE LIST*
G04 Aperture macros list*
%AMRoundRect*
0 Rectangle with rounded corners*
0 $1 Rounding radius*
0 $2 $3 $4 $5 $6 $7 $8 $9 X,Y pos of 4 corners*
0 Add a 4 corners polygon primitive as box body*
4,1,4,$2,$3,$4,$5,$6,$7,$8,$9,$2,$3,0*
0 Add four circle primitives for the rounded corners*
1,1,$1+$1,$2,$3*
1,1,$1+$1,$4,$5*
1,1,$1+$1,$6,$7*
1,1,$1+$1,$8,$9*
0 Add four rect primitives between the rounded corners*
20,1,$1+$1,$2,$3,$4,$5,0*
20,1,$1+$1,$4,$5,$6,$7,0*
20,1,$1+$1,$6,$7,$8,$9,0*
20,1,$1+$1,$8,$9,$2,$3,0*%
G04 Aperture macros list end*
%TA.AperFunction,ComponentPad*%
%ADD10C,1.574800*%
%TD*%
%TA.AperFunction,ComponentPad*%
%ADD11C,2.260600*%
%TD*%
%TA.AperFunction,ComponentPad*%
%ADD12RoundRect,0.250000X0.725000X-0.600000X0.725000X0.600000X-0.725000X0.600000X-0.725000X-0.600000X0*%
%TD*%
%TA.AperFunction,ComponentPad*%
%ADD13O,1.950000X1.700000*%
%TD*%
%TA.AperFunction,ComponentPad*%
%ADD14C,1.600000*%
%TD*%
%TA.AperFunction,ComponentPad*%
%ADD15RoundRect,0.250000X0.750000X-0.600000X0.750000X0.600000X-0.750000X0.600000X-0.750000X-0.600000X0*%
%TD*%
%TA.AperFunction,ComponentPad*%
%ADD16O,2.000000X1.700000*%
%TD*%
%TA.AperFunction,ComponentPad*%
%ADD17R,1.700000X1.700000*%
%TD*%
%TA.AperFunction,ComponentPad*%
%ADD18C,1.700000*%
%TD*%
%TA.AperFunction,SMDPad,CuDef*%
%ADD19RoundRect,0.150000X0.150000X-0.825000X0.150000X0.825000X-0.150000X0.825000X-0.150000X-0.825000X0*%
%TD*%
%TA.AperFunction,SMDPad,CuDef*%
%ADD20RoundRect,0.100000X-0.637500X-0.100000X0.637500X-0.100000X0.637500X0.100000X-0.637500X0.100000X0*%
%TD*%
%TA.AperFunction,SMDPad,CuDef*%
%ADD21RoundRect,0.237500X0.250000X0.237500X-0.250000X0.237500X-0.250000X-0.237500X0.250000X-0.237500X0*%
%TD*%
%TA.AperFunction,SMDPad,CuDef*%
%ADD22RoundRect,0.237500X-0.237500X0.250000X-0.237500X-0.250000X0.237500X-0.250000X0.237500X0.250000X0*%
%TD*%
%TA.AperFunction,SMDPad,CuDef*%
%ADD23RoundRect,0.237500X0.237500X-0.300000X0.237500X0.300000X-0.237500X0.300000X-0.237500X-0.300000X0*%
%TD*%
%TA.AperFunction,SMDPad,CuDef*%
%ADD24RoundRect,0.250001X0.462499X0.849999X-0.462499X0.849999X-0.462499X-0.849999X0.462499X-0.849999X0*%
%TD*%
%TA.AperFunction,SMDPad,CuDef*%
%ADD25RoundRect,0.150000X0.825000X0.150000X-0.825000X0.150000X-0.825000X-0.150000X0.825000X-0.150000X0*%
%TD*%
%TA.AperFunction,SMDPad,CuDef*%
%ADD26RoundRect,0.237500X-0.250000X-0.237500X0.250000X-0.237500X0.250000X0.237500X-0.250000X0.237500X0*%
%TD*%
%TA.AperFunction,SMDPad,CuDef*%
%ADD27R,0.660000X1.350000*%
%TD*%
%TA.AperFunction,SMDPad,CuDef*%
%ADD28R,10.300000X5.250000*%
%TD*%
%TA.AperFunction,SMDPad,CuDef*%
%ADD29R,6.230000X5.250000*%
%TD*%
%TA.AperFunction,SMDPad,CuDef*%
%ADD30RoundRect,0.237500X-0.300000X-0.237500X0.300000X-0.237500X0.300000X0.237500X-0.300000X0.237500X0*%
%TD*%
%TA.AperFunction,SMDPad,CuDef*%
%ADD31RoundRect,0.150000X-0.512500X-0.150000X0.512500X-0.150000X0.512500X0.150000X-0.512500X0.150000X0*%
%TD*%
%TA.AperFunction,ComponentPad*%
%ADD32RoundRect,0.250000X-0.825000X-0.825000X0.825000X-0.825000X0.825000X0.825000X-0.825000X0.825000X0*%
%TD*%
%TA.AperFunction,ViaPad*%
%ADD33C,0.600000*%
%TD*%
%TA.AperFunction,Conductor*%
%ADD34C,0.250000*%
%TD*%
G04 APERTURE END LIST*
D10*
%TO.P,J6,1,1*%
%TO.N,/OUTA*%
X141500000Y-71499999D03*
%TO.P,J6,2,2*%
%TO.N,/OUTB*%
X141500000Y-75000001D03*
D11*
%TO.P,J6,MP*%
%TO.N,N/C*%
X133589932Y-69000000D03*
X133589932Y-77499998D03*
%TD*%
D12*
%TO.P,J2,1,Pin_1*%
%TO.N,+3V3*%
X162500000Y-73000000D03*
D13*
%TO.P,J2,2,Pin_2*%
%TO.N,ENC_A{slash}PWM*%
X162500000Y-70500000D03*
%TO.P,J2,3,Pin_3*%
%TO.N,ENC_B*%
X162500000Y-68000000D03*
%TO.P,J2,4,Pin_4*%
%TO.N,GND*%
X162500000Y-65500000D03*
%TD*%
D10*
%TO.P,J5,1,1*%
%TO.N,Net-(U5-D)*%
X141500000Y-83000000D03*
%TO.P,J5,2,2*%
%TO.N,GND*%
X141500000Y-86500002D03*
D11*
%TO.P,J5,MP*%
%TO.N,N/C*%
X133589932Y-80500001D03*
X133589932Y-88999999D03*
%TD*%
D14*
%TO.P,C2,1*%
%TO.N,+12V*%
X147000000Y-84800000D03*
%TO.P,C2,2*%
%TO.N,GND*%
X150500000Y-84800000D03*
%TD*%
D15*
%TO.P,J3,1,Pin_1*%
%TO.N,LIM_A*%
X162555000Y-81500000D03*
D16*
%TO.P,J3,2,Pin_2*%
%TO.N,LIM_B*%
X162555000Y-79000000D03*
%TD*%
D15*
%TO.P,J1,1,Pin_1*%
%TO.N,CANH*%
X162555000Y-90000000D03*
D16*
%TO.P,J1,2,Pin_2*%
%TO.N,CANL*%
X162555000Y-87500000D03*
%TD*%
D17*
%TO.P,J4,1,Pin_1*%
%TO.N,+3V3*%
X149880000Y-93500000D03*
D18*
%TO.P,J4,2,Pin_2*%
%TO.N,SWCLK*%
X152420000Y-93500000D03*
%TO.P,J4,3,Pin_3*%
%TO.N,SWDIO*%
X154960000Y-93500000D03*
%TO.P,J4,4,Pin_4*%
%TO.N,GND*%
X157500000Y-93500000D03*
%TD*%
D19*
%TO.P,U3,1,D*%
%TO.N,CAN_TX*%
X168945000Y-90950000D03*
%TO.P,U3,2,GND*%
%TO.N,GND*%
X167675000Y-90950000D03*
%TO.P,U3,3,VCC*%
%TO.N,+3V3*%
X166405000Y-90950000D03*
%TO.P,U3,4,R*%
%TO.N,CAN_RX*%
X165135000Y-90950000D03*
%TO.P,U3,5,NC*%
%TO.N,unconnected-(U3-NC-Pad5)*%
X165135000Y-86000000D03*
%TO.P,U3,6,CANL*%
%TO.N,CANL*%
X166405000Y-86000000D03*
%TO.P,U3,7,CANH*%
%TO.N,CANH*%
X167675000Y-86000000D03*
%TO.P,U3,8,NC*%
%TO.N,unconnected-(U3-NC-Pad8)*%
X168945000Y-86000000D03*
%TD*%
D20*
%TO.P,U1,1,PB8*%
%TO.N,GPIO*%
X153657552Y-91900000D03*
%TO.P,U1,2,PF0*%
%TO.N,IN_B*%
X153657552Y-91250000D03*
%TO.P,U1,3,PF1*%
%TO.N,IN_A*%
X153657552Y-90600000D03*
%TO.P,U1,4,NRST*%
%TO.N,unconnected-(U1-NRST-Pad4)*%
X153657552Y-89950000D03*
%TO.P,U1,5,VDDA*%
%TO.N,+3V3*%
X153657552Y-89300000D03*
%TO.P,U1,6,PA0*%
%TO.N,CS*%
X153657552Y-88650000D03*
%TO.P,U1,7,PA1*%
%TO.N,ENC_B*%
X153657552Y-88000000D03*
%TO.P,U1,8,PA2*%
%TO.N,LIM_A*%
X153657552Y-87350000D03*
%TO.P,U1,9,PA3*%
%TO.N,LIM_B*%
X153657552Y-86700000D03*
%TO.P,U1,10,PA4*%
%TO.N,PWM*%
X153657552Y-86050000D03*
%TO.P,U1,11,PA5*%
%TO.N,ENC_A{slash}PWM*%
X159382552Y-86050000D03*
%TO.P,U1,12,PA6*%
%TO.N,LED_R*%
X159382552Y-86700000D03*
%TO.P,U1,13,PA7*%
%TO.N,LED_G*%
X159382552Y-87350000D03*
%TO.P,U1,14,PB1*%
%TO.N,LED_B*%
X159382552Y-88000000D03*
%TO.P,U1,15,VSSA*%
%TO.N,GND*%
X159382552Y-88650000D03*
%TO.P,U1,16,VDD*%
%TO.N,+3V3*%
X159382552Y-89300000D03*
%TO.P,U1,17,PA9/PA11*%
%TO.N,CAN_RX*%
X159382552Y-89950000D03*
%TO.P,U1,18,PA10/PA12*%
%TO.N,CAN_TX*%
X159382552Y-90600000D03*
%TO.P,U1,19,PA13*%
%TO.N,SWDIO*%
X159382552Y-91250000D03*
%TO.P,U1,20,PA14*%
%TO.N,SWCLK*%
X159382552Y-91900000D03*
%TD*%
D21*
%TO.P,R7,1*%
%TO.N,Net-(U4-FB)*%
X167746000Y-70825500D03*
%TO.P,R7,2*%
%TO.N,GND*%
X165921000Y-70825500D03*
%TD*%
D22*
%TO.P,R10,1*%
%TO.N,LED_B*%
X141000000Y-92175000D03*
%TO.P,R10,2*%
%TO.N,Net-(D1-BA)*%
X141000000Y-94000000D03*
%TD*%
D23*
%TO.P,C4,1*%
%TO.N,+3V3*%
X164000000Y-77000000D03*
%TO.P,C4,2*%
%TO.N,GND*%
X164000000Y-75275000D03*
%TD*%
D24*
%TO.P,L1,1,1*%
%TO.N,Net-(U4-SW)*%
X168019500Y-77429500D03*
%TO.P,L1,2,2*%
%TO.N,+3V3*%
X165694500Y-77429500D03*
%TD*%
D25*
%TO.P,U5,1,S*%
%TO.N,+12V*%
X142000000Y-77190000D03*
%TO.P,U5,2*%
X142000000Y-78460000D03*
%TO.P,U5,3*%
X142000000Y-79730000D03*
%TO.P,U5,4,G*%
%TO.N,Net-(U5-G)*%
X142000000Y-81000000D03*
%TO.P,U5,5,D*%
%TO.N,Net-(U5-D)*%
X137050000Y-81000000D03*
%TO.P,U5,6*%
X137050000Y-79730000D03*
%TO.P,U5,7*%
X137050000Y-78460000D03*
%TO.P,U5,8*%
X137050000Y-77190000D03*
%TD*%
D21*
%TO.P,R9,1*%
%TO.N,LED_G*%
X141825000Y-90500000D03*
%TO.P,R9,2*%
%TO.N,Net-(D1-GA)*%
X140000000Y-90500000D03*
%TD*%
D26*
%TO.P,R1,1*%
%TO.N,Net-(U2-CS)*%
X149675000Y-88200000D03*
%TO.P,R1,2*%
%TO.N,CS*%
X151500000Y-88200000D03*
%TD*%
D22*
%TO.P,R6,1*%
%TO.N,+3V3*%
X170000000Y-70825500D03*
%TO.P,R6,2*%
%TO.N,Net-(U4-FB)*%
X170000000Y-72650500D03*
%TD*%
%TO.P,R12,1*%
%TO.N,IN_B*%
X143500000Y-90175000D03*
%TO.P,R12,2*%
%TO.N,Net-(D2-A)*%
X143500000Y-92000000D03*
%TD*%
D27*
%TO.P,U2,1,OUTA*%
%TO.N,/OUTA*%
X159400000Y-82656000D03*
%TO.P,U2,2,NC*%
%TO.N,unconnected-(U2-NC-Pad2)*%
X158400000Y-82656000D03*
%TO.P,U2,3,VCC*%
%TO.N,+12V*%
X157400000Y-82656000D03*
%TO.P,U2,4,INA*%
%TO.N,IN_A*%
X156400000Y-82656000D03*
%TO.P,U2,5,EN/DIAGA*%
%TO.N,Net-(U2-EN{slash}DIAGA)*%
X155400000Y-82656000D03*
%TO.P,U2,6,CS_DIS*%
%TO.N,GND*%
X154400000Y-82656000D03*
%TO.P,U2,7,PWM*%
%TO.N,PWM*%
X153400000Y-82656000D03*
%TO.P,U2,8,CS*%
%TO.N,Net-(U2-CS)*%
X152400000Y-82656000D03*
%TO.P,U2,9,EN/DIAGB*%
%TO.N,Net-(U2-EN{slash}DIAGB)*%
X151400000Y-82656000D03*
%TO.P,U2,10,INB*%
%TO.N,IN_B*%
X150400000Y-82656000D03*
%TO.P,U2,11,CP*%
%TO.N,unconnected-(U2-CP-Pad11)*%
X149400000Y-82656000D03*
%TO.P,U2,12,VBAT*%
%TO.N,+12V*%
X148400000Y-82656000D03*
%TO.P,U2,13,VCC*%
X147400000Y-82656000D03*
%TO.P,U2,14,NC*%
%TO.N,unconnected-(U2-NC-Pad14)*%
X146400000Y-82656000D03*
%TO.P,U2,15,OUTB*%
%TO.N,/OUTB*%
X145400000Y-82656000D03*
%TO.P,U2,16,OUTB*%
X145400000Y-64406000D03*
%TO.P,U2,17,NC*%
%TO.N,unconnected-(U2-NC-Pad17)*%
X146400000Y-64406000D03*
%TO.P,U2,18,GNDB*%
%TO.N,GND*%
X147400000Y-64406000D03*
%TO.P,U2,19,GNDB*%
X148400000Y-64406000D03*
%TO.P,U2,20,GNDB*%
X149400000Y-64406000D03*
%TO.P,U2,21,OUTB*%
%TO.N,/OUTB*%
X150400000Y-64406000D03*
%TO.P,U2,22,NC*%
%TO.N,unconnected-(U2-NC-Pad22)*%
X151400000Y-64406000D03*
%TO.P,U2,23,VCC*%
%TO.N,+12V*%
X152400000Y-64406000D03*
%TO.P,U2,24,NC*%
%TO.N,unconnected-(U2-NC-Pad24)*%
X153400000Y-64406000D03*
%TO.P,U2,25,OUTA*%
%TO.N,/OUTA*%
X154400000Y-64406000D03*
%TO.P,U2,26,GNDA*%
%TO.N,GND*%
X155400000Y-64406000D03*
%TO.P,U2,27,GNDA*%
X156400000Y-64406000D03*
%TO.P,U2,28,GNDA*%
X157400000Y-64406000D03*
%TO.P,U2,29,NC*%
%TO.N,unconnected-(U2-NC-Pad29)*%
X158400000Y-64406000D03*
%TO.P,U2,30,OUTA*%
%TO.N,/OUTA*%
X159400000Y-64406000D03*
D28*
%TO.P,U2,31,VCC*%
%TO.N,+12V*%
X152400000Y-76581000D03*
D29*
%TO.P,U2,32,OUTB*%
%TO.N,/OUTB*%
X148235000Y-70481000D03*
%TO.P,U2,33,OUTA*%
%TO.N,/OUTA*%
X156565000Y-70481000D03*
%TD*%
D30*
%TO.P,C11,1*%
%TO.N,+3V3*%
X164437500Y-93200000D03*
%TO.P,C11,2*%
%TO.N,GND*%
X166162500Y-93200000D03*
%TD*%
D26*
%TO.P,R4,1*%
%TO.N,Net-(U2-CS)*%
X149675000Y-86700000D03*
%TO.P,R4,2*%
%TO.N,GND*%
X151500000Y-86700000D03*
%TD*%
D23*
%TO.P,C5,1*%
%TO.N,+3V3*%
X162500000Y-77000000D03*
%TO.P,C5,2*%
%TO.N,GND*%
X162500000Y-75275000D03*
%TD*%
D30*
%TO.P,C1,1*%
%TO.N,GND*%
X149675000Y-89700000D03*
%TO.P,C1,2*%
%TO.N,CS*%
X151400000Y-89700000D03*
%TD*%
D31*
%TO.P,U4,1,GND*%
%TO.N,GND*%
X165725000Y-74762500D03*
%TO.P,U4,2,SW*%
%TO.N,Net-(U4-SW)*%
X165725000Y-73812500D03*
%TO.P,U4,3,VIN*%
%TO.N,+12V*%
X165725000Y-72862500D03*
%TO.P,U4,4,FB*%
%TO.N,Net-(U4-FB)*%
X168000000Y-72862500D03*
%TO.P,U4,5,EN*%
%TO.N,unconnected-(U4-EN-Pad5)*%
X168000000Y-73812500D03*
%TO.P,U4,6,BST*%
%TO.N,Net-(U4-BST)*%
X168000000Y-74762500D03*
%TD*%
D22*
%TO.P,R11,1*%
%TO.N,IN_A*%
X146000000Y-90175000D03*
%TO.P,R11,2*%
%TO.N,Net-(D3-A)*%
X146000000Y-92000000D03*
%TD*%
D21*
%TO.P,R5,1*%
%TO.N,CANH*%
X167857500Y-84000000D03*
%TO.P,R5,2*%
%TO.N,CANL*%
X166032500Y-84000000D03*
%TD*%
D22*
%TO.P,R8,1*%
%TO.N,LED_R*%
X138000000Y-90675000D03*
%TO.P,R8,2*%
%TO.N,Net-(D1-RA)*%
X138000000Y-92500000D03*
%TD*%
D23*
%TO.P,C3,1*%
%TO.N,Net-(U4-SW)*%
X170000000Y-76641000D03*
%TO.P,C3,2*%
%TO.N,Net-(U4-BST)*%
X170000000Y-74916000D03*
%TD*%
D32*
%TO.P,J7,1,Pin_1*%
%TO.N,GPIO*%
X168900000Y-93800000D03*
%TD*%
D33*
%TO.N,GND*%
X149675000Y-89700000D03*
X151500000Y-86350000D03*
X149400000Y-64406000D03*
X167675000Y-90950000D03*
X143500000Y-94000000D03*
X161000000Y-89500000D03*
X158000000Y-90571000D03*
X156400000Y-64406000D03*
X146000000Y-94000000D03*
X154400000Y-82656000D03*
X157400000Y-64406000D03*
X147400000Y-64406000D03*
X162500000Y-75275000D03*
X155000000Y-90571000D03*
X166162500Y-93200000D03*
X155400000Y-64406000D03*
X138129800Y-94000000D03*
X148400000Y-64406000D03*
X165921000Y-70825500D03*
%TO.N,+3V3*%
X158000000Y-89436000D03*
X162500000Y-77000000D03*
X170000000Y-70825500D03*
X166405000Y-90950000D03*
X164437500Y-93200000D03*
X155000000Y-89436000D03*
X159000000Y-80500000D03*
%TO.N,+12V*%
X157000000Y-78000000D03*
X148000000Y-81000000D03*
X148000000Y-75000000D03*
X154000000Y-75000000D03*
X165725000Y-72862500D03*
X148000000Y-78000000D03*
X144000000Y-78000000D03*
X151000000Y-75000000D03*
X154000000Y-78000000D03*
X158000000Y-75000000D03*
X154000000Y-81000000D03*
X147400000Y-82656000D03*
X148400000Y-82656000D03*
X151000000Y-81000000D03*
X151000000Y-78000000D03*
X157000000Y-81000000D03*
%TO.N,Net-(U2-EN{slash}DIAGA)*%
X155400000Y-82656000D03*
%TO.N,Net-(U2-EN{slash}DIAGB)*%
X151400000Y-82600000D03*
%TO.N,ENC_A{slash}PWM*%
X159382552Y-86000000D03*
%TO.N,Net-(D1-GA)*%
X140000000Y-90500000D03*
%TO.N,IN_A*%
X156400000Y-82656000D03*
X148000000Y-86974999D03*
%TO.N,Net-(D2-A)*%
X143500000Y-92250000D03*
%TO.N,LED_R*%
X138000000Y-89500000D03*
X158000000Y-86725000D03*
%TO.N,Net-(D3-A)*%
X146000000Y-92250000D03*
%TO.N,IN_B*%
X144800000Y-86975000D03*
X150400000Y-82656000D03*
%TO.N,Net-(D1-RA)*%
X138129800Y-92550000D03*
%TO.N,PWM*%
X153657552Y-86000000D03*
X153400000Y-82656000D03*
%TO.N,LED_G*%
X157500000Y-87500000D03*
X141825000Y-90500000D03*
%TO.N,/OUTB*%
X145400000Y-82656000D03*
%TO.N,/OUTA*%
X155000000Y-66000000D03*
X155000000Y-69000000D03*
X159000000Y-67500000D03*
X155000000Y-67500000D03*
X155000000Y-70500000D03*
X154400000Y-64406000D03*
X159000000Y-66000000D03*
X155000000Y-72000000D03*
X159000000Y-70500000D03*
X157000000Y-67500000D03*
X159000000Y-69000000D03*
X157000000Y-69000000D03*
X157000000Y-72000000D03*
X157000000Y-70500000D03*
X159400000Y-64406000D03*
X159000000Y-72000000D03*
X157000000Y-66000000D03*
%TO.N,LED_B*%
X158065687Y-88065687D03*
X142067476Y-91991386D03*
%TO.N,Net-(D1-BA)*%
X141000000Y-94000000D03*
%TO.N,GPIO*%
X155938066Y-91638065D03*
%TO.N,Net-(U5-G)*%
X142000000Y-81000000D03*
%TD*%
D34*
%TO.N,GPIO*%
X155807096Y-91769027D02*
G75*
G02*
X155490912Y-91899991I-316196J316227D01*
G01*
%TO.N,LED_B*%
X141313444Y-91991369D02*
G75*
G03*
X141091781Y-92083161I-44J-313431D01*
G01*
X158177819Y-87999992D02*
G75*
G03*
X158098522Y-88032833I-19J-112108D01*
G01*
%TO.N,Net-(U4-FB)*%
X168000000Y-71971000D02*
G75*
G03*
X168891500Y-72862500I891500J0D01*
G01*
%TO.N,Net-(U4-SW)*%
X166550497Y-73975499D02*
G75*
G02*
X166713492Y-74369018I-393497J-393501D01*
G01*
X167598054Y-77008065D02*
G75*
G03*
X168615501Y-77429499I1017446J1017465D01*
G01*
X166272236Y-73812498D02*
G75*
G02*
X166468986Y-73894007I-36J-278302D01*
G01*
X168653947Y-77429530D02*
G75*
G03*
X169605759Y-77035274I53J1345930D01*
G01*
X166713506Y-75200008D02*
G75*
G03*
X167366491Y-76776514I2229594J8D01*
G01*
%TO.N,LED_G*%
X157756068Y-87350014D02*
G75*
G03*
X157575018Y-87425022I32J-256086D01*
G01*
%TO.N,CAN_RX*%
X160250430Y-90080344D02*
G75*
G03*
X159935681Y-89949986I-314730J-314756D01*
G01*
X164196087Y-91499994D02*
G75*
G03*
X164859998Y-91224999I13J938894D01*
G01*
X160895073Y-90724969D02*
G75*
G03*
X162766115Y-91499932I1871027J1871169D01*
G01*
%TO.N,CAN_TX*%
X168945033Y-91809747D02*
G75*
G02*
X168863551Y-92006530I-278233J-53D01*
G01*
X159920637Y-90599998D02*
G75*
G02*
X160226804Y-90726846I-37J-433002D01*
G01*
X168388469Y-92251032D02*
G75*
G03*
X168782051Y-92088046I31J556632D01*
G01*
X160925498Y-91425514D02*
G75*
G03*
X162918441Y-92250998I1992902J1992914D01*
G01*
%TO.N,IN_B*%
X152820552Y-91150499D02*
G75*
G03*
X152580337Y-91050968I-240252J-240201D01*
G01*
X152820552Y-91150499D02*
G75*
G03*
X153060767Y-91250027I240248J240199D01*
G01*
X144150000Y-87625000D02*
G75*
G03*
X143500016Y-89194238I1569200J-1569200D01*
G01*
X143500000Y-89555575D02*
G75*
G03*
X143937992Y-90613006I1495400J-25D01*
G01*
X143937999Y-90612999D02*
G75*
G03*
X144995423Y-91050989I1057401J1057399D01*
G01*
%TO.N,LED_R*%
X158029428Y-86700028D02*
G75*
G03*
X158021893Y-86703156I-28J-10572D01*
G01*
X158012795Y-86712834D02*
G75*
G03*
X158006253Y-86718757I57205J-69766D01*
G01*
X158036535Y-86702093D02*
G75*
G03*
X158017630Y-86708879I65J-29907D01*
G01*
X158004689Y-86720317D02*
X158001563Y-86723439D01*
%TO.N,IN_A*%
X148000000Y-90049999D02*
G75*
G03*
X148550000Y-90600000I550000J-1D01*
G01*
X147450000Y-90599999D02*
G75*
G03*
X147999999Y-90049999I0J549999D01*
G01*
X146687498Y-90387503D02*
G75*
G03*
X147200518Y-90599995I513002J513003D01*
G01*
X146237498Y-90175004D02*
G75*
G02*
X146642940Y-90342936I2J-573396D01*
G01*
X148550000Y-90600000D02*
X147450000Y-90599999D01*
%TO.N,LIM_B*%
X158500006Y-84499998D02*
G75*
G03*
X155939317Y-85560647I-6J-3621402D01*
G01*
X159292919Y-84499998D02*
G75*
G03*
X160500000Y-84000002I-19J1707098D01*
G01*
X155203906Y-86296068D02*
G75*
G02*
X154228771Y-86700023I-975206J975168D01*
G01*
X160999993Y-82792916D02*
G75*
G02*
X160499996Y-83999998I-1707093J16D01*
G01*
X161777500Y-79777500D02*
G75*
G03*
X160999980Y-81654550I1877100J-1877100D01*
G01*
%TO.N,LIM_A*%
X158820285Y-85200002D02*
G75*
G03*
X156225006Y-86275008I15J-3670298D01*
G01*
X154403777Y-87350002D02*
G75*
G03*
X155677664Y-86822345I23J1801502D01*
G01*
X162555000Y-83398996D02*
G75*
G02*
X162027500Y-84672499I-1801000J-4D01*
G01*
X162027498Y-84672497D02*
G75*
G02*
X160753996Y-85199997I-1273498J1273497D01*
G01*
%TO.N,ENC_B*%
X152838544Y-87918498D02*
G75*
G03*
X153035313Y-87999985I196756J196798D01*
G01*
X152997005Y-84402987D02*
G75*
G03*
X152594006Y-85375879I972895J-972913D01*
G01*
X161000026Y-79598287D02*
G75*
G02*
X160774531Y-80142709I-769926J-13D01*
G01*
X153969902Y-84000002D02*
G75*
G03*
X152997002Y-84402984I-2J-1375898D01*
G01*
X152594005Y-87443485D02*
G75*
G03*
X152757014Y-87837016I556495J-15D01*
G01*
X160548957Y-82827523D02*
G75*
G02*
X160205566Y-83656581I-1172557J23D01*
G01*
X160774518Y-80142696D02*
G75*
G03*
X160549012Y-80687104I544382J-544404D01*
G01*
X161749992Y-68749997D02*
G75*
G03*
X161000017Y-70560658I1810608J-1810603D01*
G01*
X160205566Y-83656581D02*
G75*
G02*
X159376546Y-84000016I-829066J828981D01*
G01*
%TO.N,CANL*%
X166311863Y-84279379D02*
G75*
G02*
X166404975Y-84504203I-224863J-224821D01*
G01*
X166405015Y-86792190D02*
G75*
G02*
X166275745Y-87104269I-441315J-10D01*
G01*
X165508760Y-87500015D02*
G75*
G03*
X166142520Y-87237520I40J896215D01*
G01*
%TO.N,CANH*%
X164322887Y-89734408D02*
G75*
G02*
X163681731Y-89999990I-641187J641208D01*
G01*
X166633266Y-88366689D02*
G75*
G02*
X165828654Y-88699986I-804666J804689D01*
G01*
X167674985Y-86993743D02*
G75*
G02*
X167440750Y-87559216I-799785J43D01*
G01*
X165828654Y-88699994D02*
G75*
G03*
X165024030Y-89033287I46J-1138006D01*
G01*
X167675000Y-84212460D02*
X167675000Y-84272380D01*
X167675000Y-84332300D02*
X167675000Y-84392220D01*
X167675000Y-85209553D02*
X167675001Y-85346226D01*
X167675000Y-84867872D02*
X167675000Y-85141217D01*
X167675000Y-84392220D02*
X167675000Y-84452140D01*
X167675000Y-84542020D02*
X167675000Y-84781700D01*
%TO.N,SWDIO*%
X158296280Y-91250008D02*
G75*
G03*
X156441903Y-92018133I20J-2622492D01*
G01*
%TO.N,SWCLK*%
X159382531Y-92868940D02*
G75*
G02*
X158853243Y-94146685I-1807031J40D01*
G01*
X153008000Y-94087999D02*
G75*
G03*
X154427557Y-94675975I1419500J1419499D01*
G01*
X158853245Y-94146687D02*
G75*
G02*
X157575484Y-94675934I-1277745J1277787D01*
G01*
%TO.N,Net-(U2-CS)*%
X152400000Y-83552699D02*
G75*
G02*
X152013000Y-84487000I-1321300J-1D01*
G01*
X151626000Y-85070203D02*
G75*
G02*
X151487267Y-85405146I-473700J3D01*
G01*
X149933703Y-86700000D02*
G75*
G03*
X149675000Y-86958703I-3J-258700D01*
G01*
X150375336Y-86517069D02*
G75*
G02*
X149933703Y-86699991I-441636J441669D01*
G01*
X151764736Y-84735263D02*
G75*
G03*
X151626008Y-85070203I334964J-334937D01*
G01*
%TO.N,+3V3*%
X154767815Y-89300038D02*
G75*
G02*
X154931989Y-89368020I-15J-232262D01*
G01*
X158232178Y-89300056D02*
G75*
G03*
X158068020Y-89368038I22J-232244D01*
G01*
X165139627Y-77000000D02*
X165126072Y-77000000D01*
X164297616Y-77000000D02*
X164260351Y-77000000D01*
X162809217Y-77000000D02*
X162777030Y-77000000D01*
X163211562Y-77000000D02*
X163082812Y-77000000D01*
X162873593Y-77000000D02*
X162841405Y-77000000D01*
X164624608Y-77000000D02*
X164590702Y-77000000D01*
X164899062Y-77000000D02*
X164770312Y-77000000D01*
X163460702Y-77000000D02*
X163294608Y-77000000D01*
X164511855Y-77000000D02*
X164500019Y-77000000D01*
X165065078Y-77000000D02*
X165027812Y-77000000D01*
X164986308Y-77000000D02*
X164940566Y-77000000D01*
X165094726Y-77000000D02*
X165072696Y-77000000D01*
X165027812Y-77000000D02*
X164990546Y-77000000D01*
X164500019Y-77000000D02*
X164488183Y-77000000D01*
X164390780Y-77000000D02*
X164316249Y-77000000D01*
X164556796Y-77000000D02*
X164522890Y-77000000D01*
X163689081Y-77000000D02*
X163647557Y-77000000D01*
X164465312Y-77000000D02*
X164407734Y-77000000D01*
X163564510Y-77000000D02*
X163522987Y-77000000D01*
X164590702Y-77000000D02*
X164556796Y-77000000D01*
X162905781Y-77000000D02*
X162873593Y-77000000D01*
X163082812Y-77000000D02*
X162954062Y-77000000D01*
X165116756Y-77000000D02*
X165094726Y-77000000D01*
X163606033Y-77000000D02*
X163564510Y-77000000D01*
%TO.N,GND*%
X159958130Y-88650007D02*
G75*
G02*
X160285640Y-88785686I-30J-463193D01*
G01*
X165468749Y-75018750D02*
G75*
G02*
X164850106Y-75275003I-618649J618650D01*
G01*
%TO.N,CS*%
X152224997Y-88875002D02*
G75*
G03*
X152224997Y-88424998I-224997J225002D01*
G01*
X152768201Y-88650000D02*
G75*
G03*
X152224998Y-88875003I-1J-768200D01*
G01*
X152225002Y-88424992D02*
G75*
G03*
X152768201Y-88649994I543198J543192D01*
G01*
X152176779Y-88376767D02*
G75*
G03*
X151750002Y-88199976I-426779J-426733D01*
G01*
%TO.N,IN_B*%
X153060767Y-91250000D02*
X153657552Y-91250000D01*
X152580337Y-91050999D02*
X144995423Y-91050999D01*
X143500000Y-89194238D02*
X143500000Y-89555575D01*
X144800000Y-86975000D02*
X144150000Y-87625000D01*
%TO.N,CS*%
X151750002Y-88199992D02*
X151500000Y-88200000D01*
X152224997Y-88875002D02*
X151400000Y-89700000D01*
X152768201Y-88650000D02*
X153657552Y-88650000D01*
X152225002Y-88424992D02*
X152176779Y-88376767D01*
%TO.N,GND*%
X162500000Y-75275000D02*
X164850106Y-75275000D01*
X165468749Y-75018750D02*
X165725000Y-74762500D01*
X160285649Y-88785677D02*
X161000000Y-89500000D01*
X159958130Y-88650007D02*
X159766275Y-88649996D01*
%TO.N,+3V3*%
X165126072Y-77000000D02*
X165116756Y-77000000D01*
X162809217Y-77000000D02*
X162841405Y-77000000D01*
X163460702Y-77000000D02*
X163522987Y-77000000D01*
X164511855Y-77000000D02*
X164522890Y-77000000D01*
X154767815Y-89300038D02*
X153657552Y-89300000D01*
X164488183Y-77000000D02*
X164465312Y-77000000D01*
X154931988Y-89368021D02*
X155000000Y-89436000D01*
X158068012Y-89368030D02*
X158000000Y-89436000D01*
X165139627Y-77000000D02*
X165146405Y-77000000D01*
X164390780Y-77000000D02*
X164407734Y-77000000D01*
X158232178Y-89300056D02*
X159382552Y-89300000D01*
X163647557Y-77000000D02*
X163606033Y-77000000D01*
X164986308Y-77000000D02*
X164990546Y-77000000D01*
X163211562Y-77000000D02*
X163294608Y-77000000D01*
X164624608Y-77000000D02*
X164770312Y-77000000D01*
X162777030Y-77000000D02*
X162760937Y-77000000D01*
X165065078Y-77000000D02*
X165072696Y-77000000D01*
X164297616Y-77000000D02*
X164316249Y-77000000D01*
X164899062Y-77000000D02*
X164940566Y-77000000D01*
X163689081Y-77000000D02*
X163709843Y-77000000D01*
X164260351Y-77000000D02*
X164241719Y-77000000D01*
X162905781Y-77000000D02*
X162954062Y-77000000D01*
%TO.N,Net-(U2-CS)*%
X149675000Y-86958703D02*
X149675000Y-88200000D01*
X152012999Y-84486999D02*
X151764736Y-84735263D01*
X151487263Y-85405142D02*
X150375336Y-86517069D01*
X152400000Y-83552699D02*
X152400000Y-82656000D01*
%TO.N,SWCLK*%
X159382531Y-92868940D02*
X159382552Y-91900000D01*
X154427557Y-94675988D02*
X157575484Y-94675951D01*
X153008000Y-94087999D02*
X152420000Y-93500000D01*
%TO.N,SWDIO*%
X156441893Y-92018123D02*
X154960000Y-93500000D01*
X158296280Y-91250008D02*
X159382552Y-91250000D01*
%TO.N,CANH*%
X166633266Y-88366689D02*
X167440745Y-87559211D01*
X167675000Y-84452140D02*
X167675000Y-84542020D01*
X167675000Y-84867872D02*
X167675000Y-84781700D01*
X167674985Y-86993743D02*
X167675000Y-86662500D01*
X167675000Y-85209553D02*
X167675000Y-85141217D01*
X167675000Y-84272380D02*
X167675000Y-84332300D01*
X164322887Y-89734408D02*
X165024035Y-89033292D01*
X163681731Y-89999980D02*
X163306154Y-89999986D01*
X167675001Y-85346226D02*
X167675002Y-85414563D01*
X167675000Y-84212460D02*
X167675000Y-84182500D01*
%TO.N,CANL*%
X166405015Y-86792190D02*
X166405012Y-86609377D01*
X165508760Y-87500015D02*
X162555000Y-87500000D01*
X166311863Y-84279379D02*
X166218749Y-84186250D01*
X166275748Y-87104272D02*
X166142510Y-87237510D01*
X166404979Y-84504203D02*
X166404999Y-85351250D01*
%TO.N,ENC_B*%
X152838544Y-87918498D02*
X152757029Y-87837001D01*
X152594013Y-85375879D02*
X152594005Y-87443485D01*
X161749992Y-68749997D02*
X162500000Y-68000000D01*
X160548957Y-82827523D02*
X160549002Y-80687104D01*
X153969902Y-84000002D02*
X159376546Y-83999999D01*
X153035313Y-87999998D02*
X153150573Y-88000006D01*
X161000026Y-79598287D02*
X160999989Y-70560658D01*
%TO.N,LIM_A*%
X158820285Y-85200002D02*
X160753996Y-85199999D01*
X162555000Y-83398996D02*
X162555000Y-81500000D01*
X154403777Y-87350002D02*
X153657552Y-87350000D01*
X156225003Y-86275005D02*
X155677663Y-86822344D01*
%TO.N,LIM_B*%
X155939326Y-85560656D02*
X155203906Y-86296068D01*
X161777500Y-79777500D02*
X162555000Y-79000000D01*
X160999993Y-82792916D02*
X160999997Y-81654550D01*
X154228771Y-86699989D02*
X153657552Y-86700000D01*
X158500006Y-84499998D02*
X159292919Y-84499998D01*
%TO.N,IN_A*%
X148000000Y-90049999D02*
X148000000Y-86974999D01*
X146237498Y-90175004D02*
X146000000Y-90175000D01*
X146687498Y-90387503D02*
X146642935Y-90342941D01*
X148550000Y-90600000D02*
X153657552Y-90600000D01*
X147450000Y-90599999D02*
X147200518Y-90599999D01*
%TO.N,LED_R*%
X138000000Y-89500000D02*
X138000000Y-90675000D01*
X158021883Y-86703146D02*
X158018759Y-86706276D01*
X158036535Y-86702093D02*
X159382552Y-86700000D01*
X158004689Y-86720317D02*
X158006253Y-86718757D01*
X158001563Y-86723439D02*
X158000000Y-86725000D01*
X158029428Y-86700028D02*
X158033849Y-86700038D01*
X158012795Y-86712834D02*
X158017625Y-86708873D01*
%TO.N,CAN_TX*%
X159920637Y-90599998D02*
X159741277Y-90599998D01*
X168388469Y-92251032D02*
X162918441Y-92251029D01*
X168863540Y-92006519D02*
X168782029Y-92088024D01*
X160226823Y-90726827D02*
X160925498Y-91425514D01*
X168945033Y-91809747D02*
X168945015Y-91694478D01*
%TO.N,CAN_RX*%
X160250430Y-90080344D02*
X160895073Y-90724969D01*
X159935681Y-89949979D02*
X159751306Y-89949985D01*
X164859998Y-91224999D02*
X165135000Y-90950000D01*
X164196087Y-91499994D02*
X162766115Y-91499977D01*
%TO.N,LED_G*%
X157575003Y-87425007D02*
X157500000Y-87500000D01*
X157756068Y-87350014D02*
X159382552Y-87350000D01*
%TO.N,Net-(U4-BST)*%
X168000000Y-74762500D02*
X169846500Y-74762500D01*
%TO.N,Net-(U4-SW)*%
X168615501Y-77429529D02*
X168653947Y-77429530D01*
X167598054Y-77008065D02*
X167366501Y-76776504D01*
X169605756Y-77035271D02*
X170000000Y-76641000D01*
X166550497Y-73975499D02*
X166468995Y-73893998D01*
X166713501Y-74369018D02*
X166713506Y-75200008D01*
X166272236Y-73812498D02*
X166156977Y-73812498D01*
%TO.N,Net-(U4-FB)*%
X168891500Y-72862500D02*
X169788000Y-72862500D01*
X168000000Y-71971000D02*
X168000000Y-71079500D01*
%TO.N,LED_B*%
X141091803Y-92083183D02*
X141000000Y-92175000D01*
X158177819Y-87999992D02*
X159382552Y-88000000D01*
X141313444Y-91991369D02*
X142067476Y-91991386D01*
X158098528Y-88032839D02*
X158065687Y-88065687D01*
%TO.N,GPIO*%
X155490912Y-91899990D02*
X153657552Y-91900000D01*
X155938066Y-91638065D02*
X155807096Y-91769027D01*
%TD*%
%TA.AperFunction,Conductor*%
%TO.N,+12V*%
G36*
X152682740Y-63517998D02*
G01*
X152706959Y-63522815D01*
X152786318Y-63546888D01*
X152845697Y-63585802D01*
X152874613Y-63650643D01*
X152873320Y-63692041D01*
X152869501Y-63711241D01*
X152869500Y-63711251D01*
X152869500Y-63711252D01*
X152869500Y-65100748D01*
X152881133Y-65159231D01*
X152925448Y-65225552D01*
X152991769Y-65269867D01*
X153050252Y-65281500D01*
X153050253Y-65281500D01*
X153374000Y-65281500D01*
X153442121Y-65301502D01*
X153488614Y-65355158D01*
X153500000Y-65407500D01*
X153500000Y-67538220D01*
X153479998Y-67606341D01*
X153426342Y-67652834D01*
X153398583Y-67661799D01*
X153371771Y-67667132D01*
X153371768Y-67667133D01*
X153305448Y-67711448D01*
X153261133Y-67777768D01*
X153261132Y-67777771D01*
X153249500Y-67836249D01*
X153249500Y-73125750D01*
X153261132Y-73184228D01*
X153261133Y-73184231D01*
X153305448Y-73250552D01*
X153371769Y-73294867D01*
X153398580Y-73300200D01*
X153461490Y-73333107D01*
X153484113Y-73362533D01*
X153500000Y-73391096D01*
X153500000Y-73500000D01*
X151500000Y-73500000D01*
X151500000Y-73280619D01*
X151520002Y-73212498D01*
X151521160Y-73210730D01*
X151538867Y-73184231D01*
X151550500Y-73125748D01*
X151550500Y-67836252D01*
X151538867Y-67777769D01*
X151538866Y-67777767D01*
X151521235Y-67751380D01*
X151500020Y-67683627D01*
X151500000Y-67681378D01*
X151500000Y-65407500D01*
X151520002Y-65339379D01*
X151573658Y-65292886D01*
X151626000Y-65281500D01*
X151749747Y-65281500D01*
X151749748Y-65281500D01*
X151808231Y-65269867D01*
X151874552Y-65225552D01*
X151918867Y-65159231D01*
X151930500Y-65100748D01*
X151930500Y-63751497D01*
X151934512Y-63737832D01*
X151933623Y-63723617D01*
X151944316Y-63704442D01*
X151950502Y-63683376D01*
X151961962Y-63672800D01*
X151968203Y-63661611D01*
X151997099Y-63640377D01*
X152106384Y-63581963D01*
X152129181Y-63572521D01*
X152293042Y-63522814D01*
X152317257Y-63517998D01*
X152487654Y-63501216D01*
X152512346Y-63501216D01*
X152682740Y-63517998D01*
G37*
%TD.AperFunction*%
%TD*%
%TA.AperFunction,Conductor*%
%TO.N,Net-(U5-D)*%
G36*
X138005039Y-76519685D02*
G01*
X138037200Y-76549600D01*
X140948038Y-80430718D01*
X140972514Y-80496160D01*
X140957724Y-80564447D01*
X140936519Y-80592799D01*
X140885803Y-80643514D01*
X140834426Y-80748608D01*
X140824500Y-80816739D01*
X140824500Y-81183260D01*
X140834426Y-81251391D01*
X140885803Y-81356485D01*
X140968514Y-81439196D01*
X140968515Y-81439196D01*
X140968517Y-81439198D01*
X141073607Y-81490573D01*
X141107673Y-81495536D01*
X141141739Y-81500500D01*
X141688375Y-81500500D01*
X141755414Y-81520185D01*
X141787575Y-81550100D01*
X142475200Y-82466933D01*
X142499676Y-82532375D01*
X142500000Y-82541333D01*
X142500000Y-83876000D01*
X142480315Y-83943039D01*
X142427511Y-83988794D01*
X142376000Y-84000000D01*
X136124000Y-84000000D01*
X136056961Y-83980315D01*
X136011206Y-83927511D01*
X136000000Y-83876000D01*
X136000000Y-76624000D01*
X136019685Y-76556961D01*
X136072489Y-76511206D01*
X136124000Y-76500000D01*
X137938000Y-76500000D01*
X138005039Y-76519685D01*
G37*
%TD.AperFunction*%
%TD*%
%TA.AperFunction,Conductor*%
%TO.N,/OUTA*%
G36*
X154826110Y-63520002D02*
G01*
X154872603Y-63573658D01*
X154882707Y-63643932D01*
X154881568Y-63650582D01*
X154869500Y-63711249D01*
X154869500Y-63711252D01*
X154869500Y-65100748D01*
X154881133Y-65159231D01*
X154925448Y-65225552D01*
X154991769Y-65269867D01*
X155050252Y-65281500D01*
X155050253Y-65281500D01*
X155749747Y-65281500D01*
X155749748Y-65281500D01*
X155808231Y-65269867D01*
X155829997Y-65255322D01*
X155897750Y-65234107D01*
X155966217Y-65252889D01*
X155969995Y-65255318D01*
X155991769Y-65269867D01*
X156050252Y-65281500D01*
X156050253Y-65281500D01*
X156749747Y-65281500D01*
X156749748Y-65281500D01*
X156808231Y-65269867D01*
X156829997Y-65255322D01*
X156897750Y-65234107D01*
X156966217Y-65252889D01*
X156969995Y-65255318D01*
X156991769Y-65269867D01*
X157050252Y-65281500D01*
X157050253Y-65281500D01*
X157749747Y-65281500D01*
X157749748Y-65281500D01*
X157808231Y-65269867D01*
X157829997Y-65255322D01*
X157897750Y-65234107D01*
X157966217Y-65252889D01*
X157969995Y-65255318D01*
X157991769Y-65269867D01*
X158050252Y-65281500D01*
X158050253Y-65281500D01*
X158749747Y-65281500D01*
X158749748Y-65281500D01*
X158808231Y-65269867D01*
X158874552Y-65225552D01*
X158918867Y-65159231D01*
X158930500Y-65100748D01*
X158930500Y-63711252D01*
X158918867Y-63652769D01*
X158918432Y-63650582D01*
X158920340Y-63629260D01*
X158917293Y-63608068D01*
X158923441Y-63594606D01*
X158924760Y-63579868D01*
X158937893Y-63562960D01*
X158946787Y-63543488D01*
X158959234Y-63535488D01*
X158968314Y-63523800D01*
X158988504Y-63516677D01*
X159006513Y-63505104D01*
X159031493Y-63501512D01*
X159035267Y-63500181D01*
X159042011Y-63500000D01*
X159267813Y-63500000D01*
X159280162Y-63500606D01*
X159456740Y-63517998D01*
X159480959Y-63522815D01*
X159644815Y-63572520D01*
X159667622Y-63581967D01*
X159716454Y-63608068D01*
X159818627Y-63662681D01*
X159839162Y-63676402D01*
X159896694Y-63723617D01*
X159971514Y-63785020D01*
X159988979Y-63802485D01*
X160097595Y-63934834D01*
X160111318Y-63955372D01*
X160192029Y-64106370D01*
X160201482Y-64129191D01*
X160251183Y-64293037D01*
X160256001Y-64317261D01*
X160273393Y-64493836D01*
X160274000Y-64506187D01*
X160274000Y-80338232D01*
X160267833Y-80377168D01*
X160250476Y-80430585D01*
X160223502Y-80600896D01*
X160223502Y-80679523D01*
X160223458Y-82775963D01*
X160223457Y-82822573D01*
X160223068Y-82832457D01*
X160213806Y-82950126D01*
X160210713Y-82969655D01*
X160195120Y-83034601D01*
X160191539Y-83046778D01*
X160190656Y-83049303D01*
X160178406Y-83074746D01*
X160087600Y-83219262D01*
X160070008Y-83241321D01*
X159949321Y-83362008D01*
X159927262Y-83379600D01*
X159782743Y-83470408D01*
X159757322Y-83482650D01*
X159596223Y-83539021D01*
X159568715Y-83545300D01*
X159399107Y-83564410D01*
X159370893Y-83564410D01*
X159201284Y-83545300D01*
X159173777Y-83539021D01*
X159081836Y-83506850D01*
X159014164Y-83483170D01*
X158956473Y-83441791D01*
X158930310Y-83375791D01*
X158930388Y-83351879D01*
X158930498Y-83350753D01*
X158930500Y-83350748D01*
X158930500Y-81961252D01*
X158918867Y-81902769D01*
X158874552Y-81836448D01*
X158808231Y-81792133D01*
X158808228Y-81792132D01*
X158749750Y-81780500D01*
X158749748Y-81780500D01*
X158622000Y-81780500D01*
X158553879Y-81760498D01*
X158507386Y-81706842D01*
X158496000Y-81654500D01*
X158496000Y-81005080D01*
X158516002Y-80936959D01*
X158569658Y-80890466D01*
X158639932Y-80880362D01*
X158684044Y-80898950D01*
X158685534Y-80896371D01*
X158692686Y-80900500D01*
X158806814Y-80966392D01*
X158934108Y-81000500D01*
X158934110Y-81000500D01*
X159065890Y-81000500D01*
X159065892Y-81000500D01*
X159193186Y-80966392D01*
X159307314Y-80900500D01*
X159400500Y-80807314D01*
X159466392Y-80693186D01*
X159500500Y-80565892D01*
X159500500Y-80434108D01*
X159466392Y-80306814D01*
X159400500Y-80192686D01*
X159400498Y-80192684D01*
X159400494Y-80192679D01*
X159307320Y-80099505D01*
X159307310Y-80099497D01*
X159193190Y-80033610D01*
X159193187Y-80033609D01*
X159193186Y-80033608D01*
X159193184Y-80033607D01*
X159193183Y-80033607D01*
X159159073Y-80024467D01*
X159065892Y-79999500D01*
X158934108Y-79999500D01*
X158865894Y-80017777D01*
X158806816Y-80033607D01*
X158806809Y-80033610D01*
X158685534Y-80103629D01*
X158683817Y-80100655D01*
X158632372Y-80120491D01*
X158562836Y-80106165D01*
X158512084Y-80056519D01*
X158496000Y-79994919D01*
X158496000Y-75082686D01*
X158500500Y-75065892D01*
X158500500Y-74934108D01*
X158496000Y-74917313D01*
X158496000Y-73500000D01*
X157496000Y-73500000D01*
X154506187Y-73500000D01*
X154493838Y-73499393D01*
X154461095Y-73496168D01*
X154317261Y-73482001D01*
X154293037Y-73477183D01*
X154129191Y-73427482D01*
X154106372Y-73418030D01*
X154058011Y-73392180D01*
X153955372Y-73337318D01*
X153934834Y-73323595D01*
X153802485Y-73214979D01*
X153785020Y-73197514D01*
X153676404Y-73065165D01*
X153662681Y-73044627D01*
X153649064Y-73019153D01*
X153581967Y-72893622D01*
X153572520Y-72870815D01*
X153522815Y-72706959D01*
X153517998Y-72682737D01*
X153500607Y-72506162D01*
X153500000Y-72493812D01*
X153500000Y-67916093D01*
X153520002Y-67847972D01*
X153556783Y-67813272D01*
X153555738Y-67811788D01*
X153560908Y-67808145D01*
X153560916Y-67808141D01*
X153614572Y-67761648D01*
X153632527Y-67744055D01*
X153677174Y-67664237D01*
X153677174Y-67664236D01*
X153677176Y-67664233D01*
X153697172Y-67596128D01*
X153697176Y-67596116D01*
X153705500Y-67538220D01*
X153705500Y-65407500D01*
X153705482Y-65407329D01*
X153705488Y-65407292D01*
X153705319Y-65404127D01*
X153706066Y-65404086D01*
X153718084Y-65337459D01*
X153766460Y-65285495D01*
X153806178Y-65270275D01*
X153808231Y-65269867D01*
X153874552Y-65225552D01*
X153918867Y-65159231D01*
X153930500Y-65100748D01*
X153930500Y-63751497D01*
X153934512Y-63737832D01*
X153933623Y-63723617D01*
X153944316Y-63704442D01*
X153950502Y-63683376D01*
X153961962Y-63672800D01*
X153968203Y-63661611D01*
X153997099Y-63640377D01*
X154106384Y-63581963D01*
X154129181Y-63572521D01*
X154293042Y-63522814D01*
X154317257Y-63517998D01*
X154493837Y-63500606D01*
X154506187Y-63500000D01*
X154757989Y-63500000D01*
X154826110Y-63520002D01*
G37*
%TD.AperFunction*%
%TD*%
%TA.AperFunction,Conductor*%
%TO.N,/OUTB*%
G36*
X145826110Y-63520002D02*
G01*
X145872603Y-63573658D01*
X145882707Y-63643932D01*
X145881568Y-63650582D01*
X145869500Y-63711249D01*
X145869500Y-65100750D01*
X145879092Y-65148973D01*
X145881133Y-65159231D01*
X145925448Y-65225552D01*
X145991769Y-65269867D01*
X146050252Y-65281500D01*
X146050253Y-65281500D01*
X146749747Y-65281500D01*
X146749748Y-65281500D01*
X146808231Y-65269867D01*
X146829997Y-65255322D01*
X146897750Y-65234107D01*
X146966217Y-65252889D01*
X146969995Y-65255318D01*
X146991769Y-65269867D01*
X147050252Y-65281500D01*
X147050253Y-65281500D01*
X147749747Y-65281500D01*
X147749748Y-65281500D01*
X147808231Y-65269867D01*
X147829997Y-65255322D01*
X147897750Y-65234107D01*
X147966217Y-65252889D01*
X147969995Y-65255318D01*
X147991769Y-65269867D01*
X148050252Y-65281500D01*
X148050253Y-65281500D01*
X148749747Y-65281500D01*
X148749748Y-65281500D01*
X148808231Y-65269867D01*
X148829997Y-65255322D01*
X148897750Y-65234107D01*
X148966217Y-65252889D01*
X148969995Y-65255318D01*
X148991769Y-65269867D01*
X149050252Y-65281500D01*
X149050253Y-65281500D01*
X149749747Y-65281500D01*
X149749748Y-65281500D01*
X149808231Y-65269867D01*
X149874552Y-65225552D01*
X149918867Y-65159231D01*
X149930500Y-65100748D01*
X149930500Y-63711252D01*
X149918867Y-63652769D01*
X149918432Y-63650582D01*
X149924760Y-63579868D01*
X149968314Y-63523800D01*
X150035267Y-63500181D01*
X150042011Y-63500000D01*
X150493813Y-63500000D01*
X150506162Y-63500606D01*
X150682740Y-63517998D01*
X150706959Y-63522815D01*
X150786318Y-63546888D01*
X150845697Y-63585802D01*
X150874613Y-63650643D01*
X150873320Y-63692041D01*
X150869501Y-63711241D01*
X150869500Y-63711253D01*
X150869500Y-65100750D01*
X150879092Y-65148973D01*
X150881133Y-65159231D01*
X150925448Y-65225552D01*
X150991769Y-65269867D01*
X151050252Y-65281500D01*
X151168500Y-65281500D01*
X151236621Y-65301502D01*
X151283114Y-65355158D01*
X151294500Y-65407500D01*
X151294500Y-67681364D01*
X151294507Y-67683234D01*
X151294527Y-67685451D01*
X151303908Y-67745030D01*
X151303911Y-67745041D01*
X151325120Y-67812779D01*
X151325124Y-67812787D01*
X151332662Y-67828544D01*
X151345000Y-67882921D01*
X151345000Y-73078903D01*
X151333387Y-73131740D01*
X151322823Y-73154608D01*
X151302826Y-73222714D01*
X151302824Y-73222723D01*
X151297085Y-73262644D01*
X151294500Y-73280621D01*
X151294500Y-73500001D01*
X151299652Y-73545727D01*
X151299652Y-73545728D01*
X151313667Y-73574831D01*
X151325202Y-73644885D01*
X151297032Y-73710054D01*
X151238101Y-73749647D01*
X151200145Y-73755500D01*
X147230249Y-73755500D01*
X147171771Y-73767132D01*
X147171768Y-73767133D01*
X147105448Y-73811448D01*
X147061133Y-73877768D01*
X147061132Y-73877771D01*
X147049500Y-73936249D01*
X147049500Y-75874000D01*
X147029498Y-75942121D01*
X146975842Y-75988614D01*
X146923500Y-76000000D01*
X141006187Y-76000000D01*
X140993838Y-75999393D01*
X140961095Y-75996168D01*
X140817261Y-75982001D01*
X140793037Y-75977183D01*
X140629191Y-75927482D01*
X140606372Y-75918030D01*
X140523998Y-75874000D01*
X140455372Y-75837318D01*
X140434834Y-75823595D01*
X140302485Y-75714979D01*
X140285020Y-75697514D01*
X140176404Y-75565165D01*
X140162681Y-75544627D01*
X140149064Y-75519153D01*
X140081967Y-75393622D01*
X140072520Y-75370815D01*
X140022815Y-75206959D01*
X140017998Y-75182737D01*
X140000607Y-75006162D01*
X140000000Y-74993812D01*
X140000000Y-71402696D01*
X140512100Y-71402696D01*
X140512100Y-71402699D01*
X140512100Y-71597299D01*
X140550064Y-71788159D01*
X140624534Y-71967945D01*
X140732648Y-72129749D01*
X140870250Y-72267351D01*
X141032054Y-72375465D01*
X141211840Y-72449935D01*
X141402700Y-72487899D01*
X141402701Y-72487899D01*
X141597299Y-72487899D01*
X141597300Y-72487899D01*
X141788160Y-72449935D01*
X141967946Y-72375465D01*
X142129750Y-72267351D01*
X142267352Y-72129749D01*
X142375466Y-71967945D01*
X142449936Y-71788159D01*
X142487900Y-71597299D01*
X142487900Y-71402699D01*
X142449936Y-71211839D01*
X142375466Y-71032053D01*
X142267352Y-70870249D01*
X142129750Y-70732647D01*
X141967946Y-70624533D01*
X141788160Y-70550063D01*
X141597302Y-70512099D01*
X141597300Y-70512099D01*
X141402700Y-70512099D01*
X141402697Y-70512099D01*
X141211839Y-70550063D01*
X141211834Y-70550065D01*
X141032054Y-70624533D01*
X140870254Y-70732644D01*
X140870247Y-70732649D01*
X140732650Y-70870246D01*
X140732645Y-70870253D01*
X140624534Y-71032053D01*
X140550066Y-71211833D01*
X140550064Y-71211838D01*
X140512100Y-71402696D01*
X140000000Y-71402696D01*
X140000000Y-64506187D01*
X140000607Y-64493837D01*
X140017998Y-64317262D01*
X140022814Y-64293042D01*
X140072521Y-64129181D01*
X140081965Y-64106380D01*
X140162682Y-63955369D01*
X140176398Y-63934842D01*
X140285025Y-63802479D01*
X140302479Y-63785025D01*
X140434842Y-63676398D01*
X140455369Y-63662682D01*
X140606380Y-63581965D01*
X140629181Y-63572521D01*
X140793042Y-63522814D01*
X140817257Y-63517998D01*
X140993837Y-63500606D01*
X141006187Y-63500000D01*
X145757989Y-63500000D01*
X145826110Y-63520002D01*
G37*
%TD.AperFunction*%
%TD*%
%TA.AperFunction,Conductor*%
%TO.N,+12V*%
G36*
X153857128Y-73517836D02*
G01*
X153857136Y-73517823D01*
X153857152Y-73517831D01*
X153857171Y-73517799D01*
X153857341Y-73517895D01*
X153857457Y-73517927D01*
X153858499Y-73518552D01*
X154009499Y-73599264D01*
X154027730Y-73607887D01*
X154050549Y-73617339D01*
X154069539Y-73624134D01*
X154233385Y-73673835D01*
X154233393Y-73673837D01*
X154252919Y-73678728D01*
X154252934Y-73678731D01*
X154252950Y-73678735D01*
X154277174Y-73683553D01*
X154297118Y-73686511D01*
X154297122Y-73686511D01*
X154297133Y-73686513D01*
X154473668Y-73703901D01*
X154473694Y-73703902D01*
X154473695Y-73703903D01*
X154483749Y-73704645D01*
X154496098Y-73705252D01*
X154506187Y-73705500D01*
X158051536Y-73705500D01*
X158075736Y-73712605D01*
X158100792Y-73715526D01*
X158115018Y-73724140D01*
X158119657Y-73725502D01*
X158131457Y-73734092D01*
X158193515Y-73785021D01*
X158210976Y-73802482D01*
X158261899Y-73864531D01*
X158289653Y-73929876D01*
X158290500Y-73944464D01*
X158290500Y-74917317D01*
X158293922Y-74943306D01*
X158295000Y-74959751D01*
X158295000Y-75040245D01*
X158293922Y-75056692D01*
X158290500Y-75082680D01*
X158290500Y-79994923D01*
X158297163Y-80046819D01*
X158297165Y-80046832D01*
X158297166Y-80046835D01*
X158303212Y-80069991D01*
X158313248Y-80108429D01*
X158313257Y-80108459D01*
X158318873Y-80126520D01*
X158318874Y-80126523D01*
X158368381Y-80203418D01*
X158368387Y-80203426D01*
X158419121Y-80253054D01*
X158419127Y-80253059D01*
X158419135Y-80253067D01*
X158438147Y-80269514D01*
X158438148Y-80269514D01*
X158444964Y-80275411D01*
X158444090Y-80276420D01*
X158444097Y-80276427D01*
X158452512Y-80280271D01*
X158466998Y-80302812D01*
X158484569Y-80323055D01*
X158486910Y-80333794D01*
X158490896Y-80339997D01*
X158496000Y-80375495D01*
X158496000Y-80627068D01*
X158475998Y-80695189D01*
X158439399Y-80728941D01*
X158440918Y-80731153D01*
X158435086Y-80735157D01*
X158435084Y-80735159D01*
X158419564Y-80748607D01*
X158381431Y-80781648D01*
X158363471Y-80799247D01*
X158318823Y-80879066D01*
X158298827Y-80947171D01*
X158298824Y-80947184D01*
X158290500Y-81005082D01*
X158290500Y-81654500D01*
X158270498Y-81722621D01*
X158216842Y-81769114D01*
X158164500Y-81780500D01*
X158050249Y-81780500D01*
X157991771Y-81792132D01*
X157991768Y-81792133D01*
X157925448Y-81836448D01*
X157881133Y-81902768D01*
X157881132Y-81902771D01*
X157869500Y-81961249D01*
X157869500Y-83350750D01*
X157872530Y-83365984D01*
X157872237Y-83369246D01*
X157873608Y-83372221D01*
X157869094Y-83404361D01*
X157866200Y-83436698D01*
X157864190Y-83439284D01*
X157863735Y-83442528D01*
X157842560Y-83467126D01*
X157822644Y-83492764D01*
X157818915Y-83494596D01*
X157817418Y-83496336D01*
X157784845Y-83511341D01*
X157697070Y-83537427D01*
X157672708Y-83542119D01*
X157495242Y-83558431D01*
X157482833Y-83558957D01*
X157042348Y-83555896D01*
X156974368Y-83535421D01*
X156928249Y-83481444D01*
X156918634Y-83411101D01*
X156919639Y-83405346D01*
X156930500Y-83350748D01*
X156930500Y-81961252D01*
X156918867Y-81902769D01*
X156874552Y-81836448D01*
X156808231Y-81792133D01*
X156808228Y-81792132D01*
X156749750Y-81780500D01*
X156749748Y-81780500D01*
X156050252Y-81780500D01*
X156050249Y-81780500D01*
X155991771Y-81792132D01*
X155991768Y-81792133D01*
X155970001Y-81806678D01*
X155902248Y-81827892D01*
X155833781Y-81809108D01*
X155829999Y-81806678D01*
X155808231Y-81792133D01*
X155808228Y-81792132D01*
X155749750Y-81780500D01*
X155749748Y-81780500D01*
X155050252Y-81780500D01*
X155050249Y-81780500D01*
X154991771Y-81792132D01*
X154991768Y-81792133D01*
X154970001Y-81806678D01*
X154902248Y-81827892D01*
X154833781Y-81809108D01*
X154829999Y-81806678D01*
X154808231Y-81792133D01*
X154808228Y-81792132D01*
X154749750Y-81780500D01*
X154749748Y-81780500D01*
X154050252Y-81780500D01*
X154050249Y-81780500D01*
X153991771Y-81792132D01*
X153991768Y-81792133D01*
X153970001Y-81806678D01*
X153902248Y-81827892D01*
X153833781Y-81809108D01*
X153829999Y-81806678D01*
X153808231Y-81792133D01*
X153808228Y-81792132D01*
X153749750Y-81780500D01*
X153749748Y-81780500D01*
X153050252Y-81780500D01*
X153050249Y-81780500D01*
X152991771Y-81792132D01*
X152991768Y-81792133D01*
X152970001Y-81806678D01*
X152902248Y-81827892D01*
X152833781Y-81809108D01*
X152829999Y-81806678D01*
X152808231Y-81792133D01*
X152808228Y-81792132D01*
X152749750Y-81780500D01*
X152749748Y-81780500D01*
X152050252Y-81780500D01*
X152050249Y-81780500D01*
X151991771Y-81792132D01*
X151991768Y-81792133D01*
X151970001Y-81806678D01*
X151902248Y-81827892D01*
X151833781Y-81809108D01*
X151829999Y-81806678D01*
X151808231Y-81792133D01*
X151808228Y-81792132D01*
X151749750Y-81780500D01*
X151749748Y-81780500D01*
X151050252Y-81780500D01*
X151050249Y-81780500D01*
X150991771Y-81792132D01*
X150991768Y-81792133D01*
X150970001Y-81806678D01*
X150902248Y-81827892D01*
X150833781Y-81809108D01*
X150829999Y-81806678D01*
X150808231Y-81792133D01*
X150808228Y-81792132D01*
X150749750Y-81780500D01*
X150749748Y-81780500D01*
X150050252Y-81780500D01*
X150050249Y-81780500D01*
X149991771Y-81792132D01*
X149991768Y-81792133D01*
X149970001Y-81806678D01*
X149902248Y-81827892D01*
X149833781Y-81809108D01*
X149829999Y-81806678D01*
X149808231Y-81792133D01*
X149808228Y-81792132D01*
X149749750Y-81780500D01*
X149749748Y-81780500D01*
X149050252Y-81780500D01*
X149050249Y-81780500D01*
X148991771Y-81792132D01*
X148991768Y-81792133D01*
X148925448Y-81836448D01*
X148881133Y-81902768D01*
X148881132Y-81902771D01*
X148869500Y-81961249D01*
X148869500Y-83350750D01*
X148881132Y-83409228D01*
X148881133Y-83409231D01*
X148916966Y-83462859D01*
X148925448Y-83475552D01*
X148944002Y-83487950D01*
X148989529Y-83542425D01*
X149000000Y-83592714D01*
X149000000Y-84993812D01*
X148999393Y-85006162D01*
X148999393Y-85006163D01*
X148982001Y-85182738D01*
X148977183Y-85206962D01*
X148927482Y-85370808D01*
X148918029Y-85393629D01*
X148837318Y-85544627D01*
X148823595Y-85565165D01*
X148714979Y-85697514D01*
X148697514Y-85714979D01*
X148565165Y-85823595D01*
X148544627Y-85837318D01*
X148393629Y-85918029D01*
X148370808Y-85927482D01*
X148206962Y-85977183D01*
X148182738Y-85982001D01*
X148034273Y-85996624D01*
X148006161Y-85999393D01*
X147993813Y-86000000D01*
X146506187Y-86000000D01*
X146493838Y-85999393D01*
X146461095Y-85996168D01*
X146317261Y-85982001D01*
X146293037Y-85977183D01*
X146129191Y-85927482D01*
X146106372Y-85918030D01*
X146058011Y-85892180D01*
X145955372Y-85837318D01*
X145934834Y-85823595D01*
X145802485Y-85714979D01*
X145785020Y-85697514D01*
X145676404Y-85565165D01*
X145662681Y-85544627D01*
X145649064Y-85519153D01*
X145581967Y-85393622D01*
X145572520Y-85370815D01*
X145522815Y-85206959D01*
X145517998Y-85182737D01*
X145500607Y-85006162D01*
X145500000Y-84993812D01*
X145500000Y-83657500D01*
X145520002Y-83589379D01*
X145573658Y-83542886D01*
X145626000Y-83531500D01*
X145749747Y-83531500D01*
X145749748Y-83531500D01*
X145808231Y-83519867D01*
X145829997Y-83505322D01*
X145897750Y-83484107D01*
X145966217Y-83502889D01*
X145969995Y-83505318D01*
X145991769Y-83519867D01*
X146050252Y-83531500D01*
X146050253Y-83531500D01*
X146749747Y-83531500D01*
X146749748Y-83531500D01*
X146808231Y-83519867D01*
X146874552Y-83475552D01*
X146918867Y-83409231D01*
X146930500Y-83350748D01*
X146930500Y-81961252D01*
X146918867Y-81902769D01*
X146874552Y-81836448D01*
X146808231Y-81792133D01*
X146808228Y-81792132D01*
X146749750Y-81780500D01*
X146749748Y-81780500D01*
X146050252Y-81780500D01*
X146050249Y-81780500D01*
X145991771Y-81792132D01*
X145991768Y-81792133D01*
X145970001Y-81806678D01*
X145902248Y-81827892D01*
X145833781Y-81809108D01*
X145829999Y-81806678D01*
X145808231Y-81792133D01*
X145808228Y-81792132D01*
X145749750Y-81780500D01*
X145749748Y-81780500D01*
X145050252Y-81780500D01*
X145050251Y-81780500D01*
X145047232Y-81780797D01*
X145045393Y-81780500D01*
X145044063Y-81780500D01*
X145044063Y-81780285D01*
X144983722Y-81770542D01*
X143250327Y-81000145D01*
X143196201Y-80954201D01*
X143175507Y-80886287D01*
X143175500Y-80885005D01*
X143175500Y-80816744D01*
X143175500Y-80816740D01*
X143165573Y-80748607D01*
X143114198Y-80643517D01*
X143114196Y-80643514D01*
X143031485Y-80560803D01*
X143031482Y-80560801D01*
X142926394Y-80509427D01*
X142858261Y-80499500D01*
X142858260Y-80499500D01*
X142150614Y-80499500D01*
X142099441Y-80488640D01*
X141621962Y-80276427D01*
X141599395Y-80266397D01*
X141588590Y-80260959D01*
X141437439Y-80175562D01*
X141417637Y-80161713D01*
X141290190Y-80052972D01*
X141273406Y-80035606D01*
X141169067Y-79904535D01*
X141155899Y-79884272D01*
X141078506Y-79735702D01*
X141069448Y-79713297D01*
X141021841Y-79552675D01*
X141017230Y-79528966D01*
X141000581Y-79356156D01*
X141000000Y-79344073D01*
X141000000Y-76331500D01*
X141020002Y-76263379D01*
X141073658Y-76216886D01*
X141126000Y-76205500D01*
X146923494Y-76205500D01*
X146923500Y-76205500D01*
X146967181Y-76200804D01*
X147019523Y-76189418D01*
X147029703Y-76186930D01*
X147110416Y-76143921D01*
X147164072Y-76097428D01*
X147182027Y-76079835D01*
X147226674Y-76000017D01*
X147226674Y-76000016D01*
X147226676Y-76000013D01*
X147246672Y-75931908D01*
X147246676Y-75931896D01*
X147255000Y-75874000D01*
X147255000Y-74087000D01*
X147275002Y-74018879D01*
X147328658Y-73972386D01*
X147381000Y-73961000D01*
X151200153Y-73961000D01*
X151214092Y-73959930D01*
X151231464Y-73958599D01*
X151269420Y-73952746D01*
X151352704Y-73920224D01*
X151411635Y-73880631D01*
X151431605Y-73865361D01*
X151485663Y-73791592D01*
X151513833Y-73726423D01*
X151522378Y-73702782D01*
X151527972Y-73611497D01*
X151525957Y-73599262D01*
X151516438Y-73541449D01*
X151516437Y-73541448D01*
X151516437Y-73541443D01*
X151505852Y-73507941D01*
X151504628Y-73500000D01*
X153500000Y-73500000D01*
X153792679Y-73500000D01*
X153857128Y-73517836D01*
G37*
%TD.AperFunction*%
%TD*%
%TA.AperFunction,Conductor*%
%TO.N,GPIO*%
G36*
X155697246Y-91477131D02*
G01*
X155863307Y-91587647D01*
X155935000Y-91635360D01*
X155939989Y-91642796D01*
X155940001Y-91642855D01*
X155994276Y-91920452D01*
X155992500Y-91929229D01*
X155985038Y-91934180D01*
X155984677Y-91934244D01*
X155441971Y-92022774D01*
X155433254Y-92020724D01*
X155428540Y-92013111D01*
X155428387Y-92011238D01*
X155428387Y-91779317D01*
X155431203Y-91771705D01*
X155681884Y-91479256D01*
X155689869Y-91475206D01*
X155697246Y-91477131D01*
G37*
%TD.AperFunction*%
%TD*%
%TA.AperFunction,Conductor*%
%TO.N,Net-(U4-FB)*%
G36*
X168188755Y-72270221D02*
G01*
X168335307Y-72554420D01*
X168336053Y-72563343D01*
X168332674Y-72568533D01*
X168009160Y-72855632D01*
X168000697Y-72858560D01*
X167992643Y-72854647D01*
X167992619Y-72854620D01*
X167876594Y-72723061D01*
X167742462Y-72570970D01*
X167739561Y-72562500D01*
X167743194Y-72554737D01*
X167951289Y-72357808D01*
X167954848Y-72355501D01*
X168173881Y-72264774D01*
X168182833Y-72264774D01*
X168188755Y-72270221D01*
G37*
%TD.AperFunction*%
%TD*%
%TA.AperFunction,Conductor*%
%TO.N,Net-(U4-SW)*%
G36*
X166384740Y-73639232D02*
G01*
X166387056Y-73640990D01*
X166630420Y-73878838D01*
X166633941Y-73887071D01*
X166630609Y-73895383D01*
X166630515Y-73895478D01*
X166464517Y-74061478D01*
X166458785Y-74064626D01*
X166298994Y-74100171D01*
X166291162Y-74099185D01*
X165751609Y-73825641D01*
X165745780Y-73818844D01*
X165746465Y-73809915D01*
X165753262Y-73804086D01*
X165753849Y-73803911D01*
X166375866Y-73638052D01*
X166384740Y-73639232D01*
G37*
%TD.AperFunction*%
%TD*%
%TA.AperFunction,Conductor*%
%TO.N,Net-(U4-SW)*%
G36*
X168740906Y-76597008D02*
G01*
X169186320Y-76976154D01*
X169329556Y-77098080D01*
X169331437Y-77100112D01*
X169471640Y-77293076D01*
X169473731Y-77301783D01*
X169470376Y-77308298D01*
X168739612Y-78026444D01*
X168731309Y-78029799D01*
X168723852Y-78027029D01*
X168027631Y-77437655D01*
X168023530Y-77429694D01*
X168026259Y-77421167D01*
X168724419Y-76598358D01*
X168732382Y-76594269D01*
X168740906Y-76597008D01*
G37*
%TD.AperFunction*%
%TD*%
%TA.AperFunction,Conductor*%
%TO.N,Net-(U4-SW)*%
G36*
X169535217Y-76422970D02*
G01*
X169995386Y-76637974D01*
X170001430Y-76644581D01*
X170001953Y-76646528D01*
X170094610Y-77168249D01*
X170092682Y-77176994D01*
X170086461Y-77181499D01*
X169238343Y-77436697D01*
X169229434Y-77435799D01*
X169224547Y-77430805D01*
X169118200Y-77222093D01*
X169117498Y-77213166D01*
X169118211Y-77211449D01*
X169519854Y-76428229D01*
X169526677Y-76422433D01*
X169535217Y-76422970D01*
G37*
%TD.AperFunction*%
%TD*%
%TA.AperFunction,Conductor*%
%TO.N,Net-(U4-SW)*%
G36*
X168013471Y-76327237D02*
G01*
X168020630Y-76332614D01*
X168022259Y-76338593D01*
X168019899Y-77422258D01*
X168016454Y-77430524D01*
X168012212Y-77433223D01*
X167318297Y-77686617D01*
X167309351Y-77686236D01*
X167303294Y-77679640D01*
X167303199Y-77679371D01*
X166802268Y-76180536D01*
X166802896Y-76171604D01*
X166808888Y-76166019D01*
X167026174Y-76076018D01*
X167033561Y-76075496D01*
X168013471Y-76327237D01*
G37*
%TD.AperFunction*%
%TD*%
%TA.AperFunction,Conductor*%
%TO.N,CAN_RX*%
G36*
X160123300Y-89879526D02*
G01*
X160354435Y-90013139D01*
X160359883Y-90020246D01*
X160358709Y-90029123D01*
X160356853Y-90031541D01*
X160194566Y-90193833D01*
X160186293Y-90197260D01*
X160185618Y-90197241D01*
X159379943Y-90150682D01*
X159371881Y-90146783D01*
X159368937Y-90138326D01*
X159368945Y-90138204D01*
X159381169Y-89959181D01*
X159385152Y-89951162D01*
X159391710Y-89948335D01*
X160116317Y-89878010D01*
X160123300Y-89879526D01*
G37*
%TD.AperFunction*%
%TD*%
%TA.AperFunction,Conductor*%
%TO.N,CAN_RX*%
G36*
X164844464Y-90815413D02*
G01*
X165056142Y-90912882D01*
X165125253Y-90944705D01*
X165131334Y-90951277D01*
X165130986Y-90960226D01*
X165130967Y-90960268D01*
X164839400Y-91586839D01*
X164832802Y-91592894D01*
X164825101Y-91593006D01*
X164638875Y-91531094D01*
X164632106Y-91525233D01*
X164631767Y-91524488D01*
X164540409Y-91303926D01*
X164540409Y-91294972D01*
X164541220Y-91293375D01*
X164829580Y-90819954D01*
X164836809Y-90814672D01*
X164844464Y-90815413D01*
G37*
%TD.AperFunction*%
%TD*%
%TA.AperFunction,Conductor*%
%TO.N,CAN_TX*%
G36*
X168952469Y-90992810D02*
G01*
X168953570Y-90996161D01*
X169107985Y-91916510D01*
X169105974Y-91925236D01*
X169104978Y-91926452D01*
X168878679Y-92167607D01*
X168870519Y-92171295D01*
X168862141Y-92168133D01*
X168861874Y-92167874D01*
X168696052Y-92002039D01*
X168692905Y-91996308D01*
X168677354Y-91926452D01*
X168657115Y-91835534D01*
X168657415Y-91829357D01*
X168930913Y-90994453D01*
X168936744Y-90987659D01*
X168945673Y-90986978D01*
X168952469Y-90992810D01*
G37*
%TD.AperFunction*%
%TD*%
%TA.AperFunction,Conductor*%
%TO.N,CAN_TX*%
G36*
X160123259Y-90542675D02*
G01*
X160350634Y-90679010D01*
X160355967Y-90686203D01*
X160354651Y-90695061D01*
X160352890Y-90697317D01*
X160190520Y-90859686D01*
X160182247Y-90863113D01*
X160181345Y-90863078D01*
X160101923Y-90856934D01*
X160098099Y-90855972D01*
X160090045Y-90852415D01*
X160090038Y-90852414D01*
X160064927Y-90849501D01*
X160064924Y-90849500D01*
X160064917Y-90849500D01*
X160064909Y-90849500D01*
X160006266Y-90849500D01*
X160005364Y-90849465D01*
X159377628Y-90800904D01*
X159369643Y-90796849D01*
X159366865Y-90788339D01*
X159381056Y-90609240D01*
X159385125Y-90601265D01*
X159391790Y-90598504D01*
X160116323Y-90541047D01*
X160123259Y-90542675D01*
G37*
%TD.AperFunction*%
%TD*%
%TA.AperFunction,Conductor*%
%TO.N,IN_B*%
G36*
X153658238Y-91049442D02*
G01*
X153666340Y-91053255D01*
X153669373Y-91061680D01*
X153669366Y-91061807D01*
X153658982Y-91240761D01*
X153655082Y-91248822D01*
X153648736Y-91251695D01*
X152923983Y-91341180D01*
X152916633Y-91339662D01*
X152735884Y-91233728D01*
X152730479Y-91226588D01*
X152731667Y-91217784D01*
X152847312Y-91017527D01*
X152854415Y-91012078D01*
X152857988Y-91011693D01*
X153658238Y-91049442D01*
G37*
%TD.AperFunction*%
%TD*%
%TA.AperFunction,Conductor*%
%TO.N,IN_A*%
G36*
X146450619Y-89824500D02*
G01*
X146451171Y-89825241D01*
X146770391Y-90291098D01*
X146772241Y-90299859D01*
X146769013Y-90305984D01*
X146600061Y-90474940D01*
X146597971Y-90476600D01*
X146337797Y-90638562D01*
X146328963Y-90640025D01*
X146322029Y-90635339D01*
X146005554Y-90183237D01*
X146003617Y-90174494D01*
X146007782Y-90167430D01*
X146434168Y-89822755D01*
X146442753Y-89820220D01*
X146450619Y-89824500D01*
G37*
%TD.AperFunction*%
%TD*%
%TA.AperFunction,Conductor*%
%TO.N,LIM_B*%
G36*
X154545051Y-86531422D02*
G01*
X154552832Y-86535854D01*
X154554719Y-86539415D01*
X154626179Y-86759318D01*
X154625477Y-86768245D01*
X154619007Y-86773945D01*
X154374088Y-86861913D01*
X154367534Y-86862310D01*
X153698797Y-86709924D01*
X153691492Y-86704744D01*
X153689988Y-86695917D01*
X153695168Y-86688612D01*
X153697889Y-86687355D01*
X154292620Y-86500762D01*
X154297576Y-86500317D01*
X154545051Y-86531422D01*
G37*
%TD.AperFunction*%
%TD*%
%TA.AperFunction,Conductor*%
%TO.N,ENC_B*%
G36*
X152860224Y-87758514D02*
G01*
X153659474Y-87799394D01*
X153667561Y-87803239D01*
X153670561Y-87811677D01*
X153670551Y-87811839D01*
X153658901Y-87990833D01*
X153654944Y-87998866D01*
X153648415Y-88001712D01*
X152923845Y-88075725D01*
X152916759Y-88074191D01*
X152691404Y-87942691D01*
X152685986Y-87935562D01*
X152687196Y-87926689D01*
X152689021Y-87924321D01*
X152851379Y-87761927D01*
X152859651Y-87758500D01*
X152860224Y-87758514D01*
G37*
%TD.AperFunction*%
%TD*%
%TA.AperFunction,Conductor*%
%TO.N,CANL*%
G36*
X166515595Y-83940865D02*
G01*
X166520041Y-83948638D01*
X166520134Y-83949999D01*
X166529867Y-84903149D01*
X166526525Y-84911456D01*
X166518287Y-84914967D01*
X166518168Y-84914968D01*
X166284070Y-84914972D01*
X166276793Y-84912434D01*
X166005248Y-84696752D01*
X165715858Y-84466896D01*
X165711512Y-84459068D01*
X165713575Y-84450992D01*
X166029531Y-84003208D01*
X166037099Y-83998425D01*
X166037578Y-83998353D01*
X166506955Y-83938512D01*
X166515595Y-83940865D01*
G37*
%TD.AperFunction*%
%TD*%
%TA.AperFunction,Conductor*%
%TO.N,CANL*%
G36*
X166117451Y-85975595D02*
G01*
X166396206Y-85998512D01*
X166404169Y-86002604D01*
X166406860Y-86008756D01*
X166524019Y-86970032D01*
X166521618Y-86978659D01*
X166521451Y-86978868D01*
X166271851Y-87283149D01*
X166263954Y-87287372D01*
X166255385Y-87284775D01*
X166254532Y-87284002D01*
X166090391Y-87119861D01*
X166086964Y-87111588D01*
X166086964Y-87111459D01*
X166104801Y-85987069D01*
X166108359Y-85978854D01*
X166116686Y-85975558D01*
X166117451Y-85975595D01*
G37*
%TD.AperFunction*%
%TD*%
%TA.AperFunction,Conductor*%
%TO.N,CANH*%
G36*
X167800957Y-84785127D02*
G01*
X167803203Y-84788277D01*
X167961509Y-85113340D01*
X167962112Y-85122096D01*
X167686122Y-85966953D01*
X167680295Y-85973753D01*
X167671367Y-85974442D01*
X167664567Y-85968615D01*
X167663878Y-85966953D01*
X167611507Y-85806638D01*
X167387887Y-85122094D01*
X167388489Y-85113342D01*
X167546797Y-84788277D01*
X167553500Y-84782340D01*
X167557316Y-84781700D01*
X167792684Y-84781700D01*
X167800957Y-84785127D01*
G37*
%TD.AperFunction*%
%TD*%
%TA.AperFunction,Conductor*%
%TO.N,SWCLK*%
G36*
X153131556Y-93038622D02*
G01*
X153132458Y-93040241D01*
X153344865Y-93504387D01*
X153766903Y-94426616D01*
X153767229Y-94435565D01*
X153767073Y-94435962D01*
X153677150Y-94653064D01*
X153670819Y-94659396D01*
X153663702Y-94659986D01*
X152265209Y-94336221D01*
X152257922Y-94331016D01*
X152256370Y-94322553D01*
X152418134Y-93504384D01*
X152423099Y-93496936D01*
X153115331Y-93035377D01*
X153124115Y-93033640D01*
X153131556Y-93038622D01*
G37*
%TD.AperFunction*%
%TD*%
%TA.AperFunction,Conductor*%
%TO.N,Net-(U2-CS)*%
G36*
X150437927Y-86273110D02*
G01*
X150445107Y-86276486D01*
X150611387Y-86442766D01*
X150614814Y-86451039D01*
X150612143Y-86458480D01*
X150151871Y-87016976D01*
X150143965Y-87021181D01*
X150136201Y-87019168D01*
X149682846Y-86706604D01*
X149677980Y-86699086D01*
X149679135Y-86691518D01*
X149921350Y-86231924D01*
X149928239Y-86226204D01*
X149932794Y-86225731D01*
X150437927Y-86273110D01*
G37*
%TD.AperFunction*%
%TD*%
%TA.AperFunction,Conductor*%
%TO.N,+3V3*%
G36*
X162676202Y-76757352D02*
G01*
X162676462Y-76757532D01*
X162836492Y-76871501D01*
X162841243Y-76879091D01*
X162841405Y-76881031D01*
X162841405Y-77118968D01*
X162837978Y-77127241D01*
X162836492Y-77128498D01*
X162676462Y-77242467D01*
X162667735Y-77244475D01*
X162660145Y-77239724D01*
X162659965Y-77239464D01*
X162503387Y-77006527D01*
X162501616Y-76997749D01*
X162503387Y-76993473D01*
X162659965Y-76760535D01*
X162667424Y-76755581D01*
X162676202Y-76757352D01*
G37*
%TD.AperFunction*%
%TD*%
%TA.AperFunction,Conductor*%
%TO.N,+3V3*%
G36*
X165241557Y-76387432D02*
G01*
X165245755Y-76392481D01*
X165691404Y-77420056D01*
X165691552Y-77429009D01*
X165686655Y-77434765D01*
X164997563Y-77844962D01*
X164988701Y-77846249D01*
X164981524Y-77840893D01*
X164979953Y-77836230D01*
X164899137Y-77125659D01*
X164899062Y-77124337D01*
X164899062Y-76878572D01*
X164901058Y-76872036D01*
X165225318Y-76390599D01*
X165232781Y-76385652D01*
X165241557Y-76387432D01*
G37*
%TD.AperFunction*%
%TD*%
%TA.AperFunction,Conductor*%
%TO.N,+3V3*%
G36*
X163556592Y-76620648D02*
G01*
X163990574Y-76991101D01*
X163994642Y-76999079D01*
X163991877Y-77007596D01*
X163990574Y-77008899D01*
X163556592Y-77379351D01*
X163548075Y-77382116D01*
X163540097Y-77378048D01*
X163537820Y-77373914D01*
X163461226Y-77126690D01*
X163460702Y-77123228D01*
X163460702Y-76876771D01*
X163461226Y-76873309D01*
X163469926Y-76845227D01*
X163537821Y-76626083D01*
X163543542Y-76619196D01*
X163552458Y-76618371D01*
X163556592Y-76620648D01*
G37*
%TD.AperFunction*%
%TD*%
%TA.AperFunction,Conductor*%
%TO.N,+3V3*%
G36*
X162913230Y-76540932D02*
G01*
X162914285Y-76541973D01*
X163208590Y-76871671D01*
X163211562Y-76879461D01*
X163211562Y-77120538D01*
X163208590Y-77128329D01*
X162914286Y-77458025D01*
X162906221Y-77461915D01*
X162897767Y-77458962D01*
X162896725Y-77457906D01*
X162610463Y-77128329D01*
X162505662Y-77007670D01*
X162502825Y-76999179D01*
X162505662Y-76992329D01*
X162896725Y-76542092D01*
X162904737Y-76538094D01*
X162913230Y-76540932D01*
G37*
%TD.AperFunction*%
%TD*%
%TA.AperFunction,Conductor*%
%TO.N,GND*%
G36*
X160123341Y-88561521D02*
G01*
X160362267Y-88691766D01*
X160367891Y-88698735D01*
X160366940Y-88707639D01*
X160364940Y-88710312D01*
X160202807Y-88872451D01*
X160194534Y-88875878D01*
X160194166Y-88875872D01*
X159383231Y-88850375D01*
X159375070Y-88846690D01*
X159371905Y-88838313D01*
X159371912Y-88838125D01*
X159381328Y-88659107D01*
X159385185Y-88651028D01*
X159391602Y-88648109D01*
X160116333Y-88560179D01*
X160123341Y-88561521D01*
G37*
%TD.AperFunction*%
%TD*%
%TA.AperFunction,Conductor*%
%TO.N,GND*%
G36*
X165724021Y-74766320D02*
G01*
X165729689Y-74772836D01*
X165827855Y-75052212D01*
X165827365Y-75061154D01*
X165821464Y-75066829D01*
X165224917Y-75324975D01*
X165215963Y-75325115D01*
X165209532Y-75318884D01*
X165209461Y-75318714D01*
X165118478Y-75099063D01*
X165118226Y-75098400D01*
X165077823Y-74981227D01*
X165078366Y-74972289D01*
X165085070Y-74966352D01*
X165085274Y-74966283D01*
X165715099Y-74765567D01*
X165724021Y-74766320D01*
G37*
%TD.AperFunction*%
%TD*%
%TA.AperFunction,Conductor*%
%TO.N,CS*%
G36*
X151956488Y-87851321D02*
G01*
X151956749Y-87851663D01*
X152307436Y-88328508D01*
X152309577Y-88337203D01*
X152306284Y-88343713D01*
X152138005Y-88511984D01*
X152134841Y-88514237D01*
X151849587Y-88652698D01*
X151840648Y-88653227D01*
X151835102Y-88649171D01*
X151733740Y-88513378D01*
X151506085Y-88208393D01*
X151503883Y-88199714D01*
X151508186Y-88192233D01*
X151940052Y-87849430D01*
X151948660Y-87846972D01*
X151956488Y-87851321D01*
G37*
%TD.AperFunction*%
%TD*%
%TA.AperFunction,Conductor*%
%TO.N,IN_B*%
G36*
X144560333Y-86814892D02*
G01*
X144561400Y-86815521D01*
X144787419Y-86965477D01*
X144798734Y-86972984D01*
X144802015Y-86976265D01*
X144959475Y-87213595D01*
X144961194Y-87222383D01*
X144956194Y-87229812D01*
X144955123Y-87230444D01*
X144475808Y-87479621D01*
X144466887Y-87480397D01*
X144462138Y-87477513D01*
X144297486Y-87312861D01*
X144294059Y-87304588D01*
X144295377Y-87299194D01*
X144544557Y-86819874D01*
X144551412Y-86814116D01*
X144560333Y-86814892D01*
G37*
%TD.AperFunction*%
%TD*%
%TA.AperFunction,Conductor*%
%TO.N,CS*%
G36*
X152083587Y-88850893D02*
G01*
X152249327Y-89016633D01*
X152252754Y-89024906D01*
X152251952Y-89029163D01*
X151941239Y-89824677D01*
X151935037Y-89831136D01*
X151927523Y-89831776D01*
X151405036Y-89702132D01*
X151397832Y-89696813D01*
X151397039Y-89695239D01*
X151207623Y-89235616D01*
X151207639Y-89226662D01*
X151213780Y-89220427D01*
X152070656Y-88848433D01*
X152079608Y-88848283D01*
X152083587Y-88850893D01*
G37*
%TD.AperFunction*%
%TD*%
%TA.AperFunction,Conductor*%
%TO.N,CS*%
G36*
X153618963Y-88638729D02*
G01*
X153625983Y-88644286D01*
X153627017Y-88653181D01*
X153621459Y-88660202D01*
X153618963Y-88661236D01*
X152985178Y-88841422D01*
X152978421Y-88841314D01*
X152778513Y-88777525D01*
X152771673Y-88771746D01*
X152770372Y-88766600D01*
X152766036Y-88533792D01*
X152769308Y-88525457D01*
X152774245Y-88522408D01*
X152978456Y-88458650D01*
X152985136Y-88458565D01*
X153618963Y-88638729D01*
G37*
%TD.AperFunction*%
%TD*%
%TA.AperFunction,Conductor*%
%TO.N,GND*%
G36*
X162903536Y-74805464D02*
G01*
X163444540Y-75146558D01*
X163449711Y-75153868D01*
X163450000Y-75156454D01*
X163450000Y-75393545D01*
X163446573Y-75401818D01*
X163444540Y-75403442D01*
X162903537Y-75744534D01*
X162894711Y-75746048D01*
X162888309Y-75742128D01*
X162505243Y-75282491D01*
X162502579Y-75273941D01*
X162505243Y-75267509D01*
X162888309Y-74807871D01*
X162896238Y-74803710D01*
X162903536Y-74805464D01*
G37*
%TD.AperFunction*%
%TD*%
%TA.AperFunction,Conductor*%
%TO.N,GND*%
G36*
X162570929Y-74984681D02*
G01*
X163086060Y-75147417D01*
X163092917Y-75153177D01*
X163094236Y-75158574D01*
X163094236Y-75391425D01*
X163090809Y-75399698D01*
X163086060Y-75402582D01*
X162570937Y-75565315D01*
X162562016Y-75564539D01*
X162556256Y-75557682D01*
X162555949Y-75556494D01*
X162499469Y-75277318D01*
X162499469Y-75272680D01*
X162522554Y-75158574D01*
X162555946Y-74993518D01*
X162560945Y-74986092D01*
X162569733Y-74984373D01*
X162570929Y-74984681D01*
G37*
%TD.AperFunction*%
%TD*%
%TA.AperFunction,Conductor*%
%TO.N,GND*%
G36*
X160675797Y-88995385D02*
G01*
X161155122Y-89244555D01*
X161160882Y-89251411D01*
X161160107Y-89260332D01*
X161159475Y-89261404D01*
X161002015Y-89498734D01*
X160998734Y-89502015D01*
X160761404Y-89659475D01*
X160752616Y-89661194D01*
X160745187Y-89656194D01*
X160744555Y-89655123D01*
X160539867Y-89261404D01*
X160495371Y-89175816D01*
X160494596Y-89166897D01*
X160497478Y-89162149D01*
X160662130Y-88997492D01*
X160670401Y-88994066D01*
X160675797Y-88995385D01*
G37*
%TD.AperFunction*%
%TD*%
%TA.AperFunction,Conductor*%
%TO.N,+3V3*%
G36*
X154535760Y-89159758D02*
G01*
X154586274Y-89172770D01*
X154593430Y-89178152D01*
X154595055Y-89184100D01*
X154595047Y-89415960D01*
X154591620Y-89424233D01*
X154586263Y-89427291D01*
X154336387Y-89491598D01*
X154330272Y-89491521D01*
X153696141Y-89311254D01*
X153689120Y-89305696D01*
X153688086Y-89296801D01*
X153693644Y-89289780D01*
X153696141Y-89288746D01*
X154330273Y-89108477D01*
X154336387Y-89108402D01*
X154535760Y-89159758D01*
G37*
%TD.AperFunction*%
%TD*%
%TA.AperFunction,Conductor*%
%TO.N,+3V3*%
G36*
X154939744Y-89145313D02*
G01*
X154943502Y-89151793D01*
X155000029Y-89431210D01*
X154998310Y-89439998D01*
X154998271Y-89440057D01*
X154839794Y-89675822D01*
X154832335Y-89680776D01*
X154823650Y-89679067D01*
X154443101Y-89428493D01*
X154438075Y-89421081D01*
X154437835Y-89418721D01*
X154437843Y-89185978D01*
X154441270Y-89177707D01*
X154448771Y-89174305D01*
X154931263Y-89142438D01*
X154939744Y-89145313D01*
G37*
%TD.AperFunction*%
%TD*%
%TA.AperFunction,Conductor*%
%TO.N,+3V3*%
G36*
X164475869Y-76713281D02*
G01*
X164477553Y-76717863D01*
X164499901Y-76874174D01*
X164500019Y-76875830D01*
X164500019Y-77124169D01*
X164499901Y-77125825D01*
X164477553Y-77282136D01*
X164472990Y-77289841D01*
X164464315Y-77292062D01*
X164459733Y-77290378D01*
X164197333Y-77125000D01*
X164014703Y-77009897D01*
X164009532Y-77002588D01*
X164011044Y-76993762D01*
X164014702Y-76990103D01*
X164459735Y-76709620D01*
X164468559Y-76708109D01*
X164475869Y-76713281D01*
G37*
%TD.AperFunction*%
%TD*%
%TA.AperFunction,Conductor*%
%TO.N,+3V3*%
G36*
X158709830Y-89108477D02*
G01*
X158975897Y-89184114D01*
X159343962Y-89288746D01*
X159350983Y-89294304D01*
X159352017Y-89303199D01*
X159346459Y-89310220D01*
X159343962Y-89311254D01*
X158709830Y-89491521D01*
X158703716Y-89491598D01*
X158453843Y-89427305D01*
X158446684Y-89421925D01*
X158445058Y-89415976D01*
X158445046Y-89184112D01*
X158448472Y-89175840D01*
X158453824Y-89172784D01*
X158703717Y-89108402D01*
X158709830Y-89108477D01*
G37*
%TD.AperFunction*%
%TD*%
%TA.AperFunction,Conductor*%
%TO.N,+3V3*%
G36*
X158551234Y-89174319D02*
G01*
X158559262Y-89178283D01*
X158562161Y-89185992D01*
X158562173Y-89418734D01*
X158558747Y-89427008D01*
X158556907Y-89428507D01*
X158176350Y-89679068D01*
X158167556Y-89680755D01*
X158160206Y-89675823D01*
X158001728Y-89440057D01*
X157999957Y-89431279D01*
X157999970Y-89431210D01*
X158002494Y-89418734D01*
X158056498Y-89151790D01*
X158061497Y-89144364D01*
X158068734Y-89142438D01*
X158551234Y-89174319D01*
G37*
%TD.AperFunction*%
%TD*%
%TA.AperFunction,Conductor*%
%TO.N,Net-(U2-CS)*%
G36*
X149681720Y-86703715D02*
G01*
X150135807Y-87022343D01*
X150140611Y-87029900D01*
X150139321Y-87037590D01*
X149803341Y-87643970D01*
X149796334Y-87649546D01*
X149793107Y-87650000D01*
X149556893Y-87650000D01*
X149548620Y-87646573D01*
X149546659Y-87643970D01*
X149210678Y-87037590D01*
X149209666Y-87028693D01*
X149214191Y-87022343D01*
X149668280Y-86703714D01*
X149677020Y-86701768D01*
X149681720Y-86703715D01*
G37*
%TD.AperFunction*%
%TD*%
%TA.AperFunction,Conductor*%
%TO.N,Net-(U2-CS)*%
G36*
X149801380Y-87253427D02*
G01*
X149803341Y-87256030D01*
X150139321Y-87862409D01*
X150140333Y-87871306D01*
X150135807Y-87877656D01*
X149681720Y-88196284D01*
X149672980Y-88198231D01*
X149668280Y-88196284D01*
X149214192Y-87877656D01*
X149209388Y-87870099D01*
X149210677Y-87862410D01*
X149546659Y-87256030D01*
X149553666Y-87250454D01*
X149556893Y-87250000D01*
X149793107Y-87250000D01*
X149801380Y-87253427D01*
G37*
%TD.AperFunction*%
%TD*%
%TA.AperFunction,Conductor*%
%TO.N,Net-(U2-CS)*%
G36*
X152405268Y-82671207D02*
G01*
X152410655Y-82676603D01*
X152725943Y-83324951D01*
X152726112Y-83325297D01*
X152726648Y-83334236D01*
X152725622Y-83336436D01*
X152525796Y-83669336D01*
X152518600Y-83674665D01*
X152513934Y-83674870D01*
X152279860Y-83637797D01*
X152272225Y-83633118D01*
X152271967Y-83632749D01*
X152073744Y-83336594D01*
X152071990Y-83327813D01*
X152072954Y-83324951D01*
X152389620Y-82676585D01*
X152396330Y-82670655D01*
X152405268Y-82671207D01*
G37*
%TD.AperFunction*%
%TD*%
%TA.AperFunction,Conductor*%
%TO.N,SWCLK*%
G36*
X159390802Y-91907293D02*
G01*
X159485253Y-92002217D01*
X159577248Y-92094674D01*
X159580654Y-92102955D01*
X159579909Y-92107034D01*
X159510390Y-92292409D01*
X159504276Y-92298952D01*
X159499435Y-92300001D01*
X159265652Y-92299997D01*
X159257379Y-92296570D01*
X159254697Y-92292405D01*
X159185186Y-92107035D01*
X159185490Y-92098085D01*
X159187845Y-92094676D01*
X159374260Y-91907334D01*
X159382523Y-91903888D01*
X159390802Y-91907293D01*
G37*
%TD.AperFunction*%
%TD*%
%TA.AperFunction,Conductor*%
%TO.N,SWDIO*%
G36*
X156064147Y-92224015D02*
G01*
X156067355Y-92226289D01*
X156233721Y-92392658D01*
X156237148Y-92400931D01*
X156236487Y-92404808D01*
X155797027Y-93656257D01*
X155791053Y-93662927D01*
X155783717Y-93663857D01*
X154966978Y-93502227D01*
X154959527Y-93497260D01*
X154957772Y-93493021D01*
X154951507Y-93461368D01*
X154796141Y-92676279D01*
X154797896Y-92667501D01*
X154803739Y-92662973D01*
X156055207Y-92223523D01*
X156064147Y-92224015D01*
G37*
%TD.AperFunction*%
%TD*%
%TA.AperFunction,Conductor*%
%TO.N,SWDIO*%
G36*
X158709830Y-91058477D02*
G01*
X159044560Y-91153633D01*
X159343962Y-91238746D01*
X159350983Y-91244304D01*
X159352017Y-91253199D01*
X159346459Y-91260220D01*
X159343962Y-91261254D01*
X158709832Y-91441521D01*
X158703716Y-91441598D01*
X158453836Y-91377267D01*
X158446678Y-91371885D01*
X158445053Y-91365939D01*
X158445051Y-91134074D01*
X158448478Y-91125802D01*
X158453830Y-91122746D01*
X158703715Y-91058402D01*
X158709830Y-91058477D01*
G37*
%TD.AperFunction*%
%TD*%
%TA.AperFunction,Conductor*%
%TO.N,CANH*%
G36*
X167864435Y-84006611D02*
G01*
X168157148Y-84327836D01*
X168237460Y-84415971D01*
X168240499Y-84424394D01*
X168236692Y-84432499D01*
X168236119Y-84432989D01*
X167803204Y-84779138D01*
X167795897Y-84781700D01*
X167558245Y-84781700D01*
X167549972Y-84778273D01*
X167547227Y-84773936D01*
X167391077Y-84336780D01*
X167391521Y-84327836D01*
X167395373Y-84323268D01*
X167849070Y-84004914D01*
X167857809Y-84002968D01*
X167864435Y-84006611D01*
G37*
%TD.AperFunction*%
%TD*%
%TA.AperFunction,Conductor*%
%TO.N,CANH*%
G36*
X167685228Y-86033216D02*
G01*
X167686017Y-86035203D01*
X167942725Y-86907206D01*
X167941941Y-86915792D01*
X167752477Y-87290243D01*
X167745684Y-87296078D01*
X167737560Y-87295770D01*
X167521143Y-87206125D01*
X167514811Y-87199793D01*
X167514774Y-87199704D01*
X167388021Y-86886366D01*
X167387747Y-86878340D01*
X167663673Y-86034869D01*
X167669502Y-86028072D01*
X167678431Y-86027387D01*
X167685228Y-86033216D01*
G37*
%TD.AperFunction*%
%TD*%
%TA.AperFunction,Conductor*%
%TO.N,CANL*%
G36*
X163185217Y-86797084D02*
G01*
X164382031Y-87371823D01*
X164388005Y-87378494D01*
X164388666Y-87382370D01*
X164388666Y-87617648D01*
X164385239Y-87625921D01*
X164382031Y-87628195D01*
X163185217Y-88202915D01*
X163176275Y-88203407D01*
X163171377Y-88200106D01*
X162665042Y-87625921D01*
X162560823Y-87507736D01*
X162557922Y-87499267D01*
X162560823Y-87492263D01*
X163171378Y-86799892D01*
X163179419Y-86795954D01*
X163185217Y-86797084D01*
G37*
%TD.AperFunction*%
%TD*%
%TA.AperFunction,Conductor*%
%TO.N,CANL*%
G36*
X166530457Y-84728425D02*
G01*
X166532984Y-84732198D01*
X166691912Y-85113589D01*
X166692234Y-85121722D01*
X166416122Y-85966952D01*
X166410295Y-85973752D01*
X166401367Y-85974441D01*
X166394567Y-85968614D01*
X166393878Y-85966952D01*
X166324323Y-85754032D01*
X166117765Y-85121720D01*
X166118086Y-85113591D01*
X166276986Y-84732200D01*
X166283330Y-84725883D01*
X166287780Y-84725002D01*
X166522184Y-84724998D01*
X166530457Y-84728425D01*
G37*
%TD.AperFunction*%
%TD*%
%TA.AperFunction,Conductor*%
%TO.N,ENC_B*%
G36*
X162493700Y-67997964D02*
G01*
X162501272Y-68002744D01*
X162502766Y-68005651D01*
X162786924Y-68822448D01*
X162786406Y-68831387D01*
X162779718Y-68837342D01*
X162779550Y-68837399D01*
X161506797Y-69258669D01*
X161497867Y-69258016D01*
X161497271Y-69257695D01*
X161292554Y-69139504D01*
X161287103Y-69132399D01*
X161286924Y-69127112D01*
X161539127Y-67845379D01*
X161544087Y-67837925D01*
X161552590Y-67836109D01*
X162493700Y-67997964D01*
G37*
%TD.AperFunction*%
%TD*%
%TA.AperFunction,Conductor*%
%TO.N,LIM_A*%
G36*
X162563167Y-81506966D02*
G01*
X163397263Y-82320530D01*
X163400793Y-82328760D01*
X163398090Y-82336386D01*
X162683509Y-83195780D01*
X162675585Y-83199951D01*
X162674513Y-83200000D01*
X162435487Y-83200000D01*
X162427214Y-83196573D01*
X162426491Y-83195780D01*
X161711909Y-82336386D01*
X161709254Y-82327834D01*
X161712734Y-82320532D01*
X162546832Y-81506966D01*
X162555146Y-81503644D01*
X162563167Y-81506966D01*
G37*
%TD.AperFunction*%
%TD*%
%TA.AperFunction,Conductor*%
%TO.N,LIM_A*%
G36*
X154558816Y-87215792D02*
G01*
X154565971Y-87221177D01*
X154567449Y-87225291D01*
X154603735Y-87454399D01*
X154601644Y-87463106D01*
X154595394Y-87467478D01*
X154336526Y-87541471D01*
X154330114Y-87541477D01*
X153696155Y-87361401D01*
X153689133Y-87355844D01*
X153688097Y-87346949D01*
X153693654Y-87339927D01*
X153696145Y-87338895D01*
X154330269Y-87158479D01*
X154336389Y-87158404D01*
X154558816Y-87215792D01*
G37*
%TD.AperFunction*%
%TD*%
%TA.AperFunction,Conductor*%
%TO.N,LIM_B*%
G36*
X162548900Y-78998042D02*
G01*
X162556491Y-79002788D01*
X162557909Y-79005445D01*
X162866468Y-79822130D01*
X162866186Y-79831080D01*
X162859658Y-79837210D01*
X162859076Y-79837412D01*
X161553976Y-80253413D01*
X161545053Y-80252661D01*
X161544198Y-80252173D01*
X161343821Y-80126266D01*
X161338639Y-80118962D01*
X161338535Y-80114268D01*
X161569268Y-78845525D01*
X161574120Y-78837999D01*
X161582711Y-78836080D01*
X162548900Y-78998042D01*
G37*
%TD.AperFunction*%
%TD*%
%TA.AperFunction,Conductor*%
%TO.N,IN_A*%
G36*
X148281479Y-87030945D02*
G01*
X148288907Y-87035944D01*
X148290626Y-87044732D01*
X148290315Y-87045936D01*
X148127583Y-87561059D01*
X148121823Y-87567916D01*
X148116426Y-87569235D01*
X147883574Y-87569235D01*
X147875301Y-87565808D01*
X147872417Y-87561059D01*
X147709684Y-87045936D01*
X147710460Y-87037015D01*
X147717317Y-87031255D01*
X147718500Y-87030949D01*
X147997682Y-86974468D01*
X148002318Y-86974468D01*
X148281479Y-87030945D01*
G37*
%TD.AperFunction*%
%TD*%
%TA.AperFunction,Conductor*%
%TO.N,IN_A*%
G36*
X152984830Y-90408478D02*
G01*
X153618963Y-90588746D01*
X153625984Y-90594304D01*
X153627018Y-90603199D01*
X153621460Y-90610220D01*
X153618963Y-90611254D01*
X152984830Y-90791521D01*
X152978714Y-90791597D01*
X152728835Y-90727261D01*
X152721677Y-90721880D01*
X152720052Y-90715931D01*
X152720052Y-90484068D01*
X152723479Y-90475795D01*
X152728832Y-90472739D01*
X152978715Y-90408402D01*
X152984830Y-90408478D01*
G37*
%TD.AperFunction*%
%TD*%
%TA.AperFunction,Conductor*%
%TO.N,LED_R*%
G36*
X138126257Y-89715927D02*
G01*
X138128305Y-89718689D01*
X138452189Y-90325252D01*
X138453063Y-90334164D01*
X138448877Y-90340131D01*
X138007009Y-90670755D01*
X137998332Y-90672968D01*
X137992991Y-90670755D01*
X137551122Y-90340131D01*
X137546550Y-90332431D01*
X137547810Y-90325252D01*
X137871695Y-89718689D01*
X137878615Y-89713005D01*
X137882016Y-89712500D01*
X138117984Y-89712500D01*
X138126257Y-89715927D01*
G37*
%TD.AperFunction*%
%TD*%
%TA.AperFunction,Conductor*%
%TO.N,LED_R*%
G36*
X138281479Y-89555946D02*
G01*
X138288907Y-89560945D01*
X138290626Y-89569733D01*
X138290315Y-89570937D01*
X138127583Y-90086060D01*
X138121823Y-90092917D01*
X138116426Y-90094236D01*
X137883574Y-90094236D01*
X137875301Y-90090809D01*
X137872417Y-90086060D01*
X137709684Y-89570937D01*
X137710460Y-89562016D01*
X137717317Y-89556256D01*
X137718500Y-89555950D01*
X137997682Y-89499469D01*
X138002318Y-89499469D01*
X138281479Y-89555946D01*
G37*
%TD.AperFunction*%
%TD*%
%TA.AperFunction,Conductor*%
%TO.N,LED_R*%
G36*
X158709862Y-86508487D02*
G01*
X159343962Y-86688745D01*
X159350983Y-86694303D01*
X159352017Y-86703198D01*
X159346459Y-86710219D01*
X159343962Y-86711253D01*
X158709801Y-86891530D01*
X158703742Y-86891621D01*
X158454072Y-86828681D01*
X158446888Y-86823336D01*
X158445232Y-86817357D01*
X158444872Y-86585494D01*
X158448286Y-86577217D01*
X158453595Y-86574162D01*
X158703690Y-86508425D01*
X158709862Y-86508487D01*
G37*
%TD.AperFunction*%
%TD*%
%TA.AperFunction,Conductor*%
%TO.N,LED_R*%
G36*
X158070582Y-86434038D02*
G01*
X158585422Y-86573884D01*
X158592507Y-86579360D01*
X158594054Y-86585157D01*
X158594416Y-86817989D01*
X158591002Y-86826267D01*
X158586681Y-86829015D01*
X158071273Y-87014645D01*
X158062328Y-87014224D01*
X158056300Y-87007602D01*
X158055842Y-87005964D01*
X157999470Y-86727319D01*
X157999470Y-86722682D01*
X158056049Y-86443008D01*
X158061049Y-86435581D01*
X158069837Y-86433862D01*
X158070582Y-86434038D01*
G37*
%TD.AperFunction*%
%TD*%
%TA.AperFunction,Conductor*%
%TO.N,LED_G*%
G36*
X158709830Y-87158477D02*
G01*
X158935907Y-87222746D01*
X159343962Y-87338746D01*
X159350983Y-87344304D01*
X159352017Y-87353199D01*
X159346459Y-87360220D01*
X159343962Y-87361254D01*
X158709832Y-87541521D01*
X158703716Y-87541598D01*
X158453836Y-87477268D01*
X158446678Y-87471886D01*
X158445053Y-87465940D01*
X158445051Y-87234075D01*
X158448478Y-87225803D01*
X158453830Y-87222747D01*
X158703715Y-87158402D01*
X158709830Y-87158477D01*
G37*
%TD.AperFunction*%
%TD*%
%TA.AperFunction,Conductor*%
%TO.N,LED_G*%
G36*
X157910060Y-87219355D02*
G01*
X157912627Y-87219744D01*
X157927304Y-87223676D01*
X157934107Y-87225500D01*
X158044650Y-87225500D01*
X158052923Y-87228927D01*
X158056350Y-87237200D01*
X158056352Y-87468940D01*
X158052925Y-87477213D01*
X158051389Y-87478506D01*
X157886100Y-87594909D01*
X157882392Y-87596644D01*
X157872501Y-87599294D01*
X157872498Y-87599295D01*
X157758376Y-87665184D01*
X157758371Y-87665188D01*
X157692567Y-87730991D01*
X157691031Y-87732284D01*
X157676447Y-87742555D01*
X157667710Y-87744517D01*
X157660144Y-87739726D01*
X157660000Y-87739516D01*
X157501728Y-87504057D01*
X157499957Y-87495279D01*
X157499970Y-87495210D01*
X157552167Y-87237200D01*
X157556553Y-87215517D01*
X157561553Y-87208090D01*
X157568471Y-87206148D01*
X157910060Y-87219355D01*
G37*
%TD.AperFunction*%
%TD*%
%TA.AperFunction,Conductor*%
%TO.N,Net-(U4-BST)*%
G36*
X168574868Y-74475986D02*
G01*
X168575733Y-74476347D01*
X168955300Y-74634500D01*
X168961619Y-74640845D01*
X168962500Y-74645300D01*
X168962500Y-74879699D01*
X168959073Y-74887972D01*
X168955300Y-74890499D01*
X168574874Y-75049010D01*
X168565919Y-75049029D01*
X168565096Y-75048652D01*
X168019657Y-74772942D01*
X168013819Y-74766151D01*
X168014493Y-74757222D01*
X168019657Y-74752058D01*
X168565097Y-74476346D01*
X168574025Y-74475673D01*
X168574868Y-74475986D01*
G37*
%TD.AperFunction*%
%TD*%
%TA.AperFunction,Conductor*%
%TO.N,Net-(U4-BST)*%
G36*
X169671602Y-74400257D02*
G01*
X169676759Y-74404695D01*
X169995758Y-74907735D01*
X169997294Y-74916557D01*
X169993790Y-74922619D01*
X169563009Y-75318153D01*
X169554597Y-75321224D01*
X169547436Y-75318379D01*
X169054040Y-74890999D01*
X169050030Y-74882992D01*
X169050000Y-74882155D01*
X169050000Y-74645513D01*
X169053427Y-74637240D01*
X169057472Y-74634604D01*
X169662652Y-74400052D01*
X169671602Y-74400257D01*
G37*
%TD.AperFunction*%
%TD*%
%TA.AperFunction,Conductor*%
%TO.N,Net-(U4-FB)*%
G36*
X169585255Y-72265565D02*
G01*
X169777850Y-72443887D01*
X169993503Y-72643559D01*
X169997245Y-72651693D01*
X169995131Y-72658863D01*
X169676058Y-73113585D01*
X169668501Y-73118389D01*
X169664043Y-73118308D01*
X169059262Y-72989473D01*
X169051885Y-72984398D01*
X169050000Y-72978030D01*
X169050000Y-72742676D01*
X169053427Y-72734403D01*
X169053811Y-72734036D01*
X169569439Y-72265490D01*
X169577865Y-72262463D01*
X169585255Y-72265565D01*
G37*
%TD.AperFunction*%
%TD*%
%TA.AperFunction,Conductor*%
%TO.N,Net-(U4-FB)*%
G36*
X167754102Y-70828464D02*
G01*
X168225780Y-71059223D01*
X168231705Y-71065937D01*
X168232204Y-71071496D01*
X168126515Y-71764767D01*
X168121881Y-71772429D01*
X168114949Y-71774704D01*
X167879920Y-71774704D01*
X167871647Y-71771277D01*
X167871559Y-71771188D01*
X167717448Y-71613739D01*
X167378080Y-71267018D01*
X167374743Y-71258711D01*
X167377585Y-71251192D01*
X167740104Y-70831327D01*
X167748105Y-70827305D01*
X167754102Y-70828464D01*
G37*
%TD.AperFunction*%
%TD*%
%TA.AperFunction,Conductor*%
%TO.N,LED_B*%
G36*
X158709830Y-87808477D02*
G01*
X159178170Y-87941615D01*
X159343962Y-87988746D01*
X159350983Y-87994304D01*
X159352017Y-88003199D01*
X159346459Y-88010220D01*
X159343962Y-88011254D01*
X158709831Y-88191521D01*
X158703714Y-88191597D01*
X158453834Y-88127254D01*
X158446677Y-88121873D01*
X158445052Y-88115924D01*
X158445052Y-88000000D01*
X158445052Y-87884060D01*
X158448479Y-87875790D01*
X158453831Y-87872733D01*
X158703719Y-87808401D01*
X158709830Y-87808477D01*
G37*
%TD.AperFunction*%
%TD*%
%TA.AperFunction,Conductor*%
%TO.N,LED_B*%
G36*
X158647486Y-87873155D02*
G01*
X158654953Y-87878097D01*
X158656953Y-87884640D01*
X158656953Y-88117414D01*
X158653526Y-88125687D01*
X158650035Y-88128092D01*
X158241352Y-88311100D01*
X158232401Y-88311354D01*
X158226860Y-88306949D01*
X158106635Y-88128092D01*
X158067414Y-88069743D01*
X158065644Y-88060966D01*
X158065657Y-88060897D01*
X158101315Y-87884640D01*
X158121912Y-87782829D01*
X158126911Y-87775402D01*
X158135610Y-87773666D01*
X158647486Y-87873155D01*
G37*
%TD.AperFunction*%
%TD*%
%TA.AperFunction,Conductor*%
%TO.N,LED_B*%
G36*
X141336233Y-91707608D02*
G01*
X141941231Y-91864115D01*
X141948382Y-91869504D01*
X141950001Y-91875442D01*
X141949997Y-92111029D01*
X141946570Y-92119302D01*
X141945945Y-92119883D01*
X141423237Y-92571426D01*
X141414737Y-92574241D01*
X141407445Y-92570972D01*
X141006168Y-92181948D01*
X141002613Y-92173729D01*
X141004735Y-92166828D01*
X141038083Y-92119302D01*
X141323730Y-91712214D01*
X141331286Y-91707412D01*
X141336233Y-91707608D01*
G37*
%TD.AperFunction*%
%TD*%
%TA.AperFunction,Conductor*%
%TO.N,LED_B*%
G36*
X142005458Y-91701846D02*
G01*
X142011218Y-91708703D01*
X142011529Y-91709907D01*
X142068005Y-91989066D01*
X142068005Y-91993706D01*
X142011529Y-92272864D01*
X142006529Y-92280293D01*
X141997741Y-92282012D01*
X141996536Y-92281700D01*
X141481413Y-92118954D01*
X141474557Y-92113194D01*
X141473238Y-92107798D01*
X141473240Y-91991386D01*
X141473242Y-91874944D01*
X141476669Y-91866674D01*
X141481415Y-91863791D01*
X141996538Y-91701070D01*
X142005458Y-91701846D01*
G37*
%TD.AperFunction*%
%TD*%
%TA.AperFunction,Conductor*%
%TO.N,GPIO*%
G36*
X154586269Y-91772734D02*
G01*
X154593426Y-91778115D01*
X154595051Y-91784064D01*
X154595051Y-92015925D01*
X154591624Y-92024198D01*
X154586268Y-92027255D01*
X154336388Y-92091597D01*
X154330272Y-92091521D01*
X153696141Y-91911254D01*
X153689120Y-91905696D01*
X153688086Y-91896801D01*
X153693644Y-91889780D01*
X153696141Y-91888746D01*
X154330273Y-91708477D01*
X154336384Y-91708401D01*
X154586269Y-91772734D01*
G37*
%TD.AperFunction*%
%TD*%
M02*
