M48
; DRILL file {KiCad 9.0.7} date 2026-03-15T18:36:42-0500
; FORMAT={-:-/ absolute / inch / decimal}
; #@! TF.CreationDate,2026-03-15T18:36:42-05:00
; #@! TF.GenerationSoftware,Kicad,Pcbnew,9.0.7
; #@! TF.FileFunction,Plated,1,4,PTH
FMAT,2
INCH
; #@! TA.AperFunction,Plated,PTH,ViaDrill
T1C0.0118
; #@! TA.AperFunction,Plated,PTH,ComponentDrill
T2C0.0315
; #@! TA.AperFunction,Plated,PTH,ComponentDrill
T3C0.0374
; #@! TA.AperFunction,Plated,PTH,ComponentDrill
T4C0.0394
; #@! TA.AperFunction,Plated,PTH,ComponentDrill
T5C0.0420
; #@! TA.AperFunction,Plated,PTH,ComponentDrill
T6C0.0453
; #@! TA.AperFunction,Plated,PTH,ComponentDrill
T7C0.0690
%
G90
G05
T1
X5.4331Y-3.5236
X5.4382Y-3.6437
X5.4382Y-3.7008
X5.5118Y-3.563
X5.5512Y-3.7008
X5.5837Y-3.563
X5.5906Y-3.189
X5.5932Y-3.6217
X5.6496Y-3.6319
X5.6496Y-3.7008
X5.6693Y-3.0709
X5.7008Y-3.4242
X5.7244Y-3.2542
X5.748Y-3.6319
X5.748Y-3.7008
X5.8031Y-2.5357
X5.8031Y-3.2542
X5.8268Y-2.9528
X5.8268Y-3.0709
X5.8268Y-3.189
X5.8268Y-3.4242
X5.8425Y-2.5357
X5.8425Y-3.2542
X5.8819Y-2.5357
X5.8927Y-3.5315
X5.9213Y-3.2542
X5.9449Y-2.9528
X5.9449Y-3.0709
X5.9449Y-3.189
X5.9606Y-3.252
X5.9646Y-3.3996
X6.0394Y-3.2542
X6.0495Y-3.3858
X6.063Y-2.9528
X6.063Y-3.0709
X6.063Y-3.189
X6.0787Y-2.5357
X6.0787Y-3.2542
X6.1024Y-2.5984
X6.1024Y-2.6575
X6.1024Y-2.7165
X6.1024Y-2.7756
X6.1024Y-2.8346
X6.1024Y-3.5211
X6.1024Y-3.5658
X6.1181Y-2.5357
X6.1181Y-3.2542
X6.1393Y-3.6078
X6.1575Y-2.5357
X6.1575Y-3.2542
X6.1811Y-2.5984
X6.1811Y-2.6575
X6.1811Y-2.7165
X6.1811Y-2.7756
X6.1811Y-2.8346
X6.1811Y-3.0709
X6.1811Y-3.189
X6.1969Y-2.5357
X6.2008Y-3.4449
X6.2205Y-2.9528
X6.2205Y-3.4144
X6.2205Y-3.5211
X6.2205Y-3.5658
X6.2231Y-3.4672
X6.2598Y-2.5984
X6.2598Y-2.6575
X6.2598Y-2.7165
X6.2598Y-2.7756
X6.2598Y-2.8346
X6.2598Y-3.1693
X6.2749Y-3.3858
X6.2756Y-2.5357
X6.3386Y-3.5236
X6.3976Y-2.9636
X6.3976Y-3.0315
X6.4739Y-3.6693
X6.5246Y-2.8686
X6.5323Y-2.7884
X6.5418Y-3.6693
X6.5514Y-3.5807
X6.6014Y-3.5807
X6.6929Y-2.7884
T2
X5.7874Y-3.3386
X5.9252Y-3.3386
T3
X6.3976Y-2.5787
X6.3976Y-2.6772
X6.3976Y-2.7756
X6.3976Y-2.874
T4
X5.9008Y-3.6811
X6.0008Y-3.6811
X6.1008Y-3.6811
X6.2008Y-3.6811
X6.3998Y-3.1102
X6.3998Y-3.2087
X6.3998Y-3.4449
X6.3998Y-3.5433
T5
X5.5709Y-2.815
X5.5709Y-2.9528
X5.5709Y-3.2677
X5.5709Y-3.4055
T6
X6.6496Y-3.6929
T7
X5.2594Y-2.7165
X5.2594Y-3.0512
X5.2594Y-3.1693
X5.2594Y-3.5039
M30
