%TF.GenerationSoftware,KiCad,Pcbnew,9.0.8-9.0.8~ubuntu22.04.1*%
%TF.CreationDate,2026-03-23T11:12:45-05:00*%
%TF.ProjectId,Smart_MoCo,536d6172-745f-44d6-9f43-6f2e6b696361,rev?*%
%TF.SameCoordinates,Original*%
%TF.FileFunction,Copper,L1,Top*%
%TF.FilePolarity,Positive*%
%FSLAX46Y46*%
G04 Gerber Fmt 4.6, Leading zero omitted, Abs format (unit mm)*
G04 Created by KiCad (PCBNEW 9.0.8-9.0.8~ubuntu22.04.1) date 2026-03-23 11:12:45*
%MOMM*%
%LPD*%
G01*
G04 APERTURE LIST*
G04 Aperture macros list*
%AMRoundRect*
0 Rectangle with rounded corners*
0 $1 Rounding radius*
0 $2 $3 $4 $5 $6 $7 $8 $9 X,Y pos of 4 corners*
0 Add a 4 corners polygon primitive as box body*
4,1,4,$2,$3,$4,$5,$6,$7,$8,$9,$2,$3,0*
0 Add four circle primitives for the rounded corners*
1,1,$1+$1,$2,$3*
1,1,$1+$1,$4,$5*
1,1,$1+$1,$6,$7*
1,1,$1+$1,$8,$9*
0 Add four rect primitives between the rounded corners*
20,1,$1+$1,$2,$3,$4,$5,0*
20,1,$1+$1,$4,$5,$6,$7,0*
20,1,$1+$1,$6,$7,$8,$9,0*
20,1,$1+$1,$8,$9,$2,$3,0*%
G04 Aperture macros list end*
%TA.AperFunction,SMDPad,CuDef*%
%ADD10RoundRect,0.155000X-0.155000X0.212500X-0.155000X-0.212500X0.155000X-0.212500X0.155000X0.212500X0*%
%TD*%
%TA.AperFunction,SMDPad,CuDef*%
%ADD11RoundRect,0.237500X-0.237500X0.250000X-0.237500X-0.250000X0.237500X-0.250000X0.237500X0.250000X0*%
%TD*%
%TA.AperFunction,SMDPad,CuDef*%
%ADD12R,1.143000X0.990600*%
%TD*%
%TA.AperFunction,SMDPad,CuDef*%
%ADD13RoundRect,0.237500X0.237500X-0.250000X0.237500X0.250000X-0.237500X0.250000X-0.237500X-0.250000X0*%
%TD*%
%TA.AperFunction,ComponentPad*%
%ADD14C,1.574800*%
%TD*%
%TA.AperFunction,ComponentPad*%
%ADD15C,2.260600*%
%TD*%
%TA.AperFunction,SMDPad,CuDef*%
%ADD16RoundRect,0.237500X0.237500X-0.287500X0.237500X0.287500X-0.237500X0.287500X-0.237500X-0.287500X0*%
%TD*%
%TA.AperFunction,ComponentPad*%
%ADD17RoundRect,0.250000X0.725000X-0.600000X0.725000X0.600000X-0.725000X0.600000X-0.725000X-0.600000X0*%
%TD*%
%TA.AperFunction,ComponentPad*%
%ADD18O,1.950000X1.700000*%
%TD*%
%TA.AperFunction,ComponentPad*%
%ADD19C,1.600000*%
%TD*%
%TA.AperFunction,ComponentPad*%
%ADD20RoundRect,0.250000X0.750000X-0.600000X0.750000X0.600000X-0.750000X0.600000X-0.750000X-0.600000X0*%
%TD*%
%TA.AperFunction,ComponentPad*%
%ADD21O,2.000000X1.700000*%
%TD*%
%TA.AperFunction,SMDPad,CuDef*%
%ADD22R,0.711200X0.914400*%
%TD*%
%TA.AperFunction,ComponentPad*%
%ADD23R,1.700000X1.700000*%
%TD*%
%TA.AperFunction,ComponentPad*%
%ADD24C,1.700000*%
%TD*%
%TA.AperFunction,ComponentPad*%
%ADD25RoundRect,0.250000X-0.825000X-0.825000X0.825000X-0.825000X0.825000X0.825000X-0.825000X0.825000X0*%
%TD*%
%TA.AperFunction,ViaPad*%
%ADD26C,0.600000*%
%TD*%
%TA.AperFunction,Conductor*%
%ADD27C,0.250000*%
%TD*%
%TA.AperFunction,Conductor*%
%ADD28C,0.600000*%
%TD*%
G04 APERTURE END LIST*
D10*
%TO.P,C7,1*%
%TO.N,+3V3*%
X155000000Y-89436000D03*
%TO.P,C7,2*%
%TO.N,GND*%
X155000000Y-90571000D03*
%TD*%
D11*
%TO.P,R13,1*%
%TO.N,Net-(U5-G)*%
X143500000Y-84500000D03*
%TO.P,R13,2*%
%TO.N,GND*%
X143500000Y-86325000D03*
%TD*%
D12*
%TO.P,D1,1,RA*%
%TO.N,Net-(D1-RA)*%
X138129800Y-92550000D03*
%TO.P,D1,2,GA*%
%TO.N,Net-(D1-GA)*%
X141000000Y-92550000D03*
%TO.P,D1,3,BA*%
%TO.N,Net-(D1-BA)*%
X141000000Y-94000000D03*
%TO.P,D1,4,K*%
%TO.N,GND*%
X138129800Y-94000000D03*
%TD*%
D13*
%TO.P,R2,1*%
%TO.N,Net-(U2-EN{slash}DIAGA)*%
X155400000Y-80911500D03*
%TO.P,R2,2*%
%TO.N,+3V3*%
X155400000Y-79086500D03*
%TD*%
D14*
%TO.P,J6,1,1*%
%TO.N,/OUTA*%
X141500000Y-71499999D03*
%TO.P,J6,2,2*%
%TO.N,/OUTB*%
X141500000Y-75000001D03*
D15*
%TO.P,J6,MP,MP*%
%TO.N,GND*%
X133589932Y-69000000D03*
X133589932Y-77499998D03*
%TD*%
D16*
%TO.P,D3,1,K*%
%TO.N,GND*%
X146000000Y-94000000D03*
%TO.P,D3,2,A*%
%TO.N,Net-(D3-A)*%
X146000000Y-92250000D03*
%TD*%
D10*
%TO.P,C10,1*%
%TO.N,+3V3*%
X158000000Y-89436000D03*
%TO.P,C10,2*%
%TO.N,GND*%
X158000000Y-90571000D03*
%TD*%
D16*
%TO.P,D2,1,K*%
%TO.N,GND*%
X143500000Y-94000000D03*
%TO.P,D2,2,A*%
%TO.N,Net-(D2-A)*%
X143500000Y-92250000D03*
%TD*%
D17*
%TO.P,J2,1,Pin_1*%
%TO.N,+3V3*%
X162500000Y-73000000D03*
D18*
%TO.P,J2,2,Pin_2*%
%TO.N,ENC_A{slash}PWM*%
X162500000Y-70500000D03*
%TO.P,J2,3,Pin_3*%
%TO.N,ENC_B*%
X162500000Y-68000000D03*
%TO.P,J2,4,Pin_4*%
%TO.N,GND*%
X162500000Y-65500000D03*
%TD*%
D14*
%TO.P,J5,1,1*%
%TO.N,Net-(U5-D)*%
X141500000Y-83000000D03*
%TO.P,J5,2,2*%
%TO.N,GND*%
X141500000Y-86500002D03*
D15*
%TO.P,J5,MP,MP*%
X133589932Y-80500001D03*
X133589932Y-88999999D03*
%TD*%
D10*
%TO.P,C9,1*%
%TO.N,+3V3*%
X157000000Y-89432500D03*
%TO.P,C9,2*%
%TO.N,GND*%
X157000000Y-90567500D03*
%TD*%
D11*
%TO.P,R3,1*%
%TO.N,+3V3*%
X152500000Y-79087500D03*
%TO.P,R3,2*%
%TO.N,Net-(U2-EN{slash}DIAGB)*%
X152500000Y-80912500D03*
%TD*%
D19*
%TO.P,C2,1*%
%TO.N,+12V*%
X147000000Y-84800000D03*
%TO.P,C2,2*%
%TO.N,GND*%
X150500000Y-84800000D03*
%TD*%
D20*
%TO.P,J3,1,Pin_1*%
%TO.N,LIM_A*%
X162555000Y-81500000D03*
D21*
%TO.P,J3,2,Pin_2*%
%TO.N,LIM_B*%
X162555000Y-79000000D03*
%TD*%
D20*
%TO.P,J1,1,Pin_1*%
%TO.N,CANH*%
X162555000Y-90000000D03*
D21*
%TO.P,J1,2,Pin_2*%
%TO.N,CANL*%
X162555000Y-87500000D03*
%TD*%
D22*
%TO.P,D4,1*%
%TO.N,+12V*%
X144000000Y-77374400D03*
%TO.P,D4,2*%
%TO.N,Net-(U5-G)*%
X144000000Y-80625600D03*
%TD*%
D23*
%TO.P,J4,1,Pin_1*%
%TO.N,+3V3*%
X149880000Y-93500000D03*
D24*
%TO.P,J4,2,Pin_2*%
%TO.N,SWCLK*%
X152420000Y-93500000D03*
%TO.P,J4,3,Pin_3*%
%TO.N,SWDIO*%
X154960000Y-93500000D03*
%TO.P,J4,4,Pin_4*%
%TO.N,GND*%
X157500000Y-93500000D03*
%TD*%
D10*
%TO.P,C8,1*%
%TO.N,+3V3*%
X156000000Y-89436000D03*
%TO.P,C8,2*%
%TO.N,GND*%
X156000000Y-90571000D03*
%TD*%
%TO.P,C6,1*%
%TO.N,+3V3*%
X154000000Y-89436000D03*
%TO.P,C6,2*%
%TO.N,GND*%
X154000000Y-90571000D03*
%TD*%
D25*
%TO.P,J7,1,Pin_1*%
%TO.N,GPIO*%
X168900000Y-93800000D03*
%TD*%
D26*
%TO.N,/OUTA*%
X159000000Y-67500000D03*
%TO.N,GND*%
X149675000Y-89700000D03*
X151500000Y-86350000D03*
X149400000Y-64406000D03*
X167675000Y-90950000D03*
X143500000Y-94000000D03*
X160264605Y-88650001D03*
X158000000Y-90571000D03*
X156400000Y-64406000D03*
X146000000Y-94000000D03*
X154400000Y-82656000D03*
X157400000Y-64406000D03*
X147400000Y-64406000D03*
X162500000Y-75275000D03*
X155000000Y-90571000D03*
X166162500Y-93200000D03*
X155400000Y-64406000D03*
X138129800Y-94000000D03*
X148400000Y-64406000D03*
X165921000Y-70825500D03*
%TO.N,+3V3*%
X158000000Y-89436000D03*
X162500000Y-77000000D03*
X170000000Y-70825500D03*
X166405000Y-90950000D03*
X164437500Y-93200000D03*
X155000000Y-89436000D03*
X158000000Y-81480998D03*
%TO.N,+12V*%
X157000000Y-78000000D03*
X148000000Y-81000000D03*
X148000000Y-75000000D03*
X154000000Y-75000000D03*
X165725000Y-72862500D03*
X148000000Y-78000000D03*
X144000000Y-78000000D03*
X151000000Y-75000000D03*
X154000000Y-78000000D03*
X158000000Y-75000000D03*
X154000000Y-81000000D03*
X147400000Y-82656000D03*
X148400000Y-82656000D03*
X151000000Y-81000000D03*
X151000000Y-78000000D03*
X157400000Y-82656000D03*
%TO.N,Net-(U2-EN{slash}DIAGA)*%
X155400000Y-82656000D03*
%TO.N,Net-(U2-EN{slash}DIAGB)*%
X151400000Y-82600000D03*
%TO.N,ENC_A{slash}PWM*%
X159382552Y-86000000D03*
%TO.N,Net-(D1-GA)*%
X140000000Y-90500000D03*
%TO.N,IN_A*%
X156400000Y-82656000D03*
X148000000Y-86974999D03*
%TO.N,Net-(D2-A)*%
X143500000Y-92250000D03*
%TO.N,LED_R*%
X138000000Y-89500000D03*
X158000000Y-86725000D03*
%TO.N,Net-(D3-A)*%
X146000000Y-92250000D03*
%TO.N,IN_B*%
X144800000Y-86975000D03*
X150400000Y-82656000D03*
%TO.N,Net-(D1-RA)*%
X138129800Y-92550000D03*
%TO.N,PWM*%
X153657552Y-86000000D03*
X153400000Y-82656000D03*
%TO.N,LED_G*%
X157500000Y-87500000D03*
X141825000Y-90500000D03*
%TO.N,/OUTB*%
X145400000Y-82656000D03*
%TO.N,/OUTA*%
X155000000Y-69000000D03*
X155000000Y-70500000D03*
X154400000Y-64406000D03*
X159000000Y-66000000D03*
X155000000Y-72000000D03*
X159000000Y-70500000D03*
X157000000Y-67500000D03*
X159000000Y-69000000D03*
X157000000Y-69000000D03*
X157000000Y-72000000D03*
X157000000Y-70500000D03*
X159400000Y-64406000D03*
X159000000Y-72000000D03*
X157000000Y-66000000D03*
%TO.N,LED_B*%
X158065687Y-88065687D03*
X142067476Y-91991386D03*
%TO.N,Net-(D1-BA)*%
X141000000Y-94000000D03*
%TO.N,GPIO*%
X155938066Y-91638065D03*
%TO.N,Net-(U5-G)*%
X142000000Y-81000000D03*
%TD*%
D27*
%TO.N,GND*%
X154000000Y-90567500D02*
X157996500Y-90567500D01*
X143412498Y-86412500D02*
X143500000Y-86325000D01*
X143201251Y-86500001D02*
X141500000Y-86500002D01*
X143412498Y-86412500D02*
G75*
G02*
X143201251Y-86500022I-211298J211300D01*
G01*
%TO.N,+3V3*%
X158000000Y-81480998D02*
X155606502Y-79087500D01*
X155606502Y-79087500D02*
X152500000Y-79087500D01*
X154000000Y-89432500D02*
X157996500Y-89432500D01*
%TO.N,+12V*%
X158853560Y-74500034D02*
X162929610Y-74500006D01*
X158250023Y-74750012D02*
X158000022Y-74999987D01*
X165725000Y-72862500D02*
X164906249Y-73681249D01*
X158853560Y-74500034D02*
G75*
G03*
X158250043Y-74750032I40J-853566D01*
G01*
X164906249Y-73681249D02*
G75*
G02*
X162929610Y-74500004I-1976649J1976649D01*
G01*
%TO.N,Net-(U2-EN{slash}DIAGA)*%
X155364878Y-82596268D02*
X155365000Y-80911500D01*
X155382438Y-82638522D02*
X155400000Y-82656000D01*
X155364878Y-82596268D02*
G75*
G03*
X155382421Y-82638539I59622J-32D01*
G01*
%TO.N,Net-(U2-EN{slash}DIAGB)*%
X152396119Y-81603838D02*
X151400000Y-82600000D01*
X152499976Y-81353112D02*
X152499982Y-81206241D01*
X152499976Y-81353112D02*
G75*
G02*
X152396114Y-81603833I-354576J12D01*
G01*
%TO.N,ENC_A{slash}PWM*%
X162499995Y-70514342D02*
X162499991Y-70523292D01*
X159625990Y-85584405D02*
X159625999Y-80097567D01*
X162499991Y-70523292D02*
X162499993Y-70526879D01*
X162484791Y-70543878D02*
X162488591Y-70540077D01*
X162499999Y-70505378D02*
X162499999Y-70507171D01*
X162484791Y-70543878D02*
X162474658Y-70554013D01*
X162498726Y-70529939D02*
X162496188Y-70532474D01*
X162500000Y-70501793D02*
X162500000Y-70500000D01*
X158764333Y-73499991D02*
X158707097Y-73499992D01*
X162500000Y-70501793D02*
X162499999Y-70505378D01*
X159504271Y-85878273D02*
X159382552Y-86000000D01*
X162474658Y-70554013D02*
X160069138Y-72959524D01*
X162496188Y-70532474D02*
X162493654Y-70535010D01*
X157394095Y-76008800D02*
X158312998Y-76927701D01*
X157500019Y-74000005D02*
X157394127Y-74105905D01*
X162493654Y-70535010D02*
X162491123Y-70537544D01*
X162499999Y-70507171D02*
X162499995Y-70514342D01*
X162491123Y-70537544D02*
X162488591Y-70540077D01*
X158707097Y-73499992D02*
G75*
G03*
X157500020Y-74000006I3J-1707008D01*
G01*
X160069138Y-72959524D02*
G75*
G02*
X158764333Y-73500010I-1304838J1304824D01*
G01*
X159625990Y-85584405D02*
G75*
G02*
X159504266Y-85878268I-415590J5D01*
G01*
X157000018Y-75057360D02*
G75*
G03*
X157394098Y-76008797I1345482J-40D01*
G01*
X158312998Y-76927701D02*
G75*
G02*
X159626013Y-80097567I-3169898J-3169899D01*
G01*
X162499993Y-70526879D02*
G75*
G02*
X162498729Y-70529942I-4293J-21D01*
G01*
X157394127Y-74105905D02*
G75*
G03*
X157000028Y-75057360I951573J-951495D01*
G01*
%TO.N,Net-(D1-GA)*%
X140000000Y-90500000D02*
X139999999Y-91024996D01*
X140371225Y-91921222D02*
X141000000Y-92550000D01*
X139999999Y-91024996D02*
G75*
G03*
X140371215Y-91921232I1267501J-4D01*
G01*
%TO.N,IN_A*%
X148000001Y-86975000D02*
X154906277Y-86975003D01*
X156400000Y-82656000D02*
X156400009Y-85481281D01*
X148000000Y-86974999D02*
X148000001Y-86975000D01*
X156400009Y-85481281D02*
G75*
G02*
X155962513Y-86537511I-1493709J-19D01*
G01*
X154906277Y-86975003D02*
G75*
G03*
X155962509Y-86537507I23J1493703D01*
G01*
%TO.N,LED_R*%
X140862366Y-88752351D02*
X141064705Y-88550009D01*
X156937500Y-87162503D02*
X157154030Y-86945972D01*
X139057355Y-89500010D02*
X138000000Y-89500000D01*
X155881281Y-87600006D02*
X143358207Y-87599998D01*
X157687500Y-86725000D02*
X158000000Y-86725000D01*
X157687500Y-86725000D02*
G75*
G03*
X157154038Y-86945980I0J-754400D01*
G01*
X143358207Y-87599998D02*
G75*
G03*
X141064696Y-88550000I-7J-3243502D01*
G01*
X155881281Y-87600006D02*
G75*
G03*
X156937508Y-87162511I19J1493706D01*
G01*
X139057355Y-89500010D02*
G75*
G03*
X140862375Y-88752360I45J2552610D01*
G01*
%TO.N,IN_B*%
X150243022Y-83256975D02*
X147134872Y-86365110D01*
X144800000Y-86975000D02*
X145662497Y-86974993D01*
X150400000Y-82877999D02*
X150400000Y-82656000D01*
X147134872Y-86365110D02*
G75*
G02*
X145662497Y-86974975I-1472372J1472410D01*
G01*
X150400000Y-82877999D02*
G75*
G02*
X150243033Y-83256986I-536000J-1D01*
G01*
%TO.N,PWM*%
X153400000Y-82656000D02*
X153400052Y-85560311D01*
X153528804Y-85871209D02*
X153657552Y-86000000D01*
X153400052Y-85560311D02*
G75*
G03*
X153528808Y-85871205I439748J11D01*
G01*
%TO.N,LED_G*%
X145922063Y-88100028D02*
X156475733Y-88100001D01*
X157199999Y-87800000D02*
X157500000Y-87500000D01*
X143025007Y-89300016D02*
X141825000Y-90500000D01*
X145922063Y-88100028D02*
G75*
G03*
X143025028Y-89300037I37J-4097072D01*
G01*
X157199999Y-87800000D02*
G75*
G02*
X156475733Y-88100014I-724299J724300D01*
G01*
D28*
%TO.N,/OUTB*%
X145400000Y-82656000D02*
X145399999Y-80536396D01*
X144853553Y-79353553D02*
X144949999Y-79449999D01*
X142207105Y-77707105D02*
X143146445Y-78646446D01*
X141500000Y-76000000D02*
X141500000Y-75000001D01*
X144853553Y-79353553D02*
G75*
G03*
X143999999Y-78999998I-853553J-853547D01*
G01*
X144949999Y-79449999D02*
G75*
G02*
X145400002Y-80536396I-1086399J-1086401D01*
G01*
X143146445Y-78646446D02*
G75*
G03*
X143999999Y-79000003I853555J853546D01*
G01*
X141500000Y-76000000D02*
G75*
G03*
X142207108Y-77707102I2414200J0D01*
G01*
D27*
%TO.N,LED_B*%
X143865069Y-90193779D02*
X142067476Y-91991386D01*
X157798532Y-88332849D02*
X158065687Y-88065687D01*
X147712817Y-88599987D02*
X157153558Y-88600011D01*
X147712817Y-88599987D02*
G75*
G03*
X143865064Y-90193774I-17J-5441513D01*
G01*
X157153558Y-88600011D02*
G75*
G03*
X157798551Y-88332868I42J912111D01*
G01*
%TO.N,GPIO*%
X155938066Y-91638065D02*
X164009341Y-91638070D01*
X167275729Y-93375743D02*
X166619028Y-92719040D01*
X168299997Y-93800005D02*
X168900000Y-93800000D01*
X164009341Y-91638070D02*
G75*
G02*
X166619003Y-92719064I-41J-3690630D01*
G01*
X167275729Y-93375743D02*
G75*
G03*
X168299997Y-93800018I1024271J1024243D01*
G01*
%TO.N,Net-(U5-G)*%
X143500001Y-83499999D02*
X143500000Y-84500000D01*
X142000000Y-81000000D02*
X142792894Y-81792892D01*
X142000000Y-81000000D02*
X143360857Y-81000000D01*
X143812799Y-80812800D02*
X144000000Y-80625600D01*
X143812799Y-80812800D02*
G75*
G02*
X143360857Y-80999982I-451899J451900D01*
G01*
X142792894Y-81792892D02*
G75*
G02*
X143500005Y-83499999I-1707094J-1707108D01*
G01*
%TD*%
%TA.AperFunction,Conductor*%
%TO.N,GND*%
G36*
X154279825Y-90263749D02*
G01*
X154613742Y-90439212D01*
X154619472Y-90446093D01*
X154620000Y-90449568D01*
X154620000Y-90685521D01*
X154616573Y-90693794D01*
X154613858Y-90695816D01*
X154281860Y-90875060D01*
X154272952Y-90875975D01*
X154267566Y-90872547D01*
X154107211Y-90692500D01*
X154005870Y-90578713D01*
X154002927Y-90570255D01*
X154005802Y-90563227D01*
X154265581Y-90266401D01*
X154273607Y-90262433D01*
X154279825Y-90263749D01*
G37*
%TD.AperFunction*%
%TD*%
%TA.AperFunction,Conductor*%
%TO.N,GND*%
G36*
X157734418Y-90266402D02*
G01*
X157994196Y-90563226D01*
X157997066Y-90571708D01*
X157994129Y-90578713D01*
X157732433Y-90872547D01*
X157724372Y-90876445D01*
X157718138Y-90875060D01*
X157386142Y-90695816D01*
X157380490Y-90688870D01*
X157380000Y-90685521D01*
X157380000Y-90449568D01*
X157383427Y-90441295D01*
X157386255Y-90439213D01*
X157720173Y-90263749D01*
X157729089Y-90262935D01*
X157734418Y-90266402D01*
G37*
%TD.AperFunction*%
%TD*%
%TA.AperFunction,Conductor*%
%TO.N,GND*%
G36*
X157938028Y-90281416D02*
G01*
X157943747Y-90288307D01*
X157944038Y-90289445D01*
X158000530Y-90568680D01*
X158000530Y-90573320D01*
X157944069Y-90852402D01*
X157939069Y-90859831D01*
X157930281Y-90861550D01*
X157929010Y-90861217D01*
X157413873Y-90695114D01*
X157407051Y-90689314D01*
X157405764Y-90683979D01*
X157405764Y-90451127D01*
X157409191Y-90442854D01*
X157414006Y-90439950D01*
X157900484Y-90289445D01*
X157929112Y-90280588D01*
X157938028Y-90281416D01*
G37*
%TD.AperFunction*%
%TD*%
%TA.AperFunction,Conductor*%
%TO.N,GND*%
G36*
X154992353Y-90457664D02*
G01*
X154994236Y-90464029D01*
X154994236Y-90677970D01*
X154990809Y-90686243D01*
X154982536Y-90689670D01*
X154980041Y-90689401D01*
X154733176Y-90635511D01*
X154725824Y-90630398D01*
X154724240Y-90621585D01*
X154729304Y-90614264D01*
X154976171Y-90454211D01*
X154984977Y-90452587D01*
X154992353Y-90457664D01*
G37*
%TD.AperFunction*%
%TD*%
%TA.AperFunction,Conductor*%
%TO.N,GND*%
G36*
X143094761Y-85925685D02*
G01*
X143493929Y-86318051D01*
X143497427Y-86326294D01*
X143495304Y-86333115D01*
X143176335Y-86787691D01*
X143168778Y-86792495D01*
X143163681Y-86792259D01*
X142558623Y-86627351D01*
X142551543Y-86621870D01*
X142550000Y-86616066D01*
X142550000Y-86380410D01*
X142553427Y-86372138D01*
X142554120Y-86371498D01*
X143078979Y-85925116D01*
X143087501Y-85922367D01*
X143094761Y-85925685D01*
G37*
%TD.AperFunction*%
%TD*%
%TA.AperFunction,Conductor*%
%TO.N,GND*%
G36*
X141946563Y-85849601D02*
G01*
X143052964Y-86371837D01*
X143058982Y-86378467D01*
X143059669Y-86382417D01*
X143059669Y-86617585D01*
X143056242Y-86625858D01*
X143052963Y-86628166D01*
X141946565Y-87150401D01*
X141937621Y-87150833D01*
X141931850Y-87146330D01*
X141883859Y-87074671D01*
X141503359Y-86506510D01*
X141501603Y-86497732D01*
X141503358Y-86493495D01*
X141931851Y-85853672D01*
X141939301Y-85848705D01*
X141946563Y-85849601D01*
G37*
%TD.AperFunction*%
%TD*%
%TA.AperFunction,Conductor*%
%TO.N,+3V3*%
G36*
X155880453Y-78857758D02*
G01*
X156291704Y-79592524D01*
X156292754Y-79601417D01*
X156289767Y-79606511D01*
X156123865Y-79772413D01*
X156115592Y-79775840D01*
X156112903Y-79775527D01*
X155271320Y-79576818D01*
X155264056Y-79571582D01*
X155262622Y-79562742D01*
X155262762Y-79562208D01*
X155397876Y-79090736D01*
X155403449Y-79083727D01*
X155403892Y-79083494D01*
X155865012Y-78853006D01*
X155873944Y-78852373D01*
X155880453Y-78857758D01*
G37*
%TD.AperFunction*%
%TD*%
%TA.AperFunction,Conductor*%
%TO.N,+3V3*%
G36*
X157675805Y-80976375D02*
G01*
X158155123Y-81225554D01*
X158160883Y-81232410D01*
X158160107Y-81241331D01*
X158159475Y-81242402D01*
X158002015Y-81479732D01*
X157998734Y-81483013D01*
X157761404Y-81640473D01*
X157752616Y-81642192D01*
X157745187Y-81637192D01*
X157744560Y-81636130D01*
X157495377Y-81156804D01*
X157494602Y-81147885D01*
X157497484Y-81143138D01*
X157662139Y-80978483D01*
X157670411Y-80975057D01*
X157675805Y-80976375D01*
G37*
%TD.AperFunction*%
%TD*%
%TA.AperFunction,Conductor*%
%TO.N,+3V3*%
G36*
X152837589Y-78623177D02*
G01*
X153443971Y-78959159D01*
X153449546Y-78966165D01*
X153450000Y-78969392D01*
X153450000Y-79205607D01*
X153446573Y-79213880D01*
X153443970Y-79215841D01*
X152837590Y-79551821D01*
X152828693Y-79552833D01*
X152822343Y-79548307D01*
X152503715Y-79094220D01*
X152501768Y-79085480D01*
X152503715Y-79080780D01*
X152822343Y-78626692D01*
X152829900Y-78621888D01*
X152837589Y-78623177D01*
G37*
%TD.AperFunction*%
%TD*%
%TA.AperFunction,Conductor*%
%TO.N,+3V3*%
G36*
X155077664Y-78625703D02*
G01*
X155396284Y-79079780D01*
X155398231Y-79088520D01*
X155396284Y-79093220D01*
X155077649Y-79547318D01*
X155070092Y-79552122D01*
X155062414Y-79550839D01*
X154456042Y-79215838D01*
X154450458Y-79208838D01*
X154450000Y-79205597D01*
X154450000Y-78969383D01*
X154453427Y-78961110D01*
X154456014Y-78959157D01*
X155062404Y-78622195D01*
X155071300Y-78621173D01*
X155077664Y-78625703D01*
G37*
%TD.AperFunction*%
%TD*%
%TA.AperFunction,Conductor*%
%TO.N,+3V3*%
G36*
X157734418Y-89131402D02*
G01*
X157994196Y-89428226D01*
X157997066Y-89436708D01*
X157994129Y-89443713D01*
X157732433Y-89737547D01*
X157724372Y-89741445D01*
X157718138Y-89740060D01*
X157386142Y-89560816D01*
X157380490Y-89553870D01*
X157380000Y-89550521D01*
X157380000Y-89314568D01*
X157383427Y-89306295D01*
X157386255Y-89304213D01*
X157720173Y-89128749D01*
X157729089Y-89127935D01*
X157734418Y-89131402D01*
G37*
%TD.AperFunction*%
%TD*%
%TA.AperFunction,Conductor*%
%TO.N,+3V3*%
G36*
X154279825Y-89128749D02*
G01*
X154613742Y-89304212D01*
X154619472Y-89311093D01*
X154620000Y-89314568D01*
X154620000Y-89550521D01*
X154616573Y-89558794D01*
X154613858Y-89560816D01*
X154281860Y-89740060D01*
X154272952Y-89740975D01*
X154267566Y-89737547D01*
X154107211Y-89557500D01*
X154005870Y-89443713D01*
X154002927Y-89435255D01*
X154005802Y-89428227D01*
X154265581Y-89131401D01*
X154273607Y-89127433D01*
X154279825Y-89128749D01*
G37*
%TD.AperFunction*%
%TD*%
%TA.AperFunction,Conductor*%
%TO.N,+3V3*%
G36*
X157938028Y-89146416D02*
G01*
X157943747Y-89153307D01*
X157944038Y-89154445D01*
X158000530Y-89433680D01*
X158000530Y-89438320D01*
X157944069Y-89717402D01*
X157939069Y-89724831D01*
X157930281Y-89726550D01*
X157929010Y-89726217D01*
X157413873Y-89560114D01*
X157407051Y-89554314D01*
X157405764Y-89548979D01*
X157405764Y-89316127D01*
X157409191Y-89307854D01*
X157414006Y-89304950D01*
X157900484Y-89154445D01*
X157929112Y-89145588D01*
X157938028Y-89146416D01*
G37*
%TD.AperFunction*%
%TD*%
%TA.AperFunction,Conductor*%
%TO.N,+3V3*%
G36*
X154992353Y-89322664D02*
G01*
X154994236Y-89329029D01*
X154994236Y-89542970D01*
X154990809Y-89551243D01*
X154982536Y-89554670D01*
X154980041Y-89554401D01*
X154733176Y-89500511D01*
X154725824Y-89495398D01*
X154724240Y-89486585D01*
X154729304Y-89479264D01*
X154976171Y-89319211D01*
X154984977Y-89317587D01*
X154992353Y-89322664D01*
G37*
%TD.AperFunction*%
%TD*%
%TA.AperFunction,Conductor*%
%TO.N,+12V*%
G36*
X158327649Y-74542066D02*
G01*
X158457302Y-74736104D01*
X158459049Y-74744887D01*
X158458047Y-74747820D01*
X158255346Y-75154813D01*
X158248590Y-75160691D01*
X158239657Y-75160070D01*
X158238407Y-75159347D01*
X158001140Y-75001863D01*
X157997861Y-74998584D01*
X157840988Y-74762105D01*
X157839271Y-74753318D01*
X157844271Y-74745889D01*
X157845992Y-74744946D01*
X158313180Y-74537869D01*
X158322132Y-74537650D01*
X158327649Y-74542066D01*
G37*
%TD.AperFunction*%
%TD*%
%TA.AperFunction,Conductor*%
%TO.N,+12V*%
G36*
X165485333Y-72702392D02*
G01*
X165486400Y-72703021D01*
X165712419Y-72852977D01*
X165723734Y-72860484D01*
X165727015Y-72863765D01*
X165884475Y-73101095D01*
X165886194Y-73109883D01*
X165881194Y-73117312D01*
X165880123Y-73117944D01*
X165400807Y-73367121D01*
X165391886Y-73367897D01*
X165387137Y-73365013D01*
X165222486Y-73200361D01*
X165219059Y-73192088D01*
X165220377Y-73186694D01*
X165469557Y-72707374D01*
X165476412Y-72701616D01*
X165485333Y-72702392D01*
G37*
%TD.AperFunction*%
%TD*%
%TA.AperFunction,Conductor*%
%TO.N,Net-(U2-EN{slash}DIAGA)*%
G36*
X155407007Y-80915744D02*
G01*
X155614493Y-81070993D01*
X155848522Y-81246103D01*
X155853094Y-81253803D01*
X155851588Y-81261419D01*
X155493326Y-81868256D01*
X155486169Y-81873638D01*
X155483250Y-81874008D01*
X155247308Y-81873990D01*
X155239035Y-81870563D01*
X155236751Y-81867332D01*
X154947392Y-81261419D01*
X154947213Y-81261045D01*
X154946741Y-81252105D01*
X154950762Y-81246638D01*
X155392991Y-80915744D01*
X155401668Y-80913532D01*
X155407007Y-80915744D01*
G37*
%TD.AperFunction*%
%TD*%
%TA.AperFunction,Conductor*%
%TO.N,Net-(U2-EN{slash}DIAGA)*%
G36*
X155481857Y-82061773D02*
G01*
X155490130Y-82065200D01*
X155492788Y-82069304D01*
X155689316Y-82584573D01*
X155689062Y-82593524D01*
X155682553Y-82599674D01*
X155680704Y-82600210D01*
X155402320Y-82656529D01*
X155397680Y-82656529D01*
X155117769Y-82599901D01*
X155110340Y-82594901D01*
X155108621Y-82586113D01*
X155108739Y-82585591D01*
X155108994Y-82584573D01*
X155237699Y-82070611D01*
X155243032Y-82063420D01*
X155249046Y-82061755D01*
X155481857Y-82061773D01*
G37*
%TD.AperFunction*%
%TD*%
%TA.AperFunction,Conductor*%
%TO.N,Net-(U2-EN{slash}DIAGB)*%
G36*
X151737850Y-82097477D02*
G01*
X151902506Y-82262127D01*
X151905933Y-82270400D01*
X151904614Y-82275796D01*
X151655444Y-82755122D01*
X151648588Y-82760882D01*
X151639667Y-82760107D01*
X151638595Y-82759475D01*
X151401265Y-82602015D01*
X151397984Y-82598734D01*
X151240524Y-82361404D01*
X151238805Y-82352616D01*
X151243805Y-82345187D01*
X151244863Y-82344562D01*
X151724183Y-82095370D01*
X151733103Y-82094595D01*
X151737850Y-82097477D01*
G37*
%TD.AperFunction*%
%TD*%
%TA.AperFunction,Conductor*%
%TO.N,Net-(U2-EN{slash}DIAGB)*%
G36*
X152507751Y-80920832D02*
G01*
X152847205Y-81356435D01*
X152849587Y-81365067D01*
X152845910Y-81372226D01*
X152318379Y-81858999D01*
X152309975Y-81862091D01*
X152302172Y-81858673D01*
X152135816Y-81692323D01*
X152132631Y-81686419D01*
X152067655Y-81372226D01*
X152044586Y-81260676D01*
X152046267Y-81251883D01*
X152049042Y-81248935D01*
X152491523Y-80918647D01*
X152500203Y-80916445D01*
X152507751Y-80920832D01*
G37*
%TD.AperFunction*%
%TD*%
%TA.AperFunction,Conductor*%
%TO.N,ENC_A{slash}PWM*%
G36*
X162493907Y-70498122D02*
G01*
X162501478Y-70502902D01*
X162502972Y-70505809D01*
X162787033Y-71322757D01*
X162786513Y-71331697D01*
X162779967Y-71337600D01*
X161356685Y-71853219D01*
X161347739Y-71852815D01*
X161344427Y-71850492D01*
X161177720Y-71683784D01*
X161174293Y-71675511D01*
X161174709Y-71672420D01*
X161270502Y-71322757D01*
X161538528Y-70344410D01*
X161544018Y-70337338D01*
X161551793Y-70335973D01*
X162493907Y-70498122D01*
G37*
%TD.AperFunction*%
%TD*%
%TA.AperFunction,Conductor*%
%TO.N,ENC_A{slash}PWM*%
G36*
X159745954Y-85487799D02*
G01*
X159749381Y-85496072D01*
X159749284Y-85497572D01*
X159678387Y-86046149D01*
X159673929Y-86053914D01*
X159665284Y-86056252D01*
X159664539Y-86056132D01*
X159387342Y-86001935D01*
X159379880Y-85996984D01*
X159379847Y-85996934D01*
X159221379Y-85758820D01*
X159219648Y-85750034D01*
X159223135Y-85743786D01*
X159486853Y-85497572D01*
X159497619Y-85487519D01*
X159505602Y-85484372D01*
X159737683Y-85484372D01*
X159745954Y-85487799D01*
G37*
%TD.AperFunction*%
%TD*%
%TA.AperFunction,Conductor*%
%TO.N,Net-(D1-GA)*%
G36*
X140280905Y-90555830D02*
G01*
X140288334Y-90560830D01*
X140290053Y-90569618D01*
X140289577Y-90571305D01*
X140127731Y-91015238D01*
X140121678Y-91021837D01*
X140116946Y-91022929D01*
X139883387Y-91027056D01*
X139875054Y-91023776D01*
X139872176Y-91019332D01*
X139870698Y-91015238D01*
X139710369Y-90571278D01*
X139710782Y-90562335D01*
X139717399Y-90556302D01*
X139719048Y-90555839D01*
X139997665Y-90499470D01*
X140002301Y-90499470D01*
X140280905Y-90555830D01*
G37*
%TD.AperFunction*%
%TD*%
%TA.AperFunction,Conductor*%
%TO.N,Net-(D1-GA)*%
G36*
X140301454Y-91634000D02*
G01*
X141202610Y-92049931D01*
X141208686Y-92056509D01*
X141208462Y-92065160D01*
X141002868Y-92545249D01*
X140996461Y-92551505D01*
X140994439Y-92552109D01*
X140438190Y-92664936D01*
X140429401Y-92663223D01*
X140424946Y-92657674D01*
X140196790Y-92065160D01*
X140077341Y-91754954D01*
X140077566Y-91746004D01*
X140082946Y-91740328D01*
X140291246Y-91634199D01*
X140300172Y-91633498D01*
X140301454Y-91634000D01*
G37*
%TD.AperFunction*%
%TD*%
%TA.AperFunction,Conductor*%
%TO.N,IN_A*%
G36*
X148070937Y-86684684D02*
G01*
X148586059Y-86847418D01*
X148592916Y-86853178D01*
X148594235Y-86858575D01*
X148594235Y-87091425D01*
X148590808Y-87099698D01*
X148586059Y-87102582D01*
X148070938Y-87265314D01*
X148062017Y-87264538D01*
X148056257Y-87257681D01*
X148055946Y-87256477D01*
X148024812Y-87102582D01*
X147999470Y-86977317D01*
X147999470Y-86972679D01*
X148023646Y-86853178D01*
X148055946Y-86693518D01*
X148060945Y-86686092D01*
X148069733Y-86684373D01*
X148070937Y-86684684D01*
G37*
%TD.AperFunction*%
%TD*%
%TA.AperFunction,Conductor*%
%TO.N,IN_A*%
G36*
X156657829Y-82707161D02*
G01*
X156681478Y-82711946D01*
X156688907Y-82716946D01*
X156690626Y-82725734D01*
X156690315Y-82726938D01*
X156527583Y-83242059D01*
X156521823Y-83248916D01*
X156516426Y-83250235D01*
X156283576Y-83250235D01*
X156275303Y-83246808D01*
X156272419Y-83242059D01*
X156109685Y-82726937D01*
X156110461Y-82718016D01*
X156117318Y-82712256D01*
X156118504Y-82711949D01*
X156397682Y-82655470D01*
X156402318Y-82655470D01*
X156657829Y-82707161D01*
G37*
%TD.AperFunction*%
%TD*%
%TA.AperFunction,Conductor*%
%TO.N,LED_R*%
G36*
X138070935Y-89209684D02*
G01*
X138586061Y-89372423D01*
X138592917Y-89378182D01*
X138594236Y-89383579D01*
X138594234Y-89616430D01*
X138590807Y-89624703D01*
X138586058Y-89627587D01*
X138070938Y-89790315D01*
X138062017Y-89789539D01*
X138056257Y-89782682D01*
X138055946Y-89781478D01*
X138024229Y-89624703D01*
X137999470Y-89502318D01*
X137999470Y-89497680D01*
X138023646Y-89378182D01*
X138055946Y-89218520D01*
X138060946Y-89211092D01*
X138069734Y-89209373D01*
X138070935Y-89209684D01*
G37*
%TD.AperFunction*%
%TD*%
%TA.AperFunction,Conductor*%
%TO.N,LED_R*%
G36*
X157937384Y-86436100D02*
G01*
X157943648Y-86442498D01*
X157944260Y-86444541D01*
X158000454Y-86722301D01*
X158000455Y-86726935D01*
X157943976Y-87006828D01*
X157938980Y-87014260D01*
X157930193Y-87015983D01*
X157929300Y-87015766D01*
X157482416Y-86888382D01*
X157475399Y-86882818D01*
X157474814Y-86881608D01*
X157410743Y-86726935D01*
X157385829Y-86666788D01*
X157385829Y-86657835D01*
X157392160Y-86651503D01*
X157392222Y-86651477D01*
X157928430Y-86436005D01*
X157937384Y-86436100D01*
G37*
%TD.AperFunction*%
%TD*%
%TA.AperFunction,Conductor*%
%TO.N,IN_B*%
G36*
X144870926Y-86684680D02*
G01*
X145386058Y-86847413D01*
X145392915Y-86853173D01*
X145394234Y-86858570D01*
X145394236Y-87091420D01*
X145390809Y-87099693D01*
X145386061Y-87102577D01*
X144870938Y-87265314D01*
X144862016Y-87264538D01*
X144856256Y-87257682D01*
X144855948Y-87256490D01*
X144799470Y-86977318D01*
X144799470Y-86972680D01*
X144822556Y-86858570D01*
X144855946Y-86693520D01*
X144860946Y-86686092D01*
X144869734Y-86684373D01*
X144870926Y-86684680D01*
G37*
%TD.AperFunction*%
%TD*%
%TA.AperFunction,Conductor*%
%TO.N,IN_B*%
G36*
X150404687Y-82657966D02*
G01*
X150485355Y-82712251D01*
X150640343Y-82816549D01*
X150645294Y-82824011D01*
X150643920Y-82832146D01*
X150373634Y-83296084D01*
X150366509Y-83301507D01*
X150357635Y-83300303D01*
X150355460Y-83298670D01*
X150352742Y-83296084D01*
X150187810Y-83139144D01*
X150184376Y-83132829D01*
X150126339Y-82824011D01*
X150107898Y-82725882D01*
X150109738Y-82717119D01*
X150117091Y-82712251D01*
X150395903Y-82656237D01*
X150404687Y-82657966D01*
G37*
%TD.AperFunction*%
%TD*%
%TA.AperFunction,Conductor*%
%TO.N,PWM*%
G36*
X153657829Y-82707161D02*
G01*
X153681478Y-82711946D01*
X153688907Y-82716946D01*
X153690626Y-82725734D01*
X153690315Y-82726938D01*
X153527592Y-83242057D01*
X153521832Y-83248914D01*
X153516435Y-83250233D01*
X153283584Y-83250237D01*
X153275311Y-83246810D01*
X153272428Y-83242062D01*
X153109685Y-82726939D01*
X153110460Y-82718018D01*
X153117316Y-82712258D01*
X153118518Y-82711946D01*
X153397682Y-82655470D01*
X153402318Y-82655470D01*
X153657829Y-82707161D01*
G37*
%TD.AperFunction*%
%TD*%
%TA.AperFunction,Conductor*%
%TO.N,PWM*%
G36*
X153528358Y-85491758D02*
G01*
X153816504Y-85743807D01*
X153820475Y-85751833D01*
X153818541Y-85759095D01*
X153660256Y-85996934D01*
X153652820Y-86001923D01*
X153652761Y-86001935D01*
X153375259Y-86056191D01*
X153366482Y-86054415D01*
X153361531Y-86046953D01*
X153361452Y-86046499D01*
X153354545Y-86001923D01*
X153277141Y-85502358D01*
X153279261Y-85493659D01*
X153286912Y-85489006D01*
X153288693Y-85488868D01*
X153520655Y-85488864D01*
X153528358Y-85491758D01*
G37*
%TD.AperFunction*%
%TD*%
%TA.AperFunction,Conductor*%
%TO.N,LED_G*%
G36*
X157260377Y-87340039D02*
G01*
X157262078Y-87340974D01*
X157498859Y-87498136D01*
X157502138Y-87501415D01*
X157659222Y-87738213D01*
X157660940Y-87747002D01*
X157655940Y-87754431D01*
X157654509Y-87755241D01*
X157205870Y-87969226D01*
X157196927Y-87969695D01*
X157191105Y-87965166D01*
X157061425Y-87771087D01*
X157059678Y-87762304D01*
X157060463Y-87759830D01*
X157244928Y-87345961D01*
X157251425Y-87339801D01*
X157260377Y-87340039D01*
G37*
%TD.AperFunction*%
%TD*%
%TA.AperFunction,Conductor*%
%TO.N,LED_G*%
G36*
X142162866Y-89997489D02*
G01*
X142327516Y-90162143D01*
X142330943Y-90170416D01*
X142329624Y-90175813D01*
X142080444Y-90655123D01*
X142073587Y-90660883D01*
X142064666Y-90660107D01*
X142063595Y-90659475D01*
X141826265Y-90502015D01*
X141822984Y-90498734D01*
X141665524Y-90261404D01*
X141663805Y-90252616D01*
X141668805Y-90245187D01*
X141669857Y-90244565D01*
X142149198Y-89995380D01*
X142158118Y-89994606D01*
X142162866Y-89997489D01*
G37*
%TD.AperFunction*%
%TD*%
%TA.AperFunction,Conductor*%
%TO.N,/OUTB*%
G36*
X142259033Y-75150966D02*
G01*
X142266471Y-75155949D01*
X142268208Y-75164734D01*
X142267764Y-75166342D01*
X141835240Y-76388131D01*
X141829249Y-76394787D01*
X141827239Y-76395528D01*
X141263870Y-76546483D01*
X141254992Y-76545315D01*
X141249894Y-76539308D01*
X140732588Y-75166508D01*
X140732877Y-75157558D01*
X140739410Y-75151434D01*
X140741237Y-75150910D01*
X141497444Y-74999495D01*
X141502036Y-74999495D01*
X142259033Y-75150966D01*
G37*
%TD.AperFunction*%
%TD*%
%TA.AperFunction,Conductor*%
%TO.N,LED_B*%
G36*
X142405335Y-91488871D02*
G01*
X142569987Y-91653522D01*
X142573414Y-91661795D01*
X142572095Y-91667192D01*
X142322920Y-92146509D01*
X142316064Y-92152269D01*
X142307142Y-92151493D01*
X142306071Y-92150861D01*
X142068741Y-91993401D01*
X142065460Y-91990120D01*
X141908000Y-91752790D01*
X141906281Y-91744002D01*
X141911281Y-91736573D01*
X141912336Y-91735950D01*
X142391667Y-91486762D01*
X142400586Y-91485987D01*
X142405335Y-91488871D01*
G37*
%TD.AperFunction*%
%TD*%
%TA.AperFunction,Conductor*%
%TO.N,LED_B*%
G36*
X157826059Y-87905714D02*
G01*
X157827718Y-87906630D01*
X158064546Y-88063823D01*
X158067825Y-88067102D01*
X158224721Y-88303616D01*
X158226439Y-88312405D01*
X158221439Y-88319834D01*
X158219746Y-88320765D01*
X157776498Y-88518928D01*
X157767547Y-88519176D01*
X157761995Y-88514747D01*
X157632387Y-88320765D01*
X157632198Y-88320482D01*
X157630452Y-88311701D01*
X157631260Y-88309179D01*
X157810584Y-87911568D01*
X157817109Y-87905436D01*
X157826059Y-87905714D01*
G37*
%TD.AperFunction*%
%TD*%
%TA.AperFunction,Conductor*%
%TO.N,GPIO*%
G36*
X156008985Y-91347744D02*
G01*
X156524126Y-91510483D01*
X156530982Y-91516243D01*
X156532301Y-91521640D01*
X156532301Y-91754490D01*
X156528874Y-91762763D01*
X156524125Y-91765647D01*
X156009004Y-91928380D01*
X156000083Y-91927604D01*
X155994323Y-91920747D01*
X155994012Y-91919543D01*
X155962294Y-91762763D01*
X155937536Y-91640383D01*
X155937536Y-91635745D01*
X155960621Y-91521640D01*
X155994012Y-91356585D01*
X155999012Y-91349157D01*
X156007800Y-91347438D01*
X156008985Y-91347744D01*
G37*
%TD.AperFunction*%
%TD*%
%TA.AperFunction,Conductor*%
%TO.N,GPIO*%
G36*
X167980836Y-92747136D02*
G01*
X167984484Y-92749943D01*
X168891711Y-93790390D01*
X168894566Y-93798877D01*
X168890582Y-93806897D01*
X168889117Y-93807986D01*
X167834406Y-94470530D01*
X167825577Y-94472029D01*
X167818611Y-94467352D01*
X167342664Y-93790390D01*
X166943595Y-93222774D01*
X166941640Y-93214035D01*
X166944891Y-93207774D01*
X167112790Y-93039875D01*
X167117291Y-93037075D01*
X167971901Y-92746555D01*
X167980836Y-92747136D01*
G37*
%TD.AperFunction*%
%TD*%
%TA.AperFunction,Conductor*%
%TO.N,Net-(U5-G)*%
G36*
X143626256Y-83540927D02*
G01*
X143628304Y-83543689D01*
X143952189Y-84150252D01*
X143953063Y-84159164D01*
X143948877Y-84165131D01*
X143507009Y-84495754D01*
X143498332Y-84497967D01*
X143492991Y-84495754D01*
X143051122Y-84165131D01*
X143046550Y-84157431D01*
X143047810Y-84150252D01*
X143371696Y-83543689D01*
X143378616Y-83538005D01*
X143382016Y-83537500D01*
X143617985Y-83537500D01*
X143626256Y-83540927D01*
G37*
%TD.AperFunction*%
%TD*%
%TA.AperFunction,Conductor*%
%TO.N,Net-(U5-G)*%
G36*
X142254812Y-80843805D02*
G01*
X142255444Y-80844876D01*
X142504621Y-81324191D01*
X142505397Y-81333112D01*
X142502513Y-81337861D01*
X142337862Y-81502513D01*
X142329589Y-81505940D01*
X142324192Y-81504621D01*
X141994278Y-81333112D01*
X141844875Y-81255443D01*
X141839116Y-81248587D01*
X141839892Y-81239666D01*
X141840516Y-81238607D01*
X141997985Y-81001263D01*
X142001263Y-80997985D01*
X142238596Y-80840523D01*
X142247383Y-80838805D01*
X142254812Y-80843805D01*
G37*
%TD.AperFunction*%
%TD*%
%TA.AperFunction,Conductor*%
%TO.N,Net-(U5-G)*%
G36*
X142070929Y-80709681D02*
G01*
X142586060Y-80872417D01*
X142592917Y-80878177D01*
X142594236Y-80883574D01*
X142594236Y-81116425D01*
X142590809Y-81124698D01*
X142586060Y-81127582D01*
X142070937Y-81290315D01*
X142062016Y-81289539D01*
X142056256Y-81282682D01*
X142055949Y-81281494D01*
X141999469Y-81002318D01*
X141999469Y-80997680D01*
X142022554Y-80883574D01*
X142055946Y-80718518D01*
X142060945Y-80711092D01*
X142069733Y-80709373D01*
X142070929Y-80709681D01*
G37*
%TD.AperFunction*%
%TD*%
%TA.AperFunction,Conductor*%
%TO.N,Net-(U5-G)*%
G36*
X143653431Y-80417829D02*
G01*
X143806662Y-80509428D01*
X143993734Y-80621256D01*
X143999077Y-80628442D01*
X143999148Y-80633858D01*
X143900394Y-81074298D01*
X143895240Y-81081621D01*
X143889795Y-81083409D01*
X143309134Y-81124122D01*
X143300642Y-81121283D01*
X143296645Y-81113269D01*
X143296616Y-81112451D01*
X143296616Y-80878908D01*
X143298964Y-80871877D01*
X143638077Y-80420839D01*
X143645787Y-80416287D01*
X143653431Y-80417829D01*
G37*
%TD.AperFunction*%
%TD*%
M02*
