%TF.GenerationSoftware,KiCad,Pcbnew,9.0.8-9.0.8~ubuntu22.04.1*%
%TF.CreationDate,2026-03-23T10:20:51-05:00*%
%TF.ProjectId,Smart_MoCo,536d6172-745f-44d6-9f43-6f2e6b696361,rev?*%
%TF.SameCoordinates,Original*%
%TF.FileFunction,Copper,L2,Inr*%
%TF.FilePolarity,Positive*%
%FSLAX46Y46*%
G04 Gerber Fmt 4.6, Leading zero omitted, Abs format (unit mm)*
G04 Created by KiCad (PCBNEW 9.0.8-9.0.8~ubuntu22.04.1) date 2026-03-23 10:20:51*
%MOMM*%
%LPD*%
G01*
G04 APERTURE LIST*
%TA.AperFunction,ComponentPad*%
%ADD10C,1.955800*%
%TD*%
%TA.AperFunction,ComponentPad*%
%ADD11C,1.600000*%
%TD*%
%TA.AperFunction,ComponentPad*%
%ADD12R,1.700000X1.700000*%
%TD*%
%TA.AperFunction,ComponentPad*%
%ADD13C,1.700000*%
%TD*%
%TA.AperFunction,ViaPad*%
%ADD14C,0.600000*%
%TD*%
G04 APERTURE END LIST*
D10*
%TO.N,/OUTA*%
%TO.C,J6*%
X154305000Y-62103000D03*
%TO.N,/OUTB*%
X150804997Y-62103000D03*
%TD*%
D11*
%TO.N,+12V*%
%TO.C,C2*%
X151638000Y-84455000D03*
%TO.N,GND*%
X155138000Y-84455000D03*
%TD*%
D10*
%TO.N,GND*%
%TO.C,J7*%
X151130000Y-92456000D03*
%TO.N,+12V*%
X147629997Y-92456000D03*
%TD*%
D12*
%TO.N,+3V3*%
%TO.C,J5*%
X155702000Y-96647000D03*
D13*
%TO.N,SWCLK*%
X158242000Y-96647000D03*
%TO.N,SWDIO*%
X160782000Y-96647000D03*
%TO.N,GND*%
X163322000Y-96647000D03*
%TD*%
D14*
%TO.N,CS*%
X156794200Y-87172800D03*
%TO.N,GND*%
X168021000Y-89662000D03*
X162952000Y-73152000D03*
X166243000Y-87119000D03*
X149400000Y-64406000D03*
X157759400Y-92938600D03*
X168021000Y-91694000D03*
X156400000Y-64406000D03*
X159639000Y-88646000D03*
X157400000Y-64406000D03*
X163148000Y-77089000D03*
X147400000Y-64406000D03*
X154178000Y-92456000D03*
X160424500Y-84836000D03*
X157632400Y-88392000D03*
X154400000Y-82656000D03*
X144018000Y-72263000D03*
X158877000Y-92913200D03*
X155400000Y-64406000D03*
X168021000Y-93726000D03*
X148400000Y-64406000D03*
%TO.N,+3V3*%
X157403800Y-90720100D03*
X159512000Y-90736800D03*
X167513000Y-77089000D03*
X145415000Y-84201000D03*
X162052000Y-79248000D03*
X162052000Y-81280000D03*
X162921500Y-70485000D03*
X154548280Y-89863999D03*
X144018000Y-69469000D03*
X164973000Y-87119000D03*
X158470600Y-89560400D03*
%TO.N,+12V*%
X143510000Y-88900000D03*
X152400000Y-76200000D03*
X147828000Y-74930000D03*
X148971000Y-74930000D03*
X151130000Y-81280000D03*
X148336000Y-81280000D03*
X147701000Y-80137000D03*
X152400000Y-70104000D03*
X152400000Y-67310000D03*
X146050000Y-91440000D03*
X152400000Y-80010000D03*
X154940000Y-78740000D03*
X151130000Y-80010000D03*
X156210000Y-78486000D03*
X146050000Y-88900000D03*
X153670000Y-81280000D03*
X151130000Y-77470000D03*
X147066000Y-81280000D03*
X151130000Y-76200000D03*
X152400000Y-64406000D03*
X148590000Y-83820000D03*
X146050000Y-87630000D03*
X156210000Y-80010000D03*
X147400000Y-82656000D03*
X143510000Y-85598000D03*
X153670000Y-77470000D03*
X147828000Y-76200000D03*
X152400000Y-77470000D03*
X154940000Y-74930000D03*
X152146000Y-87122000D03*
X153670000Y-78740000D03*
X156210000Y-74930000D03*
X151130000Y-74930000D03*
X156210000Y-76200000D03*
X148400000Y-82656000D03*
X147320000Y-86868000D03*
X152400000Y-72644000D03*
X151130000Y-78740000D03*
X146050000Y-85598000D03*
X148971000Y-77216000D03*
X148590000Y-88900000D03*
X143510000Y-91440000D03*
X148590000Y-87630000D03*
X157988000Y-77347800D03*
X152400000Y-78740000D03*
X154940000Y-81280000D03*
%TO.N,Net-(U2-EN{slash}DIAGA)*%
X155400000Y-82656000D03*
%TO.N,Net-(U2-EN{slash}DIAGB)*%
X151400000Y-82656000D03*
%TO.N,Net-(U2-CS)*%
X152400000Y-82656000D03*
X158599500Y-84836000D03*
%TO.N,CANH*%
X163957000Y-85187000D03*
%TO.N,CANL*%
X163957000Y-84187000D03*
%TO.N,ENC_B*%
X154151922Y-89034562D03*
%TO.N,ENC_A{slash}PWM*%
X162560000Y-86360000D03*
%TO.N,LIM_A*%
X150749000Y-88773000D03*
%TO.N,LIM_B*%
X152908000Y-87884000D03*
%TO.N,Net-(D1-A)*%
X166271000Y-89662000D03*
%TO.N,IN_A*%
X162266792Y-88729142D03*
X156400000Y-82656000D03*
%TO.N,Net-(D2-A)*%
X166271000Y-91694000D03*
%TO.N,Net-(D3-A)*%
X166271000Y-93726000D03*
%TO.N,IN_B*%
X150400000Y-82656000D03*
X156452131Y-85736869D03*
%TO.N,CAN_TX*%
X162179000Y-91186000D03*
X167513000Y-88265000D03*
%TO.N,CAN_RX*%
X163703000Y-87119000D03*
X162369498Y-90169677D03*
%TO.N,/OUTB*%
X147574000Y-62230000D03*
X145542000Y-66294000D03*
X150622000Y-67183000D03*
X150622000Y-70104000D03*
X145542000Y-70104000D03*
X150622000Y-68834000D03*
X150622000Y-71374000D03*
X148082000Y-67183000D03*
X150400000Y-64406000D03*
X148082000Y-66294000D03*
X149098000Y-62230000D03*
X145542000Y-71374000D03*
X145542000Y-67183000D03*
X145400000Y-64406000D03*
X150622000Y-66294000D03*
%TO.N,/OUTA*%
X159258000Y-71374000D03*
X156718000Y-68834000D03*
X159258000Y-72644000D03*
X156718000Y-72644000D03*
X154400000Y-64406000D03*
X159258000Y-70104000D03*
X156718000Y-71374000D03*
X154178000Y-71374000D03*
X159258000Y-66294000D03*
X154178000Y-70104000D03*
X154178000Y-68834000D03*
X154178000Y-67183000D03*
X154178000Y-66294000D03*
X158242000Y-62230000D03*
X155956000Y-62230000D03*
X156718000Y-70104000D03*
X154178000Y-72644000D03*
X156718000Y-67183000D03*
X159258000Y-68834000D03*
X159400000Y-64406000D03*
X159258000Y-67183000D03*
X156718000Y-66294000D03*
%TD*%
%TA.AperFunction,Conductor*%
%TO.N,GND*%
G36*
X151565786Y-59194502D02*
G01*
X151612279Y-59248158D01*
X151622383Y-59318432D01*
X151609932Y-59357702D01*
X151557833Y-59459951D01*
X151557828Y-59459963D01*
X151505494Y-59621030D01*
X151505493Y-59621035D01*
X151505493Y-59621036D01*
X151478998Y-59788317D01*
X151478998Y-59957683D01*
X151492855Y-60045170D01*
X151505494Y-60124969D01*
X151552544Y-60269773D01*
X151557830Y-60286041D01*
X151557831Y-60286042D01*
X151634722Y-60436950D01*
X151734272Y-60573969D01*
X151854028Y-60693725D01*
X151854031Y-60693727D01*
X151991051Y-60793278D01*
X152141957Y-60870168D01*
X152303034Y-60922505D01*
X152470315Y-60949000D01*
X152470318Y-60949000D01*
X152639678Y-60949000D01*
X152639681Y-60949000D01*
X152806962Y-60922505D01*
X152968039Y-60870168D01*
X153118945Y-60793278D01*
X153255965Y-60693727D01*
X153375725Y-60573967D01*
X153475276Y-60436947D01*
X153552166Y-60286041D01*
X153604503Y-60124964D01*
X153630998Y-59957683D01*
X153630998Y-59788317D01*
X153604503Y-59621036D01*
X153552166Y-59459959D01*
X153500064Y-59357702D01*
X153486960Y-59287926D01*
X153513660Y-59222141D01*
X153571688Y-59181235D01*
X153612331Y-59174500D01*
X165162201Y-59174500D01*
X165230322Y-59194502D01*
X165276815Y-59248158D01*
X165286919Y-59318432D01*
X165257425Y-59383012D01*
X165251296Y-59389595D01*
X165107023Y-59533867D01*
X165107004Y-59533888D01*
X164919440Y-59778324D01*
X164765384Y-60045157D01*
X164765379Y-60045168D01*
X164647465Y-60329836D01*
X164567716Y-60627463D01*
X164527500Y-60932937D01*
X164527500Y-61241062D01*
X164567716Y-61546536D01*
X164567717Y-61546542D01*
X164567718Y-61546544D01*
X164647465Y-61844164D01*
X164765378Y-62128830D01*
X164765379Y-62128831D01*
X164765384Y-62128842D01*
X164919440Y-62395675D01*
X165107004Y-62640111D01*
X165107023Y-62640132D01*
X165324867Y-62857976D01*
X165324877Y-62857985D01*
X165324883Y-62857991D01*
X165324886Y-62857993D01*
X165324888Y-62857995D01*
X165569324Y-63045559D01*
X165836157Y-63199615D01*
X165836161Y-63199616D01*
X165836170Y-63199622D01*
X166120836Y-63317535D01*
X166418456Y-63397282D01*
X166418462Y-63397282D01*
X166418463Y-63397283D01*
X166453515Y-63401897D01*
X166723940Y-63437500D01*
X166723947Y-63437500D01*
X167032053Y-63437500D01*
X167032060Y-63437500D01*
X167337544Y-63397282D01*
X167635164Y-63317535D01*
X167919830Y-63199622D01*
X168186670Y-63045562D01*
X168186670Y-63045561D01*
X168186675Y-63045559D01*
X168328632Y-62936630D01*
X168431117Y-62857991D01*
X168495298Y-62793810D01*
X168575405Y-62713704D01*
X168637717Y-62679678D01*
X168708532Y-62684743D01*
X168765368Y-62727290D01*
X168790179Y-62793810D01*
X168790500Y-62802799D01*
X168790500Y-96147878D01*
X168790230Y-96156119D01*
X168774789Y-96391691D01*
X168772638Y-96408031D01*
X168727386Y-96635529D01*
X168723120Y-96651449D01*
X168648564Y-96871085D01*
X168642257Y-96886312D01*
X168539668Y-97094342D01*
X168531427Y-97108616D01*
X168402561Y-97301476D01*
X168392528Y-97314552D01*
X168239594Y-97488940D01*
X168227940Y-97500594D01*
X168053552Y-97653528D01*
X168040476Y-97663561D01*
X167847616Y-97792427D01*
X167833342Y-97800668D01*
X167625312Y-97903257D01*
X167610085Y-97909564D01*
X167390449Y-97984120D01*
X167374529Y-97988386D01*
X167147031Y-98033638D01*
X167130691Y-98035789D01*
X166895119Y-98051230D01*
X166886878Y-98051500D01*
X144771906Y-98051500D01*
X144763665Y-98051230D01*
X144710563Y-98047748D01*
X144528039Y-98035783D01*
X144511696Y-98033631D01*
X144284156Y-97988361D01*
X144268232Y-97984093D01*
X144048557Y-97909506D01*
X144033328Y-97903197D01*
X143890229Y-97832612D01*
X143825258Y-97800564D01*
X143810993Y-97792326D01*
X143618098Y-97663404D01*
X143605022Y-97653367D01*
X143594183Y-97643859D01*
X143430622Y-97500376D01*
X143418969Y-97488719D01*
X143398580Y-97465462D01*
X143266034Y-97314268D01*
X143256001Y-97301188D01*
X143127149Y-97108263D01*
X143118909Y-97093984D01*
X143016349Y-96885889D01*
X143010044Y-96870658D01*
X142935525Y-96650948D01*
X142931263Y-96635023D01*
X142913029Y-96543217D01*
X142886067Y-96407469D01*
X142883921Y-96391130D01*
X142880562Y-96339639D01*
X142868550Y-96155484D01*
X142868284Y-96147251D01*
X142868305Y-96085489D01*
X142868304Y-96085487D01*
X142868309Y-96070819D01*
X142868307Y-96070806D01*
X142868403Y-95776935D01*
X154648300Y-95776935D01*
X154648300Y-97517064D01*
X154660118Y-97576479D01*
X154660119Y-97576480D01*
X154705140Y-97643860D01*
X154772520Y-97688881D01*
X154831936Y-97700700D01*
X154831941Y-97700700D01*
X156572059Y-97700700D01*
X156572064Y-97700700D01*
X156631480Y-97688881D01*
X156698860Y-97643860D01*
X156743881Y-97576480D01*
X156755700Y-97517064D01*
X156755700Y-96543217D01*
X157188300Y-96543217D01*
X157188300Y-96543220D01*
X157188300Y-96750780D01*
X157228793Y-96954353D01*
X157228794Y-96954355D01*
X157228795Y-96954360D01*
X157308221Y-97146109D01*
X157308223Y-97146113D01*
X157308224Y-97146114D01*
X157423538Y-97318694D01*
X157570306Y-97465462D01*
X157736455Y-97576479D01*
X157742886Y-97580776D01*
X157742890Y-97580778D01*
X157934639Y-97660204D01*
X157934640Y-97660204D01*
X157934647Y-97660207D01*
X158138220Y-97700700D01*
X158138221Y-97700700D01*
X158345779Y-97700700D01*
X158345780Y-97700700D01*
X158549353Y-97660207D01*
X158741114Y-97580776D01*
X158913694Y-97465462D01*
X159060462Y-97318694D01*
X159175776Y-97146114D01*
X159255207Y-96954353D01*
X159295700Y-96750780D01*
X159295700Y-96543220D01*
X159295699Y-96543217D01*
X159728300Y-96543217D01*
X159728300Y-96543220D01*
X159728300Y-96750780D01*
X159768793Y-96954353D01*
X159768794Y-96954355D01*
X159768795Y-96954360D01*
X159848221Y-97146109D01*
X159848223Y-97146113D01*
X159848224Y-97146114D01*
X159963538Y-97318694D01*
X160110306Y-97465462D01*
X160276455Y-97576479D01*
X160282886Y-97580776D01*
X160282890Y-97580778D01*
X160474639Y-97660204D01*
X160474640Y-97660204D01*
X160474647Y-97660207D01*
X160678220Y-97700700D01*
X160678221Y-97700700D01*
X160885779Y-97700700D01*
X160885780Y-97700700D01*
X161089353Y-97660207D01*
X161281114Y-97580776D01*
X161453694Y-97465462D01*
X161600462Y-97318694D01*
X161715776Y-97146114D01*
X161795207Y-96954353D01*
X161835700Y-96750780D01*
X161835700Y-96543220D01*
X161795207Y-96339647D01*
X161784574Y-96313977D01*
X161715778Y-96147890D01*
X161715776Y-96147886D01*
X161673863Y-96085159D01*
X161600462Y-95975306D01*
X161453694Y-95828538D01*
X161366238Y-95770102D01*
X161281113Y-95713223D01*
X161281109Y-95713221D01*
X161089360Y-95633795D01*
X161089355Y-95633794D01*
X161089353Y-95633793D01*
X160966331Y-95609322D01*
X160885782Y-95593300D01*
X160885780Y-95593300D01*
X160678220Y-95593300D01*
X160678217Y-95593300D01*
X160557392Y-95617333D01*
X160474647Y-95633793D01*
X160474645Y-95633793D01*
X160474639Y-95633795D01*
X160282890Y-95713221D01*
X160282886Y-95713223D01*
X160110310Y-95828535D01*
X160110303Y-95828540D01*
X159963540Y-95975303D01*
X159963535Y-95975310D01*
X159848223Y-96147886D01*
X159848221Y-96147890D01*
X159768795Y-96339639D01*
X159768793Y-96339645D01*
X159768793Y-96339647D01*
X159758441Y-96391691D01*
X159728300Y-96543217D01*
X159295699Y-96543217D01*
X159255207Y-96339647D01*
X159244574Y-96313977D01*
X159175778Y-96147890D01*
X159175776Y-96147886D01*
X159133863Y-96085159D01*
X159060462Y-95975306D01*
X158913694Y-95828538D01*
X158826238Y-95770102D01*
X158741113Y-95713223D01*
X158741109Y-95713221D01*
X158549360Y-95633795D01*
X158549355Y-95633794D01*
X158549353Y-95633793D01*
X158426331Y-95609322D01*
X158345782Y-95593300D01*
X158345780Y-95593300D01*
X158138220Y-95593300D01*
X158138217Y-95593300D01*
X158017392Y-95617333D01*
X157934647Y-95633793D01*
X157934645Y-95633793D01*
X157934639Y-95633795D01*
X157742890Y-95713221D01*
X157742886Y-95713223D01*
X157570310Y-95828535D01*
X157570303Y-95828540D01*
X157423540Y-95975303D01*
X157423535Y-95975310D01*
X157308223Y-96147886D01*
X157308221Y-96147890D01*
X157228795Y-96339639D01*
X157228793Y-96339645D01*
X157228793Y-96339647D01*
X157218441Y-96391691D01*
X157188300Y-96543217D01*
X156755700Y-96543217D01*
X156755700Y-95776936D01*
X156743881Y-95717520D01*
X156698860Y-95650140D01*
X156631480Y-95605119D01*
X156631479Y-95605118D01*
X156572064Y-95593300D01*
X154831936Y-95593300D01*
X154831935Y-95593300D01*
X154772520Y-95605118D01*
X154705140Y-95650140D01*
X154660118Y-95717520D01*
X154648300Y-95776935D01*
X142868403Y-95776935D01*
X142869093Y-93659687D01*
X165767300Y-93659687D01*
X165767300Y-93792313D01*
X165790184Y-93877718D01*
X165801627Y-93920422D01*
X165867937Y-94035275D01*
X165867945Y-94035285D01*
X165961714Y-94129054D01*
X165961719Y-94129058D01*
X165961721Y-94129060D01*
X166076579Y-94195373D01*
X166204687Y-94229700D01*
X166204689Y-94229700D01*
X166337311Y-94229700D01*
X166337313Y-94229700D01*
X166465421Y-94195373D01*
X166580279Y-94129060D01*
X166674060Y-94035279D01*
X166740373Y-93920421D01*
X166774700Y-93792313D01*
X166774700Y-93659687D01*
X166740373Y-93531579D01*
X166674060Y-93416721D01*
X166674058Y-93416719D01*
X166674054Y-93416714D01*
X166580285Y-93322945D01*
X166580275Y-93322937D01*
X166465422Y-93256627D01*
X166422718Y-93245184D01*
X166337313Y-93222300D01*
X166204687Y-93222300D01*
X166140633Y-93239463D01*
X166076577Y-93256627D01*
X165961724Y-93322937D01*
X165961714Y-93322945D01*
X165867945Y-93416714D01*
X165867937Y-93416724D01*
X165801627Y-93531577D01*
X165799595Y-93539161D01*
X165767300Y-93659687D01*
X142869093Y-93659687D01*
X142869697Y-91808558D01*
X142889721Y-91740445D01*
X142943392Y-91693969D01*
X143013669Y-91683888D01*
X143078240Y-91713402D01*
X143104817Y-91745602D01*
X143106937Y-91749275D01*
X143106945Y-91749285D01*
X143200714Y-91843054D01*
X143200719Y-91843058D01*
X143200721Y-91843060D01*
X143200722Y-91843061D01*
X143200724Y-91843062D01*
X143315577Y-91909372D01*
X143315579Y-91909373D01*
X143443687Y-91943700D01*
X143443689Y-91943700D01*
X143576311Y-91943700D01*
X143576313Y-91943700D01*
X143704421Y-91909373D01*
X143819279Y-91843060D01*
X143913060Y-91749279D01*
X143979373Y-91634421D01*
X144013700Y-91506313D01*
X144013700Y-91373687D01*
X145546300Y-91373687D01*
X145546300Y-91506313D01*
X145568471Y-91589054D01*
X145580627Y-91634422D01*
X145646937Y-91749275D01*
X145646945Y-91749285D01*
X145740714Y-91843054D01*
X145740719Y-91843058D01*
X145740721Y-91843060D01*
X145740722Y-91843061D01*
X145740724Y-91843062D01*
X145855577Y-91909372D01*
X145855579Y-91909373D01*
X145983687Y-91943700D01*
X145983689Y-91943700D01*
X146116311Y-91943700D01*
X146116313Y-91943700D01*
X146244421Y-91909373D01*
X146355489Y-91845247D01*
X146424485Y-91828510D01*
X146491576Y-91851731D01*
X146535463Y-91907538D01*
X146542212Y-91978213D01*
X146536372Y-91997675D01*
X146536495Y-91997715D01*
X146477493Y-92179302D01*
X146477492Y-92179307D01*
X146477492Y-92179308D01*
X146448397Y-92363006D01*
X146448397Y-92548994D01*
X146477492Y-92732692D01*
X146477493Y-92732697D01*
X146534963Y-92909572D01*
X146534965Y-92909577D01*
X146534966Y-92909578D01*
X146619404Y-93075297D01*
X146728724Y-93225763D01*
X146860233Y-93357272D01*
X146942062Y-93416724D01*
X147010703Y-93466595D01*
X147176420Y-93551032D01*
X147353299Y-93608503D01*
X147353300Y-93608503D01*
X147353305Y-93608505D01*
X147537003Y-93637600D01*
X147537006Y-93637600D01*
X147722988Y-93637600D01*
X147722991Y-93637600D01*
X147906689Y-93608505D01*
X148083574Y-93551032D01*
X148249291Y-93466595D01*
X148399758Y-93357274D01*
X148531271Y-93225761D01*
X148640592Y-93075294D01*
X148725029Y-92909577D01*
X148782502Y-92732692D01*
X148811597Y-92548994D01*
X148811597Y-92363006D01*
X148782502Y-92179308D01*
X148725029Y-92002423D01*
X148640592Y-91836706D01*
X148577072Y-91749279D01*
X148531269Y-91686236D01*
X148399760Y-91554727D01*
X148249294Y-91445407D01*
X148249293Y-91445406D01*
X148249291Y-91445405D01*
X148083574Y-91360968D01*
X148083571Y-91360967D01*
X148083569Y-91360966D01*
X147906692Y-91303496D01*
X147906696Y-91303496D01*
X147872495Y-91298079D01*
X147722991Y-91274400D01*
X147537003Y-91274400D01*
X147362744Y-91302000D01*
X147353299Y-91303496D01*
X147176424Y-91360966D01*
X147176418Y-91360969D01*
X147010699Y-91445407D01*
X146860235Y-91554726D01*
X146756287Y-91658674D01*
X146693975Y-91692699D01*
X146623159Y-91687633D01*
X146566323Y-91645087D01*
X146541513Y-91578566D01*
X146545485Y-91536969D01*
X146553700Y-91506313D01*
X146553700Y-91373687D01*
X146519373Y-91245579D01*
X146516441Y-91240500D01*
X146453062Y-91130724D01*
X146453054Y-91130714D01*
X146359285Y-91036945D01*
X146359275Y-91036937D01*
X146244422Y-90970627D01*
X146201718Y-90959184D01*
X146116313Y-90936300D01*
X145983687Y-90936300D01*
X145919633Y-90953463D01*
X145855577Y-90970627D01*
X145740724Y-91036937D01*
X145740714Y-91036945D01*
X145646945Y-91130714D01*
X145646937Y-91130724D01*
X145580627Y-91245577D01*
X145572608Y-91275505D01*
X145546300Y-91373687D01*
X144013700Y-91373687D01*
X143979373Y-91245579D01*
X143976441Y-91240500D01*
X143913062Y-91130724D01*
X143913054Y-91130714D01*
X143819285Y-91036945D01*
X143819275Y-91036937D01*
X143704422Y-90970627D01*
X143661718Y-90959184D01*
X143576313Y-90936300D01*
X143443687Y-90936300D01*
X143379633Y-90953463D01*
X143315577Y-90970627D01*
X143200724Y-91036937D01*
X143200714Y-91036945D01*
X143106945Y-91130714D01*
X143106933Y-91130730D01*
X143105051Y-91133990D01*
X143102745Y-91136187D01*
X143101913Y-91137273D01*
X143101743Y-91137143D01*
X143053665Y-91182980D01*
X142983950Y-91196411D01*
X142918041Y-91170019D01*
X142876864Y-91112184D01*
X142869937Y-91070945D01*
X142870524Y-89269990D01*
X142890548Y-89201879D01*
X142944219Y-89155403D01*
X143014496Y-89145322D01*
X143079067Y-89174836D01*
X143105640Y-89207028D01*
X143106937Y-89209275D01*
X143106945Y-89209285D01*
X143200714Y-89303054D01*
X143200719Y-89303058D01*
X143200721Y-89303060D01*
X143200722Y-89303061D01*
X143200724Y-89303062D01*
X143286742Y-89352724D01*
X143315579Y-89369373D01*
X143443687Y-89403700D01*
X143443689Y-89403700D01*
X143576311Y-89403700D01*
X143576313Y-89403700D01*
X143704421Y-89369373D01*
X143819279Y-89303060D01*
X143913060Y-89209279D01*
X143979373Y-89094421D01*
X144013700Y-88966313D01*
X144013700Y-88833687D01*
X145546300Y-88833687D01*
X145546300Y-88966313D01*
X145556418Y-89004074D01*
X145580627Y-89094422D01*
X145646937Y-89209275D01*
X145646945Y-89209285D01*
X145740714Y-89303054D01*
X145740719Y-89303058D01*
X145740721Y-89303060D01*
X145740722Y-89303061D01*
X145740724Y-89303062D01*
X145826742Y-89352724D01*
X145855579Y-89369373D01*
X145983687Y-89403700D01*
X145983689Y-89403700D01*
X146116311Y-89403700D01*
X146116313Y-89403700D01*
X146244421Y-89369373D01*
X146359279Y-89303060D01*
X146453060Y-89209279D01*
X146519373Y-89094421D01*
X146553700Y-88966313D01*
X146553700Y-88833687D01*
X148086300Y-88833687D01*
X148086300Y-88966313D01*
X148096418Y-89004074D01*
X148120627Y-89094422D01*
X148186937Y-89209275D01*
X148186945Y-89209285D01*
X148280714Y-89303054D01*
X148280719Y-89303058D01*
X148280721Y-89303060D01*
X148280722Y-89303061D01*
X148280724Y-89303062D01*
X148285335Y-89305724D01*
X148395579Y-89369373D01*
X148450177Y-89384002D01*
X148510799Y-89420954D01*
X148541820Y-89484815D01*
X148533392Y-89555309D01*
X148519502Y-89579769D01*
X148459721Y-89662050D01*
X148382831Y-89812957D01*
X148382828Y-89812963D01*
X148330494Y-89974030D01*
X148330493Y-89974035D01*
X148330493Y-89974036D01*
X148303998Y-90141317D01*
X148303998Y-90310683D01*
X148322504Y-90427521D01*
X148330494Y-90477969D01*
X148382264Y-90637299D01*
X148382830Y-90639041D01*
X148459720Y-90789947D01*
X148459722Y-90789950D01*
X148559272Y-90926969D01*
X148679028Y-91046725D01*
X148679031Y-91046727D01*
X148816051Y-91146278D01*
X148966957Y-91223168D01*
X149128034Y-91275505D01*
X149295315Y-91302000D01*
X149295318Y-91302000D01*
X149464678Y-91302000D01*
X149464681Y-91302000D01*
X149631962Y-91275505D01*
X149793039Y-91223168D01*
X149943945Y-91146278D01*
X150080965Y-91046727D01*
X150200725Y-90926967D01*
X150300276Y-90789947D01*
X150369653Y-90653787D01*
X156900100Y-90653787D01*
X156900100Y-90786413D01*
X156904575Y-90803113D01*
X156934427Y-90914522D01*
X157000737Y-91029375D01*
X157000745Y-91029385D01*
X157094514Y-91123154D01*
X157094519Y-91123158D01*
X157094521Y-91123160D01*
X157094522Y-91123161D01*
X157094524Y-91123162D01*
X157209377Y-91189472D01*
X157209379Y-91189473D01*
X157337487Y-91223800D01*
X157337489Y-91223800D01*
X157470111Y-91223800D01*
X157470113Y-91223800D01*
X157598221Y-91189473D01*
X157713079Y-91123160D01*
X157806860Y-91029379D01*
X157873173Y-90914521D01*
X157907500Y-90786413D01*
X157907500Y-90670487D01*
X159008300Y-90670487D01*
X159008300Y-90803113D01*
X159016982Y-90835514D01*
X159042627Y-90931222D01*
X159108937Y-91046075D01*
X159108945Y-91046085D01*
X159202714Y-91139854D01*
X159202719Y-91139858D01*
X159202721Y-91139860D01*
X159202722Y-91139861D01*
X159202724Y-91139862D01*
X159317577Y-91206172D01*
X159317579Y-91206173D01*
X159445687Y-91240500D01*
X159445689Y-91240500D01*
X159578311Y-91240500D01*
X159578313Y-91240500D01*
X159706421Y-91206173D01*
X159821279Y-91139860D01*
X159841452Y-91119687D01*
X161675300Y-91119687D01*
X161675300Y-91252313D01*
X161689015Y-91303496D01*
X161709627Y-91380422D01*
X161775937Y-91495275D01*
X161775945Y-91495285D01*
X161869714Y-91589054D01*
X161869719Y-91589058D01*
X161869721Y-91589060D01*
X161869722Y-91589061D01*
X161869724Y-91589062D01*
X161966763Y-91645087D01*
X161984579Y-91655373D01*
X162112687Y-91689700D01*
X162112689Y-91689700D01*
X162245311Y-91689700D01*
X162245313Y-91689700D01*
X162373421Y-91655373D01*
X162421375Y-91627687D01*
X165767300Y-91627687D01*
X165767300Y-91760313D01*
X165780228Y-91808559D01*
X165801627Y-91888422D01*
X165867937Y-92003275D01*
X165867945Y-92003285D01*
X165961714Y-92097054D01*
X165961719Y-92097058D01*
X165961721Y-92097060D01*
X166076579Y-92163373D01*
X166204687Y-92197700D01*
X166204689Y-92197700D01*
X166337311Y-92197700D01*
X166337313Y-92197700D01*
X166465421Y-92163373D01*
X166580279Y-92097060D01*
X166674060Y-92003279D01*
X166740373Y-91888421D01*
X166774700Y-91760313D01*
X166774700Y-91627687D01*
X166740373Y-91499579D01*
X166737894Y-91495285D01*
X166674062Y-91384724D01*
X166674054Y-91384714D01*
X166580285Y-91290945D01*
X166580275Y-91290937D01*
X166465422Y-91224627D01*
X166422718Y-91213184D01*
X166337313Y-91190300D01*
X166204687Y-91190300D01*
X166145453Y-91206172D01*
X166076577Y-91224627D01*
X165961724Y-91290937D01*
X165961714Y-91290945D01*
X165867945Y-91384714D01*
X165867937Y-91384724D01*
X165801627Y-91499577D01*
X165786850Y-91554726D01*
X165767300Y-91627687D01*
X162421375Y-91627687D01*
X162488279Y-91589060D01*
X162498773Y-91578566D01*
X162547007Y-91530333D01*
X162582054Y-91495285D01*
X162582060Y-91495279D01*
X162648373Y-91380421D01*
X162682700Y-91252313D01*
X162682700Y-91119687D01*
X162648373Y-90991579D01*
X162648372Y-90991577D01*
X162582062Y-90876724D01*
X162582054Y-90876714D01*
X162540854Y-90835514D01*
X162506828Y-90773202D01*
X162511893Y-90702387D01*
X162554440Y-90645551D01*
X162566937Y-90637307D01*
X162678777Y-90572737D01*
X162772558Y-90478956D01*
X162838871Y-90364098D01*
X162873198Y-90235990D01*
X162873198Y-90103364D01*
X162838871Y-89975256D01*
X162838163Y-89974030D01*
X162772560Y-89860401D01*
X162772552Y-89860391D01*
X162678783Y-89766622D01*
X162678779Y-89766619D01*
X162678777Y-89766617D01*
X162563919Y-89700304D01*
X162435811Y-89665977D01*
X162303185Y-89665977D01*
X162239131Y-89683140D01*
X162175075Y-89700304D01*
X162060222Y-89766614D01*
X162060212Y-89766622D01*
X161966443Y-89860391D01*
X161966435Y-89860401D01*
X161900125Y-89975254D01*
X161885517Y-90029772D01*
X161865798Y-90103364D01*
X161865798Y-90235990D01*
X161874123Y-90267059D01*
X161900125Y-90364099D01*
X161966435Y-90478952D01*
X161966443Y-90478962D01*
X162007643Y-90520162D01*
X162041669Y-90582474D01*
X162036604Y-90653289D01*
X161994057Y-90710125D01*
X161981548Y-90718376D01*
X161869724Y-90782937D01*
X161869714Y-90782945D01*
X161775945Y-90876714D01*
X161775937Y-90876724D01*
X161709627Y-90991577D01*
X161695022Y-91046085D01*
X161675300Y-91119687D01*
X159841452Y-91119687D01*
X159915060Y-91046079D01*
X159981373Y-90931221D01*
X160015700Y-90803113D01*
X160015700Y-90670487D01*
X159981373Y-90542379D01*
X159968546Y-90520162D01*
X159915062Y-90427524D01*
X159915054Y-90427514D01*
X159821285Y-90333745D01*
X159821275Y-90333737D01*
X159706422Y-90267427D01*
X159663718Y-90255984D01*
X159578313Y-90233100D01*
X159445687Y-90233100D01*
X159381633Y-90250263D01*
X159317577Y-90267427D01*
X159202724Y-90333737D01*
X159202714Y-90333745D01*
X159108945Y-90427514D01*
X159108937Y-90427524D01*
X159042627Y-90542377D01*
X159034494Y-90572731D01*
X159008300Y-90670487D01*
X157907500Y-90670487D01*
X157907500Y-90653787D01*
X157873173Y-90525679D01*
X157845625Y-90477964D01*
X157806862Y-90410824D01*
X157806854Y-90410814D01*
X157713085Y-90317045D01*
X157713075Y-90317037D01*
X157598222Y-90250727D01*
X157555518Y-90239284D01*
X157470113Y-90216400D01*
X157337487Y-90216400D01*
X157275163Y-90233100D01*
X157209377Y-90250727D01*
X157094524Y-90317037D01*
X157094514Y-90317045D01*
X157000745Y-90410814D01*
X157000737Y-90410824D01*
X156934427Y-90525677D01*
X156912746Y-90606591D01*
X156900100Y-90653787D01*
X150369653Y-90653787D01*
X150377166Y-90639041D01*
X150429503Y-90477964D01*
X150455998Y-90310683D01*
X150455998Y-90141317D01*
X150429503Y-89974036D01*
X150377166Y-89812959D01*
X150300276Y-89662053D01*
X150218663Y-89549723D01*
X150200723Y-89525030D01*
X150080967Y-89405274D01*
X149943948Y-89305724D01*
X149943947Y-89305723D01*
X149943945Y-89305722D01*
X149793039Y-89228832D01*
X149793036Y-89228831D01*
X149793034Y-89228830D01*
X149631967Y-89176496D01*
X149631963Y-89176495D01*
X149631962Y-89176495D01*
X149464681Y-89150000D01*
X149295315Y-89150000D01*
X149264239Y-89154921D01*
X149224997Y-89161137D01*
X149154586Y-89152037D01*
X149100272Y-89106315D01*
X149079300Y-89038486D01*
X149083580Y-89004079D01*
X149093700Y-88966313D01*
X149093700Y-88833687D01*
X149066195Y-88731038D01*
X149066195Y-88731036D01*
X149059670Y-88706687D01*
X150245300Y-88706687D01*
X150245300Y-88839313D01*
X150245522Y-88840141D01*
X150279627Y-88967422D01*
X150345937Y-89082275D01*
X150345945Y-89082285D01*
X150439714Y-89176054D01*
X150439719Y-89176058D01*
X150439721Y-89176060D01*
X150439722Y-89176061D01*
X150439724Y-89176062D01*
X150554577Y-89242372D01*
X150554579Y-89242373D01*
X150682687Y-89276700D01*
X150682689Y-89276700D01*
X150815311Y-89276700D01*
X150815313Y-89276700D01*
X150943421Y-89242373D01*
X151058279Y-89176060D01*
X151152060Y-89082279D01*
X151217895Y-88968249D01*
X153648222Y-88968249D01*
X153648222Y-89100875D01*
X153668368Y-89176060D01*
X153682549Y-89228984D01*
X153748859Y-89343837D01*
X153748867Y-89343847D01*
X153842636Y-89437616D01*
X153842641Y-89437620D01*
X153842643Y-89437622D01*
X153842644Y-89437623D01*
X153842646Y-89437624D01*
X153940445Y-89494088D01*
X153957501Y-89503935D01*
X153990480Y-89512772D01*
X154051101Y-89549723D01*
X154082123Y-89613584D01*
X154079574Y-89667090D01*
X154078907Y-89669576D01*
X154078907Y-89669578D01*
X154044580Y-89797686D01*
X154044580Y-89930312D01*
X154056623Y-89975256D01*
X154078907Y-90058421D01*
X154145217Y-90173274D01*
X154145225Y-90173284D01*
X154238994Y-90267053D01*
X154238999Y-90267057D01*
X154239001Y-90267059D01*
X154239002Y-90267060D01*
X154239004Y-90267061D01*
X154353857Y-90333371D01*
X154353859Y-90333372D01*
X154481967Y-90367699D01*
X154481969Y-90367699D01*
X154614591Y-90367699D01*
X154614593Y-90367699D01*
X154742701Y-90333372D01*
X154857559Y-90267059D01*
X154951340Y-90173278D01*
X155017653Y-90058420D01*
X155051980Y-89930312D01*
X155051980Y-89797686D01*
X155017653Y-89669578D01*
X155013308Y-89662053D01*
X154985325Y-89613584D01*
X154951340Y-89554720D01*
X154951337Y-89554717D01*
X154951334Y-89554713D01*
X154890708Y-89494087D01*
X157966900Y-89494087D01*
X157966900Y-89626713D01*
X157978386Y-89669578D01*
X158001227Y-89754822D01*
X158067537Y-89869675D01*
X158067545Y-89869685D01*
X158161314Y-89963454D01*
X158161319Y-89963458D01*
X158161321Y-89963460D01*
X158161322Y-89963461D01*
X158161324Y-89963462D01*
X158181752Y-89975256D01*
X158276179Y-90029773D01*
X158404287Y-90064100D01*
X158404289Y-90064100D01*
X158536911Y-90064100D01*
X158536913Y-90064100D01*
X158665021Y-90029773D01*
X158779879Y-89963460D01*
X158873660Y-89869679D01*
X158939973Y-89754821D01*
X158974300Y-89626713D01*
X158974300Y-89595687D01*
X165767300Y-89595687D01*
X165767300Y-89728313D01*
X165777564Y-89766617D01*
X165801627Y-89856422D01*
X165867937Y-89971275D01*
X165867945Y-89971285D01*
X165961714Y-90065054D01*
X165961719Y-90065058D01*
X165961721Y-90065060D01*
X165961722Y-90065061D01*
X165961724Y-90065062D01*
X166076577Y-90131372D01*
X166076579Y-90131373D01*
X166204687Y-90165700D01*
X166204689Y-90165700D01*
X166337311Y-90165700D01*
X166337313Y-90165700D01*
X166465421Y-90131373D01*
X166580279Y-90065060D01*
X166674060Y-89971279D01*
X166740373Y-89856421D01*
X166774700Y-89728313D01*
X166774700Y-89595687D01*
X166740373Y-89467579D01*
X166736542Y-89460944D01*
X166674062Y-89352724D01*
X166674054Y-89352714D01*
X166580285Y-89258945D01*
X166580275Y-89258937D01*
X166465422Y-89192627D01*
X166405220Y-89176496D01*
X166337313Y-89158300D01*
X166204687Y-89158300D01*
X166142975Y-89174836D01*
X166076577Y-89192627D01*
X165961724Y-89258937D01*
X165961714Y-89258945D01*
X165867945Y-89352714D01*
X165867937Y-89352724D01*
X165801627Y-89467577D01*
X165786233Y-89525030D01*
X165767300Y-89595687D01*
X158974300Y-89595687D01*
X158974300Y-89494087D01*
X158939973Y-89365979D01*
X158932319Y-89352721D01*
X158873662Y-89251124D01*
X158873654Y-89251114D01*
X158779885Y-89157345D01*
X158779875Y-89157337D01*
X158665022Y-89091027D01*
X158622318Y-89079584D01*
X158536913Y-89056700D01*
X158404287Y-89056700D01*
X158340233Y-89073863D01*
X158276177Y-89091027D01*
X158161324Y-89157337D01*
X158161314Y-89157345D01*
X158067545Y-89251114D01*
X158067537Y-89251124D01*
X158001227Y-89365977D01*
X157986496Y-89420954D01*
X157966900Y-89494087D01*
X154890708Y-89494087D01*
X154857565Y-89460944D01*
X154857555Y-89460936D01*
X154742700Y-89394625D01*
X154709720Y-89385788D01*
X154649098Y-89348835D01*
X154618078Y-89284974D01*
X154620628Y-89231469D01*
X154621294Y-89228984D01*
X154621295Y-89228983D01*
X154655622Y-89100875D01*
X154655622Y-88968249D01*
X154621295Y-88840141D01*
X154620816Y-88839311D01*
X154554982Y-88725282D01*
X154492529Y-88662829D01*
X161763092Y-88662829D01*
X161763092Y-88795455D01*
X161774844Y-88839313D01*
X161797419Y-88923564D01*
X161863729Y-89038417D01*
X161863737Y-89038427D01*
X161957506Y-89132196D01*
X161957511Y-89132200D01*
X161957513Y-89132202D01*
X161957514Y-89132203D01*
X161957516Y-89132204D01*
X162072369Y-89198514D01*
X162072371Y-89198515D01*
X162200479Y-89232842D01*
X162200481Y-89232842D01*
X162333103Y-89232842D01*
X162333105Y-89232842D01*
X162461213Y-89198515D01*
X162576071Y-89132202D01*
X162669852Y-89038421D01*
X162736165Y-88923563D01*
X162770492Y-88795455D01*
X162770492Y-88662829D01*
X162736165Y-88534721D01*
X162714352Y-88496940D01*
X162669854Y-88419866D01*
X162669846Y-88419856D01*
X162576077Y-88326087D01*
X162576067Y-88326079D01*
X162530113Y-88299548D01*
X162461213Y-88259769D01*
X162333105Y-88225442D01*
X162200479Y-88225442D01*
X162136425Y-88242605D01*
X162072369Y-88259769D01*
X161957516Y-88326079D01*
X161957506Y-88326087D01*
X161863737Y-88419856D01*
X161863729Y-88419866D01*
X161797419Y-88534719D01*
X161782413Y-88590724D01*
X161763092Y-88662829D01*
X154492529Y-88662829D01*
X154461207Y-88631507D01*
X154461197Y-88631499D01*
X154346344Y-88565189D01*
X154303640Y-88553746D01*
X154218235Y-88530862D01*
X154085609Y-88530862D01*
X154021555Y-88548025D01*
X153957499Y-88565189D01*
X153842646Y-88631499D01*
X153842636Y-88631507D01*
X153748867Y-88725276D01*
X153748859Y-88725286D01*
X153682549Y-88840139D01*
X153659664Y-88925546D01*
X153648222Y-88968249D01*
X151217895Y-88968249D01*
X151218373Y-88967421D01*
X151252700Y-88839313D01*
X151252700Y-88706687D01*
X151218373Y-88578579D01*
X151215894Y-88574285D01*
X151152062Y-88463724D01*
X151152054Y-88463714D01*
X151058285Y-88369945D01*
X151058275Y-88369937D01*
X150943422Y-88303627D01*
X150900718Y-88292184D01*
X150815313Y-88269300D01*
X150682687Y-88269300D01*
X150618633Y-88286463D01*
X150554577Y-88303627D01*
X150439724Y-88369937D01*
X150439714Y-88369945D01*
X150345945Y-88463714D01*
X150345937Y-88463724D01*
X150279627Y-88578577D01*
X150259156Y-88654976D01*
X150245300Y-88706687D01*
X149059670Y-88706687D01*
X149059374Y-88705581D01*
X148993062Y-88590724D01*
X148993054Y-88590714D01*
X148899285Y-88496945D01*
X148899275Y-88496937D01*
X148784422Y-88430627D01*
X148741718Y-88419184D01*
X148656313Y-88396300D01*
X148523687Y-88396300D01*
X148459633Y-88413463D01*
X148395577Y-88430627D01*
X148280724Y-88496937D01*
X148280714Y-88496945D01*
X148186945Y-88590714D01*
X148186937Y-88590724D01*
X148120627Y-88705577D01*
X148097742Y-88790984D01*
X148086300Y-88833687D01*
X146553700Y-88833687D01*
X146519373Y-88705579D01*
X146497713Y-88668062D01*
X146453062Y-88590724D01*
X146453054Y-88590714D01*
X146359285Y-88496945D01*
X146359275Y-88496937D01*
X146244422Y-88430627D01*
X146201718Y-88419184D01*
X146116313Y-88396300D01*
X145983687Y-88396300D01*
X145919633Y-88413463D01*
X145855577Y-88430627D01*
X145740724Y-88496937D01*
X145740714Y-88496945D01*
X145646945Y-88590714D01*
X145646937Y-88590724D01*
X145580627Y-88705577D01*
X145557742Y-88790984D01*
X145546300Y-88833687D01*
X144013700Y-88833687D01*
X143979373Y-88705579D01*
X143957713Y-88668062D01*
X143913062Y-88590724D01*
X143913054Y-88590714D01*
X143819285Y-88496945D01*
X143819275Y-88496937D01*
X143704422Y-88430627D01*
X143661718Y-88419184D01*
X143576313Y-88396300D01*
X143443687Y-88396300D01*
X143379633Y-88413463D01*
X143315577Y-88430627D01*
X143200724Y-88496937D01*
X143200714Y-88496945D01*
X143106945Y-88590714D01*
X143106935Y-88590727D01*
X143105882Y-88592552D01*
X143104591Y-88593782D01*
X143101913Y-88597273D01*
X143101368Y-88596855D01*
X143054497Y-88641543D01*
X142984783Y-88654976D01*
X142918873Y-88628586D01*
X142877694Y-88570752D01*
X142870766Y-88529506D01*
X142870777Y-88496937D01*
X142871081Y-87563687D01*
X145546300Y-87563687D01*
X145546300Y-87696313D01*
X145563714Y-87761300D01*
X145580627Y-87824422D01*
X145646937Y-87939275D01*
X145646945Y-87939285D01*
X145740714Y-88033054D01*
X145740719Y-88033058D01*
X145740721Y-88033060D01*
X145740722Y-88033061D01*
X145740724Y-88033062D01*
X145855577Y-88099372D01*
X145855579Y-88099373D01*
X145983687Y-88133700D01*
X145983689Y-88133700D01*
X146116311Y-88133700D01*
X146116313Y-88133700D01*
X146244421Y-88099373D01*
X146359279Y-88033060D01*
X146453060Y-87939279D01*
X146519373Y-87824421D01*
X146553700Y-87696313D01*
X146553700Y-87563687D01*
X148086300Y-87563687D01*
X148086300Y-87696313D01*
X148103714Y-87761300D01*
X148120627Y-87824422D01*
X148186937Y-87939275D01*
X148186945Y-87939285D01*
X148280714Y-88033054D01*
X148280719Y-88033058D01*
X148280721Y-88033060D01*
X148280722Y-88033061D01*
X148280724Y-88033062D01*
X148395577Y-88099372D01*
X148395579Y-88099373D01*
X148523687Y-88133700D01*
X148523689Y-88133700D01*
X148656311Y-88133700D01*
X148656313Y-88133700D01*
X148784421Y-88099373D01*
X148899279Y-88033060D01*
X148993060Y-87939279D01*
X149059373Y-87824421D01*
X149093700Y-87696313D01*
X149093700Y-87563687D01*
X149059373Y-87435579D01*
X149056894Y-87431285D01*
X148993062Y-87320724D01*
X148993054Y-87320714D01*
X148899285Y-87226945D01*
X148899275Y-87226937D01*
X148784422Y-87160627D01*
X148741718Y-87149184D01*
X148656313Y-87126300D01*
X148523687Y-87126300D01*
X148459633Y-87143463D01*
X148395577Y-87160627D01*
X148280724Y-87226937D01*
X148280714Y-87226945D01*
X148186945Y-87320714D01*
X148186937Y-87320724D01*
X148120627Y-87435577D01*
X148097742Y-87520984D01*
X148086300Y-87563687D01*
X146553700Y-87563687D01*
X146519373Y-87435579D01*
X146516894Y-87431285D01*
X146453062Y-87320724D01*
X146453054Y-87320714D01*
X146359285Y-87226945D01*
X146359275Y-87226937D01*
X146244422Y-87160627D01*
X146201718Y-87149184D01*
X146116313Y-87126300D01*
X145983687Y-87126300D01*
X145919633Y-87143463D01*
X145855577Y-87160627D01*
X145740724Y-87226937D01*
X145740714Y-87226945D01*
X145646945Y-87320714D01*
X145646937Y-87320724D01*
X145580627Y-87435577D01*
X145557742Y-87520984D01*
X145546300Y-87563687D01*
X142871081Y-87563687D01*
X142871329Y-86801687D01*
X146816300Y-86801687D01*
X146816300Y-86934313D01*
X146828107Y-86978377D01*
X146850627Y-87062422D01*
X146916937Y-87177275D01*
X146916945Y-87177285D01*
X147010714Y-87271054D01*
X147010719Y-87271058D01*
X147010721Y-87271060D01*
X147010722Y-87271061D01*
X147010724Y-87271062D01*
X147096742Y-87320724D01*
X147125579Y-87337373D01*
X147253687Y-87371700D01*
X147253689Y-87371700D01*
X147386311Y-87371700D01*
X147386313Y-87371700D01*
X147514421Y-87337373D01*
X147629279Y-87271060D01*
X147723060Y-87177279D01*
X147789373Y-87062421D01*
X147791177Y-87055687D01*
X151642300Y-87055687D01*
X151642300Y-87188313D01*
X151652652Y-87226945D01*
X151676627Y-87316422D01*
X151742937Y-87431275D01*
X151742945Y-87431285D01*
X151836714Y-87525054D01*
X151836719Y-87525058D01*
X151836721Y-87525060D01*
X151836722Y-87525061D01*
X151836724Y-87525062D01*
X151924713Y-87575862D01*
X151951579Y-87591373D01*
X152079687Y-87625700D01*
X152079689Y-87625700D01*
X152212313Y-87625700D01*
X152263769Y-87611912D01*
X152334744Y-87613600D01*
X152393541Y-87653394D01*
X152421490Y-87718657D01*
X152418088Y-87766229D01*
X152404300Y-87817687D01*
X152404300Y-87950313D01*
X152405750Y-87955724D01*
X152438627Y-88078422D01*
X152504937Y-88193275D01*
X152504945Y-88193285D01*
X152598714Y-88287054D01*
X152598719Y-88287058D01*
X152598721Y-88287060D01*
X152598722Y-88287061D01*
X152598724Y-88287062D01*
X152713577Y-88353372D01*
X152713579Y-88353373D01*
X152841687Y-88387700D01*
X152841689Y-88387700D01*
X152974311Y-88387700D01*
X152974313Y-88387700D01*
X153102421Y-88353373D01*
X153217279Y-88287060D01*
X153305652Y-88198687D01*
X167009300Y-88198687D01*
X167009300Y-88331313D01*
X167019652Y-88369945D01*
X167043627Y-88459422D01*
X167109937Y-88574275D01*
X167109945Y-88574285D01*
X167203714Y-88668054D01*
X167203719Y-88668058D01*
X167203721Y-88668060D01*
X167203722Y-88668061D01*
X167203724Y-88668062D01*
X167312799Y-88731036D01*
X167318579Y-88734373D01*
X167446687Y-88768700D01*
X167446689Y-88768700D01*
X167579311Y-88768700D01*
X167579313Y-88768700D01*
X167707421Y-88734373D01*
X167822279Y-88668060D01*
X167916060Y-88574279D01*
X167982373Y-88459421D01*
X168016700Y-88331313D01*
X168016700Y-88198687D01*
X167982373Y-88070579D01*
X167960713Y-88033062D01*
X167916062Y-87955724D01*
X167916054Y-87955714D01*
X167822285Y-87861945D01*
X167822275Y-87861937D01*
X167707422Y-87795627D01*
X167664718Y-87784184D01*
X167579313Y-87761300D01*
X167446687Y-87761300D01*
X167382633Y-87778463D01*
X167318577Y-87795627D01*
X167203724Y-87861937D01*
X167203714Y-87861945D01*
X167109945Y-87955714D01*
X167109937Y-87955724D01*
X167043627Y-88070577D01*
X167020742Y-88155984D01*
X167009300Y-88198687D01*
X153305652Y-88198687D01*
X153311060Y-88193279D01*
X153377373Y-88078421D01*
X153411700Y-87950313D01*
X153411700Y-87817687D01*
X153377373Y-87689579D01*
X153320674Y-87591373D01*
X153311062Y-87574724D01*
X153311054Y-87574714D01*
X153217285Y-87480945D01*
X153217275Y-87480937D01*
X153102422Y-87414627D01*
X153059718Y-87403184D01*
X152974313Y-87380300D01*
X152841687Y-87380300D01*
X152790229Y-87394088D01*
X152719252Y-87392398D01*
X152660457Y-87352604D01*
X152632509Y-87287339D01*
X152632292Y-87259369D01*
X152633324Y-87249427D01*
X152649700Y-87188313D01*
X152649700Y-87106487D01*
X156290500Y-87106487D01*
X156290500Y-87239113D01*
X156310411Y-87313421D01*
X156324827Y-87367222D01*
X156391137Y-87482075D01*
X156391145Y-87482085D01*
X156484914Y-87575854D01*
X156484919Y-87575858D01*
X156484921Y-87575860D01*
X156484922Y-87575861D01*
X156484924Y-87575862D01*
X156599777Y-87642172D01*
X156599779Y-87642173D01*
X156727887Y-87676500D01*
X156727889Y-87676500D01*
X156860511Y-87676500D01*
X156860513Y-87676500D01*
X156988621Y-87642173D01*
X157103479Y-87575860D01*
X157197260Y-87482079D01*
X157263573Y-87367221D01*
X157297900Y-87239113D01*
X157297900Y-87106487D01*
X157283484Y-87052687D01*
X163199300Y-87052687D01*
X163199300Y-87185313D01*
X163213716Y-87239113D01*
X163233627Y-87313422D01*
X163299937Y-87428275D01*
X163299945Y-87428285D01*
X163393714Y-87522054D01*
X163393719Y-87522058D01*
X163393721Y-87522060D01*
X163393722Y-87522061D01*
X163393724Y-87522062D01*
X163486909Y-87575862D01*
X163508579Y-87588373D01*
X163636687Y-87622700D01*
X163636689Y-87622700D01*
X163769311Y-87622700D01*
X163769313Y-87622700D01*
X163897421Y-87588373D01*
X164012279Y-87522060D01*
X164106060Y-87428279D01*
X164172373Y-87313421D01*
X164206700Y-87185313D01*
X164206700Y-87052687D01*
X164469300Y-87052687D01*
X164469300Y-87185313D01*
X164483716Y-87239113D01*
X164503627Y-87313422D01*
X164569937Y-87428275D01*
X164569945Y-87428285D01*
X164663714Y-87522054D01*
X164663719Y-87522058D01*
X164663721Y-87522060D01*
X164663722Y-87522061D01*
X164663724Y-87522062D01*
X164756909Y-87575862D01*
X164778579Y-87588373D01*
X164906687Y-87622700D01*
X164906689Y-87622700D01*
X165039311Y-87622700D01*
X165039313Y-87622700D01*
X165167421Y-87588373D01*
X165282279Y-87522060D01*
X165376060Y-87428279D01*
X165442373Y-87313421D01*
X165476700Y-87185313D01*
X165476700Y-87052687D01*
X165442373Y-86924579D01*
X165407123Y-86863524D01*
X165376062Y-86809724D01*
X165376054Y-86809714D01*
X165282285Y-86715945D01*
X165282275Y-86715937D01*
X165167422Y-86649627D01*
X165124718Y-86638184D01*
X165039313Y-86615300D01*
X164906687Y-86615300D01*
X164842633Y-86632463D01*
X164778577Y-86649627D01*
X164663724Y-86715937D01*
X164663714Y-86715945D01*
X164569945Y-86809714D01*
X164569937Y-86809724D01*
X164503627Y-86924577D01*
X164489211Y-86978379D01*
X164469300Y-87052687D01*
X164206700Y-87052687D01*
X164172373Y-86924579D01*
X164137123Y-86863524D01*
X164106062Y-86809724D01*
X164106054Y-86809714D01*
X164012285Y-86715945D01*
X164012275Y-86715937D01*
X163897422Y-86649627D01*
X163854718Y-86638184D01*
X163769313Y-86615300D01*
X163636687Y-86615300D01*
X163572633Y-86632463D01*
X163508577Y-86649627D01*
X163393724Y-86715937D01*
X163393714Y-86715945D01*
X163299945Y-86809714D01*
X163299937Y-86809724D01*
X163233627Y-86924577D01*
X163219211Y-86978379D01*
X163199300Y-87052687D01*
X157283484Y-87052687D01*
X157263573Y-86978379D01*
X157238132Y-86934313D01*
X157197262Y-86863524D01*
X157197254Y-86863514D01*
X157103485Y-86769745D01*
X157103475Y-86769737D01*
X156988622Y-86703427D01*
X156945918Y-86691984D01*
X156860513Y-86669100D01*
X156727887Y-86669100D01*
X156663833Y-86686263D01*
X156599777Y-86703427D01*
X156484924Y-86769737D01*
X156484914Y-86769745D01*
X156391145Y-86863514D01*
X156391137Y-86863524D01*
X156324827Y-86978377D01*
X156304916Y-87052687D01*
X156290500Y-87106487D01*
X152649700Y-87106487D01*
X152649700Y-87055687D01*
X152615373Y-86927579D01*
X152558674Y-86829373D01*
X152549062Y-86812724D01*
X152549054Y-86812714D01*
X152455285Y-86718945D01*
X152455275Y-86718937D01*
X152340422Y-86652627D01*
X152297718Y-86641184D01*
X152212313Y-86618300D01*
X152079687Y-86618300D01*
X152015633Y-86635463D01*
X151951577Y-86652627D01*
X151836724Y-86718937D01*
X151836714Y-86718945D01*
X151742945Y-86812714D01*
X151742937Y-86812724D01*
X151676627Y-86927577D01*
X151663015Y-86978377D01*
X151642300Y-87055687D01*
X147791177Y-87055687D01*
X147823700Y-86934313D01*
X147823700Y-86801687D01*
X147789373Y-86673579D01*
X147786894Y-86669285D01*
X147723062Y-86558724D01*
X147723054Y-86558714D01*
X147629285Y-86464945D01*
X147629275Y-86464937D01*
X147514422Y-86398627D01*
X147471718Y-86387184D01*
X147386313Y-86364300D01*
X147253687Y-86364300D01*
X147189633Y-86381463D01*
X147125577Y-86398627D01*
X147010724Y-86464937D01*
X147010714Y-86464945D01*
X146916945Y-86558714D01*
X146916937Y-86558724D01*
X146850627Y-86673577D01*
X146842629Y-86703427D01*
X146816300Y-86801687D01*
X142871329Y-86801687D01*
X142871494Y-86293687D01*
X162056300Y-86293687D01*
X162056300Y-86426313D01*
X162066652Y-86464945D01*
X162090627Y-86554422D01*
X162156937Y-86669275D01*
X162156945Y-86669285D01*
X162250714Y-86763054D01*
X162250719Y-86763058D01*
X162250721Y-86763060D01*
X162250722Y-86763061D01*
X162250724Y-86763062D01*
X162336742Y-86812724D01*
X162365579Y-86829373D01*
X162493687Y-86863700D01*
X162493689Y-86863700D01*
X162626311Y-86863700D01*
X162626313Y-86863700D01*
X162754421Y-86829373D01*
X162869279Y-86763060D01*
X162963060Y-86669279D01*
X163029373Y-86554421D01*
X163063700Y-86426313D01*
X163063700Y-86293687D01*
X163029373Y-86165579D01*
X162972674Y-86067373D01*
X162963062Y-86050724D01*
X162963054Y-86050714D01*
X162869285Y-85956945D01*
X162869275Y-85956937D01*
X162754422Y-85890627D01*
X162711718Y-85879184D01*
X162626313Y-85856300D01*
X162493687Y-85856300D01*
X162429633Y-85873463D01*
X162365577Y-85890627D01*
X162250724Y-85956937D01*
X162250714Y-85956945D01*
X162156945Y-86050714D01*
X162156937Y-86050724D01*
X162090627Y-86165577D01*
X162087752Y-86176307D01*
X162056300Y-86293687D01*
X142871494Y-86293687D01*
X142871600Y-85969853D01*
X142891624Y-85901742D01*
X142945295Y-85855266D01*
X143015572Y-85845185D01*
X143080144Y-85874700D01*
X143101738Y-85900861D01*
X143101913Y-85900727D01*
X143105682Y-85905639D01*
X143106717Y-85906892D01*
X143106940Y-85907279D01*
X143106942Y-85907281D01*
X143106945Y-85907285D01*
X143200714Y-86001054D01*
X143200719Y-86001058D01*
X143200721Y-86001060D01*
X143200722Y-86001061D01*
X143200724Y-86001062D01*
X143286742Y-86050724D01*
X143315579Y-86067373D01*
X143443687Y-86101700D01*
X143443689Y-86101700D01*
X143576311Y-86101700D01*
X143576313Y-86101700D01*
X143704421Y-86067373D01*
X143819279Y-86001060D01*
X143913060Y-85907279D01*
X143979373Y-85792421D01*
X144013700Y-85664313D01*
X144013700Y-85531687D01*
X145546300Y-85531687D01*
X145546300Y-85664313D01*
X145569184Y-85749718D01*
X145580627Y-85792422D01*
X145646937Y-85907275D01*
X145646945Y-85907285D01*
X145740714Y-86001054D01*
X145740719Y-86001058D01*
X145740721Y-86001060D01*
X145740722Y-86001061D01*
X145740724Y-86001062D01*
X145826742Y-86050724D01*
X145855579Y-86067373D01*
X145983687Y-86101700D01*
X145983689Y-86101700D01*
X146116311Y-86101700D01*
X146116313Y-86101700D01*
X146244421Y-86067373D01*
X146359279Y-86001060D01*
X146453060Y-85907279D01*
X146519373Y-85792421D01*
X146552027Y-85670556D01*
X155948431Y-85670556D01*
X155948431Y-85803182D01*
X155959686Y-85845185D01*
X155982758Y-85931291D01*
X156049068Y-86046144D01*
X156049076Y-86046154D01*
X156142845Y-86139923D01*
X156142850Y-86139927D01*
X156142852Y-86139929D01*
X156142853Y-86139930D01*
X156142855Y-86139931D01*
X156257708Y-86206241D01*
X156257710Y-86206242D01*
X156385818Y-86240569D01*
X156385820Y-86240569D01*
X156518442Y-86240569D01*
X156518444Y-86240569D01*
X156646552Y-86206242D01*
X156761410Y-86139929D01*
X156855191Y-86046148D01*
X156921504Y-85931290D01*
X156955831Y-85803182D01*
X156955831Y-85670556D01*
X156921504Y-85542448D01*
X156894852Y-85496285D01*
X156855193Y-85427593D01*
X156855185Y-85427583D01*
X156761416Y-85333814D01*
X156761406Y-85333806D01*
X156646553Y-85267496D01*
X156593621Y-85253313D01*
X156518444Y-85233169D01*
X156385818Y-85233169D01*
X156321764Y-85250332D01*
X156257708Y-85267496D01*
X156142855Y-85333806D01*
X156142845Y-85333814D01*
X156049076Y-85427583D01*
X156049068Y-85427593D01*
X155982758Y-85542446D01*
X155959873Y-85627853D01*
X155948431Y-85670556D01*
X146552027Y-85670556D01*
X146553700Y-85664313D01*
X146553700Y-85531687D01*
X146519373Y-85403579D01*
X146481325Y-85337677D01*
X146453062Y-85288724D01*
X146453054Y-85288714D01*
X146359285Y-85194945D01*
X146359275Y-85194937D01*
X146244422Y-85128627D01*
X146201718Y-85117184D01*
X146116313Y-85094300D01*
X145983687Y-85094300D01*
X145919633Y-85111463D01*
X145855577Y-85128627D01*
X145740724Y-85194937D01*
X145740714Y-85194945D01*
X145646945Y-85288714D01*
X145646937Y-85288724D01*
X145580627Y-85403577D01*
X145574195Y-85427583D01*
X145546300Y-85531687D01*
X144013700Y-85531687D01*
X143979373Y-85403579D01*
X143941325Y-85337677D01*
X143913062Y-85288724D01*
X143913054Y-85288714D01*
X143819285Y-85194945D01*
X143819275Y-85194937D01*
X143704422Y-85128627D01*
X143661718Y-85117184D01*
X143576313Y-85094300D01*
X143443687Y-85094300D01*
X143379633Y-85111463D01*
X143315577Y-85128627D01*
X143200724Y-85194937D01*
X143200714Y-85194945D01*
X143106945Y-85288714D01*
X143101913Y-85295273D01*
X143100881Y-85294481D01*
X143055576Y-85337677D01*
X142985862Y-85351111D01*
X142919952Y-85324722D01*
X142878772Y-85266889D01*
X142871843Y-85225641D01*
X142871939Y-84930429D01*
X142872198Y-84134687D01*
X144911300Y-84134687D01*
X144911300Y-84267313D01*
X144917211Y-84289372D01*
X144945627Y-84395422D01*
X145011937Y-84510275D01*
X145011945Y-84510285D01*
X145105714Y-84604054D01*
X145105719Y-84604058D01*
X145105721Y-84604060D01*
X145105722Y-84604061D01*
X145105724Y-84604062D01*
X145170706Y-84641579D01*
X145220579Y-84670373D01*
X145348687Y-84704700D01*
X145348689Y-84704700D01*
X145481311Y-84704700D01*
X145481313Y-84704700D01*
X145609421Y-84670373D01*
X145724279Y-84604060D01*
X145818060Y-84510279D01*
X145884373Y-84395421D01*
X145894898Y-84356140D01*
X150634300Y-84356140D01*
X150634300Y-84553859D01*
X150672872Y-84747768D01*
X150672873Y-84747771D01*
X150685436Y-84778100D01*
X150748533Y-84930430D01*
X150790060Y-84992579D01*
X150858375Y-85094820D01*
X150858380Y-85094826D01*
X150998173Y-85234619D01*
X150998179Y-85234624D01*
X151162570Y-85344467D01*
X151345232Y-85420128D01*
X151539144Y-85458700D01*
X151736856Y-85458700D01*
X151930768Y-85420128D01*
X152113430Y-85344467D01*
X152277821Y-85234624D01*
X152417624Y-85094821D01*
X152527467Y-84930430D01*
X152594049Y-84769687D01*
X158095800Y-84769687D01*
X158095800Y-84902313D01*
X158103334Y-84930429D01*
X158130127Y-85030422D01*
X158196437Y-85145275D01*
X158196445Y-85145285D01*
X158290214Y-85239054D01*
X158290219Y-85239058D01*
X158290221Y-85239060D01*
X158290222Y-85239061D01*
X158290224Y-85239062D01*
X158376242Y-85288724D01*
X158405079Y-85305373D01*
X158533187Y-85339700D01*
X158533189Y-85339700D01*
X158665811Y-85339700D01*
X158665813Y-85339700D01*
X158793921Y-85305373D01*
X158908779Y-85239060D01*
X159002560Y-85145279D01*
X159068873Y-85030421D01*
X159103200Y-84902313D01*
X159103200Y-84769687D01*
X159068873Y-84641579D01*
X159047213Y-84604062D01*
X159002562Y-84526724D01*
X159002554Y-84526714D01*
X158908785Y-84432945D01*
X158908775Y-84432937D01*
X158793922Y-84366627D01*
X158751218Y-84355184D01*
X158665813Y-84332300D01*
X158533187Y-84332300D01*
X158469133Y-84349463D01*
X158405077Y-84366627D01*
X158290224Y-84432937D01*
X158290214Y-84432945D01*
X158196445Y-84526714D01*
X158196437Y-84526724D01*
X158130127Y-84641577D01*
X158110382Y-84715268D01*
X158095800Y-84769687D01*
X152594049Y-84769687D01*
X152603128Y-84747768D01*
X152641700Y-84553856D01*
X152641700Y-84356144D01*
X152603128Y-84162232D01*
X152585920Y-84120687D01*
X163453300Y-84120687D01*
X163453300Y-84253313D01*
X163474465Y-84332300D01*
X163487627Y-84381422D01*
X163553937Y-84496275D01*
X163553945Y-84496285D01*
X163653560Y-84595900D01*
X163651651Y-84597808D01*
X163685656Y-84644397D01*
X163689865Y-84715268D01*
X163655090Y-84777165D01*
X163650632Y-84781027D01*
X163553945Y-84877714D01*
X163553937Y-84877724D01*
X163487627Y-84992577D01*
X163477487Y-85030421D01*
X163453300Y-85120687D01*
X163453300Y-85253313D01*
X163467250Y-85305373D01*
X163487627Y-85381422D01*
X163553937Y-85496275D01*
X163553945Y-85496285D01*
X163647714Y-85590054D01*
X163647719Y-85590058D01*
X163647721Y-85590060D01*
X163762579Y-85656373D01*
X163890687Y-85690700D01*
X163890689Y-85690700D01*
X164023311Y-85690700D01*
X164023313Y-85690700D01*
X164151421Y-85656373D01*
X164266279Y-85590060D01*
X164360060Y-85496279D01*
X164426373Y-85381421D01*
X164460700Y-85253313D01*
X164460700Y-85120687D01*
X164426373Y-84992579D01*
X164426372Y-84992577D01*
X164360062Y-84877724D01*
X164360054Y-84877714D01*
X164260440Y-84778100D01*
X164262351Y-84776188D01*
X164228351Y-84729625D01*
X164224129Y-84658754D01*
X164258893Y-84596851D01*
X164263357Y-84592982D01*
X164360054Y-84496285D01*
X164360060Y-84496279D01*
X164426373Y-84381421D01*
X164460700Y-84253313D01*
X164460700Y-84120687D01*
X164426373Y-83992579D01*
X164365021Y-83886313D01*
X164360062Y-83877724D01*
X164360054Y-83877714D01*
X164266285Y-83783945D01*
X164266275Y-83783937D01*
X164151422Y-83717627D01*
X164108718Y-83706184D01*
X164023313Y-83683300D01*
X163890687Y-83683300D01*
X163826633Y-83700463D01*
X163762577Y-83717627D01*
X163647724Y-83783937D01*
X163647714Y-83783945D01*
X163553945Y-83877714D01*
X163553937Y-83877724D01*
X163487627Y-83992577D01*
X163481774Y-84014421D01*
X163453300Y-84120687D01*
X152585920Y-84120687D01*
X152527467Y-83979570D01*
X152417624Y-83815179D01*
X152417619Y-83815173D01*
X152277826Y-83675380D01*
X152277820Y-83675375D01*
X152203292Y-83625577D01*
X152113430Y-83565533D01*
X151981085Y-83510714D01*
X151930771Y-83489873D01*
X151930768Y-83489872D01*
X151736859Y-83451300D01*
X151736856Y-83451300D01*
X151539144Y-83451300D01*
X151539140Y-83451300D01*
X151345231Y-83489872D01*
X151345228Y-83489873D01*
X151162570Y-83565533D01*
X150998179Y-83675375D01*
X150998173Y-83675380D01*
X150858380Y-83815173D01*
X150858375Y-83815179D01*
X150748533Y-83979570D01*
X150672873Y-84162228D01*
X150672872Y-84162231D01*
X150634300Y-84356140D01*
X145894898Y-84356140D01*
X145918700Y-84267313D01*
X145918700Y-84134687D01*
X145884373Y-84006579D01*
X145876289Y-83992577D01*
X145818062Y-83891724D01*
X145818054Y-83891714D01*
X145724285Y-83797945D01*
X145724275Y-83797937D01*
X145609422Y-83731627D01*
X145557173Y-83717627D01*
X145481313Y-83697300D01*
X145348687Y-83697300D01*
X145284633Y-83714463D01*
X145220577Y-83731627D01*
X145105724Y-83797937D01*
X145105714Y-83797945D01*
X145011945Y-83891714D01*
X145011937Y-83891724D01*
X144945627Y-84006577D01*
X144943525Y-84014422D01*
X144911300Y-84134687D01*
X142872198Y-84134687D01*
X142872702Y-82589687D01*
X146896300Y-82589687D01*
X146896300Y-82722313D01*
X146900000Y-82736121D01*
X146930627Y-82850422D01*
X146996937Y-82965275D01*
X146996945Y-82965285D01*
X147090714Y-83059054D01*
X147090719Y-83059058D01*
X147090721Y-83059060D01*
X147205579Y-83125373D01*
X147333687Y-83159700D01*
X147333689Y-83159700D01*
X147466311Y-83159700D01*
X147466313Y-83159700D01*
X147594421Y-83125373D01*
X147709279Y-83059060D01*
X147709285Y-83059054D01*
X147808900Y-82959440D01*
X147810811Y-82961351D01*
X147857375Y-82927351D01*
X147928246Y-82923129D01*
X147990149Y-82957893D01*
X147994017Y-82962357D01*
X148090714Y-83059054D01*
X148090719Y-83059058D01*
X148090721Y-83059060D01*
X148205579Y-83125373D01*
X148308005Y-83152818D01*
X148368626Y-83189769D01*
X148399647Y-83253629D01*
X148391219Y-83324124D01*
X148346016Y-83378871D01*
X148338393Y-83383643D01*
X148280721Y-83416939D01*
X148280714Y-83416945D01*
X148186945Y-83510714D01*
X148186937Y-83510724D01*
X148120627Y-83625577D01*
X148105160Y-83683300D01*
X148086300Y-83753687D01*
X148086300Y-83886313D01*
X148087750Y-83891724D01*
X148120627Y-84014422D01*
X148186937Y-84129275D01*
X148186945Y-84129285D01*
X148280714Y-84223054D01*
X148280719Y-84223058D01*
X148280721Y-84223060D01*
X148280722Y-84223061D01*
X148280724Y-84223062D01*
X148395577Y-84289372D01*
X148395579Y-84289373D01*
X148523687Y-84323700D01*
X148523689Y-84323700D01*
X148656311Y-84323700D01*
X148656313Y-84323700D01*
X148784421Y-84289373D01*
X148899279Y-84223060D01*
X148993060Y-84129279D01*
X149059373Y-84014421D01*
X149093700Y-83886313D01*
X149093700Y-83753687D01*
X149059373Y-83625579D01*
X148993060Y-83510721D01*
X148993058Y-83510719D01*
X148993054Y-83510714D01*
X148899285Y-83416945D01*
X148899275Y-83416937D01*
X148784418Y-83350625D01*
X148681995Y-83323181D01*
X148621373Y-83286230D01*
X148590351Y-83222369D01*
X148598780Y-83151874D01*
X148643984Y-83097128D01*
X148651582Y-83092370D01*
X148709279Y-83059060D01*
X148803060Y-82965279D01*
X148869373Y-82850421D01*
X148903700Y-82722313D01*
X148903700Y-82589687D01*
X149896300Y-82589687D01*
X149896300Y-82722313D01*
X149900000Y-82736121D01*
X149930627Y-82850422D01*
X149996937Y-82965275D01*
X149996945Y-82965285D01*
X150090714Y-83059054D01*
X150090719Y-83059058D01*
X150090721Y-83059060D01*
X150205579Y-83125373D01*
X150333687Y-83159700D01*
X150333689Y-83159700D01*
X150466311Y-83159700D01*
X150466313Y-83159700D01*
X150594421Y-83125373D01*
X150709279Y-83059060D01*
X150709285Y-83059054D01*
X150808900Y-82959440D01*
X150810811Y-82961351D01*
X150857375Y-82927351D01*
X150928246Y-82923129D01*
X150990149Y-82957893D01*
X150994017Y-82962357D01*
X151090714Y-83059054D01*
X151090719Y-83059058D01*
X151090721Y-83059060D01*
X151205579Y-83125373D01*
X151333687Y-83159700D01*
X151333689Y-83159700D01*
X151466311Y-83159700D01*
X151466313Y-83159700D01*
X151594421Y-83125373D01*
X151709279Y-83059060D01*
X151709285Y-83059054D01*
X151808900Y-82959440D01*
X151810811Y-82961351D01*
X151857375Y-82927351D01*
X151928246Y-82923129D01*
X151990149Y-82957893D01*
X151994017Y-82962357D01*
X152090714Y-83059054D01*
X152090719Y-83059058D01*
X152090721Y-83059060D01*
X152205579Y-83125373D01*
X152333687Y-83159700D01*
X152333689Y-83159700D01*
X152466311Y-83159700D01*
X152466313Y-83159700D01*
X152594421Y-83125373D01*
X152709279Y-83059060D01*
X152803060Y-82965279D01*
X152869373Y-82850421D01*
X152903700Y-82722313D01*
X152903700Y-82589687D01*
X154896300Y-82589687D01*
X154896300Y-82722313D01*
X154900000Y-82736121D01*
X154930627Y-82850422D01*
X154996937Y-82965275D01*
X154996945Y-82965285D01*
X155090714Y-83059054D01*
X155090719Y-83059058D01*
X155090721Y-83059060D01*
X155205579Y-83125373D01*
X155333687Y-83159700D01*
X155333689Y-83159700D01*
X155466311Y-83159700D01*
X155466313Y-83159700D01*
X155594421Y-83125373D01*
X155709279Y-83059060D01*
X155709285Y-83059054D01*
X155808900Y-82959440D01*
X155810811Y-82961351D01*
X155857375Y-82927351D01*
X155928246Y-82923129D01*
X155990149Y-82957893D01*
X155994017Y-82962357D01*
X156090714Y-83059054D01*
X156090719Y-83059058D01*
X156090721Y-83059060D01*
X156205579Y-83125373D01*
X156333687Y-83159700D01*
X156333689Y-83159700D01*
X156466311Y-83159700D01*
X156466313Y-83159700D01*
X156594421Y-83125373D01*
X156709279Y-83059060D01*
X156803060Y-82965279D01*
X156869373Y-82850421D01*
X156903700Y-82722313D01*
X156903700Y-82589687D01*
X156869373Y-82461579D01*
X156824962Y-82384656D01*
X156803062Y-82346724D01*
X156803054Y-82346714D01*
X156709285Y-82252945D01*
X156709275Y-82252937D01*
X156594422Y-82186627D01*
X156551718Y-82175184D01*
X156466313Y-82152300D01*
X156333687Y-82152300D01*
X156269633Y-82169463D01*
X156205577Y-82186627D01*
X156090724Y-82252937D01*
X156090714Y-82252945D01*
X155991100Y-82352560D01*
X155989191Y-82350651D01*
X155942603Y-82384656D01*
X155871732Y-82388865D01*
X155809835Y-82354090D01*
X155805972Y-82349632D01*
X155709285Y-82252945D01*
X155709275Y-82252937D01*
X155594422Y-82186627D01*
X155551718Y-82175184D01*
X155466313Y-82152300D01*
X155333687Y-82152300D01*
X155269633Y-82169463D01*
X155205577Y-82186627D01*
X155090724Y-82252937D01*
X155090714Y-82252945D01*
X154996945Y-82346714D01*
X154996937Y-82346724D01*
X154930627Y-82461577D01*
X154907742Y-82546984D01*
X154896300Y-82589687D01*
X152903700Y-82589687D01*
X152869373Y-82461579D01*
X152824962Y-82384656D01*
X152803062Y-82346724D01*
X152803054Y-82346714D01*
X152709285Y-82252945D01*
X152709275Y-82252937D01*
X152594422Y-82186627D01*
X152551718Y-82175184D01*
X152466313Y-82152300D01*
X152333687Y-82152300D01*
X152269633Y-82169463D01*
X152205577Y-82186627D01*
X152090724Y-82252937D01*
X152090714Y-82252945D01*
X151991100Y-82352560D01*
X151989191Y-82350651D01*
X151942603Y-82384656D01*
X151871732Y-82388865D01*
X151809835Y-82354090D01*
X151805972Y-82349632D01*
X151709285Y-82252945D01*
X151709275Y-82252937D01*
X151594422Y-82186627D01*
X151551718Y-82175184D01*
X151466313Y-82152300D01*
X151333687Y-82152300D01*
X151269633Y-82169463D01*
X151205577Y-82186627D01*
X151090724Y-82252937D01*
X151090714Y-82252945D01*
X150991100Y-82352560D01*
X150989191Y-82350651D01*
X150942603Y-82384656D01*
X150871732Y-82388865D01*
X150809835Y-82354090D01*
X150805972Y-82349632D01*
X150709285Y-82252945D01*
X150709275Y-82252937D01*
X150594422Y-82186627D01*
X150551718Y-82175184D01*
X150466313Y-82152300D01*
X150333687Y-82152300D01*
X150269633Y-82169463D01*
X150205577Y-82186627D01*
X150090724Y-82252937D01*
X150090714Y-82252945D01*
X149996945Y-82346714D01*
X149996937Y-82346724D01*
X149930627Y-82461577D01*
X149907742Y-82546984D01*
X149896300Y-82589687D01*
X148903700Y-82589687D01*
X148869373Y-82461579D01*
X148824962Y-82384656D01*
X148803062Y-82346724D01*
X148803054Y-82346714D01*
X148709285Y-82252945D01*
X148709275Y-82252937D01*
X148594422Y-82186627D01*
X148551718Y-82175184D01*
X148466313Y-82152300D01*
X148333687Y-82152300D01*
X148269633Y-82169463D01*
X148205577Y-82186627D01*
X148090724Y-82252937D01*
X148090714Y-82252945D01*
X147991100Y-82352560D01*
X147989191Y-82350651D01*
X147942603Y-82384656D01*
X147871732Y-82388865D01*
X147809835Y-82354090D01*
X147805972Y-82349632D01*
X147709285Y-82252945D01*
X147709275Y-82252937D01*
X147594422Y-82186627D01*
X147551718Y-82175184D01*
X147466313Y-82152300D01*
X147333687Y-82152300D01*
X147269633Y-82169463D01*
X147205577Y-82186627D01*
X147090724Y-82252937D01*
X147090714Y-82252945D01*
X146996945Y-82346714D01*
X146996937Y-82346724D01*
X146930627Y-82461577D01*
X146907742Y-82546984D01*
X146896300Y-82589687D01*
X142872702Y-82589687D01*
X142873151Y-81213687D01*
X146562300Y-81213687D01*
X146562300Y-81346313D01*
X146585184Y-81431718D01*
X146596627Y-81474422D01*
X146662937Y-81589275D01*
X146662945Y-81589285D01*
X146756714Y-81683054D01*
X146756719Y-81683058D01*
X146756721Y-81683060D01*
X146871579Y-81749373D01*
X146999687Y-81783700D01*
X146999689Y-81783700D01*
X147132311Y-81783700D01*
X147132313Y-81783700D01*
X147260421Y-81749373D01*
X147375279Y-81683060D01*
X147469060Y-81589279D01*
X147535373Y-81474421D01*
X147569700Y-81346313D01*
X147569700Y-81213687D01*
X147832300Y-81213687D01*
X147832300Y-81346313D01*
X147855184Y-81431718D01*
X147866627Y-81474422D01*
X147932937Y-81589275D01*
X147932945Y-81589285D01*
X148026714Y-81683054D01*
X148026719Y-81683058D01*
X148026721Y-81683060D01*
X148141579Y-81749373D01*
X148269687Y-81783700D01*
X148269689Y-81783700D01*
X148402311Y-81783700D01*
X148402313Y-81783700D01*
X148530421Y-81749373D01*
X148645279Y-81683060D01*
X148739060Y-81589279D01*
X148805373Y-81474421D01*
X148839700Y-81346313D01*
X148839700Y-81213687D01*
X150626300Y-81213687D01*
X150626300Y-81346313D01*
X150649184Y-81431718D01*
X150660627Y-81474422D01*
X150726937Y-81589275D01*
X150726945Y-81589285D01*
X150820714Y-81683054D01*
X150820719Y-81683058D01*
X150820721Y-81683060D01*
X150935579Y-81749373D01*
X151063687Y-81783700D01*
X151063689Y-81783700D01*
X151196311Y-81783700D01*
X151196313Y-81783700D01*
X151324421Y-81749373D01*
X151439279Y-81683060D01*
X151533060Y-81589279D01*
X151599373Y-81474421D01*
X151633700Y-81346313D01*
X151633700Y-81213687D01*
X153166300Y-81213687D01*
X153166300Y-81346313D01*
X153189184Y-81431718D01*
X153200627Y-81474422D01*
X153266937Y-81589275D01*
X153266945Y-81589285D01*
X153360714Y-81683054D01*
X153360719Y-81683058D01*
X153360721Y-81683060D01*
X153475579Y-81749373D01*
X153603687Y-81783700D01*
X153603689Y-81783700D01*
X153736311Y-81783700D01*
X153736313Y-81783700D01*
X153864421Y-81749373D01*
X153979279Y-81683060D01*
X154073060Y-81589279D01*
X154139373Y-81474421D01*
X154173700Y-81346313D01*
X154173700Y-81213687D01*
X154436300Y-81213687D01*
X154436300Y-81346313D01*
X154459184Y-81431718D01*
X154470627Y-81474422D01*
X154536937Y-81589275D01*
X154536945Y-81589285D01*
X154630714Y-81683054D01*
X154630719Y-81683058D01*
X154630721Y-81683060D01*
X154745579Y-81749373D01*
X154873687Y-81783700D01*
X154873689Y-81783700D01*
X155006311Y-81783700D01*
X155006313Y-81783700D01*
X155134421Y-81749373D01*
X155249279Y-81683060D01*
X155343060Y-81589279D01*
X155409373Y-81474421D01*
X155443700Y-81346313D01*
X155443700Y-81213687D01*
X161548300Y-81213687D01*
X161548300Y-81346313D01*
X161571184Y-81431718D01*
X161582627Y-81474422D01*
X161648937Y-81589275D01*
X161648945Y-81589285D01*
X161742714Y-81683054D01*
X161742719Y-81683058D01*
X161742721Y-81683060D01*
X161857579Y-81749373D01*
X161985687Y-81783700D01*
X161985689Y-81783700D01*
X162118311Y-81783700D01*
X162118313Y-81783700D01*
X162246421Y-81749373D01*
X162361279Y-81683060D01*
X162455060Y-81589279D01*
X162521373Y-81474421D01*
X162555700Y-81346313D01*
X162555700Y-81213687D01*
X162521373Y-81085579D01*
X162455060Y-80970721D01*
X162455058Y-80970719D01*
X162455054Y-80970714D01*
X162361285Y-80876945D01*
X162361275Y-80876937D01*
X162246422Y-80810627D01*
X162203718Y-80799184D01*
X162118313Y-80776300D01*
X161985687Y-80776300D01*
X161921633Y-80793463D01*
X161857577Y-80810627D01*
X161742724Y-80876937D01*
X161742714Y-80876945D01*
X161648945Y-80970714D01*
X161648937Y-80970724D01*
X161582627Y-81085577D01*
X161559742Y-81170984D01*
X161548300Y-81213687D01*
X155443700Y-81213687D01*
X155409373Y-81085579D01*
X155343060Y-80970721D01*
X155343058Y-80970719D01*
X155343054Y-80970714D01*
X155249285Y-80876945D01*
X155249275Y-80876937D01*
X155134422Y-80810627D01*
X155091718Y-80799184D01*
X155006313Y-80776300D01*
X154873687Y-80776300D01*
X154809633Y-80793463D01*
X154745577Y-80810627D01*
X154630724Y-80876937D01*
X154630714Y-80876945D01*
X154536945Y-80970714D01*
X154536937Y-80970724D01*
X154470627Y-81085577D01*
X154447742Y-81170984D01*
X154436300Y-81213687D01*
X154173700Y-81213687D01*
X154139373Y-81085579D01*
X154073060Y-80970721D01*
X154073058Y-80970719D01*
X154073054Y-80970714D01*
X153979285Y-80876945D01*
X153979275Y-80876937D01*
X153864422Y-80810627D01*
X153821718Y-80799184D01*
X153736313Y-80776300D01*
X153603687Y-80776300D01*
X153539633Y-80793463D01*
X153475577Y-80810627D01*
X153360724Y-80876937D01*
X153360714Y-80876945D01*
X153266945Y-80970714D01*
X153266937Y-80970724D01*
X153200627Y-81085577D01*
X153177742Y-81170984D01*
X153166300Y-81213687D01*
X151633700Y-81213687D01*
X151599373Y-81085579D01*
X151533060Y-80970721D01*
X151533058Y-80970719D01*
X151533054Y-80970714D01*
X151439285Y-80876945D01*
X151439275Y-80876937D01*
X151324422Y-80810627D01*
X151281718Y-80799184D01*
X151196313Y-80776300D01*
X151063687Y-80776300D01*
X150999633Y-80793463D01*
X150935577Y-80810627D01*
X150820724Y-80876937D01*
X150820714Y-80876945D01*
X150726945Y-80970714D01*
X150726937Y-80970724D01*
X150660627Y-81085577D01*
X150637742Y-81170984D01*
X150626300Y-81213687D01*
X148839700Y-81213687D01*
X148805373Y-81085579D01*
X148739060Y-80970721D01*
X148739058Y-80970719D01*
X148739054Y-80970714D01*
X148645285Y-80876945D01*
X148645275Y-80876937D01*
X148530422Y-80810627D01*
X148487718Y-80799184D01*
X148402313Y-80776300D01*
X148269687Y-80776300D01*
X148205633Y-80793463D01*
X148141577Y-80810627D01*
X148026724Y-80876937D01*
X148026714Y-80876945D01*
X147932945Y-80970714D01*
X147932937Y-80970724D01*
X147866627Y-81085577D01*
X147843742Y-81170984D01*
X147832300Y-81213687D01*
X147569700Y-81213687D01*
X147535373Y-81085579D01*
X147469060Y-80970721D01*
X147469058Y-80970719D01*
X147469054Y-80970714D01*
X147375285Y-80876945D01*
X147375275Y-80876937D01*
X147260422Y-80810627D01*
X147217718Y-80799184D01*
X147132313Y-80776300D01*
X146999687Y-80776300D01*
X146935633Y-80793463D01*
X146871577Y-80810627D01*
X146756724Y-80876937D01*
X146756714Y-80876945D01*
X146662945Y-80970714D01*
X146662937Y-80970724D01*
X146596627Y-81085577D01*
X146573742Y-81170984D01*
X146562300Y-81213687D01*
X142873151Y-81213687D01*
X142873524Y-80070687D01*
X147197300Y-80070687D01*
X147197300Y-80203313D01*
X147220184Y-80288718D01*
X147231627Y-80331422D01*
X147297937Y-80446275D01*
X147297945Y-80446285D01*
X147391714Y-80540054D01*
X147391719Y-80540058D01*
X147391721Y-80540060D01*
X147506579Y-80606373D01*
X147634687Y-80640700D01*
X147634689Y-80640700D01*
X147767311Y-80640700D01*
X147767313Y-80640700D01*
X147895421Y-80606373D01*
X148010279Y-80540060D01*
X148104060Y-80446279D01*
X148170373Y-80331421D01*
X148204700Y-80203313D01*
X148204700Y-80070687D01*
X148177195Y-79968038D01*
X148177195Y-79968036D01*
X148170670Y-79943687D01*
X150626300Y-79943687D01*
X150626300Y-80076313D01*
X150649184Y-80161718D01*
X150660627Y-80204422D01*
X150726937Y-80319275D01*
X150726945Y-80319285D01*
X150820714Y-80413054D01*
X150820719Y-80413058D01*
X150820721Y-80413060D01*
X150820722Y-80413061D01*
X150820724Y-80413062D01*
X150935577Y-80479372D01*
X150935579Y-80479373D01*
X151063687Y-80513700D01*
X151063689Y-80513700D01*
X151196311Y-80513700D01*
X151196313Y-80513700D01*
X151324421Y-80479373D01*
X151439279Y-80413060D01*
X151533060Y-80319279D01*
X151599373Y-80204421D01*
X151633700Y-80076313D01*
X151633700Y-79943687D01*
X151896300Y-79943687D01*
X151896300Y-80076313D01*
X151919184Y-80161718D01*
X151930627Y-80204422D01*
X151996937Y-80319275D01*
X151996945Y-80319285D01*
X152090714Y-80413054D01*
X152090719Y-80413058D01*
X152090721Y-80413060D01*
X152090722Y-80413061D01*
X152090724Y-80413062D01*
X152205577Y-80479372D01*
X152205579Y-80479373D01*
X152333687Y-80513700D01*
X152333689Y-80513700D01*
X152466311Y-80513700D01*
X152466313Y-80513700D01*
X152594421Y-80479373D01*
X152709279Y-80413060D01*
X152803060Y-80319279D01*
X152869373Y-80204421D01*
X152903700Y-80076313D01*
X152903700Y-79943687D01*
X155706300Y-79943687D01*
X155706300Y-80076313D01*
X155729184Y-80161718D01*
X155740627Y-80204422D01*
X155806937Y-80319275D01*
X155806945Y-80319285D01*
X155900714Y-80413054D01*
X155900719Y-80413058D01*
X155900721Y-80413060D01*
X155900722Y-80413061D01*
X155900724Y-80413062D01*
X156015577Y-80479372D01*
X156015579Y-80479373D01*
X156143687Y-80513700D01*
X156143689Y-80513700D01*
X156276311Y-80513700D01*
X156276313Y-80513700D01*
X156404421Y-80479373D01*
X156519279Y-80413060D01*
X156613060Y-80319279D01*
X156679373Y-80204421D01*
X156713700Y-80076313D01*
X156713700Y-79943687D01*
X156679373Y-79815579D01*
X156622674Y-79717373D01*
X156613062Y-79700724D01*
X156613054Y-79700714D01*
X156519285Y-79606945D01*
X156519275Y-79606937D01*
X156404422Y-79540627D01*
X156361718Y-79529184D01*
X156276313Y-79506300D01*
X156143687Y-79506300D01*
X156079633Y-79523463D01*
X156015577Y-79540627D01*
X155900724Y-79606937D01*
X155900714Y-79606945D01*
X155806945Y-79700714D01*
X155806937Y-79700724D01*
X155740627Y-79815577D01*
X155717742Y-79900984D01*
X155706300Y-79943687D01*
X152903700Y-79943687D01*
X152869373Y-79815579D01*
X152812674Y-79717373D01*
X152803062Y-79700724D01*
X152803054Y-79700714D01*
X152709285Y-79606945D01*
X152709275Y-79606937D01*
X152594422Y-79540627D01*
X152551718Y-79529184D01*
X152466313Y-79506300D01*
X152333687Y-79506300D01*
X152269633Y-79523463D01*
X152205577Y-79540627D01*
X152090724Y-79606937D01*
X152090714Y-79606945D01*
X151996945Y-79700714D01*
X151996937Y-79700724D01*
X151930627Y-79815577D01*
X151907742Y-79900984D01*
X151896300Y-79943687D01*
X151633700Y-79943687D01*
X151599373Y-79815579D01*
X151542674Y-79717373D01*
X151533062Y-79700724D01*
X151533054Y-79700714D01*
X151439285Y-79606945D01*
X151439275Y-79606937D01*
X151324422Y-79540627D01*
X151281718Y-79529184D01*
X151196313Y-79506300D01*
X151063687Y-79506300D01*
X150999633Y-79523463D01*
X150935577Y-79540627D01*
X150820724Y-79606937D01*
X150820714Y-79606945D01*
X150726945Y-79700714D01*
X150726937Y-79700724D01*
X150660627Y-79815577D01*
X150637742Y-79900984D01*
X150626300Y-79943687D01*
X148170670Y-79943687D01*
X148170374Y-79942581D01*
X148104062Y-79827724D01*
X148104054Y-79827714D01*
X148010285Y-79733945D01*
X148010275Y-79733937D01*
X147895422Y-79667627D01*
X147852718Y-79656184D01*
X147767313Y-79633300D01*
X147634687Y-79633300D01*
X147570633Y-79650463D01*
X147506577Y-79667627D01*
X147391724Y-79733937D01*
X147391714Y-79733945D01*
X147297945Y-79827714D01*
X147297937Y-79827724D01*
X147231627Y-79942577D01*
X147208742Y-80027984D01*
X147197300Y-80070687D01*
X142873524Y-80070687D01*
X142873936Y-78806311D01*
X142873979Y-78673687D01*
X150626300Y-78673687D01*
X150626300Y-78806313D01*
X150636652Y-78844945D01*
X150660627Y-78934422D01*
X150726937Y-79049275D01*
X150726945Y-79049285D01*
X150820714Y-79143054D01*
X150820719Y-79143058D01*
X150820721Y-79143060D01*
X150935579Y-79209373D01*
X151063687Y-79243700D01*
X151063689Y-79243700D01*
X151196311Y-79243700D01*
X151196313Y-79243700D01*
X151324421Y-79209373D01*
X151439279Y-79143060D01*
X151533060Y-79049279D01*
X151599373Y-78934421D01*
X151633700Y-78806313D01*
X151633700Y-78673687D01*
X151896300Y-78673687D01*
X151896300Y-78806313D01*
X151906652Y-78844945D01*
X151930627Y-78934422D01*
X151996937Y-79049275D01*
X151996945Y-79049285D01*
X152090714Y-79143054D01*
X152090719Y-79143058D01*
X152090721Y-79143060D01*
X152205579Y-79209373D01*
X152333687Y-79243700D01*
X152333689Y-79243700D01*
X152466311Y-79243700D01*
X152466313Y-79243700D01*
X152594421Y-79209373D01*
X152709279Y-79143060D01*
X152803060Y-79049279D01*
X152869373Y-78934421D01*
X152903700Y-78806313D01*
X152903700Y-78673687D01*
X153166300Y-78673687D01*
X153166300Y-78806313D01*
X153176652Y-78844945D01*
X153200627Y-78934422D01*
X153266937Y-79049275D01*
X153266945Y-79049285D01*
X153360714Y-79143054D01*
X153360719Y-79143058D01*
X153360721Y-79143060D01*
X153475579Y-79209373D01*
X153603687Y-79243700D01*
X153603689Y-79243700D01*
X153736311Y-79243700D01*
X153736313Y-79243700D01*
X153864421Y-79209373D01*
X153979279Y-79143060D01*
X154073060Y-79049279D01*
X154139373Y-78934421D01*
X154173700Y-78806313D01*
X154173700Y-78673687D01*
X154436300Y-78673687D01*
X154436300Y-78806313D01*
X154446652Y-78844945D01*
X154470627Y-78934422D01*
X154536937Y-79049275D01*
X154536945Y-79049285D01*
X154630714Y-79143054D01*
X154630719Y-79143058D01*
X154630721Y-79143060D01*
X154745579Y-79209373D01*
X154873687Y-79243700D01*
X154873689Y-79243700D01*
X155006311Y-79243700D01*
X155006313Y-79243700D01*
X155134421Y-79209373D01*
X155182375Y-79181687D01*
X161548300Y-79181687D01*
X161548300Y-79314313D01*
X161571184Y-79399718D01*
X161582627Y-79442422D01*
X161648937Y-79557275D01*
X161648945Y-79557285D01*
X161742714Y-79651054D01*
X161742719Y-79651058D01*
X161742721Y-79651060D01*
X161742722Y-79651061D01*
X161742724Y-79651062D01*
X161828742Y-79700724D01*
X161857579Y-79717373D01*
X161985687Y-79751700D01*
X161985689Y-79751700D01*
X162118311Y-79751700D01*
X162118313Y-79751700D01*
X162246421Y-79717373D01*
X162361279Y-79651060D01*
X162455060Y-79557279D01*
X162521373Y-79442421D01*
X162555700Y-79314313D01*
X162555700Y-79181687D01*
X162521373Y-79053579D01*
X162518894Y-79049285D01*
X162455062Y-78938724D01*
X162455054Y-78938714D01*
X162361285Y-78844945D01*
X162361275Y-78844937D01*
X162246422Y-78778627D01*
X162203718Y-78767184D01*
X162118313Y-78744300D01*
X161985687Y-78744300D01*
X161921633Y-78761463D01*
X161857577Y-78778627D01*
X161742724Y-78844937D01*
X161742714Y-78844945D01*
X161648945Y-78938714D01*
X161648937Y-78938724D01*
X161582627Y-79053577D01*
X161574386Y-79084333D01*
X161548300Y-79181687D01*
X155182375Y-79181687D01*
X155249279Y-79143060D01*
X155249285Y-79143054D01*
X155308007Y-79084333D01*
X155343054Y-79049285D01*
X155343060Y-79049279D01*
X155409373Y-78934421D01*
X155443700Y-78806313D01*
X155443700Y-78673687D01*
X155409373Y-78545579D01*
X155343060Y-78430721D01*
X155343057Y-78430718D01*
X155343054Y-78430714D01*
X155332027Y-78419687D01*
X155706300Y-78419687D01*
X155706300Y-78552313D01*
X155729184Y-78637718D01*
X155740627Y-78680422D01*
X155806937Y-78795275D01*
X155806945Y-78795285D01*
X155900714Y-78889054D01*
X155900719Y-78889058D01*
X155900721Y-78889060D01*
X155900722Y-78889061D01*
X155900724Y-78889062D01*
X155986742Y-78938724D01*
X156015579Y-78955373D01*
X156143687Y-78989700D01*
X156143689Y-78989700D01*
X156276311Y-78989700D01*
X156276313Y-78989700D01*
X156404421Y-78955373D01*
X156519279Y-78889060D01*
X156613060Y-78795279D01*
X156679373Y-78680421D01*
X156713700Y-78552313D01*
X156713700Y-78419687D01*
X156679373Y-78291579D01*
X156679372Y-78291577D01*
X156613062Y-78176724D01*
X156613054Y-78176714D01*
X156519285Y-78082945D01*
X156519275Y-78082937D01*
X156404422Y-78016627D01*
X156361718Y-78005184D01*
X156276313Y-77982300D01*
X156143687Y-77982300D01*
X156079633Y-77999463D01*
X156015577Y-78016627D01*
X155900724Y-78082937D01*
X155900714Y-78082945D01*
X155806945Y-78176714D01*
X155806937Y-78176724D01*
X155740627Y-78291577D01*
X155728473Y-78336937D01*
X155706300Y-78419687D01*
X155332027Y-78419687D01*
X155249285Y-78336945D01*
X155249275Y-78336937D01*
X155134422Y-78270627D01*
X155091718Y-78259184D01*
X155006313Y-78236300D01*
X154873687Y-78236300D01*
X154809633Y-78253463D01*
X154745577Y-78270627D01*
X154630724Y-78336937D01*
X154630714Y-78336945D01*
X154536945Y-78430714D01*
X154536937Y-78430724D01*
X154470627Y-78545577D01*
X154447742Y-78630984D01*
X154436300Y-78673687D01*
X154173700Y-78673687D01*
X154139373Y-78545579D01*
X154073060Y-78430721D01*
X154073058Y-78430719D01*
X154073054Y-78430714D01*
X153979285Y-78336945D01*
X153979275Y-78336937D01*
X153864422Y-78270627D01*
X153821718Y-78259184D01*
X153736313Y-78236300D01*
X153603687Y-78236300D01*
X153539633Y-78253463D01*
X153475577Y-78270627D01*
X153360724Y-78336937D01*
X153360714Y-78336945D01*
X153266945Y-78430714D01*
X153266937Y-78430724D01*
X153200627Y-78545577D01*
X153177742Y-78630984D01*
X153166300Y-78673687D01*
X152903700Y-78673687D01*
X152869373Y-78545579D01*
X152803060Y-78430721D01*
X152803058Y-78430719D01*
X152803054Y-78430714D01*
X152709285Y-78336945D01*
X152709275Y-78336937D01*
X152594422Y-78270627D01*
X152551718Y-78259184D01*
X152466313Y-78236300D01*
X152333687Y-78236300D01*
X152269633Y-78253463D01*
X152205577Y-78270627D01*
X152090724Y-78336937D01*
X152090714Y-78336945D01*
X151996945Y-78430714D01*
X151996937Y-78430724D01*
X151930627Y-78545577D01*
X151907742Y-78630984D01*
X151896300Y-78673687D01*
X151633700Y-78673687D01*
X151599373Y-78545579D01*
X151533060Y-78430721D01*
X151533058Y-78430719D01*
X151533054Y-78430714D01*
X151439285Y-78336945D01*
X151439275Y-78336937D01*
X151324422Y-78270627D01*
X151281718Y-78259184D01*
X151196313Y-78236300D01*
X151063687Y-78236300D01*
X150999633Y-78253463D01*
X150935577Y-78270627D01*
X150820724Y-78336937D01*
X150820714Y-78336945D01*
X150726945Y-78430714D01*
X150726937Y-78430724D01*
X150660627Y-78545577D01*
X150637742Y-78630984D01*
X150626300Y-78673687D01*
X142873979Y-78673687D01*
X142873982Y-78665387D01*
X142874476Y-77149687D01*
X148467300Y-77149687D01*
X148467300Y-77282313D01*
X148473607Y-77305850D01*
X148501627Y-77410422D01*
X148567937Y-77525275D01*
X148567945Y-77525285D01*
X148661714Y-77619054D01*
X148661719Y-77619058D01*
X148661721Y-77619060D01*
X148661722Y-77619061D01*
X148661724Y-77619062D01*
X148776577Y-77685372D01*
X148776579Y-77685373D01*
X148904687Y-77719700D01*
X148904689Y-77719700D01*
X149037311Y-77719700D01*
X149037313Y-77719700D01*
X149165421Y-77685373D01*
X149280279Y-77619060D01*
X149374060Y-77525279D01*
X149440373Y-77410421D01*
X149442177Y-77403687D01*
X150626300Y-77403687D01*
X150626300Y-77536313D01*
X150632211Y-77558372D01*
X150660627Y-77664422D01*
X150726937Y-77779275D01*
X150726945Y-77779285D01*
X150820714Y-77873054D01*
X150820719Y-77873058D01*
X150820721Y-77873060D01*
X150935579Y-77939373D01*
X151063687Y-77973700D01*
X151063689Y-77973700D01*
X151196311Y-77973700D01*
X151196313Y-77973700D01*
X151324421Y-77939373D01*
X151439279Y-77873060D01*
X151533060Y-77779279D01*
X151599373Y-77664421D01*
X151633700Y-77536313D01*
X151633700Y-77403687D01*
X151896300Y-77403687D01*
X151896300Y-77536313D01*
X151902211Y-77558372D01*
X151930627Y-77664422D01*
X151996937Y-77779275D01*
X151996945Y-77779285D01*
X152090714Y-77873054D01*
X152090719Y-77873058D01*
X152090721Y-77873060D01*
X152205579Y-77939373D01*
X152333687Y-77973700D01*
X152333689Y-77973700D01*
X152466311Y-77973700D01*
X152466313Y-77973700D01*
X152594421Y-77939373D01*
X152709279Y-77873060D01*
X152803060Y-77779279D01*
X152869373Y-77664421D01*
X152903700Y-77536313D01*
X152903700Y-77403687D01*
X153166300Y-77403687D01*
X153166300Y-77536313D01*
X153172211Y-77558372D01*
X153200627Y-77664422D01*
X153266937Y-77779275D01*
X153266945Y-77779285D01*
X153360714Y-77873054D01*
X153360719Y-77873058D01*
X153360721Y-77873060D01*
X153475579Y-77939373D01*
X153603687Y-77973700D01*
X153603689Y-77973700D01*
X153736311Y-77973700D01*
X153736313Y-77973700D01*
X153864421Y-77939373D01*
X153979279Y-77873060D01*
X154073060Y-77779279D01*
X154139373Y-77664421D01*
X154173700Y-77536313D01*
X154173700Y-77403687D01*
X154140956Y-77281487D01*
X157484300Y-77281487D01*
X157484300Y-77414113D01*
X157505185Y-77492054D01*
X157518627Y-77542222D01*
X157584937Y-77657075D01*
X157584945Y-77657085D01*
X157678714Y-77750854D01*
X157678719Y-77750858D01*
X157678721Y-77750860D01*
X157678722Y-77750861D01*
X157678724Y-77750862D01*
X157793577Y-77817172D01*
X157793579Y-77817173D01*
X157921687Y-77851500D01*
X157921689Y-77851500D01*
X158054311Y-77851500D01*
X158054313Y-77851500D01*
X158182421Y-77817173D01*
X158297279Y-77750860D01*
X158391060Y-77657079D01*
X158457373Y-77542221D01*
X158491700Y-77414113D01*
X158491700Y-77281487D01*
X158457373Y-77153379D01*
X158391060Y-77038521D01*
X158391058Y-77038519D01*
X158391054Y-77038514D01*
X158375227Y-77022687D01*
X167009300Y-77022687D01*
X167009300Y-77155313D01*
X167010750Y-77160724D01*
X167043627Y-77283422D01*
X167109937Y-77398275D01*
X167109945Y-77398285D01*
X167203714Y-77492054D01*
X167203719Y-77492058D01*
X167203721Y-77492060D01*
X167203722Y-77492061D01*
X167203724Y-77492062D01*
X167318577Y-77558372D01*
X167318579Y-77558373D01*
X167446687Y-77592700D01*
X167446689Y-77592700D01*
X167579311Y-77592700D01*
X167579313Y-77592700D01*
X167707421Y-77558373D01*
X167822279Y-77492060D01*
X167916060Y-77398279D01*
X167982373Y-77283421D01*
X168016700Y-77155313D01*
X168016700Y-77022687D01*
X167982373Y-76894579D01*
X167916060Y-76779721D01*
X167916058Y-76779719D01*
X167916054Y-76779714D01*
X167822285Y-76685945D01*
X167822275Y-76685937D01*
X167707422Y-76619627D01*
X167664718Y-76608184D01*
X167579313Y-76585300D01*
X167446687Y-76585300D01*
X167382633Y-76602463D01*
X167318577Y-76619627D01*
X167203724Y-76685937D01*
X167203714Y-76685945D01*
X167109945Y-76779714D01*
X167109937Y-76779724D01*
X167043627Y-76894577D01*
X167030187Y-76944737D01*
X167009300Y-77022687D01*
X158375227Y-77022687D01*
X158297285Y-76944745D01*
X158297275Y-76944737D01*
X158182422Y-76878427D01*
X158139718Y-76866984D01*
X158054313Y-76844100D01*
X157921687Y-76844100D01*
X157857633Y-76861263D01*
X157793577Y-76878427D01*
X157678724Y-76944737D01*
X157678714Y-76944745D01*
X157584945Y-77038514D01*
X157584937Y-77038524D01*
X157518627Y-77153377D01*
X157495742Y-77238784D01*
X157484300Y-77281487D01*
X154140956Y-77281487D01*
X154139373Y-77275579D01*
X154073060Y-77160721D01*
X154073058Y-77160719D01*
X154073054Y-77160714D01*
X153979285Y-77066945D01*
X153979275Y-77066937D01*
X153864422Y-77000627D01*
X153821718Y-76989184D01*
X153736313Y-76966300D01*
X153603687Y-76966300D01*
X153539633Y-76983463D01*
X153475577Y-77000627D01*
X153360724Y-77066937D01*
X153360714Y-77066945D01*
X153266945Y-77160714D01*
X153266937Y-77160724D01*
X153200627Y-77275577D01*
X153177742Y-77360984D01*
X153166300Y-77403687D01*
X152903700Y-77403687D01*
X152869373Y-77275579D01*
X152803060Y-77160721D01*
X152803058Y-77160719D01*
X152803054Y-77160714D01*
X152709285Y-77066945D01*
X152709275Y-77066937D01*
X152594422Y-77000627D01*
X152551718Y-76989184D01*
X152466313Y-76966300D01*
X152333687Y-76966300D01*
X152269633Y-76983463D01*
X152205577Y-77000627D01*
X152090724Y-77066937D01*
X152090714Y-77066945D01*
X151996945Y-77160714D01*
X151996937Y-77160724D01*
X151930627Y-77275577D01*
X151907742Y-77360984D01*
X151896300Y-77403687D01*
X151633700Y-77403687D01*
X151599373Y-77275579D01*
X151533060Y-77160721D01*
X151533058Y-77160719D01*
X151533054Y-77160714D01*
X151439285Y-77066945D01*
X151439275Y-77066937D01*
X151324422Y-77000627D01*
X151281718Y-76989184D01*
X151196313Y-76966300D01*
X151063687Y-76966300D01*
X150999633Y-76983463D01*
X150935577Y-77000627D01*
X150820724Y-77066937D01*
X150820714Y-77066945D01*
X150726945Y-77160714D01*
X150726937Y-77160724D01*
X150660627Y-77275577D01*
X150637742Y-77360984D01*
X150626300Y-77403687D01*
X149442177Y-77403687D01*
X149474700Y-77282313D01*
X149474700Y-77149687D01*
X149440373Y-77021579D01*
X149440372Y-77021577D01*
X149374062Y-76906724D01*
X149374054Y-76906714D01*
X149280285Y-76812945D01*
X149280275Y-76812937D01*
X149165422Y-76746627D01*
X149122718Y-76735184D01*
X149037313Y-76712300D01*
X148904687Y-76712300D01*
X148840633Y-76729463D01*
X148776577Y-76746627D01*
X148661724Y-76812937D01*
X148661714Y-76812945D01*
X148567945Y-76906714D01*
X148567937Y-76906724D01*
X148501627Y-77021577D01*
X148489473Y-77066937D01*
X148467300Y-77149687D01*
X142874476Y-77149687D01*
X142874479Y-77141387D01*
X142874807Y-76133687D01*
X147324300Y-76133687D01*
X147324300Y-76266313D01*
X147347184Y-76351718D01*
X147358627Y-76394422D01*
X147424937Y-76509275D01*
X147424945Y-76509285D01*
X147518714Y-76603054D01*
X147518719Y-76603058D01*
X147518721Y-76603060D01*
X147633579Y-76669373D01*
X147761687Y-76703700D01*
X147761689Y-76703700D01*
X147894311Y-76703700D01*
X147894313Y-76703700D01*
X148022421Y-76669373D01*
X148137279Y-76603060D01*
X148231060Y-76509279D01*
X148297373Y-76394421D01*
X148331700Y-76266313D01*
X148331700Y-76133687D01*
X150626300Y-76133687D01*
X150626300Y-76266313D01*
X150649184Y-76351718D01*
X150660627Y-76394422D01*
X150726937Y-76509275D01*
X150726945Y-76509285D01*
X150820714Y-76603054D01*
X150820719Y-76603058D01*
X150820721Y-76603060D01*
X150935579Y-76669373D01*
X151063687Y-76703700D01*
X151063689Y-76703700D01*
X151196311Y-76703700D01*
X151196313Y-76703700D01*
X151324421Y-76669373D01*
X151439279Y-76603060D01*
X151533060Y-76509279D01*
X151599373Y-76394421D01*
X151633700Y-76266313D01*
X151633700Y-76133687D01*
X151896300Y-76133687D01*
X151896300Y-76266313D01*
X151919184Y-76351718D01*
X151930627Y-76394422D01*
X151996937Y-76509275D01*
X151996945Y-76509285D01*
X152090714Y-76603054D01*
X152090719Y-76603058D01*
X152090721Y-76603060D01*
X152205579Y-76669373D01*
X152333687Y-76703700D01*
X152333689Y-76703700D01*
X152466311Y-76703700D01*
X152466313Y-76703700D01*
X152594421Y-76669373D01*
X152709279Y-76603060D01*
X152803060Y-76509279D01*
X152869373Y-76394421D01*
X152903700Y-76266313D01*
X152903700Y-76133687D01*
X155706300Y-76133687D01*
X155706300Y-76266313D01*
X155729184Y-76351718D01*
X155740627Y-76394422D01*
X155806937Y-76509275D01*
X155806945Y-76509285D01*
X155900714Y-76603054D01*
X155900719Y-76603058D01*
X155900721Y-76603060D01*
X156015579Y-76669373D01*
X156143687Y-76703700D01*
X156143689Y-76703700D01*
X156276311Y-76703700D01*
X156276313Y-76703700D01*
X156404421Y-76669373D01*
X156519279Y-76603060D01*
X156613060Y-76509279D01*
X156679373Y-76394421D01*
X156713700Y-76266313D01*
X156713700Y-76133687D01*
X156679373Y-76005579D01*
X156613060Y-75890721D01*
X156613058Y-75890719D01*
X156613054Y-75890714D01*
X156519285Y-75796945D01*
X156519275Y-75796937D01*
X156404422Y-75730627D01*
X156361718Y-75719184D01*
X156276313Y-75696300D01*
X156143687Y-75696300D01*
X156079633Y-75713463D01*
X156015577Y-75730627D01*
X155900724Y-75796937D01*
X155900714Y-75796945D01*
X155806945Y-75890714D01*
X155806937Y-75890724D01*
X155740627Y-76005577D01*
X155717742Y-76090984D01*
X155706300Y-76133687D01*
X152903700Y-76133687D01*
X152869373Y-76005579D01*
X152803060Y-75890721D01*
X152803058Y-75890719D01*
X152803054Y-75890714D01*
X152709285Y-75796945D01*
X152709275Y-75796937D01*
X152594422Y-75730627D01*
X152551718Y-75719184D01*
X152466313Y-75696300D01*
X152333687Y-75696300D01*
X152269633Y-75713463D01*
X152205577Y-75730627D01*
X152090724Y-75796937D01*
X152090714Y-75796945D01*
X151996945Y-75890714D01*
X151996937Y-75890724D01*
X151930627Y-76005577D01*
X151907742Y-76090984D01*
X151896300Y-76133687D01*
X151633700Y-76133687D01*
X151599373Y-76005579D01*
X151533060Y-75890721D01*
X151533058Y-75890719D01*
X151533054Y-75890714D01*
X151439285Y-75796945D01*
X151439275Y-75796937D01*
X151324422Y-75730627D01*
X151281718Y-75719184D01*
X151196313Y-75696300D01*
X151063687Y-75696300D01*
X150999633Y-75713463D01*
X150935577Y-75730627D01*
X150820724Y-75796937D01*
X150820714Y-75796945D01*
X150726945Y-75890714D01*
X150726937Y-75890724D01*
X150660627Y-76005577D01*
X150637742Y-76090984D01*
X150626300Y-76133687D01*
X148331700Y-76133687D01*
X148297373Y-76005579D01*
X148231060Y-75890721D01*
X148231058Y-75890719D01*
X148231054Y-75890714D01*
X148137285Y-75796945D01*
X148137275Y-75796937D01*
X148022422Y-75730627D01*
X147979718Y-75719184D01*
X147894313Y-75696300D01*
X147761687Y-75696300D01*
X147697633Y-75713463D01*
X147633577Y-75730627D01*
X147518724Y-75796937D01*
X147518714Y-75796945D01*
X147424945Y-75890714D01*
X147424937Y-75890724D01*
X147358627Y-76005577D01*
X147335742Y-76090984D01*
X147324300Y-76133687D01*
X142874807Y-76133687D01*
X142874810Y-76125387D01*
X142875221Y-74863687D01*
X147324300Y-74863687D01*
X147324300Y-74996313D01*
X147345144Y-75074101D01*
X147358627Y-75124422D01*
X147424937Y-75239275D01*
X147424945Y-75239285D01*
X147518714Y-75333054D01*
X147518719Y-75333058D01*
X147518721Y-75333060D01*
X147633579Y-75399373D01*
X147761687Y-75433700D01*
X147761689Y-75433700D01*
X147894311Y-75433700D01*
X147894313Y-75433700D01*
X148022421Y-75399373D01*
X148137279Y-75333060D01*
X148231060Y-75239279D01*
X148290381Y-75136530D01*
X148341763Y-75087538D01*
X148411476Y-75074101D01*
X148477387Y-75100488D01*
X148508617Y-75136529D01*
X148567940Y-75239279D01*
X148567942Y-75239281D01*
X148567945Y-75239285D01*
X148661714Y-75333054D01*
X148661719Y-75333058D01*
X148661721Y-75333060D01*
X148776579Y-75399373D01*
X148904687Y-75433700D01*
X148904689Y-75433700D01*
X149037311Y-75433700D01*
X149037313Y-75433700D01*
X149165421Y-75399373D01*
X149280279Y-75333060D01*
X149374060Y-75239279D01*
X149440373Y-75124421D01*
X149474700Y-74996313D01*
X149474700Y-74863687D01*
X150626300Y-74863687D01*
X150626300Y-74996313D01*
X150647144Y-75074101D01*
X150660627Y-75124422D01*
X150726937Y-75239275D01*
X150726945Y-75239285D01*
X150820714Y-75333054D01*
X150820719Y-75333058D01*
X150820721Y-75333060D01*
X150935579Y-75399373D01*
X151063687Y-75433700D01*
X151063689Y-75433700D01*
X151196311Y-75433700D01*
X151196313Y-75433700D01*
X151324421Y-75399373D01*
X151439279Y-75333060D01*
X151533060Y-75239279D01*
X151599373Y-75124421D01*
X151633700Y-74996313D01*
X151633700Y-74863687D01*
X154436300Y-74863687D01*
X154436300Y-74996313D01*
X154457144Y-75074101D01*
X154470627Y-75124422D01*
X154536937Y-75239275D01*
X154536945Y-75239285D01*
X154630714Y-75333054D01*
X154630719Y-75333058D01*
X154630721Y-75333060D01*
X154745579Y-75399373D01*
X154873687Y-75433700D01*
X154873689Y-75433700D01*
X155006311Y-75433700D01*
X155006313Y-75433700D01*
X155134421Y-75399373D01*
X155249279Y-75333060D01*
X155343060Y-75239279D01*
X155409373Y-75124421D01*
X155443700Y-74996313D01*
X155443700Y-74863687D01*
X155706300Y-74863687D01*
X155706300Y-74996313D01*
X155727144Y-75074101D01*
X155740627Y-75124422D01*
X155806937Y-75239275D01*
X155806945Y-75239285D01*
X155900714Y-75333054D01*
X155900719Y-75333058D01*
X155900721Y-75333060D01*
X156015579Y-75399373D01*
X156143687Y-75433700D01*
X156143689Y-75433700D01*
X156276311Y-75433700D01*
X156276313Y-75433700D01*
X156404421Y-75399373D01*
X156519279Y-75333060D01*
X156613060Y-75239279D01*
X156679373Y-75124421D01*
X156713700Y-74996313D01*
X156713700Y-74863687D01*
X156679373Y-74735579D01*
X156613060Y-74620721D01*
X156613058Y-74620719D01*
X156613054Y-74620714D01*
X156519285Y-74526945D01*
X156519275Y-74526937D01*
X156404422Y-74460627D01*
X156361718Y-74449184D01*
X156276313Y-74426300D01*
X156143687Y-74426300D01*
X156079633Y-74443463D01*
X156015577Y-74460627D01*
X155900724Y-74526937D01*
X155900714Y-74526945D01*
X155806945Y-74620714D01*
X155806937Y-74620724D01*
X155740627Y-74735577D01*
X155734214Y-74759511D01*
X155706300Y-74863687D01*
X155443700Y-74863687D01*
X155409373Y-74735579D01*
X155343060Y-74620721D01*
X155343058Y-74620719D01*
X155343054Y-74620714D01*
X155249285Y-74526945D01*
X155249275Y-74526937D01*
X155134422Y-74460627D01*
X155091718Y-74449184D01*
X155006313Y-74426300D01*
X154873687Y-74426300D01*
X154809633Y-74443463D01*
X154745577Y-74460627D01*
X154630724Y-74526937D01*
X154630714Y-74526945D01*
X154536945Y-74620714D01*
X154536937Y-74620724D01*
X154470627Y-74735577D01*
X154464214Y-74759511D01*
X154436300Y-74863687D01*
X151633700Y-74863687D01*
X151599373Y-74735579D01*
X151533060Y-74620721D01*
X151533058Y-74620719D01*
X151533054Y-74620714D01*
X151439285Y-74526945D01*
X151439275Y-74526937D01*
X151324422Y-74460627D01*
X151281718Y-74449184D01*
X151196313Y-74426300D01*
X151063687Y-74426300D01*
X150999633Y-74443463D01*
X150935577Y-74460627D01*
X150820724Y-74526937D01*
X150820714Y-74526945D01*
X150726945Y-74620714D01*
X150726937Y-74620724D01*
X150660627Y-74735577D01*
X150654214Y-74759511D01*
X150626300Y-74863687D01*
X149474700Y-74863687D01*
X149440373Y-74735579D01*
X149374060Y-74620721D01*
X149374058Y-74620719D01*
X149374054Y-74620714D01*
X149280285Y-74526945D01*
X149280275Y-74526937D01*
X149165422Y-74460627D01*
X149122718Y-74449184D01*
X149037313Y-74426300D01*
X148904687Y-74426300D01*
X148840633Y-74443463D01*
X148776577Y-74460627D01*
X148661724Y-74526937D01*
X148661714Y-74526945D01*
X148567945Y-74620714D01*
X148567937Y-74620724D01*
X148508619Y-74723468D01*
X148457237Y-74772461D01*
X148387523Y-74785897D01*
X148321612Y-74759511D01*
X148290381Y-74723468D01*
X148231062Y-74620724D01*
X148231054Y-74620714D01*
X148137285Y-74526945D01*
X148137275Y-74526937D01*
X148022422Y-74460627D01*
X147979718Y-74449184D01*
X147894313Y-74426300D01*
X147761687Y-74426300D01*
X147697633Y-74443463D01*
X147633577Y-74460627D01*
X147518724Y-74526937D01*
X147518714Y-74526945D01*
X147424945Y-74620714D01*
X147424937Y-74620724D01*
X147358627Y-74735577D01*
X147352214Y-74759511D01*
X147324300Y-74863687D01*
X142875221Y-74863687D01*
X142875224Y-74855387D01*
X142875966Y-72577687D01*
X151896300Y-72577687D01*
X151896300Y-72710313D01*
X151919184Y-72795718D01*
X151930627Y-72838422D01*
X151996937Y-72953275D01*
X151996945Y-72953285D01*
X152090714Y-73047054D01*
X152090719Y-73047058D01*
X152090721Y-73047060D01*
X152205579Y-73113373D01*
X152333687Y-73147700D01*
X152333689Y-73147700D01*
X152466311Y-73147700D01*
X152466313Y-73147700D01*
X152594421Y-73113373D01*
X152709279Y-73047060D01*
X152803060Y-72953279D01*
X152869373Y-72838421D01*
X152903700Y-72710313D01*
X152903700Y-72577687D01*
X153674300Y-72577687D01*
X153674300Y-72710313D01*
X153697184Y-72795718D01*
X153708627Y-72838422D01*
X153774937Y-72953275D01*
X153774945Y-72953285D01*
X153868714Y-73047054D01*
X153868719Y-73047058D01*
X153868721Y-73047060D01*
X153983579Y-73113373D01*
X154111687Y-73147700D01*
X154111689Y-73147700D01*
X154244311Y-73147700D01*
X154244313Y-73147700D01*
X154372421Y-73113373D01*
X154487279Y-73047060D01*
X154581060Y-72953279D01*
X154647373Y-72838421D01*
X154681700Y-72710313D01*
X154681700Y-72577687D01*
X156214300Y-72577687D01*
X156214300Y-72710313D01*
X156237184Y-72795718D01*
X156248627Y-72838422D01*
X156314937Y-72953275D01*
X156314945Y-72953285D01*
X156408714Y-73047054D01*
X156408719Y-73047058D01*
X156408721Y-73047060D01*
X156523579Y-73113373D01*
X156651687Y-73147700D01*
X156651689Y-73147700D01*
X156784311Y-73147700D01*
X156784313Y-73147700D01*
X156912421Y-73113373D01*
X157027279Y-73047060D01*
X157121060Y-72953279D01*
X157187373Y-72838421D01*
X157221700Y-72710313D01*
X157221700Y-72577687D01*
X158754300Y-72577687D01*
X158754300Y-72710313D01*
X158777184Y-72795718D01*
X158788627Y-72838422D01*
X158854937Y-72953275D01*
X158854945Y-72953285D01*
X158948714Y-73047054D01*
X158948719Y-73047058D01*
X158948721Y-73047060D01*
X159063579Y-73113373D01*
X159191687Y-73147700D01*
X159191689Y-73147700D01*
X159324311Y-73147700D01*
X159324313Y-73147700D01*
X159452421Y-73113373D01*
X159567279Y-73047060D01*
X159661060Y-72953279D01*
X159727373Y-72838421D01*
X159761700Y-72710313D01*
X159761700Y-72577687D01*
X159727373Y-72449579D01*
X159661060Y-72334721D01*
X159661058Y-72334719D01*
X159661054Y-72334714D01*
X159567285Y-72240945D01*
X159567275Y-72240937D01*
X159452422Y-72174627D01*
X159409718Y-72163184D01*
X159324313Y-72140300D01*
X159191687Y-72140300D01*
X159127633Y-72157463D01*
X159063577Y-72174627D01*
X158948724Y-72240937D01*
X158948714Y-72240945D01*
X158854945Y-72334714D01*
X158854937Y-72334724D01*
X158788627Y-72449577D01*
X158765742Y-72534984D01*
X158754300Y-72577687D01*
X157221700Y-72577687D01*
X157187373Y-72449579D01*
X157121060Y-72334721D01*
X157121058Y-72334719D01*
X157121054Y-72334714D01*
X157027285Y-72240945D01*
X157027275Y-72240937D01*
X156912422Y-72174627D01*
X156869718Y-72163184D01*
X156784313Y-72140300D01*
X156651687Y-72140300D01*
X156587633Y-72157463D01*
X156523577Y-72174627D01*
X156408724Y-72240937D01*
X156408714Y-72240945D01*
X156314945Y-72334714D01*
X156314937Y-72334724D01*
X156248627Y-72449577D01*
X156225742Y-72534984D01*
X156214300Y-72577687D01*
X154681700Y-72577687D01*
X154647373Y-72449579D01*
X154581060Y-72334721D01*
X154581058Y-72334719D01*
X154581054Y-72334714D01*
X154487285Y-72240945D01*
X154487275Y-72240937D01*
X154372422Y-72174627D01*
X154329718Y-72163184D01*
X154244313Y-72140300D01*
X154111687Y-72140300D01*
X154047633Y-72157463D01*
X153983577Y-72174627D01*
X153868724Y-72240937D01*
X153868714Y-72240945D01*
X153774945Y-72334714D01*
X153774937Y-72334724D01*
X153708627Y-72449577D01*
X153685742Y-72534984D01*
X153674300Y-72577687D01*
X152903700Y-72577687D01*
X152869373Y-72449579D01*
X152803060Y-72334721D01*
X152803058Y-72334719D01*
X152803054Y-72334714D01*
X152709285Y-72240945D01*
X152709275Y-72240937D01*
X152594422Y-72174627D01*
X152551718Y-72163184D01*
X152466313Y-72140300D01*
X152333687Y-72140300D01*
X152269633Y-72157463D01*
X152205577Y-72174627D01*
X152090724Y-72240937D01*
X152090714Y-72240945D01*
X151996945Y-72334714D01*
X151996937Y-72334724D01*
X151930627Y-72449577D01*
X151907742Y-72534984D01*
X151896300Y-72577687D01*
X142875966Y-72577687D01*
X142875969Y-72569387D01*
X142876008Y-72449577D01*
X142876380Y-71307687D01*
X145038300Y-71307687D01*
X145038300Y-71440313D01*
X145061184Y-71525718D01*
X145072627Y-71568422D01*
X145138937Y-71683275D01*
X145138945Y-71683285D01*
X145232714Y-71777054D01*
X145232719Y-71777058D01*
X145232721Y-71777060D01*
X145347579Y-71843373D01*
X145475687Y-71877700D01*
X145475689Y-71877700D01*
X145608311Y-71877700D01*
X145608313Y-71877700D01*
X145736421Y-71843373D01*
X145851279Y-71777060D01*
X145945060Y-71683279D01*
X146011373Y-71568421D01*
X146045700Y-71440313D01*
X146045700Y-71307687D01*
X150118300Y-71307687D01*
X150118300Y-71440313D01*
X150141184Y-71525718D01*
X150152627Y-71568422D01*
X150218937Y-71683275D01*
X150218945Y-71683285D01*
X150312714Y-71777054D01*
X150312719Y-71777058D01*
X150312721Y-71777060D01*
X150427579Y-71843373D01*
X150555687Y-71877700D01*
X150555689Y-71877700D01*
X150688311Y-71877700D01*
X150688313Y-71877700D01*
X150816421Y-71843373D01*
X150931279Y-71777060D01*
X151025060Y-71683279D01*
X151091373Y-71568421D01*
X151125700Y-71440313D01*
X151125700Y-71307687D01*
X153674300Y-71307687D01*
X153674300Y-71440313D01*
X153697184Y-71525718D01*
X153708627Y-71568422D01*
X153774937Y-71683275D01*
X153774945Y-71683285D01*
X153868714Y-71777054D01*
X153868719Y-71777058D01*
X153868721Y-71777060D01*
X153983579Y-71843373D01*
X154111687Y-71877700D01*
X154111689Y-71877700D01*
X154244311Y-71877700D01*
X154244313Y-71877700D01*
X154372421Y-71843373D01*
X154487279Y-71777060D01*
X154581060Y-71683279D01*
X154647373Y-71568421D01*
X154681700Y-71440313D01*
X154681700Y-71307687D01*
X156214300Y-71307687D01*
X156214300Y-71440313D01*
X156237184Y-71525718D01*
X156248627Y-71568422D01*
X156314937Y-71683275D01*
X156314945Y-71683285D01*
X156408714Y-71777054D01*
X156408719Y-71777058D01*
X156408721Y-71777060D01*
X156523579Y-71843373D01*
X156651687Y-71877700D01*
X156651689Y-71877700D01*
X156784311Y-71877700D01*
X156784313Y-71877700D01*
X156912421Y-71843373D01*
X157027279Y-71777060D01*
X157121060Y-71683279D01*
X157187373Y-71568421D01*
X157221700Y-71440313D01*
X157221700Y-71307687D01*
X158754300Y-71307687D01*
X158754300Y-71440313D01*
X158777184Y-71525718D01*
X158788627Y-71568422D01*
X158854937Y-71683275D01*
X158854945Y-71683285D01*
X158948714Y-71777054D01*
X158948719Y-71777058D01*
X158948721Y-71777060D01*
X159063579Y-71843373D01*
X159191687Y-71877700D01*
X159191689Y-71877700D01*
X159324311Y-71877700D01*
X159324313Y-71877700D01*
X159452421Y-71843373D01*
X159567279Y-71777060D01*
X159661060Y-71683279D01*
X159727373Y-71568421D01*
X159761700Y-71440313D01*
X159761700Y-71307687D01*
X159727373Y-71179579D01*
X159661060Y-71064721D01*
X159661058Y-71064719D01*
X159661054Y-71064714D01*
X159567285Y-70970945D01*
X159567275Y-70970937D01*
X159452422Y-70904627D01*
X159409718Y-70893184D01*
X159324313Y-70870300D01*
X159191687Y-70870300D01*
X159127633Y-70887463D01*
X159063577Y-70904627D01*
X158948724Y-70970937D01*
X158948714Y-70970945D01*
X158854945Y-71064714D01*
X158854937Y-71064724D01*
X158788627Y-71179577D01*
X158765742Y-71264984D01*
X158754300Y-71307687D01*
X157221700Y-71307687D01*
X157187373Y-71179579D01*
X157121060Y-71064721D01*
X157121058Y-71064719D01*
X157121054Y-71064714D01*
X157027285Y-70970945D01*
X157027275Y-70970937D01*
X156912422Y-70904627D01*
X156869718Y-70893184D01*
X156784313Y-70870300D01*
X156651687Y-70870300D01*
X156587633Y-70887463D01*
X156523577Y-70904627D01*
X156408724Y-70970937D01*
X156408714Y-70970945D01*
X156314945Y-71064714D01*
X156314937Y-71064724D01*
X156248627Y-71179577D01*
X156225742Y-71264984D01*
X156214300Y-71307687D01*
X154681700Y-71307687D01*
X154647373Y-71179579D01*
X154581060Y-71064721D01*
X154581058Y-71064719D01*
X154581054Y-71064714D01*
X154487285Y-70970945D01*
X154487275Y-70970937D01*
X154372422Y-70904627D01*
X154329718Y-70893184D01*
X154244313Y-70870300D01*
X154111687Y-70870300D01*
X154047633Y-70887463D01*
X153983577Y-70904627D01*
X153868724Y-70970937D01*
X153868714Y-70970945D01*
X153774945Y-71064714D01*
X153774937Y-71064724D01*
X153708627Y-71179577D01*
X153685742Y-71264984D01*
X153674300Y-71307687D01*
X151125700Y-71307687D01*
X151091373Y-71179579D01*
X151025060Y-71064721D01*
X151025058Y-71064719D01*
X151025054Y-71064714D01*
X150931285Y-70970945D01*
X150931275Y-70970937D01*
X150816422Y-70904627D01*
X150773718Y-70893184D01*
X150688313Y-70870300D01*
X150555687Y-70870300D01*
X150491633Y-70887463D01*
X150427577Y-70904627D01*
X150312724Y-70970937D01*
X150312714Y-70970945D01*
X150218945Y-71064714D01*
X150218937Y-71064724D01*
X150152627Y-71179577D01*
X150129742Y-71264984D01*
X150118300Y-71307687D01*
X146045700Y-71307687D01*
X146011373Y-71179579D01*
X145945060Y-71064721D01*
X145945058Y-71064719D01*
X145945054Y-71064714D01*
X145851285Y-70970945D01*
X145851275Y-70970937D01*
X145736422Y-70904627D01*
X145693718Y-70893184D01*
X145608313Y-70870300D01*
X145475687Y-70870300D01*
X145411633Y-70887463D01*
X145347577Y-70904627D01*
X145232724Y-70970937D01*
X145232714Y-70970945D01*
X145138945Y-71064714D01*
X145138937Y-71064724D01*
X145072627Y-71179577D01*
X145049742Y-71264984D01*
X145038300Y-71307687D01*
X142876380Y-71307687D01*
X142876794Y-70037687D01*
X145038300Y-70037687D01*
X145038300Y-70170313D01*
X145039750Y-70175724D01*
X145072627Y-70298422D01*
X145138937Y-70413275D01*
X145138945Y-70413285D01*
X145232714Y-70507054D01*
X145232719Y-70507058D01*
X145232721Y-70507060D01*
X145232722Y-70507061D01*
X145232724Y-70507062D01*
X145347577Y-70573372D01*
X145347579Y-70573373D01*
X145475687Y-70607700D01*
X145475689Y-70607700D01*
X145608311Y-70607700D01*
X145608313Y-70607700D01*
X145736421Y-70573373D01*
X145851279Y-70507060D01*
X145945060Y-70413279D01*
X146011373Y-70298421D01*
X146045700Y-70170313D01*
X146045700Y-70037687D01*
X150118300Y-70037687D01*
X150118300Y-70170313D01*
X150119750Y-70175724D01*
X150152627Y-70298422D01*
X150218937Y-70413275D01*
X150218945Y-70413285D01*
X150312714Y-70507054D01*
X150312719Y-70507058D01*
X150312721Y-70507060D01*
X150312722Y-70507061D01*
X150312724Y-70507062D01*
X150427577Y-70573372D01*
X150427579Y-70573373D01*
X150555687Y-70607700D01*
X150555689Y-70607700D01*
X150688311Y-70607700D01*
X150688313Y-70607700D01*
X150816421Y-70573373D01*
X150931279Y-70507060D01*
X151025060Y-70413279D01*
X151091373Y-70298421D01*
X151125700Y-70170313D01*
X151125700Y-70037687D01*
X151896300Y-70037687D01*
X151896300Y-70170313D01*
X151897750Y-70175724D01*
X151930627Y-70298422D01*
X151996937Y-70413275D01*
X151996945Y-70413285D01*
X152090714Y-70507054D01*
X152090719Y-70507058D01*
X152090721Y-70507060D01*
X152090722Y-70507061D01*
X152090724Y-70507062D01*
X152205577Y-70573372D01*
X152205579Y-70573373D01*
X152333687Y-70607700D01*
X152333689Y-70607700D01*
X152466311Y-70607700D01*
X152466313Y-70607700D01*
X152594421Y-70573373D01*
X152709279Y-70507060D01*
X152803060Y-70413279D01*
X152869373Y-70298421D01*
X152903700Y-70170313D01*
X152903700Y-70037687D01*
X153674300Y-70037687D01*
X153674300Y-70170313D01*
X153675750Y-70175724D01*
X153708627Y-70298422D01*
X153774937Y-70413275D01*
X153774945Y-70413285D01*
X153868714Y-70507054D01*
X153868719Y-70507058D01*
X153868721Y-70507060D01*
X153868722Y-70507061D01*
X153868724Y-70507062D01*
X153983577Y-70573372D01*
X153983579Y-70573373D01*
X154111687Y-70607700D01*
X154111689Y-70607700D01*
X154244311Y-70607700D01*
X154244313Y-70607700D01*
X154372421Y-70573373D01*
X154487279Y-70507060D01*
X154581060Y-70413279D01*
X154647373Y-70298421D01*
X154681700Y-70170313D01*
X154681700Y-70037687D01*
X156214300Y-70037687D01*
X156214300Y-70170313D01*
X156215750Y-70175724D01*
X156248627Y-70298422D01*
X156314937Y-70413275D01*
X156314945Y-70413285D01*
X156408714Y-70507054D01*
X156408719Y-70507058D01*
X156408721Y-70507060D01*
X156408722Y-70507061D01*
X156408724Y-70507062D01*
X156523577Y-70573372D01*
X156523579Y-70573373D01*
X156651687Y-70607700D01*
X156651689Y-70607700D01*
X156784311Y-70607700D01*
X156784313Y-70607700D01*
X156912421Y-70573373D01*
X157027279Y-70507060D01*
X157121060Y-70413279D01*
X157187373Y-70298421D01*
X157221700Y-70170313D01*
X157221700Y-70037687D01*
X158754300Y-70037687D01*
X158754300Y-70170313D01*
X158755750Y-70175724D01*
X158788627Y-70298422D01*
X158854937Y-70413275D01*
X158854945Y-70413285D01*
X158948714Y-70507054D01*
X158948719Y-70507058D01*
X158948721Y-70507060D01*
X158948722Y-70507061D01*
X158948724Y-70507062D01*
X159063577Y-70573372D01*
X159063579Y-70573373D01*
X159191687Y-70607700D01*
X159191689Y-70607700D01*
X159324311Y-70607700D01*
X159324313Y-70607700D01*
X159452421Y-70573373D01*
X159567279Y-70507060D01*
X159655652Y-70418687D01*
X162417800Y-70418687D01*
X162417800Y-70551313D01*
X162423711Y-70573372D01*
X162452127Y-70679422D01*
X162518437Y-70794275D01*
X162518445Y-70794285D01*
X162612214Y-70888054D01*
X162612219Y-70888058D01*
X162612221Y-70888060D01*
X162727079Y-70954373D01*
X162855187Y-70988700D01*
X162855189Y-70988700D01*
X162987811Y-70988700D01*
X162987813Y-70988700D01*
X163115921Y-70954373D01*
X163230779Y-70888060D01*
X163324560Y-70794279D01*
X163390873Y-70679421D01*
X163425200Y-70551313D01*
X163425200Y-70418687D01*
X163390873Y-70290579D01*
X163324560Y-70175721D01*
X163324558Y-70175719D01*
X163324554Y-70175714D01*
X163230785Y-70081945D01*
X163230775Y-70081937D01*
X163115922Y-70015627D01*
X163073218Y-70004184D01*
X162987813Y-69981300D01*
X162855187Y-69981300D01*
X162791133Y-69998463D01*
X162727077Y-70015627D01*
X162612224Y-70081937D01*
X162612214Y-70081945D01*
X162518445Y-70175714D01*
X162518437Y-70175724D01*
X162452127Y-70290577D01*
X162450025Y-70298422D01*
X162417800Y-70418687D01*
X159655652Y-70418687D01*
X159661060Y-70413279D01*
X159727373Y-70298421D01*
X159761700Y-70170313D01*
X159761700Y-70037687D01*
X159727373Y-69909579D01*
X159705713Y-69872062D01*
X159661062Y-69794724D01*
X159661054Y-69794714D01*
X159567285Y-69700945D01*
X159567275Y-69700937D01*
X159452422Y-69634627D01*
X159409718Y-69623184D01*
X159324313Y-69600300D01*
X159191687Y-69600300D01*
X159127633Y-69617463D01*
X159063577Y-69634627D01*
X158948724Y-69700937D01*
X158948714Y-69700945D01*
X158854945Y-69794714D01*
X158854937Y-69794724D01*
X158788627Y-69909577D01*
X158769409Y-69981300D01*
X158754300Y-70037687D01*
X157221700Y-70037687D01*
X157187373Y-69909579D01*
X157165713Y-69872062D01*
X157121062Y-69794724D01*
X157121054Y-69794714D01*
X157027285Y-69700945D01*
X157027275Y-69700937D01*
X156912422Y-69634627D01*
X156869718Y-69623184D01*
X156784313Y-69600300D01*
X156651687Y-69600300D01*
X156587633Y-69617463D01*
X156523577Y-69634627D01*
X156408724Y-69700937D01*
X156408714Y-69700945D01*
X156314945Y-69794714D01*
X156314937Y-69794724D01*
X156248627Y-69909577D01*
X156229409Y-69981300D01*
X156214300Y-70037687D01*
X154681700Y-70037687D01*
X154647373Y-69909579D01*
X154625713Y-69872062D01*
X154581062Y-69794724D01*
X154581054Y-69794714D01*
X154487285Y-69700945D01*
X154487275Y-69700937D01*
X154372422Y-69634627D01*
X154329718Y-69623184D01*
X154244313Y-69600300D01*
X154111687Y-69600300D01*
X154047633Y-69617463D01*
X153983577Y-69634627D01*
X153868724Y-69700937D01*
X153868714Y-69700945D01*
X153774945Y-69794714D01*
X153774937Y-69794724D01*
X153708627Y-69909577D01*
X153689409Y-69981300D01*
X153674300Y-70037687D01*
X152903700Y-70037687D01*
X152869373Y-69909579D01*
X152847713Y-69872062D01*
X152803062Y-69794724D01*
X152803054Y-69794714D01*
X152709285Y-69700945D01*
X152709275Y-69700937D01*
X152594422Y-69634627D01*
X152551718Y-69623184D01*
X152466313Y-69600300D01*
X152333687Y-69600300D01*
X152269633Y-69617463D01*
X152205577Y-69634627D01*
X152090724Y-69700937D01*
X152090714Y-69700945D01*
X151996945Y-69794714D01*
X151996937Y-69794724D01*
X151930627Y-69909577D01*
X151911409Y-69981300D01*
X151896300Y-70037687D01*
X151125700Y-70037687D01*
X151091373Y-69909579D01*
X151069713Y-69872062D01*
X151025062Y-69794724D01*
X151025054Y-69794714D01*
X150931285Y-69700945D01*
X150931275Y-69700937D01*
X150816422Y-69634627D01*
X150773718Y-69623184D01*
X150688313Y-69600300D01*
X150555687Y-69600300D01*
X150491633Y-69617463D01*
X150427577Y-69634627D01*
X150312724Y-69700937D01*
X150312714Y-69700945D01*
X150218945Y-69794714D01*
X150218937Y-69794724D01*
X150152627Y-69909577D01*
X150133409Y-69981300D01*
X150118300Y-70037687D01*
X146045700Y-70037687D01*
X146011373Y-69909579D01*
X145989713Y-69872062D01*
X145945062Y-69794724D01*
X145945054Y-69794714D01*
X145851285Y-69700945D01*
X145851275Y-69700937D01*
X145736422Y-69634627D01*
X145693718Y-69623184D01*
X145608313Y-69600300D01*
X145475687Y-69600300D01*
X145411633Y-69617463D01*
X145347577Y-69634627D01*
X145232724Y-69700937D01*
X145232714Y-69700945D01*
X145138945Y-69794714D01*
X145138937Y-69794724D01*
X145072627Y-69909577D01*
X145053409Y-69981300D01*
X145038300Y-70037687D01*
X142876794Y-70037687D01*
X142877001Y-69402687D01*
X143514300Y-69402687D01*
X143514300Y-69535313D01*
X143531714Y-69600300D01*
X143548627Y-69663422D01*
X143614937Y-69778275D01*
X143614945Y-69778285D01*
X143708714Y-69872054D01*
X143708719Y-69872058D01*
X143708721Y-69872060D01*
X143708722Y-69872061D01*
X143708724Y-69872062D01*
X143792289Y-69920308D01*
X143823579Y-69938373D01*
X143951687Y-69972700D01*
X143951689Y-69972700D01*
X144084311Y-69972700D01*
X144084313Y-69972700D01*
X144212421Y-69938373D01*
X144327279Y-69872060D01*
X144421060Y-69778279D01*
X144487373Y-69663421D01*
X144521700Y-69535313D01*
X144521700Y-69402687D01*
X144487373Y-69274579D01*
X144465713Y-69237062D01*
X144421062Y-69159724D01*
X144421054Y-69159714D01*
X144327285Y-69065945D01*
X144327275Y-69065937D01*
X144212422Y-68999627D01*
X144169718Y-68988184D01*
X144084313Y-68965300D01*
X143951687Y-68965300D01*
X143887633Y-68982463D01*
X143823577Y-68999627D01*
X143708724Y-69065937D01*
X143708714Y-69065945D01*
X143614945Y-69159714D01*
X143614937Y-69159724D01*
X143548627Y-69274577D01*
X143525742Y-69359984D01*
X143514300Y-69402687D01*
X142877001Y-69402687D01*
X142877208Y-68767687D01*
X150118300Y-68767687D01*
X150118300Y-68900313D01*
X150135714Y-68965300D01*
X150152627Y-69028422D01*
X150218937Y-69143275D01*
X150218945Y-69143285D01*
X150312714Y-69237054D01*
X150312719Y-69237058D01*
X150312721Y-69237060D01*
X150312722Y-69237061D01*
X150312724Y-69237062D01*
X150377706Y-69274579D01*
X150427579Y-69303373D01*
X150555687Y-69337700D01*
X150555689Y-69337700D01*
X150688311Y-69337700D01*
X150688313Y-69337700D01*
X150816421Y-69303373D01*
X150931279Y-69237060D01*
X151025060Y-69143279D01*
X151091373Y-69028421D01*
X151125700Y-68900313D01*
X151125700Y-68767687D01*
X153674300Y-68767687D01*
X153674300Y-68900313D01*
X153691714Y-68965300D01*
X153708627Y-69028422D01*
X153774937Y-69143275D01*
X153774945Y-69143285D01*
X153868714Y-69237054D01*
X153868719Y-69237058D01*
X153868721Y-69237060D01*
X153868722Y-69237061D01*
X153868724Y-69237062D01*
X153933706Y-69274579D01*
X153983579Y-69303373D01*
X154111687Y-69337700D01*
X154111689Y-69337700D01*
X154244311Y-69337700D01*
X154244313Y-69337700D01*
X154372421Y-69303373D01*
X154487279Y-69237060D01*
X154581060Y-69143279D01*
X154647373Y-69028421D01*
X154681700Y-68900313D01*
X154681700Y-68767687D01*
X156214300Y-68767687D01*
X156214300Y-68900313D01*
X156231714Y-68965300D01*
X156248627Y-69028422D01*
X156314937Y-69143275D01*
X156314945Y-69143285D01*
X156408714Y-69237054D01*
X156408719Y-69237058D01*
X156408721Y-69237060D01*
X156408722Y-69237061D01*
X156408724Y-69237062D01*
X156473706Y-69274579D01*
X156523579Y-69303373D01*
X156651687Y-69337700D01*
X156651689Y-69337700D01*
X156784311Y-69337700D01*
X156784313Y-69337700D01*
X156912421Y-69303373D01*
X157027279Y-69237060D01*
X157121060Y-69143279D01*
X157187373Y-69028421D01*
X157221700Y-68900313D01*
X157221700Y-68767687D01*
X158754300Y-68767687D01*
X158754300Y-68900313D01*
X158771714Y-68965300D01*
X158788627Y-69028422D01*
X158854937Y-69143275D01*
X158854945Y-69143285D01*
X158948714Y-69237054D01*
X158948719Y-69237058D01*
X158948721Y-69237060D01*
X158948722Y-69237061D01*
X158948724Y-69237062D01*
X159013706Y-69274579D01*
X159063579Y-69303373D01*
X159191687Y-69337700D01*
X159191689Y-69337700D01*
X159324311Y-69337700D01*
X159324313Y-69337700D01*
X159452421Y-69303373D01*
X159567279Y-69237060D01*
X159661060Y-69143279D01*
X159727373Y-69028421D01*
X159761700Y-68900313D01*
X159761700Y-68767687D01*
X159727373Y-68639579D01*
X159661060Y-68524721D01*
X159661058Y-68524719D01*
X159661054Y-68524714D01*
X159567285Y-68430945D01*
X159567275Y-68430937D01*
X159452422Y-68364627D01*
X159409718Y-68353184D01*
X159324313Y-68330300D01*
X159191687Y-68330300D01*
X159127633Y-68347463D01*
X159063577Y-68364627D01*
X158948724Y-68430937D01*
X158948714Y-68430945D01*
X158854945Y-68524714D01*
X158854937Y-68524724D01*
X158788627Y-68639577D01*
X158765742Y-68724984D01*
X158754300Y-68767687D01*
X157221700Y-68767687D01*
X157187373Y-68639579D01*
X157121060Y-68524721D01*
X157121058Y-68524719D01*
X157121054Y-68524714D01*
X157027285Y-68430945D01*
X157027275Y-68430937D01*
X156912422Y-68364627D01*
X156869718Y-68353184D01*
X156784313Y-68330300D01*
X156651687Y-68330300D01*
X156587633Y-68347463D01*
X156523577Y-68364627D01*
X156408724Y-68430937D01*
X156408714Y-68430945D01*
X156314945Y-68524714D01*
X156314937Y-68524724D01*
X156248627Y-68639577D01*
X156225742Y-68724984D01*
X156214300Y-68767687D01*
X154681700Y-68767687D01*
X154647373Y-68639579D01*
X154581060Y-68524721D01*
X154581058Y-68524719D01*
X154581054Y-68524714D01*
X154487285Y-68430945D01*
X154487275Y-68430937D01*
X154372422Y-68364627D01*
X154329718Y-68353184D01*
X154244313Y-68330300D01*
X154111687Y-68330300D01*
X154047633Y-68347463D01*
X153983577Y-68364627D01*
X153868724Y-68430937D01*
X153868714Y-68430945D01*
X153774945Y-68524714D01*
X153774937Y-68524724D01*
X153708627Y-68639577D01*
X153685742Y-68724984D01*
X153674300Y-68767687D01*
X151125700Y-68767687D01*
X151091373Y-68639579D01*
X151025060Y-68524721D01*
X151025058Y-68524719D01*
X151025054Y-68524714D01*
X150931285Y-68430945D01*
X150931275Y-68430937D01*
X150816422Y-68364627D01*
X150773718Y-68353184D01*
X150688313Y-68330300D01*
X150555687Y-68330300D01*
X150491633Y-68347463D01*
X150427577Y-68364627D01*
X150312724Y-68430937D01*
X150312714Y-68430945D01*
X150218945Y-68524714D01*
X150218937Y-68524724D01*
X150152627Y-68639577D01*
X150129742Y-68724984D01*
X150118300Y-68767687D01*
X142877208Y-68767687D01*
X142878036Y-66227687D01*
X145038300Y-66227687D01*
X145038300Y-66360313D01*
X145061184Y-66445718D01*
X145072627Y-66488422D01*
X145138937Y-66603275D01*
X145138945Y-66603285D01*
X145185065Y-66649405D01*
X145219091Y-66711717D01*
X145214026Y-66782532D01*
X145185065Y-66827595D01*
X145138945Y-66873714D01*
X145138937Y-66873724D01*
X145072627Y-66988577D01*
X145049742Y-67073984D01*
X145038300Y-67116687D01*
X145038300Y-67249313D01*
X145061184Y-67334718D01*
X145072627Y-67377422D01*
X145138937Y-67492275D01*
X145138945Y-67492285D01*
X145232714Y-67586054D01*
X145232719Y-67586058D01*
X145232721Y-67586060D01*
X145232722Y-67586061D01*
X145232724Y-67586062D01*
X145347577Y-67652372D01*
X145347579Y-67652373D01*
X145475687Y-67686700D01*
X145475689Y-67686700D01*
X145608311Y-67686700D01*
X145608313Y-67686700D01*
X145736421Y-67652373D01*
X145851279Y-67586060D01*
X145945060Y-67492279D01*
X146011373Y-67377421D01*
X146045700Y-67249313D01*
X146045700Y-67116687D01*
X146011373Y-66988579D01*
X145945060Y-66873721D01*
X145945058Y-66873719D01*
X145945054Y-66873714D01*
X145898935Y-66827595D01*
X145864909Y-66765283D01*
X145869974Y-66694468D01*
X145898935Y-66649405D01*
X145945054Y-66603285D01*
X145945060Y-66603279D01*
X146011373Y-66488421D01*
X146045700Y-66360313D01*
X146045700Y-66227687D01*
X147578300Y-66227687D01*
X147578300Y-66360313D01*
X147601184Y-66445718D01*
X147612627Y-66488422D01*
X147678937Y-66603275D01*
X147678945Y-66603285D01*
X147725065Y-66649405D01*
X147759091Y-66711717D01*
X147754026Y-66782532D01*
X147725065Y-66827595D01*
X147678945Y-66873714D01*
X147678937Y-66873724D01*
X147612627Y-66988577D01*
X147589742Y-67073984D01*
X147578300Y-67116687D01*
X147578300Y-67249313D01*
X147601184Y-67334718D01*
X147612627Y-67377422D01*
X147678937Y-67492275D01*
X147678945Y-67492285D01*
X147772714Y-67586054D01*
X147772719Y-67586058D01*
X147772721Y-67586060D01*
X147772722Y-67586061D01*
X147772724Y-67586062D01*
X147887577Y-67652372D01*
X147887579Y-67652373D01*
X148015687Y-67686700D01*
X148015689Y-67686700D01*
X148148311Y-67686700D01*
X148148313Y-67686700D01*
X148276421Y-67652373D01*
X148391279Y-67586060D01*
X148485060Y-67492279D01*
X148551373Y-67377421D01*
X148585700Y-67249313D01*
X148585700Y-67116687D01*
X148551373Y-66988579D01*
X148485060Y-66873721D01*
X148485058Y-66873719D01*
X148485054Y-66873714D01*
X148438935Y-66827595D01*
X148404909Y-66765283D01*
X148409974Y-66694468D01*
X148438935Y-66649405D01*
X148485054Y-66603285D01*
X148485060Y-66603279D01*
X148551373Y-66488421D01*
X148585700Y-66360313D01*
X148585700Y-66227687D01*
X150118300Y-66227687D01*
X150118300Y-66360313D01*
X150141184Y-66445718D01*
X150152627Y-66488422D01*
X150218937Y-66603275D01*
X150218945Y-66603285D01*
X150265065Y-66649405D01*
X150299091Y-66711717D01*
X150294026Y-66782532D01*
X150265065Y-66827595D01*
X150218945Y-66873714D01*
X150218937Y-66873724D01*
X150152627Y-66988577D01*
X150129742Y-67073984D01*
X150118300Y-67116687D01*
X150118300Y-67249313D01*
X150141184Y-67334718D01*
X150152627Y-67377422D01*
X150218937Y-67492275D01*
X150218945Y-67492285D01*
X150312714Y-67586054D01*
X150312719Y-67586058D01*
X150312721Y-67586060D01*
X150312722Y-67586061D01*
X150312724Y-67586062D01*
X150427577Y-67652372D01*
X150427579Y-67652373D01*
X150555687Y-67686700D01*
X150555689Y-67686700D01*
X150688311Y-67686700D01*
X150688313Y-67686700D01*
X150816421Y-67652373D01*
X150931279Y-67586060D01*
X151025060Y-67492279D01*
X151091373Y-67377421D01*
X151125700Y-67249313D01*
X151125700Y-67243687D01*
X151896300Y-67243687D01*
X151896300Y-67376313D01*
X151919184Y-67461718D01*
X151930627Y-67504422D01*
X151996937Y-67619275D01*
X151996945Y-67619285D01*
X152090714Y-67713054D01*
X152090719Y-67713058D01*
X152090721Y-67713060D01*
X152205579Y-67779373D01*
X152333687Y-67813700D01*
X152333689Y-67813700D01*
X152466311Y-67813700D01*
X152466313Y-67813700D01*
X152594421Y-67779373D01*
X152709279Y-67713060D01*
X152803060Y-67619279D01*
X152869373Y-67504421D01*
X152903700Y-67376313D01*
X152903700Y-67243687D01*
X152869373Y-67115579D01*
X152803060Y-67000721D01*
X152803058Y-67000719D01*
X152803054Y-67000714D01*
X152709285Y-66906945D01*
X152709275Y-66906937D01*
X152594422Y-66840627D01*
X152545786Y-66827595D01*
X152466313Y-66806300D01*
X152333687Y-66806300D01*
X152269633Y-66823463D01*
X152205577Y-66840627D01*
X152090724Y-66906937D01*
X152090714Y-66906945D01*
X151996945Y-67000714D01*
X151996937Y-67000724D01*
X151930627Y-67115577D01*
X151907742Y-67200984D01*
X151896300Y-67243687D01*
X151125700Y-67243687D01*
X151125700Y-67116687D01*
X151091373Y-66988579D01*
X151025060Y-66873721D01*
X151025058Y-66873719D01*
X151025054Y-66873714D01*
X150978935Y-66827595D01*
X150944909Y-66765283D01*
X150949974Y-66694468D01*
X150978935Y-66649405D01*
X151025054Y-66603285D01*
X151025060Y-66603279D01*
X151091373Y-66488421D01*
X151125700Y-66360313D01*
X151125700Y-66227687D01*
X153674300Y-66227687D01*
X153674300Y-66360313D01*
X153697184Y-66445718D01*
X153708627Y-66488422D01*
X153774937Y-66603275D01*
X153774945Y-66603285D01*
X153821065Y-66649405D01*
X153855091Y-66711717D01*
X153850026Y-66782532D01*
X153821065Y-66827595D01*
X153774945Y-66873714D01*
X153774937Y-66873724D01*
X153708627Y-66988577D01*
X153685742Y-67073984D01*
X153674300Y-67116687D01*
X153674300Y-67249313D01*
X153697184Y-67334718D01*
X153708627Y-67377422D01*
X153774937Y-67492275D01*
X153774945Y-67492285D01*
X153868714Y-67586054D01*
X153868719Y-67586058D01*
X153868721Y-67586060D01*
X153868722Y-67586061D01*
X153868724Y-67586062D01*
X153983577Y-67652372D01*
X153983579Y-67652373D01*
X154111687Y-67686700D01*
X154111689Y-67686700D01*
X154244311Y-67686700D01*
X154244313Y-67686700D01*
X154372421Y-67652373D01*
X154487279Y-67586060D01*
X154581060Y-67492279D01*
X154647373Y-67377421D01*
X154681700Y-67249313D01*
X154681700Y-67116687D01*
X154647373Y-66988579D01*
X154581060Y-66873721D01*
X154581058Y-66873719D01*
X154581054Y-66873714D01*
X154534935Y-66827595D01*
X154500909Y-66765283D01*
X154505974Y-66694468D01*
X154534935Y-66649405D01*
X154581054Y-66603285D01*
X154581060Y-66603279D01*
X154647373Y-66488421D01*
X154681700Y-66360313D01*
X154681700Y-66227687D01*
X156214300Y-66227687D01*
X156214300Y-66360313D01*
X156237184Y-66445718D01*
X156248627Y-66488422D01*
X156314937Y-66603275D01*
X156314945Y-66603285D01*
X156361065Y-66649405D01*
X156395091Y-66711717D01*
X156390026Y-66782532D01*
X156361065Y-66827595D01*
X156314945Y-66873714D01*
X156314937Y-66873724D01*
X156248627Y-66988577D01*
X156225742Y-67073984D01*
X156214300Y-67116687D01*
X156214300Y-67249313D01*
X156237184Y-67334718D01*
X156248627Y-67377422D01*
X156314937Y-67492275D01*
X156314945Y-67492285D01*
X156408714Y-67586054D01*
X156408719Y-67586058D01*
X156408721Y-67586060D01*
X156408722Y-67586061D01*
X156408724Y-67586062D01*
X156523577Y-67652372D01*
X156523579Y-67652373D01*
X156651687Y-67686700D01*
X156651689Y-67686700D01*
X156784311Y-67686700D01*
X156784313Y-67686700D01*
X156912421Y-67652373D01*
X157027279Y-67586060D01*
X157121060Y-67492279D01*
X157187373Y-67377421D01*
X157221700Y-67249313D01*
X157221700Y-67116687D01*
X157187373Y-66988579D01*
X157121060Y-66873721D01*
X157121058Y-66873719D01*
X157121054Y-66873714D01*
X157074935Y-66827595D01*
X157040909Y-66765283D01*
X157045974Y-66694468D01*
X157074935Y-66649405D01*
X157121054Y-66603285D01*
X157121060Y-66603279D01*
X157187373Y-66488421D01*
X157221700Y-66360313D01*
X157221700Y-66227687D01*
X158754300Y-66227687D01*
X158754300Y-66360313D01*
X158777184Y-66445718D01*
X158788627Y-66488422D01*
X158854937Y-66603275D01*
X158854945Y-66603285D01*
X158901065Y-66649405D01*
X158935091Y-66711717D01*
X158930026Y-66782532D01*
X158901065Y-66827595D01*
X158854945Y-66873714D01*
X158854937Y-66873724D01*
X158788627Y-66988577D01*
X158765742Y-67073984D01*
X158754300Y-67116687D01*
X158754300Y-67249313D01*
X158777184Y-67334718D01*
X158788627Y-67377422D01*
X158854937Y-67492275D01*
X158854945Y-67492285D01*
X158948714Y-67586054D01*
X158948719Y-67586058D01*
X158948721Y-67586060D01*
X158948722Y-67586061D01*
X158948724Y-67586062D01*
X159063577Y-67652372D01*
X159063579Y-67652373D01*
X159191687Y-67686700D01*
X159191689Y-67686700D01*
X159324311Y-67686700D01*
X159324313Y-67686700D01*
X159452421Y-67652373D01*
X159567279Y-67586060D01*
X159661060Y-67492279D01*
X159727373Y-67377421D01*
X159761700Y-67249313D01*
X159761700Y-67116687D01*
X159727373Y-66988579D01*
X159661060Y-66873721D01*
X159661058Y-66873719D01*
X159661054Y-66873714D01*
X159614935Y-66827595D01*
X159580909Y-66765283D01*
X159585974Y-66694468D01*
X159614935Y-66649405D01*
X159661054Y-66603285D01*
X159661060Y-66603279D01*
X159727373Y-66488421D01*
X159761700Y-66360313D01*
X159761700Y-66227687D01*
X159727373Y-66099579D01*
X159661060Y-65984721D01*
X159661058Y-65984719D01*
X159661054Y-65984714D01*
X159567285Y-65890945D01*
X159567275Y-65890937D01*
X159452422Y-65824627D01*
X159409718Y-65813184D01*
X159324313Y-65790300D01*
X159191687Y-65790300D01*
X159127633Y-65807463D01*
X159063577Y-65824627D01*
X158948724Y-65890937D01*
X158948714Y-65890945D01*
X158854945Y-65984714D01*
X158854937Y-65984724D01*
X158788627Y-66099577D01*
X158765742Y-66184984D01*
X158754300Y-66227687D01*
X157221700Y-66227687D01*
X157187373Y-66099579D01*
X157121060Y-65984721D01*
X157121058Y-65984719D01*
X157121054Y-65984714D01*
X157027285Y-65890945D01*
X157027275Y-65890937D01*
X156912422Y-65824627D01*
X156869718Y-65813184D01*
X156784313Y-65790300D01*
X156651687Y-65790300D01*
X156587633Y-65807463D01*
X156523577Y-65824627D01*
X156408724Y-65890937D01*
X156408714Y-65890945D01*
X156314945Y-65984714D01*
X156314937Y-65984724D01*
X156248627Y-66099577D01*
X156225742Y-66184984D01*
X156214300Y-66227687D01*
X154681700Y-66227687D01*
X154647373Y-66099579D01*
X154581060Y-65984721D01*
X154581058Y-65984719D01*
X154581054Y-65984714D01*
X154487285Y-65890945D01*
X154487275Y-65890937D01*
X154372422Y-65824627D01*
X154329718Y-65813184D01*
X154244313Y-65790300D01*
X154111687Y-65790300D01*
X154047633Y-65807463D01*
X153983577Y-65824627D01*
X153868724Y-65890937D01*
X153868714Y-65890945D01*
X153774945Y-65984714D01*
X153774937Y-65984724D01*
X153708627Y-66099577D01*
X153685742Y-66184984D01*
X153674300Y-66227687D01*
X151125700Y-66227687D01*
X151091373Y-66099579D01*
X151025060Y-65984721D01*
X151025058Y-65984719D01*
X151025054Y-65984714D01*
X150931285Y-65890945D01*
X150931275Y-65890937D01*
X150816422Y-65824627D01*
X150773718Y-65813184D01*
X150688313Y-65790300D01*
X150555687Y-65790300D01*
X150491633Y-65807463D01*
X150427577Y-65824627D01*
X150312724Y-65890937D01*
X150312714Y-65890945D01*
X150218945Y-65984714D01*
X150218937Y-65984724D01*
X150152627Y-66099577D01*
X150129742Y-66184984D01*
X150118300Y-66227687D01*
X148585700Y-66227687D01*
X148551373Y-66099579D01*
X148485060Y-65984721D01*
X148485058Y-65984719D01*
X148485054Y-65984714D01*
X148391285Y-65890945D01*
X148391275Y-65890937D01*
X148276422Y-65824627D01*
X148233718Y-65813184D01*
X148148313Y-65790300D01*
X148015687Y-65790300D01*
X147951633Y-65807463D01*
X147887577Y-65824627D01*
X147772724Y-65890937D01*
X147772714Y-65890945D01*
X147678945Y-65984714D01*
X147678937Y-65984724D01*
X147612627Y-66099577D01*
X147589742Y-66184984D01*
X147578300Y-66227687D01*
X146045700Y-66227687D01*
X146011373Y-66099579D01*
X145945060Y-65984721D01*
X145945058Y-65984719D01*
X145945054Y-65984714D01*
X145851285Y-65890945D01*
X145851275Y-65890937D01*
X145736422Y-65824627D01*
X145693718Y-65813184D01*
X145608313Y-65790300D01*
X145475687Y-65790300D01*
X145411633Y-65807463D01*
X145347577Y-65824627D01*
X145232724Y-65890937D01*
X145232714Y-65890945D01*
X145138945Y-65984714D01*
X145138937Y-65984724D01*
X145072627Y-66099577D01*
X145049742Y-66184984D01*
X145038300Y-66227687D01*
X142878036Y-66227687D01*
X142878652Y-64339687D01*
X144896300Y-64339687D01*
X144896300Y-64472313D01*
X144919184Y-64557718D01*
X144930627Y-64600422D01*
X144996937Y-64715275D01*
X144996945Y-64715285D01*
X145090714Y-64809054D01*
X145090719Y-64809058D01*
X145090721Y-64809060D01*
X145205579Y-64875373D01*
X145333687Y-64909700D01*
X145333689Y-64909700D01*
X145466311Y-64909700D01*
X145466313Y-64909700D01*
X145594421Y-64875373D01*
X145709279Y-64809060D01*
X145803060Y-64715279D01*
X145869373Y-64600421D01*
X145903700Y-64472313D01*
X145903700Y-64339687D01*
X149896300Y-64339687D01*
X149896300Y-64472313D01*
X149919184Y-64557718D01*
X149930627Y-64600422D01*
X149996937Y-64715275D01*
X149996945Y-64715285D01*
X150090714Y-64809054D01*
X150090719Y-64809058D01*
X150090721Y-64809060D01*
X150205579Y-64875373D01*
X150333687Y-64909700D01*
X150333689Y-64909700D01*
X150466311Y-64909700D01*
X150466313Y-64909700D01*
X150594421Y-64875373D01*
X150709279Y-64809060D01*
X150803060Y-64715279D01*
X150869373Y-64600421D01*
X150903700Y-64472313D01*
X150903700Y-64339687D01*
X151896300Y-64339687D01*
X151896300Y-64472313D01*
X151919184Y-64557718D01*
X151930627Y-64600422D01*
X151996937Y-64715275D01*
X151996945Y-64715285D01*
X152090714Y-64809054D01*
X152090719Y-64809058D01*
X152090721Y-64809060D01*
X152205579Y-64875373D01*
X152333687Y-64909700D01*
X152333689Y-64909700D01*
X152466311Y-64909700D01*
X152466313Y-64909700D01*
X152594421Y-64875373D01*
X152709279Y-64809060D01*
X152803060Y-64715279D01*
X152869373Y-64600421D01*
X152903700Y-64472313D01*
X152903700Y-64339687D01*
X153896300Y-64339687D01*
X153896300Y-64472313D01*
X153919184Y-64557718D01*
X153930627Y-64600422D01*
X153996937Y-64715275D01*
X153996945Y-64715285D01*
X154090714Y-64809054D01*
X154090719Y-64809058D01*
X154090721Y-64809060D01*
X154205579Y-64875373D01*
X154333687Y-64909700D01*
X154333689Y-64909700D01*
X154466311Y-64909700D01*
X154466313Y-64909700D01*
X154594421Y-64875373D01*
X154709279Y-64809060D01*
X154803060Y-64715279D01*
X154869373Y-64600421D01*
X154903700Y-64472313D01*
X154903700Y-64339687D01*
X158896300Y-64339687D01*
X158896300Y-64472313D01*
X158919184Y-64557718D01*
X158930627Y-64600422D01*
X158996937Y-64715275D01*
X158996945Y-64715285D01*
X159090714Y-64809054D01*
X159090719Y-64809058D01*
X159090721Y-64809060D01*
X159205579Y-64875373D01*
X159333687Y-64909700D01*
X159333689Y-64909700D01*
X159466311Y-64909700D01*
X159466313Y-64909700D01*
X159594421Y-64875373D01*
X159709279Y-64809060D01*
X159803060Y-64715279D01*
X159869373Y-64600421D01*
X159903700Y-64472313D01*
X159903700Y-64339687D01*
X159869373Y-64211579D01*
X159803060Y-64096721D01*
X159803058Y-64096719D01*
X159803054Y-64096714D01*
X159709285Y-64002945D01*
X159709275Y-64002937D01*
X159594422Y-63936627D01*
X159551718Y-63925184D01*
X159466313Y-63902300D01*
X159333687Y-63902300D01*
X159269633Y-63919463D01*
X159205577Y-63936627D01*
X159090724Y-64002937D01*
X159090714Y-64002945D01*
X158996945Y-64096714D01*
X158996937Y-64096724D01*
X158930627Y-64211577D01*
X158907742Y-64296984D01*
X158896300Y-64339687D01*
X154903700Y-64339687D01*
X154869373Y-64211579D01*
X154803060Y-64096721D01*
X154803058Y-64096719D01*
X154803054Y-64096714D01*
X154709285Y-64002945D01*
X154709275Y-64002937D01*
X154594422Y-63936627D01*
X154551718Y-63925184D01*
X154466313Y-63902300D01*
X154333687Y-63902300D01*
X154269633Y-63919463D01*
X154205577Y-63936627D01*
X154090724Y-64002937D01*
X154090714Y-64002945D01*
X153996945Y-64096714D01*
X153996937Y-64096724D01*
X153930627Y-64211577D01*
X153907742Y-64296984D01*
X153896300Y-64339687D01*
X152903700Y-64339687D01*
X152869373Y-64211579D01*
X152803060Y-64096721D01*
X152803058Y-64096719D01*
X152803054Y-64096714D01*
X152709285Y-64002945D01*
X152709275Y-64002937D01*
X152594422Y-63936627D01*
X152551718Y-63925184D01*
X152466313Y-63902300D01*
X152333687Y-63902300D01*
X152269633Y-63919463D01*
X152205577Y-63936627D01*
X152090724Y-64002937D01*
X152090714Y-64002945D01*
X151996945Y-64096714D01*
X151996937Y-64096724D01*
X151930627Y-64211577D01*
X151907742Y-64296984D01*
X151896300Y-64339687D01*
X150903700Y-64339687D01*
X150869373Y-64211579D01*
X150803060Y-64096721D01*
X150803058Y-64096719D01*
X150803054Y-64096714D01*
X150709285Y-64002945D01*
X150709275Y-64002937D01*
X150594422Y-63936627D01*
X150551718Y-63925184D01*
X150466313Y-63902300D01*
X150333687Y-63902300D01*
X150269633Y-63919463D01*
X150205577Y-63936627D01*
X150090724Y-64002937D01*
X150090714Y-64002945D01*
X149996945Y-64096714D01*
X149996937Y-64096724D01*
X149930627Y-64211577D01*
X149907742Y-64296984D01*
X149896300Y-64339687D01*
X145903700Y-64339687D01*
X145869373Y-64211579D01*
X145803060Y-64096721D01*
X145803058Y-64096719D01*
X145803054Y-64096714D01*
X145709285Y-64002945D01*
X145709275Y-64002937D01*
X145594422Y-63936627D01*
X145551718Y-63925184D01*
X145466313Y-63902300D01*
X145333687Y-63902300D01*
X145269633Y-63919463D01*
X145205577Y-63936627D01*
X145090724Y-64002937D01*
X145090714Y-64002945D01*
X144996945Y-64096714D01*
X144996937Y-64096724D01*
X144930627Y-64211577D01*
X144907742Y-64296984D01*
X144896300Y-64339687D01*
X142878652Y-64339687D01*
X142879149Y-62814406D01*
X142899173Y-62746293D01*
X142952844Y-62699817D01*
X143023121Y-62689736D01*
X143087693Y-62719250D01*
X143094244Y-62725353D01*
X143226867Y-62857976D01*
X143226877Y-62857985D01*
X143226883Y-62857991D01*
X143226886Y-62857993D01*
X143226888Y-62857995D01*
X143471324Y-63045559D01*
X143738157Y-63199615D01*
X143738161Y-63199616D01*
X143738170Y-63199622D01*
X144022836Y-63317535D01*
X144320456Y-63397282D01*
X144320462Y-63397282D01*
X144320463Y-63397283D01*
X144355515Y-63401897D01*
X144625940Y-63437500D01*
X144625947Y-63437500D01*
X144934053Y-63437500D01*
X144934060Y-63437500D01*
X145239544Y-63397282D01*
X145537164Y-63317535D01*
X145821830Y-63199622D01*
X146088670Y-63045562D01*
X146088670Y-63045561D01*
X146088675Y-63045559D01*
X146230632Y-62936630D01*
X146333117Y-62857991D01*
X146550991Y-62640117D01*
X146635745Y-62529663D01*
X146738559Y-62395675D01*
X146835181Y-62228321D01*
X146886563Y-62179328D01*
X146956277Y-62165892D01*
X147022188Y-62192278D01*
X147063370Y-62250110D01*
X147070300Y-62291321D01*
X147070300Y-62296313D01*
X147081871Y-62339496D01*
X147104627Y-62424422D01*
X147170937Y-62539275D01*
X147170945Y-62539285D01*
X147264714Y-62633054D01*
X147264719Y-62633058D01*
X147264721Y-62633060D01*
X147264722Y-62633061D01*
X147264724Y-62633062D01*
X147276944Y-62640117D01*
X147379579Y-62699373D01*
X147507687Y-62733700D01*
X147507689Y-62733700D01*
X147640311Y-62733700D01*
X147640313Y-62733700D01*
X147768421Y-62699373D01*
X147883279Y-62633060D01*
X147977060Y-62539279D01*
X148043373Y-62424421D01*
X148077700Y-62296313D01*
X148077700Y-62163687D01*
X148594300Y-62163687D01*
X148594300Y-62296313D01*
X148605871Y-62339496D01*
X148628627Y-62424422D01*
X148694937Y-62539275D01*
X148694945Y-62539285D01*
X148788714Y-62633054D01*
X148788719Y-62633058D01*
X148788721Y-62633060D01*
X148788722Y-62633061D01*
X148788724Y-62633062D01*
X148800944Y-62640117D01*
X148903579Y-62699373D01*
X149031687Y-62733700D01*
X149031689Y-62733700D01*
X149164311Y-62733700D01*
X149164313Y-62733700D01*
X149292421Y-62699373D01*
X149407279Y-62633060D01*
X149441995Y-62598344D01*
X149506900Y-62533440D01*
X149508249Y-62534789D01*
X149557064Y-62499139D01*
X149627935Y-62494912D01*
X149689841Y-62529670D01*
X149711965Y-62560503D01*
X149790025Y-62713704D01*
X149794404Y-62722297D01*
X149903724Y-62872763D01*
X150035233Y-63004272D01*
X150035236Y-63004274D01*
X150185703Y-63113595D01*
X150351420Y-63198032D01*
X150528299Y-63255503D01*
X150528300Y-63255503D01*
X150528305Y-63255505D01*
X150712003Y-63284600D01*
X150712006Y-63284600D01*
X150897988Y-63284600D01*
X150897991Y-63284600D01*
X151081689Y-63255505D01*
X151258574Y-63198032D01*
X151424291Y-63113595D01*
X151574758Y-63004274D01*
X151706271Y-62872761D01*
X151815592Y-62722294D01*
X151900029Y-62556577D01*
X151957502Y-62379692D01*
X151986597Y-62195994D01*
X151986597Y-62010006D01*
X153123400Y-62010006D01*
X153123400Y-62195994D01*
X153139289Y-62296311D01*
X153152496Y-62379697D01*
X153206768Y-62546729D01*
X153209968Y-62556577D01*
X153292854Y-62719250D01*
X153294407Y-62722297D01*
X153403727Y-62872763D01*
X153535236Y-63004272D01*
X153535239Y-63004274D01*
X153685706Y-63113595D01*
X153851423Y-63198032D01*
X154028302Y-63255503D01*
X154028303Y-63255503D01*
X154028308Y-63255505D01*
X154212006Y-63284600D01*
X154212009Y-63284600D01*
X154397991Y-63284600D01*
X154397994Y-63284600D01*
X154581692Y-63255505D01*
X154758577Y-63198032D01*
X154924294Y-63113595D01*
X155074761Y-63004274D01*
X155206274Y-62872761D01*
X155315595Y-62722294D01*
X155378751Y-62598342D01*
X155427498Y-62546729D01*
X155496413Y-62529663D01*
X155563615Y-62552564D01*
X155580112Y-62566452D01*
X155646714Y-62633054D01*
X155646719Y-62633058D01*
X155646721Y-62633060D01*
X155646722Y-62633061D01*
X155646724Y-62633062D01*
X155658944Y-62640117D01*
X155761579Y-62699373D01*
X155889687Y-62733700D01*
X155889689Y-62733700D01*
X156022311Y-62733700D01*
X156022313Y-62733700D01*
X156150421Y-62699373D01*
X156265279Y-62633060D01*
X156359060Y-62539279D01*
X156425373Y-62424421D01*
X156459700Y-62296313D01*
X156459700Y-62163687D01*
X157738300Y-62163687D01*
X157738300Y-62296313D01*
X157749871Y-62339496D01*
X157772627Y-62424422D01*
X157838937Y-62539275D01*
X157838945Y-62539285D01*
X157932714Y-62633054D01*
X157932719Y-62633058D01*
X157932721Y-62633060D01*
X157932722Y-62633061D01*
X157932724Y-62633062D01*
X157944944Y-62640117D01*
X158047579Y-62699373D01*
X158175687Y-62733700D01*
X158175689Y-62733700D01*
X158308311Y-62733700D01*
X158308313Y-62733700D01*
X158436421Y-62699373D01*
X158551279Y-62633060D01*
X158645060Y-62539279D01*
X158711373Y-62424421D01*
X158745700Y-62296313D01*
X158745700Y-62163687D01*
X158711373Y-62035579D01*
X158696610Y-62010009D01*
X158645062Y-61920724D01*
X158645054Y-61920714D01*
X158551285Y-61826945D01*
X158551275Y-61826937D01*
X158436422Y-61760627D01*
X158393718Y-61749184D01*
X158308313Y-61726300D01*
X158175687Y-61726300D01*
X158111633Y-61743463D01*
X158047577Y-61760627D01*
X157932724Y-61826937D01*
X157932714Y-61826945D01*
X157838945Y-61920714D01*
X157838937Y-61920724D01*
X157772627Y-62035577D01*
X157772600Y-62035679D01*
X157738300Y-62163687D01*
X156459700Y-62163687D01*
X156425373Y-62035579D01*
X156410610Y-62010009D01*
X156359062Y-61920724D01*
X156359054Y-61920714D01*
X156265285Y-61826945D01*
X156265275Y-61826937D01*
X156150422Y-61760627D01*
X156107718Y-61749184D01*
X156022313Y-61726300D01*
X155889687Y-61726300D01*
X155825633Y-61743463D01*
X155761577Y-61760627D01*
X155646724Y-61826937D01*
X155640169Y-61831968D01*
X155638715Y-61830074D01*
X155587120Y-61858237D01*
X155516306Y-61853161D01*
X155459477Y-61810605D01*
X155440524Y-61774047D01*
X155434413Y-61755240D01*
X155400032Y-61649423D01*
X155315595Y-61483706D01*
X155206274Y-61333239D01*
X155206272Y-61333236D01*
X155074763Y-61201727D01*
X154924297Y-61092407D01*
X154924296Y-61092406D01*
X154924294Y-61092405D01*
X154758577Y-61007968D01*
X154758574Y-61007967D01*
X154758572Y-61007966D01*
X154581695Y-60950496D01*
X154581699Y-60950496D01*
X154547498Y-60945079D01*
X154397994Y-60921400D01*
X154212006Y-60921400D01*
X154037747Y-60949000D01*
X154028302Y-60950496D01*
X153851427Y-61007966D01*
X153851421Y-61007969D01*
X153685702Y-61092407D01*
X153535236Y-61201727D01*
X153403727Y-61333236D01*
X153294407Y-61483702D01*
X153209969Y-61649421D01*
X153209966Y-61649427D01*
X153152496Y-61826302D01*
X153152495Y-61826307D01*
X153152495Y-61826308D01*
X153123400Y-62010006D01*
X151986597Y-62010006D01*
X151957502Y-61826308D01*
X151900029Y-61649423D01*
X151815592Y-61483706D01*
X151706271Y-61333239D01*
X151706269Y-61333236D01*
X151574760Y-61201727D01*
X151424294Y-61092407D01*
X151424293Y-61092406D01*
X151424291Y-61092405D01*
X151258574Y-61007968D01*
X151258571Y-61007967D01*
X151258569Y-61007966D01*
X151081692Y-60950496D01*
X151081696Y-60950496D01*
X151047495Y-60945079D01*
X150897991Y-60921400D01*
X150712003Y-60921400D01*
X150537744Y-60949000D01*
X150528299Y-60950496D01*
X150351424Y-61007966D01*
X150351418Y-61007969D01*
X150185699Y-61092407D01*
X150035233Y-61201727D01*
X149903724Y-61333236D01*
X149794404Y-61483702D01*
X149709966Y-61649421D01*
X149709965Y-61649424D01*
X149655739Y-61816313D01*
X149615665Y-61874918D01*
X149550268Y-61902555D01*
X149480312Y-61890448D01*
X149446811Y-61866471D01*
X149407285Y-61826945D01*
X149407275Y-61826937D01*
X149292422Y-61760627D01*
X149249718Y-61749184D01*
X149164313Y-61726300D01*
X149031687Y-61726300D01*
X148967633Y-61743463D01*
X148903577Y-61760627D01*
X148788724Y-61826937D01*
X148788714Y-61826945D01*
X148694945Y-61920714D01*
X148694937Y-61920724D01*
X148628627Y-62035577D01*
X148628600Y-62035679D01*
X148594300Y-62163687D01*
X148077700Y-62163687D01*
X148043373Y-62035579D01*
X148028610Y-62010009D01*
X147977062Y-61920724D01*
X147977054Y-61920714D01*
X147883285Y-61826945D01*
X147883275Y-61826937D01*
X147768422Y-61760627D01*
X147725718Y-61749184D01*
X147640313Y-61726300D01*
X147507687Y-61726300D01*
X147443633Y-61743463D01*
X147379577Y-61760627D01*
X147264724Y-61826937D01*
X147264717Y-61826943D01*
X147256305Y-61835355D01*
X147193992Y-61869377D01*
X147123176Y-61864310D01*
X147066342Y-61821761D01*
X147041534Y-61755240D01*
X147045506Y-61713648D01*
X147090282Y-61546544D01*
X147130500Y-61241060D01*
X147130500Y-60932940D01*
X147090282Y-60627456D01*
X147010535Y-60329836D01*
X146892622Y-60045170D01*
X146892616Y-60045161D01*
X146892615Y-60045157D01*
X146738559Y-59778324D01*
X146550995Y-59533888D01*
X146550993Y-59533886D01*
X146550991Y-59533883D01*
X146550985Y-59533877D01*
X146550976Y-59533867D01*
X146406704Y-59389595D01*
X146372678Y-59327283D01*
X146377743Y-59256468D01*
X146420290Y-59199632D01*
X146486810Y-59174821D01*
X146495799Y-59174500D01*
X151497665Y-59174500D01*
X151565786Y-59194502D01*
G37*
%TD.AperFunction*%
%TD*%
M02*
