%TF.GenerationSoftware,KiCad,Pcbnew,9.0.8-9.0.8~ubuntu22.04.1*%
%TF.CreationDate,2026-03-23T10:20:51-05:00*%
%TF.ProjectId,Smart_MoCo,536d6172-745f-44d6-9f43-6f2e6b696361,rev?*%
%TF.SameCoordinates,Original*%
%TF.FileFunction,Copper,L1,Top*%
%TF.FilePolarity,Positive*%
%FSLAX46Y46*%
G04 Gerber Fmt 4.6, Leading zero omitted, Abs format (unit mm)*
G04 Created by KiCad (PCBNEW 9.0.8-9.0.8~ubuntu22.04.1) date 2026-03-23 10:20:51*
%MOMM*%
%LPD*%
G01*
G04 APERTURE LIST*
G04 Aperture macros list*
%AMRoundRect*
0 Rectangle with rounded corners*
0 $1 Rounding radius*
0 $2 $3 $4 $5 $6 $7 $8 $9 X,Y pos of 4 corners*
0 Add a 4 corners polygon primitive as box body*
4,1,4,$2,$3,$4,$5,$6,$7,$8,$9,$2,$3,0*
0 Add four circle primitives for the rounded corners*
1,1,$1+$1,$2,$3*
1,1,$1+$1,$4,$5*
1,1,$1+$1,$6,$7*
1,1,$1+$1,$8,$9*
0 Add four rect primitives between the rounded corners*
20,1,$1+$1,$2,$3,$4,$5,0*
20,1,$1+$1,$4,$5,$6,$7,0*
20,1,$1+$1,$6,$7,$8,$9,0*
20,1,$1+$1,$8,$9,$2,$3,0*%
G04 Aperture macros list end*
%TA.AperFunction,SMDPad,CuDef*%
%ADD10RoundRect,0.155000X-0.155000X0.212500X-0.155000X-0.212500X0.155000X-0.212500X0.155000X0.212500X0*%
%TD*%
%TA.AperFunction,SMDPad,CuDef*%
%ADD11RoundRect,0.237500X-0.250000X-0.237500X0.250000X-0.237500X0.250000X0.237500X-0.250000X0.237500X0*%
%TD*%
%TA.AperFunction,SMDPad,CuDef*%
%ADD12RoundRect,0.237500X0.250000X0.237500X-0.250000X0.237500X-0.250000X-0.237500X0.250000X-0.237500X0*%
%TD*%
%TA.AperFunction,SMDPad,CuDef*%
%ADD13RoundRect,0.250001X0.462499X0.849999X-0.462499X0.849999X-0.462499X-0.849999X0.462499X-0.849999X0*%
%TD*%
%TA.AperFunction,SMDPad,CuDef*%
%ADD14RoundRect,0.237500X0.287500X0.237500X-0.287500X0.237500X-0.287500X-0.237500X0.287500X-0.237500X0*%
%TD*%
%TA.AperFunction,ComponentPad*%
%ADD15C,1.955800*%
%TD*%
%TA.AperFunction,SMDPad,CuDef*%
%ADD16RoundRect,0.237500X-0.237500X0.250000X-0.237500X-0.250000X0.237500X-0.250000X0.237500X0.250000X0*%
%TD*%
%TA.AperFunction,SMDPad,CuDef*%
%ADD17RoundRect,0.237500X0.237500X-0.250000X0.237500X0.250000X-0.237500X0.250000X-0.237500X-0.250000X0*%
%TD*%
%TA.AperFunction,SMDPad,CuDef*%
%ADD18RoundRect,0.150000X-0.625000X0.150000X-0.625000X-0.150000X0.625000X-0.150000X0.625000X0.150000X0*%
%TD*%
%TA.AperFunction,SMDPad,CuDef*%
%ADD19RoundRect,0.250000X-0.650000X0.350000X-0.650000X-0.350000X0.650000X-0.350000X0.650000X0.350000X0*%
%TD*%
%TA.AperFunction,ComponentPad*%
%ADD20C,1.600000*%
%TD*%
%TA.AperFunction,SMDPad,CuDef*%
%ADD21RoundRect,0.237500X-0.237500X0.300000X-0.237500X-0.300000X0.237500X-0.300000X0.237500X0.300000X0*%
%TD*%
%TA.AperFunction,SMDPad,CuDef*%
%ADD22RoundRect,0.150000X-0.512500X-0.150000X0.512500X-0.150000X0.512500X0.150000X-0.512500X0.150000X0*%
%TD*%
%TA.AperFunction,SMDPad,CuDef*%
%ADD23RoundRect,0.150000X0.625000X-0.150000X0.625000X0.150000X-0.625000X0.150000X-0.625000X-0.150000X0*%
%TD*%
%TA.AperFunction,SMDPad,CuDef*%
%ADD24RoundRect,0.250000X0.650000X-0.350000X0.650000X0.350000X-0.650000X0.350000X-0.650000X-0.350000X0*%
%TD*%
%TA.AperFunction,ComponentPad*%
%ADD25R,1.700000X1.700000*%
%TD*%
%TA.AperFunction,ComponentPad*%
%ADD26C,1.700000*%
%TD*%
%TA.AperFunction,SMDPad,CuDef*%
%ADD27RoundRect,0.155000X0.155000X-0.212500X0.155000X0.212500X-0.155000X0.212500X-0.155000X-0.212500X0*%
%TD*%
%TA.AperFunction,ViaPad*%
%ADD28C,0.600000*%
%TD*%
%TA.AperFunction,Conductor*%
%ADD29C,0.254000*%
%TD*%
G04 APERTURE END LIST*
D10*
%TO.P,C5,1*%
%TO.N,+3V3*%
X158470600Y-90736800D03*
%TO.P,C5,2*%
%TO.N,GND*%
X158470600Y-91871800D03*
%TD*%
D11*
%TO.P,R2,1*%
%TO.N,Net-(U2-EN{slash}DIAGA)*%
X160227000Y-81280000D03*
%TO.P,R2,2*%
%TO.N,+3V3*%
X162052000Y-81280000D03*
%TD*%
D12*
%TO.P,R7,1*%
%TO.N,Net-(U4-FB)*%
X164973000Y-77089000D03*
%TO.P,R7,2*%
%TO.N,GND*%
X163148000Y-77089000D03*
%TD*%
D13*
%TO.P,L1,1,1*%
%TO.N,Net-(U4-SW)*%
X165246500Y-70485000D03*
%TO.P,L1,2,2*%
%TO.N,+3V3*%
X162921500Y-70485000D03*
%TD*%
D14*
%TO.P,D3,1,K*%
%TO.N,GND*%
X168021000Y-93726000D03*
%TO.P,D3,2,A*%
%TO.N,Net-(D3-A)*%
X166271000Y-93726000D03*
%TD*%
D15*
%TO.P,J6,1,1*%
%TO.N,/OUTA*%
X154305000Y-62103000D03*
%TO.P,J6,2,2*%
%TO.N,/OUTB*%
X150804997Y-62103000D03*
%TD*%
D10*
%TO.P,C8,1*%
%TO.N,+3V3*%
X156337000Y-90720100D03*
%TO.P,C8,2*%
%TO.N,GND*%
X156337000Y-91855100D03*
%TD*%
D14*
%TO.P,D2,1,K*%
%TO.N,GND*%
X168021000Y-91694000D03*
%TO.P,D2,2,A*%
%TO.N,Net-(D2-A)*%
X166271000Y-91694000D03*
%TD*%
D16*
%TO.P,R1,1*%
%TO.N,Net-(U2-CS)*%
X158599500Y-84836000D03*
%TO.P,R1,2*%
%TO.N,CS*%
X158599500Y-86661000D03*
%TD*%
D17*
%TO.P,R6,1*%
%TO.N,+3V3*%
X167513000Y-77089000D03*
%TO.P,R6,2*%
%TO.N,Net-(U4-FB)*%
X167513000Y-75264000D03*
%TD*%
D18*
%TO.P,J2,1,Pin_1*%
%TO.N,+3V3*%
X147766000Y-69275000D03*
%TO.P,J2,2,Pin_2*%
%TO.N,ENC_A{slash}PWM*%
X147766000Y-70275000D03*
%TO.P,J2,3,Pin_3*%
%TO.N,ENC_B*%
X147766000Y-71275000D03*
%TO.P,J2,4,Pin_4*%
%TO.N,GND*%
X147766000Y-72275000D03*
D19*
%TO.P,J2,MP*%
%TO.N,N/C*%
X143891000Y-67975000D03*
X143891000Y-73575000D03*
%TD*%
D18*
%TO.P,J4,1,Pin_1*%
%TO.N,+3V3*%
X147766000Y-78008000D03*
%TO.P,J4,2,Pin_2*%
%TO.N,LIM_B*%
X147766000Y-79008000D03*
D19*
%TO.P,J4,MP*%
%TO.N,N/C*%
X143891000Y-76708000D03*
X143891000Y-80308000D03*
%TD*%
D10*
%TO.P,C7,1*%
%TO.N,+3V3*%
X157403800Y-90720100D03*
%TO.P,C7,2*%
%TO.N,GND*%
X157403800Y-91855100D03*
%TD*%
D12*
%TO.P,R3,1*%
%TO.N,+3V3*%
X162052000Y-79248000D03*
%TO.P,R3,2*%
%TO.N,Net-(U2-EN{slash}DIAGB)*%
X160227000Y-79248000D03*
%TD*%
D20*
%TO.P,C2,1*%
%TO.N,+12V*%
X151638000Y-84455000D03*
%TO.P,C2,2*%
%TO.N,GND*%
X155138000Y-84455000D03*
%TD*%
D21*
%TO.P,C1,1*%
%TO.N,GND*%
X160433989Y-84891275D03*
%TO.P,C1,2*%
%TO.N,CS*%
X160433989Y-86616275D03*
%TD*%
D22*
%TO.P,U4,1,GND*%
%TO.N,GND*%
X162952000Y-73152000D03*
%TO.P,U4,2,SW*%
%TO.N,Net-(U4-SW)*%
X162952000Y-74102000D03*
%TO.P,U4,3,VIN*%
%TO.N,+12V*%
X162952000Y-75052000D03*
%TO.P,U4,4,FB*%
%TO.N,Net-(U4-FB)*%
X165227000Y-75052000D03*
%TO.P,U4,5,EN*%
%TO.N,unconnected-(U4-EN-Pad5)*%
X165227000Y-74102000D03*
%TO.P,U4,6,BST*%
%TO.N,Net-(U4-BST)*%
X165227000Y-73152000D03*
%TD*%
D18*
%TO.P,J3,1,Pin_1*%
%TO.N,+3V3*%
X147766000Y-84739000D03*
%TO.P,J3,2,Pin_2*%
%TO.N,LIM_A*%
X147766000Y-85739000D03*
D19*
%TO.P,J3,MP*%
%TO.N,N/C*%
X143891000Y-83439000D03*
X143891000Y-87039000D03*
%TD*%
D23*
%TO.P,J1,1,Pin_1*%
%TO.N,CANH*%
X163957000Y-85187000D03*
%TO.P,J1,2,Pin_2*%
%TO.N,CANL*%
X163957000Y-84187000D03*
D24*
%TO.P,J1,MP*%
%TO.N,N/C*%
X167832000Y-86487000D03*
X167832000Y-82887000D03*
%TD*%
D15*
%TO.P,J7,1,1*%
%TO.N,GND*%
X151130000Y-92456000D03*
%TO.P,J7,2,2*%
%TO.N,+12V*%
X147629997Y-92456000D03*
%TD*%
D21*
%TO.P,C3,1*%
%TO.N,Net-(U4-SW)*%
X167513000Y-71273500D03*
%TO.P,C3,2*%
%TO.N,Net-(U4-BST)*%
X167513000Y-72998500D03*
%TD*%
D25*
%TO.P,J5,1,Pin_1*%
%TO.N,+3V3*%
X155702000Y-96647000D03*
D26*
%TO.P,J5,2,Pin_2*%
%TO.N,SWCLK*%
X158242000Y-96647000D03*
%TO.P,J5,3,Pin_3*%
%TO.N,SWDIO*%
X160782000Y-96647000D03*
%TO.P,J5,4,Pin_4*%
%TO.N,GND*%
X163322000Y-96647000D03*
%TD*%
D14*
%TO.P,D1,1,K*%
%TO.N,GND*%
X168021000Y-89662000D03*
%TO.P,D1,2,A*%
%TO.N,Net-(D1-A)*%
X166271000Y-89662000D03*
%TD*%
D10*
%TO.P,C4,1*%
%TO.N,+3V3*%
X159512000Y-90736800D03*
%TO.P,C4,2*%
%TO.N,GND*%
X159512000Y-91871800D03*
%TD*%
D27*
%TO.P,C6,1*%
%TO.N,+3V3*%
X158470600Y-89560400D03*
%TO.P,C6,2*%
%TO.N,GND*%
X158470600Y-88425400D03*
%TD*%
D28*
%TO.N,CS*%
X156794200Y-87172800D03*
%TO.N,GND*%
X168021000Y-89662000D03*
X162952000Y-73152000D03*
X166243000Y-87119000D03*
X149400000Y-64406000D03*
X157759400Y-92938600D03*
X168021000Y-91694000D03*
X156400000Y-64406000D03*
X159639000Y-88646000D03*
X157400000Y-64406000D03*
X163148000Y-77089000D03*
X147400000Y-64406000D03*
X154178000Y-92456000D03*
X160424500Y-84836000D03*
X157632400Y-88392000D03*
X154400000Y-82656000D03*
X144018000Y-72263000D03*
X158877000Y-92913200D03*
X155400000Y-64406000D03*
X168021000Y-93726000D03*
X148400000Y-64406000D03*
%TO.N,+3V3*%
X157403800Y-90720100D03*
X159512000Y-90736800D03*
X167513000Y-77089000D03*
X145415000Y-84201000D03*
X162052000Y-79248000D03*
X162052000Y-81280000D03*
X162921500Y-70485000D03*
X154548280Y-89863999D03*
X144018000Y-69469000D03*
X164973000Y-87119000D03*
X158470600Y-89560400D03*
%TO.N,+12V*%
X143510000Y-88900000D03*
X152400000Y-76200000D03*
X147828000Y-74930000D03*
X148971000Y-74930000D03*
X151130000Y-81280000D03*
X148336000Y-81280000D03*
X147701000Y-80137000D03*
X152400000Y-70104000D03*
X152400000Y-67310000D03*
X146050000Y-91440000D03*
X152400000Y-80010000D03*
X154940000Y-78740000D03*
X151130000Y-80010000D03*
X156210000Y-78486000D03*
X146050000Y-88900000D03*
X153670000Y-81280000D03*
X151130000Y-77470000D03*
X147066000Y-81280000D03*
X151130000Y-76200000D03*
X152400000Y-64406000D03*
X148590000Y-83820000D03*
X146050000Y-87630000D03*
X156210000Y-80010000D03*
X147400000Y-82656000D03*
X143510000Y-85598000D03*
X153670000Y-77470000D03*
X147828000Y-76200000D03*
X152400000Y-77470000D03*
X154940000Y-74930000D03*
X152146000Y-87122000D03*
X153670000Y-78740000D03*
X156210000Y-74930000D03*
X151130000Y-74930000D03*
X156210000Y-76200000D03*
X148400000Y-82656000D03*
X147320000Y-86868000D03*
X152400000Y-72644000D03*
X151130000Y-78740000D03*
X146050000Y-85598000D03*
X148971000Y-77216000D03*
X148590000Y-88900000D03*
X143510000Y-91440000D03*
X148590000Y-87630000D03*
X157988000Y-77347800D03*
X152400000Y-78740000D03*
X154940000Y-81280000D03*
%TO.N,Net-(U2-EN{slash}DIAGA)*%
X155400000Y-82656000D03*
%TO.N,Net-(U2-EN{slash}DIAGB)*%
X151400000Y-82656000D03*
%TO.N,Net-(U2-CS)*%
X152400000Y-82656000D03*
X158599500Y-84836000D03*
%TO.N,CANH*%
X163957000Y-85187000D03*
%TO.N,CANL*%
X163957000Y-84187000D03*
%TO.N,ENC_B*%
X154151922Y-89034562D03*
%TO.N,ENC_A{slash}PWM*%
X162560000Y-86360000D03*
%TO.N,LIM_A*%
X150749000Y-88773000D03*
%TO.N,LIM_B*%
X152908000Y-87884000D03*
%TO.N,Net-(D1-A)*%
X166271000Y-89662000D03*
%TO.N,IN_A*%
X162266792Y-88729142D03*
X156400000Y-82656000D03*
%TO.N,Net-(D2-A)*%
X166271000Y-91694000D03*
%TO.N,Net-(D3-A)*%
X166271000Y-93726000D03*
%TO.N,IN_B*%
X150400000Y-82656000D03*
X156452131Y-85736869D03*
%TO.N,CAN_TX*%
X162179000Y-91186000D03*
X167513000Y-88265000D03*
%TO.N,CAN_RX*%
X163703000Y-87119000D03*
X162369498Y-90169677D03*
%TO.N,/OUTB*%
X147574000Y-62230000D03*
X145542000Y-66294000D03*
X150622000Y-67183000D03*
X150622000Y-70104000D03*
X145542000Y-70104000D03*
X150622000Y-68834000D03*
X150622000Y-71374000D03*
X148082000Y-67183000D03*
X150400000Y-64406000D03*
X148082000Y-66294000D03*
X149098000Y-62230000D03*
X145542000Y-71374000D03*
X145542000Y-67183000D03*
X145400000Y-64406000D03*
X150622000Y-66294000D03*
%TO.N,/OUTA*%
X159258000Y-71374000D03*
X156718000Y-68834000D03*
X159258000Y-72644000D03*
X156718000Y-72644000D03*
X154400000Y-64406000D03*
X159258000Y-70104000D03*
X156718000Y-71374000D03*
X154178000Y-71374000D03*
X159258000Y-66294000D03*
X154178000Y-70104000D03*
X154178000Y-68834000D03*
X154178000Y-67183000D03*
X154178000Y-66294000D03*
X158242000Y-62230000D03*
X155956000Y-62230000D03*
X156718000Y-70104000D03*
X154178000Y-72644000D03*
X156718000Y-67183000D03*
X159258000Y-68834000D03*
X159400000Y-64406000D03*
X159258000Y-67183000D03*
X156718000Y-66294000D03*
%TD*%
D29*
%TO.N,CS*%
X158617627Y-86765147D02*
X157490107Y-86765147D01*
X156794200Y-87172800D02*
X156998026Y-86968973D01*
X158780448Y-86636723D02*
X160433989Y-86616275D01*
X158617627Y-86765147D02*
G75*
G02*
X158780448Y-86636707I167373J-44753D01*
G01*
X156998026Y-86968973D02*
G75*
G02*
X157490107Y-86765136I492074J-492027D01*
G01*
%TO.N,GND*%
X157403800Y-92331552D02*
X157403800Y-91855100D01*
X158470600Y-92045615D02*
X158470600Y-92219431D01*
X144018000Y-72263000D02*
X144024000Y-72268999D01*
X158453900Y-88408700D02*
X158470600Y-88425400D01*
X158644415Y-91871800D02*
X159512000Y-91871800D01*
X158877000Y-92913200D02*
X158673800Y-92710000D01*
X157403800Y-91855100D02*
X156337000Y-91855100D01*
X157581600Y-92760800D02*
X157759400Y-92938600D01*
X144038484Y-72274998D02*
X147766000Y-72275000D01*
X157632400Y-88392000D02*
X158413582Y-88392000D01*
X158644415Y-91871800D02*
G75*
G03*
X158470600Y-92045615I-15J-173800D01*
G01*
X157403800Y-92331552D02*
G75*
G03*
X157581586Y-92760814I607000J-48D01*
G01*
X158470600Y-92219431D02*
G75*
G03*
X158673809Y-92709991I693800J31D01*
G01*
X144038484Y-72274998D02*
G75*
G02*
X144024005Y-72268994I16J20498D01*
G01*
X158413582Y-88392000D02*
G75*
G02*
X158453905Y-88408695I18J-57000D01*
G01*
%TO.N,+3V3*%
X148153499Y-84738999D02*
X148179203Y-84738999D01*
X159512000Y-90736800D02*
X158470600Y-90736800D01*
X144349183Y-69275024D02*
X147766000Y-69275000D01*
X154548280Y-89863999D02*
X154553039Y-89863999D01*
X154561164Y-89867364D02*
X155087534Y-90393734D01*
X145684000Y-84469999D02*
X145415000Y-84201000D01*
X147934045Y-84738999D02*
X147597954Y-84738999D01*
X152867752Y-89425038D02*
X149070626Y-85627913D01*
X146333423Y-84738999D02*
X146662212Y-84738999D01*
X148153499Y-84738999D02*
X148050682Y-84738999D01*
X147319790Y-84738999D02*
X146662212Y-84738999D01*
X148179203Y-84738999D02*
X148230611Y-84739000D01*
X144018000Y-69469000D02*
X144115005Y-69372012D01*
X154548280Y-89863999D02*
X153927496Y-89863999D01*
X147378500Y-78008000D02*
X147766000Y-78008000D01*
X147319790Y-84738999D02*
X147597954Y-84738999D01*
X148050682Y-84738999D02*
X147934045Y-84738999D01*
X156337000Y-90720100D02*
X157403800Y-90720100D01*
X146203000Y-78796001D02*
X146716997Y-78282004D01*
X148742299Y-84940301D02*
X148816573Y-85014575D01*
X156337000Y-90720100D02*
X155875450Y-90720100D01*
X148256315Y-84739000D02*
X148230611Y-84739000D01*
X158470600Y-89560400D02*
X158470600Y-90736800D01*
X145415000Y-80698402D02*
X145415000Y-84201000D01*
X148256315Y-84739000D02*
G75*
G02*
X148742294Y-84940306I-15J-687300D01*
G01*
X148943600Y-85321244D02*
G75*
G03*
X148816596Y-85014552I-433700J44D01*
G01*
X146333423Y-84738999D02*
G75*
G02*
X145683993Y-84470006I-23J918399D01*
G01*
X153927496Y-89863999D02*
G75*
G02*
X152867755Y-89425035I4J1498699D01*
G01*
X148943600Y-85321244D02*
G75*
G03*
X149070647Y-85627892I433700J44D01*
G01*
X144349183Y-69275024D02*
G75*
G03*
X144115020Y-69372027I17J-331176D01*
G01*
X155087534Y-90393734D02*
G75*
G03*
X155875450Y-90720130I787966J787934D01*
G01*
X146203000Y-78796001D02*
G75*
G03*
X145415001Y-80698402I1902400J-1902399D01*
G01*
X154561164Y-89867364D02*
G75*
G03*
X154553039Y-89863974I-8164J-8136D01*
G01*
X147378500Y-78008000D02*
G75*
G03*
X146716998Y-78282005I0J-935500D01*
G01*
%TO.N,+12V*%
X157988000Y-77347800D02*
X157988000Y-77347799D01*
X161617900Y-75052000D02*
X162952000Y-75052000D01*
X157988000Y-77347799D02*
X159340448Y-75995351D01*
X159340448Y-75995351D02*
G75*
G02*
X161617900Y-75051999I2277452J-2277449D01*
G01*
%TO.N,Net-(U2-EN{slash}DIAGA)*%
X157748981Y-81280013D02*
X160227000Y-81280000D01*
X155400000Y-82656000D02*
X156088003Y-81968009D01*
X157748981Y-81280013D02*
G75*
G03*
X156088012Y-81968018I19J-2348987D01*
G01*
%TO.N,Net-(U2-EN{slash}DIAGB)*%
X153214208Y-80841809D02*
X151400000Y-82656000D01*
X157061975Y-79248013D02*
X160227000Y-79248000D01*
X153214208Y-80841809D02*
G75*
G02*
X157061975Y-79248001I3847792J-3847791D01*
G01*
%TO.N,Net-(U2-CS)*%
X158599500Y-84836000D02*
X157825089Y-84061614D01*
X152400000Y-82656000D02*
X152715599Y-82971599D01*
X155955513Y-83287220D02*
X153477524Y-83287202D01*
X155955513Y-83287220D02*
G75*
G02*
X157825098Y-84061605I-13J-2644080D01*
G01*
X153477524Y-83287202D02*
G75*
G02*
X152715590Y-82971608I-24J1077502D01*
G01*
%TO.N,ENC_B*%
X149238994Y-71769001D02*
X149091122Y-71621129D01*
X149732992Y-72961622D02*
X149732988Y-83003879D01*
X152462019Y-86360000D02*
X151974589Y-86360000D01*
X154151922Y-89034562D02*
X154151922Y-88049902D01*
X148255498Y-71275001D02*
X147766000Y-71275000D01*
X149860000Y-84245410D02*
X149860000Y-83310514D01*
X148255498Y-71275001D02*
G75*
G02*
X149091134Y-71621117I2J-1181799D01*
G01*
X153656961Y-86854961D02*
G75*
G02*
X154151914Y-88049902I-1194961J-1194939D01*
G01*
X149796494Y-83157197D02*
G75*
G02*
X149732999Y-83003879I153306J153297D01*
G01*
X149796494Y-83157197D02*
G75*
G02*
X149859997Y-83310514I-153294J-153303D01*
G01*
X151974589Y-86360000D02*
G75*
G02*
X150479352Y-85740648I11J2114600D01*
G01*
X153656961Y-86854961D02*
G75*
G03*
X152462019Y-86359986I-1194961J-1194939D01*
G01*
X149732992Y-72961622D02*
G75*
G03*
X149238998Y-71768997I-1686592J22D01*
G01*
X149860000Y-84245410D02*
G75*
G03*
X150479352Y-85740648I2114600J10D01*
G01*
%TO.N,ENC_A{slash}PWM*%
X154810349Y-76578354D02*
X148768979Y-70536984D01*
X160295772Y-78105000D02*
X158495997Y-78105000D01*
X161163024Y-78972251D02*
X161163024Y-81295723D01*
X161984979Y-85378377D02*
X161984979Y-83280144D01*
X148136498Y-70275001D02*
X147766000Y-70275000D01*
X162272489Y-86072489D02*
X162560000Y-86360000D01*
X161163024Y-78972251D02*
G75*
G03*
X160908982Y-78359042I-867224J-49D01*
G01*
X161574001Y-82287934D02*
G75*
G02*
X161984959Y-83280144I-992201J-992166D01*
G01*
X162272489Y-86072489D02*
G75*
G02*
X161984994Y-85378377I694111J694089D01*
G01*
X154810349Y-76578354D02*
G75*
G03*
X158495997Y-78105000I3685651J3685654D01*
G01*
X161163024Y-81295723D02*
G75*
G03*
X161574022Y-82287913I1403176J23D01*
G01*
X148136498Y-70275001D02*
G75*
G02*
X148768988Y-70536975I2J-894499D01*
G01*
X160909012Y-78359012D02*
G75*
G03*
X160295772Y-78105004I-613212J-613188D01*
G01*
%TO.N,LIM_A*%
X150730943Y-88703984D02*
X147766000Y-85739000D01*
X150748985Y-88747506D02*
X150749000Y-88773000D01*
X150730943Y-88703984D02*
G75*
G02*
X150748960Y-88747506I-43543J-43516D01*
G01*
%TO.N,LIM_B*%
X149224990Y-81580217D02*
X149224990Y-83186966D01*
X148437834Y-79679835D02*
X147766000Y-79008000D01*
X149401800Y-83613823D02*
X149401800Y-84399947D01*
X148658652Y-79919316D02*
X148708284Y-79983998D01*
X151644736Y-87554030D02*
X150046078Y-85955373D01*
X149211780Y-81254736D02*
X149201140Y-81173904D01*
X152908000Y-87884000D02*
X152441353Y-87884000D01*
X148889098Y-80254609D02*
G75*
G03*
X148708284Y-79983998I-2154698J-1243991D01*
G01*
X151644736Y-87554030D02*
G75*
G03*
X152441353Y-87884029I796664J796630D01*
G01*
X149223706Y-81417128D02*
G75*
G02*
X149224990Y-81580217I-10389006J-163372D01*
G01*
X148552254Y-79796059D02*
G75*
G03*
X148437834Y-79679835I-7486854J-7256241D01*
G01*
X148552254Y-79796059D02*
G75*
G02*
X148658650Y-79919317I-1015054J-983741D01*
G01*
X149401800Y-84399947D02*
G75*
G03*
X150046103Y-85955348I2199700J47D01*
G01*
X149033042Y-80546507D02*
G75*
G03*
X148889103Y-80254606I-2298742J-952093D01*
G01*
X149224990Y-83186966D02*
G75*
G03*
X149313383Y-83400407I301810J-34D01*
G01*
X149137653Y-80854697D02*
G75*
G02*
X149201146Y-81173903I-2403053J-643903D01*
G01*
X149223706Y-81417128D02*
G75*
G03*
X149211779Y-81254736I-1414706J-22272D01*
G01*
X149401800Y-83613823D02*
G75*
G03*
X149313400Y-83400390I-301800J23D01*
G01*
X149137653Y-80854697D02*
G75*
G03*
X149033042Y-80546507I-2403253J-643903D01*
G01*
%TO.N,IN_A*%
X161747622Y-88597882D02*
X161616325Y-88466597D01*
X161353733Y-87832677D02*
X161353763Y-84751969D01*
X156400000Y-82656000D02*
X159257807Y-82656012D01*
X162064594Y-88729155D02*
X162266792Y-88729142D01*
X161747622Y-88597882D02*
G75*
G03*
X162064594Y-88729177I316978J316982D01*
G01*
X160739877Y-83269905D02*
G75*
G02*
X161353715Y-84751969I-1482077J-1481995D01*
G01*
X161353733Y-87832677D02*
G75*
G03*
X161616313Y-88466609I896467J-23D01*
G01*
X160739877Y-83269905D02*
G75*
G03*
X159257807Y-82656014I-1482077J-1482095D01*
G01*
%TO.N,IN_B*%
X156452131Y-85736869D02*
X151666451Y-85736869D01*
X150400000Y-82656000D02*
X150400007Y-84470403D01*
X150770939Y-85365928D02*
G75*
G03*
X151666451Y-85736891I895561J895528D01*
G01*
X150770939Y-85365928D02*
G75*
G02*
X150400009Y-84470403I895561J895528D01*
G01*
%TO.N,CAN_TX*%
X162432999Y-91186000D02*
X162179000Y-91186000D01*
X167513000Y-88265000D02*
X166560501Y-88265000D01*
X164934483Y-88938518D02*
X162866602Y-91006396D01*
X162432999Y-91186000D02*
G75*
G03*
X162866601Y-91006395I1J613200D01*
G01*
X166560501Y-88265000D02*
G75*
G03*
X164934490Y-88938525I-1J-2299500D01*
G01*
%TO.N,CAN_RX*%
X163703003Y-87977588D02*
X163703000Y-87119000D01*
X162369498Y-90169677D02*
X163095891Y-89443287D01*
X163703003Y-87977588D02*
G75*
G02*
X163095895Y-89443291I-2072803J-12D01*
G01*
%TO.N,Net-(U4-BST)*%
X167440270Y-72998500D02*
X167513000Y-72998500D01*
X167309250Y-73075250D02*
X167347625Y-73036875D01*
X167123959Y-73152000D02*
X165227000Y-73152000D01*
X167440270Y-72998500D02*
G75*
G03*
X167347644Y-73036894I30J-131000D01*
G01*
X167309250Y-73075250D02*
G75*
G02*
X167123959Y-73151983I-185250J185250D01*
G01*
%TO.N,Net-(U4-SW)*%
X167358864Y-71246364D02*
X166991750Y-70879250D01*
X167386000Y-71235125D02*
X167386000Y-71196750D01*
X163791245Y-73659937D02*
X163349176Y-74102000D01*
X164739900Y-70991586D02*
X165246484Y-70484965D01*
X164233315Y-72214651D02*
X164233315Y-72592699D01*
X166039946Y-70485000D02*
X165246500Y-70485000D01*
X164233315Y-72214651D02*
G75*
G02*
X164739914Y-70991600I1729785J-49D01*
G01*
X167386000Y-71196750D02*
G75*
G03*
X167331706Y-71065752I-185300J-50D01*
G01*
X164233315Y-72592699D02*
G75*
G02*
X163791251Y-73659943I-1509315J-1D01*
G01*
X166039946Y-70485000D02*
G75*
G02*
X166991736Y-70879264I-46J-1346100D01*
G01*
X167386000Y-71235125D02*
G75*
G02*
X167358871Y-71246357I-15900J25D01*
G01*
%TO.N,Net-(U4-FB)*%
X165227000Y-75052000D02*
X167301000Y-75052000D01*
X165227000Y-75052000D02*
X165227000Y-76835000D01*
%TD*%
%TA.AperFunction,Conductor*%
%TO.N,CS*%
G36*
X157204336Y-86693719D02*
G01*
X157210557Y-86700004D01*
X157301024Y-86918399D01*
X157301024Y-86927354D01*
X157300137Y-86929078D01*
X157050016Y-87329270D01*
X157042725Y-87334469D01*
X157033893Y-87332991D01*
X157033621Y-87332815D01*
X156797349Y-87175886D01*
X156792353Y-87168454D01*
X156792339Y-87168385D01*
X156737528Y-86888052D01*
X156739304Y-86879277D01*
X156744641Y-86874956D01*
X157195382Y-86693627D01*
X157204336Y-86693719D01*
G37*
%TD.AperFunction*%
%TD*%
%TA.AperFunction,Conductor*%
%TO.N,GND*%
G36*
X144089077Y-71972962D02*
G01*
X144115308Y-71981739D01*
X144604247Y-72145326D01*
X144611006Y-72151200D01*
X144612235Y-72156421D01*
X144612235Y-72393206D01*
X144608808Y-72401479D01*
X144603791Y-72404444D01*
X144088731Y-72553699D01*
X144079831Y-72552710D01*
X144074237Y-72545717D01*
X144074007Y-72544781D01*
X144045016Y-72401479D01*
X144017470Y-72265318D01*
X144017470Y-72260680D01*
X144073902Y-71981736D01*
X144078901Y-71974310D01*
X144087689Y-71972591D01*
X144089077Y-71972962D01*
G37*
%TD.AperFunction*%
%TD*%
%TA.AperFunction,Conductor*%
%TO.N,+3V3*%
G36*
X154803252Y-89707698D02*
G01*
X154803803Y-89708615D01*
X155058898Y-90181959D01*
X155059806Y-90190868D01*
X155056871Y-90195783D01*
X154889436Y-90363218D01*
X154881163Y-90366645D01*
X154875850Y-90365369D01*
X154393298Y-90119398D01*
X154387483Y-90112588D01*
X154388187Y-90103661D01*
X154388852Y-90102522D01*
X154546265Y-89865262D01*
X154549543Y-89861984D01*
X154787036Y-89704416D01*
X154795823Y-89702698D01*
X154803252Y-89707698D01*
G37*
%TD.AperFunction*%
%TD*%
%TA.AperFunction,Conductor*%
%TO.N,+3V3*%
G36*
X145669179Y-84045226D02*
G01*
X145670099Y-84046891D01*
X145847998Y-84441848D01*
X145848271Y-84450799D01*
X145847058Y-84453153D01*
X145715059Y-84650706D01*
X145707614Y-84655681D01*
X145700511Y-84654867D01*
X145260862Y-84456107D01*
X145254735Y-84449576D01*
X145255021Y-84440626D01*
X145255925Y-84438989D01*
X145412864Y-84202411D01*
X145416137Y-84199138D01*
X145652962Y-84041947D01*
X145661749Y-84040228D01*
X145669179Y-84045226D01*
G37*
%TD.AperFunction*%
%TD*%
%TA.AperFunction,Conductor*%
%TO.N,+3V3*%
G36*
X154486289Y-89574433D02*
G01*
X154492025Y-89581309D01*
X154492325Y-89582476D01*
X154548810Y-89861679D01*
X154548810Y-89866319D01*
X154492325Y-90145521D01*
X154487325Y-90152950D01*
X154478537Y-90154669D01*
X154477370Y-90154369D01*
X153962257Y-89993562D01*
X153955381Y-89987826D01*
X153954044Y-89982394D01*
X153954044Y-89745603D01*
X153957471Y-89737330D01*
X153962257Y-89734435D01*
X154477371Y-89573628D01*
X154486289Y-89574433D01*
G37*
%TD.AperFunction*%
%TD*%
%TA.AperFunction,Conductor*%
%TO.N,+3V3*%
G36*
X145541669Y-83610191D02*
G01*
X145544564Y-83614977D01*
X145705370Y-84130090D01*
X145704565Y-84139009D01*
X145697689Y-84144745D01*
X145696522Y-84145045D01*
X145417320Y-84201530D01*
X145412680Y-84201530D01*
X145133477Y-84145045D01*
X145126048Y-84140045D01*
X145124329Y-84131257D01*
X145124625Y-84130102D01*
X145285436Y-83614976D01*
X145291172Y-83608101D01*
X145296604Y-83606764D01*
X145533396Y-83606764D01*
X145541669Y-83610191D01*
G37*
%TD.AperFunction*%
%TD*%
%TA.AperFunction,Conductor*%
%TO.N,+3V3*%
G36*
X144549762Y-69151624D02*
G01*
X144553557Y-69159735D01*
X144553569Y-69160261D01*
X144553569Y-69396643D01*
X144550142Y-69404916D01*
X144549486Y-69405524D01*
X144194657Y-69709874D01*
X144186147Y-69712659D01*
X144178159Y-69708610D01*
X144177330Y-69707520D01*
X144018320Y-69470963D01*
X144016548Y-69466683D01*
X143962077Y-69188084D01*
X143963853Y-69179309D01*
X143971315Y-69174358D01*
X143973025Y-69174153D01*
X144541343Y-69148573D01*
X144549762Y-69151624D01*
G37*
%TD.AperFunction*%
%TD*%
%TA.AperFunction,Conductor*%
%TO.N,+12V*%
G36*
X158324469Y-76843893D02*
G01*
X158491905Y-77011329D01*
X158495332Y-77019602D01*
X158493995Y-77025034D01*
X158243463Y-77502982D01*
X158236587Y-77508718D01*
X158227668Y-77507913D01*
X158226632Y-77507299D01*
X157989265Y-77349815D01*
X157985984Y-77346534D01*
X157828500Y-77109167D01*
X157826781Y-77100379D01*
X157831781Y-77092950D01*
X157832800Y-77092345D01*
X158310765Y-76841802D01*
X158319683Y-76840998D01*
X158324469Y-76843893D01*
G37*
%TD.AperFunction*%
%TD*%
%TA.AperFunction,Conductor*%
%TO.N,Net-(U2-EN{slash}DIAGA)*%
G36*
X155736473Y-82152097D02*
G01*
X155903908Y-82319535D01*
X155907335Y-82327808D01*
X155905998Y-82333240D01*
X155655463Y-82811182D01*
X155648586Y-82816918D01*
X155639668Y-82816113D01*
X155638632Y-82815499D01*
X155401265Y-82658015D01*
X155397984Y-82654734D01*
X155240500Y-82417368D01*
X155238781Y-82408580D01*
X155243781Y-82401151D01*
X155244812Y-82400539D01*
X155722769Y-82150006D01*
X155731687Y-82149202D01*
X155736473Y-82152097D01*
G37*
%TD.AperFunction*%
%TD*%
%TA.AperFunction,Conductor*%
%TO.N,Net-(U2-EN{slash}DIAGB)*%
G36*
X151736471Y-82152095D02*
G01*
X151903907Y-82319532D01*
X151907334Y-82327805D01*
X151905997Y-82333237D01*
X151655463Y-82811182D01*
X151648586Y-82816918D01*
X151639668Y-82816113D01*
X151638632Y-82815499D01*
X151401265Y-82658015D01*
X151397984Y-82654734D01*
X151240500Y-82417368D01*
X151238781Y-82408580D01*
X151243781Y-82401151D01*
X151244817Y-82400537D01*
X151373208Y-82333237D01*
X151722767Y-82150004D01*
X151731685Y-82149200D01*
X151736471Y-82152095D01*
G37*
%TD.AperFunction*%
%TD*%
%TA.AperFunction,Conductor*%
%TO.N,Net-(U2-CS)*%
G36*
X158276727Y-84330009D02*
G01*
X158754682Y-84580537D01*
X158760418Y-84587413D01*
X158759613Y-84596332D01*
X158758999Y-84597368D01*
X158601515Y-84834734D01*
X158598234Y-84838015D01*
X158360867Y-84995499D01*
X158352079Y-84997218D01*
X158344650Y-84992218D01*
X158344036Y-84991182D01*
X158263745Y-84838015D01*
X158093498Y-84513242D01*
X158092694Y-84504325D01*
X158095587Y-84499540D01*
X158263024Y-84332098D01*
X158271295Y-84328672D01*
X158276727Y-84330009D01*
G37*
%TD.AperFunction*%
%TD*%
%TA.AperFunction,Conductor*%
%TO.N,Net-(U2-CS)*%
G36*
X152654397Y-82500081D02*
G01*
X152655224Y-82501545D01*
X152846035Y-82904589D01*
X152859691Y-82933433D01*
X152860134Y-82942376D01*
X152858844Y-82944939D01*
X152727156Y-83142023D01*
X152719711Y-83146998D01*
X152712177Y-83145978D01*
X152463145Y-83020883D01*
X152245123Y-82911365D01*
X152239269Y-82904589D01*
X152239920Y-82895658D01*
X152240625Y-82894442D01*
X152397864Y-82657411D01*
X152401137Y-82654138D01*
X152638181Y-82496802D01*
X152646967Y-82495083D01*
X152654397Y-82500081D01*
G37*
%TD.AperFunction*%
%TD*%
%TA.AperFunction,Conductor*%
%TO.N,ENC_B*%
G36*
X154278591Y-88443753D02*
G01*
X154281486Y-88448539D01*
X154442292Y-88963652D01*
X154441487Y-88972571D01*
X154434611Y-88978307D01*
X154433444Y-88978607D01*
X154154242Y-89035092D01*
X154149602Y-89035092D01*
X153870399Y-88978607D01*
X153862970Y-88973607D01*
X153861251Y-88964819D01*
X153861547Y-88963664D01*
X154022358Y-88448538D01*
X154028094Y-88441663D01*
X154033526Y-88440326D01*
X154270318Y-88440326D01*
X154278591Y-88443753D01*
G37*
%TD.AperFunction*%
%TD*%
%TA.AperFunction,Conductor*%
%TO.N,ENC_A{slash}PWM*%
G36*
X162317013Y-85934869D02*
G01*
X162627228Y-86067911D01*
X162713774Y-86105028D01*
X162720026Y-86111438D01*
X162719915Y-86120393D01*
X162718910Y-86122251D01*
X162561864Y-86358858D01*
X162558584Y-86362138D01*
X162321902Y-86519146D01*
X162313113Y-86520864D01*
X162305684Y-86515864D01*
X162304823Y-86514326D01*
X162104214Y-86082569D01*
X162103836Y-86073622D01*
X162108323Y-86067912D01*
X162305908Y-85935895D01*
X162314689Y-85934149D01*
X162317013Y-85934869D01*
G37*
%TD.AperFunction*%
%TD*%
%TA.AperFunction,Conductor*%
%TO.N,LIM_A*%
G36*
X150451944Y-88242287D02*
G01*
X150903822Y-88516372D01*
X150905253Y-88517240D01*
X150910549Y-88524461D01*
X150909189Y-88533312D01*
X150908934Y-88533712D01*
X150751015Y-88771734D01*
X150747734Y-88775015D01*
X150511043Y-88932051D01*
X150502255Y-88933770D01*
X150494826Y-88928770D01*
X150493905Y-88927102D01*
X150316756Y-88533312D01*
X150267803Y-88424494D01*
X150267535Y-88415544D01*
X150270199Y-88411425D01*
X150437607Y-88244018D01*
X150445879Y-88240592D01*
X150451944Y-88242287D01*
G37*
%TD.AperFunction*%
%TD*%
%TA.AperFunction,Conductor*%
%TO.N,LIM_B*%
G36*
X152845820Y-87594618D02*
G01*
X152851719Y-87601356D01*
X152852105Y-87602790D01*
X152908510Y-87881873D01*
X152908510Y-87886512D01*
X152852056Y-88165472D01*
X152847056Y-88172901D01*
X152838267Y-88174619D01*
X152837058Y-88174306D01*
X152315838Y-88009337D01*
X152308984Y-88003573D01*
X152307893Y-87995900D01*
X152354092Y-87763687D01*
X152359066Y-87756245D01*
X152361808Y-87754893D01*
X152836886Y-87594026D01*
X152845820Y-87594618D01*
G37*
%TD.AperFunction*%
%TD*%
%TA.AperFunction,Conductor*%
%TO.N,IN_A*%
G36*
X156470900Y-82365626D02*
G01*
X156792464Y-82466013D01*
X156986022Y-82526439D01*
X156992898Y-82532175D01*
X156994235Y-82537607D01*
X156994235Y-82774398D01*
X156990808Y-82782671D01*
X156986021Y-82785566D01*
X156470909Y-82946370D01*
X156461991Y-82945565D01*
X156456255Y-82938688D01*
X156455955Y-82937522D01*
X156399470Y-82658320D01*
X156399470Y-82653680D01*
X156455955Y-82374474D01*
X156460954Y-82367048D01*
X156469742Y-82365329D01*
X156470900Y-82365626D01*
G37*
%TD.AperFunction*%
%TD*%
%TA.AperFunction,Conductor*%
%TO.N,IN_A*%
G36*
X162206265Y-88438558D02*
G01*
X162210359Y-88445335D01*
X162266537Y-88725062D01*
X162264806Y-88733848D01*
X162264773Y-88733898D01*
X162106686Y-88968825D01*
X162099224Y-88973776D01*
X162090447Y-88972000D01*
X162090397Y-88971966D01*
X161637988Y-88664121D01*
X161633076Y-88656634D01*
X161634897Y-88647866D01*
X161636290Y-88646181D01*
X161802963Y-88479493D01*
X161810029Y-88476130D01*
X162197684Y-88436001D01*
X162206265Y-88438558D01*
G37*
%TD.AperFunction*%
%TD*%
%TA.AperFunction,Conductor*%
%TO.N,IN_B*%
G36*
X156390140Y-85447303D02*
G01*
X156395876Y-85454179D01*
X156396176Y-85455346D01*
X156452661Y-85734549D01*
X156452661Y-85739189D01*
X156396176Y-86018391D01*
X156391176Y-86025820D01*
X156382388Y-86027539D01*
X156381221Y-86027239D01*
X155866108Y-85866432D01*
X155859232Y-85860696D01*
X155857895Y-85855264D01*
X155857895Y-85618473D01*
X155861322Y-85610200D01*
X155866108Y-85607305D01*
X156381222Y-85446498D01*
X156390140Y-85447303D01*
G37*
%TD.AperFunction*%
%TD*%
%TA.AperFunction,Conductor*%
%TO.N,IN_B*%
G36*
X150605792Y-82696634D02*
G01*
X150681522Y-82711955D01*
X150688951Y-82716955D01*
X150690670Y-82725743D01*
X150690370Y-82726909D01*
X150529566Y-83242021D01*
X150523830Y-83248898D01*
X150518398Y-83250235D01*
X150281607Y-83250235D01*
X150273334Y-83246808D01*
X150270439Y-83242022D01*
X150109629Y-82726909D01*
X150110434Y-82717990D01*
X150117310Y-82712254D01*
X150118457Y-82711959D01*
X150397682Y-82655470D01*
X150402318Y-82655470D01*
X150605792Y-82696634D01*
G37*
%TD.AperFunction*%
%TD*%
%TA.AperFunction,Conductor*%
%TO.N,CAN_TX*%
G36*
X167451009Y-87975434D02*
G01*
X167456745Y-87982310D01*
X167457045Y-87983477D01*
X167513530Y-88262680D01*
X167513530Y-88267320D01*
X167457045Y-88546522D01*
X167452045Y-88553951D01*
X167443257Y-88555670D01*
X167442090Y-88555370D01*
X166926977Y-88394563D01*
X166920101Y-88388827D01*
X166918764Y-88383395D01*
X166918764Y-88146604D01*
X166922191Y-88138331D01*
X166926977Y-88135436D01*
X167442091Y-87974629D01*
X167451009Y-87975434D01*
G37*
%TD.AperFunction*%
%TD*%
%TA.AperFunction,Conductor*%
%TO.N,CAN_TX*%
G36*
X162686619Y-90981680D02*
G01*
X162694058Y-90986664D01*
X162694454Y-90987302D01*
X162812556Y-91191858D01*
X162813725Y-91200736D01*
X162808274Y-91207840D01*
X162807589Y-91208206D01*
X162354838Y-91430931D01*
X162345901Y-91431508D01*
X162339967Y-91426966D01*
X162180861Y-91190552D01*
X162179085Y-91181778D01*
X162235218Y-90903217D01*
X162240211Y-90895786D01*
X162248984Y-90894058D01*
X162686619Y-90981680D01*
G37*
%TD.AperFunction*%
%TD*%
%TA.AperFunction,Conductor*%
%TO.N,CAN_RX*%
G36*
X163908792Y-87159634D02*
G01*
X163984522Y-87174955D01*
X163991951Y-87179955D01*
X163993670Y-87188743D01*
X163993370Y-87189909D01*
X163832566Y-87705021D01*
X163826830Y-87711898D01*
X163821398Y-87713235D01*
X163584607Y-87713235D01*
X163576334Y-87709808D01*
X163573439Y-87705022D01*
X163412629Y-87189909D01*
X163413434Y-87180990D01*
X163420310Y-87175254D01*
X163421457Y-87174959D01*
X163700682Y-87118470D01*
X163705318Y-87118470D01*
X163908792Y-87159634D01*
G37*
%TD.AperFunction*%
%TD*%
%TA.AperFunction,Conductor*%
%TO.N,CAN_RX*%
G36*
X162705968Y-89665771D02*
G01*
X162873403Y-89833208D01*
X162876830Y-89841481D01*
X162875493Y-89846913D01*
X162624961Y-90324859D01*
X162618085Y-90330595D01*
X162609166Y-90329790D01*
X162608130Y-90329176D01*
X162370763Y-90171692D01*
X162367482Y-90168411D01*
X162209998Y-89931044D01*
X162208279Y-89922256D01*
X162213279Y-89914827D01*
X162214297Y-89914223D01*
X162692264Y-89663680D01*
X162701182Y-89662876D01*
X162705968Y-89665771D01*
G37*
%TD.AperFunction*%
%TD*%
M02*
