M48
; DRILL file {KiCad 9.0.8-9.0.8~ubuntu22.04.1} date 2026-03-23T10:20:48-0500
; FORMAT={-:-/ absolute / inch / decimal}
; #@! TF.CreationDate,2026-03-23T10:20:48-05:00
; #@! TF.GenerationSoftware,Kicad,Pcbnew,9.0.8-9.0.8~ubuntu22.04.1
; #@! TF.FileFunction,Plated,1,4,PTH
FMAT,2
INCH
; #@! TA.AperFunction,Plated,PTH,ViaDrill
T1C0.0118
; #@! TA.AperFunction,Plated,PTH,ComponentDrill
T2C0.0315
; #@! TA.AperFunction,Plated,PTH,ComponentDrill
T3C0.0394
; #@! TA.AperFunction,Plated,PTH,ComponentDrill
T4C0.0570
%
G90
G05
T1
X5.65Y-3.37
X5.65Y-3.5
X5.65Y-3.6
X5.67Y-2.735
X5.67Y-2.845
X5.7244Y-2.5357
X5.725Y-3.315
X5.73Y-2.61
X5.73Y-2.645
X5.73Y-2.76
X5.73Y-2.81
X5.75Y-3.37
X5.75Y-3.45
X5.75Y-3.5
X5.75Y-3.6
X5.79Y-3.2
X5.8Y-3.42
X5.8031Y-2.5357
X5.8031Y-3.2542
X5.81Y-2.45
X5.815Y-3.155
X5.82Y-2.95
X5.82Y-3.0
X5.83Y-2.61
X5.83Y-2.645
X5.84Y-3.2
X5.8425Y-2.5357
X5.8425Y-3.2542
X5.85Y-3.3
X5.85Y-3.45
X5.85Y-3.5
X5.865Y-2.95
X5.865Y-3.04
X5.87Y-2.45
X5.8819Y-2.5357
X5.9213Y-2.5357
X5.9213Y-3.2542
X5.93Y-2.61
X5.93Y-2.645
X5.93Y-2.71
X5.93Y-2.76
X5.93Y-2.81
X5.935Y-3.495
X5.95Y-2.95
X5.95Y-3.0
X5.95Y-3.05
X5.95Y-3.1
X5.95Y-3.15
X5.95Y-3.2
X5.9606Y-3.2542
X5.99Y-3.43
X6.0Y-2.5357
X6.0Y-2.65
X6.0Y-2.76
X6.0Y-2.86
X6.0Y-3.0
X6.0Y-3.05
X6.0Y-3.1
X6.0Y-3.15
X6.0Y-3.2542
X6.02Y-3.46
X6.05Y-3.05
X6.05Y-3.1
X6.05Y-3.2
X6.069Y-3.5053
X6.07Y-2.61
X6.07Y-2.645
X6.07Y-2.71
X6.07Y-2.76
X6.07Y-2.81
X6.07Y-2.86
X6.07Y-3.64
X6.0787Y-2.5357
X6.0787Y-3.2542
X6.0846Y-3.538
X6.1Y-2.95
X6.1Y-3.1
X6.1Y-3.2
X6.1181Y-2.5357
X6.1181Y-3.2542
X6.14Y-2.45
X6.15Y-2.95
X6.15Y-3.0
X6.15Y-3.09
X6.15Y-3.15
X6.1575Y-2.5357
X6.1575Y-3.2542
X6.1595Y-3.3755
X6.17Y-2.61
X6.17Y-2.645
X6.17Y-2.71
X6.17Y-2.76
X6.17Y-2.81
X6.17Y-2.86
X6.173Y-3.432
X6.1969Y-2.5357
X6.197Y-3.5717
X6.206Y-3.48
X6.211Y-3.659
X6.22Y-3.0452
X6.23Y-2.45
X6.239Y-3.526
X6.2441Y-3.34
X6.255Y-3.658
X6.27Y-2.61
X6.27Y-2.645
X6.27Y-2.71
X6.27Y-2.76
X6.27Y-2.81
X6.27Y-2.86
X6.2756Y-2.5357
X6.28Y-3.5723
X6.285Y-3.49
X6.3159Y-3.34
X6.38Y-3.12
X6.38Y-3.2
X6.385Y-3.59
X6.3885Y-3.4933
X6.3925Y-3.55
X6.4Y-3.4
X6.4142Y-2.775
X6.4154Y-2.88
X6.4231Y-3.035
X6.445Y-3.4299
X6.455Y-3.3144
X6.455Y-3.3538
X6.495Y-3.4299
X6.545Y-3.4299
X6.5461Y-3.53
X6.5461Y-3.61
X6.5461Y-3.69
X6.595Y-3.035
X6.595Y-3.475
X6.615Y-3.53
X6.615Y-3.61
X6.615Y-3.69
T2
X5.97Y-3.325
X6.1078Y-3.325
T3
X6.13Y-3.805
X6.23Y-3.805
X6.33Y-3.805
X6.43Y-3.805
T4
X5.8122Y-3.64
X5.9372Y-2.445
X5.95Y-3.64
X6.075Y-2.445
M30
