%TF.GenerationSoftware,KiCad,Pcbnew,9.0.8-9.0.8~ubuntu22.04.1*%
%TF.CreationDate,2026-03-23T11:12:46-05:00*%
%TF.ProjectId,Smart_MoCo,536d6172-745f-44d6-9f43-6f2e6b696361,rev?*%
%TF.SameCoordinates,Original*%
%TF.FileFunction,Soldermask,Top*%
%TF.FilePolarity,Negative*%
%FSLAX46Y46*%
G04 Gerber Fmt 4.6, Leading zero omitted, Abs format (unit mm)*
G04 Created by KiCad (PCBNEW 9.0.8-9.0.8~ubuntu22.04.1) date 2026-03-23 11:12:46*
%MOMM*%
%LPD*%
G01*
G04 APERTURE LIST*
G04 Aperture macros list*
%AMRoundRect*
0 Rectangle with rounded corners*
0 $1 Rounding radius*
0 $2 $3 $4 $5 $6 $7 $8 $9 X,Y pos of 4 corners*
0 Add a 4 corners polygon primitive as box body*
4,1,4,$2,$3,$4,$5,$6,$7,$8,$9,$2,$3,0*
0 Add four circle primitives for the rounded corners*
1,1,$1+$1,$2,$3*
1,1,$1+$1,$4,$5*
1,1,$1+$1,$6,$7*
1,1,$1+$1,$8,$9*
0 Add four rect primitives between the rounded corners*
20,1,$1+$1,$2,$3,$4,$5,0*
20,1,$1+$1,$4,$5,$6,$7,0*
20,1,$1+$1,$6,$7,$8,$9,0*
20,1,$1+$1,$8,$9,$2,$3,0*%
G04 Aperture macros list end*
%ADD10RoundRect,0.155000X-0.155000X0.212500X-0.155000X-0.212500X0.155000X-0.212500X0.155000X0.212500X0*%
%ADD11RoundRect,0.237500X-0.237500X0.250000X-0.237500X-0.250000X0.237500X-0.250000X0.237500X0.250000X0*%
%ADD12R,1.143000X0.990600*%
%ADD13RoundRect,0.237500X0.237500X-0.250000X0.237500X0.250000X-0.237500X0.250000X-0.237500X-0.250000X0*%
%ADD14C,3.098800*%
%ADD15C,1.574800*%
%ADD16C,2.260600*%
%ADD17C,2.946400*%
%ADD18RoundRect,0.237500X0.237500X-0.287500X0.237500X0.287500X-0.237500X0.287500X-0.237500X-0.287500X0*%
%ADD19RoundRect,0.250000X0.725000X-0.600000X0.725000X0.600000X-0.725000X0.600000X-0.725000X-0.600000X0*%
%ADD20O,1.950000X1.700000*%
%ADD21C,1.600000*%
%ADD22RoundRect,0.250000X0.750000X-0.600000X0.750000X0.600000X-0.750000X0.600000X-0.750000X-0.600000X0*%
%ADD23O,2.000000X1.700000*%
%ADD24R,0.711200X0.914400*%
%ADD25R,1.700000X1.700000*%
%ADD26C,1.700000*%
%ADD27RoundRect,0.250000X-0.825000X-0.825000X0.825000X-0.825000X0.825000X0.825000X-0.825000X0.825000X0*%
G04 APERTURE END LIST*
D10*
%TO.C,C7*%
X155000000Y-89436000D03*
X155000000Y-90571000D03*
%TD*%
D11*
%TO.C,R13*%
X143500000Y-84500000D03*
X143500000Y-86325000D03*
%TD*%
D12*
%TO.C,D1*%
X138129800Y-92550000D03*
X141000000Y-92550000D03*
X141000000Y-94000000D03*
X138129800Y-94000000D03*
%TD*%
D13*
%TO.C,R2*%
X155400000Y-80911500D03*
X155400000Y-79086500D03*
%TD*%
D14*
%TO.C,J6*%
X133590001Y-73249999D03*
D15*
X141500000Y-71499999D03*
X141500000Y-75000001D03*
D16*
X133589932Y-69000000D03*
X133589932Y-77499998D03*
%TD*%
D17*
%TO.C,H1*%
X132500000Y-93100000D03*
%TD*%
D18*
%TO.C,D3*%
X146000000Y-94000000D03*
X146000000Y-92250000D03*
%TD*%
D10*
%TO.C,C10*%
X158000000Y-89436000D03*
X158000000Y-90571000D03*
%TD*%
D18*
%TO.C,D2*%
X143500000Y-94000000D03*
X143500000Y-92250000D03*
%TD*%
D19*
%TO.C,J2*%
X162500000Y-73000000D03*
D20*
X162500000Y-70500000D03*
X162500000Y-68000000D03*
X162500000Y-65500000D03*
%TD*%
D14*
%TO.C,J5*%
X133590001Y-84750000D03*
D15*
X141500000Y-83000000D03*
X141500000Y-86500002D03*
D16*
X133589932Y-80500001D03*
X133589932Y-88999999D03*
%TD*%
D10*
%TO.C,C9*%
X157000000Y-89432500D03*
X157000000Y-90567500D03*
%TD*%
D11*
%TO.C,R3*%
X152500000Y-79087500D03*
X152500000Y-80912500D03*
%TD*%
D17*
%TO.C,H2*%
X132500000Y-64900000D03*
%TD*%
D21*
%TO.C,C2*%
X147000000Y-84800000D03*
X150500000Y-84800000D03*
%TD*%
D22*
%TO.C,J3*%
X162555000Y-81500000D03*
D23*
X162555000Y-79000000D03*
%TD*%
D22*
%TO.C,J1*%
X162555000Y-90000000D03*
D23*
X162555000Y-87500000D03*
%TD*%
D24*
%TO.C,D4*%
X144000000Y-77374400D03*
X144000000Y-80625600D03*
%TD*%
D25*
%TO.C,J4*%
X149880000Y-93500000D03*
D26*
X152420000Y-93500000D03*
X154960000Y-93500000D03*
X157500000Y-93500000D03*
%TD*%
D10*
%TO.C,C8*%
X156000000Y-89436000D03*
X156000000Y-90571000D03*
%TD*%
%TO.C,C6*%
X154000000Y-89436000D03*
X154000000Y-90571000D03*
%TD*%
D27*
%TO.C,J7*%
X168900000Y-93800000D03*
%TD*%
M02*
