%TF.GenerationSoftware,KiCad,Pcbnew,9.0.8-9.0.8~ubuntu22.04.1*%
%TF.CreationDate,2026-03-23T10:20:51-05:00*%
%TF.ProjectId,Smart_MoCo,536d6172-745f-44d6-9f43-6f2e6b696361,rev?*%
%TF.SameCoordinates,Original*%
%TF.FileFunction,Copper,L4,Bot*%
%TF.FilePolarity,Positive*%
%FSLAX46Y46*%
G04 Gerber Fmt 4.6, Leading zero omitted, Abs format (unit mm)*
G04 Created by KiCad (PCBNEW 9.0.8-9.0.8~ubuntu22.04.1) date 2026-03-23 10:20:51*
%MOMM*%
%LPD*%
G01*
G04 APERTURE LIST*
G04 Aperture macros list*
%AMRoundRect*
0 Rectangle with rounded corners*
0 $1 Rounding radius*
0 $2 $3 $4 $5 $6 $7 $8 $9 X,Y pos of 4 corners*
0 Add a 4 corners polygon primitive as box body*
4,1,4,$2,$3,$4,$5,$6,$7,$8,$9,$2,$3,0*
0 Add four circle primitives for the rounded corners*
1,1,$1+$1,$2,$3*
1,1,$1+$1,$4,$5*
1,1,$1+$1,$6,$7*
1,1,$1+$1,$8,$9*
0 Add four rect primitives between the rounded corners*
20,1,$1+$1,$2,$3,$4,$5,0*
20,1,$1+$1,$4,$5,$6,$7,0*
20,1,$1+$1,$6,$7,$8,$9,0*
20,1,$1+$1,$8,$9,$2,$3,0*%
G04 Aperture macros list end*
%TA.AperFunction,ComponentPad*%
%ADD10C,1.955800*%
%TD*%
%TA.AperFunction,ComponentPad*%
%ADD11C,1.600000*%
%TD*%
%TA.AperFunction,ComponentPad*%
%ADD12R,1.700000X1.700000*%
%TD*%
%TA.AperFunction,ComponentPad*%
%ADD13C,1.700000*%
%TD*%
%TA.AperFunction,SMDPad,CuDef*%
%ADD14RoundRect,0.237500X-0.250000X-0.237500X0.250000X-0.237500X0.250000X0.237500X-0.250000X0.237500X0*%
%TD*%
%TA.AperFunction,SMDPad,CuDef*%
%ADD15RoundRect,0.150000X0.150000X-0.825000X0.150000X0.825000X-0.150000X0.825000X-0.150000X-0.825000X0*%
%TD*%
%TA.AperFunction,SMDPad,CuDef*%
%ADD16RoundRect,0.100000X-0.637500X-0.100000X0.637500X-0.100000X0.637500X0.100000X-0.637500X0.100000X0*%
%TD*%
%TA.AperFunction,SMDPad,CuDef*%
%ADD17R,0.660000X1.350000*%
%TD*%
%TA.AperFunction,SMDPad,CuDef*%
%ADD18R,10.300000X5.250000*%
%TD*%
%TA.AperFunction,SMDPad,CuDef*%
%ADD19R,6.230000X5.250000*%
%TD*%
%TA.AperFunction,SMDPad,CuDef*%
%ADD20RoundRect,0.237500X0.250000X0.237500X-0.250000X0.237500X-0.250000X-0.237500X0.250000X-0.237500X0*%
%TD*%
%TA.AperFunction,ViaPad*%
%ADD21C,0.600000*%
%TD*%
%TA.AperFunction,Conductor*%
%ADD22C,0.254000*%
%TD*%
G04 APERTURE END LIST*
D10*
%TO.P,J6,1,1*%
%TO.N,/OUTA*%
X154305000Y-62103000D03*
%TO.P,J6,2,2*%
%TO.N,/OUTB*%
X150804997Y-62103000D03*
%TD*%
D11*
%TO.P,C2,1*%
%TO.N,+12V*%
X151638000Y-84455000D03*
%TO.P,C2,2*%
%TO.N,GND*%
X155138000Y-84455000D03*
%TD*%
D10*
%TO.P,J7,1,1*%
%TO.N,GND*%
X151130000Y-92456000D03*
%TO.P,J7,2,2*%
%TO.N,+12V*%
X147629997Y-92456000D03*
%TD*%
D12*
%TO.P,J5,1,Pin_1*%
%TO.N,+3V3*%
X155702000Y-96647000D03*
D13*
%TO.P,J5,2,Pin_2*%
%TO.N,SWCLK*%
X158242000Y-96647000D03*
%TO.P,J5,3,Pin_3*%
%TO.N,SWDIO*%
X160782000Y-96647000D03*
%TO.P,J5,4,Pin_4*%
%TO.N,GND*%
X163322000Y-96647000D03*
%TD*%
D14*
%TO.P,R8,1*%
%TO.N,LED_STATUS*%
X164418000Y-89662000D03*
%TO.P,R8,2*%
%TO.N,Net-(D1-A)*%
X166243000Y-89662000D03*
%TD*%
D15*
%TO.P,U3,1,D*%
%TO.N,CAN_TX*%
X167513000Y-87119000D03*
%TO.P,U3,2,GND*%
%TO.N,GND*%
X166243000Y-87119000D03*
%TO.P,U3,3,VCC*%
%TO.N,+3V3*%
X164973000Y-87119000D03*
%TO.P,U3,4,R*%
%TO.N,CAN_RX*%
X163703000Y-87119000D03*
%TO.P,U3,5,NC*%
%TO.N,unconnected-(U3-NC-Pad5)*%
X163703000Y-82169000D03*
%TO.P,U3,6,CANL*%
%TO.N,CANL*%
X164973000Y-82169000D03*
%TO.P,U3,7,CANH*%
%TO.N,CANH*%
X166243000Y-82169000D03*
%TO.P,U3,8,NC*%
%TO.N,unconnected-(U3-NC-Pad8)*%
X167513000Y-82169000D03*
%TD*%
D16*
%TO.P,U1,1,PB8*%
%TO.N,GND*%
X155438000Y-92464000D03*
%TO.P,U1,2,PF0*%
%TO.N,LED_STATUS*%
X155438000Y-91814000D03*
%TO.P,U1,3,PF1*%
%TO.N,unconnected-(U1-PF1-Pad3)*%
X155438000Y-91164000D03*
%TO.P,U1,4,NRST*%
%TO.N,unconnected-(U1-NRST-Pad4)*%
X155438000Y-90514000D03*
%TO.P,U1,5,VDDA*%
%TO.N,+3V3*%
X155438000Y-89864000D03*
%TO.P,U1,6,PA0*%
%TO.N,CS*%
X155438000Y-89214000D03*
%TO.P,U1,7,PA1*%
%TO.N,ENC_B*%
X155438000Y-88564000D03*
%TO.P,U1,8,PA2*%
%TO.N,LIM_A*%
X155438000Y-87914000D03*
%TO.P,U1,9,PA3*%
%TO.N,LIM_B*%
X155438000Y-87264000D03*
%TO.P,U1,10,PA4*%
%TO.N,PWM*%
X155438000Y-86614000D03*
%TO.P,U1,11,PA5*%
%TO.N,ENC_A{slash}PWM*%
X161163000Y-86614000D03*
%TO.P,U1,12,PA6*%
%TO.N,unconnected-(U1-PA6-Pad12)*%
X161163000Y-87264000D03*
%TO.P,U1,13,PA7*%
%TO.N,IN_B*%
X161163000Y-87914000D03*
%TO.P,U1,14,PB1*%
%TO.N,IN_A*%
X161163000Y-88564000D03*
%TO.P,U1,15,VSSA*%
%TO.N,GND*%
X161163000Y-89214000D03*
%TO.P,U1,16,VDD*%
%TO.N,+3V3*%
X161163000Y-89864000D03*
%TO.P,U1,17,PA9/PA11*%
%TO.N,CAN_RX*%
X161163000Y-90514000D03*
%TO.P,U1,18,PA10/PA12*%
%TO.N,CAN_TX*%
X161163000Y-91164000D03*
%TO.P,U1,19,PA13*%
%TO.N,SWDIO*%
X161163000Y-91814000D03*
%TO.P,U1,20,PA14*%
%TO.N,SWCLK*%
X161163000Y-92464000D03*
%TD*%
D14*
%TO.P,R9,1*%
%TO.N,IN_B*%
X164418000Y-91694000D03*
%TO.P,R9,2*%
%TO.N,Net-(D2-A)*%
X166243000Y-91694000D03*
%TD*%
D17*
%TO.P,U2,1,OUTA*%
%TO.N,/OUTA*%
X159400000Y-82656000D03*
%TO.P,U2,2,NC*%
%TO.N,unconnected-(U2-NC-Pad2)*%
X158400000Y-82656000D03*
%TO.P,U2,3,VCC*%
%TO.N,+12V*%
X157400000Y-82656000D03*
%TO.P,U2,4,INA*%
%TO.N,IN_A*%
X156400000Y-82656000D03*
%TO.P,U2,5,EN/DIAGA*%
%TO.N,Net-(U2-EN{slash}DIAGA)*%
X155400000Y-82656000D03*
%TO.P,U2,6,CS_DIS*%
%TO.N,GND*%
X154400000Y-82656000D03*
%TO.P,U2,7,PWM*%
%TO.N,PWM*%
X153400000Y-82656000D03*
%TO.P,U2,8,CS*%
%TO.N,Net-(U2-CS)*%
X152400000Y-82656000D03*
%TO.P,U2,9,EN/DIAGB*%
%TO.N,Net-(U2-EN{slash}DIAGB)*%
X151400000Y-82656000D03*
%TO.P,U2,10,INB*%
%TO.N,IN_B*%
X150400000Y-82656000D03*
%TO.P,U2,11,CP*%
%TO.N,unconnected-(U2-CP-Pad11)*%
X149400000Y-82656000D03*
%TO.P,U2,12,VBAT*%
%TO.N,+12V*%
X148400000Y-82656000D03*
%TO.P,U2,13,VCC*%
X147400000Y-82656000D03*
%TO.P,U2,14,NC*%
%TO.N,unconnected-(U2-NC-Pad14)*%
X146400000Y-82656000D03*
%TO.P,U2,15,OUTB*%
%TO.N,/OUTB*%
X145400000Y-82656000D03*
%TO.P,U2,16,OUTB*%
X145400000Y-64406000D03*
%TO.P,U2,17,NC*%
%TO.N,unconnected-(U2-NC-Pad17)*%
X146400000Y-64406000D03*
%TO.P,U2,18,GNDB*%
%TO.N,GND*%
X147400000Y-64406000D03*
%TO.P,U2,19,GNDB*%
X148400000Y-64406000D03*
%TO.P,U2,20,GNDB*%
X149400000Y-64406000D03*
%TO.P,U2,21,OUTB*%
%TO.N,/OUTB*%
X150400000Y-64406000D03*
%TO.P,U2,22,NC*%
%TO.N,unconnected-(U2-NC-Pad22)*%
X151400000Y-64406000D03*
%TO.P,U2,23,VCC*%
%TO.N,+12V*%
X152400000Y-64406000D03*
%TO.P,U2,24,NC*%
%TO.N,unconnected-(U2-NC-Pad24)*%
X153400000Y-64406000D03*
%TO.P,U2,25,OUTA*%
%TO.N,/OUTA*%
X154400000Y-64406000D03*
%TO.P,U2,26,GNDA*%
%TO.N,GND*%
X155400000Y-64406000D03*
%TO.P,U2,27,GNDA*%
X156400000Y-64406000D03*
%TO.P,U2,28,GNDA*%
X157400000Y-64406000D03*
%TO.P,U2,29,NC*%
%TO.N,unconnected-(U2-NC-Pad29)*%
X158400000Y-64406000D03*
%TO.P,U2,30,OUTA*%
%TO.N,/OUTA*%
X159400000Y-64406000D03*
D18*
%TO.P,U2,31,VCC*%
%TO.N,+12V*%
X152400000Y-76581000D03*
D19*
%TO.P,U2,32,OUTB*%
%TO.N,/OUTB*%
X148235000Y-70481000D03*
%TO.P,U2,33,OUTA*%
%TO.N,/OUTA*%
X156565000Y-70481000D03*
%TD*%
D14*
%TO.P,R4,1*%
%TO.N,Net-(U2-CS)*%
X158599500Y-84836000D03*
%TO.P,R4,2*%
%TO.N,GND*%
X160424500Y-84836000D03*
%TD*%
%TO.P,R10,1*%
%TO.N,IN_A*%
X164418000Y-93726000D03*
%TO.P,R10,2*%
%TO.N,Net-(D3-A)*%
X166243000Y-93726000D03*
%TD*%
D20*
%TO.P,R5,1*%
%TO.N,CANH*%
X166544000Y-79629000D03*
%TO.P,R5,2*%
%TO.N,CANL*%
X164719000Y-79629000D03*
%TD*%
D21*
%TO.N,CS*%
X156794200Y-87172800D03*
%TO.N,GND*%
X168021000Y-89662000D03*
X162952000Y-73152000D03*
X166243000Y-87119000D03*
X149400000Y-64406000D03*
X157759400Y-92938600D03*
X168021000Y-91694000D03*
X156400000Y-64406000D03*
X159639000Y-88646000D03*
X157400000Y-64406000D03*
X163148000Y-77089000D03*
X147400000Y-64406000D03*
X154178000Y-92456000D03*
X160424500Y-84836000D03*
X157632400Y-88392000D03*
X154400000Y-82656000D03*
X144018000Y-72263000D03*
X158877000Y-92913200D03*
X155400000Y-64406000D03*
X168021000Y-93726000D03*
X148400000Y-64406000D03*
%TO.N,+3V3*%
X157403800Y-90720100D03*
X159512000Y-90736800D03*
X167513000Y-77089000D03*
X145415000Y-84201000D03*
X162052000Y-79248000D03*
X162052000Y-81280000D03*
X162921500Y-70485000D03*
X154548280Y-89863999D03*
X144018000Y-69469000D03*
X164973000Y-87119000D03*
X158470600Y-89560400D03*
%TO.N,+12V*%
X143510000Y-88900000D03*
X152400000Y-76200000D03*
X147828000Y-74930000D03*
X148971000Y-74930000D03*
X151130000Y-81280000D03*
X148336000Y-81280000D03*
X147701000Y-80137000D03*
X152400000Y-70104000D03*
X152400000Y-67310000D03*
X146050000Y-91440000D03*
X152400000Y-80010000D03*
X154940000Y-78740000D03*
X151130000Y-80010000D03*
X156210000Y-78486000D03*
X146050000Y-88900000D03*
X153670000Y-81280000D03*
X151130000Y-77470000D03*
X147066000Y-81280000D03*
X151130000Y-76200000D03*
X152400000Y-64406000D03*
X148590000Y-83820000D03*
X146050000Y-87630000D03*
X156210000Y-80010000D03*
X147400000Y-82656000D03*
X143510000Y-85598000D03*
X153670000Y-77470000D03*
X147828000Y-76200000D03*
X152400000Y-77470000D03*
X154940000Y-74930000D03*
X152146000Y-87122000D03*
X153670000Y-78740000D03*
X156210000Y-74930000D03*
X151130000Y-74930000D03*
X156210000Y-76200000D03*
X148400000Y-82656000D03*
X147320000Y-86868000D03*
X152400000Y-72644000D03*
X151130000Y-78740000D03*
X146050000Y-85598000D03*
X148971000Y-77216000D03*
X148590000Y-88900000D03*
X143510000Y-91440000D03*
X148590000Y-87630000D03*
X157988000Y-77347800D03*
X152400000Y-78740000D03*
X154940000Y-81280000D03*
%TO.N,Net-(U2-EN{slash}DIAGA)*%
X155400000Y-82656000D03*
%TO.N,Net-(U2-EN{slash}DIAGB)*%
X151400000Y-82656000D03*
%TO.N,Net-(U2-CS)*%
X152400000Y-82656000D03*
X158599500Y-84836000D03*
%TO.N,CANH*%
X163957000Y-85187000D03*
%TO.N,CANL*%
X163957000Y-84187000D03*
%TO.N,ENC_B*%
X154151922Y-89034562D03*
%TO.N,ENC_A{slash}PWM*%
X162560000Y-86360000D03*
%TO.N,LIM_A*%
X150749000Y-88773000D03*
%TO.N,LIM_B*%
X152908000Y-87884000D03*
%TO.N,Net-(D1-A)*%
X166271000Y-89662000D03*
%TO.N,IN_A*%
X162266792Y-88729142D03*
X156400000Y-82656000D03*
%TO.N,Net-(D2-A)*%
X166271000Y-91694000D03*
%TO.N,Net-(D3-A)*%
X166271000Y-93726000D03*
%TO.N,IN_B*%
X150400000Y-82656000D03*
X156452131Y-85736869D03*
%TO.N,CAN_TX*%
X162179000Y-91186000D03*
X167513000Y-88265000D03*
%TO.N,CAN_RX*%
X163703000Y-87119000D03*
X162369498Y-90169677D03*
%TO.N,/OUTB*%
X147574000Y-62230000D03*
X145542000Y-66294000D03*
X150622000Y-67183000D03*
X150622000Y-70104000D03*
X145542000Y-70104000D03*
X150622000Y-68834000D03*
X150622000Y-71374000D03*
X148082000Y-67183000D03*
X150400000Y-64406000D03*
X148082000Y-66294000D03*
X149098000Y-62230000D03*
X145542000Y-71374000D03*
X145542000Y-67183000D03*
X145400000Y-64406000D03*
X150622000Y-66294000D03*
%TO.N,/OUTA*%
X159258000Y-71374000D03*
X156718000Y-68834000D03*
X159258000Y-72644000D03*
X156718000Y-72644000D03*
X154400000Y-64406000D03*
X159258000Y-70104000D03*
X156718000Y-71374000D03*
X154178000Y-71374000D03*
X159258000Y-66294000D03*
X154178000Y-70104000D03*
X154178000Y-68834000D03*
X154178000Y-67183000D03*
X154178000Y-66294000D03*
X158242000Y-62230000D03*
X155956000Y-62230000D03*
X156718000Y-70104000D03*
X154178000Y-72644000D03*
X156718000Y-67183000D03*
X159258000Y-68834000D03*
X159400000Y-64406000D03*
X159258000Y-67183000D03*
X156718000Y-66294000D03*
%TD*%
D22*
%TO.N,SWCLK*%
X158242000Y-96647000D02*
X158242000Y-95760333D01*
%TO.N,CS*%
X156171447Y-89214000D02*
X155438000Y-89214000D01*
X156794200Y-88591247D02*
X156794200Y-87172800D01*
X156171447Y-89214000D02*
G75*
G03*
X156611786Y-89031586I-47J622800D01*
G01*
X156794200Y-88591247D02*
G75*
G02*
X156611786Y-89031586I-622800J47D01*
G01*
%TO.N,GND*%
X159639000Y-88646000D02*
X160192335Y-89199335D01*
X160365568Y-89271091D02*
X160467045Y-89271091D01*
X154191656Y-92464000D02*
X155438000Y-92464000D01*
X154182000Y-92460000D02*
X154178000Y-92456000D01*
X154182000Y-92460000D02*
G75*
G03*
X154191656Y-92464018I9700J9700D01*
G01*
X160365568Y-89271091D02*
G75*
G02*
X160192350Y-89199320I32J244991D01*
G01*
%TO.N,+3V3*%
X159512000Y-90428886D02*
X159512000Y-90736800D01*
X154548280Y-89863999D02*
X155438000Y-89864000D01*
X161160951Y-89865200D02*
X160075686Y-89865200D01*
X161162400Y-89864600D02*
X161163000Y-89864000D01*
X159677100Y-90030300D02*
G75*
G02*
X160075686Y-89865194I398600J-398600D01*
G01*
X159677100Y-90030300D02*
G75*
G03*
X159511994Y-90428886I398600J-398600D01*
G01*
X161160951Y-89865200D02*
G75*
G03*
X161162433Y-89864636I49J2100D01*
G01*
%TO.N,SWCLK*%
X161163000Y-93679029D02*
X161163000Y-92464000D01*
X160252429Y-94589600D02*
X159412733Y-94589600D01*
X158242000Y-95760333D02*
G75*
G02*
X158584890Y-94932490I1170700J33D01*
G01*
X161163000Y-93679029D02*
G75*
G02*
X160896291Y-94322891I-910600J29D01*
G01*
X160252429Y-94589600D02*
G75*
G03*
X160896291Y-94322891I-29J910600D01*
G01*
X159412733Y-94589600D02*
G75*
G03*
X158584890Y-94932490I-33J-1170700D01*
G01*
%TO.N,SWDIO*%
X162231693Y-92379396D02*
X162231692Y-94172198D01*
X161506845Y-95922145D02*
X160782000Y-96647000D01*
X161666292Y-91813997D02*
X161163000Y-91814000D01*
X162066091Y-91979598D02*
G75*
G03*
X161666292Y-91814002I-399791J-399802D01*
G01*
X161506845Y-95922145D02*
G75*
G03*
X162231696Y-94172198I-1749945J1749945D01*
G01*
X162066091Y-91979598D02*
G75*
G02*
X162231698Y-92379396I-399791J-399802D01*
G01*
%TO.N,CANH*%
X166243000Y-79930000D02*
X166243000Y-82169000D01*
X163957000Y-85187000D02*
X166243000Y-82901000D01*
%TO.N,CANL*%
X164972998Y-81021144D02*
X164972998Y-81022121D01*
X164972999Y-81501229D02*
X164972999Y-81502624D01*
X164972998Y-81034172D02*
X164972998Y-81037373D01*
X164972999Y-81398260D02*
X164972999Y-81398528D01*
X164972999Y-80309638D02*
X164972999Y-80307964D01*
X164972999Y-81562571D02*
X164972999Y-81563518D01*
X164972999Y-81930034D02*
X164972999Y-81931698D01*
X164972999Y-81637851D02*
X164972999Y-81638386D01*
X164972999Y-81624533D02*
X164972999Y-81624729D01*
X164972998Y-80743130D02*
X164972998Y-80743504D01*
X164972998Y-80747419D02*
X164972998Y-80747471D01*
X164972998Y-80719140D02*
X164972998Y-80719299D01*
X164972998Y-80722586D02*
X164972998Y-80722807D01*
X164972998Y-81095920D02*
X164972998Y-81095516D01*
X164972998Y-80890057D02*
X164972998Y-80893717D01*
X164972999Y-81871563D02*
X164972999Y-81878185D01*
X164972999Y-82197196D02*
X164972999Y-82198217D01*
X164972998Y-80742756D02*
X164972998Y-80743130D01*
X164972999Y-81946362D02*
X164972999Y-81954353D01*
X164972999Y-81393421D02*
X164972999Y-81393689D01*
X164972999Y-81531471D02*
X164972999Y-81531859D01*
X164972999Y-81612883D02*
X164972999Y-81612932D01*
X164972999Y-81338081D02*
X164972999Y-81338105D01*
X164972998Y-80556346D02*
X164972998Y-80556051D01*
X164972999Y-81389890D02*
X164972999Y-81393153D01*
X164972998Y-80654864D02*
X164972998Y-80655106D01*
X164972998Y-80913746D02*
X164972998Y-80915059D01*
X164972999Y-81488702D02*
X164972999Y-81488852D01*
X164972999Y-82049549D02*
X164972999Y-82057537D01*
X164972998Y-81317351D02*
X164972998Y-81317703D01*
X164973003Y-82487112D02*
X164973003Y-82489584D01*
X164972998Y-81278116D02*
X164972998Y-81278848D01*
X164972998Y-81254222D02*
X164972998Y-81259863D01*
X164972998Y-80718915D02*
X164972998Y-80719118D01*
X164972999Y-81635906D02*
X164972999Y-81635226D01*
X164972998Y-81318381D02*
X164972998Y-81318055D01*
X164972998Y-80348376D02*
X164972998Y-80351283D01*
X164972999Y-81621659D02*
X164972999Y-81622730D01*
X164972999Y-81796732D02*
X164972999Y-81800209D01*
X164972999Y-81723801D02*
X164972999Y-81711659D01*
X164972998Y-80714207D02*
X164972998Y-80713918D01*
X164972999Y-81785853D02*
X164972999Y-81787810D01*
X164972999Y-81626549D02*
X164972999Y-81625723D01*
X164972998Y-81061223D02*
X164972998Y-81064387D01*
X164972998Y-80684947D02*
X164972998Y-80686662D01*
X164972999Y-81442649D02*
X164972999Y-81441420D01*
X164972999Y-81579192D02*
X164972999Y-81582990D01*
X164972999Y-82145113D02*
X164972999Y-82179495D01*
X164972998Y-80661646D02*
X164972998Y-80659547D01*
X164972998Y-80711946D02*
X164972998Y-80711780D01*
X164972998Y-80610623D02*
X164972998Y-80610761D01*
X164972998Y-80514422D02*
X164972998Y-80511171D01*
X164972999Y-81908826D02*
X164972999Y-81912722D01*
X164972998Y-81069975D02*
X164972998Y-81071659D01*
X164972998Y-81333530D02*
X164972998Y-81334052D01*
X164973003Y-82513585D02*
X164973004Y-82514652D01*
X164972998Y-80820117D02*
X164972998Y-80825366D01*
X164972999Y-81385752D02*
X164972999Y-81386185D01*
X164972999Y-81752793D02*
X164972999Y-81752295D01*
X164972998Y-80916086D02*
X164972998Y-80915059D01*
X164972999Y-80268988D02*
X164972999Y-80269927D01*
X164972999Y-81341322D02*
X164972999Y-81341912D01*
X164972998Y-80694958D02*
X164972998Y-80696883D01*
X164972998Y-80999494D02*
X164972998Y-80998561D01*
X164972998Y-80425053D02*
X164972998Y-80428100D01*
X164972998Y-80722242D02*
X164972998Y-80722586D01*
X164973000Y-82285357D02*
X164973000Y-82290240D01*
X164972998Y-80721478D02*
X164972998Y-80721602D01*
X164972998Y-80724427D02*
X164972998Y-80724538D01*
X164972999Y-81486317D02*
X164972999Y-81486859D01*
X164972999Y-82029785D02*
X164972999Y-82039667D01*
X164972999Y-81496273D02*
X164972999Y-81496447D01*
X164972998Y-80765106D02*
X164972998Y-80768010D01*
X164972998Y-80686662D02*
X164972998Y-80688377D01*
X164972999Y-81535973D02*
X164972999Y-81536447D01*
X164972998Y-80715529D02*
X164972998Y-80715434D01*
X164972999Y-81559962D02*
X164972999Y-81560677D01*
X164972998Y-80757145D02*
X164972998Y-80757758D01*
X164972999Y-81931698D02*
X164972999Y-81933833D01*
X164972998Y-80684947D02*
X164972998Y-80684281D01*
X164972998Y-80999494D02*
X164972998Y-81005007D01*
X164972998Y-80661646D02*
X164972998Y-80661889D01*
X164972998Y-80870924D02*
X164972998Y-80871822D01*
X164972999Y-81352145D02*
X164972999Y-81356983D01*
X164972999Y-81545471D02*
X164972999Y-81545708D01*
X164972998Y-81337006D02*
X164972998Y-81337144D01*
X164972998Y-80745417D02*
X164972998Y-80745522D01*
X164972998Y-81052443D02*
X164972998Y-81061223D01*
X164972998Y-80795459D02*
X164972998Y-80797535D01*
X164972998Y-80495702D02*
X164972998Y-80496798D01*
X164972998Y-81064387D02*
X164972998Y-81067551D01*
X164972998Y-81231260D02*
X164972998Y-81230850D01*
X164972998Y-80470084D02*
X164972998Y-80471785D01*
X164972999Y-81344351D02*
X164972999Y-81345422D01*
X164972998Y-80751617D02*
X164972998Y-80751752D01*
X164972998Y-80447585D02*
X164972998Y-80447405D01*
X164972998Y-81103033D02*
X164972998Y-81110146D01*
X164972999Y-80268049D02*
X164972999Y-80268988D01*
X164972998Y-80558559D02*
X164972998Y-80559975D01*
X164972999Y-81612981D02*
X164972999Y-81614804D01*
X164972999Y-81871563D02*
X164972999Y-81851406D01*
X164972999Y-81432528D02*
X164972999Y-81435492D01*
X164972999Y-81514145D02*
X164972999Y-81514172D01*
X164972998Y-80698896D02*
X164972998Y-80699596D01*
X164972998Y-80745312D02*
X164972998Y-80745152D01*
X164972999Y-81421457D02*
X164972999Y-81424246D01*
X164972999Y-81611011D02*
X164972999Y-81612883D01*
X164972998Y-80338435D02*
X164972998Y-80341830D01*
X164972998Y-80396638D02*
X164972998Y-80413078D01*
X164972999Y-81569579D02*
X164972999Y-81569815D01*
X164972998Y-80719299D02*
X164972998Y-80719458D01*
X164972999Y-81630754D02*
X164972999Y-81632115D01*
X164972999Y-81514118D02*
X164972999Y-81514145D01*
X164972998Y-80730234D02*
X164972998Y-80730824D01*
X164972999Y-82067417D02*
X164972999Y-82069310D01*
X164972999Y-81497044D02*
X164972999Y-81497641D01*
X164972998Y-80355533D02*
X164972998Y-80362543D01*
X164972998Y-80786665D02*
X164972998Y-80785820D01*
X164972998Y-80740264D02*
X164972998Y-80738422D01*
X164972998Y-80893717D02*
X164972998Y-80895029D01*
X164972998Y-80723421D02*
X164972998Y-80723028D01*
X164972998Y-80722022D02*
X164972998Y-80721974D01*
X164972998Y-80865354D02*
X164972998Y-80863498D01*
X164972999Y-81922812D02*
X164972999Y-81921157D01*
X164972998Y-80873263D02*
X164972998Y-80873452D01*
X164972998Y-80842498D02*
X164972998Y-80847748D01*
X164972999Y-81386185D02*
X164972999Y-81386391D01*
X164973001Y-82349602D02*
X164973001Y-82351509D01*
X164972999Y-81560977D02*
X164972999Y-81560677D01*
X164972998Y-80612695D02*
X164972998Y-80612487D01*
X164973001Y-82373408D02*
X164973001Y-82381343D01*
X164972999Y-81484693D02*
X164972999Y-81485017D01*
X164972998Y-80458100D02*
X164972998Y-80460336D01*
X164972998Y-81110146D02*
X164972998Y-81128341D01*
X164972998Y-81241413D02*
X164972998Y-81239128D01*
X164972998Y-81027057D02*
X164972998Y-81028836D01*
X164972998Y-80717768D02*
X164972998Y-80717847D01*
X164972998Y-80464273D02*
X164972998Y-80465440D01*
X164972998Y-80464273D02*
X164972998Y-80462572D01*
X164972998Y-80895029D02*
X164972998Y-80896341D01*
X164972999Y-80271290D02*
X164972999Y-80269927D01*
X164972999Y-81357777D02*
X164972999Y-81361026D01*
X164972998Y-81325379D02*
X164972998Y-81326802D01*
X164972999Y-81340584D02*
X164972999Y-81340842D01*
X164972998Y-81319158D02*
X164972998Y-81319497D01*
X164972999Y-81338105D02*
X164972999Y-81338154D01*
X164972998Y-80614422D02*
X164972998Y-80614215D01*
X164972999Y-82040140D02*
X164972999Y-82039667D01*
X164972999Y-82145113D02*
X164972999Y-82135130D01*
X164972998Y-81202344D02*
X164972998Y-81203416D01*
X164972998Y-80470084D02*
X164972998Y-80469769D01*
X164972998Y-80601678D02*
X164972998Y-80601851D01*
X164972998Y-81296201D02*
X164972998Y-81295065D01*
X164973000Y-80266210D02*
X164972999Y-80267133D01*
X164972999Y-81943993D02*
X164972999Y-81946362D01*
X164972999Y-80302580D02*
X164972999Y-80304435D01*
X164972998Y-80880453D02*
X164972998Y-80880903D01*
X164972998Y-80791737D02*
X164972998Y-80792716D01*
X164972999Y-81926423D02*
X164972999Y-81930034D01*
X164972999Y-81479711D02*
X164972999Y-81479945D01*
X164972999Y-81800209D02*
X164972999Y-81802385D01*
X164972999Y-81507607D02*
X164972999Y-81508081D01*
X164973003Y-82492189D02*
X164973003Y-82494395D01*
X164972998Y-81137442D02*
X164972998Y-81148709D01*
X164972998Y-80626005D02*
X164972998Y-80625647D01*
X164973003Y-82473784D02*
X164973003Y-82475769D01*
X164972998Y-81034172D02*
X164972998Y-81031860D01*
X164972998Y-80719458D02*
X164972998Y-80719617D01*
X164972998Y-80746271D02*
X164972998Y-80747019D01*
X164972998Y-81233148D02*
X164972998Y-81232612D01*
X164972999Y-82019903D02*
X164972999Y-82029785D01*
X164972999Y-80276810D02*
X164972999Y-80276855D01*
X164972998Y-81335796D02*
X164972998Y-81335935D01*
X164972998Y-80550912D02*
X164972998Y-80552638D01*
X164972998Y-80730824D02*
X164972998Y-80731414D01*
X164972999Y-81935835D02*
X164972999Y-81936102D01*
X164972998Y-80508911D02*
X164972998Y-80510041D01*
X164972998Y-80702311D02*
X164972998Y-80703537D01*
X164972998Y-81336074D02*
X164972998Y-81336868D01*
X164972998Y-81318911D02*
X164972998Y-81318963D01*
X164972998Y-80642104D02*
X164972998Y-80642346D01*
X164972998Y-81319497D02*
X164972998Y-81319889D01*
X164972998Y-81310774D02*
X164972998Y-81311845D01*
X164972998Y-80718169D02*
X164972998Y-80718734D01*
X164972999Y-81386391D02*
X164972999Y-81386597D01*
X164972999Y-82276964D02*
X164973000Y-82280932D01*
X164972998Y-80649364D02*
X164972998Y-80649393D01*
X164972998Y-81315202D02*
X164972998Y-81315346D01*
X164973003Y-82508784D02*
X164973003Y-82509404D01*
X164972998Y-80488818D02*
X164972998Y-80489445D01*
X164972999Y-81935301D02*
X164972999Y-81935568D01*
X164972999Y-81622730D02*
X164972999Y-81623605D01*
X164972999Y-81501229D02*
X164972999Y-81501080D01*
X164972998Y-80945516D02*
X164972998Y-80950290D01*
X164972998Y-80869516D02*
X164972998Y-80870155D01*
X164972999Y-81823450D02*
X164972999Y-81827984D01*
X164972998Y-81129728D02*
X164972998Y-81131115D01*
X164972998Y-80783092D02*
X164972998Y-80784456D01*
X164973000Y-82326102D02*
X164973000Y-82335945D01*
X164972999Y-81634058D02*
X164972999Y-81633961D01*
X164972999Y-81914235D02*
X164972999Y-81921157D01*
X164972999Y-81499037D02*
X164972999Y-81498688D01*
X164972998Y-80493197D02*
X164972998Y-80495702D01*
X164972999Y-81348987D02*
X164972999Y-81350464D01*
X164973000Y-82337929D02*
X164973000Y-82343804D01*
X164972999Y-80309819D02*
X164972999Y-80309910D01*
X164972998Y-81289307D02*
X164972998Y-81289751D01*
X164972999Y-81493533D02*
X164972999Y-81494380D01*
X164972998Y-81277358D02*
X164972998Y-81278010D01*
X164972998Y-80711946D02*
X164972998Y-80712326D01*
X164972998Y-80750647D02*
X164972998Y-80750323D01*
X164972999Y-81508555D02*
X164972999Y-81509208D01*
X164972999Y-80271290D02*
X164972999Y-80274955D01*
X164972998Y-80648164D02*
X164972998Y-80648406D01*
X164972998Y-80712620D02*
X164972998Y-80713269D01*
X164972999Y-81619909D02*
X164972999Y-81620784D01*
X164972998Y-81037373D02*
X164972998Y-81040574D01*
X164972998Y-81309703D02*
X164972998Y-81310774D01*
X164972998Y-80548286D02*
X164972998Y-80549599D01*
X164972999Y-81587711D02*
X164972999Y-81590263D01*
X164972998Y-80500086D02*
X164972998Y-80501964D01*
X164972999Y-81620784D02*
X164972999Y-81621659D01*
X164972999Y-81338256D02*
X164972999Y-81338509D01*
X164972998Y-81089212D02*
X164972998Y-81095516D01*
X164972998Y-80897653D02*
X164972998Y-80898965D01*
X164972999Y-80276765D02*
X164972999Y-80276810D01*
X164972998Y-81318682D02*
X164972998Y-81318807D01*
X164972999Y-81847869D02*
X164972999Y-81827984D01*
X164972998Y-80784456D02*
X164972998Y-80785820D01*
X164972998Y-80611382D02*
X164972998Y-80612487D01*
X164972999Y-81526743D02*
X164972999Y-81526664D01*
X164972999Y-81532109D02*
X164972999Y-81532222D01*
X164973001Y-82351509D02*
X164973001Y-82352063D01*
X164972999Y-81681315D02*
X164972999Y-81682674D01*
X164973001Y-82365473D02*
X164973001Y-82373408D01*
X164972998Y-81323238D02*
X164972998Y-81323956D01*
X164972998Y-81329687D02*
X164972998Y-81331060D01*
X164972998Y-80666900D02*
X164972998Y-80667142D01*
X164972999Y-80284767D02*
X164972999Y-80285616D01*
X164972998Y-80656236D02*
X164972998Y-80656801D01*
X164972998Y-80486941D02*
X164972998Y-80486315D01*
X164972998Y-81049185D02*
X164972998Y-81050814D01*
X164972998Y-80607101D02*
X164972998Y-80607791D01*
X164972998Y-80780159D02*
X164972998Y-80783092D01*
X164972998Y-80799121D02*
X164972998Y-80804370D01*
X164972999Y-81937287D02*
X164972999Y-81936369D01*
X164972998Y-80734842D02*
X164972998Y-80735377D01*
X164972998Y-80599813D02*
X164972998Y-80598121D01*
X164972998Y-81073240D02*
X164972998Y-81074719D01*
X164972998Y-80731983D02*
X164972998Y-80733711D01*
X164973002Y-82467912D02*
X164973002Y-82470373D01*
X164972998Y-81241413D02*
X164972998Y-81247394D01*
X164972998Y-80653733D02*
X164972998Y-80653843D01*
X164972998Y-81319158D02*
X164972998Y-81319015D01*
X164972998Y-81337881D02*
X164972998Y-81338032D01*
X164972998Y-80642346D02*
X164972998Y-80644145D01*
X164972998Y-80622071D02*
X164972998Y-80623263D01*
X164972999Y-81381468D02*
X164972999Y-81382539D01*
X164972999Y-81482905D02*
X164972999Y-81483989D01*
X164972998Y-80467629D02*
X164972998Y-80468699D01*
X164972998Y-81331060D02*
X164972998Y-81332433D01*
X164972998Y-80450090D02*
X164972998Y-80452595D01*
X164972998Y-80608619D02*
X164972998Y-80609448D01*
X164972998Y-80698196D02*
X164972998Y-80698896D01*
X164973003Y-82509404D02*
X164973003Y-82511124D01*
X164972999Y-81388614D02*
X164972999Y-81389890D01*
X164972998Y-80751752D02*
X164972998Y-80751887D01*
X164972998Y-80703882D02*
X164972998Y-80705108D01*
X164972999Y-82092593D02*
X164972999Y-82099631D01*
X164972999Y-81442649D02*
X164972999Y-81448072D01*
X164972998Y-80608239D02*
X164972998Y-80608619D01*
X164972998Y-80760555D02*
X164972998Y-80761168D01*
X164972999Y-81429563D02*
X164972999Y-81430783D01*
X164972998Y-80635126D02*
X164972998Y-80636197D01*
X164973003Y-82501401D02*
X164973003Y-82503364D01*
X164972999Y-81592815D02*
X164972999Y-81595367D01*
X164973000Y-82337929D02*
X164973000Y-82335945D01*
X164972998Y-81337579D02*
X164972998Y-81337144D01*
X164972998Y-80775820D02*
X164972998Y-80774516D01*
X164972998Y-80792716D02*
X164972998Y-80792775D01*
X164972999Y-81339973D02*
X164972999Y-81340122D01*
X164972998Y-80882553D02*
X164972998Y-80884504D01*
X164972998Y-80875179D02*
X164972998Y-80876267D01*
X164972998Y-80744127D02*
X164972998Y-80744726D01*
X164972998Y-81315042D02*
X164972998Y-81315202D01*
X164972998Y-80655752D02*
X164972998Y-80655106D01*
X164972999Y-81766939D02*
X164972999Y-81771072D01*
X164972998Y-80748723D02*
X164972998Y-80749164D01*
X164973000Y-82280932D02*
X164973000Y-82284900D01*
X164972998Y-80950290D02*
X164972998Y-80955064D01*
X164972999Y-81565420D02*
X164972999Y-81566370D01*
X164972999Y-81387338D02*
X164972999Y-81388614D01*
X164972999Y-82260710D02*
X164972999Y-82252595D01*
X164972999Y-81850227D02*
X164972999Y-81851406D01*
X164972999Y-81607218D02*
X164972999Y-81604095D01*
X164972998Y-81314578D02*
X164972998Y-81314274D01*
X164972998Y-81312132D02*
X164972998Y-81313203D01*
X164972999Y-81467788D02*
X164972999Y-81468294D01*
X164972998Y-81207986D02*
X164972998Y-81212556D01*
X164972998Y-80670846D02*
X164972998Y-80672280D01*
X164972998Y-80646649D02*
X164972998Y-80647154D01*
X164972999Y-81514118D02*
X164972999Y-81510988D01*
X164973001Y-82355078D02*
X164973001Y-82357538D01*
X164972998Y-80522055D02*
X164972998Y-80529688D01*
X164972999Y-81756293D02*
X164972999Y-81758043D01*
X164972999Y-81520128D02*
X164972999Y-81522382D01*
X164972998Y-81231598D02*
X164972998Y-81231936D01*
X164972998Y-80721348D02*
X164972998Y-80721158D01*
X164972998Y-80715529D02*
X164972998Y-80716566D01*
X164972999Y-81802385D02*
X164972999Y-81810213D01*
X164972999Y-81523272D02*
X164972999Y-81523745D01*
X164972998Y-80932837D02*
X164972998Y-80945516D01*
X164972998Y-80743836D02*
X164972998Y-80744127D01*
X164972998Y-80711636D02*
X164972998Y-80711684D01*
X164972999Y-81352145D02*
X164972999Y-81350464D01*
X164972999Y-81496024D02*
X164972999Y-81496273D01*
X164972998Y-80909807D02*
X164972998Y-80911120D01*
X164972999Y-82065524D02*
X164972999Y-82067417D01*
X164972999Y-81338660D02*
X164972999Y-81339215D01*
X164972998Y-81225377D02*
X164972998Y-81221759D01*
X164972998Y-80874091D02*
X164972998Y-80875179D01*
X164972999Y-81632407D02*
X164972999Y-81633184D01*
X164972998Y-80797535D02*
X164972998Y-80799121D01*
X164972999Y-81473792D02*
X164972999Y-81476541D01*
X164972998Y-80882553D02*
X164972998Y-80881803D01*
X164972999Y-81759076D02*
X164972999Y-81759392D01*
X164972998Y-80965289D02*
X164972998Y-80964464D01*
X164972998Y-80652483D02*
X164972998Y-80652795D01*
X164972998Y-80649237D02*
X164972998Y-80649364D01*
X164972999Y-81597096D02*
X164972999Y-81598002D01*
X164972999Y-81963759D02*
X164972999Y-81954485D01*
X164973001Y-82393017D02*
X164973001Y-82381343D01*
X164972998Y-80718169D02*
X164972998Y-80717926D01*
X164972998Y-80756532D02*
X164972998Y-80756446D01*
X164972998Y-80729912D02*
X164972998Y-80730234D01*
X164972998Y-81278848D02*
X164972998Y-81280258D01*
X164972999Y-81480619D02*
X164972999Y-81481293D01*
X164972998Y-80345469D02*
X164972998Y-80348376D01*
X164972998Y-80341830D02*
X164972998Y-80345225D01*
X164972999Y-80293371D02*
X164972999Y-80295340D01*
X164972999Y-81464026D02*
X164972999Y-81460770D01*
X164973002Y-82425529D02*
X164973002Y-82429682D01*
X164972998Y-81029014D02*
X164972998Y-81030437D01*
X164972999Y-81499835D02*
X164972999Y-81499984D01*
X164972998Y-80720081D02*
X164972998Y-80720656D01*
X164972998Y-80653904D02*
X164972998Y-80653965D01*
X164972999Y-81684136D02*
X164972999Y-81688418D01*
X164972999Y-81644706D02*
X164972999Y-81646991D01*
X164972998Y-80490069D02*
X164972998Y-80490693D01*
X164972999Y-81746277D02*
X164972999Y-81749535D01*
X164972998Y-80719719D02*
X164972998Y-80720081D01*
X164972999Y-81758760D02*
X164972999Y-81759076D01*
X164972998Y-80734307D02*
X164972998Y-80734842D01*
X164972998Y-80757758D02*
X164972998Y-80758371D01*
X164972998Y-80631311D02*
X164972998Y-80627913D01*
X164973003Y-82479739D02*
X164973003Y-82487112D01*
X164972998Y-81307186D02*
X164972998Y-81307793D01*
X164973000Y-82345788D02*
X164973000Y-82343804D01*
X164972999Y-81468294D02*
X164972999Y-81471043D01*
X164972998Y-81077677D02*
X164972998Y-81079156D01*
X164972998Y-80647154D02*
X164972998Y-80647396D01*
X164972998Y-80847748D02*
X164972998Y-80852998D01*
X164972999Y-81464026D02*
X164972999Y-81467788D01*
X164972998Y-81137442D02*
X164972998Y-81132502D01*
X164972998Y-80573810D02*
X164972998Y-80579061D01*
X164972998Y-80880903D02*
X164972998Y-80881353D01*
X164972999Y-81530022D02*
X164972999Y-81530524D01*
X164972998Y-81203416D02*
X164972998Y-81207986D01*
X164972998Y-80720656D02*
X164972998Y-80720907D01*
X164972999Y-81941624D02*
X164972999Y-81943993D01*
X164972999Y-81752793D02*
X164972999Y-81754543D01*
X164972999Y-81361026D02*
X164972999Y-81362115D01*
X164972998Y-81337579D02*
X164972998Y-81337881D01*
X164972998Y-80717847D02*
X164972998Y-80717926D01*
X164972998Y-80669533D02*
X164972998Y-80670846D01*
X164972998Y-81289751D02*
X164972998Y-81290195D01*
X164972998Y-80743545D02*
X164972998Y-80743836D01*
X164972999Y-81535973D02*
X164972999Y-81535911D01*
X164972998Y-80531450D02*
X164972998Y-80529688D01*
X164972998Y-80608170D02*
X164972998Y-80608239D01*
X164972998Y-81021144D02*
X164972998Y-81019766D01*
X164972998Y-80726841D02*
X164972998Y-80727289D01*
X164972998Y-80623263D02*
X164972998Y-80624455D01*
X164972999Y-81536447D02*
X164972999Y-81536921D01*
X164972999Y-81760425D02*
X164972999Y-81762807D01*
X164972999Y-81479945D02*
X164972999Y-81480619D01*
X164972999Y-81340122D02*
X164972999Y-81340271D01*
X164972998Y-81274644D02*
X164972998Y-81274501D01*
X164972998Y-80701085D02*
X164972998Y-80702311D01*
X164972998Y-80716723D02*
X164972998Y-80717446D01*
X164973001Y-82357538D02*
X164973001Y-82365473D01*
X164972998Y-80870155D02*
X164972998Y-80870794D01*
X164972998Y-80336133D02*
X164972998Y-80337342D01*
X164972999Y-81477427D02*
X164972999Y-81478569D01*
X164972999Y-80283918D02*
X164972999Y-80282465D01*
X164972999Y-81547134D02*
X164972999Y-81550222D01*
X164972998Y-80677878D02*
X164972998Y-80679100D01*
X164972998Y-80644145D02*
X164972998Y-80645397D01*
X164972999Y-81566370D02*
X164972999Y-81567320D01*
X164972998Y-80614422D02*
X164972998Y-80616356D01*
X164972998Y-81067551D02*
X164972998Y-81069975D01*
X164972998Y-80727289D02*
X164972998Y-80727737D01*
X164972998Y-80626005D02*
X164972998Y-80627913D01*
X164972999Y-81421457D02*
X164972999Y-81417684D01*
X164972998Y-80471785D02*
X164972998Y-80473171D01*
X164972999Y-81525581D02*
X164972999Y-81525525D01*
X164972998Y-81023499D02*
X164972998Y-81025278D01*
X164973003Y-82494395D02*
X164973003Y-82496601D01*
X164972998Y-80510041D02*
X164972998Y-80511171D01*
X164972999Y-81526303D02*
X164972999Y-81526664D01*
X164972998Y-80865354D02*
X164972998Y-80866891D01*
X164972999Y-81912722D02*
X164972999Y-81914235D01*
X164972999Y-80295340D02*
X164972999Y-80302580D01*
X164973000Y-82345788D02*
X164973000Y-82347695D01*
X164972998Y-80653451D02*
X164972998Y-80653733D01*
X164972999Y-81658855D02*
X164972999Y-81665273D01*
X164972998Y-80711588D02*
X164972998Y-80711636D01*
X164972999Y-81937287D02*
X164972999Y-81939389D01*
X164972999Y-81397992D02*
X164972999Y-81398260D01*
X164972999Y-81630754D02*
X164972999Y-81628397D01*
X164972999Y-81366399D02*
X164972999Y-81367470D01*
X164972999Y-81406053D02*
X164972999Y-81411159D01*
X164972999Y-82120714D02*
X164972999Y-82135130D01*
X164972998Y-80655994D02*
X164972998Y-80656236D01*
X164973001Y-82402900D02*
X164973001Y-82412783D01*
X164973000Y-82294666D02*
X164973000Y-82290240D01*
X164972999Y-81532222D02*
X164972999Y-81532335D01*
X164972998Y-80549599D02*
X164972998Y-80550912D01*
X164972998Y-80790758D02*
X164972998Y-80791737D01*
X164972998Y-81335261D02*
X164972998Y-81335796D01*
X164972999Y-81380397D02*
X164972999Y-81368541D01*
X164972999Y-81922812D02*
X164972999Y-81926423D01*
X164972999Y-82198217D02*
X164972999Y-82227977D01*
X164972999Y-81763244D02*
X164972999Y-81762807D01*
X164972998Y-80653169D02*
X164972998Y-80653451D01*
X164972998Y-81316472D02*
X164972998Y-81317351D01*
X164972998Y-81232274D02*
X164972998Y-81232612D01*
X164972998Y-80755661D02*
X164972998Y-80756446D01*
X164972998Y-80345469D02*
X164972998Y-80345225D01*
X164972999Y-80287918D02*
X164972999Y-80293371D01*
X164972998Y-80747471D02*
X164972998Y-80747871D01*
X164972999Y-81787810D02*
X164972999Y-81790849D01*
X164972998Y-81334052D02*
X164972998Y-81335261D01*
X164973002Y-82452194D02*
X164973002Y-82449683D01*
X164972998Y-80637096D02*
X164972998Y-80637338D01*
X164972999Y-81794556D02*
X164972999Y-81795431D01*
X164972999Y-81507133D02*
X164972999Y-81504019D01*
X164972998Y-80771056D02*
X164972998Y-80772786D01*
X164972999Y-81736261D02*
X164972999Y-81741269D01*
X164972999Y-81346161D02*
X164972999Y-81346568D01*
X164973001Y-82352063D02*
X164973001Y-82355078D01*
X164972998Y-81231260D02*
X164972998Y-81231598D01*
X164972999Y-81569579D02*
X164972999Y-81567320D01*
X164972998Y-80606411D02*
X164972998Y-80607101D01*
X164972998Y-81095920D02*
X164972998Y-81103033D01*
X164972999Y-81619909D02*
X164972999Y-81618499D01*
X164972999Y-81340326D02*
X164972999Y-81340271D01*
X164973003Y-82511124D02*
X164973003Y-82512844D01*
X164972999Y-81553310D02*
X164972999Y-81554262D01*
X164972999Y-81587711D02*
X164972999Y-81582990D01*
X164972998Y-80648648D02*
X164972998Y-80648669D01*
X164972998Y-81216590D02*
X164972998Y-81217126D01*
X164972998Y-81083266D02*
X164972998Y-81088854D01*
X164972998Y-81296201D02*
X164972998Y-81297324D01*
X164972998Y-80775820D02*
X164972998Y-80780159D01*
X164972998Y-81025278D02*
X164972998Y-81027057D01*
X164972999Y-82060007D02*
X164972999Y-82063054D01*
X164972998Y-80711684D02*
X164972998Y-80711732D01*
X164972998Y-80719719D02*
X164972998Y-80719617D01*
X164973000Y-82284900D02*
X164973000Y-82285357D01*
X164972998Y-81016033D02*
X164972998Y-81019766D01*
X164972999Y-82074350D02*
X164972999Y-82078751D01*
X164972998Y-80873452D02*
X164972998Y-80874091D01*
X164972999Y-81539062D02*
X164972999Y-81537395D01*
X164881960Y-80045958D02*
X164719000Y-79883000D01*
X164972999Y-81430783D02*
X164972999Y-81430958D01*
X164972998Y-80429517D02*
X164972998Y-80430934D01*
X164972998Y-80923477D02*
X164972998Y-80928157D01*
X164972999Y-81530022D02*
X164972999Y-81528661D01*
X164973003Y-82505825D02*
X164973003Y-82505327D01*
X164972998Y-80707560D02*
X164972998Y-80707732D01*
X164972998Y-81291670D02*
X164972998Y-81295065D01*
X164972998Y-80514422D02*
X164972998Y-80522055D01*
X164973002Y-82440852D02*
X164973002Y-82449683D01*
X164973001Y-82393017D02*
X164973001Y-82402900D01*
X164972999Y-81934767D02*
X164972999Y-81935034D01*
X164972998Y-80539670D02*
X164972998Y-80540447D01*
X164972998Y-80652795D02*
X164972998Y-80653138D01*
X164972998Y-80740469D02*
X164972998Y-80740674D01*
X164972998Y-80548286D02*
X164972998Y-80546111D01*
X164972998Y-81333202D02*
X164972998Y-81333366D01*
X164972998Y-80667384D02*
X164972998Y-80667626D01*
X164972998Y-80792775D02*
X164972998Y-80793872D01*
X164972998Y-80737738D02*
X164972998Y-80738080D01*
X164972998Y-80721348D02*
X164972998Y-80721478D01*
X164972999Y-82227977D02*
X164972999Y-82240286D01*
X164972998Y-80965289D02*
X164972998Y-80971496D01*
X164972998Y-80749164D02*
X164972998Y-80750323D01*
X164972999Y-81531996D02*
X164972999Y-81532109D01*
X164972998Y-80722022D02*
X164972998Y-80722242D01*
X164972998Y-80648164D02*
X164972998Y-80647638D01*
X164972999Y-80309638D02*
X164972999Y-80309819D01*
X164972998Y-81291670D02*
X164972998Y-81290195D01*
X164972998Y-81231936D02*
X164972998Y-81232274D01*
X164972999Y-82196175D02*
X164972999Y-82197196D01*
X164972999Y-81497641D02*
X164972999Y-81498238D01*
X164972998Y-81307793D02*
X164972998Y-81308400D01*
X164972998Y-80745312D02*
X164972998Y-80745417D01*
X164972999Y-81486859D02*
X164972999Y-81488702D01*
X164972999Y-81347510D02*
X164972999Y-81348987D01*
X164972998Y-80741944D02*
X164972998Y-80742610D01*
X164972999Y-81564467D02*
X164972999Y-81565420D01*
X164972998Y-80703882D02*
X164972998Y-80703537D01*
X164972998Y-80430934D02*
X164972998Y-80432351D01*
X164972998Y-80631311D02*
X164972998Y-80632623D01*
X164972998Y-80880453D02*
X164972998Y-80879927D01*
X164972999Y-81635906D02*
X164972999Y-81637851D01*
X164972998Y-80825366D02*
X164972998Y-80842498D01*
X164972999Y-82240286D02*
X164972999Y-82252595D01*
X164972999Y-81590263D02*
X164972999Y-81592815D01*
X164972998Y-81259863D02*
X164972998Y-81265504D01*
X164972998Y-81182519D02*
X164972998Y-81185072D01*
X164972998Y-80650219D02*
X164972998Y-80650547D01*
X164972999Y-81792806D02*
X164972999Y-81793681D01*
X164972998Y-80707904D02*
X164972998Y-80708167D01*
X164972998Y-81273430D02*
X164972998Y-81274501D01*
X164972998Y-80654622D02*
X164972998Y-80654541D01*
X164972998Y-80714207D02*
X164972998Y-80715434D01*
X164972998Y-81233148D02*
X164972998Y-81234558D01*
X164972998Y-80491317D02*
X164972998Y-80491475D01*
X164972998Y-80709885D02*
X164972998Y-80710290D01*
X164972998Y-80772786D02*
X164972998Y-80774516D01*
X164972998Y-80563308D02*
X164972998Y-80561391D01*
X164972998Y-80654137D02*
X164972998Y-80653965D01*
X164972999Y-81634642D02*
X164972999Y-81635226D01*
X164972998Y-80721726D02*
X164972998Y-80721850D01*
X164972998Y-80956606D02*
X164972998Y-80964464D01*
X164972999Y-81695520D02*
X164972999Y-81696878D01*
X164972998Y-80761168D02*
X164972998Y-80761781D01*
X163957000Y-84187000D02*
X164509278Y-83634727D01*
X164972999Y-81499984D02*
X164972999Y-81501080D01*
X164973001Y-82422140D02*
X164973001Y-82422665D01*
X164972999Y-81598002D02*
X164972999Y-81599731D01*
X164972999Y-81670136D02*
X164972999Y-81677136D01*
X164972998Y-81215849D02*
X164972998Y-81216590D01*
X164972998Y-80723421D02*
X164972998Y-80724427D01*
X164972999Y-81499037D02*
X164972999Y-81499835D01*
X164972999Y-81607218D02*
X164972999Y-81611011D01*
X164972999Y-81411632D02*
X164972999Y-81411159D01*
X164972999Y-81638386D02*
X164972999Y-81639261D01*
X164972998Y-80728197D02*
X164972998Y-80728637D01*
X164972999Y-81624337D02*
X164972999Y-81624533D01*
X164972998Y-80672280D02*
X164972998Y-80673714D01*
X164972999Y-81523745D02*
X164972999Y-81524218D01*
X164972998Y-80885705D02*
X164972998Y-80890057D01*
X164972999Y-81476541D02*
X164972999Y-81477427D01*
X164972999Y-81387338D02*
X164972999Y-81386597D01*
X164972999Y-81496447D02*
X164972999Y-81497044D01*
X164972999Y-81696878D02*
X164972999Y-81700377D01*
X164972998Y-80667868D02*
X164972998Y-80668342D01*
X164972998Y-80896341D02*
X164972998Y-80897653D01*
X164972998Y-80490693D02*
X164972998Y-80491317D01*
X164972998Y-80871822D02*
X164972998Y-80872720D01*
X164972998Y-80754160D02*
X164972998Y-80755661D01*
X164972998Y-80603371D02*
X164972998Y-80604891D01*
X164972999Y-80304435D02*
X164972999Y-80307964D01*
X164973000Y-82316259D02*
X164973000Y-82308400D01*
X164972998Y-80751482D02*
X164972998Y-80751617D01*
X164972998Y-80649593D02*
X164972998Y-80649906D01*
X164972999Y-81364257D02*
X164972999Y-81365328D01*
X164972999Y-81424333D02*
X164972999Y-81424246D01*
X164972998Y-80656801D02*
X164972998Y-80658174D01*
X164972998Y-80554399D02*
X164972998Y-80554812D01*
X164972999Y-81741706D02*
X164972999Y-81745839D01*
X164972999Y-81485017D02*
X164972999Y-81485341D01*
X164972998Y-81229693D02*
X164972998Y-81228367D01*
X164972998Y-80789720D02*
X164972998Y-80790758D01*
X164972999Y-81527533D02*
X164972999Y-81527149D01*
X164972999Y-81624141D02*
X164972999Y-81624337D01*
X164972998Y-80751347D02*
X164972998Y-80751159D01*
X164972998Y-81315346D02*
X164972998Y-81315490D01*
X164972999Y-81490396D02*
X164972999Y-81491940D01*
X164972999Y-81795431D02*
X164972999Y-81796732D01*
X164972999Y-82260710D02*
X164972999Y-82267577D01*
X164972999Y-81936102D02*
X164972999Y-81936369D01*
X164973002Y-82423715D02*
X164973002Y-82425529D01*
X164972999Y-81341912D02*
X164972999Y-81342467D01*
X164972998Y-80636854D02*
X164972998Y-80637096D01*
X164972999Y-81731253D02*
X164972999Y-81736261D01*
X164972999Y-81963893D02*
X164972999Y-81968597D01*
X164972998Y-81015588D02*
X164972998Y-81016033D01*
X164972999Y-81435492D02*
X164972999Y-81438456D01*
X164972998Y-80662618D02*
X164972998Y-80666900D01*
X164972998Y-80707210D02*
X164972998Y-80707388D01*
X164972999Y-81963826D02*
X164972999Y-81963893D01*
X164972998Y-80648406D02*
X164972998Y-80648648D01*
X164972998Y-81278010D02*
X164972998Y-81278063D01*
X164972999Y-81507133D02*
X164972999Y-81507607D01*
X164972999Y-81954419D02*
X164972999Y-81954485D01*
X164973000Y-80266210D02*
X164973001Y-80265749D01*
X164972998Y-80491475D02*
X164972998Y-80492415D01*
X164973002Y-82460053D02*
X164973002Y-82467912D01*
X164972998Y-80740674D02*
X164972998Y-80741944D01*
X164972999Y-81670136D02*
X164972999Y-81665273D01*
X164972999Y-81561624D02*
X164972999Y-81562571D01*
X164972999Y-81655402D02*
X164972999Y-81655889D01*
X164972998Y-80740264D02*
X164972998Y-80740469D01*
X164972998Y-80786665D02*
X164972998Y-80789720D01*
X164972999Y-81849048D02*
X164972999Y-81850227D01*
X164972998Y-81226872D02*
X164972998Y-81228367D01*
X164972998Y-80540447D02*
X164972998Y-80546111D01*
X164972998Y-81163435D02*
X164972998Y-81170558D01*
X164972998Y-81283104D02*
X164972998Y-81287387D01*
X164972998Y-81170558D02*
X164972998Y-81177681D01*
X164972998Y-80636197D02*
X164972998Y-80636612D01*
X164972999Y-81498486D02*
X164972999Y-81498587D01*
X164972998Y-80869516D02*
X164972998Y-80868428D01*
X164972999Y-80287918D02*
X164972999Y-80285616D01*
X164972999Y-81384681D02*
X164972999Y-81385752D01*
X164972998Y-81218198D02*
X164972998Y-81219206D01*
X164972998Y-80653169D02*
X164972998Y-80653138D01*
X164972999Y-81627473D02*
X164972999Y-81628397D01*
X164972998Y-80696883D02*
X164972998Y-80698196D01*
X164972998Y-80881353D02*
X164972998Y-80881803D01*
X164972999Y-82006230D02*
X164972999Y-82019903D01*
X164973002Y-82432021D02*
X164973002Y-82440852D01*
X164972999Y-81540010D02*
X164972999Y-81540484D01*
X164972998Y-80609448D02*
X164972998Y-80610277D01*
X164972999Y-81692700D02*
X164972999Y-81694162D01*
X164972998Y-80876267D02*
X164972998Y-80878425D01*
X164972998Y-80916086D02*
X164972998Y-80919453D01*
X164972998Y-81283104D02*
X164972998Y-81281668D01*
X164972999Y-81539062D02*
X164972999Y-81539536D01*
X164972998Y-80552638D02*
X164972998Y-80553950D01*
X164972999Y-81535314D02*
X164972999Y-81535911D01*
X164972999Y-81847869D02*
X164972999Y-81849048D01*
X164972998Y-81079444D02*
X164972998Y-81081499D01*
X164972998Y-80919453D02*
X164972998Y-80923477D01*
X164972999Y-81814382D02*
X164972999Y-81810213D01*
X164972999Y-81569815D02*
X164972999Y-81570051D01*
X164973003Y-82489584D02*
X164973003Y-82492056D01*
X164972998Y-81323212D02*
X164972998Y-81322514D01*
X164972998Y-80873074D02*
X164972998Y-80872720D01*
X164972998Y-81177681D02*
X164972998Y-81182519D01*
X164972999Y-81992151D02*
X164972999Y-81986263D01*
X164972998Y-80535560D02*
X164972998Y-80539670D01*
X164972999Y-81471043D02*
X164972999Y-81473792D01*
X164972998Y-81028836D02*
X164972998Y-81029014D01*
X164972999Y-81750787D02*
X164972999Y-81751541D01*
X164972998Y-80727737D02*
X164972998Y-80728197D01*
X164972998Y-81193204D02*
X164972998Y-81197774D01*
X164972998Y-80873074D02*
X164972998Y-80873263D01*
X164972998Y-80763094D02*
X164972998Y-80765106D01*
X164972998Y-81022121D02*
X164972998Y-81023098D01*
X164973003Y-82505825D02*
X164973003Y-82508784D01*
X164972998Y-80707388D02*
X164972998Y-80707560D01*
X164972999Y-81934767D02*
X164972999Y-81933833D01*
X164972999Y-82074350D02*
X164972999Y-82073096D01*
X164972999Y-81981659D02*
X164972999Y-81983961D01*
X164972998Y-81272359D02*
X164972998Y-81273430D01*
X164973000Y-82316259D02*
X164973000Y-82326102D01*
X164972998Y-80693033D02*
X164972998Y-80694958D01*
X164972999Y-81450497D02*
X164972999Y-81448072D01*
X164972999Y-81624995D02*
X164972999Y-81625723D01*
X164972999Y-81560977D02*
X164972999Y-81561093D01*
X164972999Y-81758043D02*
X164972999Y-81758760D01*
X164972999Y-81646991D02*
X164972999Y-81652436D01*
X164972998Y-80677878D02*
X164972998Y-80673714D01*
X164972998Y-81131115D02*
X164972998Y-81132502D01*
X164972999Y-81424333D02*
X164972999Y-81426948D01*
X164972998Y-80728637D02*
X164972998Y-80729077D01*
X164972998Y-80428100D02*
X164972998Y-80429517D01*
X164972998Y-80553950D02*
X164972998Y-80554399D01*
X164972998Y-80761781D02*
X164972998Y-80762394D01*
X164972998Y-80794969D02*
X164972998Y-80795459D01*
X164972999Y-81954353D02*
X164972999Y-81954419D01*
X164972998Y-80729678D02*
X164972998Y-80729795D01*
X164972999Y-81595367D02*
X164972999Y-81596190D01*
X164972999Y-81992151D02*
X164972999Y-82006230D01*
X164972999Y-82116281D02*
X164972999Y-82120714D01*
X164972998Y-80742610D02*
X164972998Y-80742756D01*
X164973000Y-82294666D02*
X164973000Y-82308400D01*
X164972999Y-81526743D02*
X164972999Y-81526946D01*
X164972999Y-81751541D02*
X164972999Y-81752295D01*
X164972999Y-81541019D02*
X164972999Y-81540484D01*
X164972998Y-81336868D02*
X164972998Y-81337006D01*
X164972999Y-81640136D02*
X164972999Y-81642956D01*
X164972999Y-81534168D02*
X164972999Y-81535314D01*
X164972999Y-81763244D02*
X164972999Y-81766501D01*
X164973002Y-82432021D02*
X164973002Y-82429682D01*
X164972999Y-81525942D02*
X164972999Y-81526303D01*
X164972998Y-80637338D02*
X164972998Y-80637580D01*
X164972999Y-81482905D02*
X164972999Y-81481293D01*
X164972998Y-81074719D02*
X164972998Y-81076198D01*
X164972998Y-81217126D02*
X164972998Y-81217662D01*
X164972998Y-80417542D02*
X164972998Y-80425053D01*
X164972998Y-81219206D02*
X164972998Y-81221759D01*
X164972998Y-80337342D02*
X164972998Y-80338435D01*
X164972999Y-81759392D02*
X164972999Y-81760425D01*
X164972998Y-80647396D02*
X164972998Y-80647638D01*
X164972998Y-81071761D02*
X164972998Y-81073240D01*
X164972999Y-81498486D02*
X164972999Y-81498238D01*
X164972999Y-81559247D02*
X164972999Y-81559011D01*
X164972998Y-80583343D02*
X164972998Y-80586655D01*
X164972998Y-81313203D02*
X164972998Y-81314274D01*
X164972999Y-81338256D02*
X164972999Y-81338154D01*
X164972998Y-80735377D02*
X164972998Y-80737738D01*
X164972998Y-80928157D02*
X164972998Y-80932837D01*
X164972999Y-81614804D02*
X164972999Y-81618499D01*
X164972999Y-81554262D02*
X164972999Y-81555924D01*
X164972999Y-81528097D02*
X164972999Y-81528661D01*
X164972998Y-80605098D02*
X164972998Y-80606203D01*
X164972999Y-81599731D02*
X164972999Y-81604095D01*
X164972998Y-80722807D02*
X164972998Y-80723028D01*
X164972998Y-80486941D02*
X164972998Y-80488818D01*
X164972998Y-80679100D02*
X164972998Y-80680322D01*
X164972998Y-80760555D02*
X164972998Y-80758371D01*
X164972999Y-81741269D02*
X164972999Y-81741706D01*
X164972998Y-80729795D02*
X164972998Y-80729912D01*
X164973003Y-82475769D02*
X164973003Y-82477754D01*
X164972998Y-80745627D02*
X164972998Y-80745736D01*
X164972999Y-81485341D02*
X164972999Y-81485558D01*
X164972999Y-81346568D02*
X164972999Y-81347510D01*
X164972998Y-80751347D02*
X164972998Y-80751482D01*
X164972998Y-80711433D02*
X164972998Y-80711588D01*
X164972999Y-81438456D02*
X164972999Y-81441420D01*
X164972999Y-81573139D02*
X164972999Y-81573376D01*
X164972999Y-81527533D02*
X164972999Y-81528097D01*
X164972998Y-80712326D02*
X164972998Y-80712620D01*
X164972999Y-81400947D02*
X164972999Y-81398528D01*
X164972998Y-81187625D02*
X164972998Y-81188634D01*
X164972998Y-80610761D02*
X164972998Y-80610899D01*
X164972999Y-81498587D02*
X164972999Y-81498688D01*
X164972999Y-81654915D02*
X164972999Y-81652436D01*
X164972998Y-80447585D02*
X164972998Y-80450090D01*
X164972999Y-81555924D02*
X164972999Y-81557586D01*
X164972998Y-81234558D02*
X164972998Y-81236306D01*
X164972998Y-80607791D02*
X164972998Y-80608101D01*
X164972998Y-81304366D02*
X164972998Y-81306044D01*
X164972998Y-81254222D02*
X164972998Y-81253375D01*
X164972999Y-81536921D02*
X164972999Y-81537395D01*
X164972998Y-80658174D02*
X164972998Y-80659547D01*
X164972999Y-81963759D02*
X164972999Y-81963826D01*
X164972998Y-80385452D02*
X164972998Y-80369553D01*
X164972998Y-81332433D02*
X164972998Y-81333202D01*
X164972998Y-80852998D02*
X164972998Y-80858248D01*
X164972998Y-80718734D02*
X164972998Y-80718915D01*
X164972998Y-80814868D02*
X164972998Y-80820117D01*
X164972999Y-81397992D02*
X164972999Y-81393689D01*
X164972998Y-81306044D02*
X164972998Y-81307186D01*
X164972999Y-81383610D02*
X164972999Y-81384681D01*
X164972999Y-81539536D02*
X164972999Y-81540010D01*
X164972998Y-80610277D02*
X164972998Y-80610623D01*
X164972998Y-80636612D02*
X164972998Y-80636854D01*
X164972999Y-82179495D02*
X164972999Y-82196175D01*
X164972999Y-81677136D02*
X164972999Y-81679956D01*
X164972998Y-80466559D02*
X164972998Y-80467629D01*
X164972999Y-81818916D02*
X164972999Y-81823450D01*
X164972999Y-81343280D02*
X164972999Y-81344351D01*
X164972998Y-80480055D02*
X164972998Y-80483185D01*
X164973003Y-82512844D02*
X164973003Y-82513585D01*
X164972999Y-80276765D02*
X164972999Y-80274955D01*
X164972998Y-81297324D02*
X164972998Y-81298447D01*
X164972999Y-81750787D02*
X164972999Y-81749535D01*
X164972999Y-81508081D02*
X164972999Y-81508555D01*
X164972999Y-82110731D02*
X164972999Y-82116281D01*
X164972998Y-80912433D02*
X164972998Y-80913746D01*
X164973002Y-82423190D02*
X164973002Y-82423715D01*
X164972998Y-80616356D02*
X164972998Y-80618290D01*
X164972998Y-80688377D02*
X164972998Y-80693033D01*
X164972998Y-80661889D02*
X164972998Y-80662132D01*
X164972998Y-80752042D02*
X164972998Y-80752487D01*
X164972998Y-80483185D02*
X164972998Y-80486315D01*
X164972998Y-81081499D02*
X164972998Y-81083266D01*
X164972998Y-80725322D02*
X164972998Y-80726106D01*
X164972999Y-81771072D02*
X164972999Y-81775205D01*
X164972999Y-81545708D02*
X164972999Y-81547134D01*
X164972998Y-81023098D02*
X164972998Y-81023499D01*
X164972999Y-81561093D02*
X164972999Y-81561209D01*
X164972999Y-81478569D02*
X164972999Y-81479711D01*
X164972998Y-80531450D02*
X164972998Y-80535560D01*
X164972998Y-80362543D02*
X164972998Y-80369553D01*
X164972998Y-81335935D02*
X164972998Y-81336074D01*
X164972999Y-81688418D02*
X164972999Y-81692700D01*
X164972999Y-81365328D02*
X164972999Y-81366399D01*
X164972999Y-81633184D02*
X164972999Y-81633961D01*
X164972998Y-80747367D02*
X164972998Y-80747419D01*
X164972999Y-81340326D02*
X164972999Y-81340584D01*
X164972999Y-81393153D02*
X164972999Y-81393421D01*
X164972999Y-81658855D02*
X164972999Y-81655889D01*
X164972998Y-80717446D02*
X164972998Y-80717768D01*
X164972999Y-82071203D02*
X164972999Y-82073096D01*
X164972998Y-80991182D02*
X164972998Y-80998561D01*
X164972998Y-80793872D02*
X164972998Y-80794969D01*
X164972998Y-80870924D02*
X164972998Y-80870794D01*
X164972998Y-80726841D02*
X164972998Y-80726106D01*
X164972999Y-81623945D02*
X164972999Y-81623605D01*
X164972998Y-81265504D02*
X164972998Y-81267789D01*
X164972999Y-81745839D02*
X164972999Y-81746277D01*
X164972998Y-80731983D02*
X164972998Y-80731414D01*
X164972998Y-81315865D02*
X164972998Y-81315634D01*
X164972998Y-80648669D02*
X164972998Y-80648953D01*
X164972999Y-81519432D02*
X164972999Y-81520128D01*
X164972999Y-81573613D02*
X164972999Y-81575394D01*
X164972999Y-81890141D02*
X164972999Y-81894187D01*
X164972999Y-81723801D02*
X164972999Y-81730438D01*
X164972999Y-81533278D02*
X164972999Y-81533723D01*
X164972998Y-80624455D02*
X164972998Y-80625647D01*
X164972998Y-80699859D02*
X164972998Y-80701085D01*
X164972999Y-80278710D02*
X164972999Y-80282465D01*
X164972999Y-81509208D02*
X164972999Y-81510988D01*
X164972998Y-81076198D02*
X164972998Y-81077677D01*
X164972998Y-81318859D02*
X164972998Y-81318911D01*
X164972999Y-81532558D02*
X164972999Y-81532890D01*
X164972998Y-80721850D02*
X164972998Y-80721974D01*
X164972998Y-80480055D02*
X164972998Y-80477643D01*
X164972999Y-81426948D02*
X164972999Y-81429563D01*
X164972998Y-81314578D02*
X164972998Y-81315042D01*
X164972999Y-81886095D02*
X164972999Y-81884807D01*
X164972998Y-80559975D02*
X164972998Y-80561391D01*
X164972999Y-81533278D02*
X164972999Y-81532890D01*
X164972999Y-81526946D02*
X164972999Y-81527149D01*
X164972998Y-80648953D02*
X164972998Y-80649237D01*
X164972999Y-81363186D02*
X164972999Y-81364257D01*
X164972998Y-81318381D02*
X164972998Y-81318682D01*
X164972998Y-80763094D02*
X164972998Y-80762394D01*
X164972999Y-81573376D02*
X164972999Y-81573613D01*
X164972998Y-80608101D02*
X164972998Y-80608170D01*
X164972999Y-82081898D02*
X164972999Y-82092593D01*
X164972998Y-80909807D02*
X164972998Y-80898965D01*
X164972999Y-81935568D02*
X164972999Y-81935835D01*
X164972998Y-80385452D02*
X164972998Y-80387429D01*
X164972998Y-80744726D02*
X164972998Y-80745152D01*
X164973003Y-82503364D02*
X164973003Y-82505327D01*
X164972998Y-81040574D02*
X164972998Y-81049185D01*
X164972998Y-80555225D02*
X164972998Y-80555638D01*
X164972999Y-81632115D02*
X164972999Y-81632407D01*
X164972999Y-81700377D02*
X164972999Y-81706018D01*
X164972999Y-81483989D02*
X164972999Y-81484369D01*
X164972999Y-81684136D02*
X164972999Y-81682674D01*
X164972998Y-81197774D02*
X164972998Y-81202344D01*
X164972999Y-81517706D02*
X164972999Y-81514172D01*
X164972999Y-81981659D02*
X164972999Y-81978072D01*
X164972998Y-81318807D02*
X164972998Y-81318859D01*
X164972998Y-80667142D02*
X164972998Y-80667384D01*
X164972999Y-82069310D02*
X164972999Y-82071203D01*
X164972998Y-80706683D02*
X164972998Y-80706334D01*
X164972999Y-81430958D02*
X164972999Y-81431133D01*
X164972998Y-80654137D02*
X164972998Y-80654541D01*
X164972999Y-81525052D02*
X164972999Y-81525525D01*
X164972998Y-80662375D02*
X164972998Y-80662618D01*
X164972999Y-81494380D02*
X164972999Y-81495227D01*
X164972998Y-80332622D02*
X164972998Y-80334924D01*
X164972998Y-80866891D02*
X164972998Y-80868428D01*
X164972999Y-81679956D02*
X164972999Y-81681315D01*
X164972999Y-81491940D02*
X164972999Y-81493533D01*
X164972998Y-80680322D02*
X164972998Y-80681234D01*
X164972999Y-81570051D02*
X164972999Y-81573139D01*
X164972998Y-80326809D02*
X164972998Y-80325022D01*
X164972999Y-82105181D02*
X164972999Y-82110731D01*
X164973000Y-82347695D02*
X164973001Y-82349602D01*
X164972998Y-81128341D02*
X164972998Y-81129728D01*
X164972999Y-81495775D02*
X164972999Y-81496024D01*
X164972999Y-81878185D02*
X164972999Y-81884807D01*
X164972998Y-81308632D02*
X164972998Y-81309703D01*
X164972998Y-80971496D02*
X164972998Y-80977703D01*
X164972999Y-81450497D02*
X164972999Y-81460770D01*
X164972998Y-81302688D02*
X164972998Y-81298447D01*
X164972998Y-81276001D02*
X164972998Y-81277358D01*
X164972999Y-81339215D02*
X164972999Y-81339770D01*
X164972998Y-80465489D02*
X164972998Y-80466559D01*
X164972999Y-81545234D02*
X164972999Y-81545471D01*
X164972998Y-81320569D02*
X164972998Y-81321104D01*
X164972999Y-81532335D02*
X164972999Y-81532448D01*
X164972999Y-81654915D02*
X164972999Y-81655402D01*
X164972998Y-81308400D02*
X164972998Y-81308632D01*
X164972999Y-81754543D02*
X164972999Y-81756293D01*
X164972999Y-81541019D02*
X164972999Y-81542563D01*
X164972998Y-80444540D02*
X164972998Y-80447405D01*
X164972999Y-81362115D02*
X164972999Y-81363186D01*
X164972998Y-80711732D02*
X164972998Y-80711780D01*
X164972999Y-81524218D02*
X164972999Y-81525052D01*
X164972998Y-81071659D02*
X164972998Y-81071761D01*
X164972998Y-80497112D02*
X164972998Y-80497426D01*
X164972998Y-81274644D02*
X164972998Y-81276001D01*
X164972998Y-80649906D02*
X164972998Y-80650219D01*
X164973003Y-82473309D02*
X164973003Y-82473784D01*
X164972998Y-81225377D02*
X164972998Y-81226872D01*
X164972998Y-80745522D02*
X164972998Y-80745627D01*
X164972998Y-80743504D02*
X164972998Y-80743545D01*
X164972999Y-81339770D02*
X164972999Y-81339973D01*
X164972998Y-81329687D02*
X164972998Y-81326802D01*
X164972998Y-80502120D02*
X164972998Y-80504311D01*
X164972998Y-80489445D02*
X164972998Y-80490069D01*
X164972998Y-81320229D02*
X164972998Y-81320569D01*
X164972998Y-80396638D02*
X164972998Y-80389406D01*
X164972999Y-81793681D02*
X164972999Y-81794556D01*
X164972998Y-81010965D02*
X164972998Y-81010520D01*
X164972998Y-80768010D02*
X164972998Y-80769464D01*
X164972998Y-80710290D02*
X164972998Y-80710695D01*
X164972998Y-80645397D02*
X164972998Y-80646649D01*
X164972998Y-80555638D02*
X164972998Y-80556051D01*
X164972999Y-81532448D02*
X164972999Y-81532558D01*
X164972998Y-80711076D02*
X164972998Y-80710695D01*
X164972998Y-80633935D02*
X164972998Y-80635126D01*
X164972999Y-81338509D02*
X164972999Y-81338660D01*
X164972998Y-80650547D02*
X164972998Y-80651515D01*
X164972998Y-81323956D02*
X164972998Y-81325379D01*
X164972998Y-80956606D02*
X164972998Y-80955064D01*
X164972998Y-80592872D02*
X164972998Y-80598121D01*
X164972999Y-81643831D02*
X164972999Y-81644706D01*
X164972999Y-81340916D02*
X164972999Y-81341322D01*
X164972998Y-80747871D02*
X164972998Y-80748723D01*
X164972998Y-80557349D02*
X164972998Y-80558559D01*
X164972998Y-80729077D02*
X164972998Y-80729517D01*
X164972999Y-82049075D02*
X164972999Y-82049549D01*
X164972998Y-80492415D02*
X164972998Y-80493197D01*
X164972998Y-80641862D02*
X164972998Y-80642104D01*
X164972998Y-80312082D02*
X164972998Y-80315702D01*
X164972998Y-80432351D02*
X164972998Y-80441675D01*
X164972999Y-81517706D02*
X164972999Y-81518569D01*
X164972998Y-80632623D02*
X164972998Y-80633935D01*
X164972998Y-80706683D02*
X164972998Y-80707210D01*
X164972999Y-82099631D02*
X164972999Y-82105181D01*
X164972999Y-81557823D02*
X164972999Y-81559011D01*
X164972998Y-80655752D02*
X164972998Y-80655994D01*
X164972998Y-81005007D02*
X164972998Y-81010520D01*
X164972999Y-81531471D02*
X164972999Y-81531026D01*
X164972998Y-80601851D02*
X164972998Y-80603371D01*
X164972999Y-81343022D02*
X164972999Y-81343280D01*
X164972998Y-80668342D02*
X164972998Y-80669533D01*
X164972999Y-81939389D02*
X164972999Y-81941624D01*
X164973001Y-82415386D02*
X164973001Y-82412783D01*
X164972998Y-80911120D02*
X164972998Y-80912433D01*
X164972998Y-81323212D02*
X164972998Y-81323232D01*
X164972999Y-81367470D02*
X164972999Y-81368541D01*
X164972999Y-80268049D02*
X164972999Y-80267133D01*
X164972998Y-80653843D02*
X164972998Y-80653904D01*
X164972998Y-80458100D02*
X164972998Y-80452595D01*
X164972998Y-80738080D02*
X164972998Y-80738422D01*
X164972998Y-80716723D02*
X164972998Y-80716566D01*
X164972998Y-80667626D02*
X164972998Y-80667868D01*
X164972999Y-81342467D02*
X164972999Y-81343022D01*
X164972999Y-81623945D02*
X164972999Y-81624141D01*
X164972999Y-81484369D02*
X164972999Y-81484693D01*
X164972998Y-80610899D02*
X164972998Y-80611382D01*
X164972999Y-81340916D02*
X164972999Y-81340842D01*
X164972999Y-81523272D02*
X164972999Y-81522382D01*
X164972998Y-81088854D02*
X164972998Y-81089212D01*
X164972998Y-81278063D02*
X164972998Y-81278116D01*
X164972999Y-81380397D02*
X164972999Y-81381468D01*
X164972999Y-81531859D02*
X164972999Y-81531996D01*
X164972999Y-81624995D02*
X164972999Y-81624729D01*
X164972998Y-80752487D02*
X164972998Y-80753000D01*
X164972999Y-82267577D02*
X164972999Y-82269026D01*
X164972998Y-80756532D02*
X164972998Y-80757145D01*
X164972999Y-81904930D02*
X164972999Y-81908826D01*
X164972999Y-81518569D02*
X164972999Y-81519432D01*
X164972998Y-80326809D02*
X164972998Y-80332622D01*
X164972999Y-81814382D02*
X164972999Y-81818916D01*
X164972998Y-81315865D02*
X164972998Y-81316472D01*
X164972998Y-81280258D02*
X164972998Y-81281668D01*
X164972998Y-81321104D02*
X164972998Y-81322514D01*
X164972998Y-80649593D02*
X164972998Y-80649422D01*
X164972999Y-82081898D02*
X164972999Y-82078751D01*
X164972999Y-81634058D02*
X164972999Y-81634642D01*
X164972998Y-80709885D02*
X164972998Y-80708866D01*
X164972998Y-81315490D02*
X164972998Y-81315634D01*
X164972998Y-80752042D02*
X164972998Y-80751887D01*
X164972998Y-80315702D02*
X164972998Y-80317602D01*
X164972998Y-80556346D02*
X164972998Y-80557349D01*
X164972999Y-80283918D02*
X164972999Y-80284767D01*
X164973001Y-82420064D02*
X164973001Y-82422140D01*
X164972998Y-80769464D02*
X164972998Y-80770918D01*
X164972998Y-80606203D02*
X164972998Y-80606411D01*
X164972999Y-81791931D02*
X164972999Y-81790849D01*
X164972999Y-81345754D02*
X164972999Y-81346161D01*
X164972998Y-80587623D02*
X164972998Y-80592872D01*
X164972998Y-80720907D02*
X164972998Y-80721158D01*
X164972998Y-80705108D02*
X164972998Y-80706334D01*
X164972998Y-80441675D02*
X164972998Y-80444540D01*
X164972998Y-80568559D02*
X164972998Y-80573810D01*
X164972998Y-81302688D02*
X164972998Y-81304366D01*
X164972998Y-80413078D02*
X164972998Y-80417542D01*
X164972999Y-80278710D02*
X164972999Y-80276855D01*
X164972999Y-82063631D02*
X164972999Y-82065524D01*
X164972998Y-80878425D02*
X164972998Y-80879927D01*
X164972999Y-81557823D02*
X164972999Y-81557586D01*
X164972998Y-80651515D02*
X164972998Y-80652483D01*
X164972998Y-80498208D02*
X164972998Y-80497426D01*
X164972998Y-80991182D02*
X164972998Y-80977703D01*
X164972999Y-81791931D02*
X164972999Y-81792806D01*
X164972998Y-80708167D02*
X164972998Y-80708866D01*
X164972999Y-81530524D02*
X164972999Y-81531026D01*
X164972998Y-80498208D02*
X164972998Y-80500086D01*
X164972999Y-81575394D02*
X164972999Y-81579192D01*
X164972999Y-81626549D02*
X164972999Y-81627473D01*
X164972999Y-81766501D02*
X164972999Y-81766939D01*
X164972998Y-80729678D02*
X164972998Y-80729517D01*
X164972998Y-80662132D02*
X164972998Y-80662375D01*
X164972998Y-80637580D02*
X164972998Y-80641378D01*
X164973003Y-82477754D02*
X164973003Y-82479739D01*
X164972999Y-81778900D02*
X164972999Y-81785853D01*
X164972998Y-81268860D02*
X164972998Y-81269931D01*
X164972998Y-81079444D02*
X164972998Y-81079156D01*
X164972999Y-81545234D02*
X164972999Y-81542563D01*
X164972998Y-81010965D02*
X164972998Y-81015588D01*
X164973003Y-82496601D02*
X164973003Y-82501401D01*
X164972998Y-80770918D02*
X164972998Y-80771056D01*
X164972998Y-80649393D02*
X164972998Y-80649422D01*
X164972999Y-81639261D02*
X164972999Y-81640136D01*
X164972998Y-81188634D02*
X164972998Y-81193204D01*
X164972998Y-80317602D02*
X164972998Y-80325022D01*
X164972998Y-80586655D02*
X164972998Y-80587623D01*
X164972998Y-80747367D02*
X164972998Y-80747019D01*
X164972998Y-81237717D02*
X164972998Y-81239128D01*
X164973005Y-82515186D02*
X164973004Y-82514652D01*
X164972998Y-80641378D02*
X164972998Y-80641620D01*
X164972998Y-80745736D02*
X164972998Y-80746058D01*
X164972999Y-81563518D02*
X164972999Y-81564467D01*
X164972998Y-80312082D02*
X164972998Y-80310272D01*
X164972999Y-81488852D02*
X164972999Y-81490396D01*
X164972999Y-81559247D02*
X164972999Y-81559962D01*
X164972998Y-80554812D02*
X164972998Y-80555225D01*
X164972998Y-80355533D02*
X164972998Y-80351283D01*
X164973001Y-82415386D02*
X164973001Y-82420064D01*
X164972999Y-81411632D02*
X164972999Y-81417684D01*
X164972998Y-80711076D02*
X164972998Y-80711433D01*
X164972998Y-81213832D02*
X164972998Y-81215849D01*
X164972998Y-80334924D02*
X164972998Y-80336133D01*
X164973003Y-82492189D02*
X164973003Y-82492056D01*
X164972998Y-80468699D02*
X164972998Y-80469769D01*
X164972998Y-81229693D02*
X164972998Y-81230850D01*
X164972999Y-81485558D02*
X164972999Y-81486317D01*
X164972999Y-81642956D02*
X164972999Y-81643831D01*
X164972998Y-80622071D02*
X164972998Y-80618290D01*
X164972998Y-80641620D02*
X164972998Y-80641862D01*
X164972999Y-81983961D02*
X164972999Y-81986263D01*
X164972998Y-81267789D02*
X164972998Y-81268860D01*
X164972998Y-80809619D02*
X164972998Y-80814868D01*
X164972999Y-82269026D02*
X164972999Y-82272995D01*
X164972999Y-81694162D02*
X164972999Y-81695520D01*
X164972998Y-81247394D02*
X164972998Y-81253375D01*
X164972998Y-80599813D02*
X164972998Y-80601678D01*
X164972998Y-80580031D02*
X164972998Y-80583343D01*
X164972999Y-81533723D02*
X164972999Y-81534168D01*
X164972998Y-80579061D02*
X164972998Y-80580031D01*
X164972998Y-81287387D02*
X164972998Y-81289307D01*
X164972998Y-80465489D02*
X164972998Y-80465440D01*
X164972998Y-80721602D02*
X164972998Y-80721726D01*
X164972998Y-80681234D02*
X164972998Y-80684281D01*
X164972998Y-80719140D02*
X164972998Y-80719118D01*
X164972998Y-80750647D02*
X164972998Y-80751159D01*
X164972998Y-81236306D02*
X164972998Y-81237717D01*
X164972999Y-82060007D02*
X164972999Y-82057537D01*
X164972998Y-80884504D02*
X164972998Y-80885705D01*
X164972999Y-81561624D02*
X164972999Y-81561209D01*
X164972998Y-80753580D02*
X164972998Y-80754160D01*
X164972999Y-81730438D02*
X164972999Y-81731253D01*
X164972998Y-80733711D02*
X164972998Y-80734307D01*
X164972998Y-80605098D02*
X164972998Y-80604891D01*
X164972998Y-81272359D02*
X164972998Y-81269931D01*
X164972999Y-82272995D02*
X164972999Y-82276964D01*
X164972999Y-81382539D02*
X164972999Y-81383610D01*
X164972998Y-80724538D02*
X164972998Y-80725322D01*
X164972999Y-81968597D02*
X164972999Y-81978072D01*
X164972998Y-81030437D02*
X164972998Y-81031860D01*
X164972999Y-81886095D02*
X164972999Y-81890141D01*
X164972999Y-81935034D02*
X164972999Y-81935301D01*
X164973002Y-82452194D02*
X164973002Y-82460053D01*
X164972999Y-81400947D02*
X164972999Y-81406053D01*
X164972998Y-81148709D02*
X164972998Y-81163435D01*
X164972999Y-82040140D02*
X164972999Y-82049075D01*
X164972999Y-81357777D02*
X164972999Y-81356983D01*
X164972998Y-81333366D02*
X164972998Y-81333530D01*
X164972998Y-80563308D02*
X164972998Y-80568559D01*
X164972998Y-80612695D02*
X164972998Y-80614215D01*
X164972999Y-81706018D02*
X164972999Y-81711659D01*
X164972998Y-80804370D02*
X164972998Y-80809619D01*
X164972998Y-80502120D02*
X164972998Y-80501964D01*
X164972998Y-80473171D02*
X164972998Y-80477643D01*
X164972998Y-80496798D02*
X164972998Y-80497112D01*
X164972999Y-82063631D02*
X164972999Y-82063054D01*
X164972999Y-81894187D02*
X164972999Y-81904930D01*
X164972999Y-81495775D02*
X164972999Y-81495227D01*
X164972998Y-80387429D02*
X164972998Y-80389406D01*
X164972999Y-81345754D02*
X164972999Y-81345422D01*
X164972998Y-80460336D02*
X164972998Y-80462572D01*
X164972998Y-80753000D02*
X164972998Y-80753580D01*
X164972998Y-81212556D02*
X164972998Y-81213832D01*
X164972998Y-80654622D02*
X164972998Y-80654864D01*
X164972999Y-81612932D02*
X164972999Y-81612981D01*
X164972998Y-81185072D02*
X164972998Y-81187625D01*
X164972998Y-81317703D02*
X164972998Y-81318055D01*
X164972998Y-81319889D02*
X164972998Y-81320229D01*
X164972998Y-80707732D02*
X164972998Y-80707904D01*
X164972998Y-81050814D02*
X164972998Y-81052443D01*
X164972999Y-81502624D02*
X164972999Y-81504019D01*
X164972998Y-81312132D02*
X164972998Y-81311845D01*
X164973002Y-82470373D02*
X164973003Y-82473309D01*
X164972998Y-80746271D02*
X164972998Y-80746058D01*
X164972998Y-80699596D02*
X164972998Y-80699859D01*
X164972998Y-81318963D02*
X164972998Y-81319015D01*
X164972999Y-81432528D02*
X164972999Y-81431133D01*
X164972998Y-80508911D02*
X164972998Y-80504311D01*
X164972999Y-81525581D02*
X164972999Y-81525942D01*
X164972999Y-81550222D02*
X164972999Y-81553310D01*
X164972999Y-81596190D02*
X164972999Y-81597096D01*
X164972998Y-80713269D02*
X164972998Y-80713918D01*
X164972999Y-81775205D02*
X164972999Y-81778900D01*
X164972998Y-80858248D02*
X164972998Y-80863498D01*
X164972998Y-81217662D02*
X164972998Y-81218198D01*
X164972998Y-80310272D02*
X164972998Y-80310091D01*
X164973003Y-81338081D02*
X164972998Y-81338032D01*
X164972998Y-80310091D02*
G75*
G02*
X164972998Y-80309910I8102J91D01*
G01*
X164881960Y-80045958D02*
G75*
G02*
X164972975Y-80265749I-219760J-219742D01*
G01*
X164973001Y-82422665D02*
G75*
G03*
X164973002Y-82423190I68999J-135D01*
G01*
X164973005Y-82515186D02*
G75*
G02*
X164509270Y-83634719I-1583205J-14D01*
G01*
X164972998Y-81323232D02*
X164972998Y-81323238D01*
%TO.N,ENC_B*%
X154955219Y-88563989D02*
X155438000Y-88564000D01*
X154151922Y-89034562D02*
X154387200Y-88799272D01*
X154955219Y-88563989D02*
G75*
G03*
X154387208Y-88799280I-19J-803211D01*
G01*
%TO.N,ENC_A{slash}PWM*%
X162126394Y-86614000D02*
X161163000Y-86614000D01*
X162560000Y-86360000D02*
X162433000Y-86487000D01*
X162126394Y-86614000D02*
G75*
G03*
X162433002Y-86487002I6J433600D01*
G01*
%TO.N,LIM_A*%
X154755404Y-87913998D02*
X155438000Y-87914000D01*
X152681597Y-88772998D02*
X150749000Y-88773000D01*
X152681597Y-88772998D02*
G75*
G03*
X153718501Y-88343498I3J1466398D01*
G01*
X153718501Y-88343498D02*
G75*
G02*
X154755404Y-87914001I1036899J-1036902D01*
G01*
%TO.N,LIM_B*%
X155273004Y-87360623D02*
X153801460Y-87360623D01*
X155389670Y-87312311D02*
X155438000Y-87264000D01*
X152908000Y-87884000D02*
X153169688Y-87622311D01*
X153169688Y-87622311D02*
G75*
G02*
X153801460Y-87360599I631812J-631789D01*
G01*
X155273004Y-87360623D02*
G75*
G03*
X155389668Y-87312309I-4J165023D01*
G01*
%TO.N,IN_A*%
X161632318Y-88564008D02*
X161163000Y-88564000D01*
X163779531Y-93087551D02*
X164418000Y-93726000D01*
X162621353Y-89083723D02*
X162433497Y-88895870D01*
X163141068Y-90338415D02*
X163141064Y-91546185D01*
X161632318Y-88564008D02*
G75*
G02*
X162433501Y-88895866I-18J-1133092D01*
G01*
X163141068Y-90338415D02*
G75*
G03*
X162621356Y-89083720I-1774368J15D01*
G01*
X163141064Y-91546185D02*
G75*
G03*
X163779535Y-93087547I2179736J-15D01*
G01*
%TO.N,IN_B*%
X161014985Y-87827272D02*
X159809433Y-87827274D01*
X163599242Y-90296390D02*
X163599242Y-89853749D01*
X163031117Y-88482141D02*
X162922598Y-88373619D01*
X156452131Y-85736869D02*
X157646751Y-86931473D01*
X161812995Y-87913995D02*
X161224315Y-87913994D01*
X164008621Y-91284657D02*
X164418000Y-91694000D01*
X161119650Y-87870633D02*
G75*
G03*
X161014985Y-87827291I-104650J-104667D01*
G01*
X161224315Y-87913994D02*
G75*
G02*
X161119644Y-87870639I-15J147994D01*
G01*
X161812995Y-87913995D02*
G75*
G02*
X162922604Y-88373613I5J-1569205D01*
G01*
X163599242Y-90296390D02*
G75*
G03*
X164008616Y-91284662I1397558J-10D01*
G01*
X157646751Y-86931473D02*
G75*
G03*
X159809433Y-87827265I2162649J2162673D01*
G01*
X163599242Y-89853749D02*
G75*
G03*
X163031134Y-88482124I-1939742J49D01*
G01*
%TO.N,LED_STATUS*%
X164827349Y-90071350D02*
X164418000Y-89662000D01*
X155806735Y-91814015D02*
X155438000Y-91814000D01*
X162309121Y-95811749D02*
X163121523Y-94999310D01*
X156618116Y-92256671D02*
X156436207Y-92074764D01*
X157060762Y-93325304D02*
X157060762Y-96646991D01*
X165236682Y-91059607D02*
X165236603Y-93974720D01*
X158241999Y-97828218D02*
X160781992Y-97828188D01*
X164249395Y-94532110D02*
X164679219Y-94532106D01*
X164827349Y-90071350D02*
G75*
G02*
X165236696Y-91059607I-988249J-988250D01*
G01*
X161617218Y-97482219D02*
G75*
G02*
X160781992Y-97828177I-835218J835219D01*
G01*
X155806735Y-91814015D02*
G75*
G02*
X156436212Y-92074759I-35J-890285D01*
G01*
X161963172Y-96646988D02*
G75*
G02*
X162309132Y-95811760I1181228J-12D01*
G01*
X157060762Y-93325304D02*
G75*
G03*
X156618117Y-92256670I-1511262J4D01*
G01*
X157060762Y-96646991D02*
G75*
G03*
X157406733Y-97482255I1181238J-9D01*
G01*
X165073345Y-94368849D02*
G75*
G02*
X164679219Y-94532108I-394145J394149D01*
G01*
X165073345Y-94368849D02*
G75*
G03*
X165236608Y-93974720I-394145J394149D01*
G01*
X164249395Y-94532110D02*
G75*
G03*
X163121528Y-94999315I5J-1594990D01*
G01*
X158241999Y-97828218D02*
G75*
G02*
X157406747Y-97482241I1J1181218D01*
G01*
X161963172Y-96646988D02*
G75*
G02*
X161617214Y-97482215I-1181172J-12D01*
G01*
%TO.N,PWM*%
X153399998Y-83615995D02*
X153400000Y-82656000D01*
X154078813Y-85254809D02*
X155438000Y-86614000D01*
X154078813Y-85254809D02*
G75*
G02*
X153399990Y-83615995I1638787J1638809D01*
G01*
%TO.N,CAN_TX*%
X162179000Y-91186000D02*
X161200556Y-91186000D01*
X167513000Y-88265000D02*
X167513000Y-87119000D01*
%TO.N,CAN_RX*%
X161781698Y-90513999D02*
X161163000Y-90514000D01*
X162369498Y-90169677D02*
X162197335Y-90341838D01*
X162197335Y-90341838D02*
G75*
G02*
X161781698Y-90513999I-415635J415638D01*
G01*
%TD*%
%TA.AperFunction,Conductor*%
%TO.N,/OUTA*%
G36*
X159280162Y-61087606D02*
G01*
X159456740Y-61104998D01*
X159480959Y-61109815D01*
X159644815Y-61159520D01*
X159667622Y-61168967D01*
X159793153Y-61236064D01*
X159818627Y-61249681D01*
X159839165Y-61263404D01*
X159971514Y-61372020D01*
X159988979Y-61389485D01*
X160097595Y-61521834D01*
X160111318Y-61542372D01*
X160192029Y-61693370D01*
X160201482Y-61716191D01*
X160251183Y-61880037D01*
X160256001Y-61904261D01*
X160273393Y-62080836D01*
X160274000Y-62093187D01*
X160274000Y-82669922D01*
X160273208Y-82684030D01*
X160253300Y-82860716D01*
X160247021Y-82888223D01*
X160190650Y-83049322D01*
X160178408Y-83074743D01*
X160087600Y-83219262D01*
X160070008Y-83241321D01*
X159949321Y-83362008D01*
X159927262Y-83379600D01*
X159782743Y-83470408D01*
X159757322Y-83482650D01*
X159596223Y-83539021D01*
X159568715Y-83545300D01*
X159399107Y-83564410D01*
X159370893Y-83564410D01*
X159201284Y-83545300D01*
X159173776Y-83539021D01*
X159017288Y-83484263D01*
X158959596Y-83442885D01*
X158933434Y-83376884D01*
X158933512Y-83352966D01*
X158933700Y-83351060D01*
X158933700Y-81960940D01*
X158933700Y-81960936D01*
X158921881Y-81901520D01*
X158876860Y-81834140D01*
X158809480Y-81789119D01*
X158809479Y-81789118D01*
X158750064Y-81777300D01*
X158622000Y-81777300D01*
X158553879Y-81757298D01*
X158507386Y-81703642D01*
X158496000Y-81651300D01*
X158496000Y-73406000D01*
X157496000Y-73406000D01*
X154168187Y-73406000D01*
X154155838Y-73405393D01*
X154123095Y-73402168D01*
X153979261Y-73388001D01*
X153955037Y-73383183D01*
X153791191Y-73333482D01*
X153768372Y-73324030D01*
X153720011Y-73298180D01*
X153617372Y-73243318D01*
X153596834Y-73229595D01*
X153464485Y-73120979D01*
X153447020Y-73103514D01*
X153338404Y-72971165D01*
X153324681Y-72950627D01*
X153311064Y-72925153D01*
X153243967Y-72799622D01*
X153234520Y-72776815D01*
X153184815Y-72612959D01*
X153179998Y-72588737D01*
X153162607Y-72412162D01*
X153162000Y-72399812D01*
X153162000Y-65410700D01*
X153182002Y-65342579D01*
X153235658Y-65296086D01*
X153288000Y-65284700D01*
X153750059Y-65284700D01*
X153750064Y-65284700D01*
X153809480Y-65272881D01*
X153876860Y-65227860D01*
X153921881Y-65160480D01*
X153933700Y-65101064D01*
X153933700Y-63710936D01*
X153933700Y-63710935D01*
X154866300Y-63710935D01*
X154866300Y-65101064D01*
X154878118Y-65160479D01*
X154878119Y-65160480D01*
X154923140Y-65227860D01*
X154990520Y-65272881D01*
X155049936Y-65284700D01*
X155049941Y-65284700D01*
X155750059Y-65284700D01*
X155750064Y-65284700D01*
X155809480Y-65272881D01*
X155830000Y-65259169D01*
X155897750Y-65237956D01*
X155966217Y-65256738D01*
X155969954Y-65259139D01*
X155990520Y-65272881D01*
X156049936Y-65284700D01*
X156049941Y-65284700D01*
X156750059Y-65284700D01*
X156750064Y-65284700D01*
X156809480Y-65272881D01*
X156830000Y-65259169D01*
X156897750Y-65237956D01*
X156966217Y-65256738D01*
X156969954Y-65259139D01*
X156990520Y-65272881D01*
X157049936Y-65284700D01*
X157049941Y-65284700D01*
X157750059Y-65284700D01*
X157750064Y-65284700D01*
X157809480Y-65272881D01*
X157830000Y-65259169D01*
X157897750Y-65237956D01*
X157966217Y-65256738D01*
X157969954Y-65259139D01*
X157990520Y-65272881D01*
X158049936Y-65284700D01*
X158049941Y-65284700D01*
X158750059Y-65284700D01*
X158750064Y-65284700D01*
X158809480Y-65272881D01*
X158876860Y-65227860D01*
X158921881Y-65160480D01*
X158933700Y-65101064D01*
X158933700Y-63710936D01*
X158921881Y-63651520D01*
X158876860Y-63584140D01*
X158809480Y-63539119D01*
X158809479Y-63539118D01*
X158750064Y-63527300D01*
X158049936Y-63527300D01*
X158049935Y-63527300D01*
X157990520Y-63539118D01*
X157990517Y-63539119D01*
X157970000Y-63552829D01*
X157902247Y-63574043D01*
X157833781Y-63555259D01*
X157830000Y-63552829D01*
X157809482Y-63539119D01*
X157809479Y-63539118D01*
X157750064Y-63527300D01*
X157049936Y-63527300D01*
X157049935Y-63527300D01*
X156990520Y-63539118D01*
X156990517Y-63539119D01*
X156970000Y-63552829D01*
X156902247Y-63574043D01*
X156833781Y-63555259D01*
X156830000Y-63552829D01*
X156809482Y-63539119D01*
X156809479Y-63539118D01*
X156750064Y-63527300D01*
X156049936Y-63527300D01*
X156049935Y-63527300D01*
X155990520Y-63539118D01*
X155990517Y-63539119D01*
X155970000Y-63552829D01*
X155902247Y-63574043D01*
X155833781Y-63555259D01*
X155830000Y-63552829D01*
X155809482Y-63539119D01*
X155809479Y-63539118D01*
X155750064Y-63527300D01*
X155049936Y-63527300D01*
X155049935Y-63527300D01*
X154990520Y-63539118D01*
X154923140Y-63584140D01*
X154878118Y-63651520D01*
X154866300Y-63710935D01*
X153933700Y-63710935D01*
X153921881Y-63651520D01*
X153876860Y-63584140D01*
X153809480Y-63539119D01*
X153809479Y-63539118D01*
X153750064Y-63527300D01*
X153288000Y-63527300D01*
X153219879Y-63507298D01*
X153173386Y-63453642D01*
X153162000Y-63401300D01*
X153162000Y-62093187D01*
X153162607Y-62080837D01*
X153179998Y-61904262D01*
X153179999Y-61904255D01*
X153184814Y-61880042D01*
X153234521Y-61716181D01*
X153243965Y-61693380D01*
X153324682Y-61542369D01*
X153338398Y-61521842D01*
X153447025Y-61389479D01*
X153464479Y-61372025D01*
X153596842Y-61263398D01*
X153617369Y-61249682D01*
X153768380Y-61168965D01*
X153791181Y-61159521D01*
X153955042Y-61109814D01*
X153979257Y-61104998D01*
X154155837Y-61087606D01*
X154168187Y-61087000D01*
X159267813Y-61087000D01*
X159280162Y-61087606D01*
G37*
%TD.AperFunction*%
%TD*%
%TA.AperFunction,Conductor*%
%TO.N,/OUTB*%
G36*
X151025162Y-61087606D02*
G01*
X151201740Y-61104998D01*
X151225959Y-61109815D01*
X151389815Y-61159520D01*
X151412622Y-61168967D01*
X151495002Y-61213000D01*
X151563627Y-61249681D01*
X151584165Y-61263404D01*
X151716514Y-61372020D01*
X151733979Y-61389485D01*
X151842595Y-61521834D01*
X151856318Y-61542372D01*
X151937029Y-61693370D01*
X151946482Y-61716191D01*
X151996183Y-61880037D01*
X152001001Y-61904261D01*
X152018393Y-62080836D01*
X152019000Y-62093187D01*
X152019000Y-63292910D01*
X152014706Y-63325522D01*
X152002214Y-63372141D01*
X151969603Y-63428624D01*
X151947624Y-63450603D01*
X151891142Y-63483214D01*
X151844524Y-63495706D01*
X151811911Y-63500000D01*
X151630014Y-63500000D01*
X151585292Y-63524421D01*
X151558509Y-63527300D01*
X151049935Y-63527300D01*
X150990520Y-63539118D01*
X150923140Y-63584140D01*
X150878118Y-63651520D01*
X150866300Y-63710935D01*
X150866300Y-65101064D01*
X150878118Y-65160479D01*
X150878119Y-65160480D01*
X150923140Y-65227860D01*
X150990520Y-65272881D01*
X151049936Y-65284700D01*
X151049941Y-65284700D01*
X151512000Y-65284700D01*
X151580121Y-65304702D01*
X151626614Y-65358358D01*
X151638000Y-65410700D01*
X151638000Y-72399812D01*
X151637393Y-72412163D01*
X151620001Y-72588738D01*
X151615183Y-72612962D01*
X151565482Y-72776808D01*
X151556029Y-72799629D01*
X151475318Y-72950627D01*
X151461595Y-72971165D01*
X151352979Y-73103514D01*
X151335514Y-73120979D01*
X151203165Y-73229595D01*
X151182627Y-73243318D01*
X151031629Y-73324029D01*
X151008808Y-73333482D01*
X150844962Y-73383183D01*
X150820738Y-73388001D01*
X150672273Y-73402624D01*
X150644161Y-73405393D01*
X150631813Y-73406000D01*
X146304000Y-73406000D01*
X146304000Y-81651300D01*
X146283998Y-81719421D01*
X146230342Y-81765914D01*
X146178000Y-81777300D01*
X146049935Y-81777300D01*
X145990520Y-81789118D01*
X145923140Y-81834140D01*
X145878118Y-81901520D01*
X145866300Y-81960935D01*
X145866300Y-83351062D01*
X145866489Y-83352981D01*
X145866300Y-83353977D01*
X145866300Y-83357254D01*
X145865679Y-83357254D01*
X145860952Y-83382177D01*
X145858229Y-83411765D01*
X145854416Y-83416647D01*
X145853262Y-83422735D01*
X145832817Y-83444305D01*
X145814532Y-83467721D01*
X145806829Y-83471725D01*
X145804423Y-83474264D01*
X145782711Y-83484263D01*
X145626223Y-83539021D01*
X145598715Y-83545300D01*
X145429107Y-83564410D01*
X145400893Y-83564410D01*
X145231284Y-83545300D01*
X145203776Y-83539021D01*
X145042677Y-83482650D01*
X145017258Y-83470409D01*
X144872737Y-83379600D01*
X144850678Y-83362008D01*
X144729991Y-83241321D01*
X144712399Y-83219262D01*
X144621588Y-83074738D01*
X144609351Y-83049327D01*
X144552976Y-82888218D01*
X144546700Y-82860720D01*
X144526792Y-82684029D01*
X144526000Y-82669922D01*
X144526000Y-63710935D01*
X145866300Y-63710935D01*
X145866300Y-65101064D01*
X145878118Y-65160479D01*
X145878119Y-65160480D01*
X145923140Y-65227860D01*
X145990520Y-65272881D01*
X146049936Y-65284700D01*
X146049941Y-65284700D01*
X146750059Y-65284700D01*
X146750064Y-65284700D01*
X146809480Y-65272881D01*
X146830000Y-65259169D01*
X146897750Y-65237956D01*
X146966217Y-65256738D01*
X146969954Y-65259139D01*
X146990520Y-65272881D01*
X147049936Y-65284700D01*
X147049941Y-65284700D01*
X147750059Y-65284700D01*
X147750064Y-65284700D01*
X147809480Y-65272881D01*
X147830000Y-65259169D01*
X147897750Y-65237956D01*
X147966217Y-65256738D01*
X147969954Y-65259139D01*
X147990520Y-65272881D01*
X148049936Y-65284700D01*
X148049941Y-65284700D01*
X148750059Y-65284700D01*
X148750064Y-65284700D01*
X148809480Y-65272881D01*
X148830000Y-65259169D01*
X148897750Y-65237956D01*
X148966217Y-65256738D01*
X148969954Y-65259139D01*
X148990520Y-65272881D01*
X149049936Y-65284700D01*
X149049941Y-65284700D01*
X149750059Y-65284700D01*
X149750064Y-65284700D01*
X149809480Y-65272881D01*
X149876860Y-65227860D01*
X149921881Y-65160480D01*
X149933700Y-65101064D01*
X149933700Y-63710936D01*
X149921881Y-63651520D01*
X149876860Y-63584140D01*
X149809480Y-63539119D01*
X149809479Y-63539118D01*
X149750064Y-63527300D01*
X149049936Y-63527300D01*
X149049935Y-63527300D01*
X148990520Y-63539118D01*
X148990517Y-63539119D01*
X148970000Y-63552829D01*
X148902247Y-63574043D01*
X148833781Y-63555259D01*
X148830000Y-63552829D01*
X148809482Y-63539119D01*
X148809479Y-63539118D01*
X148750064Y-63527300D01*
X148049936Y-63527300D01*
X148049935Y-63527300D01*
X147990520Y-63539118D01*
X147990517Y-63539119D01*
X147970000Y-63552829D01*
X147902247Y-63574043D01*
X147833781Y-63555259D01*
X147830000Y-63552829D01*
X147809482Y-63539119D01*
X147809479Y-63539118D01*
X147750064Y-63527300D01*
X147049936Y-63527300D01*
X147049935Y-63527300D01*
X146990520Y-63539118D01*
X146990517Y-63539119D01*
X146970000Y-63552829D01*
X146902247Y-63574043D01*
X146833781Y-63555259D01*
X146830000Y-63552829D01*
X146809482Y-63539119D01*
X146809479Y-63539118D01*
X146750064Y-63527300D01*
X146049936Y-63527300D01*
X146049935Y-63527300D01*
X145990520Y-63539118D01*
X145923140Y-63584140D01*
X145878118Y-63651520D01*
X145866300Y-63710935D01*
X144526000Y-63710935D01*
X144526000Y-63563500D01*
X144546002Y-63495379D01*
X144599658Y-63448886D01*
X144652000Y-63437500D01*
X144934053Y-63437500D01*
X144934060Y-63437500D01*
X145239544Y-63397282D01*
X145537164Y-63317535D01*
X145821830Y-63199622D01*
X146088670Y-63045562D01*
X146088670Y-63045561D01*
X146088675Y-63045559D01*
X146230632Y-62936630D01*
X146333117Y-62857991D01*
X146550991Y-62640117D01*
X146629630Y-62537632D01*
X146738559Y-62395675D01*
X146892615Y-62128842D01*
X146892614Y-62128842D01*
X146892622Y-62128830D01*
X147010535Y-61844164D01*
X147090282Y-61546544D01*
X147130500Y-61241060D01*
X147130500Y-61213000D01*
X147150502Y-61144879D01*
X147204158Y-61098386D01*
X147256500Y-61087000D01*
X151012813Y-61087000D01*
X151025162Y-61087606D01*
G37*
%TD.AperFunction*%
%TD*%
%TA.AperFunction,Conductor*%
%TO.N,+12V*%
G36*
X152555460Y-63517516D02*
G01*
X152582956Y-63523792D01*
X152717220Y-63570773D01*
X152742635Y-63583013D01*
X152807336Y-63623667D01*
X152854374Y-63676845D01*
X152866300Y-63730354D01*
X152866300Y-65101064D01*
X152878118Y-65160479D01*
X152923142Y-65227863D01*
X152928367Y-65233088D01*
X152962393Y-65295400D01*
X152962394Y-65348960D01*
X152961753Y-65351906D01*
X152953300Y-65410695D01*
X152953300Y-72399809D01*
X152953551Y-72410055D01*
X152954159Y-72422412D01*
X152954912Y-72432629D01*
X152972301Y-72609182D01*
X152975307Y-72629452D01*
X152980121Y-72653658D01*
X152985100Y-72673538D01*
X153034803Y-72837389D01*
X153034806Y-72837397D01*
X153041706Y-72856681D01*
X153041718Y-72856709D01*
X153051148Y-72879478D01*
X153051160Y-72879504D01*
X153059894Y-72897971D01*
X153059913Y-72898009D01*
X153127009Y-73023537D01*
X153140629Y-73049016D01*
X153144072Y-73054760D01*
X153162000Y-73119538D01*
X153162000Y-73406000D01*
X153448460Y-73406000D01*
X153513237Y-73423926D01*
X153518994Y-73427377D01*
X153569324Y-73454279D01*
X153669991Y-73508087D01*
X153670021Y-73508101D01*
X153688491Y-73516836D01*
X153688499Y-73516840D01*
X153688504Y-73516842D01*
X153688506Y-73516843D01*
X153711325Y-73526295D01*
X153730610Y-73533196D01*
X153894456Y-73582897D01*
X153904390Y-73585385D01*
X153914304Y-73587869D01*
X153914320Y-73587873D01*
X153914324Y-73587873D01*
X153914325Y-73587874D01*
X153938549Y-73592692D01*
X153938564Y-73592694D01*
X153938567Y-73592695D01*
X153953740Y-73594945D01*
X153958804Y-73595696D01*
X154061069Y-73605768D01*
X154135369Y-73613087D01*
X154135376Y-73613087D01*
X154135381Y-73613088D01*
X154145592Y-73613841D01*
X154157941Y-73614448D01*
X154168187Y-73614700D01*
X158055433Y-73614700D01*
X158079634Y-73621806D01*
X158104687Y-73624726D01*
X158118914Y-73633339D01*
X158123554Y-73634702D01*
X158135366Y-73643300D01*
X158174888Y-73675734D01*
X158193512Y-73691019D01*
X158193514Y-73691020D01*
X158210978Y-73708484D01*
X158258699Y-73766632D01*
X158286453Y-73831978D01*
X158287300Y-73846565D01*
X158287300Y-81651300D01*
X158267298Y-81719421D01*
X158213642Y-81765914D01*
X158161300Y-81777300D01*
X158049935Y-81777300D01*
X157990520Y-81789118D01*
X157923140Y-81834140D01*
X157878118Y-81901520D01*
X157866300Y-81960935D01*
X157866300Y-83351069D01*
X157870766Y-83373519D01*
X157870506Y-83376416D01*
X157871740Y-83379055D01*
X157867360Y-83411573D01*
X157864437Y-83444233D01*
X157862651Y-83446531D01*
X157862263Y-83449416D01*
X157841003Y-83474398D01*
X157820882Y-83500299D01*
X157817563Y-83501941D01*
X157816251Y-83503484D01*
X157783762Y-83518673D01*
X157702962Y-83543183D01*
X157678738Y-83548001D01*
X157530273Y-83562624D01*
X157502161Y-83565393D01*
X157489813Y-83566000D01*
X157044478Y-83566000D01*
X156976357Y-83545998D01*
X156929864Y-83492342D01*
X156919760Y-83422068D01*
X156920899Y-83415419D01*
X156929233Y-83373519D01*
X156933700Y-83351064D01*
X156933700Y-81960936D01*
X156921881Y-81901520D01*
X156876860Y-81834140D01*
X156809480Y-81789119D01*
X156809479Y-81789118D01*
X156750064Y-81777300D01*
X156049936Y-81777300D01*
X156049935Y-81777300D01*
X155990520Y-81789118D01*
X155990517Y-81789119D01*
X155970000Y-81802829D01*
X155902247Y-81824043D01*
X155833781Y-81805259D01*
X155830000Y-81802829D01*
X155809482Y-81789119D01*
X155809479Y-81789118D01*
X155750064Y-81777300D01*
X155049936Y-81777300D01*
X155049935Y-81777300D01*
X154990520Y-81789118D01*
X154990517Y-81789119D01*
X154970000Y-81802829D01*
X154902247Y-81824043D01*
X154833781Y-81805259D01*
X154830000Y-81802829D01*
X154809482Y-81789119D01*
X154809479Y-81789118D01*
X154750064Y-81777300D01*
X154049936Y-81777300D01*
X154049935Y-81777300D01*
X153990520Y-81789118D01*
X153990517Y-81789119D01*
X153970000Y-81802829D01*
X153902247Y-81824043D01*
X153833781Y-81805259D01*
X153830000Y-81802829D01*
X153809482Y-81789119D01*
X153809479Y-81789118D01*
X153750064Y-81777300D01*
X153049936Y-81777300D01*
X153049935Y-81777300D01*
X152990520Y-81789118D01*
X152990517Y-81789119D01*
X152970000Y-81802829D01*
X152902247Y-81824043D01*
X152833781Y-81805259D01*
X152830000Y-81802829D01*
X152809482Y-81789119D01*
X152809479Y-81789118D01*
X152750064Y-81777300D01*
X152049936Y-81777300D01*
X152049935Y-81777300D01*
X151990520Y-81789118D01*
X151990517Y-81789119D01*
X151970000Y-81802829D01*
X151902247Y-81824043D01*
X151833781Y-81805259D01*
X151830000Y-81802829D01*
X151809482Y-81789119D01*
X151809479Y-81789118D01*
X151750064Y-81777300D01*
X151049936Y-81777300D01*
X151049935Y-81777300D01*
X150990520Y-81789118D01*
X150990517Y-81789119D01*
X150970000Y-81802829D01*
X150902247Y-81824043D01*
X150833781Y-81805259D01*
X150830000Y-81802829D01*
X150809482Y-81789119D01*
X150809479Y-81789118D01*
X150750064Y-81777300D01*
X150049936Y-81777300D01*
X150049935Y-81777300D01*
X149990520Y-81789118D01*
X149990517Y-81789119D01*
X149970000Y-81802829D01*
X149902247Y-81824043D01*
X149833781Y-81805259D01*
X149830000Y-81802829D01*
X149809482Y-81789119D01*
X149809479Y-81789118D01*
X149750064Y-81777300D01*
X149049936Y-81777300D01*
X149049935Y-81777300D01*
X148990520Y-81789118D01*
X148923140Y-81834140D01*
X148878118Y-81901520D01*
X148866300Y-81960935D01*
X148866300Y-83351064D01*
X148878118Y-83410479D01*
X148878119Y-83410480D01*
X148923140Y-83477860D01*
X148990520Y-83522881D01*
X149049936Y-83534700D01*
X149049941Y-83534700D01*
X149750059Y-83534700D01*
X149750064Y-83534700D01*
X149809480Y-83522881D01*
X149830000Y-83509169D01*
X149897750Y-83487956D01*
X149966217Y-83506738D01*
X149969954Y-83509139D01*
X149990520Y-83522881D01*
X150049936Y-83534700D01*
X150049941Y-83534700D01*
X150750059Y-83534700D01*
X150750064Y-83534700D01*
X150809480Y-83522881D01*
X150830000Y-83509169D01*
X150897750Y-83487956D01*
X150966217Y-83506738D01*
X150969954Y-83509139D01*
X150990520Y-83522881D01*
X151049936Y-83534700D01*
X151049941Y-83534700D01*
X151750059Y-83534700D01*
X151750064Y-83534700D01*
X151809480Y-83522881D01*
X151830000Y-83509169D01*
X151897750Y-83487956D01*
X151966217Y-83506738D01*
X151969954Y-83509139D01*
X151990520Y-83522881D01*
X152049936Y-83534700D01*
X152049941Y-83534700D01*
X152750059Y-83534700D01*
X152750064Y-83534700D01*
X152809480Y-83522881D01*
X152830000Y-83509169D01*
X152846311Y-83504062D01*
X152860365Y-83494332D01*
X152879489Y-83493673D01*
X152897750Y-83487956D01*
X152914721Y-83492461D01*
X152931319Y-83491890D01*
X152958776Y-83504155D01*
X152964435Y-83505658D01*
X152967255Y-83507336D01*
X152990520Y-83522881D01*
X152994811Y-83523734D01*
X153007733Y-83531424D01*
X153025950Y-83551042D01*
X153046794Y-83567838D01*
X153049725Y-83576645D01*
X153056044Y-83583449D01*
X153060762Y-83609799D01*
X153069218Y-83635200D01*
X153069298Y-83639702D01*
X153069298Y-83764722D01*
X153102601Y-84060308D01*
X153119578Y-84134687D01*
X153168790Y-84350302D01*
X153168792Y-84350308D01*
X153168791Y-84350308D01*
X153267026Y-84631046D01*
X153267037Y-84631073D01*
X153396089Y-84899053D01*
X153396093Y-84899061D01*
X153523689Y-85102130D01*
X153543000Y-85169163D01*
X153543000Y-86959358D01*
X153522998Y-87027479D01*
X153469342Y-87073972D01*
X153455937Y-87079191D01*
X153331544Y-87119609D01*
X153159861Y-87207085D01*
X153133450Y-87226274D01*
X153111111Y-87239232D01*
X152742353Y-87405226D01*
X152742352Y-87405225D01*
X152733067Y-87409404D01*
X152713579Y-87414627D01*
X152685658Y-87430746D01*
X152679871Y-87433352D01*
X152679864Y-87433356D01*
X152668208Y-87438602D01*
X152652949Y-87446237D01*
X152651330Y-87447131D01*
X152646794Y-87449712D01*
X152640790Y-87454142D01*
X152640708Y-87454032D01*
X152624573Y-87466013D01*
X152598727Y-87480936D01*
X152598713Y-87480946D01*
X152504945Y-87574714D01*
X152504937Y-87574724D01*
X152438627Y-87689577D01*
X152404300Y-87817688D01*
X152404300Y-87885000D01*
X152384298Y-87953121D01*
X152330642Y-87999614D01*
X152278300Y-88011000D01*
X149098000Y-88011000D01*
X149098000Y-89094709D01*
X149077998Y-89162830D01*
X149024342Y-89209323D01*
X149010937Y-89214542D01*
X148966958Y-89228831D01*
X148816047Y-89305724D01*
X148679028Y-89405274D01*
X148559272Y-89525030D01*
X148459722Y-89662049D01*
X148382831Y-89812957D01*
X148382828Y-89812963D01*
X148330494Y-89974030D01*
X148330493Y-89974035D01*
X148330493Y-89974036D01*
X148303998Y-90141317D01*
X148303998Y-90310683D01*
X148322504Y-90427521D01*
X148330494Y-90477969D01*
X148382828Y-90639036D01*
X148382830Y-90639041D01*
X148459720Y-90789947D01*
X148459722Y-90789950D01*
X148559272Y-90926969D01*
X148679028Y-91046725D01*
X148679031Y-91046727D01*
X148816051Y-91146278D01*
X148966957Y-91223168D01*
X149010935Y-91237457D01*
X149069541Y-91277530D01*
X149097179Y-91342926D01*
X149098000Y-91357290D01*
X149098000Y-92719812D01*
X149097393Y-92732163D01*
X149080001Y-92908738D01*
X149075183Y-92932962D01*
X149025482Y-93096808D01*
X149016029Y-93119629D01*
X148935318Y-93270627D01*
X148921595Y-93291165D01*
X148812979Y-93423514D01*
X148795514Y-93440979D01*
X148663165Y-93549595D01*
X148642627Y-93563318D01*
X148491629Y-93644029D01*
X148468808Y-93653482D01*
X148304962Y-93703183D01*
X148280738Y-93708001D01*
X148132273Y-93722624D01*
X148104161Y-93725393D01*
X148091813Y-93726000D01*
X143375091Y-93726000D01*
X143362738Y-93725393D01*
X143186120Y-93707993D01*
X143161890Y-93703172D01*
X142998019Y-93653452D01*
X142975195Y-93643996D01*
X142935735Y-93622899D01*
X142885092Y-93573142D01*
X142869142Y-93511745D01*
X142872232Y-84033903D01*
X142876245Y-84020255D01*
X142875358Y-84006053D01*
X142886060Y-83986866D01*
X142892256Y-83965792D01*
X142903709Y-83955228D01*
X142909944Y-83944051D01*
X142938843Y-83922821D01*
X142977931Y-83901933D01*
X143000734Y-83892490D01*
X143164555Y-83842807D01*
X143188768Y-83837991D01*
X143365323Y-83820606D01*
X143377671Y-83820000D01*
X144835110Y-83820000D01*
X144903231Y-83840002D01*
X144949724Y-83893658D01*
X144959828Y-83963932D01*
X144947843Y-83998561D01*
X144948786Y-83998952D01*
X144945629Y-84006572D01*
X144945627Y-84006578D01*
X144945627Y-84006579D01*
X144911300Y-84134687D01*
X144911300Y-84267313D01*
X144933537Y-84350302D01*
X144945627Y-84395422D01*
X145011937Y-84510275D01*
X145011945Y-84510285D01*
X145105714Y-84604054D01*
X145105719Y-84604058D01*
X145105721Y-84604060D01*
X145105722Y-84604061D01*
X145105724Y-84604062D01*
X145152509Y-84631073D01*
X145220579Y-84670373D01*
X145348687Y-84704700D01*
X145348689Y-84704700D01*
X145481311Y-84704700D01*
X145481313Y-84704700D01*
X145609421Y-84670373D01*
X145724279Y-84604060D01*
X145818060Y-84510279D01*
X145884373Y-84395421D01*
X145918700Y-84267313D01*
X145918700Y-84134687D01*
X145884373Y-84006579D01*
X145884370Y-84006575D01*
X145884370Y-84006572D01*
X145881214Y-83998952D01*
X145883137Y-83998155D01*
X145869033Y-83939996D01*
X145892259Y-83872906D01*
X145948069Y-83829022D01*
X145994890Y-83820000D01*
X146304000Y-83820000D01*
X146304000Y-83660700D01*
X146324002Y-83592579D01*
X146377658Y-83546086D01*
X146430000Y-83534700D01*
X146750059Y-83534700D01*
X146750064Y-83534700D01*
X146809480Y-83522881D01*
X146876860Y-83477860D01*
X146921881Y-83410480D01*
X146933700Y-83351064D01*
X146933700Y-81960936D01*
X146921881Y-81901520D01*
X146876860Y-81834140D01*
X146809480Y-81789119D01*
X146809479Y-81789118D01*
X146750064Y-81777300D01*
X146638700Y-81777300D01*
X146570579Y-81757298D01*
X146524086Y-81703642D01*
X146512700Y-81651300D01*
X146512700Y-73846565D01*
X146519805Y-73822364D01*
X146522726Y-73797310D01*
X146531340Y-73783082D01*
X146532702Y-73778444D01*
X146541291Y-73766644D01*
X146589025Y-73708479D01*
X146606479Y-73691025D01*
X146652351Y-73653379D01*
X146664635Y-73643299D01*
X146729983Y-73615547D01*
X146744567Y-73614700D01*
X150631811Y-73614700D01*
X150631813Y-73614700D01*
X150642060Y-73614448D01*
X150654408Y-73613841D01*
X150664618Y-73613088D01*
X150841195Y-73595696D01*
X150853067Y-73593935D01*
X150861431Y-73592695D01*
X150861432Y-73592694D01*
X150861450Y-73592692D01*
X150885674Y-73587874D01*
X150905543Y-73582897D01*
X151069389Y-73533196D01*
X151069409Y-73533188D01*
X151069433Y-73533181D01*
X151088640Y-73526308D01*
X151088644Y-73526306D01*
X151088676Y-73526295D01*
X151111497Y-73516842D01*
X151130010Y-73508086D01*
X151281008Y-73427375D01*
X151286762Y-73423925D01*
X151351539Y-73406000D01*
X151638000Y-73406000D01*
X151638000Y-73119538D01*
X151655929Y-73054756D01*
X151659375Y-73049008D01*
X151740086Y-72898010D01*
X151748842Y-72879497D01*
X151758295Y-72856676D01*
X151758308Y-72856640D01*
X151765181Y-72837433D01*
X151765195Y-72837391D01*
X151765196Y-72837389D01*
X151814897Y-72673543D01*
X151819874Y-72653674D01*
X151824692Y-72629450D01*
X151827696Y-72609195D01*
X151845088Y-72432620D01*
X151845841Y-72422407D01*
X151846448Y-72410056D01*
X151846700Y-72399812D01*
X151846700Y-65410700D01*
X151841931Y-65366339D01*
X151838054Y-65348516D01*
X151843120Y-65277702D01*
X151872083Y-65232636D01*
X151876853Y-65227864D01*
X151876860Y-65227860D01*
X151921881Y-65160480D01*
X151933700Y-65101064D01*
X151933700Y-63772375D01*
X151935064Y-63767727D01*
X151934050Y-63762993D01*
X151944969Y-63733993D01*
X151953702Y-63704254D01*
X151957833Y-63699829D01*
X151959069Y-63696550D01*
X151969596Y-63687236D01*
X151984507Y-63671271D01*
X151992906Y-63665024D01*
X151995495Y-63663952D01*
X152051977Y-63631341D01*
X152095197Y-63598176D01*
X152117176Y-63576197D01*
X152123599Y-63567826D01*
X152136961Y-63557889D01*
X152152803Y-63552036D01*
X152170534Y-63540066D01*
X152217046Y-63523791D01*
X152244539Y-63517516D01*
X152385897Y-63501589D01*
X152414103Y-63501589D01*
X152555460Y-63517516D01*
G37*
%TD.AperFunction*%
%TD*%
%TA.AperFunction,Conductor*%
%TO.N,CS*%
G36*
X157075723Y-87228755D02*
G01*
X157083151Y-87233754D01*
X157084870Y-87242542D01*
X157084570Y-87243709D01*
X156923764Y-87758823D01*
X156918028Y-87765699D01*
X156912596Y-87767036D01*
X156675804Y-87767036D01*
X156667531Y-87763609D01*
X156664636Y-87758823D01*
X156503829Y-87243709D01*
X156504634Y-87234790D01*
X156511510Y-87229054D01*
X156512658Y-87228758D01*
X156791882Y-87172269D01*
X156796518Y-87172269D01*
X157075723Y-87228755D01*
G37*
%TD.AperFunction*%
%TD*%
%TA.AperFunction,Conductor*%
%TO.N,GND*%
G36*
X159893849Y-88489781D02*
G01*
X159894463Y-88490817D01*
X160144995Y-88968764D01*
X160145800Y-88977683D01*
X160142905Y-88982469D01*
X159975469Y-89149905D01*
X159967196Y-89153332D01*
X159961764Y-89151995D01*
X159708819Y-89019405D01*
X159483816Y-88901462D01*
X159478081Y-88894587D01*
X159478886Y-88885668D01*
X159479500Y-88884632D01*
X159636985Y-88647263D01*
X159640263Y-88643985D01*
X159877632Y-88486499D01*
X159886420Y-88484781D01*
X159893849Y-88489781D01*
G37*
%TD.AperFunction*%
%TD*%
%TA.AperFunction,Conductor*%
%TO.N,GND*%
G36*
X154249021Y-92165851D02*
G01*
X154764175Y-92334363D01*
X154770971Y-92340191D01*
X154772236Y-92345482D01*
X154772236Y-92582271D01*
X154768809Y-92590544D01*
X154763870Y-92593486D01*
X154248791Y-92746590D01*
X154239884Y-92745662D01*
X154234242Y-92738709D01*
X154233993Y-92737712D01*
X154177469Y-92458318D01*
X154177469Y-92453680D01*
X154233919Y-92174650D01*
X154238919Y-92167223D01*
X154247707Y-92165504D01*
X154249021Y-92165851D01*
G37*
%TD.AperFunction*%
%TD*%
%TA.AperFunction,Conductor*%
%TO.N,+3V3*%
G36*
X154619181Y-89573626D02*
G01*
X154678076Y-89592011D01*
X154679271Y-89592459D01*
X154712042Y-89606929D01*
X154729759Y-89614753D01*
X154729761Y-89614753D01*
X154729763Y-89614754D01*
X154755155Y-89617700D01*
X154758584Y-89617699D01*
X154762060Y-89618229D01*
X155072735Y-89715215D01*
X155134302Y-89734436D01*
X155141178Y-89740172D01*
X155142515Y-89745604D01*
X155142515Y-89982394D01*
X155139088Y-89990667D01*
X155134302Y-89993562D01*
X154762057Y-90109768D01*
X154758573Y-90110300D01*
X154755155Y-90110300D01*
X154729762Y-90113245D01*
X154679310Y-90135522D01*
X154678071Y-90135987D01*
X154619189Y-90154369D01*
X154610270Y-90153564D01*
X154604534Y-90146688D01*
X154604238Y-90145536D01*
X154547750Y-89866317D01*
X154547750Y-89861679D01*
X154573493Y-89734436D01*
X154604235Y-89582475D01*
X154609235Y-89575047D01*
X154618023Y-89573328D01*
X154619181Y-89573626D01*
G37*
%TD.AperFunction*%
%TD*%
%TA.AperFunction,Conductor*%
%TO.N,CANH*%
G36*
X164293469Y-84683094D02*
G01*
X164460905Y-84850530D01*
X164464332Y-84858803D01*
X164462995Y-84864235D01*
X164212463Y-85342182D01*
X164205587Y-85347918D01*
X164196668Y-85347113D01*
X164195632Y-85346499D01*
X163958265Y-85189015D01*
X163954984Y-85185734D01*
X163797500Y-84948367D01*
X163795781Y-84939579D01*
X163800781Y-84932150D01*
X163801799Y-84931546D01*
X164279765Y-84681003D01*
X164288683Y-84680199D01*
X164293469Y-84683094D01*
G37*
%TD.AperFunction*%
%TD*%
%TA.AperFunction,Conductor*%
%TO.N,CANL*%
G36*
X164293471Y-83683095D02*
G01*
X164460907Y-83850532D01*
X164464334Y-83858805D01*
X164462997Y-83864237D01*
X164212463Y-84342182D01*
X164205586Y-84347918D01*
X164196668Y-84347113D01*
X164195632Y-84346499D01*
X163958265Y-84189015D01*
X163954984Y-84185734D01*
X163797500Y-83948368D01*
X163795781Y-83939580D01*
X163800781Y-83932151D01*
X163801817Y-83931537D01*
X163930208Y-83864237D01*
X164279767Y-83681004D01*
X164288685Y-83680200D01*
X164293471Y-83683095D01*
G37*
%TD.AperFunction*%
%TD*%
%TA.AperFunction,Conductor*%
%TO.N,ENC_B*%
G36*
X154531287Y-88550215D02*
G01*
X154531441Y-88550571D01*
X154621929Y-88769014D01*
X154621929Y-88777969D01*
X154621495Y-88778900D01*
X154407375Y-89189698D01*
X154400512Y-89195450D01*
X154391592Y-89194665D01*
X154390527Y-89194036D01*
X154152967Y-89036251D01*
X154149691Y-89032973D01*
X153992845Y-88796567D01*
X153991126Y-88787779D01*
X153996126Y-88780350D01*
X153997747Y-88779450D01*
X154515800Y-88544393D01*
X154524748Y-88544097D01*
X154531287Y-88550215D01*
G37*
%TD.AperFunction*%
%TD*%
%TA.AperFunction,Conductor*%
%TO.N,ENC_A{slash}PWM*%
G36*
X162318998Y-86198945D02*
G01*
X162475214Y-86302909D01*
X162556935Y-86357295D01*
X162561924Y-86364731D01*
X162561936Y-86364790D01*
X162616185Y-86642258D01*
X162614409Y-86651035D01*
X162606947Y-86655986D01*
X162606461Y-86656070D01*
X162061333Y-86738953D01*
X162052638Y-86736809D01*
X162048007Y-86729145D01*
X162047874Y-86727386D01*
X162047874Y-86491468D01*
X162050854Y-86483668D01*
X162303800Y-86200884D01*
X162311867Y-86197004D01*
X162318998Y-86198945D01*
G37*
%TD.AperFunction*%
%TD*%
%TA.AperFunction,Conductor*%
%TO.N,LIM_A*%
G36*
X150819902Y-88482627D02*
G01*
X151335022Y-88643436D01*
X151341898Y-88649172D01*
X151343235Y-88654604D01*
X151343235Y-88891394D01*
X151339808Y-88899667D01*
X151335022Y-88902562D01*
X150819909Y-89063370D01*
X150810990Y-89062565D01*
X150805254Y-89055689D01*
X150804958Y-89054537D01*
X150748470Y-88775318D01*
X150748470Y-88770680D01*
X150773052Y-88649172D01*
X150804955Y-88491474D01*
X150809954Y-88484048D01*
X150818742Y-88482329D01*
X150819902Y-88482627D01*
G37*
%TD.AperFunction*%
%TD*%
%TA.AperFunction,Conductor*%
%TO.N,LIM_B*%
G36*
X153218312Y-87430557D02*
G01*
X153350255Y-87628011D01*
X153352002Y-87636792D01*
X153351112Y-87639496D01*
X153163211Y-88038419D01*
X153156585Y-88044443D01*
X153147640Y-88044018D01*
X153146156Y-88043181D01*
X152909141Y-87885864D01*
X152905861Y-87882584D01*
X152748945Y-87646040D01*
X152747227Y-87637251D01*
X152752227Y-87629822D01*
X152753883Y-87628907D01*
X153203782Y-87426387D01*
X153212732Y-87426117D01*
X153218312Y-87430557D01*
G37*
%TD.AperFunction*%
%TD*%
%TA.AperFunction,Conductor*%
%TO.N,IN_A*%
G36*
X162521002Y-88573346D02*
G01*
X162521908Y-88574980D01*
X162709266Y-88987953D01*
X162709563Y-88996903D01*
X162706742Y-89001200D01*
X162535731Y-89166469D01*
X162527400Y-89169754D01*
X162522800Y-89168726D01*
X162112689Y-88984236D01*
X162106550Y-88977717D01*
X162106819Y-88968766D01*
X162107731Y-88967112D01*
X162264792Y-88730390D01*
X162268067Y-88727116D01*
X162504787Y-88570064D01*
X162513573Y-88568346D01*
X162521002Y-88573346D01*
G37*
%TD.AperFunction*%
%TD*%
%TA.AperFunction,Conductor*%
%TO.N,IN_A*%
G36*
X162206923Y-88438343D02*
G01*
X162210176Y-88444354D01*
X162266821Y-88724372D01*
X162265102Y-88733161D01*
X162265063Y-88733219D01*
X162106809Y-88968634D01*
X162099349Y-88973589D01*
X162090572Y-88971817D01*
X162090338Y-88971656D01*
X162062856Y-88952197D01*
X162058915Y-88947374D01*
X162055392Y-88939395D01*
X162055390Y-88939393D01*
X161975107Y-88859109D01*
X161975105Y-88859108D01*
X161871237Y-88813246D01*
X161868678Y-88812949D01*
X161863268Y-88810876D01*
X161701048Y-88696013D01*
X161696276Y-88688435D01*
X161696112Y-88686209D01*
X161701257Y-88449846D01*
X161704863Y-88441652D01*
X161712869Y-88438403D01*
X162198625Y-88434974D01*
X162206923Y-88438343D01*
G37*
%TD.AperFunction*%
%TD*%
%TA.AperFunction,Conductor*%
%TO.N,IN_B*%
G36*
X156706980Y-85580650D02*
G01*
X156707594Y-85581686D01*
X156958128Y-86059630D01*
X156958933Y-86068548D01*
X156956038Y-86073335D01*
X156788603Y-86240772D01*
X156780330Y-86244199D01*
X156774898Y-86242862D01*
X156296948Y-85992331D01*
X156291212Y-85985455D01*
X156292017Y-85976536D01*
X156292622Y-85975514D01*
X156450116Y-85738132D01*
X156453394Y-85734854D01*
X156690763Y-85577368D01*
X156699551Y-85575650D01*
X156706980Y-85580650D01*
G37*
%TD.AperFunction*%
%TD*%
%TA.AperFunction,Conductor*%
%TO.N,CAN_TX*%
G36*
X162117009Y-90896434D02*
G01*
X162122745Y-90903310D01*
X162123045Y-90904477D01*
X162179530Y-91183680D01*
X162179530Y-91188320D01*
X162123045Y-91467522D01*
X162118045Y-91474951D01*
X162109257Y-91476670D01*
X162108090Y-91476370D01*
X161592977Y-91315563D01*
X161586101Y-91309827D01*
X161584764Y-91304395D01*
X161584764Y-91067604D01*
X161588191Y-91059331D01*
X161592977Y-91056436D01*
X162108091Y-90895629D01*
X162117009Y-90896434D01*
G37*
%TD.AperFunction*%
%TD*%
%TA.AperFunction,Conductor*%
%TO.N,CAN_TX*%
G36*
X167639669Y-87674191D02*
G01*
X167642564Y-87678977D01*
X167803370Y-88194090D01*
X167802565Y-88203009D01*
X167795689Y-88208745D01*
X167794522Y-88209045D01*
X167515320Y-88265530D01*
X167510680Y-88265530D01*
X167231477Y-88209045D01*
X167224048Y-88204045D01*
X167222329Y-88195257D01*
X167222625Y-88194102D01*
X167383436Y-87678976D01*
X167389172Y-87672101D01*
X167394604Y-87670764D01*
X167631396Y-87670764D01*
X167639669Y-87674191D01*
G37*
%TD.AperFunction*%
%TD*%
%TA.AperFunction,Conductor*%
%TO.N,CAN_RX*%
G36*
X162129622Y-90009362D02*
G01*
X162366393Y-90166714D01*
X162371386Y-90174147D01*
X162371400Y-90174214D01*
X162426031Y-90453713D01*
X162424255Y-90462489D01*
X162418132Y-90467095D01*
X161936478Y-90622070D01*
X161927552Y-90621342D01*
X161921756Y-90614516D01*
X161921593Y-90613960D01*
X161860437Y-90385721D01*
X161861606Y-90376843D01*
X161862115Y-90376039D01*
X161967000Y-90224355D01*
X161971893Y-90220310D01*
X161975105Y-90218892D01*
X162055392Y-90138605D01*
X162101254Y-90034737D01*
X162101550Y-90032182D01*
X162103545Y-90026884D01*
X162113526Y-90012450D01*
X162121048Y-90007597D01*
X162129622Y-90009362D01*
G37*
%TD.AperFunction*%
%TD*%
M02*
