%TF.GenerationSoftware,KiCad,Pcbnew,8.0.5*%
%TF.CreationDate,2024-10-31T22:43:36-05:00*%
%TF.ProjectId,STM_Breakout,53544d5f-4272-4656-916b-6f75742e6b69,rev?*%
%TF.SameCoordinates,Original*%
%TF.FileFunction,Legend,Bot*%
%TF.FilePolarity,Positive*%
%FSLAX46Y46*%
G04 Gerber Fmt 4.6, Leading zero omitted, Abs format (unit mm)*
G04 Created by KiCad (PCBNEW 8.0.5) date 2024-10-31 22:43:36*
%MOMM*%
%LPD*%
G01*
G04 APERTURE LIST*
%ADD10C,0.100000*%
G04 APERTURE END LIST*
D10*
X91437734Y-59764968D02*
X91294877Y-59812587D01*
X91294877Y-59812587D02*
X91056782Y-59812587D01*
X91056782Y-59812587D02*
X90961544Y-59764968D01*
X90961544Y-59764968D02*
X90913925Y-59717348D01*
X90913925Y-59717348D02*
X90866306Y-59622110D01*
X90866306Y-59622110D02*
X90866306Y-59526872D01*
X90866306Y-59526872D02*
X90913925Y-59431634D01*
X90913925Y-59431634D02*
X90961544Y-59384015D01*
X90961544Y-59384015D02*
X91056782Y-59336396D01*
X91056782Y-59336396D02*
X91247258Y-59288777D01*
X91247258Y-59288777D02*
X91342496Y-59241158D01*
X91342496Y-59241158D02*
X91390115Y-59193539D01*
X91390115Y-59193539D02*
X91437734Y-59098301D01*
X91437734Y-59098301D02*
X91437734Y-59003063D01*
X91437734Y-59003063D02*
X91390115Y-58907825D01*
X91390115Y-58907825D02*
X91342496Y-58860206D01*
X91342496Y-58860206D02*
X91247258Y-58812587D01*
X91247258Y-58812587D02*
X91009163Y-58812587D01*
X91009163Y-58812587D02*
X90866306Y-58860206D01*
X90580591Y-58812587D02*
X90009163Y-58812587D01*
X90294877Y-59812587D02*
X90294877Y-58812587D01*
X89675829Y-59812587D02*
X89675829Y-58812587D01*
X89675829Y-58812587D02*
X89342496Y-59526872D01*
X89342496Y-59526872D02*
X89009163Y-58812587D01*
X89009163Y-58812587D02*
X89009163Y-59812587D01*
X88628210Y-58812587D02*
X88009163Y-58812587D01*
X88009163Y-58812587D02*
X88342496Y-59193539D01*
X88342496Y-59193539D02*
X88199639Y-59193539D01*
X88199639Y-59193539D02*
X88104401Y-59241158D01*
X88104401Y-59241158D02*
X88056782Y-59288777D01*
X88056782Y-59288777D02*
X88009163Y-59384015D01*
X88009163Y-59384015D02*
X88009163Y-59622110D01*
X88009163Y-59622110D02*
X88056782Y-59717348D01*
X88056782Y-59717348D02*
X88104401Y-59764968D01*
X88104401Y-59764968D02*
X88199639Y-59812587D01*
X88199639Y-59812587D02*
X88485353Y-59812587D01*
X88485353Y-59812587D02*
X88580591Y-59764968D01*
X88580591Y-59764968D02*
X88628210Y-59717348D01*
X87628210Y-58907825D02*
X87580591Y-58860206D01*
X87580591Y-58860206D02*
X87485353Y-58812587D01*
X87485353Y-58812587D02*
X87247258Y-58812587D01*
X87247258Y-58812587D02*
X87152020Y-58860206D01*
X87152020Y-58860206D02*
X87104401Y-58907825D01*
X87104401Y-58907825D02*
X87056782Y-59003063D01*
X87056782Y-59003063D02*
X87056782Y-59098301D01*
X87056782Y-59098301D02*
X87104401Y-59241158D01*
X87104401Y-59241158D02*
X87675829Y-59812587D01*
X87675829Y-59812587D02*
X87056782Y-59812587D01*
X85532972Y-59288777D02*
X85390115Y-59336396D01*
X85390115Y-59336396D02*
X85342496Y-59384015D01*
X85342496Y-59384015D02*
X85294877Y-59479253D01*
X85294877Y-59479253D02*
X85294877Y-59622110D01*
X85294877Y-59622110D02*
X85342496Y-59717348D01*
X85342496Y-59717348D02*
X85390115Y-59764968D01*
X85390115Y-59764968D02*
X85485353Y-59812587D01*
X85485353Y-59812587D02*
X85866305Y-59812587D01*
X85866305Y-59812587D02*
X85866305Y-58812587D01*
X85866305Y-58812587D02*
X85532972Y-58812587D01*
X85532972Y-58812587D02*
X85437734Y-58860206D01*
X85437734Y-58860206D02*
X85390115Y-58907825D01*
X85390115Y-58907825D02*
X85342496Y-59003063D01*
X85342496Y-59003063D02*
X85342496Y-59098301D01*
X85342496Y-59098301D02*
X85390115Y-59193539D01*
X85390115Y-59193539D02*
X85437734Y-59241158D01*
X85437734Y-59241158D02*
X85532972Y-59288777D01*
X85532972Y-59288777D02*
X85866305Y-59288777D01*
X84866305Y-59812587D02*
X84866305Y-59145920D01*
X84866305Y-59336396D02*
X84818686Y-59241158D01*
X84818686Y-59241158D02*
X84771067Y-59193539D01*
X84771067Y-59193539D02*
X84675829Y-59145920D01*
X84675829Y-59145920D02*
X84580591Y-59145920D01*
X83866305Y-59764968D02*
X83961543Y-59812587D01*
X83961543Y-59812587D02*
X84152019Y-59812587D01*
X84152019Y-59812587D02*
X84247257Y-59764968D01*
X84247257Y-59764968D02*
X84294876Y-59669729D01*
X84294876Y-59669729D02*
X84294876Y-59288777D01*
X84294876Y-59288777D02*
X84247257Y-59193539D01*
X84247257Y-59193539D02*
X84152019Y-59145920D01*
X84152019Y-59145920D02*
X83961543Y-59145920D01*
X83961543Y-59145920D02*
X83866305Y-59193539D01*
X83866305Y-59193539D02*
X83818686Y-59288777D01*
X83818686Y-59288777D02*
X83818686Y-59384015D01*
X83818686Y-59384015D02*
X84294876Y-59479253D01*
X82961543Y-59812587D02*
X82961543Y-59288777D01*
X82961543Y-59288777D02*
X83009162Y-59193539D01*
X83009162Y-59193539D02*
X83104400Y-59145920D01*
X83104400Y-59145920D02*
X83294876Y-59145920D01*
X83294876Y-59145920D02*
X83390114Y-59193539D01*
X82961543Y-59764968D02*
X83056781Y-59812587D01*
X83056781Y-59812587D02*
X83294876Y-59812587D01*
X83294876Y-59812587D02*
X83390114Y-59764968D01*
X83390114Y-59764968D02*
X83437733Y-59669729D01*
X83437733Y-59669729D02*
X83437733Y-59574491D01*
X83437733Y-59574491D02*
X83390114Y-59479253D01*
X83390114Y-59479253D02*
X83294876Y-59431634D01*
X83294876Y-59431634D02*
X83056781Y-59431634D01*
X83056781Y-59431634D02*
X82961543Y-59384015D01*
X82485352Y-59812587D02*
X82485352Y-58812587D01*
X82390114Y-59431634D02*
X82104400Y-59812587D01*
X82104400Y-59145920D02*
X82485352Y-59526872D01*
X81532971Y-59812587D02*
X81628209Y-59764968D01*
X81628209Y-59764968D02*
X81675828Y-59717348D01*
X81675828Y-59717348D02*
X81723447Y-59622110D01*
X81723447Y-59622110D02*
X81723447Y-59336396D01*
X81723447Y-59336396D02*
X81675828Y-59241158D01*
X81675828Y-59241158D02*
X81628209Y-59193539D01*
X81628209Y-59193539D02*
X81532971Y-59145920D01*
X81532971Y-59145920D02*
X81390114Y-59145920D01*
X81390114Y-59145920D02*
X81294876Y-59193539D01*
X81294876Y-59193539D02*
X81247257Y-59241158D01*
X81247257Y-59241158D02*
X81199638Y-59336396D01*
X81199638Y-59336396D02*
X81199638Y-59622110D01*
X81199638Y-59622110D02*
X81247257Y-59717348D01*
X81247257Y-59717348D02*
X81294876Y-59764968D01*
X81294876Y-59764968D02*
X81390114Y-59812587D01*
X81390114Y-59812587D02*
X81532971Y-59812587D01*
X80342495Y-59145920D02*
X80342495Y-59812587D01*
X80771066Y-59145920D02*
X80771066Y-59669729D01*
X80771066Y-59669729D02*
X80723447Y-59764968D01*
X80723447Y-59764968D02*
X80628209Y-59812587D01*
X80628209Y-59812587D02*
X80485352Y-59812587D01*
X80485352Y-59812587D02*
X80390114Y-59764968D01*
X80390114Y-59764968D02*
X80342495Y-59717348D01*
X80009161Y-59145920D02*
X79628209Y-59145920D01*
X79866304Y-58812587D02*
X79866304Y-59669729D01*
X79866304Y-59669729D02*
X79818685Y-59764968D01*
X79818685Y-59764968D02*
X79723447Y-59812587D01*
X79723447Y-59812587D02*
X79628209Y-59812587D01*
X91390115Y-61422531D02*
X91390115Y-60422531D01*
X91390115Y-60422531D02*
X91056782Y-61136816D01*
X91056782Y-61136816D02*
X90723449Y-60422531D01*
X90723449Y-60422531D02*
X90723449Y-61422531D01*
X89818687Y-61422531D02*
X89818687Y-60898721D01*
X89818687Y-60898721D02*
X89866306Y-60803483D01*
X89866306Y-60803483D02*
X89961544Y-60755864D01*
X89961544Y-60755864D02*
X90152020Y-60755864D01*
X90152020Y-60755864D02*
X90247258Y-60803483D01*
X89818687Y-61374912D02*
X89913925Y-61422531D01*
X89913925Y-61422531D02*
X90152020Y-61422531D01*
X90152020Y-61422531D02*
X90247258Y-61374912D01*
X90247258Y-61374912D02*
X90294877Y-61279673D01*
X90294877Y-61279673D02*
X90294877Y-61184435D01*
X90294877Y-61184435D02*
X90247258Y-61089197D01*
X90247258Y-61089197D02*
X90152020Y-61041578D01*
X90152020Y-61041578D02*
X89913925Y-61041578D01*
X89913925Y-61041578D02*
X89818687Y-60993959D01*
X89342496Y-61422531D02*
X89342496Y-60755864D01*
X89342496Y-60946340D02*
X89294877Y-60851102D01*
X89294877Y-60851102D02*
X89247258Y-60803483D01*
X89247258Y-60803483D02*
X89152020Y-60755864D01*
X89152020Y-60755864D02*
X89056782Y-60755864D01*
X88771067Y-61374912D02*
X88675829Y-61422531D01*
X88675829Y-61422531D02*
X88485353Y-61422531D01*
X88485353Y-61422531D02*
X88390115Y-61374912D01*
X88390115Y-61374912D02*
X88342496Y-61279673D01*
X88342496Y-61279673D02*
X88342496Y-61232054D01*
X88342496Y-61232054D02*
X88390115Y-61136816D01*
X88390115Y-61136816D02*
X88485353Y-61089197D01*
X88485353Y-61089197D02*
X88628210Y-61089197D01*
X88628210Y-61089197D02*
X88723448Y-61041578D01*
X88723448Y-61041578D02*
X88771067Y-60946340D01*
X88771067Y-60946340D02*
X88771067Y-60898721D01*
X88771067Y-60898721D02*
X88723448Y-60803483D01*
X88723448Y-60803483D02*
X88628210Y-60755864D01*
X88628210Y-60755864D02*
X88485353Y-60755864D01*
X88485353Y-60755864D02*
X88390115Y-60803483D01*
X86580591Y-61422531D02*
X86913924Y-60946340D01*
X87152019Y-61422531D02*
X87152019Y-60422531D01*
X87152019Y-60422531D02*
X86771067Y-60422531D01*
X86771067Y-60422531D02*
X86675829Y-60470150D01*
X86675829Y-60470150D02*
X86628210Y-60517769D01*
X86628210Y-60517769D02*
X86580591Y-60613007D01*
X86580591Y-60613007D02*
X86580591Y-60755864D01*
X86580591Y-60755864D02*
X86628210Y-60851102D01*
X86628210Y-60851102D02*
X86675829Y-60898721D01*
X86675829Y-60898721D02*
X86771067Y-60946340D01*
X86771067Y-60946340D02*
X87152019Y-60946340D01*
X86009162Y-61422531D02*
X86104400Y-61374912D01*
X86104400Y-61374912D02*
X86152019Y-61327292D01*
X86152019Y-61327292D02*
X86199638Y-61232054D01*
X86199638Y-61232054D02*
X86199638Y-60946340D01*
X86199638Y-60946340D02*
X86152019Y-60851102D01*
X86152019Y-60851102D02*
X86104400Y-60803483D01*
X86104400Y-60803483D02*
X86009162Y-60755864D01*
X86009162Y-60755864D02*
X85866305Y-60755864D01*
X85866305Y-60755864D02*
X85771067Y-60803483D01*
X85771067Y-60803483D02*
X85723448Y-60851102D01*
X85723448Y-60851102D02*
X85675829Y-60946340D01*
X85675829Y-60946340D02*
X85675829Y-61232054D01*
X85675829Y-61232054D02*
X85723448Y-61327292D01*
X85723448Y-61327292D02*
X85771067Y-61374912D01*
X85771067Y-61374912D02*
X85866305Y-61422531D01*
X85866305Y-61422531D02*
X86009162Y-61422531D01*
X85342495Y-60755864D02*
X85104400Y-61422531D01*
X85104400Y-61422531D02*
X84866305Y-60755864D01*
X84104400Y-61374912D02*
X84199638Y-61422531D01*
X84199638Y-61422531D02*
X84390114Y-61422531D01*
X84390114Y-61422531D02*
X84485352Y-61374912D01*
X84485352Y-61374912D02*
X84532971Y-61279673D01*
X84532971Y-61279673D02*
X84532971Y-60898721D01*
X84532971Y-60898721D02*
X84485352Y-60803483D01*
X84485352Y-60803483D02*
X84390114Y-60755864D01*
X84390114Y-60755864D02*
X84199638Y-60755864D01*
X84199638Y-60755864D02*
X84104400Y-60803483D01*
X84104400Y-60803483D02*
X84056781Y-60898721D01*
X84056781Y-60898721D02*
X84056781Y-60993959D01*
X84056781Y-60993959D02*
X84532971Y-61089197D01*
X83628209Y-61422531D02*
X83628209Y-60755864D01*
X83628209Y-60946340D02*
X83580590Y-60851102D01*
X83580590Y-60851102D02*
X83532971Y-60803483D01*
X83532971Y-60803483D02*
X83437733Y-60755864D01*
X83437733Y-60755864D02*
X83342495Y-60755864D01*
X82247256Y-61422531D02*
X82247256Y-60422531D01*
X82247256Y-60422531D02*
X82009161Y-60422531D01*
X82009161Y-60422531D02*
X81866304Y-60470150D01*
X81866304Y-60470150D02*
X81771066Y-60565388D01*
X81771066Y-60565388D02*
X81723447Y-60660626D01*
X81723447Y-60660626D02*
X81675828Y-60851102D01*
X81675828Y-60851102D02*
X81675828Y-60993959D01*
X81675828Y-60993959D02*
X81723447Y-61184435D01*
X81723447Y-61184435D02*
X81771066Y-61279673D01*
X81771066Y-61279673D02*
X81866304Y-61374912D01*
X81866304Y-61374912D02*
X82009161Y-61422531D01*
X82009161Y-61422531D02*
X82247256Y-61422531D01*
X80866304Y-61374912D02*
X80961542Y-61422531D01*
X80961542Y-61422531D02*
X81152018Y-61422531D01*
X81152018Y-61422531D02*
X81247256Y-61374912D01*
X81247256Y-61374912D02*
X81294875Y-61279673D01*
X81294875Y-61279673D02*
X81294875Y-60898721D01*
X81294875Y-60898721D02*
X81247256Y-60803483D01*
X81247256Y-60803483D02*
X81152018Y-60755864D01*
X81152018Y-60755864D02*
X80961542Y-60755864D01*
X80961542Y-60755864D02*
X80866304Y-60803483D01*
X80866304Y-60803483D02*
X80818685Y-60898721D01*
X80818685Y-60898721D02*
X80818685Y-60993959D01*
X80818685Y-60993959D02*
X81294875Y-61089197D01*
X80437732Y-61374912D02*
X80342494Y-61422531D01*
X80342494Y-61422531D02*
X80152018Y-61422531D01*
X80152018Y-61422531D02*
X80056780Y-61374912D01*
X80056780Y-61374912D02*
X80009161Y-61279673D01*
X80009161Y-61279673D02*
X80009161Y-61232054D01*
X80009161Y-61232054D02*
X80056780Y-61136816D01*
X80056780Y-61136816D02*
X80152018Y-61089197D01*
X80152018Y-61089197D02*
X80294875Y-61089197D01*
X80294875Y-61089197D02*
X80390113Y-61041578D01*
X80390113Y-61041578D02*
X80437732Y-60946340D01*
X80437732Y-60946340D02*
X80437732Y-60898721D01*
X80437732Y-60898721D02*
X80390113Y-60803483D01*
X80390113Y-60803483D02*
X80294875Y-60755864D01*
X80294875Y-60755864D02*
X80152018Y-60755864D01*
X80152018Y-60755864D02*
X80056780Y-60803483D01*
X79580589Y-61422531D02*
X79580589Y-60755864D01*
X79580589Y-60422531D02*
X79628208Y-60470150D01*
X79628208Y-60470150D02*
X79580589Y-60517769D01*
X79580589Y-60517769D02*
X79532970Y-60470150D01*
X79532970Y-60470150D02*
X79580589Y-60422531D01*
X79580589Y-60422531D02*
X79580589Y-60517769D01*
X78675828Y-60755864D02*
X78675828Y-61565388D01*
X78675828Y-61565388D02*
X78723447Y-61660626D01*
X78723447Y-61660626D02*
X78771066Y-61708245D01*
X78771066Y-61708245D02*
X78866304Y-61755864D01*
X78866304Y-61755864D02*
X79009161Y-61755864D01*
X79009161Y-61755864D02*
X79104399Y-61708245D01*
X78675828Y-61374912D02*
X78771066Y-61422531D01*
X78771066Y-61422531D02*
X78961542Y-61422531D01*
X78961542Y-61422531D02*
X79056780Y-61374912D01*
X79056780Y-61374912D02*
X79104399Y-61327292D01*
X79104399Y-61327292D02*
X79152018Y-61232054D01*
X79152018Y-61232054D02*
X79152018Y-60946340D01*
X79152018Y-60946340D02*
X79104399Y-60851102D01*
X79104399Y-60851102D02*
X79056780Y-60803483D01*
X79056780Y-60803483D02*
X78961542Y-60755864D01*
X78961542Y-60755864D02*
X78771066Y-60755864D01*
X78771066Y-60755864D02*
X78675828Y-60803483D01*
X78199637Y-60755864D02*
X78199637Y-61422531D01*
X78199637Y-60851102D02*
X78152018Y-60803483D01*
X78152018Y-60803483D02*
X78056780Y-60755864D01*
X78056780Y-60755864D02*
X77913923Y-60755864D01*
X77913923Y-60755864D02*
X77818685Y-60803483D01*
X77818685Y-60803483D02*
X77771066Y-60898721D01*
X77771066Y-60898721D02*
X77771066Y-61422531D01*
X76675827Y-60422531D02*
X76104399Y-60422531D01*
X76390113Y-61422531D02*
X76390113Y-60422531D01*
X75390113Y-61374912D02*
X75485351Y-61422531D01*
X75485351Y-61422531D02*
X75675827Y-61422531D01*
X75675827Y-61422531D02*
X75771065Y-61374912D01*
X75771065Y-61374912D02*
X75818684Y-61279673D01*
X75818684Y-61279673D02*
X75818684Y-60898721D01*
X75818684Y-60898721D02*
X75771065Y-60803483D01*
X75771065Y-60803483D02*
X75675827Y-60755864D01*
X75675827Y-60755864D02*
X75485351Y-60755864D01*
X75485351Y-60755864D02*
X75390113Y-60803483D01*
X75390113Y-60803483D02*
X75342494Y-60898721D01*
X75342494Y-60898721D02*
X75342494Y-60993959D01*
X75342494Y-60993959D02*
X75818684Y-61089197D01*
X74485351Y-61422531D02*
X74485351Y-60898721D01*
X74485351Y-60898721D02*
X74532970Y-60803483D01*
X74532970Y-60803483D02*
X74628208Y-60755864D01*
X74628208Y-60755864D02*
X74818684Y-60755864D01*
X74818684Y-60755864D02*
X74913922Y-60803483D01*
X74485351Y-61374912D02*
X74580589Y-61422531D01*
X74580589Y-61422531D02*
X74818684Y-61422531D01*
X74818684Y-61422531D02*
X74913922Y-61374912D01*
X74913922Y-61374912D02*
X74961541Y-61279673D01*
X74961541Y-61279673D02*
X74961541Y-61184435D01*
X74961541Y-61184435D02*
X74913922Y-61089197D01*
X74913922Y-61089197D02*
X74818684Y-61041578D01*
X74818684Y-61041578D02*
X74580589Y-61041578D01*
X74580589Y-61041578D02*
X74485351Y-60993959D01*
X74009160Y-61422531D02*
X74009160Y-60755864D01*
X74009160Y-60851102D02*
X73961541Y-60803483D01*
X73961541Y-60803483D02*
X73866303Y-60755864D01*
X73866303Y-60755864D02*
X73723446Y-60755864D01*
X73723446Y-60755864D02*
X73628208Y-60803483D01*
X73628208Y-60803483D02*
X73580589Y-60898721D01*
X73580589Y-60898721D02*
X73580589Y-61422531D01*
X73580589Y-60898721D02*
X73532970Y-60803483D01*
X73532970Y-60803483D02*
X73437732Y-60755864D01*
X73437732Y-60755864D02*
X73294875Y-60755864D01*
X73294875Y-60755864D02*
X73199636Y-60803483D01*
X73199636Y-60803483D02*
X73152017Y-60898721D01*
X73152017Y-60898721D02*
X73152017Y-61422531D01*
X91390115Y-63032475D02*
X91390115Y-62032475D01*
X91390115Y-62032475D02*
X91056782Y-62746760D01*
X91056782Y-62746760D02*
X90723449Y-62032475D01*
X90723449Y-62032475D02*
X90723449Y-63032475D01*
X90247258Y-63032475D02*
X90247258Y-62365808D01*
X90247258Y-62032475D02*
X90294877Y-62080094D01*
X90294877Y-62080094D02*
X90247258Y-62127713D01*
X90247258Y-62127713D02*
X90199639Y-62080094D01*
X90199639Y-62080094D02*
X90247258Y-62032475D01*
X90247258Y-62032475D02*
X90247258Y-62127713D01*
X89818687Y-62984856D02*
X89723449Y-63032475D01*
X89723449Y-63032475D02*
X89532973Y-63032475D01*
X89532973Y-63032475D02*
X89437735Y-62984856D01*
X89437735Y-62984856D02*
X89390116Y-62889617D01*
X89390116Y-62889617D02*
X89390116Y-62841998D01*
X89390116Y-62841998D02*
X89437735Y-62746760D01*
X89437735Y-62746760D02*
X89532973Y-62699141D01*
X89532973Y-62699141D02*
X89675830Y-62699141D01*
X89675830Y-62699141D02*
X89771068Y-62651522D01*
X89771068Y-62651522D02*
X89818687Y-62556284D01*
X89818687Y-62556284D02*
X89818687Y-62508665D01*
X89818687Y-62508665D02*
X89771068Y-62413427D01*
X89771068Y-62413427D02*
X89675830Y-62365808D01*
X89675830Y-62365808D02*
X89532973Y-62365808D01*
X89532973Y-62365808D02*
X89437735Y-62413427D01*
X89009163Y-62984856D02*
X88913925Y-63032475D01*
X88913925Y-63032475D02*
X88723449Y-63032475D01*
X88723449Y-63032475D02*
X88628211Y-62984856D01*
X88628211Y-62984856D02*
X88580592Y-62889617D01*
X88580592Y-62889617D02*
X88580592Y-62841998D01*
X88580592Y-62841998D02*
X88628211Y-62746760D01*
X88628211Y-62746760D02*
X88723449Y-62699141D01*
X88723449Y-62699141D02*
X88866306Y-62699141D01*
X88866306Y-62699141D02*
X88961544Y-62651522D01*
X88961544Y-62651522D02*
X89009163Y-62556284D01*
X89009163Y-62556284D02*
X89009163Y-62508665D01*
X89009163Y-62508665D02*
X88961544Y-62413427D01*
X88961544Y-62413427D02*
X88866306Y-62365808D01*
X88866306Y-62365808D02*
X88723449Y-62365808D01*
X88723449Y-62365808D02*
X88628211Y-62413427D01*
X88009163Y-63032475D02*
X88104401Y-62984856D01*
X88104401Y-62984856D02*
X88152020Y-62937236D01*
X88152020Y-62937236D02*
X88199639Y-62841998D01*
X88199639Y-62841998D02*
X88199639Y-62556284D01*
X88199639Y-62556284D02*
X88152020Y-62461046D01*
X88152020Y-62461046D02*
X88104401Y-62413427D01*
X88104401Y-62413427D02*
X88009163Y-62365808D01*
X88009163Y-62365808D02*
X87866306Y-62365808D01*
X87866306Y-62365808D02*
X87771068Y-62413427D01*
X87771068Y-62413427D02*
X87723449Y-62461046D01*
X87723449Y-62461046D02*
X87675830Y-62556284D01*
X87675830Y-62556284D02*
X87675830Y-62841998D01*
X87675830Y-62841998D02*
X87723449Y-62937236D01*
X87723449Y-62937236D02*
X87771068Y-62984856D01*
X87771068Y-62984856D02*
X87866306Y-63032475D01*
X87866306Y-63032475D02*
X88009163Y-63032475D01*
X86818687Y-62365808D02*
X86818687Y-63032475D01*
X87247258Y-62365808D02*
X87247258Y-62889617D01*
X87247258Y-62889617D02*
X87199639Y-62984856D01*
X87199639Y-62984856D02*
X87104401Y-63032475D01*
X87104401Y-63032475D02*
X86961544Y-63032475D01*
X86961544Y-63032475D02*
X86866306Y-62984856D01*
X86866306Y-62984856D02*
X86818687Y-62937236D01*
X86342496Y-63032475D02*
X86342496Y-62365808D01*
X86342496Y-62556284D02*
X86294877Y-62461046D01*
X86294877Y-62461046D02*
X86247258Y-62413427D01*
X86247258Y-62413427D02*
X86152020Y-62365808D01*
X86152020Y-62365808D02*
X86056782Y-62365808D01*
X85723448Y-63032475D02*
X85723448Y-62365808D01*
X85723448Y-62032475D02*
X85771067Y-62080094D01*
X85771067Y-62080094D02*
X85723448Y-62127713D01*
X85723448Y-62127713D02*
X85675829Y-62080094D01*
X85675829Y-62080094D02*
X85723448Y-62032475D01*
X85723448Y-62032475D02*
X85723448Y-62127713D01*
X84532972Y-62984856D02*
X84390115Y-63032475D01*
X84390115Y-63032475D02*
X84152020Y-63032475D01*
X84152020Y-63032475D02*
X84056782Y-62984856D01*
X84056782Y-62984856D02*
X84009163Y-62937236D01*
X84009163Y-62937236D02*
X83961544Y-62841998D01*
X83961544Y-62841998D02*
X83961544Y-62746760D01*
X83961544Y-62746760D02*
X84009163Y-62651522D01*
X84009163Y-62651522D02*
X84056782Y-62603903D01*
X84056782Y-62603903D02*
X84152020Y-62556284D01*
X84152020Y-62556284D02*
X84342496Y-62508665D01*
X84342496Y-62508665D02*
X84437734Y-62461046D01*
X84437734Y-62461046D02*
X84485353Y-62413427D01*
X84485353Y-62413427D02*
X84532972Y-62318189D01*
X84532972Y-62318189D02*
X84532972Y-62222951D01*
X84532972Y-62222951D02*
X84485353Y-62127713D01*
X84485353Y-62127713D02*
X84437734Y-62080094D01*
X84437734Y-62080094D02*
X84342496Y-62032475D01*
X84342496Y-62032475D02*
X84104401Y-62032475D01*
X84104401Y-62032475D02*
X83961544Y-62080094D01*
X82723448Y-63032475D02*
X82771068Y-63032475D01*
X82771068Y-63032475D02*
X82866306Y-62984856D01*
X82866306Y-62984856D02*
X83009163Y-62841998D01*
X83009163Y-62841998D02*
X83247258Y-62556284D01*
X83247258Y-62556284D02*
X83342496Y-62413427D01*
X83342496Y-62413427D02*
X83390115Y-62270570D01*
X83390115Y-62270570D02*
X83390115Y-62175332D01*
X83390115Y-62175332D02*
X83342496Y-62080094D01*
X83342496Y-62080094D02*
X83247258Y-62032475D01*
X83247258Y-62032475D02*
X83199639Y-62032475D01*
X83199639Y-62032475D02*
X83104401Y-62080094D01*
X83104401Y-62080094D02*
X83056782Y-62175332D01*
X83056782Y-62175332D02*
X83056782Y-62222951D01*
X83056782Y-62222951D02*
X83104401Y-62318189D01*
X83104401Y-62318189D02*
X83152020Y-62365808D01*
X83152020Y-62365808D02*
X83437734Y-62556284D01*
X83437734Y-62556284D02*
X83485353Y-62603903D01*
X83485353Y-62603903D02*
X83532972Y-62699141D01*
X83532972Y-62699141D02*
X83532972Y-62841998D01*
X83532972Y-62841998D02*
X83485353Y-62937236D01*
X83485353Y-62937236D02*
X83437734Y-62984856D01*
X83437734Y-62984856D02*
X83342496Y-63032475D01*
X83342496Y-63032475D02*
X83199639Y-63032475D01*
X83199639Y-63032475D02*
X83104401Y-62984856D01*
X83104401Y-62984856D02*
X83056782Y-62937236D01*
X83056782Y-62937236D02*
X82913925Y-62746760D01*
X82913925Y-62746760D02*
X82866306Y-62603903D01*
X82866306Y-62603903D02*
X82866306Y-62508665D01*
X82437734Y-62032475D02*
X81866306Y-62032475D01*
X82152020Y-63032475D02*
X82152020Y-62032475D01*
X81485353Y-62984856D02*
X81485353Y-63032475D01*
X81485353Y-63032475D02*
X81532972Y-63127713D01*
X81532972Y-63127713D02*
X81580591Y-63175332D01*
X80342496Y-62127713D02*
X80294877Y-62080094D01*
X80294877Y-62080094D02*
X80199639Y-62032475D01*
X80199639Y-62032475D02*
X79961544Y-62032475D01*
X79961544Y-62032475D02*
X79866306Y-62080094D01*
X79866306Y-62080094D02*
X79818687Y-62127713D01*
X79818687Y-62127713D02*
X79771068Y-62222951D01*
X79771068Y-62222951D02*
X79771068Y-62318189D01*
X79771068Y-62318189D02*
X79818687Y-62461046D01*
X79818687Y-62461046D02*
X80390115Y-63032475D01*
X80390115Y-63032475D02*
X79771068Y-63032475D01*
X79152020Y-62032475D02*
X79056782Y-62032475D01*
X79056782Y-62032475D02*
X78961544Y-62080094D01*
X78961544Y-62080094D02*
X78913925Y-62127713D01*
X78913925Y-62127713D02*
X78866306Y-62222951D01*
X78866306Y-62222951D02*
X78818687Y-62413427D01*
X78818687Y-62413427D02*
X78818687Y-62651522D01*
X78818687Y-62651522D02*
X78866306Y-62841998D01*
X78866306Y-62841998D02*
X78913925Y-62937236D01*
X78913925Y-62937236D02*
X78961544Y-62984856D01*
X78961544Y-62984856D02*
X79056782Y-63032475D01*
X79056782Y-63032475D02*
X79152020Y-63032475D01*
X79152020Y-63032475D02*
X79247258Y-62984856D01*
X79247258Y-62984856D02*
X79294877Y-62937236D01*
X79294877Y-62937236D02*
X79342496Y-62841998D01*
X79342496Y-62841998D02*
X79390115Y-62651522D01*
X79390115Y-62651522D02*
X79390115Y-62413427D01*
X79390115Y-62413427D02*
X79342496Y-62222951D01*
X79342496Y-62222951D02*
X79294877Y-62127713D01*
X79294877Y-62127713D02*
X79247258Y-62080094D01*
X79247258Y-62080094D02*
X79152020Y-62032475D01*
X78437734Y-62127713D02*
X78390115Y-62080094D01*
X78390115Y-62080094D02*
X78294877Y-62032475D01*
X78294877Y-62032475D02*
X78056782Y-62032475D01*
X78056782Y-62032475D02*
X77961544Y-62080094D01*
X77961544Y-62080094D02*
X77913925Y-62127713D01*
X77913925Y-62127713D02*
X77866306Y-62222951D01*
X77866306Y-62222951D02*
X77866306Y-62318189D01*
X77866306Y-62318189D02*
X77913925Y-62461046D01*
X77913925Y-62461046D02*
X78485353Y-63032475D01*
X78485353Y-63032475D02*
X77866306Y-63032475D01*
X76961544Y-62032475D02*
X77437734Y-62032475D01*
X77437734Y-62032475D02*
X77485353Y-62508665D01*
X77485353Y-62508665D02*
X77437734Y-62461046D01*
X77437734Y-62461046D02*
X77342496Y-62413427D01*
X77342496Y-62413427D02*
X77104401Y-62413427D01*
X77104401Y-62413427D02*
X77009163Y-62461046D01*
X77009163Y-62461046D02*
X76961544Y-62508665D01*
X76961544Y-62508665D02*
X76913925Y-62603903D01*
X76913925Y-62603903D02*
X76913925Y-62841998D01*
X76913925Y-62841998D02*
X76961544Y-62937236D01*
X76961544Y-62937236D02*
X77009163Y-62984856D01*
X77009163Y-62984856D02*
X77104401Y-63032475D01*
X77104401Y-63032475D02*
X77342496Y-63032475D01*
X77342496Y-63032475D02*
X77437734Y-62984856D01*
X77437734Y-62984856D02*
X77485353Y-62937236D01*
X91390115Y-64642419D02*
X91390115Y-63642419D01*
X91390115Y-63642419D02*
X91056782Y-64356704D01*
X91056782Y-64356704D02*
X90723449Y-63642419D01*
X90723449Y-63642419D02*
X90723449Y-64642419D01*
X89818687Y-64642419D02*
X89818687Y-64118609D01*
X89818687Y-64118609D02*
X89866306Y-64023371D01*
X89866306Y-64023371D02*
X89961544Y-63975752D01*
X89961544Y-63975752D02*
X90152020Y-63975752D01*
X90152020Y-63975752D02*
X90247258Y-64023371D01*
X89818687Y-64594800D02*
X89913925Y-64642419D01*
X89913925Y-64642419D02*
X90152020Y-64642419D01*
X90152020Y-64642419D02*
X90247258Y-64594800D01*
X90247258Y-64594800D02*
X90294877Y-64499561D01*
X90294877Y-64499561D02*
X90294877Y-64404323D01*
X90294877Y-64404323D02*
X90247258Y-64309085D01*
X90247258Y-64309085D02*
X90152020Y-64261466D01*
X90152020Y-64261466D02*
X89913925Y-64261466D01*
X89913925Y-64261466D02*
X89818687Y-64213847D01*
X89199639Y-64642419D02*
X89294877Y-64594800D01*
X89294877Y-64594800D02*
X89342496Y-64499561D01*
X89342496Y-64499561D02*
X89342496Y-63642419D01*
X88390115Y-64642419D02*
X88390115Y-64118609D01*
X88390115Y-64118609D02*
X88437734Y-64023371D01*
X88437734Y-64023371D02*
X88532972Y-63975752D01*
X88532972Y-63975752D02*
X88723448Y-63975752D01*
X88723448Y-63975752D02*
X88818686Y-64023371D01*
X88390115Y-64594800D02*
X88485353Y-64642419D01*
X88485353Y-64642419D02*
X88723448Y-64642419D01*
X88723448Y-64642419D02*
X88818686Y-64594800D01*
X88818686Y-64594800D02*
X88866305Y-64499561D01*
X88866305Y-64499561D02*
X88866305Y-64404323D01*
X88866305Y-64404323D02*
X88818686Y-64309085D01*
X88818686Y-64309085D02*
X88723448Y-64261466D01*
X88723448Y-64261466D02*
X88485353Y-64261466D01*
X88485353Y-64261466D02*
X88390115Y-64213847D01*
X87485353Y-64594800D02*
X87580591Y-64642419D01*
X87580591Y-64642419D02*
X87771067Y-64642419D01*
X87771067Y-64642419D02*
X87866305Y-64594800D01*
X87866305Y-64594800D02*
X87913924Y-64547180D01*
X87913924Y-64547180D02*
X87961543Y-64451942D01*
X87961543Y-64451942D02*
X87961543Y-64166228D01*
X87961543Y-64166228D02*
X87913924Y-64070990D01*
X87913924Y-64070990D02*
X87866305Y-64023371D01*
X87866305Y-64023371D02*
X87771067Y-63975752D01*
X87771067Y-63975752D02*
X87580591Y-63975752D01*
X87580591Y-63975752D02*
X87485353Y-64023371D01*
X87056781Y-64642419D02*
X87056781Y-63642419D01*
X86961543Y-64261466D02*
X86675829Y-64642419D01*
X86675829Y-63975752D02*
X87056781Y-64356704D01*
X86247257Y-64642419D02*
X86247257Y-63975752D01*
X86247257Y-63642419D02*
X86294876Y-63690038D01*
X86294876Y-63690038D02*
X86247257Y-63737657D01*
X86247257Y-63737657D02*
X86199638Y-63690038D01*
X86199638Y-63690038D02*
X86247257Y-63642419D01*
X86247257Y-63642419D02*
X86247257Y-63737657D01*
X85009162Y-64118609D02*
X84675829Y-64118609D01*
X84532972Y-64642419D02*
X85009162Y-64642419D01*
X85009162Y-64642419D02*
X85009162Y-63642419D01*
X85009162Y-63642419D02*
X84532972Y-63642419D01*
X84104400Y-64642419D02*
X84104400Y-63642419D01*
X83675829Y-64642419D02*
X83675829Y-64118609D01*
X83675829Y-64118609D02*
X83723448Y-64023371D01*
X83723448Y-64023371D02*
X83818686Y-63975752D01*
X83818686Y-63975752D02*
X83961543Y-63975752D01*
X83961543Y-63975752D02*
X84056781Y-64023371D01*
X84056781Y-64023371D02*
X84104400Y-64070990D01*
X83056781Y-64642419D02*
X83152019Y-64594800D01*
X83152019Y-64594800D02*
X83199638Y-64499561D01*
X83199638Y-64499561D02*
X83199638Y-63642419D01*
X82294876Y-64594800D02*
X82390114Y-64642419D01*
X82390114Y-64642419D02*
X82580590Y-64642419D01*
X82580590Y-64642419D02*
X82675828Y-64594800D01*
X82675828Y-64594800D02*
X82723447Y-64499561D01*
X82723447Y-64499561D02*
X82723447Y-64118609D01*
X82723447Y-64118609D02*
X82675828Y-64023371D01*
X82675828Y-64023371D02*
X82580590Y-63975752D01*
X82580590Y-63975752D02*
X82390114Y-63975752D01*
X82390114Y-63975752D02*
X82294876Y-64023371D01*
X82294876Y-64023371D02*
X82247257Y-64118609D01*
X82247257Y-64118609D02*
X82247257Y-64213847D01*
X82247257Y-64213847D02*
X82723447Y-64309085D01*
X81818685Y-64642419D02*
X81818685Y-63975752D01*
X81818685Y-64166228D02*
X81771066Y-64070990D01*
X81771066Y-64070990D02*
X81723447Y-64023371D01*
X81723447Y-64023371D02*
X81628209Y-63975752D01*
X81628209Y-63975752D02*
X81532971Y-63975752D01*
X81247256Y-64594800D02*
X81152018Y-64642419D01*
X81152018Y-64642419D02*
X80961542Y-64642419D01*
X80961542Y-64642419D02*
X80866304Y-64594800D01*
X80866304Y-64594800D02*
X80818685Y-64499561D01*
X80818685Y-64499561D02*
X80818685Y-64451942D01*
X80818685Y-64451942D02*
X80866304Y-64356704D01*
X80866304Y-64356704D02*
X80961542Y-64309085D01*
X80961542Y-64309085D02*
X81104399Y-64309085D01*
X81104399Y-64309085D02*
X81199637Y-64261466D01*
X81199637Y-64261466D02*
X81247256Y-64166228D01*
X81247256Y-64166228D02*
X81247256Y-64118609D01*
X81247256Y-64118609D02*
X81199637Y-64023371D01*
X81199637Y-64023371D02*
X81104399Y-63975752D01*
X81104399Y-63975752D02*
X80961542Y-63975752D01*
X80961542Y-63975752D02*
X80866304Y-64023371D01*
M02*
