%TF.GenerationSoftware,KiCad,Pcbnew,8.0.5*%
%TF.CreationDate,2024-10-31T22:43:36-05:00*%
%TF.ProjectId,STM_Breakout,53544d5f-4272-4656-916b-6f75742e6b69,rev?*%
%TF.SameCoordinates,Original*%
%TF.FileFunction,Copper,L1,Top*%
%TF.FilePolarity,Positive*%
%FSLAX46Y46*%
G04 Gerber Fmt 4.6, Leading zero omitted, Abs format (unit mm)*
G04 Created by KiCad (PCBNEW 8.0.5) date 2024-10-31 22:43:36*
%MOMM*%
%LPD*%
G01*
G04 APERTURE LIST*
G04 Aperture macros list*
%AMRoundRect*
0 Rectangle with rounded corners*
0 $1 Rounding radius*
0 $2 $3 $4 $5 $6 $7 $8 $9 X,Y pos of 4 corners*
0 Add a 4 corners polygon primitive as box body*
4,1,4,$2,$3,$4,$5,$6,$7,$8,$9,$2,$3,0*
0 Add four circle primitives for the rounded corners*
1,1,$1+$1,$2,$3*
1,1,$1+$1,$4,$5*
1,1,$1+$1,$6,$7*
1,1,$1+$1,$8,$9*
0 Add four rect primitives between the rounded corners*
20,1,$1+$1,$2,$3,$4,$5,0*
20,1,$1+$1,$4,$5,$6,$7,0*
20,1,$1+$1,$6,$7,$8,$9,0*
20,1,$1+$1,$8,$9,$2,$3,0*%
G04 Aperture macros list end*
%TA.AperFunction,SMDPad,CuDef*%
%ADD10RoundRect,0.237500X-0.237500X0.250000X-0.237500X-0.250000X0.237500X-0.250000X0.237500X0.250000X0*%
%TD*%
%TA.AperFunction,ComponentPad*%
%ADD11C,1.524000*%
%TD*%
%TA.AperFunction,SMDPad,CuDef*%
%ADD12RoundRect,0.237500X0.237500X-0.250000X0.237500X0.250000X-0.237500X0.250000X-0.237500X-0.250000X0*%
%TD*%
%TA.AperFunction,SMDPad,CuDef*%
%ADD13RoundRect,0.237500X0.237500X-0.300000X0.237500X0.300000X-0.237500X0.300000X-0.237500X-0.300000X0*%
%TD*%
%TA.AperFunction,SMDPad,CuDef*%
%ADD14RoundRect,0.237500X-0.300000X-0.237500X0.300000X-0.237500X0.300000X0.237500X-0.300000X0.237500X0*%
%TD*%
%TA.AperFunction,ComponentPad*%
%ADD15R,1.700000X1.700000*%
%TD*%
%TA.AperFunction,ComponentPad*%
%ADD16O,1.700000X1.700000*%
%TD*%
%TA.AperFunction,SMDPad,CuDef*%
%ADD17RoundRect,0.237500X0.300000X0.237500X-0.300000X0.237500X-0.300000X-0.237500X0.300000X-0.237500X0*%
%TD*%
%TA.AperFunction,SMDPad,CuDef*%
%ADD18RoundRect,0.100000X-0.637500X-0.100000X0.637500X-0.100000X0.637500X0.100000X-0.637500X0.100000X0*%
%TD*%
%TA.AperFunction,SMDPad,CuDef*%
%ADD19RoundRect,0.150000X-0.150000X0.825000X-0.150000X-0.825000X0.150000X-0.825000X0.150000X0.825000X0*%
%TD*%
%TA.AperFunction,ViaPad*%
%ADD20C,0.600000*%
%TD*%
%TA.AperFunction,Conductor*%
%ADD21C,0.254000*%
%TD*%
%TA.AperFunction,Conductor*%
%ADD22C,0.200000*%
%TD*%
G04 APERTURE END LIST*
D10*
%TO.P,R1,1*%
%TO.N,CANH*%
X89662000Y-74629000D03*
%TO.P,R1,2*%
%TO.N,Net-(C3-Pad1)*%
X89662000Y-76454000D03*
%TD*%
D11*
%TO.P,Conn4,1*%
%TO.N,CANH*%
X95250000Y-69850000D03*
%TO.P,Conn4,2*%
%TO.N,CANL*%
X95250000Y-72390000D03*
%TD*%
D12*
%TO.P,R2,1*%
%TO.N,Net-(C3-Pad1)*%
X87376000Y-76454000D03*
%TO.P,R2,2*%
%TO.N,CANL*%
X87376000Y-74629000D03*
%TD*%
D13*
%TO.P,C2,1*%
%TO.N,GND*%
X84328000Y-73760500D03*
%TO.P,C2,2*%
%TO.N,+3V3*%
X84328000Y-72035500D03*
%TD*%
D14*
%TO.P,C3,1*%
%TO.N,Net-(C3-Pad1)*%
X93525000Y-76454000D03*
%TO.P,C3,2*%
%TO.N,GND*%
X95250000Y-76454000D03*
%TD*%
D15*
%TO.P,JP2,1,A*%
%TO.N,/NRST*%
X80518000Y-69850000D03*
D16*
%TO.P,JP2,2,B*%
%TO.N,GND*%
X80518000Y-72390000D03*
%TD*%
D17*
%TO.P,C9,1*%
%TO.N,/NRST*%
X71220500Y-56642000D03*
%TO.P,C9,2*%
%TO.N,GND*%
X69495500Y-56642000D03*
%TD*%
D18*
%TO.P,U1,1,PB8*%
%TO.N,/BOOT0*%
X75877500Y-55241000D03*
%TO.P,U1,2,PF0*%
%TO.N,PF0*%
X75877500Y-55891000D03*
%TO.P,U1,3,PF1*%
%TO.N,PF1*%
X75877500Y-56541000D03*
%TO.P,U1,4,NRST*%
%TO.N,/NRST*%
X75877500Y-57191000D03*
%TO.P,U1,5,VDDA*%
%TO.N,+3V3*%
X75877500Y-57841000D03*
%TO.P,U1,6,PA0*%
%TO.N,PA0*%
X75877500Y-58491000D03*
%TO.P,U1,7,PA1*%
%TO.N,PA1*%
X75877500Y-59141000D03*
%TO.P,U1,8,PA2*%
%TO.N,PA2*%
X75877500Y-59791000D03*
%TO.P,U1,9,PA3*%
%TO.N,PA3*%
X75877500Y-60441000D03*
%TO.P,U1,10,PA4*%
%TO.N,PA4*%
X75877500Y-61091000D03*
%TO.P,U1,11,PA5*%
%TO.N,PA5*%
X81602500Y-61091000D03*
%TO.P,U1,12,PA6*%
%TO.N,PA6*%
X81602500Y-60441000D03*
%TO.P,U1,13,PA7*%
%TO.N,PA7*%
X81602500Y-59791000D03*
%TO.P,U1,14,PB1*%
%TO.N,STBY*%
X81602500Y-59141000D03*
%TO.P,U1,15,VSSA*%
%TO.N,GND*%
X81602500Y-58491000D03*
%TO.P,U1,16,VDD*%
%TO.N,+3V3*%
X81602500Y-57841000D03*
%TO.P,U1,17,PA9/PA11*%
%TO.N,CAN_TX*%
X81602500Y-57191000D03*
%TO.P,U1,18,PA10/PA12*%
%TO.N,CAN_RX*%
X81602500Y-56541000D03*
%TO.P,U1,19,PA13*%
%TO.N,SWDIO*%
X81602500Y-55891000D03*
%TO.P,U1,20,PA14*%
%TO.N,SWCLK*%
X81602500Y-55241000D03*
%TD*%
D14*
%TO.P,C5,1*%
%TO.N,+3V3*%
X85651000Y-57404000D03*
%TO.P,C5,2*%
%TO.N,GND*%
X87376000Y-57404000D03*
%TD*%
D11*
%TO.P,Conn2,1*%
%TO.N,+5V*%
X76708000Y-49530000D03*
%TO.P,Conn2,2*%
%TO.N,GND*%
X79248000Y-49530000D03*
%TD*%
D19*
%TO.P,U2,1,TXD*%
%TO.N,CAN_TX*%
X90450500Y-66613000D03*
%TO.P,U2,2,GND*%
%TO.N,GND*%
X89180500Y-66613000D03*
%TO.P,U2,3,VCC*%
%TO.N,+5V*%
X87910500Y-66613000D03*
%TO.P,U2,4,RXD*%
%TO.N,CAN_RX*%
X86640500Y-66613000D03*
%TO.P,U2,5,VIO*%
%TO.N,+3V3*%
X86640500Y-71563000D03*
%TO.P,U2,6,CANL*%
%TO.N,CANL*%
X87910500Y-71563000D03*
%TO.P,U2,7,CANH*%
%TO.N,CANH*%
X89180500Y-71563000D03*
%TO.P,U2,8,STBY*%
%TO.N,STBY*%
X90450500Y-71563000D03*
%TD*%
D15*
%TO.P,JP1,1,A*%
%TO.N,GND*%
X70358000Y-52563000D03*
D16*
%TO.P,JP1,2,C*%
%TO.N,/BOOT0*%
X70358000Y-50023000D03*
%TO.P,JP1,3,B*%
%TO.N,+3V3*%
X70358000Y-47483000D03*
%TD*%
D15*
%TO.P,J1,1,Pin_1*%
%TO.N,+3V3*%
X70358000Y-64262000D03*
D16*
%TO.P,J1,2,Pin_2*%
%TO.N,PF0*%
X72898000Y-64262000D03*
%TO.P,J1,3,Pin_3*%
%TO.N,PF1*%
X70358000Y-66802000D03*
%TO.P,J1,4,Pin_4*%
%TO.N,PA0*%
X72898000Y-66802000D03*
%TO.P,J1,5,Pin_5*%
%TO.N,PA1*%
X70358000Y-69342000D03*
%TO.P,J1,6,Pin_6*%
%TO.N,PA2*%
X72898000Y-69342000D03*
%TO.P,J1,7,Pin_7*%
%TO.N,PA3*%
X70358000Y-71882000D03*
%TO.P,J1,8,Pin_8*%
%TO.N,PA4*%
X72898000Y-71882000D03*
%TO.P,J1,9,Pin_9*%
%TO.N,PA5*%
X70358000Y-74422000D03*
%TO.P,J1,10,Pin_10*%
%TO.N,PA6*%
X72898000Y-74422000D03*
%TO.P,J1,11,Pin_11*%
%TO.N,PA7*%
X70358000Y-76962000D03*
%TO.P,J1,12,Pin_12*%
%TO.N,GND*%
X72898000Y-76962000D03*
%TD*%
D17*
%TO.P,C8,1*%
%TO.N,+3V3*%
X71220500Y-58674000D03*
%TO.P,C8,2*%
%TO.N,GND*%
X69495500Y-58674000D03*
%TD*%
D14*
%TO.P,C6,1*%
%TO.N,+3V3*%
X85651000Y-59436000D03*
%TO.P,C6,2*%
%TO.N,GND*%
X87376000Y-59436000D03*
%TD*%
%TO.P,C1,1*%
%TO.N,+5V*%
X88646000Y-64008000D03*
%TO.P,C1,2*%
%TO.N,GND*%
X90371000Y-64008000D03*
%TD*%
D17*
%TO.P,C7,1*%
%TO.N,+3V3*%
X71220500Y-60706000D03*
%TO.P,C7,2*%
%TO.N,GND*%
X69495500Y-60706000D03*
%TD*%
D11*
%TO.P,Conn1,1*%
%TO.N,+3V3*%
X86360000Y-49784000D03*
%TO.P,Conn1,2*%
%TO.N,SWCLK*%
X88900000Y-49784000D03*
%TO.P,Conn1,3*%
%TO.N,SWDIO*%
X91440000Y-49784000D03*
%TO.P,Conn1,4*%
%TO.N,GND*%
X93980000Y-49784000D03*
X93980000Y-49784000D03*
%TD*%
%TO.P,Conn3,1*%
%TO.N,CANH*%
X95250000Y-60960000D03*
%TO.P,Conn3,2*%
%TO.N,CANL*%
X95250000Y-63500000D03*
%TD*%
D14*
%TO.P,C4,1*%
%TO.N,+3V3*%
X85651000Y-55372000D03*
%TO.P,C4,2*%
%TO.N,GND*%
X87376000Y-55372000D03*
%TD*%
D20*
%TO.N,GND*%
X88900000Y-68580000D03*
X97790000Y-73660000D03*
X80010000Y-53340000D03*
X72390000Y-54610000D03*
X91440000Y-77470000D03*
X77470000Y-64770000D03*
X85090000Y-64770000D03*
X82550000Y-48260000D03*
X91440000Y-60960000D03*
X80391000Y-58547000D03*
X76200000Y-53340000D03*
X81280000Y-76200000D03*
X77470000Y-59690000D03*
X73660000Y-48260000D03*
X85090000Y-60960000D03*
X67310000Y-74930000D03*
X96520000Y-55880000D03*
X97790000Y-59690000D03*
X96520000Y-50800000D03*
X67310000Y-48260000D03*
X67310000Y-67310000D03*
X91440000Y-68580000D03*
X91440000Y-55880000D03*
%TO.N,/NRST*%
X79129000Y-59182000D03*
X77216000Y-57150000D03*
%TO.N,CANH*%
X89916000Y-73152000D03*
%TO.N,CANL*%
X88392000Y-73152000D03*
%TO.N,PF1*%
X73795000Y-56529144D03*
%TO.N,PA5*%
X81596356Y-62167644D03*
%TO.N,PA6*%
X82804000Y-61468000D03*
%TO.N,PF0*%
X74422000Y-55891000D03*
%TO.N,PA7*%
X83603735Y-61084265D03*
%TO.N,CAN_TX*%
X83566000Y-57150000D03*
X89408000Y-65024000D03*
%TO.N,CAN_RX*%
X82781000Y-56541000D03*
X86614000Y-65024000D03*
%TD*%
D21*
%TO.N,+5V*%
X76708000Y-49530000D02*
X79891000Y-46347000D01*
X88418500Y-64008000D02*
X87910500Y-64516000D01*
X96385000Y-46347000D02*
X98298000Y-48260000D01*
X88646000Y-64008000D02*
X88418500Y-64008000D01*
X79891000Y-46347000D02*
X96385000Y-46347000D01*
X98298000Y-55880000D02*
X91186000Y-62992000D01*
X87910500Y-63473500D02*
X87910500Y-66613000D01*
X88392000Y-62992000D02*
X87910500Y-63473500D01*
X98298000Y-48260000D02*
X98298000Y-55880000D01*
X91186000Y-62992000D02*
X88392000Y-62992000D01*
%TO.N,+3V3*%
X86640500Y-69876500D02*
X86640500Y-71563000D01*
X84455000Y-50927000D02*
X79756000Y-55626000D01*
X85598000Y-49784000D02*
X84455000Y-50927000D01*
X83901000Y-67137000D02*
X86640500Y-69876500D01*
X67818000Y-50898470D02*
X67818000Y-62484000D01*
X79756000Y-61214000D02*
X83901000Y-65359000D01*
X74437000Y-51562000D02*
X83820000Y-51562000D01*
X71635500Y-48760500D02*
X74437000Y-51562000D01*
X83901000Y-65359000D02*
X83901000Y-67137000D01*
X86168000Y-72035500D02*
X86640500Y-71563000D01*
X79756000Y-57150000D02*
X79756000Y-56731999D01*
X77541000Y-57841000D02*
X75877500Y-57841000D01*
X86360000Y-49784000D02*
X85598000Y-49784000D01*
X71635500Y-48760500D02*
X69955970Y-48760500D01*
X79756000Y-55626000D02*
X77541000Y-57841000D01*
X79756000Y-56731999D02*
X79756000Y-61214000D01*
X69596000Y-64262000D02*
X70358000Y-64262000D01*
X70358000Y-47483000D02*
X71635500Y-48760500D01*
X83820000Y-51562000D02*
X84455000Y-50927000D01*
X69955970Y-48760500D02*
X67818000Y-50898470D01*
X67818000Y-62484000D02*
X69596000Y-64262000D01*
X84328000Y-72035500D02*
X86168000Y-72035500D01*
X79756000Y-56731999D02*
X79756000Y-55626000D01*
X80447000Y-57841000D02*
X79756000Y-57150000D01*
X81602500Y-57841000D02*
X80447000Y-57841000D01*
%TO.N,Net-(C3-Pad1)*%
X93525000Y-76454000D02*
X89662000Y-76454000D01*
X87376000Y-76454000D02*
X89662000Y-76454000D01*
%TO.N,/NRST*%
X73021144Y-56642000D02*
X73570144Y-57191000D01*
X80518000Y-62618052D02*
X80518000Y-69850000D01*
X79129000Y-61229052D02*
X80518000Y-62618052D01*
X73570144Y-57191000D02*
X75877500Y-57191000D01*
X71220500Y-56642000D02*
X73021144Y-56642000D01*
D22*
X77216000Y-57150000D02*
X75918500Y-57150000D01*
D21*
X79129000Y-59182000D02*
X79129000Y-61229052D01*
D22*
X75918500Y-57150000D02*
X75877500Y-57191000D01*
D21*
%TO.N,SWCLK*%
X88392000Y-49784000D02*
X88900000Y-49784000D01*
X83312048Y-53593957D02*
X83312045Y-53593955D01*
X85090000Y-51816000D02*
X86360000Y-51816000D01*
X84415135Y-52490866D02*
X85090000Y-51816000D01*
X83516277Y-52610244D02*
X83601131Y-52525391D01*
X81665000Y-55241000D02*
X82718075Y-54187925D01*
X82667808Y-53458836D02*
X82752662Y-53373983D01*
X83566605Y-52999985D02*
X83516276Y-52949656D01*
X83142342Y-53424251D02*
X83312048Y-53593957D01*
X83736308Y-53169689D02*
X83736310Y-53169690D01*
X81602500Y-55241000D02*
X81665000Y-55241000D01*
X83940543Y-52525390D02*
X83990873Y-52575720D01*
X86360000Y-51816000D02*
X86391707Y-51784293D01*
X86391707Y-51784293D02*
X88392000Y-49784000D01*
X84012876Y-53955375D02*
X84097729Y-53870521D01*
X84330283Y-52575721D02*
X84415135Y-52490866D01*
X83092074Y-53373983D02*
X83142342Y-53424251D01*
X83312045Y-53593955D02*
X83673465Y-53955375D01*
X82718076Y-53848513D02*
X82667809Y-53798246D01*
X83736310Y-53169690D02*
X83566605Y-52999985D01*
X84097729Y-53531110D02*
X83736308Y-53169689D01*
X83990873Y-52575720D02*
G75*
G03*
X84330304Y-52575743I169727J169720D01*
G01*
X82667809Y-53798246D02*
G75*
G02*
X82667767Y-53458796I169691J169746D01*
G01*
X82752662Y-53373983D02*
G75*
G02*
X83092074Y-53373983I169706J-169708D01*
G01*
X82718075Y-54187925D02*
G75*
G03*
X82718095Y-53848494I-169675J169725D01*
G01*
X83601131Y-52525391D02*
G75*
G02*
X83940505Y-52525427I169669J-169709D01*
G01*
X84097729Y-53870521D02*
G75*
G03*
X84097745Y-53531095I-169729J169721D01*
G01*
X83516276Y-52949656D02*
G75*
G02*
X83516326Y-52610294I169724J169656D01*
G01*
X83673465Y-53955375D02*
G75*
G03*
X84012876Y-53955376I169706J169707D01*
G01*
%TO.N,SWDIO*%
X81602500Y-55891000D02*
X83047000Y-55891000D01*
X90351000Y-50873000D02*
X91440000Y-49784000D01*
X88065000Y-50873000D02*
X90351000Y-50873000D01*
X83047000Y-55891000D02*
X88065000Y-50873000D01*
%TO.N,CANH*%
X96339000Y-62049000D02*
X96339000Y-68761000D01*
X89916000Y-73152000D02*
X89434500Y-73152000D01*
X89180500Y-73406000D02*
X89180500Y-72898000D01*
X96339000Y-68761000D02*
X95250000Y-69850000D01*
X89180500Y-74147500D02*
X89180500Y-73406000D01*
X89662000Y-74629000D02*
X89180500Y-74147500D01*
X89434500Y-73152000D02*
X89180500Y-73406000D01*
X95250000Y-60960000D02*
X96339000Y-62049000D01*
X89434500Y-73152000D02*
X89180500Y-72898000D01*
X89180500Y-72898000D02*
X89180500Y-71563000D01*
%TO.N,CANL*%
X95250000Y-63500000D02*
X95250000Y-67310000D01*
X87910500Y-74094500D02*
X87910500Y-73406000D01*
X94161000Y-68399000D02*
X94161000Y-71301000D01*
X94161000Y-71301000D02*
X95250000Y-72390000D01*
X95250000Y-67310000D02*
X94161000Y-68399000D01*
X87376000Y-74629000D02*
X87910500Y-74094500D01*
X88164500Y-73152000D02*
X87910500Y-73406000D01*
X87910500Y-71563000D02*
X87910500Y-72898000D01*
X87910500Y-73406000D02*
X87910500Y-72898000D01*
X88392000Y-73152000D02*
X88164500Y-73152000D01*
X88164500Y-73152000D02*
X87910500Y-72898000D01*
%TO.N,PA2*%
X75038000Y-67202000D02*
X72898000Y-69342000D01*
X75877500Y-59791000D02*
X75049104Y-59791000D01*
X75038000Y-62592000D02*
X75038000Y-67202000D01*
X74168000Y-61722000D02*
X75038000Y-62592000D01*
X74168000Y-60672104D02*
X74168000Y-61722000D01*
X75049104Y-59791000D02*
X74168000Y-60672104D01*
%TO.N,PA0*%
X74130000Y-63088052D02*
X73206000Y-62164052D01*
X74130000Y-65570000D02*
X74130000Y-63088052D01*
X73206000Y-62164052D02*
X73206000Y-60350000D01*
X73206000Y-60350000D02*
X75065000Y-58491000D01*
X75065000Y-58491000D02*
X75877500Y-58491000D01*
X72898000Y-66802000D02*
X74130000Y-65570000D01*
%TO.N,PF1*%
X73795000Y-56529144D02*
X73806856Y-56541000D01*
X73806856Y-56541000D02*
X75877500Y-56541000D01*
D22*
%TO.N,PA5*%
X81596356Y-62167644D02*
X81602500Y-62161500D01*
X81602500Y-62161500D02*
X81602500Y-61091000D01*
%TO.N,PA6*%
X82804000Y-60905001D02*
X82339999Y-60441000D01*
X82339999Y-60441000D02*
X81602500Y-60441000D01*
X82804000Y-61468000D02*
X82804000Y-60905001D01*
D21*
%TO.N,PF0*%
X74422000Y-55891000D02*
X75877500Y-55891000D01*
D22*
%TO.N,PA7*%
X81602500Y-59791000D02*
X82310470Y-59791000D01*
X82310470Y-59791000D02*
X83603735Y-61084265D01*
D21*
%TO.N,PA1*%
X73292530Y-68072000D02*
X71628000Y-68072000D01*
X73660000Y-61976000D02*
X74584000Y-62900000D01*
X74584000Y-62900000D02*
X74584000Y-66780530D01*
X73660000Y-60538052D02*
X73660000Y-61976000D01*
X74584000Y-66780530D02*
X73292530Y-68072000D01*
X71628000Y-68072000D02*
X70358000Y-69342000D01*
X75877500Y-59141000D02*
X75057052Y-59141000D01*
X75057052Y-59141000D02*
X73660000Y-60538052D01*
%TO.N,PA4*%
X75946000Y-61159500D02*
X75877500Y-61091000D01*
X72898000Y-71882000D02*
X75946000Y-68834000D01*
X75946000Y-68834000D02*
X75946000Y-61159500D01*
%TO.N,PA3*%
X73385530Y-70705000D02*
X71535000Y-70705000D01*
X75877500Y-60441000D02*
X75041156Y-60441000D01*
X75492000Y-68598530D02*
X73385530Y-70705000D01*
X75492000Y-62284000D02*
X75492000Y-68598530D01*
X74676000Y-61468000D02*
X75492000Y-62284000D01*
X74676000Y-60806156D02*
X74676000Y-61468000D01*
X71535000Y-70705000D02*
X70358000Y-71882000D01*
X75041156Y-60441000D02*
X74676000Y-60806156D01*
%TO.N,/BOOT0*%
X75576000Y-55241000D02*
X75877500Y-55241000D01*
X70358000Y-50023000D02*
X75576000Y-55241000D01*
D22*
%TO.N,STBY*%
X81602500Y-59141000D02*
X82509000Y-59141000D01*
X87217870Y-69850000D02*
X89916000Y-69850000D01*
X84328000Y-66960130D02*
X87217870Y-69850000D01*
X84328000Y-66960130D02*
X84328000Y-60960000D01*
X90450500Y-70384500D02*
X90450500Y-71563000D01*
X89916000Y-69850000D02*
X90450500Y-70384500D01*
X82509000Y-59141000D02*
X84328000Y-60960000D01*
D21*
%TO.N,CAN_TX*%
X83525000Y-57191000D02*
X83566000Y-57150000D01*
X90450500Y-66066500D02*
X90450500Y-66613000D01*
X81602500Y-57191000D02*
X83525000Y-57191000D01*
X89408000Y-65024000D02*
X90450500Y-66066500D01*
%TO.N,CAN_RX*%
X86614000Y-66586500D02*
X86640500Y-66613000D01*
X86614000Y-65024000D02*
X86614000Y-66586500D01*
X82781000Y-56541000D02*
X81602500Y-56541000D01*
%TD*%
%TA.AperFunction,Conductor*%
%TO.N,+3V3*%
G36*
X73259298Y-57423685D02*
G01*
X73279940Y-57440319D01*
X73335897Y-57496276D01*
X73422890Y-57546501D01*
X73519919Y-57572500D01*
X74979973Y-57572500D01*
X75034432Y-57585098D01*
X75137450Y-57635461D01*
X75206354Y-57645500D01*
X75206360Y-57645500D01*
X76548640Y-57645500D01*
X76548646Y-57645500D01*
X76617550Y-57635461D01*
X76656540Y-57616399D01*
X76725411Y-57604640D01*
X76789709Y-57631983D01*
X76829017Y-57689746D01*
X76835000Y-57727800D01*
X76835000Y-57954199D01*
X76815315Y-58021238D01*
X76762511Y-58066993D01*
X76693353Y-58076937D01*
X76656540Y-58065600D01*
X76617551Y-58046539D01*
X76607706Y-58045104D01*
X76548646Y-58036500D01*
X75206354Y-58036500D01*
X75137450Y-58046539D01*
X75137448Y-58046539D01*
X75137446Y-58046540D01*
X75021929Y-58103013D01*
X75021535Y-58102208D01*
X74994656Y-58114890D01*
X74917750Y-58135497D01*
X74917741Y-58135501D01*
X74893688Y-58149388D01*
X74831690Y-58166000D01*
X73278999Y-58166000D01*
X72009000Y-59435999D01*
X72009000Y-61344000D01*
X71989315Y-61411039D01*
X71936511Y-61456794D01*
X71885000Y-61468000D01*
X70609000Y-61468000D01*
X70541961Y-61448315D01*
X70496206Y-61395511D01*
X70485000Y-61344000D01*
X70485000Y-58036000D01*
X70504685Y-57968961D01*
X70557489Y-57923206D01*
X70609000Y-57912000D01*
X72009000Y-57912000D01*
X72480681Y-57440319D01*
X72542004Y-57406834D01*
X72568362Y-57404000D01*
X73192259Y-57404000D01*
X73259298Y-57423685D01*
G37*
%TD.AperFunction*%
%TD*%
%TA.AperFunction,Conductor*%
%TO.N,+3V3*%
G36*
X86303039Y-54629685D02*
G01*
X86348794Y-54682489D01*
X86360000Y-54734000D01*
X86360000Y-60074000D01*
X86340315Y-60141039D01*
X86287511Y-60186794D01*
X86236000Y-60198000D01*
X84960000Y-60198000D01*
X84892961Y-60178315D01*
X84847206Y-60125511D01*
X84836000Y-60074000D01*
X84836000Y-58928000D01*
X84074000Y-58166000D01*
X82567701Y-58166000D01*
X82500662Y-58146315D01*
X82480019Y-58129680D01*
X82448840Y-58098501D01*
X82448839Y-58098499D01*
X82342553Y-58046540D01*
X82342551Y-58046539D01*
X82342550Y-58046539D01*
X82273646Y-58036500D01*
X80931354Y-58036500D01*
X80885418Y-58043192D01*
X80862447Y-58046539D01*
X80801472Y-58076348D01*
X80732599Y-58088106D01*
X80671526Y-58063322D01*
X80667013Y-58059859D01*
X80625810Y-58003431D01*
X80618500Y-57961484D01*
X80618500Y-57714845D01*
X80638185Y-57647806D01*
X80690989Y-57602051D01*
X80760147Y-57592107D01*
X80796958Y-57603444D01*
X80826684Y-57617976D01*
X80862447Y-57635460D01*
X80862448Y-57635460D01*
X80862450Y-57635461D01*
X80931354Y-57645500D01*
X80931360Y-57645500D01*
X82273640Y-57645500D01*
X82273646Y-57645500D01*
X82342550Y-57635461D01*
X82445567Y-57585098D01*
X82500027Y-57572500D01*
X83163655Y-57572500D01*
X83230694Y-57592185D01*
X83239138Y-57598122D01*
X83286357Y-57634355D01*
X83286359Y-57634355D01*
X83286361Y-57634357D01*
X83353801Y-57662291D01*
X83421246Y-57690228D01*
X83493623Y-57699756D01*
X83565999Y-57709285D01*
X83566000Y-57709285D01*
X83566001Y-57709285D01*
X83614251Y-57702932D01*
X83710754Y-57690228D01*
X83845643Y-57634355D01*
X83961474Y-57545474D01*
X84050355Y-57429643D01*
X84050356Y-57429638D01*
X84051997Y-57427501D01*
X84062692Y-57415307D01*
X84073999Y-57404000D01*
X84074000Y-57404000D01*
X84836000Y-56642000D01*
X84836000Y-54734000D01*
X84855685Y-54666961D01*
X84908489Y-54621206D01*
X84960000Y-54610000D01*
X86236000Y-54610000D01*
X86303039Y-54629685D01*
G37*
%TD.AperFunction*%
%TD*%
%TA.AperFunction,Conductor*%
%TO.N,GND*%
G36*
X69963073Y-46240185D02*
G01*
X70008828Y-46292989D01*
X70018772Y-46362147D01*
X69989747Y-46425703D01*
X69940828Y-46460126D01*
X69863584Y-46490050D01*
X69863569Y-46490057D01*
X69689539Y-46597812D01*
X69689537Y-46597814D01*
X69538269Y-46735712D01*
X69414912Y-46899064D01*
X69323673Y-47082295D01*
X69267654Y-47279183D01*
X69248768Y-47482999D01*
X69248768Y-47483000D01*
X69267654Y-47686816D01*
X69267654Y-47686818D01*
X69267655Y-47686821D01*
X69295222Y-47783708D01*
X69323673Y-47883704D01*
X69414912Y-48066935D01*
X69538267Y-48230284D01*
X69655934Y-48337552D01*
X69692215Y-48397263D01*
X69690454Y-48467111D01*
X69660076Y-48516870D01*
X67583753Y-50593194D01*
X67512725Y-50664221D01*
X67512723Y-50664224D01*
X67462499Y-50751215D01*
X67453832Y-50783559D01*
X67436500Y-50848245D01*
X67436500Y-62534225D01*
X67450300Y-62585727D01*
X67462499Y-62631255D01*
X67462500Y-62631256D01*
X67505971Y-62706550D01*
X67505971Y-62706551D01*
X67512721Y-62718243D01*
X67512725Y-62718248D01*
X69217181Y-64422704D01*
X69250666Y-64484027D01*
X69253500Y-64510385D01*
X69253500Y-65137063D01*
X69268266Y-65211301D01*
X69324515Y-65295484D01*
X69336728Y-65303644D01*
X69408699Y-65351734D01*
X69408702Y-65351734D01*
X69408703Y-65351735D01*
X69433666Y-65356700D01*
X69482933Y-65366500D01*
X71233066Y-65366499D01*
X71307301Y-65351734D01*
X71391484Y-65295484D01*
X71447734Y-65211301D01*
X71462500Y-65137067D01*
X71462499Y-63386934D01*
X71447734Y-63312699D01*
X71418571Y-63269054D01*
X71391484Y-63228515D01*
X71335196Y-63190905D01*
X71307301Y-63172266D01*
X71307299Y-63172265D01*
X71307296Y-63172264D01*
X71233069Y-63157500D01*
X69482936Y-63157500D01*
X69408698Y-63172266D01*
X69324514Y-63228516D01*
X69319346Y-63236252D01*
X69265734Y-63281056D01*
X69196409Y-63289763D01*
X69133382Y-63259608D01*
X69128564Y-63255041D01*
X68235819Y-62362296D01*
X68202334Y-62300973D01*
X68199500Y-62274615D01*
X68199500Y-51107854D01*
X68219185Y-51040815D01*
X68235814Y-51020177D01*
X69065629Y-50190362D01*
X69126950Y-50156879D01*
X69196641Y-50161863D01*
X69252575Y-50203735D01*
X69272574Y-50244111D01*
X69323669Y-50423696D01*
X69323672Y-50423702D01*
X69414912Y-50606935D01*
X69538269Y-50770287D01*
X69689537Y-50908185D01*
X69689539Y-50908187D01*
X69863569Y-51015942D01*
X69863575Y-51015945D01*
X69874489Y-51020173D01*
X70054444Y-51089888D01*
X70255653Y-51127500D01*
X70255656Y-51127500D01*
X70460344Y-51127500D01*
X70460347Y-51127500D01*
X70661556Y-51089888D01*
X70747532Y-51056580D01*
X70817150Y-51050718D01*
X70878890Y-51083427D01*
X70880003Y-51084526D01*
X74849181Y-55053703D01*
X74882666Y-55115026D01*
X74885500Y-55141384D01*
X74885500Y-55298020D01*
X74865815Y-55365059D01*
X74813011Y-55410814D01*
X74743853Y-55420758D01*
X74709517Y-55408874D01*
X74709153Y-55409755D01*
X74566757Y-55350773D01*
X74566752Y-55350771D01*
X74422001Y-55331715D01*
X74421999Y-55331715D01*
X74277247Y-55350771D01*
X74277245Y-55350772D01*
X74142361Y-55406643D01*
X74142358Y-55406644D01*
X74142358Y-55406645D01*
X74026526Y-55495526D01*
X73960050Y-55582160D01*
X73937643Y-55611361D01*
X73881772Y-55746245D01*
X73881772Y-55746246D01*
X73865763Y-55867844D01*
X73837496Y-55931740D01*
X73779172Y-55970211D01*
X73759009Y-55974597D01*
X73650247Y-55988915D01*
X73650245Y-55988916D01*
X73515361Y-56044787D01*
X73515358Y-56044788D01*
X73515358Y-56044789D01*
X73399526Y-56133670D01*
X73399525Y-56133671D01*
X73399524Y-56133672D01*
X73312717Y-56246800D01*
X73256289Y-56288002D01*
X73186543Y-56292157D01*
X73171160Y-56287239D01*
X73162110Y-56284814D01*
X73071369Y-56260500D01*
X73071366Y-56260500D01*
X72077993Y-56260500D01*
X72010954Y-56240815D01*
X71965199Y-56188011D01*
X71961812Y-56179835D01*
X71961411Y-56178760D01*
X71956758Y-56166285D01*
X71932344Y-56133672D01*
X71871974Y-56053026D01*
X71758718Y-55968244D01*
X71758717Y-55968243D01*
X71758715Y-55968242D01*
X71706035Y-55948593D01*
X71626159Y-55918800D01*
X71567565Y-55912500D01*
X70873446Y-55912500D01*
X70873437Y-55912501D01*
X70814840Y-55918800D01*
X70682290Y-55968239D01*
X70682281Y-55968244D01*
X70569026Y-56053026D01*
X70484244Y-56166281D01*
X70484244Y-56166282D01*
X70484242Y-56166285D01*
X70480590Y-56176075D01*
X70434800Y-56298839D01*
X70434800Y-56298841D01*
X70428500Y-56357426D01*
X70428500Y-56926553D01*
X70428501Y-56926562D01*
X70434800Y-56985159D01*
X70484239Y-57117709D01*
X70484241Y-57117713D01*
X70484242Y-57117715D01*
X70569026Y-57230974D01*
X70682285Y-57315758D01*
X70814843Y-57365200D01*
X70873443Y-57371500D01*
X71567556Y-57371499D01*
X71626157Y-57365200D01*
X71758715Y-57315758D01*
X71871974Y-57230974D01*
X71956758Y-57117715D01*
X71961812Y-57104165D01*
X72003684Y-57048232D01*
X72069149Y-57023816D01*
X72077993Y-57023500D01*
X72236312Y-57023500D01*
X72303351Y-57043185D01*
X72349106Y-57095989D01*
X72359050Y-57165147D01*
X72330025Y-57228703D01*
X72310623Y-57246767D01*
X72297188Y-57256823D01*
X72297176Y-57256834D01*
X71937831Y-57616181D01*
X71876508Y-57649666D01*
X71850150Y-57652500D01*
X70608991Y-57652500D01*
X70553838Y-57658430D01*
X70502316Y-57669639D01*
X70475536Y-57676986D01*
X70387553Y-57727088D01*
X70334751Y-57772840D01*
X70302630Y-57806129D01*
X70255695Y-57895852D01*
X70236013Y-57962882D01*
X70236010Y-57962894D01*
X70225500Y-58035998D01*
X70225500Y-61344008D01*
X70231430Y-61399161D01*
X70242639Y-61450683D01*
X70249986Y-61477463D01*
X70262516Y-61499466D01*
X70300089Y-61565448D01*
X70326557Y-61595994D01*
X70345840Y-61618248D01*
X70345843Y-61618251D01*
X70345844Y-61618252D01*
X70379131Y-61650371D01*
X70468849Y-61697303D01*
X70535888Y-61716988D01*
X70535892Y-61716988D01*
X70535894Y-61716989D01*
X70547707Y-61718687D01*
X70609000Y-61727500D01*
X70609001Y-61727500D01*
X71884991Y-61727500D01*
X71885000Y-61727500D01*
X71940163Y-61721569D01*
X71991674Y-61710363D01*
X72018461Y-61703014D01*
X72106448Y-61652911D01*
X72159252Y-61607156D01*
X72191371Y-61573869D01*
X72238303Y-61484151D01*
X72257988Y-61417112D01*
X72268500Y-61344000D01*
X72268500Y-59594849D01*
X72288185Y-59527810D01*
X72304819Y-59507168D01*
X73350168Y-58461819D01*
X73411491Y-58428334D01*
X73437849Y-58425500D01*
X74291615Y-58425500D01*
X74358654Y-58445185D01*
X74404409Y-58497989D01*
X74414353Y-58567147D01*
X74385328Y-58630703D01*
X74379296Y-58637181D01*
X72900725Y-60115751D01*
X72900723Y-60115754D01*
X72850499Y-60202745D01*
X72849235Y-60207463D01*
X72824500Y-60299775D01*
X72824500Y-62214277D01*
X72850499Y-62311306D01*
X72850500Y-62311308D01*
X72875306Y-62354272D01*
X72875307Y-62354276D01*
X72875308Y-62354276D01*
X72900724Y-62398299D01*
X73316264Y-62813839D01*
X73632008Y-63129582D01*
X73665493Y-63190905D01*
X73660509Y-63260596D01*
X73618637Y-63316530D01*
X73553173Y-63340947D01*
X73484900Y-63326095D01*
X73479050Y-63322690D01*
X73392430Y-63269057D01*
X73392424Y-63269054D01*
X73241993Y-63210777D01*
X73201556Y-63195112D01*
X73000347Y-63157500D01*
X72795653Y-63157500D01*
X72594444Y-63195112D01*
X72594441Y-63195112D01*
X72594441Y-63195113D01*
X72403575Y-63269054D01*
X72403569Y-63269057D01*
X72229539Y-63376812D01*
X72229537Y-63376814D01*
X72078269Y-63514712D01*
X71954912Y-63678064D01*
X71863673Y-63861295D01*
X71807654Y-64058183D01*
X71788768Y-64261999D01*
X71788768Y-64262000D01*
X71807654Y-64465816D01*
X71807654Y-64465818D01*
X71807655Y-64465821D01*
X71862805Y-64659654D01*
X71863673Y-64662704D01*
X71954912Y-64845935D01*
X72078269Y-65009287D01*
X72229537Y-65147185D01*
X72229539Y-65147187D01*
X72403569Y-65254942D01*
X72403575Y-65254945D01*
X72409125Y-65257095D01*
X72594444Y-65328888D01*
X72795653Y-65366500D01*
X72795656Y-65366500D01*
X73000344Y-65366500D01*
X73000347Y-65366500D01*
X73201556Y-65328888D01*
X73392427Y-65254944D01*
X73559224Y-65151667D01*
X73626583Y-65133112D01*
X73693282Y-65153920D01*
X73738144Y-65207485D01*
X73748500Y-65257095D01*
X73748500Y-65360614D01*
X73728815Y-65427653D01*
X73712181Y-65448295D01*
X73420004Y-65740471D01*
X73358681Y-65773956D01*
X73288989Y-65768972D01*
X73287530Y-65768417D01*
X73201561Y-65735113D01*
X73201556Y-65735112D01*
X73000347Y-65697500D01*
X72795653Y-65697500D01*
X72594444Y-65735112D01*
X72594441Y-65735112D01*
X72594441Y-65735113D01*
X72403575Y-65809054D01*
X72403569Y-65809057D01*
X72229539Y-65916812D01*
X72229537Y-65916814D01*
X72078269Y-66054712D01*
X71954912Y-66218064D01*
X71863673Y-66401295D01*
X71807654Y-66598183D01*
X71788768Y-66801999D01*
X71788768Y-66802000D01*
X71807654Y-67005816D01*
X71863673Y-67202704D01*
X71954912Y-67385935D01*
X72034837Y-67491773D01*
X72059529Y-67557135D01*
X72044964Y-67625469D01*
X71995766Y-67675082D01*
X71935883Y-67690500D01*
X71577775Y-67690500D01*
X71505003Y-67709999D01*
X71480745Y-67716499D01*
X71393754Y-67766723D01*
X71393751Y-67766725D01*
X70880004Y-68280471D01*
X70818681Y-68313956D01*
X70748989Y-68308972D01*
X70747530Y-68308417D01*
X70661561Y-68275113D01*
X70661556Y-68275112D01*
X70460347Y-68237500D01*
X70255653Y-68237500D01*
X70054444Y-68275112D01*
X70054441Y-68275112D01*
X70054441Y-68275113D01*
X69863575Y-68349054D01*
X69863569Y-68349057D01*
X69689539Y-68456812D01*
X69689537Y-68456814D01*
X69538269Y-68594712D01*
X69414912Y-68758064D01*
X69323673Y-68941295D01*
X69267654Y-69138183D01*
X69248768Y-69341999D01*
X69248768Y-69342000D01*
X69267654Y-69545816D01*
X69267654Y-69545818D01*
X69267655Y-69545821D01*
X69323672Y-69742701D01*
X69323673Y-69742704D01*
X69414912Y-69925935D01*
X69538269Y-70089287D01*
X69689537Y-70227185D01*
X69689539Y-70227187D01*
X69863569Y-70334942D01*
X69863575Y-70334945D01*
X69871020Y-70337829D01*
X70054444Y-70408888D01*
X70255653Y-70446500D01*
X70255656Y-70446500D01*
X70460344Y-70446500D01*
X70460347Y-70446500D01*
X70661556Y-70408888D01*
X70852427Y-70334944D01*
X71026462Y-70227186D01*
X71177732Y-70089285D01*
X71301088Y-69925935D01*
X71392328Y-69742701D01*
X71448345Y-69545821D01*
X71467232Y-69342000D01*
X71448345Y-69138179D01*
X71392328Y-68941299D01*
X71392327Y-68941297D01*
X71391425Y-68938126D01*
X71392013Y-68868259D01*
X71423011Y-68816511D01*
X71749704Y-68489819D01*
X71811027Y-68456334D01*
X71837385Y-68453500D01*
X71935883Y-68453500D01*
X72002922Y-68473185D01*
X72048677Y-68525989D01*
X72058621Y-68595147D01*
X72034837Y-68652227D01*
X71954912Y-68758064D01*
X71863673Y-68941295D01*
X71807654Y-69138183D01*
X71788768Y-69341999D01*
X71788768Y-69342000D01*
X71807654Y-69545816D01*
X71807654Y-69545818D01*
X71807655Y-69545821D01*
X71863672Y-69742701D01*
X71954912Y-69925935D01*
X72075700Y-70085885D01*
X72078269Y-70089286D01*
X72098646Y-70107862D01*
X72134928Y-70167573D01*
X72133168Y-70237420D01*
X72093926Y-70295228D01*
X72029659Y-70322643D01*
X72015109Y-70323500D01*
X71484775Y-70323500D01*
X71412003Y-70342999D01*
X71387745Y-70349499D01*
X71300754Y-70399723D01*
X71300751Y-70399725D01*
X71229722Y-70470755D01*
X70880003Y-70820473D01*
X70818680Y-70853958D01*
X70748988Y-70848974D01*
X70747528Y-70848418D01*
X70675394Y-70820473D01*
X70661556Y-70815112D01*
X70460347Y-70777500D01*
X70255653Y-70777500D01*
X70054444Y-70815112D01*
X70054441Y-70815112D01*
X70054441Y-70815113D01*
X69863575Y-70889054D01*
X69863569Y-70889057D01*
X69689539Y-70996812D01*
X69689537Y-70996814D01*
X69538269Y-71134712D01*
X69414912Y-71298064D01*
X69323673Y-71481295D01*
X69308322Y-71535248D01*
X69274535Y-71654000D01*
X69267654Y-71678183D01*
X69248768Y-71881999D01*
X69248768Y-71882000D01*
X69267654Y-72085816D01*
X69267654Y-72085818D01*
X69267655Y-72085821D01*
X69297505Y-72190732D01*
X69323673Y-72282704D01*
X69414912Y-72465935D01*
X69538269Y-72629287D01*
X69689537Y-72767185D01*
X69689539Y-72767187D01*
X69863569Y-72874942D01*
X69863575Y-72874945D01*
X69904010Y-72890609D01*
X70054444Y-72948888D01*
X70255653Y-72986500D01*
X70255656Y-72986500D01*
X70460344Y-72986500D01*
X70460347Y-72986500D01*
X70661556Y-72948888D01*
X70852427Y-72874944D01*
X71026462Y-72767186D01*
X71177732Y-72629285D01*
X71301088Y-72465935D01*
X71392328Y-72282701D01*
X71448345Y-72085821D01*
X71467232Y-71882000D01*
X71448345Y-71678179D01*
X71392328Y-71481299D01*
X71392327Y-71481298D01*
X71391425Y-71478126D01*
X71392011Y-71408259D01*
X71423010Y-71356511D01*
X71529722Y-71249800D01*
X71656703Y-71122819D01*
X71718026Y-71089334D01*
X71744384Y-71086500D01*
X71865653Y-71086500D01*
X71932692Y-71106185D01*
X71978447Y-71158989D01*
X71988391Y-71228147D01*
X71964606Y-71285228D01*
X71954912Y-71298063D01*
X71863673Y-71481295D01*
X71848322Y-71535248D01*
X71814535Y-71654000D01*
X71807654Y-71678183D01*
X71788768Y-71881999D01*
X71788768Y-71882000D01*
X71807654Y-72085816D01*
X71807654Y-72085818D01*
X71807655Y-72085821D01*
X71837505Y-72190732D01*
X71863673Y-72282704D01*
X71954912Y-72465935D01*
X72078269Y-72629287D01*
X72229537Y-72767185D01*
X72229539Y-72767187D01*
X72403569Y-72874942D01*
X72403575Y-72874945D01*
X72444010Y-72890609D01*
X72594444Y-72948888D01*
X72795653Y-72986500D01*
X72795656Y-72986500D01*
X73000344Y-72986500D01*
X73000347Y-72986500D01*
X73201556Y-72948888D01*
X73392427Y-72874944D01*
X73566462Y-72767186D01*
X73717732Y-72629285D01*
X73841088Y-72465935D01*
X73932328Y-72282701D01*
X73988345Y-72085821D01*
X74007232Y-71882000D01*
X73988345Y-71678179D01*
X73932328Y-71481299D01*
X73931425Y-71478125D01*
X73932013Y-71408257D01*
X73963009Y-71356512D01*
X76251276Y-69068247D01*
X76301502Y-68981253D01*
X76327500Y-68884225D01*
X76327500Y-68783775D01*
X76327500Y-61669500D01*
X76347185Y-61602461D01*
X76399989Y-61556706D01*
X76451500Y-61545500D01*
X76548640Y-61545500D01*
X76548646Y-61545500D01*
X76617550Y-61535461D01*
X76691179Y-61499466D01*
X76723839Y-61483500D01*
X76807500Y-61399839D01*
X76834797Y-61344001D01*
X76859461Y-61293550D01*
X76869500Y-61224646D01*
X76869500Y-60957354D01*
X76859461Y-60888450D01*
X76826222Y-60820460D01*
X76814463Y-60751588D01*
X76826223Y-60711539D01*
X76833869Y-60695900D01*
X76859461Y-60643550D01*
X76869500Y-60574646D01*
X76869500Y-60307354D01*
X76859461Y-60238450D01*
X76859117Y-60237747D01*
X76826223Y-60170461D01*
X76814463Y-60101588D01*
X76826223Y-60061539D01*
X76834444Y-60044724D01*
X76859461Y-59993550D01*
X76869500Y-59924646D01*
X76869500Y-59657354D01*
X76859461Y-59588450D01*
X76854095Y-59577474D01*
X76826223Y-59520461D01*
X76814463Y-59451588D01*
X76826223Y-59411539D01*
X76859460Y-59343552D01*
X76859459Y-59343552D01*
X76859461Y-59343550D01*
X76869500Y-59274646D01*
X76869500Y-59007354D01*
X76859461Y-58938450D01*
X76859459Y-58938446D01*
X76826223Y-58870461D01*
X76814463Y-58801588D01*
X76826223Y-58761539D01*
X76859460Y-58693552D01*
X76859459Y-58693552D01*
X76859461Y-58693550D01*
X76869500Y-58624646D01*
X76869500Y-58371038D01*
X76889185Y-58303999D01*
X76927936Y-58267272D01*
X76927479Y-58266626D01*
X76931978Y-58263442D01*
X76932150Y-58263279D01*
X76932448Y-58263110D01*
X76944361Y-58252786D01*
X77007917Y-58223762D01*
X77025564Y-58222500D01*
X77591222Y-58222500D01*
X77591225Y-58222500D01*
X77688254Y-58196501D01*
X77775247Y-58146276D01*
X77846276Y-58075247D01*
X79162819Y-56758704D01*
X79224142Y-56725219D01*
X79293834Y-56730203D01*
X79349767Y-56772075D01*
X79374184Y-56837539D01*
X79374500Y-56846385D01*
X79374500Y-58513640D01*
X79354815Y-58580679D01*
X79302011Y-58626434D01*
X79234316Y-58636579D01*
X79129003Y-58622715D01*
X79128999Y-58622715D01*
X78984247Y-58641771D01*
X78984245Y-58641772D01*
X78849361Y-58697643D01*
X78849358Y-58697644D01*
X78849358Y-58697645D01*
X78733526Y-58786526D01*
X78669121Y-58870461D01*
X78644643Y-58902361D01*
X78588772Y-59037245D01*
X78588771Y-59037247D01*
X78569715Y-59181998D01*
X78569715Y-59182001D01*
X78588771Y-59326752D01*
X78588773Y-59326757D01*
X78644642Y-59461638D01*
X78644645Y-59461644D01*
X78721875Y-59562290D01*
X78747070Y-59627459D01*
X78747500Y-59637777D01*
X78747500Y-61279277D01*
X78760797Y-61328902D01*
X78773499Y-61376307D01*
X78773500Y-61376308D01*
X78815033Y-61448245D01*
X78815033Y-61448248D01*
X78823720Y-61463293D01*
X78823726Y-61463301D01*
X80100181Y-62739756D01*
X80133666Y-62801079D01*
X80136500Y-62827437D01*
X80136500Y-68621500D01*
X80116815Y-68688539D01*
X80064011Y-68734294D01*
X80012500Y-68745500D01*
X79642936Y-68745500D01*
X79568698Y-68760266D01*
X79484515Y-68816515D01*
X79428266Y-68900699D01*
X79428264Y-68900703D01*
X79413500Y-68974928D01*
X79413500Y-70725063D01*
X79428266Y-70799301D01*
X79484515Y-70883484D01*
X79492856Y-70889057D01*
X79568699Y-70939734D01*
X79568702Y-70939734D01*
X79568703Y-70939735D01*
X79593666Y-70944700D01*
X79642933Y-70954500D01*
X81393066Y-70954499D01*
X81467301Y-70939734D01*
X81551484Y-70883484D01*
X81607734Y-70799301D01*
X81622500Y-70725067D01*
X81622499Y-68974934D01*
X81607734Y-68900699D01*
X81572660Y-68848207D01*
X81551484Y-68816515D01*
X81501019Y-68782796D01*
X81467301Y-68760266D01*
X81467299Y-68760265D01*
X81467296Y-68760264D01*
X81393071Y-68745500D01*
X81393067Y-68745500D01*
X81023500Y-68745500D01*
X80956461Y-68725815D01*
X80910706Y-68673011D01*
X80899500Y-68621500D01*
X80899500Y-63196385D01*
X80919185Y-63129346D01*
X80971989Y-63083591D01*
X81041147Y-63073647D01*
X81104703Y-63102672D01*
X81111181Y-63108704D01*
X83483181Y-65480704D01*
X83516666Y-65542027D01*
X83519500Y-65568385D01*
X83519500Y-67187225D01*
X83545499Y-67284254D01*
X83589361Y-67360225D01*
X83589363Y-67360229D01*
X83595721Y-67371243D01*
X83595725Y-67371248D01*
X86222681Y-69998204D01*
X86256166Y-70059527D01*
X86259000Y-70085885D01*
X86259000Y-70346088D01*
X86239315Y-70413127D01*
X86222681Y-70433769D01*
X86159178Y-70497271D01*
X86159175Y-70497276D01*
X86159174Y-70497277D01*
X86139783Y-70535333D01*
X86101000Y-70611447D01*
X86086000Y-70706160D01*
X86086000Y-71526615D01*
X86066315Y-71593654D01*
X86049681Y-71614296D01*
X86046296Y-71617681D01*
X85984973Y-71651166D01*
X85958615Y-71654000D01*
X85146305Y-71654000D01*
X85079266Y-71634315D01*
X85033511Y-71581511D01*
X85030124Y-71573335D01*
X85001759Y-71497288D01*
X85001758Y-71497285D01*
X84916974Y-71384026D01*
X84803715Y-71299242D01*
X84751035Y-71279593D01*
X84671159Y-71249800D01*
X84612565Y-71243500D01*
X84043446Y-71243500D01*
X84043437Y-71243501D01*
X83984840Y-71249800D01*
X83852290Y-71299239D01*
X83852281Y-71299244D01*
X83739026Y-71384026D01*
X83654244Y-71497281D01*
X83654241Y-71497288D01*
X83604800Y-71629839D01*
X83604800Y-71629841D01*
X83598500Y-71688426D01*
X83598500Y-72382553D01*
X83598501Y-72382562D01*
X83604800Y-72441159D01*
X83654239Y-72573709D01*
X83654241Y-72573713D01*
X83654242Y-72573715D01*
X83739026Y-72686974D01*
X83852285Y-72771758D01*
X83984843Y-72821200D01*
X84043443Y-72827500D01*
X84612556Y-72827499D01*
X84671157Y-72821200D01*
X84803715Y-72771758D01*
X84916974Y-72686974D01*
X85001758Y-72573715D01*
X85023825Y-72514552D01*
X85030124Y-72497665D01*
X85071996Y-72441732D01*
X85137460Y-72417316D01*
X85146305Y-72417000D01*
X85979644Y-72417000D01*
X86046683Y-72436685D01*
X86092438Y-72489489D01*
X86097266Y-72505504D01*
X86097985Y-72505271D01*
X86101000Y-72514551D01*
X86101001Y-72514554D01*
X86101002Y-72514555D01*
X86159174Y-72628723D01*
X86159176Y-72628725D01*
X86159178Y-72628728D01*
X86249771Y-72719321D01*
X86249773Y-72719322D01*
X86249777Y-72719326D01*
X86363945Y-72777498D01*
X86363946Y-72777498D01*
X86363948Y-72777499D01*
X86363947Y-72777499D01*
X86458661Y-72792500D01*
X86458666Y-72792500D01*
X86822339Y-72792500D01*
X86917052Y-72777499D01*
X86917053Y-72777498D01*
X86917055Y-72777498D01*
X87031223Y-72719326D01*
X87121826Y-72628723D01*
X87165016Y-72543957D01*
X87212990Y-72493163D01*
X87280811Y-72476368D01*
X87346946Y-72498906D01*
X87385983Y-72543956D01*
X87429174Y-72628723D01*
X87429176Y-72628725D01*
X87429178Y-72628728D01*
X87492681Y-72692231D01*
X87526166Y-72753554D01*
X87529000Y-72779912D01*
X87529000Y-73763000D01*
X87509315Y-73830039D01*
X87456511Y-73875794D01*
X87405000Y-73887000D01*
X87091447Y-73887000D01*
X87091437Y-73887001D01*
X87032840Y-73893300D01*
X86900290Y-73942739D01*
X86900281Y-73942744D01*
X86787026Y-74027526D01*
X86702244Y-74140781D01*
X86702242Y-74140784D01*
X86702242Y-74140785D01*
X86698590Y-74150575D01*
X86652800Y-74273339D01*
X86652800Y-74273341D01*
X86646500Y-74331926D01*
X86646500Y-74926053D01*
X86646501Y-74926062D01*
X86652800Y-74984659D01*
X86702239Y-75117209D01*
X86702241Y-75117213D01*
X86702242Y-75117215D01*
X86787026Y-75230474D01*
X86900285Y-75315258D01*
X87032843Y-75364700D01*
X87091443Y-75371000D01*
X87660556Y-75370999D01*
X87719157Y-75364700D01*
X87851715Y-75315258D01*
X87964974Y-75230474D01*
X88049758Y-75117215D01*
X88099200Y-74984657D01*
X88102685Y-74952234D01*
X88105499Y-74926073D01*
X88105499Y-74926062D01*
X88105500Y-74926057D01*
X88105499Y-74490385D01*
X88125183Y-74423347D01*
X88141818Y-74402704D01*
X88215776Y-74328747D01*
X88266001Y-74241754D01*
X88292000Y-74144725D01*
X88292000Y-73833195D01*
X88311685Y-73766156D01*
X88364489Y-73720401D01*
X88399814Y-73710256D01*
X88536754Y-73692228D01*
X88627547Y-73654619D01*
X88697017Y-73647151D01*
X88759496Y-73678426D01*
X88795148Y-73738515D01*
X88799000Y-73769181D01*
X88799000Y-74197725D01*
X88804481Y-74218179D01*
X88824999Y-74294755D01*
X88825002Y-74294760D01*
X88855559Y-74347688D01*
X88855560Y-74347688D01*
X88875224Y-74381747D01*
X88875226Y-74381749D01*
X88896181Y-74402704D01*
X88929666Y-74464027D01*
X88932500Y-74490385D01*
X88932500Y-74926053D01*
X88932501Y-74926062D01*
X88938800Y-74984659D01*
X88988239Y-75117209D01*
X88988241Y-75117213D01*
X88988242Y-75117215D01*
X89073026Y-75230474D01*
X89186285Y-75315258D01*
X89318843Y-75364700D01*
X89377443Y-75371000D01*
X89946556Y-75370999D01*
X90005157Y-75364700D01*
X90137715Y-75315258D01*
X90250974Y-75230474D01*
X90335758Y-75117215D01*
X90385200Y-74984657D01*
X90388685Y-74952234D01*
X90391499Y-74926073D01*
X90391499Y-74926062D01*
X90391500Y-74926057D01*
X90391499Y-74331944D01*
X90385200Y-74273343D01*
X90337228Y-74144725D01*
X90335760Y-74140790D01*
X90335759Y-74140788D01*
X90335758Y-74140785D01*
X90250974Y-74027526D01*
X90137715Y-73942742D01*
X90097818Y-73927861D01*
X90074268Y-73919077D01*
X90018335Y-73877205D01*
X89993919Y-73811741D01*
X90008771Y-73743468D01*
X90058177Y-73694063D01*
X90070141Y-73688339D01*
X90195643Y-73636355D01*
X90311474Y-73547474D01*
X90400355Y-73431643D01*
X90456228Y-73296754D01*
X90475285Y-73152000D01*
X90456228Y-73007246D01*
X90438294Y-72963952D01*
X90430826Y-72894484D01*
X90462101Y-72832004D01*
X90522190Y-72796352D01*
X90552856Y-72792500D01*
X90632339Y-72792500D01*
X90727052Y-72777499D01*
X90727053Y-72777498D01*
X90727055Y-72777498D01*
X90841223Y-72719326D01*
X90931826Y-72628723D01*
X90989998Y-72514555D01*
X90989998Y-72514553D01*
X90989999Y-72514552D01*
X91005000Y-72419839D01*
X91005000Y-70706160D01*
X90989999Y-70611447D01*
X90976196Y-70584358D01*
X90931826Y-70497277D01*
X90931822Y-70497273D01*
X90931821Y-70497271D01*
X90839709Y-70405159D01*
X90807214Y-70345649D01*
X90807103Y-70345679D01*
X90806980Y-70345221D01*
X90806224Y-70343836D01*
X90805508Y-70339727D01*
X90805000Y-70337831D01*
X90805000Y-70337829D01*
X90780841Y-70247668D01*
X90734171Y-70166832D01*
X90668168Y-70100829D01*
X90133668Y-69566329D01*
X90052832Y-69519659D01*
X90052833Y-69519659D01*
X90022778Y-69511606D01*
X89962671Y-69495500D01*
X89962669Y-69495500D01*
X87416070Y-69495500D01*
X87349031Y-69475815D01*
X87328389Y-69459181D01*
X84718819Y-66849610D01*
X84685334Y-66788287D01*
X84682500Y-66761929D01*
X84682500Y-60913330D01*
X84682500Y-60913329D01*
X84658341Y-60823168D01*
X84611671Y-60742332D01*
X84545668Y-60676329D01*
X84541337Y-60671998D01*
X84541326Y-60671988D01*
X82726669Y-58857330D01*
X82726668Y-58857329D01*
X82645832Y-58810659D01*
X82645833Y-58810659D01*
X82611979Y-58801588D01*
X82555671Y-58786500D01*
X82555669Y-58786500D01*
X82538202Y-58786500D01*
X82471163Y-58766815D01*
X82450521Y-58750181D01*
X82448839Y-58748499D01*
X82342553Y-58696540D01*
X82342551Y-58696539D01*
X82342550Y-58696539D01*
X82273646Y-58686500D01*
X80931354Y-58686500D01*
X80862450Y-58696539D01*
X80862448Y-58696539D01*
X80862446Y-58696540D01*
X80756160Y-58748499D01*
X80672499Y-58832160D01*
X80620540Y-58938446D01*
X80620540Y-58938447D01*
X80620539Y-58938450D01*
X80610500Y-59007354D01*
X80610500Y-59274646D01*
X80618092Y-59326752D01*
X80620539Y-59343551D01*
X80653777Y-59411540D01*
X80665535Y-59480413D01*
X80653777Y-59520460D01*
X80620539Y-59588448D01*
X80617670Y-59608136D01*
X80610500Y-59657354D01*
X80610500Y-59924646D01*
X80615390Y-59958208D01*
X80620539Y-59993551D01*
X80653777Y-60061540D01*
X80665535Y-60130413D01*
X80653777Y-60170460D01*
X80620539Y-60238448D01*
X80620539Y-60238450D01*
X80610500Y-60307354D01*
X80610500Y-60574646D01*
X80619104Y-60633706D01*
X80620539Y-60643551D01*
X80653777Y-60711540D01*
X80665535Y-60780413D01*
X80653777Y-60820460D01*
X80620539Y-60888448D01*
X80620539Y-60888450D01*
X80610500Y-60957354D01*
X80610500Y-60957359D01*
X80610500Y-61229133D01*
X80608416Y-61229133D01*
X80595356Y-61289104D01*
X80545939Y-61338498D01*
X80477663Y-61353334D01*
X80412204Y-61328902D01*
X80398856Y-61317333D01*
X80173819Y-61092296D01*
X80140334Y-61030973D01*
X80137500Y-61004615D01*
X80137500Y-58314627D01*
X80157185Y-58247588D01*
X80209989Y-58201833D01*
X80279147Y-58191889D01*
X80293595Y-58194852D01*
X80299742Y-58196499D01*
X80299747Y-58196502D01*
X80396775Y-58222501D01*
X80414593Y-58222501D01*
X80481632Y-58242186D01*
X80503309Y-58259867D01*
X80509033Y-58265728D01*
X80509037Y-58265732D01*
X80513545Y-58269192D01*
X80513569Y-58269207D01*
X80573935Y-58303771D01*
X80573940Y-58303773D01*
X80573947Y-58303777D01*
X80635020Y-58328561D01*
X80635027Y-58328563D01*
X80635029Y-58328564D01*
X80635030Y-58328564D01*
X80659399Y-58336224D01*
X80675051Y-58341144D01*
X80675055Y-58341145D01*
X80776269Y-58343905D01*
X80776275Y-58343904D01*
X80776278Y-58343904D01*
X80845130Y-58332149D01*
X80845129Y-58332149D01*
X80845142Y-58332147D01*
X80915444Y-58309480D01*
X80917240Y-58308602D01*
X80918137Y-58308394D01*
X80919549Y-58307825D01*
X80919638Y-58308047D01*
X80971705Y-58296000D01*
X82229892Y-58296000D01*
X82296931Y-58315685D01*
X82312753Y-58327750D01*
X82317192Y-58331738D01*
X82337835Y-58348373D01*
X82427550Y-58395303D01*
X82427551Y-58395304D01*
X82477679Y-58410022D01*
X82494589Y-58414988D01*
X82494593Y-58414988D01*
X82494595Y-58414989D01*
X82506408Y-58416687D01*
X82567701Y-58425500D01*
X83915150Y-58425500D01*
X83982189Y-58445185D01*
X84002831Y-58461819D01*
X84540181Y-58999169D01*
X84573666Y-59060492D01*
X84576500Y-59086850D01*
X84576500Y-60074008D01*
X84582430Y-60129161D01*
X84593639Y-60180683D01*
X84600986Y-60207463D01*
X84618632Y-60238450D01*
X84651089Y-60295448D01*
X84658386Y-60303869D01*
X84696840Y-60348248D01*
X84696843Y-60348251D01*
X84696844Y-60348252D01*
X84730131Y-60380371D01*
X84819849Y-60427303D01*
X84886888Y-60446988D01*
X84886892Y-60446988D01*
X84886894Y-60446989D01*
X84898707Y-60448687D01*
X84960000Y-60457500D01*
X84960001Y-60457500D01*
X86235991Y-60457500D01*
X86236000Y-60457500D01*
X86291163Y-60451569D01*
X86342674Y-60440363D01*
X86369461Y-60433014D01*
X86457448Y-60382911D01*
X86510252Y-60337156D01*
X86542371Y-60303869D01*
X86589303Y-60214151D01*
X86608988Y-60147112D01*
X86619500Y-60074000D01*
X86619500Y-54734000D01*
X86613569Y-54678837D01*
X86602363Y-54627326D01*
X86595014Y-54600539D01*
X86595013Y-54600538D01*
X86595013Y-54600536D01*
X86567015Y-54551369D01*
X86544911Y-54512552D01*
X86499156Y-54459748D01*
X86465869Y-54427629D01*
X86376151Y-54380697D01*
X86376150Y-54380696D01*
X86376147Y-54380695D01*
X86309117Y-54361013D01*
X86309105Y-54361010D01*
X86236001Y-54350500D01*
X86236000Y-54350500D01*
X85426385Y-54350500D01*
X85359346Y-54330815D01*
X85313591Y-54278011D01*
X85303647Y-54208853D01*
X85332672Y-54145297D01*
X85338704Y-54138819D01*
X88186704Y-51290819D01*
X88248027Y-51257334D01*
X88274385Y-51254500D01*
X90401222Y-51254500D01*
X90401225Y-51254500D01*
X90498254Y-51228501D01*
X90585247Y-51178276D01*
X90656276Y-51107247D01*
X90656276Y-51107246D01*
X90986389Y-50777131D01*
X91047710Y-50743648D01*
X91110062Y-50746153D01*
X91240731Y-50785792D01*
X91440000Y-50805418D01*
X91639269Y-50785792D01*
X91830880Y-50727667D01*
X92007469Y-50633278D01*
X92162252Y-50506252D01*
X92289278Y-50351469D01*
X92383667Y-50174880D01*
X92441792Y-49983269D01*
X92461418Y-49784000D01*
X92441792Y-49584731D01*
X92383667Y-49393120D01*
X92320913Y-49275715D01*
X92289281Y-49216536D01*
X92289280Y-49216534D01*
X92289278Y-49216531D01*
X92174266Y-49076387D01*
X92162252Y-49061747D01*
X92081801Y-48995724D01*
X92007469Y-48934722D01*
X92007465Y-48934720D01*
X92007463Y-48934718D01*
X91830881Y-48840333D01*
X91639271Y-48782208D01*
X91440000Y-48762582D01*
X91240728Y-48782208D01*
X91049118Y-48840333D01*
X90872536Y-48934718D01*
X90717747Y-49061747D01*
X90590718Y-49216536D01*
X90496333Y-49393118D01*
X90438208Y-49584728D01*
X90418582Y-49784000D01*
X90438207Y-49983267D01*
X90477845Y-50113935D01*
X90478468Y-50183802D01*
X90446865Y-50237611D01*
X90229296Y-50455181D01*
X90167973Y-50488666D01*
X90141615Y-50491500D01*
X89881312Y-50491500D01*
X89814273Y-50471815D01*
X89768518Y-50419011D01*
X89758574Y-50349853D01*
X89771954Y-50309047D01*
X89819527Y-50220041D01*
X89843667Y-50174880D01*
X89901792Y-49983269D01*
X89921418Y-49784000D01*
X89901792Y-49584731D01*
X89843667Y-49393120D01*
X89780913Y-49275715D01*
X89749281Y-49216536D01*
X89749280Y-49216534D01*
X89749278Y-49216531D01*
X89634266Y-49076387D01*
X89622252Y-49061747D01*
X89541801Y-48995724D01*
X89467469Y-48934722D01*
X89467465Y-48934720D01*
X89467463Y-48934718D01*
X89290881Y-48840333D01*
X89099271Y-48782208D01*
X88900000Y-48762582D01*
X88700728Y-48782208D01*
X88509118Y-48840333D01*
X88332536Y-48934718D01*
X88177747Y-49061747D01*
X88050718Y-49216536D01*
X87956333Y-49393118D01*
X87898208Y-49584728D01*
X87898207Y-49584730D01*
X87885781Y-49710890D01*
X87859619Y-49775677D01*
X87850059Y-49786416D01*
X87575006Y-50061469D01*
X87513683Y-50094954D01*
X87443991Y-50089970D01*
X87388058Y-50048098D01*
X87363641Y-49982634D01*
X87363921Y-49961643D01*
X87381418Y-49784000D01*
X87361792Y-49584731D01*
X87303667Y-49393120D01*
X87240913Y-49275715D01*
X87209281Y-49216536D01*
X87209280Y-49216534D01*
X87209278Y-49216531D01*
X87094266Y-49076387D01*
X87082252Y-49061747D01*
X87001801Y-48995724D01*
X86927469Y-48934722D01*
X86927465Y-48934720D01*
X86927463Y-48934718D01*
X86750881Y-48840333D01*
X86559271Y-48782208D01*
X86360000Y-48762582D01*
X86160728Y-48782208D01*
X85969118Y-48840333D01*
X85792536Y-48934718D01*
X85637747Y-49061747D01*
X85510718Y-49216536D01*
X85416334Y-49393116D01*
X85416333Y-49393118D01*
X85410003Y-49413985D01*
X85371704Y-49472423D01*
X85366831Y-49476362D01*
X85363749Y-49478726D01*
X84220753Y-50621724D01*
X83698296Y-51144181D01*
X83636973Y-51177666D01*
X83610615Y-51180500D01*
X74646384Y-51180500D01*
X74579345Y-51160815D01*
X74558703Y-51144181D01*
X71869747Y-48455224D01*
X71423010Y-48008487D01*
X71389525Y-47947164D01*
X71391425Y-47886871D01*
X71392325Y-47883705D01*
X71392328Y-47883701D01*
X71448345Y-47686821D01*
X71467232Y-47483000D01*
X71448345Y-47279179D01*
X71392328Y-47082299D01*
X71301088Y-46899065D01*
X71177732Y-46735715D01*
X71177730Y-46735712D01*
X71026462Y-46597814D01*
X71026460Y-46597812D01*
X70852430Y-46490057D01*
X70852415Y-46490050D01*
X70775172Y-46460126D01*
X70719770Y-46417554D01*
X70696180Y-46351787D01*
X70711891Y-46283706D01*
X70761915Y-46234928D01*
X70819966Y-46220500D01*
X79178615Y-46220500D01*
X79245654Y-46240185D01*
X79291409Y-46292989D01*
X79301353Y-46362147D01*
X79272328Y-46425703D01*
X79266296Y-46432181D01*
X77161610Y-48536865D01*
X77100287Y-48570350D01*
X77037934Y-48567845D01*
X76907267Y-48528207D01*
X76708000Y-48508582D01*
X76508728Y-48528208D01*
X76317118Y-48586333D01*
X76140536Y-48680718D01*
X75985747Y-48807747D01*
X75858718Y-48962536D01*
X75764333Y-49139118D01*
X75706208Y-49330728D01*
X75686582Y-49530000D01*
X75706208Y-49729271D01*
X75764333Y-49920881D01*
X75858718Y-50097463D01*
X75858720Y-50097465D01*
X75858722Y-50097469D01*
X75907478Y-50156879D01*
X75985747Y-50252252D01*
X76051770Y-50306434D01*
X76140531Y-50379278D01*
X76140534Y-50379280D01*
X76140536Y-50379281D01*
X76214866Y-50419011D01*
X76317120Y-50473667D01*
X76508731Y-50531792D01*
X76708000Y-50551418D01*
X76907269Y-50531792D01*
X77098880Y-50473667D01*
X77275469Y-50379278D01*
X77430252Y-50252252D01*
X77557278Y-50097469D01*
X77651667Y-49920880D01*
X77709792Y-49729269D01*
X77729418Y-49530000D01*
X77709792Y-49330731D01*
X77670154Y-49200063D01*
X77669531Y-49130196D01*
X77701132Y-49076389D01*
X80012704Y-46764819D01*
X80074027Y-46731334D01*
X80100385Y-46728500D01*
X96175615Y-46728500D01*
X96242654Y-46748185D01*
X96263296Y-46764819D01*
X97880181Y-48381703D01*
X97913666Y-48443026D01*
X97916500Y-48469384D01*
X97916500Y-55670615D01*
X97896815Y-55737654D01*
X97880181Y-55758296D01*
X91064296Y-62574181D01*
X91002973Y-62607666D01*
X90976615Y-62610500D01*
X88341775Y-62610500D01*
X88244747Y-62636498D01*
X88244744Y-62636499D01*
X88157756Y-62686722D01*
X88157750Y-62686726D01*
X87605225Y-63239251D01*
X87605223Y-63239254D01*
X87554999Y-63326245D01*
X87554999Y-63326246D01*
X87529000Y-63423275D01*
X87529000Y-63423277D01*
X87529000Y-65396088D01*
X87509315Y-65463127D01*
X87492681Y-65483769D01*
X87429178Y-65547271D01*
X87429173Y-65547278D01*
X87385984Y-65632041D01*
X87338010Y-65682836D01*
X87270189Y-65699631D01*
X87204054Y-65677093D01*
X87165016Y-65632041D01*
X87130462Y-65564226D01*
X87121826Y-65547277D01*
X87121823Y-65547274D01*
X87121821Y-65547271D01*
X87079660Y-65505110D01*
X87046175Y-65443787D01*
X87051159Y-65374095D01*
X87068965Y-65341944D01*
X87098355Y-65303643D01*
X87154228Y-65168754D01*
X87173285Y-65024000D01*
X87154228Y-64879246D01*
X87098355Y-64744358D01*
X87009474Y-64628526D01*
X86893643Y-64539645D01*
X86893640Y-64539644D01*
X86893638Y-64539642D01*
X86758757Y-64483773D01*
X86758752Y-64483771D01*
X86614001Y-64464715D01*
X86613999Y-64464715D01*
X86469247Y-64483771D01*
X86469245Y-64483772D01*
X86334361Y-64539643D01*
X86334358Y-64539644D01*
X86334358Y-64539645D01*
X86218526Y-64628526D01*
X86134908Y-64737500D01*
X86129643Y-64744361D01*
X86073772Y-64879245D01*
X86073771Y-64879247D01*
X86054715Y-65023998D01*
X86054715Y-65024001D01*
X86073771Y-65168752D01*
X86073773Y-65168757D01*
X86129642Y-65303638D01*
X86129645Y-65303643D01*
X86182045Y-65371932D01*
X86207239Y-65437101D01*
X86193201Y-65505546D01*
X86171353Y-65535097D01*
X86159176Y-65547274D01*
X86159175Y-65547276D01*
X86159174Y-65547277D01*
X86150538Y-65564226D01*
X86101000Y-65661447D01*
X86086000Y-65756160D01*
X86086000Y-67469839D01*
X86101000Y-67564552D01*
X86101002Y-67564555D01*
X86159174Y-67678723D01*
X86159176Y-67678725D01*
X86159178Y-67678728D01*
X86249771Y-67769321D01*
X86249773Y-67769322D01*
X86249777Y-67769326D01*
X86363945Y-67827498D01*
X86363946Y-67827498D01*
X86363948Y-67827499D01*
X86363947Y-67827499D01*
X86458661Y-67842500D01*
X86458666Y-67842500D01*
X86822339Y-67842500D01*
X86917052Y-67827499D01*
X86917053Y-67827498D01*
X86917055Y-67827498D01*
X87031223Y-67769326D01*
X87121826Y-67678723D01*
X87165016Y-67593957D01*
X87212990Y-67543163D01*
X87280811Y-67526368D01*
X87346946Y-67548906D01*
X87385983Y-67593956D01*
X87429174Y-67678723D01*
X87429176Y-67678725D01*
X87429178Y-67678728D01*
X87519771Y-67769321D01*
X87519773Y-67769322D01*
X87519777Y-67769326D01*
X87633945Y-67827498D01*
X87633946Y-67827498D01*
X87633948Y-67827499D01*
X87633947Y-67827499D01*
X87728661Y-67842500D01*
X87728666Y-67842500D01*
X88092339Y-67842500D01*
X88187052Y-67827499D01*
X88187053Y-67827498D01*
X88187055Y-67827498D01*
X88301223Y-67769326D01*
X88391826Y-67678723D01*
X88449998Y-67564555D01*
X88449998Y-67564553D01*
X88449999Y-67564552D01*
X88465000Y-67469839D01*
X88465000Y-65756160D01*
X88449999Y-65661447D01*
X88449998Y-65661445D01*
X88391826Y-65547277D01*
X88391822Y-65547273D01*
X88391821Y-65547271D01*
X88328319Y-65483769D01*
X88294834Y-65422446D01*
X88292000Y-65396088D01*
X88292000Y-64861499D01*
X88311685Y-64794460D01*
X88364489Y-64748705D01*
X88415996Y-64737499D01*
X88745038Y-64737499D01*
X88812077Y-64757184D01*
X88857832Y-64809988D01*
X88867977Y-64877684D01*
X88848715Y-65023998D01*
X88848715Y-65024001D01*
X88867771Y-65168752D01*
X88867773Y-65168757D01*
X88923642Y-65303638D01*
X88923645Y-65303644D01*
X89012525Y-65419473D01*
X89012526Y-65419474D01*
X89128355Y-65508354D01*
X89128361Y-65508357D01*
X89149283Y-65517023D01*
X89263246Y-65564228D01*
X89389026Y-65580787D01*
X89452921Y-65609052D01*
X89460521Y-65616044D01*
X89859681Y-66015204D01*
X89893166Y-66076527D01*
X89896000Y-66102885D01*
X89896000Y-67469839D01*
X89911000Y-67564552D01*
X89911002Y-67564555D01*
X89969174Y-67678723D01*
X89969176Y-67678725D01*
X89969178Y-67678728D01*
X90059771Y-67769321D01*
X90059773Y-67769322D01*
X90059777Y-67769326D01*
X90173945Y-67827498D01*
X90173946Y-67827498D01*
X90173948Y-67827499D01*
X90173947Y-67827499D01*
X90268661Y-67842500D01*
X90268666Y-67842500D01*
X90632339Y-67842500D01*
X90727052Y-67827499D01*
X90727053Y-67827498D01*
X90727055Y-67827498D01*
X90841223Y-67769326D01*
X90931826Y-67678723D01*
X90989998Y-67564555D01*
X90989998Y-67564553D01*
X90989999Y-67564552D01*
X91005000Y-67469839D01*
X91005000Y-65756160D01*
X90989999Y-65661447D01*
X90989998Y-65661445D01*
X90931826Y-65547277D01*
X90931822Y-65547273D01*
X90931821Y-65547271D01*
X90841228Y-65456678D01*
X90841225Y-65456676D01*
X90841223Y-65456674D01*
X90727055Y-65398502D01*
X90727054Y-65398501D01*
X90727051Y-65398500D01*
X90727052Y-65398500D01*
X90632339Y-65383500D01*
X90632334Y-65383500D01*
X90358385Y-65383500D01*
X90291346Y-65363815D01*
X90270704Y-65347181D01*
X90000044Y-65076521D01*
X89966559Y-65015198D01*
X89964789Y-65005042D01*
X89948228Y-64879246D01*
X89892355Y-64744358D01*
X89803474Y-64628526D01*
X89687643Y-64539645D01*
X89687640Y-64539644D01*
X89687638Y-64539642D01*
X89552757Y-64483773D01*
X89552755Y-64483772D01*
X89552754Y-64483772D01*
X89539376Y-64482010D01*
X89475480Y-64453744D01*
X89437010Y-64395419D01*
X89432274Y-64345815D01*
X89437999Y-64292570D01*
X89437999Y-64292566D01*
X89438000Y-64292557D01*
X89437999Y-63723444D01*
X89431700Y-63664843D01*
X89385445Y-63540831D01*
X89380462Y-63471143D01*
X89413946Y-63409819D01*
X89475269Y-63376334D01*
X89501628Y-63373500D01*
X91236222Y-63373500D01*
X91236225Y-63373500D01*
X91333254Y-63347501D01*
X91420247Y-63297276D01*
X91491276Y-63226247D01*
X94034995Y-60682527D01*
X94096316Y-60649044D01*
X94166008Y-60654028D01*
X94221941Y-60695900D01*
X94246358Y-60761364D01*
X94246077Y-60782364D01*
X94228582Y-60959999D01*
X94248208Y-61159271D01*
X94306333Y-61350881D01*
X94400718Y-61527463D01*
X94400720Y-61527465D01*
X94400722Y-61527469D01*
X94438802Y-61573870D01*
X94527747Y-61682252D01*
X94575656Y-61721569D01*
X94682531Y-61809278D01*
X94682534Y-61809280D01*
X94682536Y-61809281D01*
X94850475Y-61899046D01*
X94859120Y-61903667D01*
X95050731Y-61961792D01*
X95250000Y-61981418D01*
X95449269Y-61961792D01*
X95579937Y-61922153D01*
X95649802Y-61921531D01*
X95703612Y-61953134D01*
X95921181Y-62170703D01*
X95954666Y-62232026D01*
X95957500Y-62258384D01*
X95957500Y-62518688D01*
X95937815Y-62585727D01*
X95885011Y-62631482D01*
X95815853Y-62641426D01*
X95775047Y-62628046D01*
X95640881Y-62556333D01*
X95449271Y-62498208D01*
X95250000Y-62478582D01*
X95050728Y-62498208D01*
X94859118Y-62556333D01*
X94682536Y-62650718D01*
X94527747Y-62777747D01*
X94400718Y-62932536D01*
X94306333Y-63109118D01*
X94248208Y-63300728D01*
X94228582Y-63500000D01*
X94248208Y-63699271D01*
X94306333Y-63890881D01*
X94400718Y-64067463D01*
X94400720Y-64067465D01*
X94400722Y-64067469D01*
X94461724Y-64141801D01*
X94527747Y-64222252D01*
X94605139Y-64285765D01*
X94682531Y-64349278D01*
X94802955Y-64413646D01*
X94852797Y-64462607D01*
X94868500Y-64523003D01*
X94868500Y-67100614D01*
X94848815Y-67167653D01*
X94832181Y-67188295D01*
X93909311Y-68111164D01*
X93909312Y-68111165D01*
X93855722Y-68164754D01*
X93805499Y-68251745D01*
X93805499Y-68251746D01*
X93779500Y-68348775D01*
X93779500Y-71351225D01*
X93794782Y-71408257D01*
X93805499Y-71448255D01*
X93805500Y-71448256D01*
X93833807Y-71497285D01*
X93850740Y-71526615D01*
X93855723Y-71535245D01*
X93855725Y-71535248D01*
X94256865Y-71936387D01*
X94290350Y-71997710D01*
X94287845Y-72060063D01*
X94248207Y-72190732D01*
X94228582Y-72390000D01*
X94248208Y-72589271D01*
X94306333Y-72780881D01*
X94400718Y-72957463D01*
X94400720Y-72957465D01*
X94400722Y-72957469D01*
X94461724Y-73031801D01*
X94527747Y-73112252D01*
X94593770Y-73166434D01*
X94682531Y-73239278D01*
X94682534Y-73239280D01*
X94682536Y-73239281D01*
X94790066Y-73296757D01*
X94859120Y-73333667D01*
X95050731Y-73391792D01*
X95250000Y-73411418D01*
X95449269Y-73391792D01*
X95640880Y-73333667D01*
X95817469Y-73239278D01*
X95972252Y-73112252D01*
X96099278Y-72957469D01*
X96193667Y-72780880D01*
X96251792Y-72589269D01*
X96271418Y-72390000D01*
X96251792Y-72190731D01*
X96193667Y-71999120D01*
X96189046Y-71990475D01*
X96099281Y-71822536D01*
X96099280Y-71822534D01*
X96099278Y-71822531D01*
X95980816Y-71678183D01*
X95972252Y-71667747D01*
X95867171Y-71581511D01*
X95817469Y-71540722D01*
X95817465Y-71540720D01*
X95817463Y-71540718D01*
X95640881Y-71446333D01*
X95449271Y-71388208D01*
X95250000Y-71368582D01*
X95050732Y-71388207D01*
X94920064Y-71427845D01*
X94850197Y-71428468D01*
X94796388Y-71396865D01*
X94578819Y-71179296D01*
X94545334Y-71117973D01*
X94542500Y-71091615D01*
X94542500Y-70831311D01*
X94562185Y-70764272D01*
X94614989Y-70718517D01*
X94684147Y-70708573D01*
X94724951Y-70721952D01*
X94859120Y-70793667D01*
X95050731Y-70851792D01*
X95250000Y-70871418D01*
X95449269Y-70851792D01*
X95640880Y-70793667D01*
X95817469Y-70699278D01*
X95972252Y-70572252D01*
X96099278Y-70417469D01*
X96193667Y-70240880D01*
X96251792Y-70049269D01*
X96271418Y-69850000D01*
X96251792Y-69650731D01*
X96212153Y-69520062D01*
X96211530Y-69450197D01*
X96243131Y-69396389D01*
X96563037Y-69076484D01*
X96563042Y-69076480D01*
X96573245Y-69066276D01*
X96573247Y-69066276D01*
X96644276Y-68995247D01*
X96691167Y-68914027D01*
X96694500Y-68908256D01*
X96694501Y-68908254D01*
X96694502Y-68908253D01*
X96720501Y-68811225D01*
X96720501Y-68710775D01*
X96720501Y-68703180D01*
X96720500Y-68703162D01*
X96720500Y-62109227D01*
X96720501Y-62109214D01*
X96720501Y-61998777D01*
X96720501Y-61998775D01*
X96694502Y-61901747D01*
X96652355Y-61828747D01*
X96644276Y-61814753D01*
X96644275Y-61814752D01*
X96644274Y-61814750D01*
X96568928Y-61739404D01*
X96568905Y-61739383D01*
X96243134Y-61413612D01*
X96209649Y-61352289D01*
X96212153Y-61289937D01*
X96251792Y-61159269D01*
X96271418Y-60960000D01*
X96251792Y-60760731D01*
X96193667Y-60569120D01*
X96130835Y-60451569D01*
X96099281Y-60392536D01*
X96099280Y-60392534D01*
X96099278Y-60392531D01*
X96019603Y-60295446D01*
X95972252Y-60237747D01*
X95890261Y-60170460D01*
X95817469Y-60110722D01*
X95817465Y-60110720D01*
X95817463Y-60110718D01*
X95640881Y-60016333D01*
X95449271Y-59958208D01*
X95250000Y-59938582D01*
X95072364Y-59956077D01*
X95003718Y-59943058D01*
X94953008Y-59894993D01*
X94936333Y-59827142D01*
X94958989Y-59761047D01*
X94972523Y-59744999D01*
X98347819Y-56369704D01*
X98409142Y-56336219D01*
X98478834Y-56341203D01*
X98534767Y-56383075D01*
X98559184Y-56448539D01*
X98559500Y-56457385D01*
X98559500Y-76195933D01*
X98559235Y-76204043D01*
X98542583Y-76458104D01*
X98540465Y-76474186D01*
X98491591Y-76719888D01*
X98487393Y-76735554D01*
X98406864Y-76972786D01*
X98400657Y-76987772D01*
X98289853Y-77212460D01*
X98281743Y-77226507D01*
X98142559Y-77434811D01*
X98132685Y-77447679D01*
X97967502Y-77636033D01*
X97956033Y-77647502D01*
X97767679Y-77812685D01*
X97754811Y-77822559D01*
X97546507Y-77961743D01*
X97532460Y-77969853D01*
X97307772Y-78080657D01*
X97292786Y-78086864D01*
X97055554Y-78167393D01*
X97039888Y-78171591D01*
X96794186Y-78220465D01*
X96778104Y-78222583D01*
X96524043Y-78239235D01*
X96515933Y-78239500D01*
X70781246Y-78239500D01*
X70714207Y-78219815D01*
X70668452Y-78167011D01*
X70658508Y-78097853D01*
X70687533Y-78034297D01*
X70736452Y-77999873D01*
X70852427Y-77954944D01*
X71026462Y-77847186D01*
X71177732Y-77709285D01*
X71301088Y-77545935D01*
X71392328Y-77362701D01*
X71448345Y-77165821D01*
X71467232Y-76962000D01*
X71448345Y-76758179D01*
X71392328Y-76561299D01*
X71301088Y-76378065D01*
X71177732Y-76214715D01*
X71177730Y-76214712D01*
X71114341Y-76156926D01*
X86646500Y-76156926D01*
X86646500Y-76751053D01*
X86646501Y-76751062D01*
X86652800Y-76809659D01*
X86702239Y-76942209D01*
X86702241Y-76942213D01*
X86702242Y-76942215D01*
X86787026Y-77055474D01*
X86900285Y-77140258D01*
X87032843Y-77189700D01*
X87091443Y-77196000D01*
X87660556Y-77195999D01*
X87719157Y-77189700D01*
X87851715Y-77140258D01*
X87964974Y-77055474D01*
X88049758Y-76942215D01*
X88059474Y-76916163D01*
X88101345Y-76860233D01*
X88166809Y-76835816D01*
X88175655Y-76835500D01*
X88862345Y-76835500D01*
X88929384Y-76855185D01*
X88975139Y-76907989D01*
X88978518Y-76916145D01*
X88988242Y-76942215D01*
X89073026Y-77055474D01*
X89186285Y-77140258D01*
X89318843Y-77189700D01*
X89377443Y-77196000D01*
X89946556Y-77195999D01*
X90005157Y-77189700D01*
X90137715Y-77140258D01*
X90250974Y-77055474D01*
X90335758Y-76942215D01*
X90345474Y-76916163D01*
X90387345Y-76860233D01*
X90452809Y-76835816D01*
X90461655Y-76835500D01*
X92667507Y-76835500D01*
X92734546Y-76855185D01*
X92780301Y-76907989D01*
X92783688Y-76916165D01*
X92788742Y-76929716D01*
X92788743Y-76929717D01*
X92873525Y-77042973D01*
X92873526Y-77042974D01*
X92986785Y-77127758D01*
X93119343Y-77177200D01*
X93177943Y-77183500D01*
X93872056Y-77183499D01*
X93930657Y-77177200D01*
X94063215Y-77127758D01*
X94176474Y-77042974D01*
X94261258Y-76929715D01*
X94310700Y-76797157D01*
X94314890Y-76758183D01*
X94316999Y-76738573D01*
X94316999Y-76738566D01*
X94317000Y-76738557D01*
X94316999Y-76169444D01*
X94310700Y-76110843D01*
X94296281Y-76072184D01*
X94261260Y-75978290D01*
X94261259Y-75978289D01*
X94261258Y-75978285D01*
X94176474Y-75865026D01*
X94063215Y-75780242D01*
X94010535Y-75760593D01*
X93930659Y-75730800D01*
X93872065Y-75724500D01*
X93177946Y-75724500D01*
X93177937Y-75724501D01*
X93119340Y-75730800D01*
X92986790Y-75780239D01*
X92986781Y-75780244D01*
X92873525Y-75865026D01*
X92788743Y-75978282D01*
X92788742Y-75978283D01*
X92783688Y-75991835D01*
X92741816Y-76047768D01*
X92676351Y-76072184D01*
X92667507Y-76072500D01*
X90461655Y-76072500D01*
X90394616Y-76052815D01*
X90348861Y-76000011D01*
X90345481Y-75991854D01*
X90335758Y-75965785D01*
X90250974Y-75852526D01*
X90137715Y-75767742D01*
X90085035Y-75748093D01*
X90005159Y-75718300D01*
X89946565Y-75712000D01*
X89377446Y-75712000D01*
X89377437Y-75712001D01*
X89318840Y-75718300D01*
X89186290Y-75767739D01*
X89186281Y-75767744D01*
X89073026Y-75852526D01*
X88988244Y-75965781D01*
X88988243Y-75965783D01*
X88988242Y-75965785D01*
X88978526Y-75991835D01*
X88936655Y-76047767D01*
X88871191Y-76072184D01*
X88862345Y-76072500D01*
X88175655Y-76072500D01*
X88108616Y-76052815D01*
X88062861Y-76000011D01*
X88059481Y-75991854D01*
X88049758Y-75965785D01*
X87964974Y-75852526D01*
X87851715Y-75767742D01*
X87799035Y-75748093D01*
X87719159Y-75718300D01*
X87660565Y-75712000D01*
X87091446Y-75712000D01*
X87091437Y-75712001D01*
X87032840Y-75718300D01*
X86900290Y-75767739D01*
X86900281Y-75767744D01*
X86787026Y-75852526D01*
X86702244Y-75965781D01*
X86702241Y-75965788D01*
X86652800Y-76098339D01*
X86652800Y-76098341D01*
X86646500Y-76156926D01*
X71114341Y-76156926D01*
X71026462Y-76076814D01*
X71026460Y-76076812D01*
X70852430Y-75969057D01*
X70852424Y-75969054D01*
X70701993Y-75910777D01*
X70661556Y-75895112D01*
X70460347Y-75857500D01*
X70255653Y-75857500D01*
X70054444Y-75895112D01*
X70054441Y-75895112D01*
X70054441Y-75895113D01*
X69863575Y-75969054D01*
X69863569Y-75969057D01*
X69689539Y-76076812D01*
X69689537Y-76076814D01*
X69538269Y-76214712D01*
X69414912Y-76378064D01*
X69323673Y-76561295D01*
X69267654Y-76758183D01*
X69248768Y-76961999D01*
X69248768Y-76962000D01*
X69267654Y-77165816D01*
X69267654Y-77165818D01*
X69267655Y-77165821D01*
X69276242Y-77196000D01*
X69323673Y-77362704D01*
X69414912Y-77545935D01*
X69538269Y-77709287D01*
X69689537Y-77847185D01*
X69689539Y-77847187D01*
X69863569Y-77954942D01*
X69863575Y-77954945D01*
X69979548Y-77999873D01*
X70034950Y-78042446D01*
X70058540Y-78108213D01*
X70042829Y-78176293D01*
X69992805Y-78225072D01*
X69934754Y-78239500D01*
X68584067Y-78239500D01*
X68575957Y-78239235D01*
X68321895Y-78222583D01*
X68305814Y-78220465D01*
X68270770Y-78213494D01*
X68060111Y-78171591D01*
X68044445Y-78167393D01*
X67807213Y-78086864D01*
X67792227Y-78080657D01*
X67567539Y-77969853D01*
X67553492Y-77961743D01*
X67382045Y-77847186D01*
X67345186Y-77822558D01*
X67332320Y-77812685D01*
X67143966Y-77647502D01*
X67132497Y-77636033D01*
X66967314Y-77447679D01*
X66957440Y-77434811D01*
X66818256Y-77226507D01*
X66810146Y-77212460D01*
X66798922Y-77189699D01*
X66699339Y-76987765D01*
X66693135Y-76972786D01*
X66678515Y-76929718D01*
X66671139Y-76907989D01*
X66612606Y-76735554D01*
X66608408Y-76719888D01*
X66599736Y-76676292D01*
X66559532Y-76474172D01*
X66557417Y-76458114D01*
X66542254Y-76226774D01*
X66540765Y-76204042D01*
X66540500Y-76195933D01*
X66540500Y-74421999D01*
X69248768Y-74421999D01*
X69248768Y-74422000D01*
X69267654Y-74625816D01*
X69323673Y-74822704D01*
X69414912Y-75005935D01*
X69538269Y-75169287D01*
X69689537Y-75307185D01*
X69689539Y-75307187D01*
X69863569Y-75414942D01*
X69863575Y-75414945D01*
X69904010Y-75430609D01*
X70054444Y-75488888D01*
X70255653Y-75526500D01*
X70255656Y-75526500D01*
X70460344Y-75526500D01*
X70460347Y-75526500D01*
X70661556Y-75488888D01*
X70852427Y-75414944D01*
X71026462Y-75307186D01*
X71177732Y-75169285D01*
X71301088Y-75005935D01*
X71392328Y-74822701D01*
X71448345Y-74625821D01*
X71467232Y-74422000D01*
X71467232Y-74421999D01*
X71788768Y-74421999D01*
X71788768Y-74422000D01*
X71807654Y-74625816D01*
X71863673Y-74822704D01*
X71954912Y-75005935D01*
X72078269Y-75169287D01*
X72229537Y-75307185D01*
X72229539Y-75307187D01*
X72403569Y-75414942D01*
X72403575Y-75414945D01*
X72444010Y-75430609D01*
X72594444Y-75488888D01*
X72795653Y-75526500D01*
X72795656Y-75526500D01*
X73000344Y-75526500D01*
X73000347Y-75526500D01*
X73201556Y-75488888D01*
X73392427Y-75414944D01*
X73566462Y-75307186D01*
X73717732Y-75169285D01*
X73841088Y-75005935D01*
X73932328Y-74822701D01*
X73988345Y-74625821D01*
X74007232Y-74422000D01*
X73988345Y-74218179D01*
X73932328Y-74021299D01*
X73841088Y-73838065D01*
X73769652Y-73743468D01*
X73717730Y-73674712D01*
X73566462Y-73536814D01*
X73566460Y-73536812D01*
X73392430Y-73429057D01*
X73392424Y-73429054D01*
X73203267Y-73355775D01*
X73201556Y-73355112D01*
X73000347Y-73317500D01*
X72795653Y-73317500D01*
X72594444Y-73355112D01*
X72594441Y-73355112D01*
X72594441Y-73355113D01*
X72403575Y-73429054D01*
X72403569Y-73429057D01*
X72229539Y-73536812D01*
X72229537Y-73536814D01*
X72078269Y-73674712D01*
X71954912Y-73838064D01*
X71863673Y-74021295D01*
X71863672Y-74021299D01*
X71813476Y-74197722D01*
X71807654Y-74218183D01*
X71788768Y-74421999D01*
X71467232Y-74421999D01*
X71448345Y-74218179D01*
X71392328Y-74021299D01*
X71301088Y-73838065D01*
X71229652Y-73743468D01*
X71177730Y-73674712D01*
X71026462Y-73536814D01*
X71026460Y-73536812D01*
X70852430Y-73429057D01*
X70852424Y-73429054D01*
X70663267Y-73355775D01*
X70661556Y-73355112D01*
X70460347Y-73317500D01*
X70255653Y-73317500D01*
X70054444Y-73355112D01*
X70054441Y-73355112D01*
X70054441Y-73355113D01*
X69863575Y-73429054D01*
X69863569Y-73429057D01*
X69689539Y-73536812D01*
X69689537Y-73536814D01*
X69538269Y-73674712D01*
X69414912Y-73838064D01*
X69323673Y-74021295D01*
X69323672Y-74021299D01*
X69273476Y-74197722D01*
X69267654Y-74218183D01*
X69248768Y-74421999D01*
X66540500Y-74421999D01*
X66540500Y-66801999D01*
X69248768Y-66801999D01*
X69248768Y-66802000D01*
X69267654Y-67005816D01*
X69323673Y-67202704D01*
X69414912Y-67385935D01*
X69538269Y-67549287D01*
X69689537Y-67687185D01*
X69689539Y-67687187D01*
X69863569Y-67794942D01*
X69863575Y-67794945D01*
X69904010Y-67810609D01*
X70054444Y-67868888D01*
X70255653Y-67906500D01*
X70255656Y-67906500D01*
X70460344Y-67906500D01*
X70460347Y-67906500D01*
X70661556Y-67868888D01*
X70852427Y-67794944D01*
X71026462Y-67687186D01*
X71177732Y-67549285D01*
X71301088Y-67385935D01*
X71392328Y-67202701D01*
X71448345Y-67005821D01*
X71467232Y-66802000D01*
X71448345Y-66598179D01*
X71392328Y-66401299D01*
X71301088Y-66218065D01*
X71177732Y-66054715D01*
X71177730Y-66054712D01*
X71026462Y-65916814D01*
X71026460Y-65916812D01*
X70852430Y-65809057D01*
X70852424Y-65809054D01*
X70675389Y-65740471D01*
X70661556Y-65735112D01*
X70460347Y-65697500D01*
X70255653Y-65697500D01*
X70054444Y-65735112D01*
X70054441Y-65735112D01*
X70054441Y-65735113D01*
X69863575Y-65809054D01*
X69863569Y-65809057D01*
X69689539Y-65916812D01*
X69689537Y-65916814D01*
X69538269Y-66054712D01*
X69414912Y-66218064D01*
X69323673Y-66401295D01*
X69267654Y-66598183D01*
X69248768Y-66801999D01*
X66540500Y-66801999D01*
X66540500Y-48264066D01*
X66540765Y-48255957D01*
X66544819Y-48194108D01*
X66557417Y-48001883D01*
X66559531Y-47985829D01*
X66608409Y-47740107D01*
X66612606Y-47724445D01*
X66664562Y-47571388D01*
X66693138Y-47487205D01*
X66699336Y-47472239D01*
X66810149Y-47247533D01*
X66818252Y-47233498D01*
X66957448Y-47025176D01*
X66967305Y-47012331D01*
X67132502Y-46823960D01*
X67143960Y-46812502D01*
X67332331Y-46647305D01*
X67345176Y-46637448D01*
X67553498Y-46498252D01*
X67567533Y-46490149D01*
X67792239Y-46379336D01*
X67807205Y-46373138D01*
X67974945Y-46316197D01*
X68044445Y-46292606D01*
X68060107Y-46288409D01*
X68305829Y-46239531D01*
X68321883Y-46237417D01*
X68554848Y-46222148D01*
X68575958Y-46220765D01*
X68584067Y-46220500D01*
X68645892Y-46220500D01*
X69896034Y-46220500D01*
X69963073Y-46240185D01*
G37*
%TD.AperFunction*%
%TA.AperFunction,Conductor*%
G36*
X71493154Y-49161685D02*
G01*
X71513796Y-49178319D01*
X74127383Y-51791905D01*
X74127393Y-51791916D01*
X74202754Y-51867277D01*
X74246249Y-51892388D01*
X74289746Y-51917501D01*
X74386775Y-51943500D01*
X74487225Y-51943500D01*
X82599616Y-51943500D01*
X82666655Y-51963185D01*
X82712410Y-52015989D01*
X82722354Y-52085147D01*
X82693329Y-52148703D01*
X82687298Y-52155179D01*
X80291107Y-54551369D01*
X79504312Y-55338164D01*
X79504311Y-55338165D01*
X77911176Y-56931299D01*
X77849853Y-56964784D01*
X77780161Y-56959800D01*
X77724228Y-56917928D01*
X77708933Y-56891068D01*
X77705243Y-56882160D01*
X77700355Y-56870358D01*
X77611474Y-56754526D01*
X77495643Y-56665645D01*
X77495640Y-56665644D01*
X77495638Y-56665642D01*
X77360757Y-56609773D01*
X77360752Y-56609771D01*
X77216001Y-56590715D01*
X77215999Y-56590715D01*
X77071247Y-56609771D01*
X77071242Y-56609773D01*
X77040952Y-56622320D01*
X76971483Y-56629789D01*
X76909004Y-56598514D01*
X76873352Y-56538425D01*
X76869500Y-56507759D01*
X76869500Y-56407359D01*
X76869500Y-56407354D01*
X76859461Y-56338450D01*
X76858617Y-56336724D01*
X76826223Y-56270461D01*
X76814463Y-56201588D01*
X76826223Y-56161539D01*
X76839847Y-56133672D01*
X76859461Y-56093550D01*
X76869500Y-56024646D01*
X76869500Y-55757354D01*
X76859461Y-55688450D01*
X76826222Y-55620460D01*
X76814463Y-55551588D01*
X76826223Y-55511539D01*
X76859460Y-55443552D01*
X76859459Y-55443552D01*
X76859461Y-55443550D01*
X76869500Y-55374646D01*
X76869500Y-55107354D01*
X76859461Y-55038450D01*
X76840099Y-54998844D01*
X76807500Y-54932160D01*
X76723839Y-54848499D01*
X76617553Y-54796540D01*
X76617551Y-54796539D01*
X76617550Y-54796539D01*
X76548646Y-54786500D01*
X76548640Y-54786500D01*
X75712384Y-54786500D01*
X75645345Y-54766815D01*
X75624703Y-54750181D01*
X71423010Y-50548487D01*
X71389525Y-50487164D01*
X71391425Y-50426871D01*
X71392325Y-50423705D01*
X71392328Y-50423701D01*
X71448345Y-50226821D01*
X71467232Y-50023000D01*
X71448345Y-49819179D01*
X71392328Y-49622299D01*
X71301088Y-49439065D01*
X71226827Y-49340727D01*
X71202135Y-49275365D01*
X71216700Y-49207031D01*
X71265898Y-49157418D01*
X71325781Y-49142000D01*
X71426115Y-49142000D01*
X71493154Y-49161685D01*
G37*
%TD.AperFunction*%
%TD*%
M02*
