M48
; DRILL file {KiCad 8.0.5} date 2024-10-31T23:20:11-0500
; FORMAT={-:-/ absolute / metric / decimal}
; #@! TF.CreationDate,2024-10-31T23:20:11-05:00
; #@! TF.GenerationSoftware,Kicad,Pcbnew,8.0.5
; #@! TF.FileFunction,Plated,1,2,PTH
FMAT,2
METRIC
; #@! TA.AperFunction,Plated,PTH,ViaDrill
T1C0.300
; #@! TA.AperFunction,Plated,PTH,ComponentDrill
T2C0.900
; #@! TA.AperFunction,Plated,PTH,ComponentDrill
T3C1.000
%
G90
G05
T1
X67.31Y-48.26
X67.31Y-67.31
X67.31Y-74.93
X72.39Y-54.61
X73.66Y-48.26
X73.795Y-56.529
X74.422Y-55.891
X76.2Y-53.34
X77.216Y-57.15
X77.47Y-59.69
X77.47Y-64.77
X79.129Y-59.182
X80.01Y-53.34
X80.391Y-58.547
X81.28Y-76.2
X81.596Y-62.168
X82.55Y-48.26
X82.781Y-56.541
X82.804Y-61.468
X83.566Y-57.15
X83.604Y-61.084
X85.09Y-60.96
X85.09Y-64.77
X86.614Y-65.024
X88.392Y-73.152
X88.9Y-68.58
X89.408Y-65.024
X89.916Y-73.152
X91.44Y-55.88
X91.44Y-60.96
X91.44Y-68.58
X91.44Y-77.47
X96.52Y-50.8
X96.52Y-55.88
X97.79Y-59.69
X97.79Y-73.66
T2
X76.708Y-49.53
X79.248Y-49.53
X86.36Y-49.784
X88.9Y-49.784
X91.44Y-49.784
X93.98Y-49.784
X93.98Y-49.784
X95.25Y-60.96
X95.25Y-63.5
X95.25Y-69.85
X95.25Y-72.39
T3
X70.358Y-47.483
X70.358Y-50.023
X70.358Y-52.563
X70.358Y-64.262
X70.358Y-66.802
X70.358Y-69.342
X70.358Y-71.882
X70.358Y-74.422
X70.358Y-76.962
X72.898Y-64.262
X72.898Y-66.802
X72.898Y-69.342
X72.898Y-71.882
X72.898Y-74.422
X72.898Y-76.962
X80.518Y-69.85
X80.518Y-72.39
M30
