%TF.GenerationSoftware,KiCad,Pcbnew,8.0.5*%
%TF.CreationDate,2024-10-31T22:43:36-05:00*%
%TF.ProjectId,STM_Breakout,53544d5f-4272-4656-916b-6f75742e6b69,rev?*%
%TF.SameCoordinates,Original*%
%TF.FileFunction,Copper,L2,Bot*%
%TF.FilePolarity,Positive*%
%FSLAX46Y46*%
G04 Gerber Fmt 4.6, Leading zero omitted, Abs format (unit mm)*
G04 Created by KiCad (PCBNEW 8.0.5) date 2024-10-31 22:43:36*
%MOMM*%
%LPD*%
G01*
G04 APERTURE LIST*
%TA.AperFunction,ComponentPad*%
%ADD10C,1.524000*%
%TD*%
%TA.AperFunction,ComponentPad*%
%ADD11R,1.700000X1.700000*%
%TD*%
%TA.AperFunction,ComponentPad*%
%ADD12O,1.700000X1.700000*%
%TD*%
%TA.AperFunction,ViaPad*%
%ADD13C,0.600000*%
%TD*%
%TA.AperFunction,Conductor*%
%ADD14C,0.200000*%
%TD*%
%TA.AperFunction,Conductor*%
%ADD15C,0.254000*%
%TD*%
G04 APERTURE END LIST*
D10*
%TO.P,Conn4,1*%
%TO.N,CANH*%
X95250000Y-69850000D03*
%TO.P,Conn4,2*%
%TO.N,CANL*%
X95250000Y-72390000D03*
%TD*%
D11*
%TO.P,JP2,1,A*%
%TO.N,/NRST*%
X80518000Y-69850000D03*
D12*
%TO.P,JP2,2,B*%
%TO.N,GND*%
X80518000Y-72390000D03*
%TD*%
D10*
%TO.P,Conn2,1*%
%TO.N,+5V*%
X76708000Y-49530000D03*
%TO.P,Conn2,2*%
%TO.N,GND*%
X79248000Y-49530000D03*
%TD*%
D11*
%TO.P,JP1,1,A*%
%TO.N,GND*%
X70358000Y-52563000D03*
D12*
%TO.P,JP1,2,C*%
%TO.N,/BOOT0*%
X70358000Y-50023000D03*
%TO.P,JP1,3,B*%
%TO.N,+3V3*%
X70358000Y-47483000D03*
%TD*%
D11*
%TO.P,J1,1,Pin_1*%
%TO.N,+3V3*%
X70358000Y-64262000D03*
D12*
%TO.P,J1,2,Pin_2*%
%TO.N,PF0*%
X72898000Y-64262000D03*
%TO.P,J1,3,Pin_3*%
%TO.N,PF1*%
X70358000Y-66802000D03*
%TO.P,J1,4,Pin_4*%
%TO.N,PA0*%
X72898000Y-66802000D03*
%TO.P,J1,5,Pin_5*%
%TO.N,PA1*%
X70358000Y-69342000D03*
%TO.P,J1,6,Pin_6*%
%TO.N,PA2*%
X72898000Y-69342000D03*
%TO.P,J1,7,Pin_7*%
%TO.N,PA3*%
X70358000Y-71882000D03*
%TO.P,J1,8,Pin_8*%
%TO.N,PA4*%
X72898000Y-71882000D03*
%TO.P,J1,9,Pin_9*%
%TO.N,PA5*%
X70358000Y-74422000D03*
%TO.P,J1,10,Pin_10*%
%TO.N,PA6*%
X72898000Y-74422000D03*
%TO.P,J1,11,Pin_11*%
%TO.N,PA7*%
X70358000Y-76962000D03*
%TO.P,J1,12,Pin_12*%
%TO.N,GND*%
X72898000Y-76962000D03*
%TD*%
D10*
%TO.P,Conn1,1*%
%TO.N,+3V3*%
X86360000Y-49784000D03*
%TO.P,Conn1,2*%
%TO.N,SWCLK*%
X88900000Y-49784000D03*
%TO.P,Conn1,3*%
%TO.N,SWDIO*%
X91440000Y-49784000D03*
%TO.P,Conn1,4*%
%TO.N,GND*%
X93980000Y-49784000D03*
X93980000Y-49784000D03*
%TD*%
%TO.P,Conn3,1*%
%TO.N,CANH*%
X95250000Y-60960000D03*
%TO.P,Conn3,2*%
%TO.N,CANL*%
X95250000Y-63500000D03*
%TD*%
D13*
%TO.N,GND*%
X88900000Y-68580000D03*
X97790000Y-73660000D03*
X80010000Y-53340000D03*
X72390000Y-54610000D03*
X91440000Y-77470000D03*
X77470000Y-64770000D03*
X85090000Y-64770000D03*
X82550000Y-48260000D03*
X91440000Y-60960000D03*
X80391000Y-58547000D03*
X76200000Y-53340000D03*
X81280000Y-76200000D03*
X77470000Y-59690000D03*
X73660000Y-48260000D03*
X85090000Y-60960000D03*
X67310000Y-74930000D03*
X96520000Y-55880000D03*
X97790000Y-59690000D03*
X96520000Y-50800000D03*
X67310000Y-48260000D03*
X67310000Y-67310000D03*
X91440000Y-68580000D03*
X91440000Y-55880000D03*
%TO.N,/NRST*%
X79129000Y-59182000D03*
X77216000Y-57150000D03*
%TO.N,CANH*%
X89916000Y-73152000D03*
%TO.N,CANL*%
X88392000Y-73152000D03*
%TO.N,PF1*%
X73795000Y-56529144D03*
%TO.N,PA5*%
X81596356Y-62167644D03*
%TO.N,PA6*%
X82804000Y-61468000D03*
%TO.N,PF0*%
X74422000Y-55891000D03*
%TO.N,PA7*%
X83603735Y-61084265D03*
%TO.N,CAN_TX*%
X83566000Y-57150000D03*
X89408000Y-65024000D03*
%TO.N,CAN_RX*%
X82781000Y-56541000D03*
X86614000Y-65024000D03*
%TD*%
D14*
%TO.N,/NRST*%
X79129000Y-59063000D02*
X77216000Y-57150000D01*
X79129000Y-59182000D02*
X79129000Y-59063000D01*
D15*
%TO.N,CANH*%
X93218000Y-73152000D02*
X94161000Y-72209000D01*
X94161000Y-71701000D02*
X95250000Y-70612000D01*
X95250000Y-70612000D02*
X95250000Y-69850000D01*
X94161000Y-72209000D02*
X94161000Y-71701000D01*
X89916000Y-73152000D02*
X93218000Y-73152000D01*
%TO.N,CANL*%
X90175712Y-73779000D02*
X89527000Y-73779000D01*
X88900000Y-73152000D02*
X88392000Y-73152000D01*
X90348712Y-73606000D02*
X90175712Y-73779000D01*
X95250000Y-72390000D02*
X94034000Y-73606000D01*
X94034000Y-73606000D02*
X90348712Y-73606000D01*
X89527000Y-73779000D02*
X88900000Y-73152000D01*
%TO.N,PF1*%
X73795000Y-56529144D02*
X71721000Y-58603144D01*
X71721000Y-65439000D02*
X70358000Y-66802000D01*
X71721000Y-58603144D02*
X71721000Y-65439000D01*
D14*
%TO.N,PA5*%
X81596356Y-65157958D02*
X73482314Y-73272000D01*
X73482314Y-73272000D02*
X71508000Y-73272000D01*
X71508000Y-73272000D02*
X70358000Y-74422000D01*
X81596356Y-62167644D02*
X81596356Y-65157958D01*
%TO.N,PA6*%
X82804000Y-61468000D02*
X82804000Y-64516000D01*
X82804000Y-64516000D02*
X72898000Y-74422000D01*
D15*
%TO.N,PF0*%
X74422000Y-55891000D02*
X74422000Y-56896000D01*
X72898000Y-58420000D02*
X72898000Y-64262000D01*
X74422000Y-56896000D02*
X72898000Y-58420000D01*
D14*
%TO.N,PA7*%
X83603735Y-64281951D02*
X74048000Y-73837686D01*
X71508000Y-75812000D02*
X70358000Y-76962000D01*
X83603735Y-61084265D02*
X83603735Y-64281951D01*
X74048000Y-73837686D02*
X74048000Y-74898346D01*
X74048000Y-74898346D02*
X73134346Y-75812000D01*
X73134346Y-75812000D02*
X71508000Y-75812000D01*
D15*
%TO.N,CAN_TX*%
X83566000Y-57150000D02*
X89408000Y-62992000D01*
X89408000Y-62992000D02*
X89408000Y-65024000D01*
%TO.N,CAN_RX*%
X86614000Y-61214000D02*
X86614000Y-62350233D01*
X87512248Y-62830233D02*
X87512248Y-62950233D01*
X82781000Y-57381000D02*
X86614000Y-61214000D01*
X86854000Y-62590233D02*
X87272248Y-62590233D01*
X86614000Y-63430233D02*
X86614000Y-63550233D01*
X82781000Y-56541000D02*
X82781000Y-57381000D01*
X86614000Y-63550233D02*
X86614000Y-65024000D01*
X87272248Y-63190233D02*
X86854000Y-63190233D01*
X87272248Y-62590233D02*
G75*
G02*
X87512167Y-62830233I-48J-239967D01*
G01*
X87512248Y-62950233D02*
G75*
G02*
X87272248Y-63190248I-240048J33D01*
G01*
X86854000Y-63190233D02*
G75*
G03*
X86614033Y-63430233I0J-239967D01*
G01*
X86614000Y-62350233D02*
G75*
G03*
X86854000Y-62590200I240000J33D01*
G01*
%TD*%
%TA.AperFunction,Conductor*%
%TO.N,GND*%
G36*
X69963073Y-46240185D02*
G01*
X70008828Y-46292989D01*
X70018772Y-46362147D01*
X69989747Y-46425703D01*
X69940828Y-46460126D01*
X69863584Y-46490050D01*
X69863569Y-46490057D01*
X69689539Y-46597812D01*
X69689537Y-46597814D01*
X69538269Y-46735712D01*
X69414912Y-46899064D01*
X69323673Y-47082295D01*
X69267654Y-47279183D01*
X69248768Y-47482999D01*
X69248768Y-47483000D01*
X69267654Y-47686816D01*
X69267654Y-47686818D01*
X69267655Y-47686821D01*
X69295222Y-47783708D01*
X69323673Y-47883704D01*
X69414912Y-48066935D01*
X69538269Y-48230287D01*
X69689537Y-48368185D01*
X69689539Y-48368187D01*
X69863569Y-48475942D01*
X69863575Y-48475945D01*
X69904010Y-48491609D01*
X70054444Y-48549888D01*
X70255653Y-48587500D01*
X70255656Y-48587500D01*
X70460344Y-48587500D01*
X70460347Y-48587500D01*
X70661556Y-48549888D01*
X70852427Y-48475944D01*
X71026462Y-48368186D01*
X71177732Y-48230285D01*
X71301088Y-48066935D01*
X71392328Y-47883701D01*
X71448345Y-47686821D01*
X71467232Y-47483000D01*
X71448345Y-47279179D01*
X71392328Y-47082299D01*
X71301088Y-46899065D01*
X71177732Y-46735715D01*
X71177730Y-46735712D01*
X71026462Y-46597814D01*
X71026460Y-46597812D01*
X70852430Y-46490057D01*
X70852415Y-46490050D01*
X70775172Y-46460126D01*
X70719770Y-46417554D01*
X70696180Y-46351787D01*
X70711891Y-46283706D01*
X70761915Y-46234928D01*
X70819966Y-46220500D01*
X96454108Y-46220500D01*
X96515933Y-46220500D01*
X96524042Y-46220765D01*
X96546774Y-46222254D01*
X96778114Y-46237417D01*
X96794172Y-46239532D01*
X97039888Y-46288408D01*
X97055554Y-46292606D01*
X97206736Y-46343925D01*
X97292788Y-46373136D01*
X97307765Y-46379339D01*
X97525336Y-46486633D01*
X97532460Y-46490146D01*
X97546508Y-46498256D01*
X97754815Y-46637443D01*
X97767679Y-46647314D01*
X97956033Y-46812497D01*
X97967502Y-46823966D01*
X98132685Y-47012320D01*
X98142559Y-47025188D01*
X98281743Y-47233492D01*
X98289853Y-47247539D01*
X98400657Y-47472227D01*
X98406864Y-47487213D01*
X98487393Y-47724445D01*
X98491591Y-47740111D01*
X98540465Y-47985813D01*
X98542583Y-48001895D01*
X98559235Y-48255956D01*
X98559500Y-48264066D01*
X98559500Y-76195933D01*
X98559235Y-76204043D01*
X98542583Y-76458104D01*
X98540465Y-76474186D01*
X98491591Y-76719888D01*
X98487393Y-76735554D01*
X98406864Y-76972786D01*
X98400657Y-76987772D01*
X98289853Y-77212460D01*
X98281743Y-77226507D01*
X98142559Y-77434811D01*
X98132685Y-77447679D01*
X97967502Y-77636033D01*
X97956033Y-77647502D01*
X97767679Y-77812685D01*
X97754811Y-77822559D01*
X97546507Y-77961743D01*
X97532460Y-77969853D01*
X97307772Y-78080657D01*
X97292786Y-78086864D01*
X97055554Y-78167393D01*
X97039888Y-78171591D01*
X96794186Y-78220465D01*
X96778104Y-78222583D01*
X96524043Y-78239235D01*
X96515933Y-78239500D01*
X70781246Y-78239500D01*
X70714207Y-78219815D01*
X70668452Y-78167011D01*
X70658508Y-78097853D01*
X70687533Y-78034297D01*
X70736452Y-77999873D01*
X70852427Y-77954944D01*
X71026462Y-77847186D01*
X71177732Y-77709285D01*
X71301088Y-77545935D01*
X71392328Y-77362701D01*
X71448345Y-77165821D01*
X71467232Y-76962000D01*
X71448345Y-76758179D01*
X71392328Y-76561299D01*
X71388121Y-76552851D01*
X71375859Y-76484068D01*
X71402731Y-76419572D01*
X71411420Y-76409918D01*
X71618521Y-76202816D01*
X71679843Y-76169334D01*
X71706201Y-76166500D01*
X73181015Y-76166500D01*
X73181017Y-76166500D01*
X73271178Y-76142341D01*
X73352014Y-76095671D01*
X74331671Y-75116014D01*
X74346327Y-75090629D01*
X74378341Y-75035178D01*
X74402500Y-74945017D01*
X74402500Y-74035886D01*
X74422185Y-73968847D01*
X74438814Y-73948210D01*
X75235026Y-73151998D01*
X87832715Y-73151998D01*
X87832715Y-73152001D01*
X87851771Y-73296752D01*
X87851773Y-73296757D01*
X87907642Y-73431638D01*
X87907645Y-73431644D01*
X87996525Y-73547473D01*
X87996526Y-73547474D01*
X88112355Y-73636354D01*
X88112361Y-73636357D01*
X88176244Y-73662818D01*
X88247246Y-73692228D01*
X88298602Y-73698989D01*
X88391999Y-73711285D01*
X88392000Y-73711285D01*
X88392001Y-73711285D01*
X88485398Y-73698989D01*
X88536754Y-73692228D01*
X88671643Y-73636355D01*
X88683364Y-73627360D01*
X88748532Y-73602166D01*
X88816977Y-73616203D01*
X88846532Y-73638055D01*
X89292753Y-74084276D01*
X89379747Y-74134502D01*
X89476775Y-74160500D01*
X89476777Y-74160500D01*
X90225934Y-74160500D01*
X90225937Y-74160500D01*
X90322966Y-74134501D01*
X90409959Y-74084276D01*
X90470416Y-74023819D01*
X90531739Y-73990334D01*
X90558097Y-73987500D01*
X94084222Y-73987500D01*
X94084225Y-73987500D01*
X94181254Y-73961501D01*
X94268247Y-73911276D01*
X94339276Y-73840247D01*
X94796389Y-73383132D01*
X94857710Y-73349649D01*
X94920063Y-73352154D01*
X95050731Y-73391792D01*
X95250000Y-73411418D01*
X95449269Y-73391792D01*
X95640880Y-73333667D01*
X95817469Y-73239278D01*
X95972252Y-73112252D01*
X96099278Y-72957469D01*
X96193667Y-72780880D01*
X96251792Y-72589269D01*
X96271418Y-72390000D01*
X96251792Y-72190731D01*
X96193667Y-71999120D01*
X96131065Y-71882000D01*
X96099281Y-71822536D01*
X96099280Y-71822534D01*
X96099278Y-71822531D01*
X95980816Y-71678183D01*
X95972252Y-71667747D01*
X95891801Y-71601724D01*
X95817469Y-71540722D01*
X95817465Y-71540720D01*
X95817463Y-71540718D01*
X95640881Y-71446333D01*
X95449271Y-71388208D01*
X95313313Y-71374817D01*
X95248526Y-71348656D01*
X95208168Y-71291621D01*
X95205051Y-71221821D01*
X95237785Y-71163735D01*
X95484244Y-70917277D01*
X95484247Y-70917276D01*
X95555276Y-70846247D01*
X95555278Y-70846242D01*
X95557633Y-70843175D01*
X95560283Y-70841239D01*
X95561024Y-70840499D01*
X95561139Y-70840614D01*
X95614059Y-70801969D01*
X95620020Y-70799995D01*
X95631351Y-70796557D01*
X95640880Y-70793667D01*
X95817469Y-70699278D01*
X95972252Y-70572252D01*
X96099278Y-70417469D01*
X96193667Y-70240880D01*
X96251792Y-70049269D01*
X96271418Y-69850000D01*
X96251792Y-69650731D01*
X96193667Y-69459120D01*
X96131065Y-69342000D01*
X96099281Y-69282536D01*
X96099280Y-69282534D01*
X96099278Y-69282531D01*
X95996015Y-69156703D01*
X95972252Y-69127747D01*
X95891801Y-69061724D01*
X95817469Y-69000722D01*
X95817465Y-69000720D01*
X95817463Y-69000718D01*
X95640881Y-68906333D01*
X95449271Y-68848208D01*
X95250000Y-68828582D01*
X95050728Y-68848208D01*
X94859118Y-68906333D01*
X94682536Y-69000718D01*
X94527747Y-69127747D01*
X94400718Y-69282536D01*
X94306333Y-69459118D01*
X94248208Y-69650728D01*
X94228582Y-69850000D01*
X94248208Y-70049271D01*
X94306333Y-70240881D01*
X94400718Y-70417463D01*
X94400720Y-70417465D01*
X94400722Y-70417469D01*
X94527748Y-70572252D01*
X94544183Y-70585740D01*
X94583518Y-70643483D01*
X94585391Y-70713327D01*
X94553201Y-70769275D01*
X93909311Y-71413164D01*
X93909312Y-71413165D01*
X93855722Y-71466754D01*
X93805499Y-71553745D01*
X93805499Y-71553746D01*
X93779500Y-71650775D01*
X93779500Y-71650777D01*
X93779500Y-71999615D01*
X93759815Y-72066654D01*
X93743181Y-72087296D01*
X93096296Y-72734181D01*
X93034973Y-72767666D01*
X93008615Y-72770500D01*
X90371777Y-72770500D01*
X90304738Y-72750815D01*
X90296290Y-72744875D01*
X90195644Y-72667645D01*
X90195638Y-72667642D01*
X90060757Y-72611773D01*
X90060752Y-72611771D01*
X89916001Y-72592715D01*
X89915999Y-72592715D01*
X89771247Y-72611771D01*
X89771245Y-72611772D01*
X89636361Y-72667643D01*
X89636358Y-72667644D01*
X89636358Y-72667645D01*
X89520526Y-72756526D01*
X89451316Y-72846723D01*
X89431643Y-72872361D01*
X89423063Y-72893074D01*
X89379220Y-72947476D01*
X89312925Y-72969539D01*
X89245226Y-72952258D01*
X89220822Y-72933299D01*
X89134248Y-72846725D01*
X89134247Y-72846724D01*
X89047254Y-72796499D01*
X89047255Y-72796499D01*
X89021219Y-72789523D01*
X88950225Y-72770500D01*
X88950222Y-72770500D01*
X88847777Y-72770500D01*
X88780738Y-72750815D01*
X88772290Y-72744875D01*
X88671644Y-72667645D01*
X88671638Y-72667642D01*
X88536757Y-72611773D01*
X88536752Y-72611771D01*
X88392001Y-72592715D01*
X88391999Y-72592715D01*
X88247247Y-72611771D01*
X88247245Y-72611772D01*
X88112361Y-72667643D01*
X88112358Y-72667644D01*
X88112358Y-72667645D01*
X87996526Y-72756526D01*
X87927316Y-72846723D01*
X87907643Y-72872361D01*
X87851772Y-73007245D01*
X87851771Y-73007247D01*
X87832715Y-73151998D01*
X75235026Y-73151998D01*
X79201821Y-69185202D01*
X79263142Y-69151719D01*
X79332834Y-69156703D01*
X79388767Y-69198575D01*
X79413184Y-69264039D01*
X79413500Y-69272885D01*
X79413500Y-70725063D01*
X79428266Y-70799301D01*
X79484515Y-70883484D01*
X79492856Y-70889057D01*
X79568699Y-70939734D01*
X79568702Y-70939734D01*
X79568703Y-70939735D01*
X79593666Y-70944700D01*
X79642933Y-70954500D01*
X81393066Y-70954499D01*
X81467301Y-70939734D01*
X81551484Y-70883484D01*
X81607734Y-70799301D01*
X81622500Y-70725067D01*
X81622499Y-68974934D01*
X81607734Y-68900699D01*
X81572660Y-68848208D01*
X81551484Y-68816515D01*
X81501019Y-68782796D01*
X81467301Y-68760266D01*
X81467299Y-68760265D01*
X81467296Y-68760264D01*
X81393071Y-68745500D01*
X79940885Y-68745500D01*
X79873846Y-68725815D01*
X79828091Y-68673011D01*
X79818147Y-68603853D01*
X79847172Y-68540297D01*
X79853189Y-68533834D01*
X83887406Y-64499619D01*
X83934076Y-64418783D01*
X83958235Y-64328622D01*
X83958235Y-64235280D01*
X83958235Y-61572076D01*
X83977920Y-61505037D01*
X83994554Y-61484395D01*
X83999204Y-61479744D01*
X83999206Y-61479741D01*
X83999209Y-61479739D01*
X84088090Y-61363908D01*
X84143963Y-61229019D01*
X84163020Y-61084265D01*
X84143963Y-60939511D01*
X84088090Y-60804623D01*
X83999209Y-60688791D01*
X83883378Y-60599910D01*
X83883375Y-60599909D01*
X83883373Y-60599907D01*
X83748492Y-60544038D01*
X83748487Y-60544036D01*
X83603736Y-60524980D01*
X83603734Y-60524980D01*
X83458982Y-60544036D01*
X83458980Y-60544037D01*
X83324096Y-60599908D01*
X83208261Y-60688791D01*
X83119377Y-60804626D01*
X83119376Y-60804629D01*
X83098033Y-60856155D01*
X83054192Y-60910558D01*
X82987897Y-60932622D01*
X82951380Y-60928476D01*
X82948752Y-60927771D01*
X82804001Y-60908715D01*
X82803999Y-60908715D01*
X82659247Y-60927771D01*
X82659245Y-60927772D01*
X82524361Y-60983643D01*
X82408526Y-61072526D01*
X82319643Y-61188361D01*
X82263772Y-61323245D01*
X82263771Y-61323247D01*
X82244715Y-61467998D01*
X82244715Y-61468001D01*
X82263771Y-61612752D01*
X82263773Y-61612757D01*
X82319642Y-61747638D01*
X82319642Y-61747639D01*
X82319644Y-61747642D01*
X82319645Y-61747643D01*
X82358764Y-61798624D01*
X82408530Y-61863479D01*
X82413181Y-61868130D01*
X82446666Y-61929453D01*
X82449500Y-61955811D01*
X82449500Y-64317799D01*
X82429815Y-64384838D01*
X82413181Y-64405480D01*
X82162537Y-64656124D01*
X82101214Y-64689609D01*
X82031522Y-64684625D01*
X81975589Y-64642753D01*
X81951172Y-64577289D01*
X81950856Y-64568443D01*
X81950856Y-62655455D01*
X81970541Y-62588416D01*
X81987175Y-62567774D01*
X81991825Y-62563123D01*
X81991827Y-62563120D01*
X81991830Y-62563118D01*
X82080711Y-62447287D01*
X82136584Y-62312398D01*
X82155641Y-62167644D01*
X82136584Y-62022890D01*
X82080711Y-61888002D01*
X81991830Y-61772170D01*
X81875999Y-61683289D01*
X81875996Y-61683288D01*
X81875994Y-61683286D01*
X81741113Y-61627417D01*
X81741108Y-61627415D01*
X81596357Y-61608359D01*
X81596355Y-61608359D01*
X81451603Y-61627415D01*
X81451601Y-61627416D01*
X81316717Y-61683287D01*
X81316714Y-61683288D01*
X81316714Y-61683289D01*
X81200882Y-61772170D01*
X81127250Y-61868130D01*
X81111999Y-61888005D01*
X81056128Y-62022889D01*
X81056127Y-62022891D01*
X81037071Y-62167642D01*
X81037071Y-62167645D01*
X81056127Y-62312396D01*
X81056129Y-62312401D01*
X81111998Y-62447282D01*
X81111998Y-62447283D01*
X81200886Y-62563123D01*
X81205537Y-62567774D01*
X81239022Y-62629097D01*
X81241856Y-62655455D01*
X81241856Y-64959756D01*
X81222171Y-65026795D01*
X81205537Y-65047437D01*
X74212923Y-72040050D01*
X74151600Y-72073535D01*
X74081908Y-72068551D01*
X74025975Y-72026679D01*
X74001558Y-71961215D01*
X74001770Y-71940933D01*
X74007232Y-71882000D01*
X73988345Y-71678179D01*
X73932328Y-71481299D01*
X73841088Y-71298065D01*
X73781904Y-71219693D01*
X73717730Y-71134712D01*
X73566462Y-70996814D01*
X73566460Y-70996812D01*
X73392430Y-70889057D01*
X73392424Y-70889054D01*
X73241993Y-70830777D01*
X73201556Y-70815112D01*
X73000347Y-70777500D01*
X72795653Y-70777500D01*
X72594444Y-70815112D01*
X72594441Y-70815112D01*
X72594441Y-70815113D01*
X72403575Y-70889054D01*
X72403569Y-70889057D01*
X72229539Y-70996812D01*
X72229537Y-70996814D01*
X72078269Y-71134712D01*
X71954912Y-71298064D01*
X71863673Y-71481295D01*
X71807654Y-71678183D01*
X71788768Y-71881999D01*
X71788768Y-71882000D01*
X71807654Y-72085816D01*
X71807654Y-72085818D01*
X71807655Y-72085821D01*
X71863672Y-72282701D01*
X71863673Y-72282704D01*
X71954912Y-72465935D01*
X72078269Y-72629287D01*
X72157882Y-72701863D01*
X72194164Y-72761574D01*
X72192403Y-72831421D01*
X72153160Y-72889229D01*
X72088893Y-72916644D01*
X72074344Y-72917500D01*
X71461329Y-72917500D01*
X71402367Y-72933299D01*
X71371167Y-72941659D01*
X71293500Y-72986500D01*
X71293499Y-72986499D01*
X71290335Y-72988326D01*
X71290330Y-72988330D01*
X70907524Y-73371135D01*
X70846201Y-73404620D01*
X70776509Y-73399636D01*
X70775087Y-73399094D01*
X70661556Y-73355112D01*
X70460347Y-73317500D01*
X70255653Y-73317500D01*
X70054444Y-73355112D01*
X70054441Y-73355112D01*
X70054441Y-73355113D01*
X69863575Y-73429054D01*
X69863569Y-73429057D01*
X69689539Y-73536812D01*
X69689537Y-73536814D01*
X69538269Y-73674712D01*
X69414912Y-73838064D01*
X69323673Y-74021295D01*
X69267654Y-74218183D01*
X69248768Y-74421999D01*
X69248768Y-74422000D01*
X69267654Y-74625816D01*
X69323673Y-74822704D01*
X69414912Y-75005935D01*
X69538269Y-75169287D01*
X69689537Y-75307185D01*
X69689539Y-75307187D01*
X69863569Y-75414942D01*
X69863575Y-75414945D01*
X69900447Y-75429229D01*
X70054444Y-75488888D01*
X70255653Y-75526500D01*
X70255656Y-75526500D01*
X70460344Y-75526500D01*
X70460347Y-75526500D01*
X70661556Y-75488888D01*
X70852427Y-75414944D01*
X71026462Y-75307186D01*
X71177732Y-75169285D01*
X71301088Y-75005935D01*
X71392328Y-74822701D01*
X71448345Y-74625821D01*
X71467232Y-74422000D01*
X71448345Y-74218179D01*
X71392328Y-74021299D01*
X71388121Y-74012851D01*
X71375859Y-73944068D01*
X71402731Y-73879572D01*
X71411420Y-73869918D01*
X71618521Y-73662816D01*
X71679843Y-73629334D01*
X71706201Y-73626500D01*
X71865653Y-73626500D01*
X71932692Y-73646185D01*
X71978447Y-73698989D01*
X71988391Y-73768147D01*
X71964606Y-73825228D01*
X71954912Y-73838063D01*
X71863673Y-74021295D01*
X71807654Y-74218183D01*
X71788768Y-74421999D01*
X71788768Y-74422000D01*
X71807654Y-74625816D01*
X71863673Y-74822704D01*
X71954912Y-75005935D01*
X72078269Y-75169287D01*
X72157882Y-75241863D01*
X72194164Y-75301574D01*
X72192403Y-75371421D01*
X72153160Y-75429229D01*
X72088893Y-75456644D01*
X72074344Y-75457500D01*
X71461329Y-75457500D01*
X71401221Y-75473606D01*
X71371167Y-75481659D01*
X71293500Y-75526500D01*
X71293499Y-75526499D01*
X71290335Y-75528326D01*
X71290330Y-75528330D01*
X70907524Y-75911135D01*
X70846201Y-75944620D01*
X70776509Y-75939636D01*
X70775087Y-75939094D01*
X70661556Y-75895112D01*
X70460347Y-75857500D01*
X70255653Y-75857500D01*
X70054444Y-75895112D01*
X70054441Y-75895112D01*
X70054441Y-75895113D01*
X69863575Y-75969054D01*
X69863569Y-75969057D01*
X69689539Y-76076812D01*
X69689537Y-76076814D01*
X69538269Y-76214712D01*
X69414912Y-76378064D01*
X69323673Y-76561295D01*
X69267654Y-76758183D01*
X69248768Y-76961999D01*
X69248768Y-76962000D01*
X69267654Y-77165816D01*
X69323673Y-77362704D01*
X69414912Y-77545935D01*
X69538269Y-77709287D01*
X69689537Y-77847185D01*
X69689539Y-77847187D01*
X69863569Y-77954942D01*
X69863575Y-77954945D01*
X69979548Y-77999873D01*
X70034950Y-78042446D01*
X70058540Y-78108213D01*
X70042829Y-78176293D01*
X69992805Y-78225072D01*
X69934754Y-78239500D01*
X68584067Y-78239500D01*
X68575957Y-78239235D01*
X68321895Y-78222583D01*
X68305814Y-78220465D01*
X68270770Y-78213494D01*
X68060111Y-78171591D01*
X68044445Y-78167393D01*
X67807213Y-78086864D01*
X67792227Y-78080657D01*
X67567539Y-77969853D01*
X67553492Y-77961743D01*
X67382045Y-77847186D01*
X67345186Y-77822558D01*
X67332320Y-77812685D01*
X67143966Y-77647502D01*
X67132497Y-77636033D01*
X66967314Y-77447679D01*
X66957440Y-77434811D01*
X66818256Y-77226507D01*
X66810146Y-77212460D01*
X66699464Y-76988019D01*
X66699339Y-76987765D01*
X66693135Y-76972786D01*
X66612606Y-76735554D01*
X66608408Y-76719888D01*
X66599736Y-76676292D01*
X66559532Y-76474172D01*
X66557417Y-76458114D01*
X66542254Y-76226774D01*
X66540765Y-76204042D01*
X66540500Y-76195933D01*
X66540500Y-71881999D01*
X69248768Y-71881999D01*
X69248768Y-71882000D01*
X69267654Y-72085816D01*
X69267654Y-72085818D01*
X69267655Y-72085821D01*
X69323672Y-72282701D01*
X69323673Y-72282704D01*
X69414912Y-72465935D01*
X69538269Y-72629287D01*
X69689537Y-72767185D01*
X69689539Y-72767187D01*
X69863569Y-72874942D01*
X69863575Y-72874945D01*
X69887070Y-72884047D01*
X70054444Y-72948888D01*
X70255653Y-72986500D01*
X70255656Y-72986500D01*
X70460344Y-72986500D01*
X70460347Y-72986500D01*
X70661556Y-72948888D01*
X70852427Y-72874944D01*
X71026462Y-72767186D01*
X71177732Y-72629285D01*
X71301088Y-72465935D01*
X71392328Y-72282701D01*
X71448345Y-72085821D01*
X71467232Y-71882000D01*
X71448345Y-71678179D01*
X71392328Y-71481299D01*
X71301088Y-71298065D01*
X71241904Y-71219693D01*
X71177730Y-71134712D01*
X71026462Y-70996814D01*
X71026460Y-70996812D01*
X70852430Y-70889057D01*
X70852424Y-70889054D01*
X70701993Y-70830777D01*
X70661556Y-70815112D01*
X70460347Y-70777500D01*
X70255653Y-70777500D01*
X70054444Y-70815112D01*
X70054441Y-70815112D01*
X70054441Y-70815113D01*
X69863575Y-70889054D01*
X69863569Y-70889057D01*
X69689539Y-70996812D01*
X69689537Y-70996814D01*
X69538269Y-71134712D01*
X69414912Y-71298064D01*
X69323673Y-71481295D01*
X69267654Y-71678183D01*
X69248768Y-71881999D01*
X66540500Y-71881999D01*
X66540500Y-69341999D01*
X69248768Y-69341999D01*
X69248768Y-69342000D01*
X69267654Y-69545816D01*
X69267654Y-69545818D01*
X69267655Y-69545821D01*
X69323672Y-69742701D01*
X69323673Y-69742704D01*
X69414912Y-69925935D01*
X69538269Y-70089287D01*
X69689537Y-70227185D01*
X69689539Y-70227187D01*
X69863569Y-70334942D01*
X69863575Y-70334945D01*
X69904010Y-70350609D01*
X70054444Y-70408888D01*
X70255653Y-70446500D01*
X70255656Y-70446500D01*
X70460344Y-70446500D01*
X70460347Y-70446500D01*
X70661556Y-70408888D01*
X70852427Y-70334944D01*
X71026462Y-70227186D01*
X71177732Y-70089285D01*
X71301088Y-69925935D01*
X71392328Y-69742701D01*
X71448345Y-69545821D01*
X71467232Y-69342000D01*
X71467232Y-69341999D01*
X71788768Y-69341999D01*
X71788768Y-69342000D01*
X71807654Y-69545816D01*
X71807654Y-69545818D01*
X71807655Y-69545821D01*
X71863672Y-69742701D01*
X71863673Y-69742704D01*
X71954912Y-69925935D01*
X72078269Y-70089287D01*
X72229537Y-70227185D01*
X72229539Y-70227187D01*
X72403569Y-70334942D01*
X72403575Y-70334945D01*
X72444010Y-70350609D01*
X72594444Y-70408888D01*
X72795653Y-70446500D01*
X72795656Y-70446500D01*
X73000344Y-70446500D01*
X73000347Y-70446500D01*
X73201556Y-70408888D01*
X73392427Y-70334944D01*
X73566462Y-70227186D01*
X73717732Y-70089285D01*
X73841088Y-69925935D01*
X73932328Y-69742701D01*
X73988345Y-69545821D01*
X74007232Y-69342000D01*
X73988345Y-69138179D01*
X73932328Y-68941299D01*
X73841088Y-68758065D01*
X73717732Y-68594715D01*
X73717730Y-68594712D01*
X73566462Y-68456814D01*
X73566460Y-68456812D01*
X73392430Y-68349057D01*
X73392424Y-68349054D01*
X73241993Y-68290777D01*
X73201556Y-68275112D01*
X73000347Y-68237500D01*
X72795653Y-68237500D01*
X72594444Y-68275112D01*
X72594441Y-68275112D01*
X72594441Y-68275113D01*
X72403575Y-68349054D01*
X72403569Y-68349057D01*
X72229539Y-68456812D01*
X72229537Y-68456814D01*
X72078269Y-68594712D01*
X71954912Y-68758064D01*
X71863673Y-68941295D01*
X71807654Y-69138183D01*
X71788768Y-69341999D01*
X71467232Y-69341999D01*
X71448345Y-69138179D01*
X71392328Y-68941299D01*
X71301088Y-68758065D01*
X71177732Y-68594715D01*
X71177730Y-68594712D01*
X71026462Y-68456814D01*
X71026460Y-68456812D01*
X70852430Y-68349057D01*
X70852424Y-68349054D01*
X70701993Y-68290777D01*
X70661556Y-68275112D01*
X70460347Y-68237500D01*
X70255653Y-68237500D01*
X70054444Y-68275112D01*
X70054441Y-68275112D01*
X70054441Y-68275113D01*
X69863575Y-68349054D01*
X69863569Y-68349057D01*
X69689539Y-68456812D01*
X69689537Y-68456814D01*
X69538269Y-68594712D01*
X69414912Y-68758064D01*
X69323673Y-68941295D01*
X69267654Y-69138183D01*
X69248768Y-69341999D01*
X66540500Y-69341999D01*
X66540500Y-66801999D01*
X69248768Y-66801999D01*
X69248768Y-66802000D01*
X69267654Y-67005816D01*
X69323673Y-67202704D01*
X69414912Y-67385935D01*
X69538269Y-67549287D01*
X69689537Y-67687185D01*
X69689539Y-67687187D01*
X69863569Y-67794942D01*
X69863575Y-67794945D01*
X69904010Y-67810609D01*
X70054444Y-67868888D01*
X70255653Y-67906500D01*
X70255656Y-67906500D01*
X70460344Y-67906500D01*
X70460347Y-67906500D01*
X70661556Y-67868888D01*
X70852427Y-67794944D01*
X71026462Y-67687186D01*
X71177732Y-67549285D01*
X71301088Y-67385935D01*
X71392328Y-67202701D01*
X71448345Y-67005821D01*
X71467232Y-66802000D01*
X71467232Y-66801999D01*
X71788768Y-66801999D01*
X71788768Y-66802000D01*
X71807654Y-67005816D01*
X71863673Y-67202704D01*
X71954912Y-67385935D01*
X72078269Y-67549287D01*
X72229537Y-67687185D01*
X72229539Y-67687187D01*
X72403569Y-67794942D01*
X72403575Y-67794945D01*
X72444010Y-67810609D01*
X72594444Y-67868888D01*
X72795653Y-67906500D01*
X72795656Y-67906500D01*
X73000344Y-67906500D01*
X73000347Y-67906500D01*
X73201556Y-67868888D01*
X73392427Y-67794944D01*
X73566462Y-67687186D01*
X73717732Y-67549285D01*
X73841088Y-67385935D01*
X73932328Y-67202701D01*
X73988345Y-67005821D01*
X74007232Y-66802000D01*
X73988345Y-66598179D01*
X73932328Y-66401299D01*
X73841088Y-66218065D01*
X73717732Y-66054715D01*
X73717730Y-66054712D01*
X73566462Y-65916814D01*
X73566460Y-65916812D01*
X73392430Y-65809057D01*
X73392424Y-65809054D01*
X73215389Y-65740471D01*
X73201556Y-65735112D01*
X73000347Y-65697500D01*
X72795653Y-65697500D01*
X72594444Y-65735112D01*
X72594441Y-65735112D01*
X72594441Y-65735113D01*
X72403575Y-65809054D01*
X72403569Y-65809057D01*
X72229539Y-65916812D01*
X72229537Y-65916814D01*
X72078269Y-66054712D01*
X71954912Y-66218064D01*
X71863673Y-66401295D01*
X71807654Y-66598183D01*
X71788768Y-66801999D01*
X71467232Y-66801999D01*
X71448345Y-66598179D01*
X71392328Y-66401299D01*
X71392327Y-66401297D01*
X71391425Y-66398126D01*
X71392013Y-66328259D01*
X71423011Y-66276511D01*
X71644810Y-66054712D01*
X72026276Y-65673247D01*
X72076501Y-65586254D01*
X72102500Y-65489225D01*
X72102500Y-65291150D01*
X72122185Y-65224111D01*
X72174989Y-65178356D01*
X72244147Y-65168412D01*
X72291776Y-65185722D01*
X72403573Y-65254944D01*
X72403574Y-65254944D01*
X72403575Y-65254945D01*
X72444010Y-65270609D01*
X72594444Y-65328888D01*
X72795653Y-65366500D01*
X72795656Y-65366500D01*
X73000344Y-65366500D01*
X73000347Y-65366500D01*
X73201556Y-65328888D01*
X73392427Y-65254944D01*
X73566462Y-65147186D01*
X73717732Y-65009285D01*
X73841088Y-64845935D01*
X73932328Y-64662701D01*
X73988345Y-64465821D01*
X74007232Y-64262000D01*
X73988345Y-64058179D01*
X73932328Y-63861299D01*
X73841088Y-63678065D01*
X73760798Y-63571744D01*
X73717730Y-63514712D01*
X73566463Y-63376815D01*
X73566462Y-63376814D01*
X73500186Y-63335777D01*
X73392428Y-63269056D01*
X73392426Y-63269055D01*
X73358703Y-63255990D01*
X73303302Y-63213416D01*
X73279714Y-63147648D01*
X73279500Y-63140365D01*
X73279500Y-58629383D01*
X73299185Y-58562344D01*
X73315814Y-58541707D01*
X74646037Y-57211483D01*
X74646042Y-57211480D01*
X74656245Y-57201276D01*
X74656247Y-57201276D01*
X74707525Y-57149998D01*
X76656715Y-57149998D01*
X76656715Y-57150001D01*
X76675771Y-57294752D01*
X76675773Y-57294757D01*
X76731642Y-57429638D01*
X76731645Y-57429644D01*
X76820525Y-57545473D01*
X76820526Y-57545474D01*
X76936355Y-57634354D01*
X76936361Y-57634357D01*
X77003801Y-57662291D01*
X77071246Y-57690228D01*
X77143623Y-57699756D01*
X77215999Y-57709285D01*
X77222584Y-57709285D01*
X77289623Y-57728970D01*
X77310265Y-57745604D01*
X78547060Y-58982399D01*
X78580545Y-59043722D01*
X78582318Y-59086265D01*
X78569715Y-59181998D01*
X78569715Y-59182001D01*
X78588771Y-59326752D01*
X78588773Y-59326757D01*
X78644642Y-59461638D01*
X78644645Y-59461644D01*
X78733525Y-59577473D01*
X78733526Y-59577474D01*
X78849355Y-59666354D01*
X78849361Y-59666357D01*
X78916801Y-59694291D01*
X78984246Y-59722228D01*
X79056623Y-59731756D01*
X79128999Y-59741285D01*
X79129000Y-59741285D01*
X79129001Y-59741285D01*
X79177251Y-59734932D01*
X79273754Y-59722228D01*
X79408643Y-59666355D01*
X79524474Y-59577474D01*
X79613355Y-59461643D01*
X79669228Y-59326754D01*
X79688285Y-59182000D01*
X79669228Y-59037246D01*
X79613355Y-58902358D01*
X79524474Y-58786526D01*
X79408643Y-58697645D01*
X79408640Y-58697644D01*
X79408638Y-58697642D01*
X79273757Y-58641773D01*
X79273755Y-58641772D01*
X79273754Y-58641772D01*
X79241040Y-58637465D01*
X79177144Y-58609198D01*
X79169546Y-58602207D01*
X77811604Y-57244265D01*
X77778119Y-57182942D01*
X77775285Y-57156584D01*
X77775285Y-57149998D01*
X77756228Y-57005247D01*
X77756228Y-57005246D01*
X77700355Y-56870358D01*
X77611474Y-56754526D01*
X77495643Y-56665645D01*
X77495640Y-56665644D01*
X77495638Y-56665642D01*
X77360757Y-56609773D01*
X77360752Y-56609771D01*
X77216001Y-56590715D01*
X77215999Y-56590715D01*
X77071247Y-56609771D01*
X77071245Y-56609772D01*
X76936361Y-56665643D01*
X76936358Y-56665644D01*
X76936358Y-56665645D01*
X76820526Y-56754526D01*
X76769797Y-56820638D01*
X76731643Y-56870361D01*
X76675772Y-57005245D01*
X76675771Y-57005247D01*
X76656715Y-57149998D01*
X74707525Y-57149998D01*
X74727276Y-57130247D01*
X74777501Y-57043254D01*
X74803500Y-56946225D01*
X74803500Y-56540998D01*
X82221715Y-56540998D01*
X82221715Y-56541001D01*
X82240771Y-56685752D01*
X82240773Y-56685757D01*
X82296642Y-56820638D01*
X82296645Y-56820644D01*
X82373875Y-56921290D01*
X82399070Y-56986459D01*
X82399500Y-56996777D01*
X82399500Y-57431225D01*
X82425499Y-57528254D01*
X82431989Y-57539495D01*
X82431990Y-57539498D01*
X82431991Y-57539498D01*
X82475723Y-57615245D01*
X82475725Y-57615248D01*
X86196181Y-61335704D01*
X86229666Y-61397027D01*
X86232500Y-61423385D01*
X86232500Y-62286576D01*
X86232492Y-62286690D01*
X86232493Y-62298890D01*
X86232460Y-62299002D01*
X86232476Y-62420304D01*
X86232476Y-62420312D01*
X86263654Y-62556840D01*
X86268921Y-62567774D01*
X86324432Y-62683015D01*
X86411759Y-62792502D01*
X86411760Y-62792503D01*
X86411761Y-62792504D01*
X86412732Y-62793278D01*
X86413194Y-62793936D01*
X86416685Y-62797427D01*
X86416073Y-62798038D01*
X86452873Y-62850466D01*
X86455725Y-62920278D01*
X86420380Y-62980548D01*
X86412750Y-62987161D01*
X86411729Y-62987975D01*
X86411718Y-62987986D01*
X86324402Y-63097493D01*
X86263643Y-63223692D01*
X86263642Y-63223696D01*
X86232491Y-63360248D01*
X86232490Y-63360255D01*
X86232500Y-63430181D01*
X86232500Y-64568222D01*
X86212815Y-64635261D01*
X86206876Y-64643708D01*
X86129645Y-64744357D01*
X86129643Y-64744360D01*
X86073772Y-64879245D01*
X86073771Y-64879247D01*
X86054715Y-65023998D01*
X86054715Y-65024001D01*
X86073771Y-65168752D01*
X86073773Y-65168757D01*
X86129642Y-65303638D01*
X86129645Y-65303644D01*
X86218525Y-65419473D01*
X86218526Y-65419474D01*
X86334355Y-65508354D01*
X86334361Y-65508357D01*
X86401801Y-65536291D01*
X86469246Y-65564228D01*
X86541623Y-65573756D01*
X86613999Y-65583285D01*
X86614000Y-65583285D01*
X86614001Y-65583285D01*
X86662251Y-65576932D01*
X86758754Y-65564228D01*
X86893643Y-65508355D01*
X87009474Y-65419474D01*
X87098355Y-65303643D01*
X87154228Y-65168754D01*
X87166932Y-65072251D01*
X87173285Y-65024001D01*
X87173285Y-65023998D01*
X87154228Y-64879247D01*
X87154228Y-64879246D01*
X87098355Y-64744358D01*
X87035700Y-64662704D01*
X87021124Y-64643708D01*
X86995930Y-64578539D01*
X86995500Y-64568222D01*
X86995500Y-63695733D01*
X87015185Y-63628694D01*
X87067989Y-63582939D01*
X87119500Y-63571733D01*
X87208429Y-63571733D01*
X87208607Y-63571745D01*
X87217471Y-63571743D01*
X87217473Y-63571744D01*
X87220934Y-63571743D01*
X87220980Y-63571756D01*
X87272324Y-63571747D01*
X87272324Y-63571748D01*
X87342341Y-63571736D01*
X87478859Y-63540555D01*
X87605018Y-63479783D01*
X87714496Y-63392468D01*
X87801804Y-63282985D01*
X87862568Y-63156822D01*
X87893740Y-63020302D01*
X87893741Y-63009132D01*
X87893748Y-63009035D01*
X87893748Y-62950181D01*
X87893750Y-62932531D01*
X87893755Y-62895434D01*
X87893754Y-62895430D01*
X87893755Y-62886690D01*
X87893748Y-62886576D01*
X87893748Y-62772414D01*
X87893675Y-62771302D01*
X87893677Y-62760266D01*
X87862535Y-62623733D01*
X87801794Y-62497552D01*
X87714498Y-62388051D01*
X87605026Y-62300719D01*
X87605022Y-62300717D01*
X87605019Y-62300715D01*
X87478869Y-62239936D01*
X87478867Y-62239935D01*
X87478866Y-62239935D01*
X87342344Y-62208747D01*
X87342339Y-62208746D01*
X87330727Y-62208744D01*
X87330555Y-62208733D01*
X87322473Y-62208733D01*
X87272324Y-62208733D01*
X87208607Y-62208720D01*
X87208429Y-62208733D01*
X87119500Y-62208733D01*
X87052461Y-62189048D01*
X87006706Y-62136244D01*
X86995500Y-62084733D01*
X86995500Y-61418385D01*
X87015185Y-61351346D01*
X87067989Y-61305591D01*
X87137147Y-61295647D01*
X87200703Y-61324672D01*
X87207181Y-61330704D01*
X88990181Y-63113704D01*
X89023666Y-63175027D01*
X89026500Y-63201385D01*
X89026500Y-64568222D01*
X89006815Y-64635261D01*
X89000876Y-64643708D01*
X88923645Y-64744357D01*
X88923643Y-64744360D01*
X88867772Y-64879245D01*
X88867771Y-64879247D01*
X88848715Y-65023998D01*
X88848715Y-65024001D01*
X88867771Y-65168752D01*
X88867773Y-65168757D01*
X88923642Y-65303638D01*
X88923645Y-65303644D01*
X89012525Y-65419473D01*
X89012526Y-65419474D01*
X89128355Y-65508354D01*
X89128361Y-65508357D01*
X89195801Y-65536291D01*
X89263246Y-65564228D01*
X89335623Y-65573756D01*
X89407999Y-65583285D01*
X89408000Y-65583285D01*
X89408001Y-65583285D01*
X89456251Y-65576932D01*
X89552754Y-65564228D01*
X89687643Y-65508355D01*
X89803474Y-65419474D01*
X89892355Y-65303643D01*
X89948228Y-65168754D01*
X89960932Y-65072251D01*
X89967285Y-65024001D01*
X89967285Y-65023998D01*
X89948228Y-64879247D01*
X89948228Y-64879246D01*
X89892355Y-64744358D01*
X89829700Y-64662704D01*
X89815124Y-64643708D01*
X89789930Y-64578539D01*
X89789500Y-64568222D01*
X89789500Y-63500000D01*
X94228582Y-63500000D01*
X94248208Y-63699271D01*
X94306333Y-63890881D01*
X94400718Y-64067463D01*
X94400720Y-64067465D01*
X94400722Y-64067469D01*
X94456235Y-64135112D01*
X94527747Y-64222252D01*
X94593770Y-64276434D01*
X94682531Y-64349278D01*
X94682534Y-64349280D01*
X94682536Y-64349281D01*
X94719729Y-64369161D01*
X94859120Y-64443667D01*
X95050731Y-64501792D01*
X95250000Y-64521418D01*
X95449269Y-64501792D01*
X95640880Y-64443667D01*
X95817469Y-64349278D01*
X95972252Y-64222252D01*
X96099278Y-64067469D01*
X96193667Y-63890880D01*
X96251792Y-63699269D01*
X96271418Y-63500000D01*
X96251792Y-63300731D01*
X96193667Y-63109120D01*
X96163250Y-63052214D01*
X96099281Y-62932536D01*
X96099280Y-62932534D01*
X96099278Y-62932531D01*
X96026434Y-62843770D01*
X95972252Y-62777747D01*
X95856818Y-62683015D01*
X95817469Y-62650722D01*
X95817465Y-62650720D01*
X95817463Y-62650718D01*
X95640881Y-62556333D01*
X95449271Y-62498208D01*
X95250000Y-62478582D01*
X95050728Y-62498208D01*
X94859118Y-62556333D01*
X94682536Y-62650718D01*
X94527747Y-62777747D01*
X94400718Y-62932536D01*
X94306333Y-63109118D01*
X94248208Y-63300728D01*
X94228582Y-63500000D01*
X89789500Y-63500000D01*
X89789500Y-63052227D01*
X89789501Y-63052214D01*
X89789501Y-62941777D01*
X89789501Y-62941775D01*
X89763502Y-62844747D01*
X89713276Y-62757753D01*
X87915523Y-60960000D01*
X94228582Y-60960000D01*
X94248208Y-61159271D01*
X94306333Y-61350881D01*
X94400718Y-61527463D01*
X94400720Y-61527465D01*
X94400722Y-61527469D01*
X94437330Y-61572076D01*
X94527747Y-61682252D01*
X94593770Y-61736434D01*
X94682531Y-61809278D01*
X94682534Y-61809280D01*
X94682536Y-61809281D01*
X94842744Y-61894914D01*
X94859120Y-61903667D01*
X95050731Y-61961792D01*
X95250000Y-61981418D01*
X95449269Y-61961792D01*
X95640880Y-61903667D01*
X95817469Y-61809278D01*
X95972252Y-61682252D01*
X96099278Y-61527469D01*
X96193667Y-61350880D01*
X96251792Y-61159269D01*
X96271418Y-60960000D01*
X96251792Y-60760731D01*
X96193667Y-60569120D01*
X96099278Y-60392531D01*
X96026434Y-60303770D01*
X95972252Y-60237747D01*
X95891801Y-60171724D01*
X95817469Y-60110722D01*
X95817465Y-60110720D01*
X95817463Y-60110718D01*
X95640881Y-60016333D01*
X95449271Y-59958208D01*
X95250000Y-59938582D01*
X95050728Y-59958208D01*
X94859118Y-60016333D01*
X94682536Y-60110718D01*
X94527747Y-60237747D01*
X94400718Y-60392536D01*
X94306333Y-60569118D01*
X94248208Y-60760728D01*
X94228582Y-60960000D01*
X87915523Y-60960000D01*
X84158044Y-57202521D01*
X84124559Y-57141198D01*
X84122789Y-57131042D01*
X84106228Y-57005246D01*
X84050355Y-56870358D01*
X83961474Y-56754526D01*
X83845643Y-56665645D01*
X83845640Y-56665644D01*
X83845638Y-56665642D01*
X83710757Y-56609773D01*
X83710752Y-56609771D01*
X83566001Y-56590715D01*
X83565999Y-56590715D01*
X83473502Y-56602892D01*
X83404466Y-56592126D01*
X83352211Y-56545746D01*
X83334379Y-56496140D01*
X83321228Y-56396246D01*
X83265355Y-56261358D01*
X83176474Y-56145526D01*
X83060643Y-56056645D01*
X83060640Y-56056644D01*
X83060638Y-56056642D01*
X82925757Y-56000773D01*
X82925752Y-56000771D01*
X82781001Y-55981715D01*
X82780999Y-55981715D01*
X82636247Y-56000771D01*
X82636245Y-56000772D01*
X82501361Y-56056643D01*
X82501358Y-56056644D01*
X82501358Y-56056645D01*
X82385526Y-56145526D01*
X82305743Y-56249502D01*
X82296643Y-56261361D01*
X82240772Y-56396245D01*
X82240771Y-56396247D01*
X82221715Y-56540998D01*
X74803500Y-56540998D01*
X74803500Y-56346777D01*
X74823185Y-56279738D01*
X74829125Y-56271290D01*
X74836746Y-56261358D01*
X74906355Y-56170643D01*
X74962228Y-56035754D01*
X74981285Y-55891000D01*
X74978236Y-55867844D01*
X74962228Y-55746247D01*
X74962228Y-55746246D01*
X74906355Y-55611358D01*
X74817474Y-55495526D01*
X74701643Y-55406645D01*
X74701640Y-55406644D01*
X74701638Y-55406642D01*
X74566757Y-55350773D01*
X74566752Y-55350771D01*
X74422001Y-55331715D01*
X74421999Y-55331715D01*
X74277247Y-55350771D01*
X74277245Y-55350772D01*
X74142361Y-55406643D01*
X74026526Y-55495526D01*
X73937643Y-55611361D01*
X73881772Y-55746245D01*
X73881772Y-55746246D01*
X73865763Y-55867844D01*
X73837496Y-55931740D01*
X73779172Y-55970211D01*
X73759009Y-55974597D01*
X73650247Y-55988915D01*
X73650245Y-55988916D01*
X73515361Y-56044787D01*
X73515358Y-56044788D01*
X73515358Y-56044789D01*
X73399526Y-56133670D01*
X73371160Y-56170638D01*
X73310643Y-56249505D01*
X73254772Y-56384389D01*
X73254772Y-56384391D01*
X73238212Y-56510170D01*
X73209945Y-56574067D01*
X73202954Y-56581665D01*
X71486753Y-58297868D01*
X71415725Y-58368895D01*
X71415723Y-58368898D01*
X71365499Y-58455889D01*
X71365499Y-58455890D01*
X71339500Y-58552919D01*
X71339500Y-58552921D01*
X71339500Y-63033500D01*
X71319815Y-63100539D01*
X71267011Y-63146294D01*
X71215500Y-63157500D01*
X69482936Y-63157500D01*
X69408698Y-63172266D01*
X69324515Y-63228515D01*
X69268266Y-63312699D01*
X69268264Y-63312703D01*
X69253500Y-63386928D01*
X69253500Y-65137063D01*
X69268266Y-65211301D01*
X69324515Y-65295484D01*
X69336728Y-65303644D01*
X69408699Y-65351734D01*
X69408702Y-65351734D01*
X69408703Y-65351735D01*
X69433666Y-65356700D01*
X69482933Y-65366500D01*
X70954614Y-65366499D01*
X71021653Y-65386184D01*
X71067408Y-65438987D01*
X71077352Y-65508146D01*
X71048327Y-65571702D01*
X71042295Y-65578180D01*
X70880004Y-65740471D01*
X70818681Y-65773956D01*
X70748989Y-65768972D01*
X70747530Y-65768417D01*
X70661561Y-65735113D01*
X70661556Y-65735112D01*
X70460347Y-65697500D01*
X70255653Y-65697500D01*
X70054444Y-65735112D01*
X70054441Y-65735112D01*
X70054441Y-65735113D01*
X69863575Y-65809054D01*
X69863569Y-65809057D01*
X69689539Y-65916812D01*
X69689537Y-65916814D01*
X69538269Y-66054712D01*
X69414912Y-66218064D01*
X69323673Y-66401295D01*
X69267654Y-66598183D01*
X69248768Y-66801999D01*
X66540500Y-66801999D01*
X66540500Y-50022999D01*
X69248768Y-50022999D01*
X69248768Y-50023000D01*
X69267654Y-50226816D01*
X69267654Y-50226818D01*
X69267655Y-50226821D01*
X69323672Y-50423701D01*
X69323673Y-50423704D01*
X69414912Y-50606935D01*
X69538269Y-50770287D01*
X69689537Y-50908185D01*
X69689539Y-50908187D01*
X69863569Y-51015942D01*
X69863575Y-51015945D01*
X69904010Y-51031609D01*
X70054444Y-51089888D01*
X70255653Y-51127500D01*
X70255656Y-51127500D01*
X70460344Y-51127500D01*
X70460347Y-51127500D01*
X70661556Y-51089888D01*
X70852427Y-51015944D01*
X71026462Y-50908186D01*
X71177732Y-50770285D01*
X71301088Y-50606935D01*
X71392328Y-50423701D01*
X71448345Y-50226821D01*
X71467232Y-50023000D01*
X71448345Y-49819179D01*
X71392328Y-49622299D01*
X71346368Y-49530000D01*
X75686582Y-49530000D01*
X75706208Y-49729271D01*
X75764333Y-49920881D01*
X75858718Y-50097463D01*
X75858720Y-50097465D01*
X75858722Y-50097469D01*
X75919724Y-50171801D01*
X75985747Y-50252252D01*
X76051770Y-50306434D01*
X76140531Y-50379278D01*
X76140534Y-50379280D01*
X76140536Y-50379281D01*
X76223640Y-50423701D01*
X76317120Y-50473667D01*
X76508731Y-50531792D01*
X76708000Y-50551418D01*
X76907269Y-50531792D01*
X77098880Y-50473667D01*
X77275469Y-50379278D01*
X77430252Y-50252252D01*
X77557278Y-50097469D01*
X77651667Y-49920880D01*
X77693189Y-49784000D01*
X85338582Y-49784000D01*
X85358208Y-49983271D01*
X85416333Y-50174881D01*
X85510718Y-50351463D01*
X85510720Y-50351465D01*
X85510722Y-50351469D01*
X85533547Y-50379281D01*
X85637747Y-50506252D01*
X85692782Y-50551417D01*
X85792531Y-50633278D01*
X85792534Y-50633280D01*
X85792536Y-50633281D01*
X85969118Y-50727666D01*
X85969120Y-50727667D01*
X86160731Y-50785792D01*
X86360000Y-50805418D01*
X86559269Y-50785792D01*
X86750880Y-50727667D01*
X86927469Y-50633278D01*
X87082252Y-50506252D01*
X87209278Y-50351469D01*
X87303667Y-50174880D01*
X87361792Y-49983269D01*
X87381418Y-49784000D01*
X87878582Y-49784000D01*
X87898208Y-49983271D01*
X87956333Y-50174881D01*
X88050718Y-50351463D01*
X88050720Y-50351465D01*
X88050722Y-50351469D01*
X88073547Y-50379281D01*
X88177747Y-50506252D01*
X88232782Y-50551417D01*
X88332531Y-50633278D01*
X88332534Y-50633280D01*
X88332536Y-50633281D01*
X88509118Y-50727666D01*
X88509120Y-50727667D01*
X88700731Y-50785792D01*
X88900000Y-50805418D01*
X89099269Y-50785792D01*
X89290880Y-50727667D01*
X89467469Y-50633278D01*
X89622252Y-50506252D01*
X89749278Y-50351469D01*
X89843667Y-50174880D01*
X89901792Y-49983269D01*
X89921418Y-49784000D01*
X90418582Y-49784000D01*
X90438208Y-49983271D01*
X90496333Y-50174881D01*
X90590718Y-50351463D01*
X90590720Y-50351465D01*
X90590722Y-50351469D01*
X90613547Y-50379281D01*
X90717747Y-50506252D01*
X90772782Y-50551417D01*
X90872531Y-50633278D01*
X90872534Y-50633280D01*
X90872536Y-50633281D01*
X91049118Y-50727666D01*
X91049120Y-50727667D01*
X91240731Y-50785792D01*
X91440000Y-50805418D01*
X91639269Y-50785792D01*
X91830880Y-50727667D01*
X92007469Y-50633278D01*
X92162252Y-50506252D01*
X92289278Y-50351469D01*
X92383667Y-50174880D01*
X92441792Y-49983269D01*
X92461418Y-49784000D01*
X92441792Y-49584731D01*
X92383667Y-49393120D01*
X92289278Y-49216531D01*
X92216434Y-49127770D01*
X92162252Y-49061747D01*
X92081801Y-48995724D01*
X92007469Y-48934722D01*
X92007465Y-48934720D01*
X92007463Y-48934718D01*
X91830881Y-48840333D01*
X91639271Y-48782208D01*
X91440000Y-48762582D01*
X91240728Y-48782208D01*
X91049118Y-48840333D01*
X90872536Y-48934718D01*
X90717747Y-49061747D01*
X90590718Y-49216536D01*
X90496333Y-49393118D01*
X90438208Y-49584728D01*
X90418582Y-49784000D01*
X89921418Y-49784000D01*
X89901792Y-49584731D01*
X89843667Y-49393120D01*
X89749278Y-49216531D01*
X89676434Y-49127770D01*
X89622252Y-49061747D01*
X89541801Y-48995724D01*
X89467469Y-48934722D01*
X89467465Y-48934720D01*
X89467463Y-48934718D01*
X89290881Y-48840333D01*
X89099271Y-48782208D01*
X88900000Y-48762582D01*
X88700728Y-48782208D01*
X88509118Y-48840333D01*
X88332536Y-48934718D01*
X88177747Y-49061747D01*
X88050718Y-49216536D01*
X87956333Y-49393118D01*
X87898208Y-49584728D01*
X87878582Y-49784000D01*
X87381418Y-49784000D01*
X87361792Y-49584731D01*
X87303667Y-49393120D01*
X87209278Y-49216531D01*
X87136434Y-49127770D01*
X87082252Y-49061747D01*
X87001801Y-48995724D01*
X86927469Y-48934722D01*
X86927465Y-48934720D01*
X86927463Y-48934718D01*
X86750881Y-48840333D01*
X86559271Y-48782208D01*
X86360000Y-48762582D01*
X86160728Y-48782208D01*
X85969118Y-48840333D01*
X85792536Y-48934718D01*
X85637747Y-49061747D01*
X85510718Y-49216536D01*
X85416333Y-49393118D01*
X85358208Y-49584728D01*
X85338582Y-49784000D01*
X77693189Y-49784000D01*
X77709792Y-49729269D01*
X77729418Y-49530000D01*
X77709792Y-49330731D01*
X77651667Y-49139120D01*
X77610310Y-49061747D01*
X77557281Y-48962536D01*
X77557280Y-48962534D01*
X77557278Y-48962531D01*
X77456994Y-48840333D01*
X77430252Y-48807747D01*
X77349801Y-48741724D01*
X77275469Y-48680722D01*
X77275465Y-48680720D01*
X77275463Y-48680718D01*
X77098881Y-48586333D01*
X76907271Y-48528208D01*
X76708000Y-48508582D01*
X76508728Y-48528208D01*
X76317118Y-48586333D01*
X76140536Y-48680718D01*
X75985747Y-48807747D01*
X75858718Y-48962536D01*
X75764333Y-49139118D01*
X75706208Y-49330728D01*
X75686582Y-49530000D01*
X71346368Y-49530000D01*
X71301088Y-49439065D01*
X71177732Y-49275715D01*
X71177730Y-49275712D01*
X71026462Y-49137814D01*
X71026460Y-49137812D01*
X70852430Y-49030057D01*
X70852424Y-49030054D01*
X70678125Y-48962531D01*
X70661556Y-48956112D01*
X70460347Y-48918500D01*
X70255653Y-48918500D01*
X70054444Y-48956112D01*
X70054441Y-48956112D01*
X70054441Y-48956113D01*
X69863575Y-49030054D01*
X69863569Y-49030057D01*
X69689539Y-49137812D01*
X69689537Y-49137814D01*
X69538269Y-49275712D01*
X69414912Y-49439064D01*
X69323673Y-49622295D01*
X69267654Y-49819183D01*
X69248768Y-50022999D01*
X66540500Y-50022999D01*
X66540500Y-48264066D01*
X66540765Y-48255957D01*
X66544819Y-48194108D01*
X66557417Y-48001883D01*
X66559531Y-47985829D01*
X66608409Y-47740107D01*
X66612606Y-47724445D01*
X66636197Y-47654945D01*
X66693138Y-47487205D01*
X66699336Y-47472239D01*
X66810149Y-47247533D01*
X66818252Y-47233498D01*
X66957448Y-47025176D01*
X66967305Y-47012331D01*
X67132502Y-46823960D01*
X67143960Y-46812502D01*
X67332331Y-46647305D01*
X67345176Y-46637448D01*
X67553498Y-46498252D01*
X67567533Y-46490149D01*
X67792239Y-46379336D01*
X67807205Y-46373138D01*
X67974945Y-46316197D01*
X68044445Y-46292606D01*
X68060107Y-46288409D01*
X68305829Y-46239531D01*
X68321883Y-46237417D01*
X68554848Y-46222148D01*
X68575958Y-46220765D01*
X68584067Y-46220500D01*
X68645892Y-46220500D01*
X69896034Y-46220500D01*
X69963073Y-46240185D01*
G37*
%TD.AperFunction*%
%TD*%
M02*
