%TF.GenerationSoftware,KiCad,Pcbnew,8.0.5*%
%TF.CreationDate,2024-10-31T22:43:36-05:00*%
%TF.ProjectId,STM_Breakout,53544d5f-4272-4656-916b-6f75742e6b69,rev?*%
%TF.SameCoordinates,Original*%
%TF.FileFunction,Paste,Top*%
%TF.FilePolarity,Positive*%
%FSLAX46Y46*%
G04 Gerber Fmt 4.6, Leading zero omitted, Abs format (unit mm)*
G04 Created by KiCad (PCBNEW 8.0.5) date 2024-10-31 22:43:36*
%MOMM*%
%LPD*%
G01*
G04 APERTURE LIST*
G04 Aperture macros list*
%AMRoundRect*
0 Rectangle with rounded corners*
0 $1 Rounding radius*
0 $2 $3 $4 $5 $6 $7 $8 $9 X,Y pos of 4 corners*
0 Add a 4 corners polygon primitive as box body*
4,1,4,$2,$3,$4,$5,$6,$7,$8,$9,$2,$3,0*
0 Add four circle primitives for the rounded corners*
1,1,$1+$1,$2,$3*
1,1,$1+$1,$4,$5*
1,1,$1+$1,$6,$7*
1,1,$1+$1,$8,$9*
0 Add four rect primitives between the rounded corners*
20,1,$1+$1,$2,$3,$4,$5,0*
20,1,$1+$1,$4,$5,$6,$7,0*
20,1,$1+$1,$6,$7,$8,$9,0*
20,1,$1+$1,$8,$9,$2,$3,0*%
G04 Aperture macros list end*
%ADD10RoundRect,0.237500X-0.237500X0.250000X-0.237500X-0.250000X0.237500X-0.250000X0.237500X0.250000X0*%
%ADD11RoundRect,0.237500X0.237500X-0.250000X0.237500X0.250000X-0.237500X0.250000X-0.237500X-0.250000X0*%
%ADD12RoundRect,0.237500X0.237500X-0.300000X0.237500X0.300000X-0.237500X0.300000X-0.237500X-0.300000X0*%
%ADD13RoundRect,0.237500X-0.300000X-0.237500X0.300000X-0.237500X0.300000X0.237500X-0.300000X0.237500X0*%
%ADD14RoundRect,0.237500X0.300000X0.237500X-0.300000X0.237500X-0.300000X-0.237500X0.300000X-0.237500X0*%
%ADD15RoundRect,0.100000X-0.637500X-0.100000X0.637500X-0.100000X0.637500X0.100000X-0.637500X0.100000X0*%
%ADD16RoundRect,0.150000X-0.150000X0.825000X-0.150000X-0.825000X0.150000X-0.825000X0.150000X0.825000X0*%
G04 APERTURE END LIST*
D10*
%TO.C,R1*%
X89662000Y-74629000D03*
X89662000Y-76454000D03*
%TD*%
D11*
%TO.C,R2*%
X87376000Y-76454000D03*
X87376000Y-74629000D03*
%TD*%
D12*
%TO.C,C2*%
X84328000Y-73760500D03*
X84328000Y-72035500D03*
%TD*%
D13*
%TO.C,C3*%
X93525000Y-76454000D03*
X95250000Y-76454000D03*
%TD*%
D14*
%TO.C,C9*%
X71220500Y-56642000D03*
X69495500Y-56642000D03*
%TD*%
D15*
%TO.C,U1*%
X75877500Y-55241000D03*
X75877500Y-55891000D03*
X75877500Y-56541000D03*
X75877500Y-57191000D03*
X75877500Y-57841000D03*
X75877500Y-58491000D03*
X75877500Y-59141000D03*
X75877500Y-59791000D03*
X75877500Y-60441000D03*
X75877500Y-61091000D03*
X81602500Y-61091000D03*
X81602500Y-60441000D03*
X81602500Y-59791000D03*
X81602500Y-59141000D03*
X81602500Y-58491000D03*
X81602500Y-57841000D03*
X81602500Y-57191000D03*
X81602500Y-56541000D03*
X81602500Y-55891000D03*
X81602500Y-55241000D03*
%TD*%
D13*
%TO.C,C5*%
X85651000Y-57404000D03*
X87376000Y-57404000D03*
%TD*%
D16*
%TO.C,U2*%
X90450500Y-66613000D03*
X89180500Y-66613000D03*
X87910500Y-66613000D03*
X86640500Y-66613000D03*
X86640500Y-71563000D03*
X87910500Y-71563000D03*
X89180500Y-71563000D03*
X90450500Y-71563000D03*
%TD*%
D14*
%TO.C,C8*%
X71220500Y-58674000D03*
X69495500Y-58674000D03*
%TD*%
D13*
%TO.C,C6*%
X85651000Y-59436000D03*
X87376000Y-59436000D03*
%TD*%
%TO.C,C1*%
X88646000Y-64008000D03*
X90371000Y-64008000D03*
%TD*%
D14*
%TO.C,C7*%
X71220500Y-60706000D03*
X69495500Y-60706000D03*
%TD*%
D13*
%TO.C,C4*%
X85651000Y-55372000D03*
X87376000Y-55372000D03*
%TD*%
M02*
