%TF.GenerationSoftware,KiCad,Pcbnew,8.0.5*%
%TF.CreationDate,2024-10-31T22:43:36-05:00*%
%TF.ProjectId,STM_Breakout,53544d5f-4272-4656-916b-6f75742e6b69,rev?*%
%TF.SameCoordinates,Original*%
%TF.FileFunction,Legend,Top*%
%TF.FilePolarity,Positive*%
%FSLAX46Y46*%
G04 Gerber Fmt 4.6, Leading zero omitted, Abs format (unit mm)*
G04 Created by KiCad (PCBNEW 8.0.5) date 2024-10-31 22:43:36*
%MOMM*%
%LPD*%
G01*
G04 APERTURE LIST*
%ADD10C,0.088900*%
%ADD11C,0.101600*%
%ADD12C,0.100000*%
%ADD13C,0.150000*%
%ADD14C,0.120000*%
%ADD15C,0.000000*%
G04 APERTURE END LIST*
D10*
X66858418Y-47257095D02*
X67251513Y-47257095D01*
X67251513Y-47257095D02*
X67039846Y-47498999D01*
X67039846Y-47498999D02*
X67130561Y-47498999D01*
X67130561Y-47498999D02*
X67191037Y-47529237D01*
X67191037Y-47529237D02*
X67221275Y-47559476D01*
X67221275Y-47559476D02*
X67251513Y-47619952D01*
X67251513Y-47619952D02*
X67251513Y-47771142D01*
X67251513Y-47771142D02*
X67221275Y-47831618D01*
X67221275Y-47831618D02*
X67191037Y-47861857D01*
X67191037Y-47861857D02*
X67130561Y-47892095D01*
X67130561Y-47892095D02*
X66949132Y-47892095D01*
X66949132Y-47892095D02*
X66888656Y-47861857D01*
X66888656Y-47861857D02*
X66858418Y-47831618D01*
X67432942Y-47257095D02*
X67644608Y-47892095D01*
X67644608Y-47892095D02*
X67856275Y-47257095D01*
X68007466Y-47257095D02*
X68400561Y-47257095D01*
X68400561Y-47257095D02*
X68188894Y-47498999D01*
X68188894Y-47498999D02*
X68279609Y-47498999D01*
X68279609Y-47498999D02*
X68340085Y-47529237D01*
X68340085Y-47529237D02*
X68370323Y-47559476D01*
X68370323Y-47559476D02*
X68400561Y-47619952D01*
X68400561Y-47619952D02*
X68400561Y-47771142D01*
X68400561Y-47771142D02*
X68370323Y-47831618D01*
X68370323Y-47831618D02*
X68340085Y-47861857D01*
X68340085Y-47861857D02*
X68279609Y-47892095D01*
X68279609Y-47892095D02*
X68098180Y-47892095D01*
X68098180Y-47892095D02*
X68037704Y-47861857D01*
X68037704Y-47861857D02*
X68007466Y-47831618D01*
X67070085Y-52398903D02*
X67009609Y-52368665D01*
X67009609Y-52368665D02*
X66918895Y-52368665D01*
X66918895Y-52368665D02*
X66828180Y-52398903D01*
X66828180Y-52398903D02*
X66767704Y-52459379D01*
X66767704Y-52459379D02*
X66737466Y-52519855D01*
X66737466Y-52519855D02*
X66707228Y-52640807D01*
X66707228Y-52640807D02*
X66707228Y-52731522D01*
X66707228Y-52731522D02*
X66737466Y-52852474D01*
X66737466Y-52852474D02*
X66767704Y-52912950D01*
X66767704Y-52912950D02*
X66828180Y-52973427D01*
X66828180Y-52973427D02*
X66918895Y-53003665D01*
X66918895Y-53003665D02*
X66979371Y-53003665D01*
X66979371Y-53003665D02*
X67070085Y-52973427D01*
X67070085Y-52973427D02*
X67100323Y-52943188D01*
X67100323Y-52943188D02*
X67100323Y-52731522D01*
X67100323Y-52731522D02*
X66979371Y-52731522D01*
X67372466Y-53003665D02*
X67372466Y-52368665D01*
X67372466Y-52368665D02*
X67735323Y-53003665D01*
X67735323Y-53003665D02*
X67735323Y-52368665D01*
X68037704Y-53003665D02*
X68037704Y-52368665D01*
X68037704Y-52368665D02*
X68188894Y-52368665D01*
X68188894Y-52368665D02*
X68279609Y-52398903D01*
X68279609Y-52398903D02*
X68340085Y-52459379D01*
X68340085Y-52459379D02*
X68370323Y-52519855D01*
X68370323Y-52519855D02*
X68400561Y-52640807D01*
X68400561Y-52640807D02*
X68400561Y-52731522D01*
X68400561Y-52731522D02*
X68370323Y-52852474D01*
X68370323Y-52852474D02*
X68340085Y-52912950D01*
X68340085Y-52912950D02*
X68279609Y-52973427D01*
X68279609Y-52973427D02*
X68188894Y-53003665D01*
X68188894Y-53003665D02*
X68037704Y-53003665D01*
D11*
X74936365Y-64185922D02*
X74936365Y-63373122D01*
X74936365Y-63373122D02*
X75246003Y-63373122D01*
X75246003Y-63373122D02*
X75323413Y-63411827D01*
X75323413Y-63411827D02*
X75362118Y-63450532D01*
X75362118Y-63450532D02*
X75400822Y-63527941D01*
X75400822Y-63527941D02*
X75400822Y-63644056D01*
X75400822Y-63644056D02*
X75362118Y-63721465D01*
X75362118Y-63721465D02*
X75323413Y-63760170D01*
X75323413Y-63760170D02*
X75246003Y-63798875D01*
X75246003Y-63798875D02*
X74936365Y-63798875D01*
X76020099Y-63760170D02*
X75749165Y-63760170D01*
X75749165Y-64185922D02*
X75749165Y-63373122D01*
X75749165Y-63373122D02*
X76136213Y-63373122D01*
X76600670Y-63373122D02*
X76678080Y-63373122D01*
X76678080Y-63373122D02*
X76755489Y-63411827D01*
X76755489Y-63411827D02*
X76794194Y-63450532D01*
X76794194Y-63450532D02*
X76832899Y-63527941D01*
X76832899Y-63527941D02*
X76871604Y-63682760D01*
X76871604Y-63682760D02*
X76871604Y-63876284D01*
X76871604Y-63876284D02*
X76832899Y-64031103D01*
X76832899Y-64031103D02*
X76794194Y-64108513D01*
X76794194Y-64108513D02*
X76755489Y-64147218D01*
X76755489Y-64147218D02*
X76678080Y-64185922D01*
X76678080Y-64185922D02*
X76600670Y-64185922D01*
X76600670Y-64185922D02*
X76523261Y-64147218D01*
X76523261Y-64147218D02*
X76484556Y-64108513D01*
X76484556Y-64108513D02*
X76445851Y-64031103D01*
X76445851Y-64031103D02*
X76407147Y-63876284D01*
X76407147Y-63876284D02*
X76407147Y-63682760D01*
X76407147Y-63682760D02*
X76445851Y-63527941D01*
X76445851Y-63527941D02*
X76484556Y-63450532D01*
X76484556Y-63450532D02*
X76523261Y-63411827D01*
X76523261Y-63411827D02*
X76600670Y-63373122D01*
X74936365Y-66803046D02*
X74936365Y-65990246D01*
X74936365Y-65990246D02*
X75246003Y-65990246D01*
X75246003Y-65990246D02*
X75323413Y-66028951D01*
X75323413Y-66028951D02*
X75362118Y-66067656D01*
X75362118Y-66067656D02*
X75400822Y-66145065D01*
X75400822Y-66145065D02*
X75400822Y-66261180D01*
X75400822Y-66261180D02*
X75362118Y-66338589D01*
X75362118Y-66338589D02*
X75323413Y-66377294D01*
X75323413Y-66377294D02*
X75246003Y-66415999D01*
X75246003Y-66415999D02*
X74936365Y-66415999D01*
X75710461Y-66570818D02*
X76097508Y-66570818D01*
X75633051Y-66803046D02*
X75903984Y-65990246D01*
X75903984Y-65990246D02*
X76174918Y-66803046D01*
X76600670Y-65990246D02*
X76678080Y-65990246D01*
X76678080Y-65990246D02*
X76755489Y-66028951D01*
X76755489Y-66028951D02*
X76794194Y-66067656D01*
X76794194Y-66067656D02*
X76832899Y-66145065D01*
X76832899Y-66145065D02*
X76871604Y-66299884D01*
X76871604Y-66299884D02*
X76871604Y-66493408D01*
X76871604Y-66493408D02*
X76832899Y-66648227D01*
X76832899Y-66648227D02*
X76794194Y-66725637D01*
X76794194Y-66725637D02*
X76755489Y-66764342D01*
X76755489Y-66764342D02*
X76678080Y-66803046D01*
X76678080Y-66803046D02*
X76600670Y-66803046D01*
X76600670Y-66803046D02*
X76523261Y-66764342D01*
X76523261Y-66764342D02*
X76484556Y-66725637D01*
X76484556Y-66725637D02*
X76445851Y-66648227D01*
X76445851Y-66648227D02*
X76407147Y-66493408D01*
X76407147Y-66493408D02*
X76407147Y-66299884D01*
X76407147Y-66299884D02*
X76445851Y-66145065D01*
X76445851Y-66145065D02*
X76484556Y-66067656D01*
X76484556Y-66067656D02*
X76523261Y-66028951D01*
X76523261Y-66028951D02*
X76600670Y-65990246D01*
X74936365Y-69420170D02*
X74936365Y-68607370D01*
X74936365Y-68607370D02*
X75246003Y-68607370D01*
X75246003Y-68607370D02*
X75323413Y-68646075D01*
X75323413Y-68646075D02*
X75362118Y-68684780D01*
X75362118Y-68684780D02*
X75400822Y-68762189D01*
X75400822Y-68762189D02*
X75400822Y-68878304D01*
X75400822Y-68878304D02*
X75362118Y-68955713D01*
X75362118Y-68955713D02*
X75323413Y-68994418D01*
X75323413Y-68994418D02*
X75246003Y-69033123D01*
X75246003Y-69033123D02*
X74936365Y-69033123D01*
X75710461Y-69187942D02*
X76097508Y-69187942D01*
X75633051Y-69420170D02*
X75903984Y-68607370D01*
X75903984Y-68607370D02*
X76174918Y-69420170D01*
X76407147Y-68684780D02*
X76445851Y-68646075D01*
X76445851Y-68646075D02*
X76523261Y-68607370D01*
X76523261Y-68607370D02*
X76716785Y-68607370D01*
X76716785Y-68607370D02*
X76794194Y-68646075D01*
X76794194Y-68646075D02*
X76832899Y-68684780D01*
X76832899Y-68684780D02*
X76871604Y-68762189D01*
X76871604Y-68762189D02*
X76871604Y-68839599D01*
X76871604Y-68839599D02*
X76832899Y-68955713D01*
X76832899Y-68955713D02*
X76368442Y-69420170D01*
X76368442Y-69420170D02*
X76871604Y-69420170D01*
X74936365Y-72037294D02*
X74936365Y-71224494D01*
X74936365Y-71224494D02*
X75246003Y-71224494D01*
X75246003Y-71224494D02*
X75323413Y-71263199D01*
X75323413Y-71263199D02*
X75362118Y-71301904D01*
X75362118Y-71301904D02*
X75400822Y-71379313D01*
X75400822Y-71379313D02*
X75400822Y-71495428D01*
X75400822Y-71495428D02*
X75362118Y-71572837D01*
X75362118Y-71572837D02*
X75323413Y-71611542D01*
X75323413Y-71611542D02*
X75246003Y-71650247D01*
X75246003Y-71650247D02*
X74936365Y-71650247D01*
X75710461Y-71805066D02*
X76097508Y-71805066D01*
X75633051Y-72037294D02*
X75903984Y-71224494D01*
X75903984Y-71224494D02*
X76174918Y-72037294D01*
X76794194Y-71495428D02*
X76794194Y-72037294D01*
X76600670Y-71185790D02*
X76407147Y-71766361D01*
X76407147Y-71766361D02*
X76910308Y-71766361D01*
X74936365Y-74654418D02*
X74936365Y-73841618D01*
X74936365Y-73841618D02*
X75246003Y-73841618D01*
X75246003Y-73841618D02*
X75323413Y-73880323D01*
X75323413Y-73880323D02*
X75362118Y-73919028D01*
X75362118Y-73919028D02*
X75400822Y-73996437D01*
X75400822Y-73996437D02*
X75400822Y-74112552D01*
X75400822Y-74112552D02*
X75362118Y-74189961D01*
X75362118Y-74189961D02*
X75323413Y-74228666D01*
X75323413Y-74228666D02*
X75246003Y-74267371D01*
X75246003Y-74267371D02*
X74936365Y-74267371D01*
X75710461Y-74422190D02*
X76097508Y-74422190D01*
X75633051Y-74654418D02*
X75903984Y-73841618D01*
X75903984Y-73841618D02*
X76174918Y-74654418D01*
X76794194Y-73841618D02*
X76639375Y-73841618D01*
X76639375Y-73841618D02*
X76561966Y-73880323D01*
X76561966Y-73880323D02*
X76523261Y-73919028D01*
X76523261Y-73919028D02*
X76445851Y-74035142D01*
X76445851Y-74035142D02*
X76407147Y-74189961D01*
X76407147Y-74189961D02*
X76407147Y-74499599D01*
X76407147Y-74499599D02*
X76445851Y-74577009D01*
X76445851Y-74577009D02*
X76484556Y-74615714D01*
X76484556Y-74615714D02*
X76561966Y-74654418D01*
X76561966Y-74654418D02*
X76716785Y-74654418D01*
X76716785Y-74654418D02*
X76794194Y-74615714D01*
X76794194Y-74615714D02*
X76832899Y-74577009D01*
X76832899Y-74577009D02*
X76871604Y-74499599D01*
X76871604Y-74499599D02*
X76871604Y-74306075D01*
X76871604Y-74306075D02*
X76832899Y-74228666D01*
X76832899Y-74228666D02*
X76794194Y-74189961D01*
X76794194Y-74189961D02*
X76716785Y-74151256D01*
X76716785Y-74151256D02*
X76561966Y-74151256D01*
X76561966Y-74151256D02*
X76484556Y-74189961D01*
X76484556Y-74189961D02*
X76445851Y-74228666D01*
X76445851Y-74228666D02*
X76407147Y-74306075D01*
X75362118Y-76497447D02*
X75284708Y-76458742D01*
X75284708Y-76458742D02*
X75168594Y-76458742D01*
X75168594Y-76458742D02*
X75052480Y-76497447D01*
X75052480Y-76497447D02*
X74975070Y-76574857D01*
X74975070Y-76574857D02*
X74936365Y-76652266D01*
X74936365Y-76652266D02*
X74897661Y-76807085D01*
X74897661Y-76807085D02*
X74897661Y-76923199D01*
X74897661Y-76923199D02*
X74936365Y-77078018D01*
X74936365Y-77078018D02*
X74975070Y-77155428D01*
X74975070Y-77155428D02*
X75052480Y-77232838D01*
X75052480Y-77232838D02*
X75168594Y-77271542D01*
X75168594Y-77271542D02*
X75246003Y-77271542D01*
X75246003Y-77271542D02*
X75362118Y-77232838D01*
X75362118Y-77232838D02*
X75400822Y-77194133D01*
X75400822Y-77194133D02*
X75400822Y-76923199D01*
X75400822Y-76923199D02*
X75246003Y-76923199D01*
X75749165Y-77271542D02*
X75749165Y-76458742D01*
X75749165Y-76458742D02*
X76213622Y-77271542D01*
X76213622Y-77271542D02*
X76213622Y-76458742D01*
X76600670Y-77271542D02*
X76600670Y-76458742D01*
X76600670Y-76458742D02*
X76794194Y-76458742D01*
X76794194Y-76458742D02*
X76910308Y-76497447D01*
X76910308Y-76497447D02*
X76987718Y-76574857D01*
X76987718Y-76574857D02*
X77026423Y-76652266D01*
X77026423Y-76652266D02*
X77065127Y-76807085D01*
X77065127Y-76807085D02*
X77065127Y-76923199D01*
X77065127Y-76923199D02*
X77026423Y-77078018D01*
X77026423Y-77078018D02*
X76987718Y-77155428D01*
X76987718Y-77155428D02*
X76910308Y-77232838D01*
X76910308Y-77232838D02*
X76794194Y-77271542D01*
X76794194Y-77271542D02*
X76600670Y-77271542D01*
X91718508Y-60946773D02*
X92395842Y-60946773D01*
X92057175Y-61285440D02*
X92057175Y-60608107D01*
X91718508Y-63809253D02*
X92395842Y-63809253D01*
D10*
X83969200Y-52622665D02*
X84362295Y-52622665D01*
X84362295Y-52622665D02*
X84150628Y-52864569D01*
X84150628Y-52864569D02*
X84241343Y-52864569D01*
X84241343Y-52864569D02*
X84301819Y-52894807D01*
X84301819Y-52894807D02*
X84332057Y-52925046D01*
X84332057Y-52925046D02*
X84362295Y-52985522D01*
X84362295Y-52985522D02*
X84362295Y-53136712D01*
X84362295Y-53136712D02*
X84332057Y-53197188D01*
X84332057Y-53197188D02*
X84301819Y-53227427D01*
X84301819Y-53227427D02*
X84241343Y-53257665D01*
X84241343Y-53257665D02*
X84059914Y-53257665D01*
X84059914Y-53257665D02*
X83999438Y-53227427D01*
X83999438Y-53227427D02*
X83969200Y-53197188D01*
X84543724Y-52622665D02*
X84755390Y-53257665D01*
X84755390Y-53257665D02*
X84967057Y-52622665D01*
X85118248Y-52622665D02*
X85511343Y-52622665D01*
X85511343Y-52622665D02*
X85299676Y-52864569D01*
X85299676Y-52864569D02*
X85390391Y-52864569D01*
X85390391Y-52864569D02*
X85450867Y-52894807D01*
X85450867Y-52894807D02*
X85481105Y-52925046D01*
X85481105Y-52925046D02*
X85511343Y-52985522D01*
X85511343Y-52985522D02*
X85511343Y-53136712D01*
X85511343Y-53136712D02*
X85481105Y-53197188D01*
X85481105Y-53197188D02*
X85450867Y-53227427D01*
X85450867Y-53227427D02*
X85390391Y-53257665D01*
X85390391Y-53257665D02*
X85208962Y-53257665D01*
X85208962Y-53257665D02*
X85148486Y-53227427D01*
X85148486Y-53227427D02*
X85118248Y-53197188D01*
X86720868Y-53227427D02*
X86811582Y-53257665D01*
X86811582Y-53257665D02*
X86962773Y-53257665D01*
X86962773Y-53257665D02*
X87023249Y-53227427D01*
X87023249Y-53227427D02*
X87053487Y-53197188D01*
X87053487Y-53197188D02*
X87083725Y-53136712D01*
X87083725Y-53136712D02*
X87083725Y-53076236D01*
X87083725Y-53076236D02*
X87053487Y-53015760D01*
X87053487Y-53015760D02*
X87023249Y-52985522D01*
X87023249Y-52985522D02*
X86962773Y-52955284D01*
X86962773Y-52955284D02*
X86841820Y-52925046D01*
X86841820Y-52925046D02*
X86781344Y-52894807D01*
X86781344Y-52894807D02*
X86751106Y-52864569D01*
X86751106Y-52864569D02*
X86720868Y-52804093D01*
X86720868Y-52804093D02*
X86720868Y-52743617D01*
X86720868Y-52743617D02*
X86751106Y-52683141D01*
X86751106Y-52683141D02*
X86781344Y-52652903D01*
X86781344Y-52652903D02*
X86841820Y-52622665D01*
X86841820Y-52622665D02*
X86993011Y-52622665D01*
X86993011Y-52622665D02*
X87083725Y-52652903D01*
X87295392Y-52622665D02*
X87446582Y-53257665D01*
X87446582Y-53257665D02*
X87567535Y-52804093D01*
X87567535Y-52804093D02*
X87688487Y-53257665D01*
X87688487Y-53257665D02*
X87839678Y-52622665D01*
X88444439Y-53197188D02*
X88414201Y-53227427D01*
X88414201Y-53227427D02*
X88323487Y-53257665D01*
X88323487Y-53257665D02*
X88263011Y-53257665D01*
X88263011Y-53257665D02*
X88172296Y-53227427D01*
X88172296Y-53227427D02*
X88111820Y-53166950D01*
X88111820Y-53166950D02*
X88081582Y-53106474D01*
X88081582Y-53106474D02*
X88051344Y-52985522D01*
X88051344Y-52985522D02*
X88051344Y-52894807D01*
X88051344Y-52894807D02*
X88081582Y-52773855D01*
X88081582Y-52773855D02*
X88111820Y-52713379D01*
X88111820Y-52713379D02*
X88172296Y-52652903D01*
X88172296Y-52652903D02*
X88263011Y-52622665D01*
X88263011Y-52622665D02*
X88323487Y-52622665D01*
X88323487Y-52622665D02*
X88414201Y-52652903D01*
X88414201Y-52652903D02*
X88444439Y-52683141D01*
X89018963Y-53257665D02*
X88716582Y-53257665D01*
X88716582Y-53257665D02*
X88716582Y-52622665D01*
X89230630Y-53257665D02*
X89230630Y-52622665D01*
X89593487Y-53257665D02*
X89321344Y-52894807D01*
X89593487Y-52622665D02*
X89230630Y-52985522D01*
X90803012Y-53227427D02*
X90893726Y-53257665D01*
X90893726Y-53257665D02*
X91044917Y-53257665D01*
X91044917Y-53257665D02*
X91105393Y-53227427D01*
X91105393Y-53227427D02*
X91135631Y-53197188D01*
X91135631Y-53197188D02*
X91165869Y-53136712D01*
X91165869Y-53136712D02*
X91165869Y-53076236D01*
X91165869Y-53076236D02*
X91135631Y-53015760D01*
X91135631Y-53015760D02*
X91105393Y-52985522D01*
X91105393Y-52985522D02*
X91044917Y-52955284D01*
X91044917Y-52955284D02*
X90923964Y-52925046D01*
X90923964Y-52925046D02*
X90863488Y-52894807D01*
X90863488Y-52894807D02*
X90833250Y-52864569D01*
X90833250Y-52864569D02*
X90803012Y-52804093D01*
X90803012Y-52804093D02*
X90803012Y-52743617D01*
X90803012Y-52743617D02*
X90833250Y-52683141D01*
X90833250Y-52683141D02*
X90863488Y-52652903D01*
X90863488Y-52652903D02*
X90923964Y-52622665D01*
X90923964Y-52622665D02*
X91075155Y-52622665D01*
X91075155Y-52622665D02*
X91165869Y-52652903D01*
X91377536Y-52622665D02*
X91528726Y-53257665D01*
X91528726Y-53257665D02*
X91649679Y-52804093D01*
X91649679Y-52804093D02*
X91770631Y-53257665D01*
X91770631Y-53257665D02*
X91921822Y-52622665D01*
X92163726Y-53257665D02*
X92163726Y-52622665D01*
X92163726Y-52622665D02*
X92314916Y-52622665D01*
X92314916Y-52622665D02*
X92405631Y-52652903D01*
X92405631Y-52652903D02*
X92466107Y-52713379D01*
X92466107Y-52713379D02*
X92496345Y-52773855D01*
X92496345Y-52773855D02*
X92526583Y-52894807D01*
X92526583Y-52894807D02*
X92526583Y-52985522D01*
X92526583Y-52985522D02*
X92496345Y-53106474D01*
X92496345Y-53106474D02*
X92466107Y-53166950D01*
X92466107Y-53166950D02*
X92405631Y-53227427D01*
X92405631Y-53227427D02*
X92314916Y-53257665D01*
X92314916Y-53257665D02*
X92163726Y-53257665D01*
X92798726Y-53257665D02*
X92798726Y-52622665D01*
X93222059Y-52622665D02*
X93343012Y-52622665D01*
X93343012Y-52622665D02*
X93403488Y-52652903D01*
X93403488Y-52652903D02*
X93463964Y-52713379D01*
X93463964Y-52713379D02*
X93494202Y-52834331D01*
X93494202Y-52834331D02*
X93494202Y-53045998D01*
X93494202Y-53045998D02*
X93463964Y-53166950D01*
X93463964Y-53166950D02*
X93403488Y-53227427D01*
X93403488Y-53227427D02*
X93343012Y-53257665D01*
X93343012Y-53257665D02*
X93222059Y-53257665D01*
X93222059Y-53257665D02*
X93161583Y-53227427D01*
X93161583Y-53227427D02*
X93101107Y-53166950D01*
X93101107Y-53166950D02*
X93070869Y-53045998D01*
X93070869Y-53045998D02*
X93070869Y-52834331D01*
X93070869Y-52834331D02*
X93101107Y-52713379D01*
X93101107Y-52713379D02*
X93161583Y-52652903D01*
X93161583Y-52652903D02*
X93222059Y-52622665D01*
X95066584Y-52652903D02*
X95006108Y-52622665D01*
X95006108Y-52622665D02*
X94915394Y-52622665D01*
X94915394Y-52622665D02*
X94824679Y-52652903D01*
X94824679Y-52652903D02*
X94764203Y-52713379D01*
X94764203Y-52713379D02*
X94733965Y-52773855D01*
X94733965Y-52773855D02*
X94703727Y-52894807D01*
X94703727Y-52894807D02*
X94703727Y-52985522D01*
X94703727Y-52985522D02*
X94733965Y-53106474D01*
X94733965Y-53106474D02*
X94764203Y-53166950D01*
X94764203Y-53166950D02*
X94824679Y-53227427D01*
X94824679Y-53227427D02*
X94915394Y-53257665D01*
X94915394Y-53257665D02*
X94975870Y-53257665D01*
X94975870Y-53257665D02*
X95066584Y-53227427D01*
X95066584Y-53227427D02*
X95096822Y-53197188D01*
X95096822Y-53197188D02*
X95096822Y-52985522D01*
X95096822Y-52985522D02*
X94975870Y-52985522D01*
X95368965Y-53257665D02*
X95368965Y-52622665D01*
X95368965Y-52622665D02*
X95731822Y-53257665D01*
X95731822Y-53257665D02*
X95731822Y-52622665D01*
X96034203Y-53257665D02*
X96034203Y-52622665D01*
X96034203Y-52622665D02*
X96185393Y-52622665D01*
X96185393Y-52622665D02*
X96276108Y-52652903D01*
X96276108Y-52652903D02*
X96336584Y-52713379D01*
X96336584Y-52713379D02*
X96366822Y-52773855D01*
X96366822Y-52773855D02*
X96397060Y-52894807D01*
X96397060Y-52894807D02*
X96397060Y-52985522D01*
X96397060Y-52985522D02*
X96366822Y-53106474D01*
X96366822Y-53106474D02*
X96336584Y-53166950D01*
X96336584Y-53166950D02*
X96276108Y-53227427D01*
X96276108Y-53227427D02*
X96185393Y-53257665D01*
X96185393Y-53257665D02*
X96034203Y-53257665D01*
D11*
X91718508Y-69709773D02*
X92395842Y-69709773D01*
X92057175Y-70048440D02*
X92057175Y-69371107D01*
X91718508Y-72572253D02*
X92395842Y-72572253D01*
D10*
X76458057Y-52368665D02*
X76155676Y-52368665D01*
X76155676Y-52368665D02*
X76125438Y-52671046D01*
X76125438Y-52671046D02*
X76155676Y-52640807D01*
X76155676Y-52640807D02*
X76216152Y-52610569D01*
X76216152Y-52610569D02*
X76367343Y-52610569D01*
X76367343Y-52610569D02*
X76427819Y-52640807D01*
X76427819Y-52640807D02*
X76458057Y-52671046D01*
X76458057Y-52671046D02*
X76488295Y-52731522D01*
X76488295Y-52731522D02*
X76488295Y-52882712D01*
X76488295Y-52882712D02*
X76458057Y-52943188D01*
X76458057Y-52943188D02*
X76427819Y-52973427D01*
X76427819Y-52973427D02*
X76367343Y-53003665D01*
X76367343Y-53003665D02*
X76216152Y-53003665D01*
X76216152Y-53003665D02*
X76155676Y-52973427D01*
X76155676Y-52973427D02*
X76125438Y-52943188D01*
X76669724Y-52368665D02*
X76881390Y-53003665D01*
X76881390Y-53003665D02*
X77093057Y-52368665D01*
X78604963Y-52398903D02*
X78544487Y-52368665D01*
X78544487Y-52368665D02*
X78453773Y-52368665D01*
X78453773Y-52368665D02*
X78363058Y-52398903D01*
X78363058Y-52398903D02*
X78302582Y-52459379D01*
X78302582Y-52459379D02*
X78272344Y-52519855D01*
X78272344Y-52519855D02*
X78242106Y-52640807D01*
X78242106Y-52640807D02*
X78242106Y-52731522D01*
X78242106Y-52731522D02*
X78272344Y-52852474D01*
X78272344Y-52852474D02*
X78302582Y-52912950D01*
X78302582Y-52912950D02*
X78363058Y-52973427D01*
X78363058Y-52973427D02*
X78453773Y-53003665D01*
X78453773Y-53003665D02*
X78514249Y-53003665D01*
X78514249Y-53003665D02*
X78604963Y-52973427D01*
X78604963Y-52973427D02*
X78635201Y-52943188D01*
X78635201Y-52943188D02*
X78635201Y-52731522D01*
X78635201Y-52731522D02*
X78514249Y-52731522D01*
X78907344Y-53003665D02*
X78907344Y-52368665D01*
X78907344Y-52368665D02*
X79270201Y-53003665D01*
X79270201Y-53003665D02*
X79270201Y-52368665D01*
X79572582Y-53003665D02*
X79572582Y-52368665D01*
X79572582Y-52368665D02*
X79723772Y-52368665D01*
X79723772Y-52368665D02*
X79814487Y-52398903D01*
X79814487Y-52398903D02*
X79874963Y-52459379D01*
X79874963Y-52459379D02*
X79905201Y-52519855D01*
X79905201Y-52519855D02*
X79935439Y-52640807D01*
X79935439Y-52640807D02*
X79935439Y-52731522D01*
X79935439Y-52731522D02*
X79905201Y-52852474D01*
X79905201Y-52852474D02*
X79874963Y-52912950D01*
X79874963Y-52912950D02*
X79814487Y-52973427D01*
X79814487Y-52973427D02*
X79723772Y-53003665D01*
X79723772Y-53003665D02*
X79572582Y-53003665D01*
D11*
X66384396Y-63373122D02*
X66887558Y-63373122D01*
X66887558Y-63373122D02*
X66616624Y-63682760D01*
X66616624Y-63682760D02*
X66732739Y-63682760D01*
X66732739Y-63682760D02*
X66810148Y-63721465D01*
X66810148Y-63721465D02*
X66848853Y-63760170D01*
X66848853Y-63760170D02*
X66887558Y-63837579D01*
X66887558Y-63837579D02*
X66887558Y-64031103D01*
X66887558Y-64031103D02*
X66848853Y-64108513D01*
X66848853Y-64108513D02*
X66810148Y-64147218D01*
X66810148Y-64147218D02*
X66732739Y-64185922D01*
X66732739Y-64185922D02*
X66500510Y-64185922D01*
X66500510Y-64185922D02*
X66423101Y-64147218D01*
X66423101Y-64147218D02*
X66384396Y-64108513D01*
X67119786Y-63373122D02*
X67390719Y-64185922D01*
X67390719Y-64185922D02*
X67661653Y-63373122D01*
X67855177Y-63373122D02*
X68358339Y-63373122D01*
X68358339Y-63373122D02*
X68087405Y-63682760D01*
X68087405Y-63682760D02*
X68203520Y-63682760D01*
X68203520Y-63682760D02*
X68280929Y-63721465D01*
X68280929Y-63721465D02*
X68319634Y-63760170D01*
X68319634Y-63760170D02*
X68358339Y-63837579D01*
X68358339Y-63837579D02*
X68358339Y-64031103D01*
X68358339Y-64031103D02*
X68319634Y-64108513D01*
X68319634Y-64108513D02*
X68280929Y-64147218D01*
X68280929Y-64147218D02*
X68203520Y-64185922D01*
X68203520Y-64185922D02*
X67971291Y-64185922D01*
X67971291Y-64185922D02*
X67893882Y-64147218D01*
X67893882Y-64147218D02*
X67855177Y-64108513D01*
X66423100Y-66803046D02*
X66423100Y-65990246D01*
X66423100Y-65990246D02*
X66732738Y-65990246D01*
X66732738Y-65990246D02*
X66810148Y-66028951D01*
X66810148Y-66028951D02*
X66848853Y-66067656D01*
X66848853Y-66067656D02*
X66887557Y-66145065D01*
X66887557Y-66145065D02*
X66887557Y-66261180D01*
X66887557Y-66261180D02*
X66848853Y-66338589D01*
X66848853Y-66338589D02*
X66810148Y-66377294D01*
X66810148Y-66377294D02*
X66732738Y-66415999D01*
X66732738Y-66415999D02*
X66423100Y-66415999D01*
X67506834Y-66377294D02*
X67235900Y-66377294D01*
X67235900Y-66803046D02*
X67235900Y-65990246D01*
X67235900Y-65990246D02*
X67622948Y-65990246D01*
X68358339Y-66803046D02*
X67893882Y-66803046D01*
X68126110Y-66803046D02*
X68126110Y-65990246D01*
X68126110Y-65990246D02*
X68048701Y-66106361D01*
X68048701Y-66106361D02*
X67971291Y-66183770D01*
X67971291Y-66183770D02*
X67893882Y-66222475D01*
X66423100Y-69420170D02*
X66423100Y-68607370D01*
X66423100Y-68607370D02*
X66732738Y-68607370D01*
X66732738Y-68607370D02*
X66810148Y-68646075D01*
X66810148Y-68646075D02*
X66848853Y-68684780D01*
X66848853Y-68684780D02*
X66887557Y-68762189D01*
X66887557Y-68762189D02*
X66887557Y-68878304D01*
X66887557Y-68878304D02*
X66848853Y-68955713D01*
X66848853Y-68955713D02*
X66810148Y-68994418D01*
X66810148Y-68994418D02*
X66732738Y-69033123D01*
X66732738Y-69033123D02*
X66423100Y-69033123D01*
X67197196Y-69187942D02*
X67584243Y-69187942D01*
X67119786Y-69420170D02*
X67390719Y-68607370D01*
X67390719Y-68607370D02*
X67661653Y-69420170D01*
X68358339Y-69420170D02*
X67893882Y-69420170D01*
X68126110Y-69420170D02*
X68126110Y-68607370D01*
X68126110Y-68607370D02*
X68048701Y-68723485D01*
X68048701Y-68723485D02*
X67971291Y-68800894D01*
X67971291Y-68800894D02*
X67893882Y-68839599D01*
X66423100Y-72037294D02*
X66423100Y-71224494D01*
X66423100Y-71224494D02*
X66732738Y-71224494D01*
X66732738Y-71224494D02*
X66810148Y-71263199D01*
X66810148Y-71263199D02*
X66848853Y-71301904D01*
X66848853Y-71301904D02*
X66887557Y-71379313D01*
X66887557Y-71379313D02*
X66887557Y-71495428D01*
X66887557Y-71495428D02*
X66848853Y-71572837D01*
X66848853Y-71572837D02*
X66810148Y-71611542D01*
X66810148Y-71611542D02*
X66732738Y-71650247D01*
X66732738Y-71650247D02*
X66423100Y-71650247D01*
X67197196Y-71805066D02*
X67584243Y-71805066D01*
X67119786Y-72037294D02*
X67390719Y-71224494D01*
X67390719Y-71224494D02*
X67661653Y-72037294D01*
X67855177Y-71224494D02*
X68358339Y-71224494D01*
X68358339Y-71224494D02*
X68087405Y-71534132D01*
X68087405Y-71534132D02*
X68203520Y-71534132D01*
X68203520Y-71534132D02*
X68280929Y-71572837D01*
X68280929Y-71572837D02*
X68319634Y-71611542D01*
X68319634Y-71611542D02*
X68358339Y-71688951D01*
X68358339Y-71688951D02*
X68358339Y-71882475D01*
X68358339Y-71882475D02*
X68319634Y-71959885D01*
X68319634Y-71959885D02*
X68280929Y-71998590D01*
X68280929Y-71998590D02*
X68203520Y-72037294D01*
X68203520Y-72037294D02*
X67971291Y-72037294D01*
X67971291Y-72037294D02*
X67893882Y-71998590D01*
X67893882Y-71998590D02*
X67855177Y-71959885D01*
X66423100Y-74654418D02*
X66423100Y-73841618D01*
X66423100Y-73841618D02*
X66732738Y-73841618D01*
X66732738Y-73841618D02*
X66810148Y-73880323D01*
X66810148Y-73880323D02*
X66848853Y-73919028D01*
X66848853Y-73919028D02*
X66887557Y-73996437D01*
X66887557Y-73996437D02*
X66887557Y-74112552D01*
X66887557Y-74112552D02*
X66848853Y-74189961D01*
X66848853Y-74189961D02*
X66810148Y-74228666D01*
X66810148Y-74228666D02*
X66732738Y-74267371D01*
X66732738Y-74267371D02*
X66423100Y-74267371D01*
X67197196Y-74422190D02*
X67584243Y-74422190D01*
X67119786Y-74654418D02*
X67390719Y-73841618D01*
X67390719Y-73841618D02*
X67661653Y-74654418D01*
X68319634Y-73841618D02*
X67932586Y-73841618D01*
X67932586Y-73841618D02*
X67893882Y-74228666D01*
X67893882Y-74228666D02*
X67932586Y-74189961D01*
X67932586Y-74189961D02*
X68009996Y-74151256D01*
X68009996Y-74151256D02*
X68203520Y-74151256D01*
X68203520Y-74151256D02*
X68280929Y-74189961D01*
X68280929Y-74189961D02*
X68319634Y-74228666D01*
X68319634Y-74228666D02*
X68358339Y-74306075D01*
X68358339Y-74306075D02*
X68358339Y-74499599D01*
X68358339Y-74499599D02*
X68319634Y-74577009D01*
X68319634Y-74577009D02*
X68280929Y-74615714D01*
X68280929Y-74615714D02*
X68203520Y-74654418D01*
X68203520Y-74654418D02*
X68009996Y-74654418D01*
X68009996Y-74654418D02*
X67932586Y-74615714D01*
X67932586Y-74615714D02*
X67893882Y-74577009D01*
X66423100Y-77271542D02*
X66423100Y-76458742D01*
X66423100Y-76458742D02*
X66732738Y-76458742D01*
X66732738Y-76458742D02*
X66810148Y-76497447D01*
X66810148Y-76497447D02*
X66848853Y-76536152D01*
X66848853Y-76536152D02*
X66887557Y-76613561D01*
X66887557Y-76613561D02*
X66887557Y-76729676D01*
X66887557Y-76729676D02*
X66848853Y-76807085D01*
X66848853Y-76807085D02*
X66810148Y-76845790D01*
X66810148Y-76845790D02*
X66732738Y-76884495D01*
X66732738Y-76884495D02*
X66423100Y-76884495D01*
X67197196Y-77039314D02*
X67584243Y-77039314D01*
X67119786Y-77271542D02*
X67390719Y-76458742D01*
X67390719Y-76458742D02*
X67661653Y-77271542D01*
X67855177Y-76458742D02*
X68397043Y-76458742D01*
X68397043Y-76458742D02*
X68048701Y-77271542D01*
D12*
X93331312Y-57943180D02*
X93283693Y-57990800D01*
X93283693Y-57990800D02*
X93140836Y-58038419D01*
X93140836Y-58038419D02*
X93045598Y-58038419D01*
X93045598Y-58038419D02*
X92902741Y-57990800D01*
X92902741Y-57990800D02*
X92807503Y-57895561D01*
X92807503Y-57895561D02*
X92759884Y-57800323D01*
X92759884Y-57800323D02*
X92712265Y-57609847D01*
X92712265Y-57609847D02*
X92712265Y-57466990D01*
X92712265Y-57466990D02*
X92759884Y-57276514D01*
X92759884Y-57276514D02*
X92807503Y-57181276D01*
X92807503Y-57181276D02*
X92902741Y-57086038D01*
X92902741Y-57086038D02*
X93045598Y-57038419D01*
X93045598Y-57038419D02*
X93140836Y-57038419D01*
X93140836Y-57038419D02*
X93283693Y-57086038D01*
X93283693Y-57086038D02*
X93331312Y-57133657D01*
X93712265Y-57752704D02*
X94188455Y-57752704D01*
X93617027Y-58038419D02*
X93950360Y-57038419D01*
X93950360Y-57038419D02*
X94283693Y-58038419D01*
X94617027Y-58038419D02*
X94617027Y-57038419D01*
X94617027Y-57038419D02*
X95188455Y-58038419D01*
X95188455Y-58038419D02*
X95188455Y-57038419D01*
X96759884Y-57514609D02*
X96902741Y-57562228D01*
X96902741Y-57562228D02*
X96950360Y-57609847D01*
X96950360Y-57609847D02*
X96997979Y-57705085D01*
X96997979Y-57705085D02*
X96997979Y-57847942D01*
X96997979Y-57847942D02*
X96950360Y-57943180D01*
X96950360Y-57943180D02*
X96902741Y-57990800D01*
X96902741Y-57990800D02*
X96807503Y-58038419D01*
X96807503Y-58038419D02*
X96426551Y-58038419D01*
X96426551Y-58038419D02*
X96426551Y-57038419D01*
X96426551Y-57038419D02*
X96759884Y-57038419D01*
X96759884Y-57038419D02*
X96855122Y-57086038D01*
X96855122Y-57086038D02*
X96902741Y-57133657D01*
X96902741Y-57133657D02*
X96950360Y-57228895D01*
X96950360Y-57228895D02*
X96950360Y-57324133D01*
X96950360Y-57324133D02*
X96902741Y-57419371D01*
X96902741Y-57419371D02*
X96855122Y-57466990D01*
X96855122Y-57466990D02*
X96759884Y-57514609D01*
X96759884Y-57514609D02*
X96426551Y-57514609D01*
X97855122Y-57371752D02*
X97855122Y-58038419D01*
X97426551Y-57371752D02*
X97426551Y-57895561D01*
X97426551Y-57895561D02*
X97474170Y-57990800D01*
X97474170Y-57990800D02*
X97569408Y-58038419D01*
X97569408Y-58038419D02*
X97712265Y-58038419D01*
X97712265Y-58038419D02*
X97807503Y-57990800D01*
X97807503Y-57990800D02*
X97855122Y-57943180D01*
X98283694Y-57990800D02*
X98378932Y-58038419D01*
X98378932Y-58038419D02*
X98569408Y-58038419D01*
X98569408Y-58038419D02*
X98664646Y-57990800D01*
X98664646Y-57990800D02*
X98712265Y-57895561D01*
X98712265Y-57895561D02*
X98712265Y-57847942D01*
X98712265Y-57847942D02*
X98664646Y-57752704D01*
X98664646Y-57752704D02*
X98569408Y-57705085D01*
X98569408Y-57705085D02*
X98426551Y-57705085D01*
X98426551Y-57705085D02*
X98331313Y-57657466D01*
X98331313Y-57657466D02*
X98283694Y-57562228D01*
X98283694Y-57562228D02*
X98283694Y-57514609D01*
X98283694Y-57514609D02*
X98331313Y-57419371D01*
X98331313Y-57419371D02*
X98426551Y-57371752D01*
X98426551Y-57371752D02*
X98569408Y-57371752D01*
X98569408Y-57371752D02*
X98664646Y-57419371D01*
D13*
X91640819Y-75350666D02*
X91164628Y-75683999D01*
X91640819Y-75922094D02*
X90640819Y-75922094D01*
X90640819Y-75922094D02*
X90640819Y-75541142D01*
X90640819Y-75541142D02*
X90688438Y-75445904D01*
X90688438Y-75445904D02*
X90736057Y-75398285D01*
X90736057Y-75398285D02*
X90831295Y-75350666D01*
X90831295Y-75350666D02*
X90974152Y-75350666D01*
X90974152Y-75350666D02*
X91069390Y-75398285D01*
X91069390Y-75398285D02*
X91117009Y-75445904D01*
X91117009Y-75445904D02*
X91164628Y-75541142D01*
X91164628Y-75541142D02*
X91164628Y-75922094D01*
X91640819Y-74398285D02*
X91640819Y-74969713D01*
X91640819Y-74683999D02*
X90640819Y-74683999D01*
X90640819Y-74683999D02*
X90783676Y-74779237D01*
X90783676Y-74779237D02*
X90878914Y-74874475D01*
X90878914Y-74874475D02*
X90926533Y-74969713D01*
X86306819Y-75350666D02*
X85830628Y-75683999D01*
X86306819Y-75922094D02*
X85306819Y-75922094D01*
X85306819Y-75922094D02*
X85306819Y-75541142D01*
X85306819Y-75541142D02*
X85354438Y-75445904D01*
X85354438Y-75445904D02*
X85402057Y-75398285D01*
X85402057Y-75398285D02*
X85497295Y-75350666D01*
X85497295Y-75350666D02*
X85640152Y-75350666D01*
X85640152Y-75350666D02*
X85735390Y-75398285D01*
X85735390Y-75398285D02*
X85783009Y-75445904D01*
X85783009Y-75445904D02*
X85830628Y-75541142D01*
X85830628Y-75541142D02*
X85830628Y-75922094D01*
X85402057Y-74969713D02*
X85354438Y-74922094D01*
X85354438Y-74922094D02*
X85306819Y-74826856D01*
X85306819Y-74826856D02*
X85306819Y-74588761D01*
X85306819Y-74588761D02*
X85354438Y-74493523D01*
X85354438Y-74493523D02*
X85402057Y-74445904D01*
X85402057Y-74445904D02*
X85497295Y-74398285D01*
X85497295Y-74398285D02*
X85592533Y-74398285D01*
X85592533Y-74398285D02*
X85735390Y-74445904D01*
X85735390Y-74445904D02*
X86306819Y-75017332D01*
X86306819Y-75017332D02*
X86306819Y-74398285D01*
X84687580Y-70270666D02*
X84735200Y-70318285D01*
X84735200Y-70318285D02*
X84782819Y-70461142D01*
X84782819Y-70461142D02*
X84782819Y-70556380D01*
X84782819Y-70556380D02*
X84735200Y-70699237D01*
X84735200Y-70699237D02*
X84639961Y-70794475D01*
X84639961Y-70794475D02*
X84544723Y-70842094D01*
X84544723Y-70842094D02*
X84354247Y-70889713D01*
X84354247Y-70889713D02*
X84211390Y-70889713D01*
X84211390Y-70889713D02*
X84020914Y-70842094D01*
X84020914Y-70842094D02*
X83925676Y-70794475D01*
X83925676Y-70794475D02*
X83830438Y-70699237D01*
X83830438Y-70699237D02*
X83782819Y-70556380D01*
X83782819Y-70556380D02*
X83782819Y-70461142D01*
X83782819Y-70461142D02*
X83830438Y-70318285D01*
X83830438Y-70318285D02*
X83878057Y-70270666D01*
X83878057Y-69889713D02*
X83830438Y-69842094D01*
X83830438Y-69842094D02*
X83782819Y-69746856D01*
X83782819Y-69746856D02*
X83782819Y-69508761D01*
X83782819Y-69508761D02*
X83830438Y-69413523D01*
X83830438Y-69413523D02*
X83878057Y-69365904D01*
X83878057Y-69365904D02*
X83973295Y-69318285D01*
X83973295Y-69318285D02*
X84068533Y-69318285D01*
X84068533Y-69318285D02*
X84211390Y-69365904D01*
X84211390Y-69365904D02*
X84782819Y-69937332D01*
X84782819Y-69937332D02*
X84782819Y-69318285D01*
X97014833Y-76813580D02*
X96967214Y-76861200D01*
X96967214Y-76861200D02*
X96824357Y-76908819D01*
X96824357Y-76908819D02*
X96729119Y-76908819D01*
X96729119Y-76908819D02*
X96586262Y-76861200D01*
X96586262Y-76861200D02*
X96491024Y-76765961D01*
X96491024Y-76765961D02*
X96443405Y-76670723D01*
X96443405Y-76670723D02*
X96395786Y-76480247D01*
X96395786Y-76480247D02*
X96395786Y-76337390D01*
X96395786Y-76337390D02*
X96443405Y-76146914D01*
X96443405Y-76146914D02*
X96491024Y-76051676D01*
X96491024Y-76051676D02*
X96586262Y-75956438D01*
X96586262Y-75956438D02*
X96729119Y-75908819D01*
X96729119Y-75908819D02*
X96824357Y-75908819D01*
X96824357Y-75908819D02*
X96967214Y-75956438D01*
X96967214Y-75956438D02*
X97014833Y-76004057D01*
X97348167Y-75908819D02*
X97967214Y-75908819D01*
X97967214Y-75908819D02*
X97633881Y-76289771D01*
X97633881Y-76289771D02*
X97776738Y-76289771D01*
X97776738Y-76289771D02*
X97871976Y-76337390D01*
X97871976Y-76337390D02*
X97919595Y-76385009D01*
X97919595Y-76385009D02*
X97967214Y-76480247D01*
X97967214Y-76480247D02*
X97967214Y-76718342D01*
X97967214Y-76718342D02*
X97919595Y-76813580D01*
X97919595Y-76813580D02*
X97871976Y-76861200D01*
X97871976Y-76861200D02*
X97776738Y-76908819D01*
X97776738Y-76908819D02*
X97491024Y-76908819D01*
X97491024Y-76908819D02*
X97395786Y-76861200D01*
X97395786Y-76861200D02*
X97348167Y-76813580D01*
X79684666Y-66974819D02*
X79684666Y-67689104D01*
X79684666Y-67689104D02*
X79637047Y-67831961D01*
X79637047Y-67831961D02*
X79541809Y-67927200D01*
X79541809Y-67927200D02*
X79398952Y-67974819D01*
X79398952Y-67974819D02*
X79303714Y-67974819D01*
X80160857Y-67974819D02*
X80160857Y-66974819D01*
X80160857Y-66974819D02*
X80541809Y-66974819D01*
X80541809Y-66974819D02*
X80637047Y-67022438D01*
X80637047Y-67022438D02*
X80684666Y-67070057D01*
X80684666Y-67070057D02*
X80732285Y-67165295D01*
X80732285Y-67165295D02*
X80732285Y-67308152D01*
X80732285Y-67308152D02*
X80684666Y-67403390D01*
X80684666Y-67403390D02*
X80637047Y-67451009D01*
X80637047Y-67451009D02*
X80541809Y-67498628D01*
X80541809Y-67498628D02*
X80160857Y-67498628D01*
X81113238Y-67070057D02*
X81160857Y-67022438D01*
X81160857Y-67022438D02*
X81256095Y-66974819D01*
X81256095Y-66974819D02*
X81494190Y-66974819D01*
X81494190Y-66974819D02*
X81589428Y-67022438D01*
X81589428Y-67022438D02*
X81637047Y-67070057D01*
X81637047Y-67070057D02*
X81684666Y-67165295D01*
X81684666Y-67165295D02*
X81684666Y-67260533D01*
X81684666Y-67260533D02*
X81637047Y-67403390D01*
X81637047Y-67403390D02*
X81065619Y-67974819D01*
X81065619Y-67974819D02*
X81684666Y-67974819D01*
X67397333Y-57001580D02*
X67349714Y-57049200D01*
X67349714Y-57049200D02*
X67206857Y-57096819D01*
X67206857Y-57096819D02*
X67111619Y-57096819D01*
X67111619Y-57096819D02*
X66968762Y-57049200D01*
X66968762Y-57049200D02*
X66873524Y-56953961D01*
X66873524Y-56953961D02*
X66825905Y-56858723D01*
X66825905Y-56858723D02*
X66778286Y-56668247D01*
X66778286Y-56668247D02*
X66778286Y-56525390D01*
X66778286Y-56525390D02*
X66825905Y-56334914D01*
X66825905Y-56334914D02*
X66873524Y-56239676D01*
X66873524Y-56239676D02*
X66968762Y-56144438D01*
X66968762Y-56144438D02*
X67111619Y-56096819D01*
X67111619Y-56096819D02*
X67206857Y-56096819D01*
X67206857Y-56096819D02*
X67349714Y-56144438D01*
X67349714Y-56144438D02*
X67397333Y-56192057D01*
X67873524Y-57096819D02*
X68064000Y-57096819D01*
X68064000Y-57096819D02*
X68159238Y-57049200D01*
X68159238Y-57049200D02*
X68206857Y-57001580D01*
X68206857Y-57001580D02*
X68302095Y-56858723D01*
X68302095Y-56858723D02*
X68349714Y-56668247D01*
X68349714Y-56668247D02*
X68349714Y-56287295D01*
X68349714Y-56287295D02*
X68302095Y-56192057D01*
X68302095Y-56192057D02*
X68254476Y-56144438D01*
X68254476Y-56144438D02*
X68159238Y-56096819D01*
X68159238Y-56096819D02*
X67968762Y-56096819D01*
X67968762Y-56096819D02*
X67873524Y-56144438D01*
X67873524Y-56144438D02*
X67825905Y-56192057D01*
X67825905Y-56192057D02*
X67778286Y-56287295D01*
X67778286Y-56287295D02*
X67778286Y-56525390D01*
X67778286Y-56525390D02*
X67825905Y-56620628D01*
X67825905Y-56620628D02*
X67873524Y-56668247D01*
X67873524Y-56668247D02*
X67968762Y-56715866D01*
X67968762Y-56715866D02*
X68159238Y-56715866D01*
X68159238Y-56715866D02*
X68254476Y-56668247D01*
X68254476Y-56668247D02*
X68302095Y-56620628D01*
X68302095Y-56620628D02*
X68349714Y-56525390D01*
X77978095Y-61811819D02*
X77978095Y-62621342D01*
X77978095Y-62621342D02*
X78025714Y-62716580D01*
X78025714Y-62716580D02*
X78073333Y-62764200D01*
X78073333Y-62764200D02*
X78168571Y-62811819D01*
X78168571Y-62811819D02*
X78359047Y-62811819D01*
X78359047Y-62811819D02*
X78454285Y-62764200D01*
X78454285Y-62764200D02*
X78501904Y-62716580D01*
X78501904Y-62716580D02*
X78549523Y-62621342D01*
X78549523Y-62621342D02*
X78549523Y-61811819D01*
X79549523Y-62811819D02*
X78978095Y-62811819D01*
X79263809Y-62811819D02*
X79263809Y-61811819D01*
X79263809Y-61811819D02*
X79168571Y-61954676D01*
X79168571Y-61954676D02*
X79073333Y-62049914D01*
X79073333Y-62049914D02*
X78978095Y-62097533D01*
X89140833Y-57793580D02*
X89093214Y-57841200D01*
X89093214Y-57841200D02*
X88950357Y-57888819D01*
X88950357Y-57888819D02*
X88855119Y-57888819D01*
X88855119Y-57888819D02*
X88712262Y-57841200D01*
X88712262Y-57841200D02*
X88617024Y-57745961D01*
X88617024Y-57745961D02*
X88569405Y-57650723D01*
X88569405Y-57650723D02*
X88521786Y-57460247D01*
X88521786Y-57460247D02*
X88521786Y-57317390D01*
X88521786Y-57317390D02*
X88569405Y-57126914D01*
X88569405Y-57126914D02*
X88617024Y-57031676D01*
X88617024Y-57031676D02*
X88712262Y-56936438D01*
X88712262Y-56936438D02*
X88855119Y-56888819D01*
X88855119Y-56888819D02*
X88950357Y-56888819D01*
X88950357Y-56888819D02*
X89093214Y-56936438D01*
X89093214Y-56936438D02*
X89140833Y-56984057D01*
X90045595Y-56888819D02*
X89569405Y-56888819D01*
X89569405Y-56888819D02*
X89521786Y-57365009D01*
X89521786Y-57365009D02*
X89569405Y-57317390D01*
X89569405Y-57317390D02*
X89664643Y-57269771D01*
X89664643Y-57269771D02*
X89902738Y-57269771D01*
X89902738Y-57269771D02*
X89997976Y-57317390D01*
X89997976Y-57317390D02*
X90045595Y-57365009D01*
X90045595Y-57365009D02*
X90093214Y-57460247D01*
X90093214Y-57460247D02*
X90093214Y-57698342D01*
X90093214Y-57698342D02*
X90045595Y-57793580D01*
X90045595Y-57793580D02*
X89997976Y-57841200D01*
X89997976Y-57841200D02*
X89902738Y-57888819D01*
X89902738Y-57888819D02*
X89664643Y-57888819D01*
X89664643Y-57888819D02*
X89569405Y-57841200D01*
X89569405Y-57841200D02*
X89521786Y-57793580D01*
X84798819Y-68579904D02*
X85608342Y-68579904D01*
X85608342Y-68579904D02*
X85703580Y-68532285D01*
X85703580Y-68532285D02*
X85751200Y-68484666D01*
X85751200Y-68484666D02*
X85798819Y-68389428D01*
X85798819Y-68389428D02*
X85798819Y-68198952D01*
X85798819Y-68198952D02*
X85751200Y-68103714D01*
X85751200Y-68103714D02*
X85703580Y-68056095D01*
X85703580Y-68056095D02*
X85608342Y-68008476D01*
X85608342Y-68008476D02*
X84798819Y-68008476D01*
X84894057Y-67579904D02*
X84846438Y-67532285D01*
X84846438Y-67532285D02*
X84798819Y-67437047D01*
X84798819Y-67437047D02*
X84798819Y-67198952D01*
X84798819Y-67198952D02*
X84846438Y-67103714D01*
X84846438Y-67103714D02*
X84894057Y-67056095D01*
X84894057Y-67056095D02*
X84989295Y-67008476D01*
X84989295Y-67008476D02*
X85084533Y-67008476D01*
X85084533Y-67008476D02*
X85227390Y-67056095D01*
X85227390Y-67056095D02*
X85798819Y-67627523D01*
X85798819Y-67627523D02*
X85798819Y-67008476D01*
X67497833Y-58999580D02*
X67450214Y-59047200D01*
X67450214Y-59047200D02*
X67307357Y-59094819D01*
X67307357Y-59094819D02*
X67212119Y-59094819D01*
X67212119Y-59094819D02*
X67069262Y-59047200D01*
X67069262Y-59047200D02*
X66974024Y-58951961D01*
X66974024Y-58951961D02*
X66926405Y-58856723D01*
X66926405Y-58856723D02*
X66878786Y-58666247D01*
X66878786Y-58666247D02*
X66878786Y-58523390D01*
X66878786Y-58523390D02*
X66926405Y-58332914D01*
X66926405Y-58332914D02*
X66974024Y-58237676D01*
X66974024Y-58237676D02*
X67069262Y-58142438D01*
X67069262Y-58142438D02*
X67212119Y-58094819D01*
X67212119Y-58094819D02*
X67307357Y-58094819D01*
X67307357Y-58094819D02*
X67450214Y-58142438D01*
X67450214Y-58142438D02*
X67497833Y-58190057D01*
X68069262Y-58523390D02*
X67974024Y-58475771D01*
X67974024Y-58475771D02*
X67926405Y-58428152D01*
X67926405Y-58428152D02*
X67878786Y-58332914D01*
X67878786Y-58332914D02*
X67878786Y-58285295D01*
X67878786Y-58285295D02*
X67926405Y-58190057D01*
X67926405Y-58190057D02*
X67974024Y-58142438D01*
X67974024Y-58142438D02*
X68069262Y-58094819D01*
X68069262Y-58094819D02*
X68259738Y-58094819D01*
X68259738Y-58094819D02*
X68354976Y-58142438D01*
X68354976Y-58142438D02*
X68402595Y-58190057D01*
X68402595Y-58190057D02*
X68450214Y-58285295D01*
X68450214Y-58285295D02*
X68450214Y-58332914D01*
X68450214Y-58332914D02*
X68402595Y-58428152D01*
X68402595Y-58428152D02*
X68354976Y-58475771D01*
X68354976Y-58475771D02*
X68259738Y-58523390D01*
X68259738Y-58523390D02*
X68069262Y-58523390D01*
X68069262Y-58523390D02*
X67974024Y-58571009D01*
X67974024Y-58571009D02*
X67926405Y-58618628D01*
X67926405Y-58618628D02*
X67878786Y-58713866D01*
X67878786Y-58713866D02*
X67878786Y-58904342D01*
X67878786Y-58904342D02*
X67926405Y-58999580D01*
X67926405Y-58999580D02*
X67974024Y-59047200D01*
X67974024Y-59047200D02*
X68069262Y-59094819D01*
X68069262Y-59094819D02*
X68259738Y-59094819D01*
X68259738Y-59094819D02*
X68354976Y-59047200D01*
X68354976Y-59047200D02*
X68402595Y-58999580D01*
X68402595Y-58999580D02*
X68450214Y-58904342D01*
X68450214Y-58904342D02*
X68450214Y-58713866D01*
X68450214Y-58713866D02*
X68402595Y-58618628D01*
X68402595Y-58618628D02*
X68354976Y-58571009D01*
X68354976Y-58571009D02*
X68259738Y-58523390D01*
X89140833Y-59795580D02*
X89093214Y-59843200D01*
X89093214Y-59843200D02*
X88950357Y-59890819D01*
X88950357Y-59890819D02*
X88855119Y-59890819D01*
X88855119Y-59890819D02*
X88712262Y-59843200D01*
X88712262Y-59843200D02*
X88617024Y-59747961D01*
X88617024Y-59747961D02*
X88569405Y-59652723D01*
X88569405Y-59652723D02*
X88521786Y-59462247D01*
X88521786Y-59462247D02*
X88521786Y-59319390D01*
X88521786Y-59319390D02*
X88569405Y-59128914D01*
X88569405Y-59128914D02*
X88617024Y-59033676D01*
X88617024Y-59033676D02*
X88712262Y-58938438D01*
X88712262Y-58938438D02*
X88855119Y-58890819D01*
X88855119Y-58890819D02*
X88950357Y-58890819D01*
X88950357Y-58890819D02*
X89093214Y-58938438D01*
X89093214Y-58938438D02*
X89140833Y-58986057D01*
X89997976Y-58890819D02*
X89807500Y-58890819D01*
X89807500Y-58890819D02*
X89712262Y-58938438D01*
X89712262Y-58938438D02*
X89664643Y-58986057D01*
X89664643Y-58986057D02*
X89569405Y-59128914D01*
X89569405Y-59128914D02*
X89521786Y-59319390D01*
X89521786Y-59319390D02*
X89521786Y-59700342D01*
X89521786Y-59700342D02*
X89569405Y-59795580D01*
X89569405Y-59795580D02*
X89617024Y-59843200D01*
X89617024Y-59843200D02*
X89712262Y-59890819D01*
X89712262Y-59890819D02*
X89902738Y-59890819D01*
X89902738Y-59890819D02*
X89997976Y-59843200D01*
X89997976Y-59843200D02*
X90045595Y-59795580D01*
X90045595Y-59795580D02*
X90093214Y-59700342D01*
X90093214Y-59700342D02*
X90093214Y-59462247D01*
X90093214Y-59462247D02*
X90045595Y-59367009D01*
X90045595Y-59367009D02*
X89997976Y-59319390D01*
X89997976Y-59319390D02*
X89902738Y-59271771D01*
X89902738Y-59271771D02*
X89712262Y-59271771D01*
X89712262Y-59271771D02*
X89617024Y-59319390D01*
X89617024Y-59319390D02*
X89569405Y-59367009D01*
X89569405Y-59367009D02*
X89521786Y-59462247D01*
X86547833Y-64367580D02*
X86500214Y-64415200D01*
X86500214Y-64415200D02*
X86357357Y-64462819D01*
X86357357Y-64462819D02*
X86262119Y-64462819D01*
X86262119Y-64462819D02*
X86119262Y-64415200D01*
X86119262Y-64415200D02*
X86024024Y-64319961D01*
X86024024Y-64319961D02*
X85976405Y-64224723D01*
X85976405Y-64224723D02*
X85928786Y-64034247D01*
X85928786Y-64034247D02*
X85928786Y-63891390D01*
X85928786Y-63891390D02*
X85976405Y-63700914D01*
X85976405Y-63700914D02*
X86024024Y-63605676D01*
X86024024Y-63605676D02*
X86119262Y-63510438D01*
X86119262Y-63510438D02*
X86262119Y-63462819D01*
X86262119Y-63462819D02*
X86357357Y-63462819D01*
X86357357Y-63462819D02*
X86500214Y-63510438D01*
X86500214Y-63510438D02*
X86547833Y-63558057D01*
X87500214Y-64462819D02*
X86928786Y-64462819D01*
X87214500Y-64462819D02*
X87214500Y-63462819D01*
X87214500Y-63462819D02*
X87119262Y-63605676D01*
X87119262Y-63605676D02*
X87024024Y-63700914D01*
X87024024Y-63700914D02*
X86928786Y-63748533D01*
X67497833Y-61061580D02*
X67450214Y-61109200D01*
X67450214Y-61109200D02*
X67307357Y-61156819D01*
X67307357Y-61156819D02*
X67212119Y-61156819D01*
X67212119Y-61156819D02*
X67069262Y-61109200D01*
X67069262Y-61109200D02*
X66974024Y-61013961D01*
X66974024Y-61013961D02*
X66926405Y-60918723D01*
X66926405Y-60918723D02*
X66878786Y-60728247D01*
X66878786Y-60728247D02*
X66878786Y-60585390D01*
X66878786Y-60585390D02*
X66926405Y-60394914D01*
X66926405Y-60394914D02*
X66974024Y-60299676D01*
X66974024Y-60299676D02*
X67069262Y-60204438D01*
X67069262Y-60204438D02*
X67212119Y-60156819D01*
X67212119Y-60156819D02*
X67307357Y-60156819D01*
X67307357Y-60156819D02*
X67450214Y-60204438D01*
X67450214Y-60204438D02*
X67497833Y-60252057D01*
X67831167Y-60156819D02*
X68497833Y-60156819D01*
X68497833Y-60156819D02*
X68069262Y-61156819D01*
X89140833Y-55731580D02*
X89093214Y-55779200D01*
X89093214Y-55779200D02*
X88950357Y-55826819D01*
X88950357Y-55826819D02*
X88855119Y-55826819D01*
X88855119Y-55826819D02*
X88712262Y-55779200D01*
X88712262Y-55779200D02*
X88617024Y-55683961D01*
X88617024Y-55683961D02*
X88569405Y-55588723D01*
X88569405Y-55588723D02*
X88521786Y-55398247D01*
X88521786Y-55398247D02*
X88521786Y-55255390D01*
X88521786Y-55255390D02*
X88569405Y-55064914D01*
X88569405Y-55064914D02*
X88617024Y-54969676D01*
X88617024Y-54969676D02*
X88712262Y-54874438D01*
X88712262Y-54874438D02*
X88855119Y-54826819D01*
X88855119Y-54826819D02*
X88950357Y-54826819D01*
X88950357Y-54826819D02*
X89093214Y-54874438D01*
X89093214Y-54874438D02*
X89140833Y-54922057D01*
X89997976Y-55160152D02*
X89997976Y-55826819D01*
X89759881Y-54779200D02*
X89521786Y-55493485D01*
X89521786Y-55493485D02*
X90140833Y-55493485D01*
D14*
%TO.C,R1*%
X89139500Y-75286776D02*
X89139500Y-75796224D01*
X90184500Y-75286776D02*
X90184500Y-75796224D01*
D13*
%TO.C,Conn4*%
X92710000Y-74803000D02*
X92710000Y-67310000D01*
X97790000Y-67310000D02*
X92710000Y-67310000D01*
X97790000Y-67310000D02*
X97790000Y-74803000D01*
X97790000Y-67310000D02*
X99060000Y-67310000D01*
X97790000Y-74803000D02*
X92710000Y-74803000D01*
X99060000Y-67310000D02*
X99060000Y-74803000D01*
X99060000Y-74803000D02*
X97790000Y-74803000D01*
D14*
%TO.C,R2*%
X86853500Y-75796224D02*
X86853500Y-75286776D01*
X87898500Y-75796224D02*
X87898500Y-75286776D01*
%TO.C,C2*%
X83818000Y-73044267D02*
X83818000Y-72751733D01*
X84838000Y-73044267D02*
X84838000Y-72751733D01*
%TO.C,C3*%
X94241233Y-75944000D02*
X94533767Y-75944000D01*
X94241233Y-76964000D02*
X94533767Y-76964000D01*
%TO.C,JP2*%
X79188000Y-68520000D02*
X80518000Y-68520000D01*
X79188000Y-69850000D02*
X79188000Y-68520000D01*
X79188000Y-71120000D02*
X79188000Y-73720000D01*
X79188000Y-71120000D02*
X81848000Y-71120000D01*
X79188000Y-73720000D02*
X81848000Y-73720000D01*
X81848000Y-71120000D02*
X81848000Y-73720000D01*
%TO.C,C9*%
X70504267Y-56132000D02*
X70211733Y-56132000D01*
X70504267Y-57152000D02*
X70211733Y-57152000D01*
%TO.C,U1*%
X78740000Y-54781000D02*
X76540000Y-54781000D01*
X78740000Y-54781000D02*
X80940000Y-54781000D01*
X78740000Y-61551000D02*
X76540000Y-61551000D01*
X78740000Y-61551000D02*
X80940000Y-61551000D01*
X74880000Y-55241000D02*
X74550000Y-55481000D01*
X74550000Y-55001000D01*
X74880000Y-55241000D01*
G36*
X74880000Y-55241000D02*
G01*
X74550000Y-55481000D01*
X74550000Y-55001000D01*
X74880000Y-55241000D01*
G37*
%TO.C,C5*%
X86367233Y-56894000D02*
X86659767Y-56894000D01*
X86367233Y-57914000D02*
X86659767Y-57914000D01*
D13*
%TO.C,Conn2*%
X74168000Y-45720000D02*
X81661000Y-45720000D01*
X74168000Y-46990000D02*
X74168000Y-45720000D01*
X74168000Y-46990000D02*
X74168000Y-52070000D01*
X74168000Y-46990000D02*
X81661000Y-46990000D01*
X81661000Y-45720000D02*
X81661000Y-46990000D01*
X81661000Y-46990000D02*
X81661000Y-52070000D01*
X81661000Y-52070000D02*
X74168000Y-52070000D01*
D14*
%TO.C,U2*%
X85985500Y-69088000D02*
X85985500Y-67138000D01*
X85985500Y-69088000D02*
X85985500Y-71038000D01*
X91105500Y-69088000D02*
X91105500Y-67138000D01*
X91105500Y-69088000D02*
X91105500Y-71038000D01*
X91340500Y-66628000D02*
X91010500Y-66388000D01*
X91340500Y-66148000D01*
X91340500Y-66628000D01*
G36*
X91340500Y-66628000D02*
G01*
X91010500Y-66388000D01*
X91340500Y-66148000D01*
X91340500Y-66628000D01*
G37*
%TO.C,JP1*%
X69028000Y-51293000D02*
X69028000Y-46153000D01*
X71688000Y-46153000D02*
X69028000Y-46153000D01*
X71688000Y-51293000D02*
X69028000Y-51293000D01*
X71688000Y-51293000D02*
X71688000Y-46153000D01*
X71688000Y-52563000D02*
X71688000Y-53893000D01*
X71688000Y-53893000D02*
X70358000Y-53893000D01*
%TO.C,J1*%
X69028000Y-62932000D02*
X70358000Y-62932000D01*
X69028000Y-64262000D02*
X69028000Y-62932000D01*
X69028000Y-65532000D02*
X69028000Y-78292000D01*
X69028000Y-65532000D02*
X71628000Y-65532000D01*
X69028000Y-78292000D02*
X74228000Y-78292000D01*
X71628000Y-62932000D02*
X74228000Y-62932000D01*
X71628000Y-65532000D02*
X71628000Y-62932000D01*
X74228000Y-62932000D02*
X74228000Y-78292000D01*
%TO.C,C8*%
X70504267Y-58164000D02*
X70211733Y-58164000D01*
X70504267Y-59184000D02*
X70211733Y-59184000D01*
%TO.C,C6*%
X86367233Y-58926000D02*
X86659767Y-58926000D01*
X86367233Y-59946000D02*
X86659767Y-59946000D01*
%TO.C,C1*%
X89362233Y-63498000D02*
X89654767Y-63498000D01*
X89362233Y-64518000D02*
X89654767Y-64518000D01*
%TO.C,C7*%
X70504267Y-60196000D02*
X70211733Y-60196000D01*
X70504267Y-61216000D02*
X70211733Y-61216000D01*
D13*
%TO.C,Conn1*%
X83820000Y-45720000D02*
X83820000Y-47244000D01*
X83820000Y-47244000D02*
X96520000Y-47244000D01*
X83820000Y-52324000D02*
X83820000Y-47244000D01*
X96520000Y-45720000D02*
X83820000Y-45720000D01*
X96520000Y-47244000D02*
X96520000Y-45720000D01*
X96520000Y-52324000D02*
X83820000Y-52324000D01*
X96520000Y-52324000D02*
X96520000Y-47244000D01*
%TO.C,Conn3*%
X92710000Y-65913000D02*
X92710000Y-58420000D01*
X97790000Y-58420000D02*
X92710000Y-58420000D01*
X97790000Y-58420000D02*
X97790000Y-65913000D01*
X97790000Y-58420000D02*
X99060000Y-58420000D01*
X97790000Y-65913000D02*
X92710000Y-65913000D01*
X99060000Y-58420000D02*
X99060000Y-65913000D01*
X99060000Y-65913000D02*
X97790000Y-65913000D01*
D15*
%TO.C,G\u002A\u002A\u002A*%
G36*
X82120192Y-77103758D02*
G01*
X82138222Y-77118672D01*
X82142434Y-77143073D01*
X82140389Y-77154556D01*
X82129317Y-77178163D01*
X82111659Y-77196147D01*
X82091274Y-77206885D01*
X82072017Y-77208751D01*
X82057746Y-77200122D01*
X82053615Y-77191099D01*
X82046857Y-77179033D01*
X82032316Y-77177660D01*
X82025914Y-77178882D01*
X82004899Y-77177884D01*
X81986035Y-77168572D01*
X81975877Y-77154591D01*
X81975464Y-77150842D01*
X81983626Y-77134036D01*
X82004721Y-77118701D01*
X82034807Y-77106651D01*
X82069943Y-77099700D01*
X82088687Y-77098704D01*
X82120192Y-77103758D01*
G37*
G36*
X85023440Y-76422599D02*
G01*
X85032997Y-76430615D01*
X85044057Y-76454507D01*
X85046492Y-76490689D01*
X85040431Y-76537023D01*
X85026003Y-76591369D01*
X85022692Y-76601357D01*
X85012228Y-76629473D01*
X84996063Y-76669730D01*
X84975580Y-76718950D01*
X84952160Y-76773954D01*
X84927184Y-76831565D01*
X84902033Y-76888605D01*
X84878088Y-76941894D01*
X84856732Y-76988255D01*
X84839345Y-77024510D01*
X84835139Y-77032883D01*
X84825509Y-77053776D01*
X84821093Y-77067526D01*
X84821333Y-77069973D01*
X84830229Y-77068750D01*
X84850321Y-77062295D01*
X84877283Y-77052003D01*
X84877622Y-77051865D01*
X84906397Y-77040680D01*
X84924617Y-77035752D01*
X84937166Y-77036525D01*
X84948928Y-77042441D01*
X84950636Y-77043547D01*
X84970314Y-77066167D01*
X84979379Y-77100126D01*
X84978102Y-77143869D01*
X84966755Y-77195838D01*
X84945610Y-77254475D01*
X84914939Y-77318224D01*
X84897204Y-77349687D01*
X84880924Y-77377853D01*
X84859054Y-77416480D01*
X84834049Y-77461194D01*
X84808363Y-77507622D01*
X84798908Y-77524851D01*
X84754094Y-77605966D01*
X84714805Y-77675216D01*
X84679057Y-77735852D01*
X84644864Y-77791121D01*
X84610242Y-77844273D01*
X84573207Y-77898558D01*
X84553308Y-77926937D01*
X84518118Y-77976834D01*
X84490858Y-78016113D01*
X84469751Y-78047963D01*
X84453018Y-78075571D01*
X84438882Y-78102125D01*
X84425565Y-78130814D01*
X84411289Y-78164824D01*
X84394277Y-78207344D01*
X84387750Y-78223811D01*
X84371597Y-78264565D01*
X84423402Y-78223865D01*
X84489593Y-78166635D01*
X84543427Y-78109036D01*
X84583678Y-78052590D01*
X84609122Y-77998824D01*
X84612200Y-77988970D01*
X84624734Y-77952632D01*
X84643810Y-77906594D01*
X84667261Y-77855295D01*
X84692922Y-77803173D01*
X84718628Y-77754666D01*
X84742212Y-77714212D01*
X84757159Y-77691890D01*
X84773297Y-77670273D01*
X84797186Y-77638581D01*
X84826311Y-77600137D01*
X84858158Y-77558262D01*
X84880206Y-77529363D01*
X84912805Y-77485617D01*
X84951547Y-77431890D01*
X84993464Y-77372409D01*
X85035586Y-77311396D01*
X85074944Y-77253077D01*
X85083639Y-77239965D01*
X85178947Y-77102897D01*
X85281545Y-76968426D01*
X85326848Y-76912931D01*
X85374740Y-76856562D01*
X85423133Y-76801457D01*
X85470589Y-76749099D01*
X85515671Y-76700969D01*
X85556941Y-76658549D01*
X85592961Y-76623321D01*
X85622291Y-76596767D01*
X85643496Y-76580368D01*
X85654299Y-76575515D01*
X85672472Y-76580597D01*
X85681281Y-76586063D01*
X85694302Y-76599626D01*
X85698710Y-76614686D01*
X85693876Y-76634181D01*
X85679172Y-76661046D01*
X85658715Y-76691483D01*
X85637127Y-76722749D01*
X85609434Y-76763537D01*
X85578747Y-76809228D01*
X85548177Y-76855207D01*
X85538754Y-76869490D01*
X85482508Y-76953410D01*
X85420561Y-77043185D01*
X85356377Y-77133923D01*
X85293425Y-77220734D01*
X85235169Y-77298728D01*
X85226817Y-77309668D01*
X85193111Y-77354689D01*
X85155490Y-77406556D01*
X85119213Y-77457946D01*
X85096505Y-77491096D01*
X85072433Y-77526624D01*
X85044684Y-77567072D01*
X85012353Y-77613731D01*
X84974537Y-77667892D01*
X84930333Y-77730844D01*
X84878837Y-77803879D01*
X84819146Y-77888287D01*
X84763816Y-77966378D01*
X84729581Y-78015551D01*
X84705295Y-78052631D01*
X84690367Y-78078705D01*
X84684205Y-78094861D01*
X84686218Y-78102185D01*
X84689501Y-78102890D01*
X84702325Y-78097960D01*
X84725159Y-78084593D01*
X84754861Y-78064931D01*
X84788288Y-78041113D01*
X84822298Y-78015278D01*
X84844438Y-77997413D01*
X84880289Y-77967821D01*
X84919246Y-77935964D01*
X84954240Y-77907616D01*
X84962072Y-77901327D01*
X85019651Y-77850100D01*
X85067303Y-77797170D01*
X85102965Y-77745099D01*
X85122932Y-77701603D01*
X85139439Y-77662675D01*
X85164642Y-77615769D01*
X85195744Y-77565265D01*
X85229948Y-77515542D01*
X85264456Y-77470983D01*
X85285404Y-77447201D01*
X85317085Y-77415933D01*
X85351765Y-77385541D01*
X85385543Y-77359130D01*
X85414520Y-77339806D01*
X85429996Y-77332106D01*
X85452487Y-77331454D01*
X85471734Y-77344074D01*
X85483721Y-77366380D01*
X85485767Y-77381926D01*
X85482129Y-77409856D01*
X85470288Y-77439895D01*
X85448849Y-77474493D01*
X85416419Y-77516100D01*
X85395872Y-77540043D01*
X85340631Y-77603355D01*
X85295904Y-77655543D01*
X85260722Y-77697855D01*
X85234115Y-77731537D01*
X85215116Y-77757835D01*
X85202756Y-77777996D01*
X85196066Y-77793267D01*
X85194623Y-77799003D01*
X85189866Y-77824267D01*
X85185693Y-77844810D01*
X85185539Y-77845515D01*
X85183925Y-77865002D01*
X85191083Y-77875266D01*
X85208925Y-77876876D01*
X85239361Y-77870402D01*
X85254321Y-77866034D01*
X85326191Y-77837171D01*
X85387365Y-77796942D01*
X85430938Y-77755105D01*
X85452834Y-77728697D01*
X85464535Y-77708053D01*
X85468708Y-77688011D01*
X85468890Y-77681582D01*
X85475422Y-77631127D01*
X85493905Y-77575385D01*
X85522668Y-77519034D01*
X85532357Y-77503754D01*
X85568258Y-77454174D01*
X85608465Y-77406216D01*
X85650790Y-77361848D01*
X85693044Y-77323041D01*
X85733040Y-77291765D01*
X85768589Y-77269988D01*
X85797503Y-77259680D01*
X85804127Y-77259118D01*
X85831015Y-77266237D01*
X85848829Y-77285288D01*
X85854775Y-77312538D01*
X85853235Y-77324762D01*
X85845613Y-77341624D01*
X85828518Y-77369181D01*
X85803485Y-77405331D01*
X85772045Y-77447971D01*
X85735733Y-77495000D01*
X85696080Y-77544317D01*
X85671415Y-77574022D01*
X85629787Y-77626273D01*
X85598658Y-77671300D01*
X85578640Y-77708043D01*
X85570346Y-77735438D01*
X85571451Y-77747517D01*
X85577041Y-77758648D01*
X85586244Y-77764045D01*
X85603739Y-77765056D01*
X85627213Y-77763586D01*
X85677771Y-77753780D01*
X85732987Y-77731542D01*
X85793978Y-77696272D01*
X85861860Y-77647370D01*
X85899255Y-77617185D01*
X85938130Y-77584840D01*
X85976795Y-77552722D01*
X86011326Y-77524087D01*
X86037802Y-77502190D01*
X86042710Y-77498143D01*
X86083901Y-77460846D01*
X86130014Y-77413543D01*
X86177167Y-77360628D01*
X86221477Y-77306493D01*
X86259063Y-77255533D01*
X86265368Y-77246203D01*
X86297776Y-77200971D01*
X86328523Y-77167156D01*
X86362176Y-77140492D01*
X86403302Y-77116708D01*
X86404683Y-77116003D01*
X86430580Y-77104668D01*
X86448700Y-77102281D01*
X86460911Y-77105832D01*
X86478292Y-77117764D01*
X86485317Y-77134632D01*
X86481948Y-77158863D01*
X86468150Y-77192884D01*
X86459316Y-77210521D01*
X86430547Y-77266544D01*
X86408187Y-77311862D01*
X86390410Y-77350503D01*
X86375392Y-77386493D01*
X86361309Y-77423860D01*
X86356322Y-77437841D01*
X86315984Y-77545724D01*
X86272372Y-77650620D01*
X86226902Y-77749530D01*
X86180989Y-77839456D01*
X86136051Y-77917402D01*
X86112925Y-77953106D01*
X86094439Y-77981251D01*
X86081172Y-78003321D01*
X86074863Y-78016313D01*
X86075063Y-78018505D01*
X86084340Y-78014458D01*
X86105362Y-78003333D01*
X86135357Y-77986655D01*
X86171548Y-77965950D01*
X86186651Y-77957166D01*
X86325957Y-77869706D01*
X86467898Y-77768797D01*
X86548521Y-77706293D01*
X86613046Y-77655722D01*
X86666579Y-77615877D01*
X86708807Y-77586973D01*
X86739415Y-77569222D01*
X86758091Y-77562841D01*
X86758754Y-77562824D01*
X86775945Y-77569439D01*
X86790297Y-77583920D01*
X86799203Y-77600572D01*
X86797662Y-77613682D01*
X86790838Y-77625288D01*
X86778241Y-77639080D01*
X86755621Y-77659049D01*
X86726888Y-77681844D01*
X86711811Y-77692995D01*
X86676690Y-77718835D01*
X86634621Y-77750535D01*
X86591816Y-77783386D01*
X86565900Y-77803629D01*
X86447013Y-77892426D01*
X86322486Y-77976291D01*
X86196691Y-78052487D01*
X86073998Y-78118274D01*
X86029038Y-78140002D01*
X85992471Y-78158271D01*
X85968023Y-78173906D01*
X85951842Y-78189724D01*
X85943120Y-78202860D01*
X85917799Y-78237948D01*
X85883009Y-78273268D01*
X85848856Y-78299921D01*
X85825398Y-78309567D01*
X85796761Y-78313473D01*
X85769450Y-78311556D01*
X85749967Y-78303736D01*
X85747362Y-78301196D01*
X85734526Y-78290552D01*
X85728164Y-78288538D01*
X85717524Y-78291583D01*
X85694442Y-78299925D01*
X85662057Y-78312379D01*
X85623511Y-78327760D01*
X85613168Y-78331969D01*
X85551573Y-78356730D01*
X85502094Y-78375400D01*
X85461456Y-78388813D01*
X85426385Y-78397805D01*
X85393605Y-78403212D01*
X85359842Y-78405869D01*
X85321822Y-78406612D01*
X85320577Y-78406613D01*
X85281273Y-78406321D01*
X85255095Y-78404909D01*
X85238297Y-78401683D01*
X85227133Y-78395950D01*
X85218462Y-78387691D01*
X85200080Y-78361970D01*
X85195862Y-78338068D01*
X85202609Y-78317325D01*
X85312654Y-78317325D01*
X85318376Y-78321142D01*
X85337379Y-78322215D01*
X85343388Y-78322228D01*
X85372359Y-78319544D01*
X85407718Y-78312707D01*
X85430916Y-78306453D01*
X85454835Y-78298419D01*
X85487104Y-78286754D01*
X85524260Y-78272810D01*
X85562840Y-78257938D01*
X85599381Y-78243490D01*
X85630419Y-78230816D01*
X85652491Y-78221270D01*
X85662101Y-78216235D01*
X85659819Y-78207979D01*
X85650292Y-78190563D01*
X85642493Y-78178250D01*
X85629749Y-78160762D01*
X85617417Y-78150797D01*
X85602167Y-78148361D01*
X85580668Y-78153461D01*
X85549589Y-78166102D01*
X85522427Y-78178479D01*
X85493295Y-78193347D01*
X85458042Y-78213396D01*
X85420271Y-78236330D01*
X85383584Y-78259852D01*
X85351582Y-78281664D01*
X85327869Y-78299470D01*
X85317266Y-78309309D01*
X85312654Y-78317325D01*
X85202609Y-78317325D01*
X85204966Y-78310077D01*
X85206876Y-78306238D01*
X85223637Y-78280074D01*
X85248250Y-78253427D01*
X85282839Y-78224419D01*
X85329527Y-78191172D01*
X85359000Y-78171775D01*
X85429980Y-78129080D01*
X85494826Y-78096290D01*
X85552301Y-78073827D01*
X85601169Y-78062115D01*
X85640192Y-78061577D01*
X85661415Y-78068301D01*
X85675154Y-78080002D01*
X85693812Y-78101388D01*
X85713357Y-78127837D01*
X85713416Y-78127924D01*
X85747334Y-78177870D01*
X85822384Y-78143685D01*
X85860348Y-78124773D01*
X85891104Y-78106320D01*
X85910847Y-78090673D01*
X85913816Y-78087208D01*
X85999827Y-77964755D01*
X86073594Y-77847564D01*
X86137190Y-77731958D01*
X86192685Y-77614262D01*
X86226024Y-77533289D01*
X86246890Y-77479639D01*
X86261758Y-77440431D01*
X86270760Y-77414382D01*
X86274026Y-77400210D01*
X86271688Y-77396631D01*
X86263876Y-77402363D01*
X86250722Y-77416123D01*
X86236358Y-77432141D01*
X86194823Y-77477112D01*
X86152372Y-77520214D01*
X86112451Y-77558100D01*
X86078504Y-77587426D01*
X86068514Y-77595165D01*
X86049270Y-77610077D01*
X86021450Y-77632419D01*
X85989354Y-77658711D01*
X85967802Y-77676633D01*
X85921691Y-77714975D01*
X85885428Y-77744248D01*
X85856110Y-77766442D01*
X85830832Y-77783543D01*
X85806691Y-77797537D01*
X85780782Y-77810414D01*
X85755800Y-77821699D01*
X85717702Y-77837608D01*
X85687896Y-77847187D01*
X85659753Y-77851990D01*
X85626641Y-77853568D01*
X85619411Y-77853631D01*
X85583514Y-77852943D01*
X85559212Y-77849735D01*
X85541287Y-77842942D01*
X85529467Y-77835284D01*
X85512146Y-77823720D01*
X85501971Y-77822194D01*
X85493161Y-77829897D01*
X85492936Y-77830167D01*
X85469894Y-77851844D01*
X85435707Y-77876642D01*
X85395033Y-77901752D01*
X85352528Y-77924364D01*
X85312849Y-77941670D01*
X85301589Y-77945602D01*
X85246254Y-77962053D01*
X85203666Y-77970960D01*
X85171381Y-77972135D01*
X85146956Y-77965387D01*
X85127948Y-77950527D01*
X85114043Y-77931070D01*
X85097154Y-77902444D01*
X85069949Y-77928029D01*
X85045772Y-77949389D01*
X85017615Y-77972415D01*
X85008131Y-77979731D01*
X84987426Y-77995713D01*
X84957843Y-78019008D01*
X84923598Y-78046280D01*
X84894211Y-78069903D01*
X84835221Y-78115662D01*
X84783689Y-78151770D01*
X84740730Y-78177543D01*
X84707457Y-78192294D01*
X84689461Y-78195714D01*
X84666125Y-78190771D01*
X84641858Y-78178772D01*
X84640414Y-78177770D01*
X84615213Y-78159825D01*
X84554726Y-78219470D01*
X84504013Y-78267286D01*
X84455212Y-78309167D01*
X84410231Y-78343730D01*
X84370979Y-78369589D01*
X84339364Y-78385361D01*
X84319902Y-78389801D01*
X84294834Y-78382258D01*
X84276005Y-78362765D01*
X84266929Y-78336031D01*
X84267441Y-78319489D01*
X84274222Y-78291752D01*
X84286422Y-78252923D01*
X84302459Y-78207269D01*
X84320753Y-78159055D01*
X84339724Y-78112546D01*
X84357790Y-78072010D01*
X84363556Y-78060122D01*
X84380325Y-78029777D01*
X84404432Y-77990413D01*
X84433038Y-77946472D01*
X84463303Y-77902399D01*
X84473078Y-77888712D01*
X84506647Y-77840611D01*
X84543019Y-77785648D01*
X84581349Y-77725351D01*
X84620791Y-77661244D01*
X84660500Y-77594854D01*
X84699632Y-77527706D01*
X84737340Y-77461325D01*
X84772781Y-77397237D01*
X84805108Y-77336969D01*
X84833478Y-77282045D01*
X84857044Y-77233992D01*
X84874961Y-77194334D01*
X84886386Y-77164598D01*
X84890472Y-77146310D01*
X84887300Y-77140897D01*
X84876726Y-77146003D01*
X84856933Y-77159502D01*
X84831396Y-77178664D01*
X84803590Y-77200760D01*
X84776989Y-77223060D01*
X84755070Y-77242834D01*
X84746161Y-77251759D01*
X84732312Y-77269565D01*
X84712841Y-77298611D01*
X84690075Y-77335246D01*
X84666337Y-77375819D01*
X84660113Y-77386885D01*
X84579339Y-77528464D01*
X84503592Y-77654343D01*
X84432918Y-77764451D01*
X84367364Y-77858717D01*
X84306977Y-77937070D01*
X84263216Y-77987393D01*
X84209535Y-78049920D01*
X84169082Y-78108028D01*
X84153539Y-78135591D01*
X84129888Y-78176461D01*
X84109088Y-78201745D01*
X84089995Y-78212254D01*
X84071466Y-78208801D01*
X84061055Y-78201201D01*
X84052923Y-78195545D01*
X84044001Y-78195530D01*
X84031122Y-78202718D01*
X84011118Y-78218673D01*
X83991777Y-78235372D01*
X83931307Y-78284318D01*
X83871514Y-78323877D01*
X83806762Y-78357309D01*
X83731413Y-78387871D01*
X83722112Y-78391242D01*
X83689847Y-78399745D01*
X83648387Y-78406381D01*
X83602816Y-78410803D01*
X83558213Y-78412665D01*
X83519660Y-78411620D01*
X83492238Y-78407321D01*
X83491180Y-78406992D01*
X83453404Y-78388975D01*
X83416945Y-78361843D01*
X83388638Y-78330911D01*
X83383772Y-78323438D01*
X83367890Y-78282987D01*
X83360948Y-78233457D01*
X83363310Y-78180307D01*
X83371544Y-78140883D01*
X83382163Y-78111008D01*
X83398984Y-78071132D01*
X83419802Y-78025891D01*
X83442412Y-77979917D01*
X83464607Y-77937845D01*
X83484009Y-77904585D01*
X83499985Y-77879269D01*
X83459103Y-77851585D01*
X83413474Y-77811947D01*
X83382965Y-77765581D01*
X83368018Y-77713548D01*
X83369074Y-77656907D01*
X83371940Y-77641932D01*
X83379634Y-77619935D01*
X83394829Y-77586383D01*
X83416036Y-77544007D01*
X83441767Y-77495535D01*
X83470533Y-77443699D01*
X83500846Y-77391227D01*
X83531218Y-77340849D01*
X83560160Y-77295296D01*
X83564602Y-77288571D01*
X83581033Y-77266774D01*
X83606985Y-77235869D01*
X83639993Y-77198629D01*
X83677592Y-77157830D01*
X83717317Y-77116244D01*
X83722081Y-77111362D01*
X83761846Y-77070133D01*
X83799823Y-77029700D01*
X83833552Y-76992759D01*
X83860576Y-76962010D01*
X83878438Y-76940148D01*
X83879938Y-76938129D01*
X83930166Y-76876283D01*
X83986926Y-76820639D01*
X84053799Y-76767993D01*
X84118724Y-76724797D01*
X84189911Y-76681454D01*
X84249461Y-76647791D01*
X84298979Y-76623030D01*
X84340074Y-76606393D01*
X84374351Y-76597100D01*
X84385777Y-76595350D01*
X84412311Y-76593186D01*
X84427334Y-76595395D01*
X84435887Y-76603052D01*
X84437897Y-76606482D01*
X84440607Y-76627602D01*
X84432034Y-76652803D01*
X84414889Y-76676736D01*
X84394078Y-76692926D01*
X84372316Y-76706845D01*
X84346791Y-76726211D01*
X84337050Y-76734432D01*
X84317123Y-76749516D01*
X84301418Y-76757155D01*
X84296117Y-76757057D01*
X84293040Y-76746580D01*
X84300644Y-76728833D01*
X84316599Y-76707295D01*
X84338575Y-76685447D01*
X84350336Y-76676050D01*
X84370389Y-76660132D01*
X84377381Y-76651892D01*
X84372873Y-76650576D01*
X84358425Y-76655431D01*
X84335596Y-76665703D01*
X84305947Y-76680640D01*
X84271038Y-76699487D01*
X84232429Y-76721491D01*
X84191679Y-76745900D01*
X84150350Y-76771958D01*
X84146303Y-76774588D01*
X84092081Y-76811246D01*
X84048466Y-76844434D01*
X84010989Y-76878270D01*
X83975181Y-76916872D01*
X83936572Y-76964356D01*
X83927302Y-76976346D01*
X83904201Y-77004616D01*
X83872156Y-77041322D01*
X83834251Y-77083062D01*
X83793570Y-77126429D01*
X83758699Y-77162450D01*
X83715516Y-77206814D01*
X83681777Y-77243029D01*
X83654703Y-77274586D01*
X83631517Y-77304976D01*
X83609441Y-77337690D01*
X83585696Y-77376218D01*
X83577161Y-77390566D01*
X83550039Y-77437055D01*
X83522044Y-77486124D01*
X83496211Y-77532391D01*
X83475573Y-77570474D01*
X83472902Y-77575550D01*
X83454619Y-77611471D01*
X83443310Y-77637320D01*
X83437606Y-77657698D01*
X83436140Y-77677203D01*
X83437141Y-77695795D01*
X83441927Y-77727009D01*
X83452357Y-77749851D01*
X83468855Y-77769464D01*
X83490917Y-77788896D01*
X83513039Y-77803357D01*
X83519852Y-77806369D01*
X83531388Y-77809278D01*
X83541647Y-77807385D01*
X83549995Y-77801213D01*
X83663122Y-77801213D01*
X83664377Y-77805531D01*
X83670304Y-77806809D01*
X83683935Y-77804610D01*
X83708302Y-77798497D01*
X83737797Y-77790428D01*
X83787053Y-77775169D01*
X83830649Y-77757523D01*
X83872252Y-77735365D01*
X83915529Y-77706572D01*
X83964148Y-77669019D01*
X84002364Y-77637197D01*
X84035094Y-77610488D01*
X84069754Y-77583949D01*
X84099634Y-77562690D01*
X84103627Y-77560052D01*
X84152797Y-77523425D01*
X84195273Y-77482730D01*
X84228991Y-77440617D01*
X84251889Y-77399737D01*
X84261903Y-77362739D01*
X84262179Y-77356351D01*
X84259974Y-77341833D01*
X84250026Y-77335946D01*
X84233081Y-77334983D01*
X84200229Y-77341289D01*
X84158110Y-77359441D01*
X84108227Y-77388295D01*
X84052085Y-77426704D01*
X83991188Y-77473522D01*
X83927038Y-77527603D01*
X83861141Y-77587801D01*
X83794999Y-77652971D01*
X83741178Y-77709815D01*
X83712719Y-77741294D01*
X83688901Y-77768466D01*
X83671818Y-77788875D01*
X83663565Y-77800070D01*
X83663122Y-77801213D01*
X83549995Y-77801213D01*
X83553618Y-77798534D01*
X83570291Y-77780571D01*
X83592397Y-77754094D01*
X83647680Y-77690200D01*
X83710922Y-77622815D01*
X83779080Y-77554802D01*
X83849108Y-77489027D01*
X83917965Y-77428353D01*
X83982605Y-77375645D01*
X84036621Y-77336046D01*
X84096907Y-77299603D01*
X84154066Y-77273959D01*
X84206509Y-77259314D01*
X84252643Y-77255867D01*
X84290877Y-77263817D01*
X84319621Y-77283363D01*
X84330868Y-77299240D01*
X84340018Y-77330944D01*
X84340332Y-77371023D01*
X84332140Y-77413681D01*
X84322972Y-77438794D01*
X84303605Y-77471637D01*
X84273724Y-77509687D01*
X84237016Y-77549031D01*
X84197168Y-77585755D01*
X84157866Y-77615947D01*
X84153072Y-77619134D01*
X84120482Y-77641802D01*
X84084454Y-77668993D01*
X84059654Y-77689098D01*
X83983794Y-77749434D01*
X83912734Y-77796840D01*
X83842842Y-77833008D01*
X83770488Y-77859629D01*
X83692039Y-77878392D01*
X83633381Y-77887522D01*
X83610129Y-77891377D01*
X83594223Y-77898007D01*
X83580686Y-77911041D01*
X83564544Y-77934108D01*
X83560098Y-77940968D01*
X83519043Y-78009973D01*
X83486410Y-78076017D01*
X83462819Y-78137204D01*
X83448891Y-78191638D01*
X83445248Y-78237421D01*
X83451923Y-78271284D01*
X83472918Y-78301259D01*
X83505815Y-78321111D01*
X83549031Y-78330862D01*
X83600983Y-78330537D01*
X83660087Y-78320160D01*
X83724761Y-78299753D01*
X83793421Y-78269343D01*
X83799930Y-78266019D01*
X83836236Y-78244848D01*
X83876520Y-78217378D01*
X83918165Y-78185856D01*
X83958550Y-78152529D01*
X83995057Y-78119644D01*
X84025068Y-78089446D01*
X84045963Y-78064183D01*
X84054860Y-78047325D01*
X84060170Y-78033226D01*
X84071823Y-78006552D01*
X84088648Y-77969838D01*
X84109476Y-77925621D01*
X84131774Y-77879269D01*
X84219986Y-77879269D01*
X84224205Y-77883488D01*
X84228425Y-77879269D01*
X84224205Y-77875050D01*
X84219986Y-77879269D01*
X84131774Y-77879269D01*
X84133136Y-77876437D01*
X84139987Y-77862392D01*
X84228425Y-77862392D01*
X84232644Y-77866611D01*
X84236863Y-77862392D01*
X84232644Y-77858173D01*
X84228425Y-77862392D01*
X84139987Y-77862392D01*
X84143685Y-77854810D01*
X84146434Y-77849185D01*
X84238932Y-77849185D01*
X84240087Y-77849734D01*
X84247787Y-77843794D01*
X84249521Y-77841296D01*
X84251671Y-77833407D01*
X84250517Y-77832857D01*
X84242816Y-77838798D01*
X84241083Y-77841296D01*
X84238932Y-77849185D01*
X84146434Y-77849185D01*
X84160602Y-77820199D01*
X84253740Y-77820199D01*
X84257960Y-77824419D01*
X84262179Y-77820199D01*
X84257960Y-77815980D01*
X84253740Y-77820199D01*
X84160602Y-77820199D01*
X84168851Y-77803322D01*
X84262179Y-77803322D01*
X84266398Y-77807542D01*
X84270617Y-77803322D01*
X84266398Y-77799103D01*
X84262179Y-77803322D01*
X84168851Y-77803322D01*
X84172643Y-77795564D01*
X84177086Y-77786445D01*
X84271380Y-77786445D01*
X84274844Y-77784673D01*
X84283748Y-77771107D01*
X84291714Y-77756910D01*
X84303408Y-77733525D01*
X84310760Y-77715852D01*
X84312047Y-77710498D01*
X84308584Y-77712270D01*
X84299679Y-77725836D01*
X84291714Y-77740033D01*
X84280019Y-77763418D01*
X84272668Y-77781092D01*
X84271380Y-77786445D01*
X84177086Y-77786445D01*
X84203557Y-77732108D01*
X84222253Y-77693621D01*
X84312810Y-77693621D01*
X84317029Y-77697841D01*
X84321249Y-77693621D01*
X84317029Y-77689402D01*
X84312810Y-77693621D01*
X84222253Y-77693621D01*
X84228811Y-77680121D01*
X84326740Y-77680121D01*
X84331841Y-77673967D01*
X84343321Y-77653283D01*
X84347520Y-77645100D01*
X84360667Y-77622341D01*
X84382060Y-77588951D01*
X84409726Y-77547729D01*
X84441693Y-77501476D01*
X84475988Y-77452992D01*
X84510637Y-77405076D01*
X84543669Y-77360529D01*
X84573111Y-77322152D01*
X84589137Y-77302147D01*
X84608857Y-77276578D01*
X84628928Y-77247122D01*
X84650148Y-77212243D01*
X84673316Y-77170410D01*
X84699231Y-77120088D01*
X84728692Y-77059745D01*
X84762497Y-76987848D01*
X84801446Y-76902862D01*
X84829246Y-76841329D01*
X84866473Y-76757817D01*
X84896283Y-76689263D01*
X84918743Y-76635500D01*
X84933921Y-76596359D01*
X84941885Y-76571673D01*
X84942704Y-76561275D01*
X84942627Y-76561190D01*
X84935931Y-76564005D01*
X84923237Y-76580178D01*
X84904363Y-76610023D01*
X84879127Y-76653859D01*
X84847350Y-76712001D01*
X84808848Y-76784765D01*
X84763441Y-76872470D01*
X84755926Y-76887124D01*
X84722255Y-76952217D01*
X84688131Y-77017032D01*
X84655040Y-77078828D01*
X84624469Y-77134865D01*
X84597903Y-77182402D01*
X84576829Y-77218699D01*
X84570242Y-77229502D01*
X84529564Y-77295777D01*
X84489327Y-77363175D01*
X84451025Y-77429062D01*
X84416149Y-77490806D01*
X84386189Y-77545773D01*
X84362636Y-77591331D01*
X84349155Y-77619812D01*
X84335451Y-77652203D01*
X84327961Y-77672586D01*
X84326740Y-77680121D01*
X84228811Y-77680121D01*
X84234099Y-77669234D01*
X84261941Y-77611734D01*
X84284756Y-77564400D01*
X84285513Y-77562824D01*
X84306705Y-77520747D01*
X84334796Y-77468030D01*
X84367739Y-77408345D01*
X84403489Y-77345362D01*
X84439997Y-77282752D01*
X84464276Y-77242160D01*
X84501293Y-77179854D01*
X84539963Y-77112757D01*
X84577972Y-77045025D01*
X84613005Y-76980816D01*
X84642748Y-76924287D01*
X84656898Y-76896179D01*
X84704370Y-76800732D01*
X84746076Y-76719444D01*
X84782853Y-76650945D01*
X84815541Y-76593862D01*
X84844977Y-76546825D01*
X84845572Y-76545980D01*
X84945700Y-76545980D01*
X84949920Y-76550199D01*
X84954139Y-76545980D01*
X84949920Y-76541761D01*
X84945700Y-76545980D01*
X84845572Y-76545980D01*
X84871999Y-76508462D01*
X84897445Y-76477401D01*
X84922154Y-76452272D01*
X84935021Y-76441067D01*
X84966886Y-76421633D01*
X84997454Y-76415361D01*
X85023440Y-76422599D01*
G37*
G36*
X79526343Y-76285611D02*
G01*
X79547146Y-76296852D01*
X79557721Y-76306553D01*
X79565017Y-76317570D01*
X79568562Y-76331298D01*
X79567887Y-76349127D01*
X79562520Y-76372450D01*
X79551992Y-76402658D01*
X79535832Y-76441144D01*
X79513569Y-76489300D01*
X79484732Y-76548518D01*
X79448853Y-76620189D01*
X79415887Y-76685216D01*
X79351526Y-76810997D01*
X79293606Y-76922523D01*
X79241532Y-77020878D01*
X79194708Y-77107147D01*
X79152540Y-77182415D01*
X79114434Y-77247768D01*
X79079794Y-77304291D01*
X79058471Y-77337395D01*
X79027058Y-77386820D01*
X78992102Y-77444612D01*
X78957586Y-77504034D01*
X78927492Y-77558348D01*
X78923842Y-77565190D01*
X78898606Y-77610788D01*
X78866551Y-77665682D01*
X78830455Y-77725287D01*
X78793097Y-77785018D01*
X78757255Y-77840287D01*
X78756616Y-77841250D01*
X78725451Y-77888488D01*
X78696685Y-77932619D01*
X78671919Y-77971149D01*
X78652752Y-78001581D01*
X78640784Y-78021419D01*
X78638489Y-78025597D01*
X78624013Y-78053784D01*
X78643611Y-78048116D01*
X78659797Y-78040814D01*
X78684913Y-78026613D01*
X78714078Y-78008307D01*
X78720082Y-78004322D01*
X78760156Y-77973942D01*
X78788115Y-77943755D01*
X78800248Y-77925031D01*
X78839572Y-77855733D01*
X78872433Y-77798583D01*
X78900574Y-77750986D01*
X78925741Y-77710343D01*
X78949679Y-77674057D01*
X78974133Y-77639532D01*
X79000848Y-77604170D01*
X79031569Y-77565375D01*
X79068042Y-77520549D01*
X79089963Y-77493869D01*
X79125604Y-77450474D01*
X79163097Y-77404681D01*
X79198669Y-77361104D01*
X79228549Y-77324360D01*
X79236730Y-77314257D01*
X79269410Y-77275834D01*
X79295162Y-77250759D01*
X79315815Y-77237952D01*
X79333199Y-77236333D01*
X79349145Y-77244823D01*
X79351290Y-77246687D01*
X79363567Y-77261006D01*
X79366618Y-77276543D01*
X79360324Y-77297914D01*
X79349397Y-77320552D01*
X79337817Y-77349746D01*
X79328313Y-77385647D01*
X79324776Y-77406516D01*
X79321202Y-77426335D01*
X79314523Y-77449368D01*
X79303835Y-77477779D01*
X79288229Y-77513730D01*
X79266799Y-77559385D01*
X79238638Y-77616907D01*
X79225750Y-77642795D01*
X79178934Y-77737851D01*
X79140199Y-77819540D01*
X79109066Y-77889040D01*
X79085055Y-77947527D01*
X79067684Y-77996179D01*
X79056473Y-78036172D01*
X79050943Y-78068683D01*
X79050665Y-78071798D01*
X79050471Y-78112789D01*
X79057860Y-78139047D01*
X79073080Y-78151038D01*
X79092408Y-78150349D01*
X79109105Y-78141015D01*
X79134383Y-78120180D01*
X79166500Y-78089690D01*
X79203708Y-78051393D01*
X79214513Y-78039601D01*
X79325634Y-78039601D01*
X79329853Y-78043821D01*
X79334073Y-78039601D01*
X79329853Y-78035382D01*
X79325634Y-78039601D01*
X79214513Y-78039601D01*
X79244263Y-78007135D01*
X79286421Y-77958763D01*
X79328435Y-77908125D01*
X79364489Y-77862392D01*
X79412979Y-77799024D01*
X79452873Y-77746358D01*
X79485976Y-77701804D01*
X79514095Y-77662775D01*
X79539035Y-77626681D01*
X79562601Y-77590932D01*
X79586600Y-77552941D01*
X79612835Y-77510118D01*
X79630050Y-77481613D01*
X79664645Y-77424299D01*
X79692900Y-77378098D01*
X79717097Y-77339612D01*
X79739521Y-77305444D01*
X79762452Y-77272199D01*
X79788172Y-77236479D01*
X79818965Y-77194888D01*
X79854959Y-77146894D01*
X79889739Y-77099742D01*
X79930017Y-77043689D01*
X79972086Y-76983980D01*
X80012241Y-76925862D01*
X80036833Y-76889518D01*
X80074431Y-76834700D01*
X80117558Y-76774014D01*
X80162209Y-76712968D01*
X80204377Y-76657064D01*
X80228514Y-76626146D01*
X80263833Y-76581508D01*
X80299527Y-76535997D01*
X80332644Y-76493405D01*
X80360232Y-76457526D01*
X80374705Y-76438389D01*
X80401425Y-76404915D01*
X80422889Y-76382685D01*
X80437594Y-76373220D01*
X80439392Y-76372990D01*
X80460575Y-76380252D01*
X80476753Y-76397730D01*
X80481714Y-76414980D01*
X80476982Y-76428352D01*
X80463781Y-76453020D01*
X80443601Y-76486657D01*
X80417932Y-76526935D01*
X80388267Y-76571528D01*
X80356095Y-76618106D01*
X80322907Y-76664342D01*
X80316048Y-76673656D01*
X80297334Y-76699634D01*
X80271275Y-76736782D01*
X80239861Y-76782212D01*
X80205083Y-76833034D01*
X80168932Y-76886358D01*
X80146003Y-76920451D01*
X80104005Y-76982231D01*
X80056308Y-77050929D01*
X80006420Y-77121591D01*
X79957843Y-77189265D01*
X79914083Y-77248994D01*
X79904227Y-77262211D01*
X79846814Y-77340636D01*
X79783943Y-77429614D01*
X79718416Y-77524984D01*
X79653036Y-77622581D01*
X79590604Y-77718242D01*
X79533921Y-77807804D01*
X79502323Y-77859391D01*
X79472417Y-77911439D01*
X79446984Y-77960503D01*
X79427273Y-78003836D01*
X79414535Y-78038690D01*
X79410019Y-78062298D01*
X79416588Y-78074742D01*
X79434743Y-78077980D01*
X79462158Y-78072360D01*
X79496509Y-78058231D01*
X79519282Y-78045930D01*
X79582752Y-78000353D01*
X79641826Y-77941649D01*
X79692960Y-77873545D01*
X79709956Y-77845292D01*
X79728594Y-77813401D01*
X79748752Y-77781953D01*
X79772348Y-77748322D01*
X79801296Y-77709881D01*
X79837510Y-77664005D01*
X79882906Y-77608066D01*
X79883237Y-77607663D01*
X79907568Y-77576425D01*
X79936840Y-77536563D01*
X79966978Y-77493722D01*
X79988670Y-77461562D01*
X80021186Y-77415835D01*
X80058384Y-77369465D01*
X80097621Y-77325246D01*
X80136251Y-77285972D01*
X80171631Y-77254440D01*
X80201116Y-77233443D01*
X80207868Y-77229874D01*
X80244197Y-77218234D01*
X80273492Y-77220683D01*
X80290539Y-77232276D01*
X80301362Y-77248090D01*
X80303245Y-77265206D01*
X80296046Y-77288674D01*
X80288483Y-77305449D01*
X80276317Y-77333755D01*
X80263344Y-77368008D01*
X80257396Y-77385398D01*
X80244678Y-77418461D01*
X80227308Y-77456216D01*
X80213498Y-77482441D01*
X80173462Y-77555683D01*
X80134760Y-77631691D01*
X80098274Y-77708312D01*
X80064889Y-77783395D01*
X80035489Y-77854785D01*
X80010958Y-77920330D01*
X79992180Y-77977877D01*
X79980039Y-78025273D01*
X79975420Y-78060364D01*
X79975401Y-78062217D01*
X79982921Y-78106358D01*
X80004156Y-78144081D01*
X80014960Y-78155357D01*
X80023677Y-78161610D01*
X80033512Y-78164053D01*
X80045967Y-78161723D01*
X80062544Y-78153655D01*
X80084746Y-78138886D01*
X80114075Y-78116451D01*
X80152034Y-78085386D01*
X80200124Y-78044728D01*
X80238274Y-78012057D01*
X80280175Y-77975397D01*
X80311972Y-77945088D01*
X80336682Y-77917080D01*
X80357319Y-77887322D01*
X80376899Y-77851766D01*
X80398437Y-77806360D01*
X80409192Y-77782485D01*
X80434440Y-77730046D01*
X80462104Y-77679331D01*
X80488972Y-77636056D01*
X80500769Y-77619438D01*
X80522132Y-77592893D01*
X80553068Y-77556854D01*
X80591290Y-77513835D01*
X80634510Y-77466348D01*
X80680442Y-77416906D01*
X80726796Y-77368021D01*
X80771287Y-77322208D01*
X80772127Y-77321355D01*
X80799050Y-77301103D01*
X80823461Y-77297386D01*
X80844139Y-77309236D01*
X80855238Y-77322001D01*
X80860117Y-77334873D01*
X80859017Y-77352577D01*
X80852173Y-77379839D01*
X80848354Y-77392891D01*
X80823877Y-77453511D01*
X80784778Y-77519400D01*
X80730766Y-77590977D01*
X80661551Y-77668663D01*
X80649748Y-77680964D01*
X80613485Y-77719987D01*
X80574848Y-77764251D01*
X80535937Y-77811073D01*
X80498853Y-77857773D01*
X80465696Y-77901669D01*
X80438567Y-77940080D01*
X80419564Y-77970325D01*
X80413093Y-77983073D01*
X80397680Y-78027498D01*
X80390668Y-78067577D01*
X80392338Y-78099947D01*
X80401665Y-78119897D01*
X80417521Y-78132568D01*
X80429438Y-78136645D01*
X80446107Y-78131487D01*
X80473265Y-78117135D01*
X80508496Y-78095272D01*
X80549382Y-78067580D01*
X80593508Y-78035742D01*
X80638457Y-78001441D01*
X80681813Y-77966358D01*
X80714604Y-77938077D01*
X80740126Y-77912738D01*
X80773679Y-77875543D01*
X80788932Y-77857623D01*
X80905710Y-77857623D01*
X80906864Y-77858173D01*
X80914565Y-77852232D01*
X80916299Y-77849734D01*
X80918449Y-77841845D01*
X80917295Y-77841296D01*
X80909594Y-77847236D01*
X80907860Y-77849734D01*
X80905710Y-77857623D01*
X80788932Y-77857623D01*
X80813701Y-77828522D01*
X80858628Y-77773704D01*
X80906898Y-77713117D01*
X80956947Y-77648792D01*
X81007212Y-77582756D01*
X81056131Y-77517040D01*
X81102141Y-77453672D01*
X81143677Y-77394680D01*
X81179178Y-77342096D01*
X81204788Y-77301740D01*
X81254079Y-77222223D01*
X81301718Y-77149091D01*
X81351511Y-77076717D01*
X81407265Y-76999473D01*
X81430633Y-76967907D01*
X81465862Y-76920199D01*
X81502534Y-76869872D01*
X81537468Y-76821337D01*
X81567480Y-76779003D01*
X81582814Y-76756944D01*
X81625798Y-76694419D01*
X81660266Y-76644461D01*
X81687202Y-76605686D01*
X81707589Y-76576710D01*
X81722407Y-76556149D01*
X81732641Y-76542619D01*
X81739271Y-76534735D01*
X81742945Y-76531342D01*
X81764036Y-76525133D01*
X81785017Y-76531970D01*
X81800857Y-76548756D01*
X81806564Y-76570503D01*
X81801891Y-76584662D01*
X81789178Y-76608972D01*
X81770381Y-76639987D01*
X81748153Y-76673273D01*
X81718701Y-76716394D01*
X81685275Y-76766793D01*
X81652599Y-76817285D01*
X81632123Y-76849768D01*
X81604470Y-76893647D01*
X81571375Y-76945138D01*
X81536930Y-76997926D01*
X81505224Y-77045696D01*
X81504246Y-77047152D01*
X81445041Y-77136946D01*
X81381770Y-77235884D01*
X81317906Y-77338388D01*
X81256920Y-77438882D01*
X81202283Y-77531787D01*
X81198837Y-77537774D01*
X81172767Y-77582700D01*
X81142910Y-77633437D01*
X81110775Y-77687490D01*
X81077873Y-77742361D01*
X81045714Y-77795556D01*
X81015808Y-77844578D01*
X80989664Y-77886931D01*
X80968792Y-77920120D01*
X80954703Y-77941648D01*
X80953167Y-77943861D01*
X80940405Y-77964023D01*
X80939236Y-77972037D01*
X80949765Y-77968117D01*
X80961231Y-77960489D01*
X80981505Y-77938303D01*
X80995533Y-77908587D01*
X81005847Y-77879462D01*
X81019514Y-77852830D01*
X81039009Y-77825046D01*
X81066809Y-77792462D01*
X81094636Y-77762641D01*
X81201654Y-77660850D01*
X81313488Y-77574851D01*
X81340793Y-77556709D01*
X81380560Y-77532265D01*
X81424652Y-77507166D01*
X81470353Y-77482737D01*
X81514947Y-77460301D01*
X81555717Y-77441185D01*
X81589947Y-77426711D01*
X81614920Y-77418205D01*
X81627591Y-77416857D01*
X81651396Y-77429936D01*
X81661836Y-77449707D01*
X81663104Y-77464704D01*
X81656653Y-77491911D01*
X81637000Y-77524217D01*
X81603685Y-77562127D01*
X81556243Y-77606142D01*
X81494213Y-77656766D01*
X81467962Y-77676901D01*
X81423479Y-77710928D01*
X81378758Y-77745807D01*
X81337582Y-77778541D01*
X81303734Y-77806132D01*
X81287594Y-77819770D01*
X81251829Y-77849975D01*
X81210362Y-77883884D01*
X81171023Y-77915113D01*
X81163560Y-77920891D01*
X81136311Y-77942843D01*
X81115614Y-77961408D01*
X81104162Y-77974061D01*
X81102879Y-77977822D01*
X81116620Y-77984749D01*
X81143025Y-77984390D01*
X81179845Y-77977366D01*
X81224834Y-77964299D01*
X81275746Y-77945810D01*
X81330333Y-77922522D01*
X81367974Y-77904478D01*
X81440606Y-77863631D01*
X81499534Y-77820097D01*
X81547931Y-77771205D01*
X81583248Y-77723303D01*
X81606656Y-77690005D01*
X81634539Y-77654672D01*
X81664486Y-77619876D01*
X81694089Y-77588191D01*
X81720939Y-77562188D01*
X81742628Y-77544441D01*
X81756747Y-77537524D01*
X81757192Y-77537508D01*
X81784873Y-77543470D01*
X81802220Y-77559671D01*
X81806564Y-77577270D01*
X81802325Y-77594067D01*
X81790957Y-77620600D01*
X81774481Y-77652424D01*
X81764565Y-77669590D01*
X81717442Y-77756374D01*
X81683274Y-77839133D01*
X81660431Y-77922331D01*
X81650523Y-77981512D01*
X81648820Y-78016691D01*
X81651478Y-78054376D01*
X81657652Y-78089755D01*
X81666496Y-78118016D01*
X81677164Y-78134345D01*
X81677415Y-78134535D01*
X81703181Y-78143691D01*
X81737463Y-78141376D01*
X81777521Y-78128694D01*
X81820617Y-78106750D01*
X81864011Y-78076648D01*
X81899659Y-78044900D01*
X81918333Y-78025245D01*
X81934813Y-78005098D01*
X81950813Y-77981659D01*
X81968046Y-77952132D01*
X81988225Y-77913718D01*
X82013063Y-77863619D01*
X82022396Y-77844411D01*
X82045995Y-77795510D01*
X82068047Y-77749482D01*
X82087107Y-77709368D01*
X82101731Y-77678210D01*
X82110474Y-77659049D01*
X82110702Y-77658526D01*
X82128481Y-77631005D01*
X82150213Y-77616434D01*
X82172620Y-77615364D01*
X82192424Y-77628346D01*
X82201745Y-77643220D01*
X82204901Y-77665082D01*
X82198335Y-77696673D01*
X82181708Y-77739048D01*
X82154680Y-77793259D01*
X82151537Y-77799103D01*
X82136993Y-77827330D01*
X82118558Y-77864990D01*
X82099145Y-77906071D01*
X82088919Y-77928358D01*
X82044220Y-78013734D01*
X81993562Y-78084530D01*
X81935408Y-78142451D01*
X81868222Y-78189204D01*
X81840789Y-78204003D01*
X81780773Y-78227753D01*
X81724657Y-78237186D01*
X81673924Y-78232369D01*
X81630057Y-78213368D01*
X81605851Y-78193365D01*
X81584936Y-78161738D01*
X81569433Y-78117884D01*
X81559807Y-78065714D01*
X81556525Y-78009136D01*
X81560050Y-77952059D01*
X81570755Y-77898728D01*
X81577662Y-77874643D01*
X81542329Y-77905193D01*
X81517736Y-77922882D01*
X81481085Y-77944753D01*
X81436082Y-77968963D01*
X81386435Y-77993668D01*
X81335850Y-78017025D01*
X81288033Y-78037189D01*
X81246692Y-78052316D01*
X81246367Y-78052421D01*
X81188961Y-78066890D01*
X81136372Y-78072126D01*
X81091571Y-78068127D01*
X81057529Y-78054893D01*
X81053957Y-78052427D01*
X81034611Y-78039713D01*
X81020214Y-78033012D01*
X81018110Y-78032699D01*
X81007282Y-78036913D01*
X80985974Y-78048069D01*
X80957993Y-78064122D01*
X80944765Y-78072079D01*
X80913792Y-78089786D01*
X80886389Y-78103341D01*
X80866977Y-78110636D01*
X80862489Y-78111329D01*
X80840178Y-78104002D01*
X80821236Y-78086084D01*
X80811577Y-78063665D01*
X80811288Y-78058588D01*
X80816235Y-78034370D01*
X80828871Y-78000513D01*
X80847236Y-77961219D01*
X80869365Y-77920692D01*
X80893050Y-77883488D01*
X80892843Y-77881528D01*
X80882497Y-77890174D01*
X80863635Y-77907927D01*
X80837877Y-77933287D01*
X80823411Y-77947854D01*
X80714181Y-78048125D01*
X80598157Y-78134795D01*
X80540877Y-78170928D01*
X80497121Y-78195242D01*
X80463020Y-78209806D01*
X80435228Y-78215630D01*
X80410399Y-78213725D01*
X80404293Y-78212169D01*
X80373098Y-78196842D01*
X80343798Y-78171615D01*
X80320304Y-78141087D01*
X80306529Y-78109856D01*
X80304504Y-78094871D01*
X80302855Y-78080911D01*
X80300494Y-78077575D01*
X80292918Y-78082703D01*
X80274970Y-78096754D01*
X80249143Y-78117726D01*
X80217928Y-78143615D01*
X80209780Y-78150448D01*
X80155648Y-78193887D01*
X80110465Y-78225008D01*
X80072311Y-78244408D01*
X80039266Y-78252681D01*
X80009410Y-78250421D01*
X79980824Y-78238225D01*
X79963853Y-78226667D01*
X79939229Y-78201150D01*
X79915733Y-78165465D01*
X79897097Y-78126119D01*
X79887709Y-78093817D01*
X79882366Y-78063647D01*
X79779100Y-78166972D01*
X79735943Y-78209378D01*
X79702011Y-78240463D01*
X79675252Y-78261463D01*
X79653618Y-78273617D01*
X79635056Y-78278162D01*
X79617519Y-78276336D01*
X79605037Y-78272047D01*
X79580206Y-78253201D01*
X79565646Y-78222949D01*
X79562008Y-78183753D01*
X79564739Y-78167888D01*
X79648343Y-78167888D01*
X79651055Y-78170977D01*
X79659749Y-78165828D01*
X79676263Y-78151262D01*
X79702433Y-78126099D01*
X79708910Y-78119768D01*
X79743175Y-78085167D01*
X79779684Y-78046603D01*
X79812435Y-78010470D01*
X79823752Y-77997409D01*
X79854478Y-77958063D01*
X79887777Y-77910157D01*
X79920733Y-77858390D01*
X79950425Y-77807458D01*
X79973937Y-77762062D01*
X79983626Y-77740033D01*
X79987978Y-77728202D01*
X79988973Y-77721532D01*
X79985324Y-77721035D01*
X79975744Y-77727724D01*
X79958945Y-77742614D01*
X79933639Y-77766715D01*
X79898540Y-77801041D01*
X79868751Y-77830416D01*
X79825598Y-77873195D01*
X79792513Y-77906724D01*
X79767476Y-77933533D01*
X79748469Y-77956153D01*
X79733472Y-77977112D01*
X79720467Y-77998943D01*
X79707435Y-78024173D01*
X79697028Y-78045599D01*
X79679603Y-78083050D01*
X79664671Y-78117363D01*
X79654026Y-78144280D01*
X79649777Y-78157741D01*
X79648343Y-78167888D01*
X79564739Y-78167888D01*
X79569763Y-78138699D01*
X79574258Y-78120375D01*
X79574945Y-78111487D01*
X79574675Y-78111329D01*
X79566159Y-78114800D01*
X79547264Y-78123754D01*
X79529626Y-78132481D01*
X79477949Y-78152690D01*
X79431305Y-78159574D01*
X79391326Y-78153355D01*
X79359645Y-78134255D01*
X79339719Y-78106539D01*
X79330468Y-78083820D01*
X79325778Y-78065810D01*
X79325634Y-78063596D01*
X79320020Y-78063859D01*
X79304350Y-78074775D01*
X79280377Y-78094943D01*
X79249859Y-78122962D01*
X79242806Y-78129690D01*
X79195206Y-78173537D01*
X79156213Y-78205120D01*
X79124155Y-78225560D01*
X79097359Y-78235977D01*
X79081332Y-78237907D01*
X79049889Y-78230391D01*
X79017426Y-78209697D01*
X78990638Y-78181584D01*
X78977342Y-78161676D01*
X78970173Y-78142080D01*
X78967357Y-78116246D01*
X78967018Y-78094458D01*
X78967039Y-78038357D01*
X78923316Y-78097215D01*
X78884933Y-78143312D01*
X78846247Y-78179798D01*
X78808798Y-78206293D01*
X78774130Y-78222415D01*
X78743783Y-78227781D01*
X78719300Y-78222009D01*
X78702221Y-78204718D01*
X78694089Y-78175526D01*
X78694005Y-78154024D01*
X78695491Y-78129808D01*
X78695741Y-78123160D01*
X78782569Y-78123160D01*
X78790898Y-78121815D01*
X78805590Y-78111214D01*
X78824151Y-78092973D01*
X78835641Y-78079608D01*
X78873719Y-78031739D01*
X78913150Y-77980613D01*
X78952144Y-77928694D01*
X78988915Y-77878450D01*
X79021673Y-77832345D01*
X79048632Y-77792844D01*
X79068003Y-77762414D01*
X79075775Y-77748472D01*
X79074567Y-77746645D01*
X79063873Y-77756252D01*
X79045056Y-77775800D01*
X79019481Y-77803799D01*
X78988512Y-77838755D01*
X78953513Y-77879176D01*
X78917620Y-77921462D01*
X78869474Y-77980743D01*
X78830561Y-78032919D01*
X78801874Y-78076575D01*
X78784404Y-78110293D01*
X78783098Y-78113634D01*
X78782569Y-78123160D01*
X78695741Y-78123160D01*
X78696072Y-78114334D01*
X78695884Y-78111324D01*
X78688249Y-78114231D01*
X78670588Y-78121456D01*
X78664510Y-78123987D01*
X78628947Y-78133900D01*
X78592510Y-78136070D01*
X78562223Y-78130242D01*
X78557172Y-78127909D01*
X78544831Y-78112321D01*
X78540935Y-78085613D01*
X78545461Y-78051265D01*
X78557934Y-78013804D01*
X78567646Y-77994959D01*
X78585132Y-77964824D01*
X78608734Y-77926104D01*
X78636791Y-77881504D01*
X78667646Y-77833729D01*
X78678701Y-77816908D01*
X78716224Y-77760075D01*
X78745958Y-77714918D01*
X78769382Y-77679011D01*
X78787976Y-77649927D01*
X78803221Y-77625239D01*
X78816598Y-77602521D01*
X78829586Y-77579347D01*
X78843665Y-77553288D01*
X78860316Y-77521920D01*
X78871282Y-77501192D01*
X78898869Y-77451022D01*
X78931034Y-77395551D01*
X78963670Y-77341716D01*
X78991197Y-77298667D01*
X79019275Y-77254948D01*
X79051572Y-77202397D01*
X79084420Y-77147103D01*
X79114154Y-77095156D01*
X79118955Y-77086517D01*
X79139149Y-77049368D01*
X79163730Y-77003158D01*
X79191819Y-76949622D01*
X79222538Y-76890496D01*
X79255008Y-76827515D01*
X79288352Y-76762412D01*
X79321691Y-76696923D01*
X79354147Y-76632783D01*
X79384842Y-76571727D01*
X79412897Y-76515489D01*
X79437435Y-76465804D01*
X79457577Y-76424407D01*
X79472444Y-76393033D01*
X79481158Y-76373417D01*
X79483068Y-76367278D01*
X79471614Y-76367137D01*
X79450590Y-76377572D01*
X79422159Y-76397026D01*
X79388483Y-76423943D01*
X79351724Y-76456767D01*
X79331127Y-76476624D01*
X79252370Y-76558431D01*
X79175338Y-76646409D01*
X79099019Y-76741988D01*
X79022405Y-76846597D01*
X78944486Y-76961668D01*
X78864251Y-77088630D01*
X78780691Y-77228914D01*
X78701642Y-77368041D01*
X78659289Y-77444601D01*
X78623856Y-77510061D01*
X78593627Y-77567819D01*
X78566889Y-77621275D01*
X78541928Y-77673832D01*
X78517030Y-77728887D01*
X78499225Y-77769568D01*
X78476227Y-77818943D01*
X78448466Y-77872598D01*
X78417446Y-77928170D01*
X78384669Y-77983293D01*
X78351638Y-78035601D01*
X78319855Y-78082729D01*
X78290822Y-78122313D01*
X78266042Y-78151986D01*
X78247018Y-78169384D01*
X78244143Y-78171125D01*
X78222515Y-78175303D01*
X78205294Y-78165234D01*
X78195779Y-78143510D01*
X78194870Y-78132396D01*
X78195882Y-78121016D01*
X78199444Y-78106800D01*
X78206340Y-78088074D01*
X78217358Y-78063166D01*
X78233284Y-78030404D01*
X78254905Y-77988113D01*
X78283006Y-77934622D01*
X78318374Y-77868257D01*
X78323774Y-77858173D01*
X78361280Y-77784449D01*
X78399881Y-77701014D01*
X78440435Y-77605904D01*
X78483798Y-77497156D01*
X78502310Y-77448904D01*
X78524235Y-77393482D01*
X78529297Y-77381395D01*
X78599920Y-77381395D01*
X78604139Y-77385615D01*
X78608358Y-77381395D01*
X78604139Y-77377176D01*
X78599920Y-77381395D01*
X78529297Y-77381395D01*
X78536365Y-77364518D01*
X78608358Y-77364518D01*
X78612578Y-77368738D01*
X78616797Y-77364518D01*
X78612578Y-77360299D01*
X78608358Y-77364518D01*
X78536365Y-77364518D01*
X78549912Y-77332168D01*
X78576374Y-77271855D01*
X78600654Y-77219438D01*
X78604189Y-77212141D01*
X78650136Y-77114056D01*
X78693381Y-77014095D01*
X78731500Y-76918037D01*
X78755368Y-76851734D01*
X78772750Y-76795832D01*
X78788639Y-76735509D01*
X78802486Y-76673875D01*
X78813740Y-76614038D01*
X78821852Y-76559109D01*
X78826271Y-76512198D01*
X78826449Y-76476414D01*
X78824324Y-76461711D01*
X78818806Y-76439726D01*
X78775992Y-76463028D01*
X78737116Y-76486339D01*
X78701764Y-76512703D01*
X78668809Y-76543736D01*
X78637122Y-76581053D01*
X78605576Y-76626271D01*
X78573040Y-76681004D01*
X78538388Y-76746868D01*
X78500490Y-76825479D01*
X78458743Y-76917276D01*
X78415358Y-77015474D01*
X78378300Y-77101463D01*
X78346515Y-77178212D01*
X78318947Y-77248690D01*
X78294542Y-77315865D01*
X78272244Y-77382704D01*
X78250998Y-77452177D01*
X78229749Y-77527251D01*
X78207443Y-77610896D01*
X78194793Y-77659867D01*
X78169273Y-77759379D01*
X78147478Y-77844092D01*
X78128984Y-77915564D01*
X78113366Y-77975356D01*
X78100202Y-78025027D01*
X78089066Y-78066135D01*
X78079535Y-78100242D01*
X78071185Y-78128905D01*
X78063592Y-78153686D01*
X78056332Y-78176142D01*
X78048981Y-78197834D01*
X78046913Y-78203798D01*
X78030798Y-78247533D01*
X78012714Y-78292615D01*
X77995462Y-78332205D01*
X77987382Y-78349084D01*
X77951065Y-78416605D01*
X77917874Y-78468204D01*
X77887154Y-78504407D01*
X77858249Y-78525739D01*
X77830501Y-78532726D01*
X77803254Y-78525894D01*
X77783279Y-78512461D01*
X77764027Y-78491885D01*
X77749464Y-78465330D01*
X77739142Y-78430662D01*
X77732611Y-78385746D01*
X77729425Y-78328448D01*
X77729135Y-78256633D01*
X77729159Y-78254784D01*
X77734754Y-78100744D01*
X77747762Y-77957954D01*
X77768936Y-77822156D01*
X77799032Y-77689095D01*
X77838801Y-77554511D01*
X77868078Y-77470000D01*
X77885732Y-77422357D01*
X77899228Y-77388455D01*
X77909718Y-77366016D01*
X77918355Y-77352762D01*
X77926294Y-77346413D01*
X77931383Y-77344945D01*
X77942129Y-77345489D01*
X77948072Y-77352041D01*
X77948954Y-77366348D01*
X77944514Y-77390159D01*
X77934494Y-77425223D01*
X77918636Y-77473288D01*
X77907693Y-77504864D01*
X77870048Y-77619800D01*
X77840349Y-77728387D01*
X77817903Y-77834823D01*
X77802015Y-77943307D01*
X77791991Y-78058037D01*
X77787137Y-78183211D01*
X77786483Y-78237989D01*
X77786344Y-78296322D01*
X77786775Y-78340514D01*
X77787983Y-78373297D01*
X77790174Y-78397406D01*
X77793557Y-78415571D01*
X77798336Y-78430525D01*
X77801650Y-78438404D01*
X77813482Y-78459693D01*
X77825010Y-78472505D01*
X77829259Y-78474186D01*
X77840283Y-78466985D01*
X77856875Y-78447076D01*
X77877364Y-78416997D01*
X77900085Y-78379288D01*
X77923369Y-78336488D01*
X77935276Y-78312795D01*
X77950067Y-78280652D01*
X77964741Y-78244684D01*
X77979782Y-78203293D01*
X77995674Y-78154884D01*
X78012900Y-78097860D01*
X78031944Y-78030626D01*
X78053290Y-77951585D01*
X78077421Y-77859141D01*
X78102434Y-77761130D01*
X78121078Y-77687953D01*
X78139545Y-77616336D01*
X78157168Y-77548809D01*
X78173278Y-77487903D01*
X78187206Y-77436145D01*
X78198285Y-77396068D01*
X78204997Y-77372957D01*
X78223081Y-77317792D01*
X78246435Y-77253234D01*
X78274079Y-77181499D01*
X78305033Y-77104800D01*
X78338318Y-77025350D01*
X78372953Y-76945363D01*
X78407959Y-76867053D01*
X78442355Y-76792634D01*
X78475162Y-76724319D01*
X78505399Y-76664323D01*
X78532087Y-76614859D01*
X78554246Y-76578141D01*
X78561397Y-76567825D01*
X78593793Y-76528550D01*
X78633389Y-76487886D01*
X78676014Y-76449566D01*
X78717498Y-76417323D01*
X78753670Y-76394891D01*
X78755673Y-76393893D01*
X78784918Y-76380765D01*
X78805989Y-76375195D01*
X78825108Y-76375932D01*
X78834768Y-76377997D01*
X78859534Y-76387840D01*
X78876901Y-76404654D01*
X78887695Y-76430672D01*
X78892742Y-76468126D01*
X78892869Y-76519249D01*
X78892283Y-76533322D01*
X78881765Y-76632650D01*
X78859480Y-76742169D01*
X78825886Y-76860436D01*
X78781440Y-76986006D01*
X78726602Y-77117436D01*
X78667251Y-77242512D01*
X78648732Y-77280213D01*
X78633718Y-77312242D01*
X78623491Y-77335750D01*
X78619329Y-77347890D01*
X78619426Y-77348864D01*
X78624714Y-77343433D01*
X78636407Y-77325944D01*
X78652780Y-77299124D01*
X78672102Y-77265703D01*
X78672106Y-77265695D01*
X78768579Y-77099763D01*
X78862069Y-76949162D01*
X78953381Y-76812777D01*
X79043316Y-76689492D01*
X79132677Y-76578191D01*
X79222267Y-76477759D01*
X79283953Y-76414884D01*
X79344294Y-76360273D01*
X79399138Y-76319845D01*
X79448051Y-76293796D01*
X79490597Y-76282319D01*
X79526343Y-76285611D01*
G37*
D14*
%TO.C,C4*%
X86367233Y-54862000D02*
X86659767Y-54862000D01*
X86367233Y-55882000D02*
X86659767Y-55882000D01*
%TD*%
M02*
