M48
; DRILL file {KiCad 8.0.6} date 2025-04-08T19:22:28-0500
; FORMAT={-:-/ absolute / inch / decimal}
; #@! TF.CreationDate,2025-04-08T19:22:28-05:00
; #@! TF.GenerationSoftware,Kicad,Pcbnew,8.0.6
; #@! TF.FileFunction,Plated,1,2,PTH
FMAT,2
INCH
; #@! TA.AperFunction,Plated,PTH,ViaDrill
T1C0.0118
; #@! TA.AperFunction,Plated,PTH,ViaDrill
T2C0.0158
; #@! TA.AperFunction,Plated,PTH,ComponentDrill
T3C0.0315
; #@! TA.AperFunction,Plated,PTH,ComponentDrill
T4C0.0354
; #@! TA.AperFunction,Plated,PTH,ComponentDrill
T5C0.0394
; #@! TA.AperFunction,Plated,PTH,ComponentDrill
T6C0.0787
%
G90
G05
T1
X5.4906Y-3.855
X5.5594Y-3.935
X5.5606Y-3.775
X5.5606Y-3.855
X5.7722Y-3.9206
X5.7812Y-3.8888
X5.8573Y-4.0078
X5.8923Y-3.8777
X5.9213Y-3.2542
X5.9606Y-3.2542
X5.97Y-3.8709
X5.99Y-3.705
X6.0Y-3.2542
X6.005Y-3.3006
X6.0148Y-3.9426
X6.0432Y-3.9564
X6.05Y-3.76
X6.05Y-3.8696
X6.11Y-3.305
X6.1181Y-3.2542
X6.1527Y-4.0078
X6.2226Y-3.875
X6.435Y-3.6221
X6.4987Y-3.6305
T2
X5.725Y-2.985
X5.725Y-3.045
X5.76Y-2.625
X5.835Y-2.625
X5.845Y-3.19
X5.915Y-2.625
X5.93Y-3.175
X6.0Y-2.555
X6.0Y-2.695
X6.02Y-4.04
X6.02Y-4.12
X6.02Y-4.215
X6.065Y-3.175
X6.095Y-2.625
X6.16Y-3.185
X6.17Y-2.625
X6.25Y-2.625
X6.275Y-2.925
X6.275Y-3.06
X6.275Y-3.12
X6.29Y-3.74
X6.51Y-3.905
X6.595Y-3.84
T3
X5.9322Y-3.35
X6.07Y-3.35
T4
X5.515Y-2.65
X5.515Y-2.75
X5.515Y-2.85
X5.515Y-2.95
X5.515Y-3.18
X5.515Y-3.28
X5.515Y-3.51
X5.515Y-3.61
X6.565Y-3.32
X6.565Y-3.42
X6.565Y-3.665
X6.565Y-3.765
T5
X6.42Y-2.675
X6.42Y-2.775
X6.42Y-2.875
X6.42Y-2.975
X6.42Y-3.075
X6.56Y-2.675
X6.56Y-2.775
X6.56Y-2.875
X6.56Y-2.975
T6
G00X5.8048Y-2.3668
M15
G01X5.8875Y-2.3668
M16
G05
G00X5.8942Y-3.645
M15
G01X5.8116Y-3.645
M16
G05
G00X6.1158Y-2.3668
M15
G01X6.1985Y-2.3668
M16
G05
G00X6.2053Y-3.645
M15
G01X6.1226Y-3.645
M16
G05
M30
