%TF.GenerationSoftware,KiCad,Pcbnew,8.0.6*%
%TF.CreationDate,2025-04-08T19:20:38-05:00*%
%TF.ProjectId,Smart_MoCo,536d6172-745f-44d6-9f43-6f2e6b696361,rev?*%
%TF.SameCoordinates,Original*%
%TF.FileFunction,Legend,Top*%
%TF.FilePolarity,Positive*%
%FSLAX46Y46*%
G04 Gerber Fmt 4.6, Leading zero omitted, Abs format (unit mm)*
G04 Created by KiCad (PCBNEW 8.0.6) date 2025-04-08 19:20:38*
%MOMM*%
%LPD*%
G01*
G04 APERTURE LIST*
%ADD10C,0.200000*%
%ADD11C,0.400000*%
%ADD12C,0.150000*%
%ADD13C,0.120000*%
G04 APERTURE END LIST*
D10*
X161645019Y-93651101D02*
X161597400Y-93603482D01*
X161597400Y-93603482D02*
X161549780Y-93460625D01*
X161549780Y-93460625D02*
X161549780Y-93365387D01*
X161549780Y-93365387D02*
X161597400Y-93222530D01*
X161597400Y-93222530D02*
X161692638Y-93127292D01*
X161692638Y-93127292D02*
X161787876Y-93079673D01*
X161787876Y-93079673D02*
X161978352Y-93032054D01*
X161978352Y-93032054D02*
X162121209Y-93032054D01*
X162121209Y-93032054D02*
X162311685Y-93079673D01*
X162311685Y-93079673D02*
X162406923Y-93127292D01*
X162406923Y-93127292D02*
X162502161Y-93222530D01*
X162502161Y-93222530D02*
X162549780Y-93365387D01*
X162549780Y-93365387D02*
X162549780Y-93460625D01*
X162549780Y-93460625D02*
X162502161Y-93603482D01*
X162502161Y-93603482D02*
X162454542Y-93651101D01*
X161835495Y-94032054D02*
X161835495Y-94508244D01*
X161549780Y-93936816D02*
X162549780Y-94270149D01*
X162549780Y-94270149D02*
X161549780Y-94603482D01*
X161549780Y-94936816D02*
X162549780Y-94936816D01*
X162549780Y-94936816D02*
X161549780Y-95508244D01*
X161549780Y-95508244D02*
X162549780Y-95508244D01*
D11*
X146916347Y-65774438D02*
X146916347Y-63774438D01*
X146916347Y-63774438D02*
X147583014Y-65203009D01*
X147583014Y-65203009D02*
X148249680Y-63774438D01*
X148249680Y-63774438D02*
X148249680Y-65774438D01*
X149202061Y-65012533D02*
X150725871Y-65012533D01*
D10*
X142054054Y-100403600D02*
X142196911Y-100451219D01*
X142196911Y-100451219D02*
X142435006Y-100451219D01*
X142435006Y-100451219D02*
X142530244Y-100403600D01*
X142530244Y-100403600D02*
X142577863Y-100355980D01*
X142577863Y-100355980D02*
X142625482Y-100260742D01*
X142625482Y-100260742D02*
X142625482Y-100165504D01*
X142625482Y-100165504D02*
X142577863Y-100070266D01*
X142577863Y-100070266D02*
X142530244Y-100022647D01*
X142530244Y-100022647D02*
X142435006Y-99975028D01*
X142435006Y-99975028D02*
X142244530Y-99927409D01*
X142244530Y-99927409D02*
X142149292Y-99879790D01*
X142149292Y-99879790D02*
X142101673Y-99832171D01*
X142101673Y-99832171D02*
X142054054Y-99736933D01*
X142054054Y-99736933D02*
X142054054Y-99641695D01*
X142054054Y-99641695D02*
X142101673Y-99546457D01*
X142101673Y-99546457D02*
X142149292Y-99498838D01*
X142149292Y-99498838D02*
X142244530Y-99451219D01*
X142244530Y-99451219D02*
X142482625Y-99451219D01*
X142482625Y-99451219D02*
X142625482Y-99498838D01*
X143244530Y-99975028D02*
X143244530Y-100451219D01*
X142911197Y-99451219D02*
X143244530Y-99975028D01*
X143244530Y-99975028D02*
X143577863Y-99451219D01*
X143863578Y-100403600D02*
X144006435Y-100451219D01*
X144006435Y-100451219D02*
X144244530Y-100451219D01*
X144244530Y-100451219D02*
X144339768Y-100403600D01*
X144339768Y-100403600D02*
X144387387Y-100355980D01*
X144387387Y-100355980D02*
X144435006Y-100260742D01*
X144435006Y-100260742D02*
X144435006Y-100165504D01*
X144435006Y-100165504D02*
X144387387Y-100070266D01*
X144387387Y-100070266D02*
X144339768Y-100022647D01*
X144339768Y-100022647D02*
X144244530Y-99975028D01*
X144244530Y-99975028D02*
X144054054Y-99927409D01*
X144054054Y-99927409D02*
X143958816Y-99879790D01*
X143958816Y-99879790D02*
X143911197Y-99832171D01*
X143911197Y-99832171D02*
X143863578Y-99736933D01*
X143863578Y-99736933D02*
X143863578Y-99641695D01*
X143863578Y-99641695D02*
X143911197Y-99546457D01*
X143911197Y-99546457D02*
X143958816Y-99498838D01*
X143958816Y-99498838D02*
X144054054Y-99451219D01*
X144054054Y-99451219D02*
X144292149Y-99451219D01*
X144292149Y-99451219D02*
X144435006Y-99498838D01*
X154706435Y-77607219D02*
X155325482Y-77607219D01*
X155325482Y-77607219D02*
X154992149Y-77988171D01*
X154992149Y-77988171D02*
X155135006Y-77988171D01*
X155135006Y-77988171D02*
X155230244Y-78035790D01*
X155230244Y-78035790D02*
X155277863Y-78083409D01*
X155277863Y-78083409D02*
X155325482Y-78178647D01*
X155325482Y-78178647D02*
X155325482Y-78416742D01*
X155325482Y-78416742D02*
X155277863Y-78511980D01*
X155277863Y-78511980D02*
X155230244Y-78559600D01*
X155230244Y-78559600D02*
X155135006Y-78607219D01*
X155135006Y-78607219D02*
X154849292Y-78607219D01*
X154849292Y-78607219D02*
X154754054Y-78559600D01*
X154754054Y-78559600D02*
X154706435Y-78511980D01*
X155611197Y-77607219D02*
X155944530Y-78607219D01*
X155944530Y-78607219D02*
X156277863Y-77607219D01*
X156515959Y-77607219D02*
X157135006Y-77607219D01*
X157135006Y-77607219D02*
X156801673Y-77988171D01*
X156801673Y-77988171D02*
X156944530Y-77988171D01*
X156944530Y-77988171D02*
X157039768Y-78035790D01*
X157039768Y-78035790D02*
X157087387Y-78083409D01*
X157087387Y-78083409D02*
X157135006Y-78178647D01*
X157135006Y-78178647D02*
X157135006Y-78416742D01*
X157135006Y-78416742D02*
X157087387Y-78511980D01*
X157087387Y-78511980D02*
X157039768Y-78559600D01*
X157039768Y-78559600D02*
X156944530Y-78607219D01*
X156944530Y-78607219D02*
X156658816Y-78607219D01*
X156658816Y-78607219D02*
X156563578Y-78559600D01*
X156563578Y-78559600D02*
X156515959Y-78511980D01*
X142101673Y-98419219D02*
X142101673Y-97419219D01*
X142577863Y-98419219D02*
X142577863Y-97419219D01*
X142577863Y-97419219D02*
X143149291Y-98419219D01*
X143149291Y-98419219D02*
X143149291Y-97419219D01*
X143958815Y-97895409D02*
X144101672Y-97943028D01*
X144101672Y-97943028D02*
X144149291Y-97990647D01*
X144149291Y-97990647D02*
X144196910Y-98085885D01*
X144196910Y-98085885D02*
X144196910Y-98228742D01*
X144196910Y-98228742D02*
X144149291Y-98323980D01*
X144149291Y-98323980D02*
X144101672Y-98371600D01*
X144101672Y-98371600D02*
X144006434Y-98419219D01*
X144006434Y-98419219D02*
X143625482Y-98419219D01*
X143625482Y-98419219D02*
X143625482Y-97419219D01*
X143625482Y-97419219D02*
X143958815Y-97419219D01*
X143958815Y-97419219D02*
X144054053Y-97466838D01*
X144054053Y-97466838D02*
X144101672Y-97514457D01*
X144101672Y-97514457D02*
X144149291Y-97609695D01*
X144149291Y-97609695D02*
X144149291Y-97704933D01*
X144149291Y-97704933D02*
X144101672Y-97800171D01*
X144101672Y-97800171D02*
X144054053Y-97847790D01*
X144054053Y-97847790D02*
X143958815Y-97895409D01*
X143958815Y-97895409D02*
X143625482Y-97895409D01*
X160977006Y-65383409D02*
X161119863Y-65431028D01*
X161119863Y-65431028D02*
X161167482Y-65478647D01*
X161167482Y-65478647D02*
X161215101Y-65573885D01*
X161215101Y-65573885D02*
X161215101Y-65716742D01*
X161215101Y-65716742D02*
X161167482Y-65811980D01*
X161167482Y-65811980D02*
X161119863Y-65859600D01*
X161119863Y-65859600D02*
X161024625Y-65907219D01*
X161024625Y-65907219D02*
X160643673Y-65907219D01*
X160643673Y-65907219D02*
X160643673Y-64907219D01*
X160643673Y-64907219D02*
X160977006Y-64907219D01*
X160977006Y-64907219D02*
X161072244Y-64954838D01*
X161072244Y-64954838D02*
X161119863Y-65002457D01*
X161119863Y-65002457D02*
X161167482Y-65097695D01*
X161167482Y-65097695D02*
X161167482Y-65192933D01*
X161167482Y-65192933D02*
X161119863Y-65288171D01*
X161119863Y-65288171D02*
X161072244Y-65335790D01*
X161072244Y-65335790D02*
X160977006Y-65383409D01*
X160977006Y-65383409D02*
X160643673Y-65383409D01*
X161643673Y-64907219D02*
X161643673Y-65716742D01*
X161643673Y-65716742D02*
X161691292Y-65811980D01*
X161691292Y-65811980D02*
X161738911Y-65859600D01*
X161738911Y-65859600D02*
X161834149Y-65907219D01*
X161834149Y-65907219D02*
X162024625Y-65907219D01*
X162024625Y-65907219D02*
X162119863Y-65859600D01*
X162119863Y-65859600D02*
X162167482Y-65811980D01*
X162167482Y-65811980D02*
X162215101Y-65716742D01*
X162215101Y-65716742D02*
X162215101Y-64907219D01*
X163262720Y-65811980D02*
X163215101Y-65859600D01*
X163215101Y-65859600D02*
X163072244Y-65907219D01*
X163072244Y-65907219D02*
X162977006Y-65907219D01*
X162977006Y-65907219D02*
X162834149Y-65859600D01*
X162834149Y-65859600D02*
X162738911Y-65764361D01*
X162738911Y-65764361D02*
X162691292Y-65669123D01*
X162691292Y-65669123D02*
X162643673Y-65478647D01*
X162643673Y-65478647D02*
X162643673Y-65335790D01*
X162643673Y-65335790D02*
X162691292Y-65145314D01*
X162691292Y-65145314D02*
X162738911Y-65050076D01*
X162738911Y-65050076D02*
X162834149Y-64954838D01*
X162834149Y-64954838D02*
X162977006Y-64907219D01*
X162977006Y-64907219D02*
X163072244Y-64907219D01*
X163072244Y-64907219D02*
X163215101Y-64954838D01*
X163215101Y-64954838D02*
X163262720Y-65002457D01*
X163691292Y-65907219D02*
X163691292Y-64907219D01*
X164262720Y-65907219D02*
X163834149Y-65335790D01*
X164262720Y-64907219D02*
X163691292Y-65478647D01*
X165405578Y-65859600D02*
X165548435Y-65907219D01*
X165548435Y-65907219D02*
X165786530Y-65907219D01*
X165786530Y-65907219D02*
X165881768Y-65859600D01*
X165881768Y-65859600D02*
X165929387Y-65811980D01*
X165929387Y-65811980D02*
X165977006Y-65716742D01*
X165977006Y-65716742D02*
X165977006Y-65621504D01*
X165977006Y-65621504D02*
X165929387Y-65526266D01*
X165929387Y-65526266D02*
X165881768Y-65478647D01*
X165881768Y-65478647D02*
X165786530Y-65431028D01*
X165786530Y-65431028D02*
X165596054Y-65383409D01*
X165596054Y-65383409D02*
X165500816Y-65335790D01*
X165500816Y-65335790D02*
X165453197Y-65288171D01*
X165453197Y-65288171D02*
X165405578Y-65192933D01*
X165405578Y-65192933D02*
X165405578Y-65097695D01*
X165405578Y-65097695D02*
X165453197Y-65002457D01*
X165453197Y-65002457D02*
X165500816Y-64954838D01*
X165500816Y-64954838D02*
X165596054Y-64907219D01*
X165596054Y-64907219D02*
X165834149Y-64907219D01*
X165834149Y-64907219D02*
X165977006Y-64954838D01*
X166310340Y-64907219D02*
X166548435Y-65907219D01*
X166548435Y-65907219D02*
X166738911Y-65192933D01*
X166738911Y-65192933D02*
X166929387Y-65907219D01*
X166929387Y-65907219D02*
X167167483Y-64907219D01*
X167548435Y-65907219D02*
X167548435Y-64907219D01*
X167548435Y-64907219D02*
X167786530Y-64907219D01*
X167786530Y-64907219D02*
X167929387Y-64954838D01*
X167929387Y-64954838D02*
X168024625Y-65050076D01*
X168024625Y-65050076D02*
X168072244Y-65145314D01*
X168072244Y-65145314D02*
X168119863Y-65335790D01*
X168119863Y-65335790D02*
X168119863Y-65478647D01*
X168119863Y-65478647D02*
X168072244Y-65669123D01*
X168072244Y-65669123D02*
X168024625Y-65764361D01*
X168024625Y-65764361D02*
X167929387Y-65859600D01*
X167929387Y-65859600D02*
X167786530Y-65907219D01*
X167786530Y-65907219D02*
X167548435Y-65907219D01*
X155071482Y-75114838D02*
X154976244Y-75067219D01*
X154976244Y-75067219D02*
X154833387Y-75067219D01*
X154833387Y-75067219D02*
X154690530Y-75114838D01*
X154690530Y-75114838D02*
X154595292Y-75210076D01*
X154595292Y-75210076D02*
X154547673Y-75305314D01*
X154547673Y-75305314D02*
X154500054Y-75495790D01*
X154500054Y-75495790D02*
X154500054Y-75638647D01*
X154500054Y-75638647D02*
X154547673Y-75829123D01*
X154547673Y-75829123D02*
X154595292Y-75924361D01*
X154595292Y-75924361D02*
X154690530Y-76019600D01*
X154690530Y-76019600D02*
X154833387Y-76067219D01*
X154833387Y-76067219D02*
X154928625Y-76067219D01*
X154928625Y-76067219D02*
X155071482Y-76019600D01*
X155071482Y-76019600D02*
X155119101Y-75971980D01*
X155119101Y-75971980D02*
X155119101Y-75638647D01*
X155119101Y-75638647D02*
X154928625Y-75638647D01*
X155547673Y-76067219D02*
X155547673Y-75067219D01*
X155547673Y-75067219D02*
X156119101Y-76067219D01*
X156119101Y-76067219D02*
X156119101Y-75067219D01*
X156595292Y-76067219D02*
X156595292Y-75067219D01*
X156595292Y-75067219D02*
X156833387Y-75067219D01*
X156833387Y-75067219D02*
X156976244Y-75114838D01*
X156976244Y-75114838D02*
X157071482Y-75210076D01*
X157071482Y-75210076D02*
X157119101Y-75305314D01*
X157119101Y-75305314D02*
X157166720Y-75495790D01*
X157166720Y-75495790D02*
X157166720Y-75638647D01*
X157166720Y-75638647D02*
X157119101Y-75829123D01*
X157119101Y-75829123D02*
X157071482Y-75924361D01*
X157071482Y-75924361D02*
X156976244Y-76019600D01*
X156976244Y-76019600D02*
X156833387Y-76067219D01*
X156833387Y-76067219D02*
X156595292Y-76067219D01*
X158881006Y-75114838D02*
X158785768Y-75067219D01*
X158785768Y-75067219D02*
X158642911Y-75067219D01*
X158642911Y-75067219D02*
X158500054Y-75114838D01*
X158500054Y-75114838D02*
X158404816Y-75210076D01*
X158404816Y-75210076D02*
X158357197Y-75305314D01*
X158357197Y-75305314D02*
X158309578Y-75495790D01*
X158309578Y-75495790D02*
X158309578Y-75638647D01*
X158309578Y-75638647D02*
X158357197Y-75829123D01*
X158357197Y-75829123D02*
X158404816Y-75924361D01*
X158404816Y-75924361D02*
X158500054Y-76019600D01*
X158500054Y-76019600D02*
X158642911Y-76067219D01*
X158642911Y-76067219D02*
X158738149Y-76067219D01*
X158738149Y-76067219D02*
X158881006Y-76019600D01*
X158881006Y-76019600D02*
X158928625Y-75971980D01*
X158928625Y-75971980D02*
X158928625Y-75638647D01*
X158928625Y-75638647D02*
X158738149Y-75638647D01*
X159357197Y-76067219D02*
X159357197Y-75067219D01*
X159357197Y-75067219D02*
X159928625Y-76067219D01*
X159928625Y-76067219D02*
X159928625Y-75067219D01*
X160404816Y-76067219D02*
X160404816Y-75067219D01*
X160404816Y-75067219D02*
X160642911Y-75067219D01*
X160642911Y-75067219D02*
X160785768Y-75114838D01*
X160785768Y-75114838D02*
X160881006Y-75210076D01*
X160881006Y-75210076D02*
X160928625Y-75305314D01*
X160928625Y-75305314D02*
X160976244Y-75495790D01*
X160976244Y-75495790D02*
X160976244Y-75638647D01*
X160976244Y-75638647D02*
X160928625Y-75829123D01*
X160928625Y-75829123D02*
X160881006Y-75924361D01*
X160881006Y-75924361D02*
X160785768Y-76019600D01*
X160785768Y-76019600D02*
X160642911Y-76067219D01*
X160642911Y-76067219D02*
X160404816Y-76067219D01*
X163581733Y-83935673D02*
X163581733Y-84697578D01*
X163581733Y-86697578D02*
X163581733Y-87459483D01*
X163200780Y-87078530D02*
X163962685Y-87078530D01*
X155071482Y-70034838D02*
X154976244Y-69987219D01*
X154976244Y-69987219D02*
X154833387Y-69987219D01*
X154833387Y-69987219D02*
X154690530Y-70034838D01*
X154690530Y-70034838D02*
X154595292Y-70130076D01*
X154595292Y-70130076D02*
X154547673Y-70225314D01*
X154547673Y-70225314D02*
X154500054Y-70415790D01*
X154500054Y-70415790D02*
X154500054Y-70558647D01*
X154500054Y-70558647D02*
X154547673Y-70749123D01*
X154547673Y-70749123D02*
X154595292Y-70844361D01*
X154595292Y-70844361D02*
X154690530Y-70939600D01*
X154690530Y-70939600D02*
X154833387Y-70987219D01*
X154833387Y-70987219D02*
X154928625Y-70987219D01*
X154928625Y-70987219D02*
X155071482Y-70939600D01*
X155071482Y-70939600D02*
X155119101Y-70891980D01*
X155119101Y-70891980D02*
X155119101Y-70558647D01*
X155119101Y-70558647D02*
X154928625Y-70558647D01*
X155547673Y-70987219D02*
X155547673Y-69987219D01*
X155547673Y-69987219D02*
X156119101Y-70987219D01*
X156119101Y-70987219D02*
X156119101Y-69987219D01*
X156595292Y-70987219D02*
X156595292Y-69987219D01*
X156595292Y-69987219D02*
X156833387Y-69987219D01*
X156833387Y-69987219D02*
X156976244Y-70034838D01*
X156976244Y-70034838D02*
X157071482Y-70130076D01*
X157071482Y-70130076D02*
X157119101Y-70225314D01*
X157119101Y-70225314D02*
X157166720Y-70415790D01*
X157166720Y-70415790D02*
X157166720Y-70558647D01*
X157166720Y-70558647D02*
X157119101Y-70749123D01*
X157119101Y-70749123D02*
X157071482Y-70844361D01*
X157071482Y-70844361D02*
X156976244Y-70939600D01*
X156976244Y-70939600D02*
X156833387Y-70987219D01*
X156833387Y-70987219D02*
X156595292Y-70987219D01*
X158928625Y-70891980D02*
X158881006Y-70939600D01*
X158881006Y-70939600D02*
X158738149Y-70987219D01*
X158738149Y-70987219D02*
X158642911Y-70987219D01*
X158642911Y-70987219D02*
X158500054Y-70939600D01*
X158500054Y-70939600D02*
X158404816Y-70844361D01*
X158404816Y-70844361D02*
X158357197Y-70749123D01*
X158357197Y-70749123D02*
X158309578Y-70558647D01*
X158309578Y-70558647D02*
X158309578Y-70415790D01*
X158309578Y-70415790D02*
X158357197Y-70225314D01*
X158357197Y-70225314D02*
X158404816Y-70130076D01*
X158404816Y-70130076D02*
X158500054Y-70034838D01*
X158500054Y-70034838D02*
X158642911Y-69987219D01*
X158642911Y-69987219D02*
X158738149Y-69987219D01*
X158738149Y-69987219D02*
X158881006Y-70034838D01*
X158881006Y-70034838D02*
X158928625Y-70082457D01*
X159833387Y-70987219D02*
X159357197Y-70987219D01*
X159357197Y-70987219D02*
X159357197Y-69987219D01*
X160166721Y-70987219D02*
X160166721Y-69987219D01*
X160738149Y-70987219D02*
X160309578Y-70415790D01*
X160738149Y-69987219D02*
X160166721Y-70558647D01*
D11*
X147582966Y-108192438D02*
X146440109Y-108192438D01*
X147011537Y-108192438D02*
X147011537Y-106192438D01*
X147011537Y-106192438D02*
X146821061Y-106478152D01*
X146821061Y-106478152D02*
X146630585Y-106668628D01*
X146630585Y-106668628D02*
X146440109Y-106763866D01*
X148344871Y-106382914D02*
X148440109Y-106287676D01*
X148440109Y-106287676D02*
X148630585Y-106192438D01*
X148630585Y-106192438D02*
X149106776Y-106192438D01*
X149106776Y-106192438D02*
X149297252Y-106287676D01*
X149297252Y-106287676D02*
X149392490Y-106382914D01*
X149392490Y-106382914D02*
X149487728Y-106573390D01*
X149487728Y-106573390D02*
X149487728Y-106763866D01*
X149487728Y-106763866D02*
X149392490Y-107049580D01*
X149392490Y-107049580D02*
X148249633Y-108192438D01*
X148249633Y-108192438D02*
X149487728Y-108192438D01*
X150059157Y-106192438D02*
X150725823Y-108192438D01*
X150725823Y-108192438D02*
X151392490Y-106192438D01*
X154630586Y-106287676D02*
X154440110Y-106192438D01*
X154440110Y-106192438D02*
X154154396Y-106192438D01*
X154154396Y-106192438D02*
X153868681Y-106287676D01*
X153868681Y-106287676D02*
X153678205Y-106478152D01*
X153678205Y-106478152D02*
X153582967Y-106668628D01*
X153582967Y-106668628D02*
X153487729Y-107049580D01*
X153487729Y-107049580D02*
X153487729Y-107335295D01*
X153487729Y-107335295D02*
X153582967Y-107716247D01*
X153582967Y-107716247D02*
X153678205Y-107906723D01*
X153678205Y-107906723D02*
X153868681Y-108097200D01*
X153868681Y-108097200D02*
X154154396Y-108192438D01*
X154154396Y-108192438D02*
X154344872Y-108192438D01*
X154344872Y-108192438D02*
X154630586Y-108097200D01*
X154630586Y-108097200D02*
X154725824Y-108001961D01*
X154725824Y-108001961D02*
X154725824Y-107335295D01*
X154725824Y-107335295D02*
X154344872Y-107335295D01*
X155582967Y-108192438D02*
X155582967Y-106192438D01*
X155582967Y-106192438D02*
X156725824Y-108192438D01*
X156725824Y-108192438D02*
X156725824Y-106192438D01*
X157678205Y-108192438D02*
X157678205Y-106192438D01*
X157678205Y-106192438D02*
X158154395Y-106192438D01*
X158154395Y-106192438D02*
X158440110Y-106287676D01*
X158440110Y-106287676D02*
X158630586Y-106478152D01*
X158630586Y-106478152D02*
X158725824Y-106668628D01*
X158725824Y-106668628D02*
X158821062Y-107049580D01*
X158821062Y-107049580D02*
X158821062Y-107335295D01*
X158821062Y-107335295D02*
X158725824Y-107716247D01*
X158725824Y-107716247D02*
X158630586Y-107906723D01*
X158630586Y-107906723D02*
X158440110Y-108097200D01*
X158440110Y-108097200D02*
X158154395Y-108192438D01*
X158154395Y-108192438D02*
X157678205Y-108192438D01*
D10*
X165215673Y-79410275D02*
X165215673Y-78410275D01*
X165215673Y-78410275D02*
X165453768Y-78410275D01*
X165453768Y-78410275D02*
X165596625Y-78457894D01*
X165596625Y-78457894D02*
X165691863Y-78553132D01*
X165691863Y-78553132D02*
X165739482Y-78648370D01*
X165739482Y-78648370D02*
X165787101Y-78838846D01*
X165787101Y-78838846D02*
X165787101Y-78981703D01*
X165787101Y-78981703D02*
X165739482Y-79172179D01*
X165739482Y-79172179D02*
X165691863Y-79267417D01*
X165691863Y-79267417D02*
X165596625Y-79362656D01*
X165596625Y-79362656D02*
X165453768Y-79410275D01*
X165453768Y-79410275D02*
X165215673Y-79410275D01*
X166215673Y-79410275D02*
X166215673Y-78410275D01*
X166644244Y-79124560D02*
X167120434Y-79124560D01*
X166549006Y-79410275D02*
X166882339Y-78410275D01*
X166882339Y-78410275D02*
X167215672Y-79410275D01*
X168072815Y-78457894D02*
X167977577Y-78410275D01*
X167977577Y-78410275D02*
X167834720Y-78410275D01*
X167834720Y-78410275D02*
X167691863Y-78457894D01*
X167691863Y-78457894D02*
X167596625Y-78553132D01*
X167596625Y-78553132D02*
X167549006Y-78648370D01*
X167549006Y-78648370D02*
X167501387Y-78838846D01*
X167501387Y-78838846D02*
X167501387Y-78981703D01*
X167501387Y-78981703D02*
X167549006Y-79172179D01*
X167549006Y-79172179D02*
X167596625Y-79267417D01*
X167596625Y-79267417D02*
X167691863Y-79362656D01*
X167691863Y-79362656D02*
X167834720Y-79410275D01*
X167834720Y-79410275D02*
X167929958Y-79410275D01*
X167929958Y-79410275D02*
X168072815Y-79362656D01*
X168072815Y-79362656D02*
X168120434Y-79315036D01*
X168120434Y-79315036D02*
X168120434Y-78981703D01*
X168120434Y-78981703D02*
X167929958Y-78981703D01*
X168501387Y-79124560D02*
X168977577Y-79124560D01*
X168406149Y-79410275D02*
X168739482Y-78410275D01*
X168739482Y-78410275D02*
X169072815Y-79410275D01*
X165215673Y-81020219D02*
X165215673Y-80020219D01*
X165215673Y-80020219D02*
X165453768Y-80020219D01*
X165453768Y-80020219D02*
X165596625Y-80067838D01*
X165596625Y-80067838D02*
X165691863Y-80163076D01*
X165691863Y-80163076D02*
X165739482Y-80258314D01*
X165739482Y-80258314D02*
X165787101Y-80448790D01*
X165787101Y-80448790D02*
X165787101Y-80591647D01*
X165787101Y-80591647D02*
X165739482Y-80782123D01*
X165739482Y-80782123D02*
X165691863Y-80877361D01*
X165691863Y-80877361D02*
X165596625Y-80972600D01*
X165596625Y-80972600D02*
X165453768Y-81020219D01*
X165453768Y-81020219D02*
X165215673Y-81020219D01*
X166215673Y-81020219D02*
X166215673Y-80020219D01*
X166644244Y-80734504D02*
X167120434Y-80734504D01*
X166549006Y-81020219D02*
X166882339Y-80020219D01*
X166882339Y-80020219D02*
X167215672Y-81020219D01*
X168072815Y-80067838D02*
X167977577Y-80020219D01*
X167977577Y-80020219D02*
X167834720Y-80020219D01*
X167834720Y-80020219D02*
X167691863Y-80067838D01*
X167691863Y-80067838D02*
X167596625Y-80163076D01*
X167596625Y-80163076D02*
X167549006Y-80258314D01*
X167549006Y-80258314D02*
X167501387Y-80448790D01*
X167501387Y-80448790D02*
X167501387Y-80591647D01*
X167501387Y-80591647D02*
X167549006Y-80782123D01*
X167549006Y-80782123D02*
X167596625Y-80877361D01*
X167596625Y-80877361D02*
X167691863Y-80972600D01*
X167691863Y-80972600D02*
X167834720Y-81020219D01*
X167834720Y-81020219D02*
X167929958Y-81020219D01*
X167929958Y-81020219D02*
X168072815Y-80972600D01*
X168072815Y-80972600D02*
X168120434Y-80924980D01*
X168120434Y-80924980D02*
X168120434Y-80591647D01*
X168120434Y-80591647D02*
X167929958Y-80591647D01*
X168882339Y-80496409D02*
X169025196Y-80544028D01*
X169025196Y-80544028D02*
X169072815Y-80591647D01*
X169072815Y-80591647D02*
X169120434Y-80686885D01*
X169120434Y-80686885D02*
X169120434Y-80829742D01*
X169120434Y-80829742D02*
X169072815Y-80924980D01*
X169072815Y-80924980D02*
X169025196Y-80972600D01*
X169025196Y-80972600D02*
X168929958Y-81020219D01*
X168929958Y-81020219D02*
X168549006Y-81020219D01*
X168549006Y-81020219D02*
X168549006Y-80020219D01*
X168549006Y-80020219D02*
X168882339Y-80020219D01*
X168882339Y-80020219D02*
X168977577Y-80067838D01*
X168977577Y-80067838D02*
X169025196Y-80115457D01*
X169025196Y-80115457D02*
X169072815Y-80210695D01*
X169072815Y-80210695D02*
X169072815Y-80305933D01*
X169072815Y-80305933D02*
X169025196Y-80401171D01*
X169025196Y-80401171D02*
X168977577Y-80448790D01*
X168977577Y-80448790D02*
X168882339Y-80496409D01*
X168882339Y-80496409D02*
X168549006Y-80496409D01*
X142926275Y-76814564D02*
X142926275Y-76195517D01*
X142926275Y-76195517D02*
X143307227Y-76528850D01*
X143307227Y-76528850D02*
X143307227Y-76385993D01*
X143307227Y-76385993D02*
X143354846Y-76290755D01*
X143354846Y-76290755D02*
X143402465Y-76243136D01*
X143402465Y-76243136D02*
X143497703Y-76195517D01*
X143497703Y-76195517D02*
X143735798Y-76195517D01*
X143735798Y-76195517D02*
X143831036Y-76243136D01*
X143831036Y-76243136D02*
X143878656Y-76290755D01*
X143878656Y-76290755D02*
X143926275Y-76385993D01*
X143926275Y-76385993D02*
X143926275Y-76671707D01*
X143926275Y-76671707D02*
X143878656Y-76766945D01*
X143878656Y-76766945D02*
X143831036Y-76814564D01*
X142926275Y-75909802D02*
X143926275Y-75576469D01*
X143926275Y-75576469D02*
X142926275Y-75243136D01*
X142926275Y-75005040D02*
X142926275Y-74385993D01*
X142926275Y-74385993D02*
X143307227Y-74719326D01*
X143307227Y-74719326D02*
X143307227Y-74576469D01*
X143307227Y-74576469D02*
X143354846Y-74481231D01*
X143354846Y-74481231D02*
X143402465Y-74433612D01*
X143402465Y-74433612D02*
X143497703Y-74385993D01*
X143497703Y-74385993D02*
X143735798Y-74385993D01*
X143735798Y-74385993D02*
X143831036Y-74433612D01*
X143831036Y-74433612D02*
X143878656Y-74481231D01*
X143878656Y-74481231D02*
X143926275Y-74576469D01*
X143926275Y-74576469D02*
X143926275Y-74862183D01*
X143926275Y-74862183D02*
X143878656Y-74957421D01*
X143878656Y-74957421D02*
X143831036Y-75005040D01*
X143640560Y-73243135D02*
X143640560Y-72766945D01*
X143926275Y-73338373D02*
X142926275Y-73005040D01*
X142926275Y-73005040D02*
X143926275Y-72671707D01*
X142878656Y-71624088D02*
X144164370Y-72481230D01*
X143926275Y-71290754D02*
X142926275Y-71290754D01*
X142926275Y-71290754D02*
X142926275Y-70909802D01*
X142926275Y-70909802D02*
X142973894Y-70814564D01*
X142973894Y-70814564D02*
X143021513Y-70766945D01*
X143021513Y-70766945D02*
X143116751Y-70719326D01*
X143116751Y-70719326D02*
X143259608Y-70719326D01*
X143259608Y-70719326D02*
X143354846Y-70766945D01*
X143354846Y-70766945D02*
X143402465Y-70814564D01*
X143402465Y-70814564D02*
X143450084Y-70909802D01*
X143450084Y-70909802D02*
X143450084Y-71290754D01*
X143402465Y-69195516D02*
X143450084Y-69052659D01*
X143450084Y-69052659D02*
X143497703Y-69005040D01*
X143497703Y-69005040D02*
X143592941Y-68957421D01*
X143592941Y-68957421D02*
X143735798Y-68957421D01*
X143735798Y-68957421D02*
X143831036Y-69005040D01*
X143831036Y-69005040D02*
X143878656Y-69052659D01*
X143878656Y-69052659D02*
X143926275Y-69147897D01*
X143926275Y-69147897D02*
X143926275Y-69528849D01*
X143926275Y-69528849D02*
X142926275Y-69528849D01*
X142926275Y-69528849D02*
X142926275Y-69195516D01*
X142926275Y-69195516D02*
X142973894Y-69100278D01*
X142973894Y-69100278D02*
X143021513Y-69052659D01*
X143021513Y-69052659D02*
X143116751Y-69005040D01*
X143116751Y-69005040D02*
X143211989Y-69005040D01*
X143211989Y-69005040D02*
X143307227Y-69052659D01*
X143307227Y-69052659D02*
X143354846Y-69100278D01*
X143354846Y-69100278D02*
X143402465Y-69195516D01*
X143402465Y-69195516D02*
X143402465Y-69528849D01*
X142973894Y-67243135D02*
X142926275Y-67338373D01*
X142926275Y-67338373D02*
X142926275Y-67481230D01*
X142926275Y-67481230D02*
X142973894Y-67624087D01*
X142973894Y-67624087D02*
X143069132Y-67719325D01*
X143069132Y-67719325D02*
X143164370Y-67766944D01*
X143164370Y-67766944D02*
X143354846Y-67814563D01*
X143354846Y-67814563D02*
X143497703Y-67814563D01*
X143497703Y-67814563D02*
X143688179Y-67766944D01*
X143688179Y-67766944D02*
X143783417Y-67719325D01*
X143783417Y-67719325D02*
X143878656Y-67624087D01*
X143878656Y-67624087D02*
X143926275Y-67481230D01*
X143926275Y-67481230D02*
X143926275Y-67385992D01*
X143926275Y-67385992D02*
X143878656Y-67243135D01*
X143878656Y-67243135D02*
X143831036Y-67195516D01*
X143831036Y-67195516D02*
X143497703Y-67195516D01*
X143497703Y-67195516D02*
X143497703Y-67385992D01*
X143926275Y-66766944D02*
X142926275Y-66766944D01*
X142926275Y-66766944D02*
X143926275Y-66195516D01*
X143926275Y-66195516D02*
X142926275Y-66195516D01*
X143926275Y-65719325D02*
X142926275Y-65719325D01*
X142926275Y-65719325D02*
X142926275Y-65481230D01*
X142926275Y-65481230D02*
X142973894Y-65338373D01*
X142973894Y-65338373D02*
X143069132Y-65243135D01*
X143069132Y-65243135D02*
X143164370Y-65195516D01*
X143164370Y-65195516D02*
X143354846Y-65147897D01*
X143354846Y-65147897D02*
X143497703Y-65147897D01*
X143497703Y-65147897D02*
X143688179Y-65195516D01*
X143688179Y-65195516D02*
X143783417Y-65243135D01*
X143783417Y-65243135D02*
X143878656Y-65338373D01*
X143878656Y-65338373D02*
X143926275Y-65481230D01*
X143926275Y-65481230D02*
X143926275Y-65719325D01*
X145012409Y-74433611D02*
X145012409Y-74100278D01*
X145536219Y-73957421D02*
X145536219Y-74433611D01*
X145536219Y-74433611D02*
X144536219Y-74433611D01*
X144536219Y-74433611D02*
X144536219Y-73957421D01*
X145536219Y-73528849D02*
X144536219Y-73528849D01*
X144536219Y-73528849D02*
X145536219Y-72957421D01*
X145536219Y-72957421D02*
X144536219Y-72957421D01*
X145440980Y-71909802D02*
X145488600Y-71957421D01*
X145488600Y-71957421D02*
X145536219Y-72100278D01*
X145536219Y-72100278D02*
X145536219Y-72195516D01*
X145536219Y-72195516D02*
X145488600Y-72338373D01*
X145488600Y-72338373D02*
X145393361Y-72433611D01*
X145393361Y-72433611D02*
X145298123Y-72481230D01*
X145298123Y-72481230D02*
X145107647Y-72528849D01*
X145107647Y-72528849D02*
X144964790Y-72528849D01*
X144964790Y-72528849D02*
X144774314Y-72481230D01*
X144774314Y-72481230D02*
X144679076Y-72433611D01*
X144679076Y-72433611D02*
X144583838Y-72338373D01*
X144583838Y-72338373D02*
X144536219Y-72195516D01*
X144536219Y-72195516D02*
X144536219Y-72100278D01*
X144536219Y-72100278D02*
X144583838Y-71957421D01*
X144583838Y-71957421D02*
X144631457Y-71909802D01*
X144536219Y-71290754D02*
X144536219Y-71100278D01*
X144536219Y-71100278D02*
X144583838Y-71005040D01*
X144583838Y-71005040D02*
X144679076Y-70909802D01*
X144679076Y-70909802D02*
X144869552Y-70862183D01*
X144869552Y-70862183D02*
X145202885Y-70862183D01*
X145202885Y-70862183D02*
X145393361Y-70909802D01*
X145393361Y-70909802D02*
X145488600Y-71005040D01*
X145488600Y-71005040D02*
X145536219Y-71100278D01*
X145536219Y-71100278D02*
X145536219Y-71290754D01*
X145536219Y-71290754D02*
X145488600Y-71385992D01*
X145488600Y-71385992D02*
X145393361Y-71481230D01*
X145393361Y-71481230D02*
X145202885Y-71528849D01*
X145202885Y-71528849D02*
X144869552Y-71528849D01*
X144869552Y-71528849D02*
X144679076Y-71481230D01*
X144679076Y-71481230D02*
X144583838Y-71385992D01*
X144583838Y-71385992D02*
X144536219Y-71290754D01*
X145536219Y-70433611D02*
X144536219Y-70433611D01*
X144536219Y-70433611D02*
X144536219Y-70195516D01*
X144536219Y-70195516D02*
X144583838Y-70052659D01*
X144583838Y-70052659D02*
X144679076Y-69957421D01*
X144679076Y-69957421D02*
X144774314Y-69909802D01*
X144774314Y-69909802D02*
X144964790Y-69862183D01*
X144964790Y-69862183D02*
X145107647Y-69862183D01*
X145107647Y-69862183D02*
X145298123Y-69909802D01*
X145298123Y-69909802D02*
X145393361Y-69957421D01*
X145393361Y-69957421D02*
X145488600Y-70052659D01*
X145488600Y-70052659D02*
X145536219Y-70195516D01*
X145536219Y-70195516D02*
X145536219Y-70433611D01*
X145012409Y-69433611D02*
X145012409Y-69100278D01*
X145536219Y-68957421D02*
X145536219Y-69433611D01*
X145536219Y-69433611D02*
X144536219Y-69433611D01*
X144536219Y-69433611D02*
X144536219Y-68957421D01*
X145536219Y-67957421D02*
X145060028Y-68290754D01*
X145536219Y-68528849D02*
X144536219Y-68528849D01*
X144536219Y-68528849D02*
X144536219Y-68147897D01*
X144536219Y-68147897D02*
X144583838Y-68052659D01*
X144583838Y-68052659D02*
X144631457Y-68005040D01*
X144631457Y-68005040D02*
X144726695Y-67957421D01*
X144726695Y-67957421D02*
X144869552Y-67957421D01*
X144869552Y-67957421D02*
X144964790Y-68005040D01*
X144964790Y-68005040D02*
X145012409Y-68052659D01*
X145012409Y-68052659D02*
X145060028Y-68147897D01*
X145060028Y-68147897D02*
X145060028Y-68528849D01*
D11*
X154790347Y-65774438D02*
X154790347Y-63774438D01*
X154790347Y-63774438D02*
X155457014Y-65203009D01*
X155457014Y-65203009D02*
X156123680Y-63774438D01*
X156123680Y-63774438D02*
X156123680Y-65774438D01*
X157076061Y-65012533D02*
X158599871Y-65012533D01*
X157837966Y-65774438D02*
X157837966Y-64250628D01*
D10*
X156293863Y-67447219D02*
X155817673Y-67447219D01*
X155817673Y-67447219D02*
X155770054Y-67923409D01*
X155770054Y-67923409D02*
X155817673Y-67875790D01*
X155817673Y-67875790D02*
X155912911Y-67828171D01*
X155912911Y-67828171D02*
X156151006Y-67828171D01*
X156151006Y-67828171D02*
X156246244Y-67875790D01*
X156246244Y-67875790D02*
X156293863Y-67923409D01*
X156293863Y-67923409D02*
X156341482Y-68018647D01*
X156341482Y-68018647D02*
X156341482Y-68256742D01*
X156341482Y-68256742D02*
X156293863Y-68351980D01*
X156293863Y-68351980D02*
X156246244Y-68399600D01*
X156246244Y-68399600D02*
X156151006Y-68447219D01*
X156151006Y-68447219D02*
X155912911Y-68447219D01*
X155912911Y-68447219D02*
X155817673Y-68399600D01*
X155817673Y-68399600D02*
X155770054Y-68351980D01*
X156627197Y-67447219D02*
X156960530Y-68447219D01*
X156960530Y-68447219D02*
X157293863Y-67447219D01*
X158293864Y-67447219D02*
X158912911Y-67447219D01*
X158912911Y-67447219D02*
X158579578Y-67828171D01*
X158579578Y-67828171D02*
X158722435Y-67828171D01*
X158722435Y-67828171D02*
X158817673Y-67875790D01*
X158817673Y-67875790D02*
X158865292Y-67923409D01*
X158865292Y-67923409D02*
X158912911Y-68018647D01*
X158912911Y-68018647D02*
X158912911Y-68256742D01*
X158912911Y-68256742D02*
X158865292Y-68351980D01*
X158865292Y-68351980D02*
X158817673Y-68399600D01*
X158817673Y-68399600D02*
X158722435Y-68447219D01*
X158722435Y-68447219D02*
X158436721Y-68447219D01*
X158436721Y-68447219D02*
X158341483Y-68399600D01*
X158341483Y-68399600D02*
X158293864Y-68351980D01*
X159198626Y-67447219D02*
X159531959Y-68447219D01*
X159531959Y-68447219D02*
X159865292Y-67447219D01*
X160103388Y-67447219D02*
X160722435Y-67447219D01*
X160722435Y-67447219D02*
X160389102Y-67828171D01*
X160389102Y-67828171D02*
X160531959Y-67828171D01*
X160531959Y-67828171D02*
X160627197Y-67875790D01*
X160627197Y-67875790D02*
X160674816Y-67923409D01*
X160674816Y-67923409D02*
X160722435Y-68018647D01*
X160722435Y-68018647D02*
X160722435Y-68256742D01*
X160722435Y-68256742D02*
X160674816Y-68351980D01*
X160674816Y-68351980D02*
X160627197Y-68399600D01*
X160627197Y-68399600D02*
X160531959Y-68447219D01*
X160531959Y-68447219D02*
X160246245Y-68447219D01*
X160246245Y-68447219D02*
X160151007Y-68399600D01*
X160151007Y-68399600D02*
X160103388Y-68351980D01*
X147643768Y-79687945D02*
X147691387Y-79545088D01*
X147691387Y-79545088D02*
X147691387Y-79306993D01*
X147691387Y-79306993D02*
X147643768Y-79211755D01*
X147643768Y-79211755D02*
X147596148Y-79164136D01*
X147596148Y-79164136D02*
X147500910Y-79116517D01*
X147500910Y-79116517D02*
X147405672Y-79116517D01*
X147405672Y-79116517D02*
X147310434Y-79164136D01*
X147310434Y-79164136D02*
X147262815Y-79211755D01*
X147262815Y-79211755D02*
X147215196Y-79306993D01*
X147215196Y-79306993D02*
X147167577Y-79497469D01*
X147167577Y-79497469D02*
X147119958Y-79592707D01*
X147119958Y-79592707D02*
X147072339Y-79640326D01*
X147072339Y-79640326D02*
X146977101Y-79687945D01*
X146977101Y-79687945D02*
X146881863Y-79687945D01*
X146881863Y-79687945D02*
X146786625Y-79640326D01*
X146786625Y-79640326D02*
X146739006Y-79592707D01*
X146739006Y-79592707D02*
X146691387Y-79497469D01*
X146691387Y-79497469D02*
X146691387Y-79259374D01*
X146691387Y-79259374D02*
X146739006Y-79116517D01*
X147691387Y-78687945D02*
X147024720Y-78687945D01*
X147119958Y-78687945D02*
X147072339Y-78640326D01*
X147072339Y-78640326D02*
X147024720Y-78545088D01*
X147024720Y-78545088D02*
X147024720Y-78402231D01*
X147024720Y-78402231D02*
X147072339Y-78306993D01*
X147072339Y-78306993D02*
X147167577Y-78259374D01*
X147167577Y-78259374D02*
X147691387Y-78259374D01*
X147167577Y-78259374D02*
X147072339Y-78211755D01*
X147072339Y-78211755D02*
X147024720Y-78116517D01*
X147024720Y-78116517D02*
X147024720Y-77973660D01*
X147024720Y-77973660D02*
X147072339Y-77878421D01*
X147072339Y-77878421D02*
X147167577Y-77830802D01*
X147167577Y-77830802D02*
X147691387Y-77830802D01*
X147691387Y-76926041D02*
X147167577Y-76926041D01*
X147167577Y-76926041D02*
X147072339Y-76973660D01*
X147072339Y-76973660D02*
X147024720Y-77068898D01*
X147024720Y-77068898D02*
X147024720Y-77259374D01*
X147024720Y-77259374D02*
X147072339Y-77354612D01*
X147643768Y-76926041D02*
X147691387Y-77021279D01*
X147691387Y-77021279D02*
X147691387Y-77259374D01*
X147691387Y-77259374D02*
X147643768Y-77354612D01*
X147643768Y-77354612D02*
X147548529Y-77402231D01*
X147548529Y-77402231D02*
X147453291Y-77402231D01*
X147453291Y-77402231D02*
X147358053Y-77354612D01*
X147358053Y-77354612D02*
X147310434Y-77259374D01*
X147310434Y-77259374D02*
X147310434Y-77021279D01*
X147310434Y-77021279D02*
X147262815Y-76926041D01*
X147691387Y-76449850D02*
X147024720Y-76449850D01*
X147215196Y-76449850D02*
X147119958Y-76402231D01*
X147119958Y-76402231D02*
X147072339Y-76354612D01*
X147072339Y-76354612D02*
X147024720Y-76259374D01*
X147024720Y-76259374D02*
X147024720Y-76164136D01*
X147024720Y-75973659D02*
X147024720Y-75592707D01*
X146691387Y-75830802D02*
X147548529Y-75830802D01*
X147548529Y-75830802D02*
X147643768Y-75783183D01*
X147643768Y-75783183D02*
X147691387Y-75687945D01*
X147691387Y-75687945D02*
X147691387Y-75592707D01*
X147691387Y-75259373D02*
X146691387Y-75259373D01*
X146691387Y-75259373D02*
X147405672Y-74926040D01*
X147405672Y-74926040D02*
X146691387Y-74592707D01*
X146691387Y-74592707D02*
X147691387Y-74592707D01*
X147691387Y-73973659D02*
X147643768Y-74068897D01*
X147643768Y-74068897D02*
X147596148Y-74116516D01*
X147596148Y-74116516D02*
X147500910Y-74164135D01*
X147500910Y-74164135D02*
X147215196Y-74164135D01*
X147215196Y-74164135D02*
X147119958Y-74116516D01*
X147119958Y-74116516D02*
X147072339Y-74068897D01*
X147072339Y-74068897D02*
X147024720Y-73973659D01*
X147024720Y-73973659D02*
X147024720Y-73830802D01*
X147024720Y-73830802D02*
X147072339Y-73735564D01*
X147072339Y-73735564D02*
X147119958Y-73687945D01*
X147119958Y-73687945D02*
X147215196Y-73640326D01*
X147215196Y-73640326D02*
X147500910Y-73640326D01*
X147500910Y-73640326D02*
X147596148Y-73687945D01*
X147596148Y-73687945D02*
X147643768Y-73735564D01*
X147643768Y-73735564D02*
X147691387Y-73830802D01*
X147691387Y-73830802D02*
X147691387Y-73973659D01*
X147596148Y-72640326D02*
X147643768Y-72687945D01*
X147643768Y-72687945D02*
X147691387Y-72830802D01*
X147691387Y-72830802D02*
X147691387Y-72926040D01*
X147691387Y-72926040D02*
X147643768Y-73068897D01*
X147643768Y-73068897D02*
X147548529Y-73164135D01*
X147548529Y-73164135D02*
X147453291Y-73211754D01*
X147453291Y-73211754D02*
X147262815Y-73259373D01*
X147262815Y-73259373D02*
X147119958Y-73259373D01*
X147119958Y-73259373D02*
X146929482Y-73211754D01*
X146929482Y-73211754D02*
X146834244Y-73164135D01*
X146834244Y-73164135D02*
X146739006Y-73068897D01*
X146739006Y-73068897D02*
X146691387Y-72926040D01*
X146691387Y-72926040D02*
X146691387Y-72830802D01*
X146691387Y-72830802D02*
X146739006Y-72687945D01*
X146739006Y-72687945D02*
X146786625Y-72640326D01*
X147691387Y-72068897D02*
X147643768Y-72164135D01*
X147643768Y-72164135D02*
X147596148Y-72211754D01*
X147596148Y-72211754D02*
X147500910Y-72259373D01*
X147500910Y-72259373D02*
X147215196Y-72259373D01*
X147215196Y-72259373D02*
X147119958Y-72211754D01*
X147119958Y-72211754D02*
X147072339Y-72164135D01*
X147072339Y-72164135D02*
X147024720Y-72068897D01*
X147024720Y-72068897D02*
X147024720Y-71926040D01*
X147024720Y-71926040D02*
X147072339Y-71830802D01*
X147072339Y-71830802D02*
X147119958Y-71783183D01*
X147119958Y-71783183D02*
X147215196Y-71735564D01*
X147215196Y-71735564D02*
X147500910Y-71735564D01*
X147500910Y-71735564D02*
X147596148Y-71783183D01*
X147596148Y-71783183D02*
X147643768Y-71830802D01*
X147643768Y-71830802D02*
X147691387Y-71926040D01*
X147691387Y-71926040D02*
X147691387Y-72068897D01*
X147691387Y-69973659D02*
X147215196Y-70306992D01*
X147691387Y-70545087D02*
X146691387Y-70545087D01*
X146691387Y-70545087D02*
X146691387Y-70164135D01*
X146691387Y-70164135D02*
X146739006Y-70068897D01*
X146739006Y-70068897D02*
X146786625Y-70021278D01*
X146786625Y-70021278D02*
X146881863Y-69973659D01*
X146881863Y-69973659D02*
X147024720Y-69973659D01*
X147024720Y-69973659D02*
X147119958Y-70021278D01*
X147119958Y-70021278D02*
X147167577Y-70068897D01*
X147167577Y-70068897D02*
X147215196Y-70164135D01*
X147215196Y-70164135D02*
X147215196Y-70545087D01*
X147643768Y-69164135D02*
X147691387Y-69259373D01*
X147691387Y-69259373D02*
X147691387Y-69449849D01*
X147691387Y-69449849D02*
X147643768Y-69545087D01*
X147643768Y-69545087D02*
X147548529Y-69592706D01*
X147548529Y-69592706D02*
X147167577Y-69592706D01*
X147167577Y-69592706D02*
X147072339Y-69545087D01*
X147072339Y-69545087D02*
X147024720Y-69449849D01*
X147024720Y-69449849D02*
X147024720Y-69259373D01*
X147024720Y-69259373D02*
X147072339Y-69164135D01*
X147072339Y-69164135D02*
X147167577Y-69116516D01*
X147167577Y-69116516D02*
X147262815Y-69116516D01*
X147262815Y-69116516D02*
X147358053Y-69592706D01*
X147024720Y-68783182D02*
X147691387Y-68545087D01*
X147691387Y-68545087D02*
X147024720Y-68306992D01*
X147691387Y-67402230D02*
X147691387Y-67973658D01*
X147691387Y-67687944D02*
X146691387Y-67687944D01*
X146691387Y-67687944D02*
X146834244Y-67783182D01*
X146834244Y-67783182D02*
X146929482Y-67878420D01*
X146929482Y-67878420D02*
X146977101Y-67973658D01*
X149301331Y-79640326D02*
X148301331Y-79640326D01*
X148301331Y-79640326D02*
X149015616Y-79306993D01*
X149015616Y-79306993D02*
X148301331Y-78973660D01*
X148301331Y-78973660D02*
X149301331Y-78973660D01*
X149301331Y-77926041D02*
X148825140Y-78259374D01*
X149301331Y-78497469D02*
X148301331Y-78497469D01*
X148301331Y-78497469D02*
X148301331Y-78116517D01*
X148301331Y-78116517D02*
X148348950Y-78021279D01*
X148348950Y-78021279D02*
X148396569Y-77973660D01*
X148396569Y-77973660D02*
X148491807Y-77926041D01*
X148491807Y-77926041D02*
X148634664Y-77926041D01*
X148634664Y-77926041D02*
X148729902Y-77973660D01*
X148729902Y-77973660D02*
X148777521Y-78021279D01*
X148777521Y-78021279D02*
X148825140Y-78116517D01*
X148825140Y-78116517D02*
X148825140Y-78497469D01*
X149301331Y-77497469D02*
X148301331Y-77497469D01*
X148301331Y-77497469D02*
X148301331Y-77259374D01*
X148301331Y-77259374D02*
X148348950Y-77116517D01*
X148348950Y-77116517D02*
X148444188Y-77021279D01*
X148444188Y-77021279D02*
X148539426Y-76973660D01*
X148539426Y-76973660D02*
X148729902Y-76926041D01*
X148729902Y-76926041D02*
X148872759Y-76926041D01*
X148872759Y-76926041D02*
X149063235Y-76973660D01*
X149063235Y-76973660D02*
X149158473Y-77021279D01*
X149158473Y-77021279D02*
X149253712Y-77116517D01*
X149253712Y-77116517D02*
X149301331Y-77259374D01*
X149301331Y-77259374D02*
X149301331Y-77497469D01*
X148301331Y-76640326D02*
X148301331Y-76068898D01*
X149301331Y-76354612D02*
X148301331Y-76354612D01*
X149301331Y-74973659D02*
X148301331Y-74973659D01*
X148301331Y-74973659D02*
X149015616Y-74640326D01*
X149015616Y-74640326D02*
X148301331Y-74306993D01*
X148301331Y-74306993D02*
X149301331Y-74306993D01*
X149253712Y-73878421D02*
X149301331Y-73735564D01*
X149301331Y-73735564D02*
X149301331Y-73497469D01*
X149301331Y-73497469D02*
X149253712Y-73402231D01*
X149253712Y-73402231D02*
X149206092Y-73354612D01*
X149206092Y-73354612D02*
X149110854Y-73306993D01*
X149110854Y-73306993D02*
X149015616Y-73306993D01*
X149015616Y-73306993D02*
X148920378Y-73354612D01*
X148920378Y-73354612D02*
X148872759Y-73402231D01*
X148872759Y-73402231D02*
X148825140Y-73497469D01*
X148825140Y-73497469D02*
X148777521Y-73687945D01*
X148777521Y-73687945D02*
X148729902Y-73783183D01*
X148729902Y-73783183D02*
X148682283Y-73830802D01*
X148682283Y-73830802D02*
X148587045Y-73878421D01*
X148587045Y-73878421D02*
X148491807Y-73878421D01*
X148491807Y-73878421D02*
X148396569Y-73830802D01*
X148396569Y-73830802D02*
X148348950Y-73783183D01*
X148348950Y-73783183D02*
X148301331Y-73687945D01*
X148301331Y-73687945D02*
X148301331Y-73449850D01*
X148301331Y-73449850D02*
X148348950Y-73306993D01*
X148301331Y-73021278D02*
X148301331Y-72449850D01*
X149301331Y-72735564D02*
X148301331Y-72735564D01*
X149253712Y-72068897D02*
X149301331Y-72068897D01*
X149301331Y-72068897D02*
X149396569Y-72116516D01*
X149396569Y-72116516D02*
X149444188Y-72164135D01*
X148396569Y-70926040D02*
X148348950Y-70878421D01*
X148348950Y-70878421D02*
X148301331Y-70783183D01*
X148301331Y-70783183D02*
X148301331Y-70545088D01*
X148301331Y-70545088D02*
X148348950Y-70449850D01*
X148348950Y-70449850D02*
X148396569Y-70402231D01*
X148396569Y-70402231D02*
X148491807Y-70354612D01*
X148491807Y-70354612D02*
X148587045Y-70354612D01*
X148587045Y-70354612D02*
X148729902Y-70402231D01*
X148729902Y-70402231D02*
X149301331Y-70973659D01*
X149301331Y-70973659D02*
X149301331Y-70354612D01*
X148301331Y-69735564D02*
X148301331Y-69640326D01*
X148301331Y-69640326D02*
X148348950Y-69545088D01*
X148348950Y-69545088D02*
X148396569Y-69497469D01*
X148396569Y-69497469D02*
X148491807Y-69449850D01*
X148491807Y-69449850D02*
X148682283Y-69402231D01*
X148682283Y-69402231D02*
X148920378Y-69402231D01*
X148920378Y-69402231D02*
X149110854Y-69449850D01*
X149110854Y-69449850D02*
X149206092Y-69497469D01*
X149206092Y-69497469D02*
X149253712Y-69545088D01*
X149253712Y-69545088D02*
X149301331Y-69640326D01*
X149301331Y-69640326D02*
X149301331Y-69735564D01*
X149301331Y-69735564D02*
X149253712Y-69830802D01*
X149253712Y-69830802D02*
X149206092Y-69878421D01*
X149206092Y-69878421D02*
X149110854Y-69926040D01*
X149110854Y-69926040D02*
X148920378Y-69973659D01*
X148920378Y-69973659D02*
X148682283Y-69973659D01*
X148682283Y-69973659D02*
X148491807Y-69926040D01*
X148491807Y-69926040D02*
X148396569Y-69878421D01*
X148396569Y-69878421D02*
X148348950Y-69830802D01*
X148348950Y-69830802D02*
X148301331Y-69735564D01*
X148396569Y-69021278D02*
X148348950Y-68973659D01*
X148348950Y-68973659D02*
X148301331Y-68878421D01*
X148301331Y-68878421D02*
X148301331Y-68640326D01*
X148301331Y-68640326D02*
X148348950Y-68545088D01*
X148348950Y-68545088D02*
X148396569Y-68497469D01*
X148396569Y-68497469D02*
X148491807Y-68449850D01*
X148491807Y-68449850D02*
X148587045Y-68449850D01*
X148587045Y-68449850D02*
X148729902Y-68497469D01*
X148729902Y-68497469D02*
X149301331Y-69068897D01*
X149301331Y-69068897D02*
X149301331Y-68449850D01*
X148301331Y-67545088D02*
X148301331Y-68021278D01*
X148301331Y-68021278D02*
X148777521Y-68068897D01*
X148777521Y-68068897D02*
X148729902Y-68021278D01*
X148729902Y-68021278D02*
X148682283Y-67926040D01*
X148682283Y-67926040D02*
X148682283Y-67687945D01*
X148682283Y-67687945D02*
X148729902Y-67592707D01*
X148729902Y-67592707D02*
X148777521Y-67545088D01*
X148777521Y-67545088D02*
X148872759Y-67497469D01*
X148872759Y-67497469D02*
X149110854Y-67497469D01*
X149110854Y-67497469D02*
X149206092Y-67545088D01*
X149206092Y-67545088D02*
X149253712Y-67592707D01*
X149253712Y-67592707D02*
X149301331Y-67687945D01*
X149301331Y-67687945D02*
X149301331Y-67926040D01*
X149301331Y-67926040D02*
X149253712Y-68021278D01*
X149253712Y-68021278D02*
X149206092Y-68068897D01*
X150387465Y-79306993D02*
X150435084Y-79164136D01*
X150435084Y-79164136D02*
X150482703Y-79116517D01*
X150482703Y-79116517D02*
X150577941Y-79068898D01*
X150577941Y-79068898D02*
X150720798Y-79068898D01*
X150720798Y-79068898D02*
X150816036Y-79116517D01*
X150816036Y-79116517D02*
X150863656Y-79164136D01*
X150863656Y-79164136D02*
X150911275Y-79259374D01*
X150911275Y-79259374D02*
X150911275Y-79640326D01*
X150911275Y-79640326D02*
X149911275Y-79640326D01*
X149911275Y-79640326D02*
X149911275Y-79306993D01*
X149911275Y-79306993D02*
X149958894Y-79211755D01*
X149958894Y-79211755D02*
X150006513Y-79164136D01*
X150006513Y-79164136D02*
X150101751Y-79116517D01*
X150101751Y-79116517D02*
X150196989Y-79116517D01*
X150196989Y-79116517D02*
X150292227Y-79164136D01*
X150292227Y-79164136D02*
X150339846Y-79211755D01*
X150339846Y-79211755D02*
X150387465Y-79306993D01*
X150387465Y-79306993D02*
X150387465Y-79640326D01*
X150911275Y-78640326D02*
X150244608Y-78640326D01*
X150435084Y-78640326D02*
X150339846Y-78592707D01*
X150339846Y-78592707D02*
X150292227Y-78545088D01*
X150292227Y-78545088D02*
X150244608Y-78449850D01*
X150244608Y-78449850D02*
X150244608Y-78354612D01*
X150863656Y-77640326D02*
X150911275Y-77735564D01*
X150911275Y-77735564D02*
X150911275Y-77926040D01*
X150911275Y-77926040D02*
X150863656Y-78021278D01*
X150863656Y-78021278D02*
X150768417Y-78068897D01*
X150768417Y-78068897D02*
X150387465Y-78068897D01*
X150387465Y-78068897D02*
X150292227Y-78021278D01*
X150292227Y-78021278D02*
X150244608Y-77926040D01*
X150244608Y-77926040D02*
X150244608Y-77735564D01*
X150244608Y-77735564D02*
X150292227Y-77640326D01*
X150292227Y-77640326D02*
X150387465Y-77592707D01*
X150387465Y-77592707D02*
X150482703Y-77592707D01*
X150482703Y-77592707D02*
X150577941Y-78068897D01*
X150244608Y-77164135D02*
X150911275Y-77164135D01*
X150339846Y-77164135D02*
X150292227Y-77116516D01*
X150292227Y-77116516D02*
X150244608Y-77021278D01*
X150244608Y-77021278D02*
X150244608Y-76878421D01*
X150244608Y-76878421D02*
X150292227Y-76783183D01*
X150292227Y-76783183D02*
X150387465Y-76735564D01*
X150387465Y-76735564D02*
X150911275Y-76735564D01*
X150911275Y-75830802D02*
X149911275Y-75830802D01*
X150863656Y-75830802D02*
X150911275Y-75926040D01*
X150911275Y-75926040D02*
X150911275Y-76116516D01*
X150911275Y-76116516D02*
X150863656Y-76211754D01*
X150863656Y-76211754D02*
X150816036Y-76259373D01*
X150816036Y-76259373D02*
X150720798Y-76306992D01*
X150720798Y-76306992D02*
X150435084Y-76306992D01*
X150435084Y-76306992D02*
X150339846Y-76259373D01*
X150339846Y-76259373D02*
X150292227Y-76211754D01*
X150292227Y-76211754D02*
X150244608Y-76116516D01*
X150244608Y-76116516D02*
X150244608Y-75926040D01*
X150244608Y-75926040D02*
X150292227Y-75830802D01*
X150911275Y-74926040D02*
X150387465Y-74926040D01*
X150387465Y-74926040D02*
X150292227Y-74973659D01*
X150292227Y-74973659D02*
X150244608Y-75068897D01*
X150244608Y-75068897D02*
X150244608Y-75259373D01*
X150244608Y-75259373D02*
X150292227Y-75354611D01*
X150863656Y-74926040D02*
X150911275Y-75021278D01*
X150911275Y-75021278D02*
X150911275Y-75259373D01*
X150911275Y-75259373D02*
X150863656Y-75354611D01*
X150863656Y-75354611D02*
X150768417Y-75402230D01*
X150768417Y-75402230D02*
X150673179Y-75402230D01*
X150673179Y-75402230D02*
X150577941Y-75354611D01*
X150577941Y-75354611D02*
X150530322Y-75259373D01*
X150530322Y-75259373D02*
X150530322Y-75021278D01*
X150530322Y-75021278D02*
X150482703Y-74926040D01*
X150244608Y-74449849D02*
X150911275Y-74449849D01*
X150339846Y-74449849D02*
X150292227Y-74402230D01*
X150292227Y-74402230D02*
X150244608Y-74306992D01*
X150244608Y-74306992D02*
X150244608Y-74164135D01*
X150244608Y-74164135D02*
X150292227Y-74068897D01*
X150292227Y-74068897D02*
X150387465Y-74021278D01*
X150387465Y-74021278D02*
X150911275Y-74021278D01*
X149911275Y-72878420D02*
X150911275Y-72640325D01*
X150911275Y-72640325D02*
X150196989Y-72449849D01*
X150196989Y-72449849D02*
X150911275Y-72259373D01*
X150911275Y-72259373D02*
X149911275Y-72021278D01*
X150863656Y-71259373D02*
X150911275Y-71354611D01*
X150911275Y-71354611D02*
X150911275Y-71545087D01*
X150911275Y-71545087D02*
X150863656Y-71640325D01*
X150863656Y-71640325D02*
X150768417Y-71687944D01*
X150768417Y-71687944D02*
X150387465Y-71687944D01*
X150387465Y-71687944D02*
X150292227Y-71640325D01*
X150292227Y-71640325D02*
X150244608Y-71545087D01*
X150244608Y-71545087D02*
X150244608Y-71354611D01*
X150244608Y-71354611D02*
X150292227Y-71259373D01*
X150292227Y-71259373D02*
X150387465Y-71211754D01*
X150387465Y-71211754D02*
X150482703Y-71211754D01*
X150482703Y-71211754D02*
X150577941Y-71687944D01*
X150863656Y-70830801D02*
X150911275Y-70735563D01*
X150911275Y-70735563D02*
X150911275Y-70545087D01*
X150911275Y-70545087D02*
X150863656Y-70449849D01*
X150863656Y-70449849D02*
X150768417Y-70402230D01*
X150768417Y-70402230D02*
X150720798Y-70402230D01*
X150720798Y-70402230D02*
X150625560Y-70449849D01*
X150625560Y-70449849D02*
X150577941Y-70545087D01*
X150577941Y-70545087D02*
X150577941Y-70687944D01*
X150577941Y-70687944D02*
X150530322Y-70783182D01*
X150530322Y-70783182D02*
X150435084Y-70830801D01*
X150435084Y-70830801D02*
X150387465Y-70830801D01*
X150387465Y-70830801D02*
X150292227Y-70783182D01*
X150292227Y-70783182D02*
X150244608Y-70687944D01*
X150244608Y-70687944D02*
X150244608Y-70545087D01*
X150244608Y-70545087D02*
X150292227Y-70449849D01*
X150244608Y-70116515D02*
X150244608Y-69735563D01*
X149911275Y-69973658D02*
X150768417Y-69973658D01*
X150768417Y-69973658D02*
X150863656Y-69926039D01*
X150863656Y-69926039D02*
X150911275Y-69830801D01*
X150911275Y-69830801D02*
X150911275Y-69735563D01*
X150911275Y-69259372D02*
X150863656Y-69354610D01*
X150863656Y-69354610D02*
X150768417Y-69402229D01*
X150768417Y-69402229D02*
X149911275Y-69402229D01*
X150863656Y-68497467D02*
X150911275Y-68592705D01*
X150911275Y-68592705D02*
X150911275Y-68783181D01*
X150911275Y-68783181D02*
X150863656Y-68878419D01*
X150863656Y-68878419D02*
X150768417Y-68926038D01*
X150768417Y-68926038D02*
X150387465Y-68926038D01*
X150387465Y-68926038D02*
X150292227Y-68878419D01*
X150292227Y-68878419D02*
X150244608Y-68783181D01*
X150244608Y-68783181D02*
X150244608Y-68592705D01*
X150244608Y-68592705D02*
X150292227Y-68497467D01*
X150292227Y-68497467D02*
X150387465Y-68449848D01*
X150387465Y-68449848D02*
X150482703Y-68449848D01*
X150482703Y-68449848D02*
X150577941Y-68926038D01*
X150244608Y-68116514D02*
X150911275Y-67878419D01*
X150244608Y-67640324D02*
X150911275Y-67878419D01*
X150911275Y-67878419D02*
X151149370Y-67973657D01*
X151149370Y-67973657D02*
X151196989Y-68021276D01*
X151196989Y-68021276D02*
X151244608Y-68116514D01*
X152521219Y-79640326D02*
X151521219Y-79640326D01*
X151521219Y-79640326D02*
X152235504Y-79306993D01*
X152235504Y-79306993D02*
X151521219Y-78973660D01*
X151521219Y-78973660D02*
X152521219Y-78973660D01*
X152521219Y-78068898D02*
X151997409Y-78068898D01*
X151997409Y-78068898D02*
X151902171Y-78116517D01*
X151902171Y-78116517D02*
X151854552Y-78211755D01*
X151854552Y-78211755D02*
X151854552Y-78402231D01*
X151854552Y-78402231D02*
X151902171Y-78497469D01*
X152473600Y-78068898D02*
X152521219Y-78164136D01*
X152521219Y-78164136D02*
X152521219Y-78402231D01*
X152521219Y-78402231D02*
X152473600Y-78497469D01*
X152473600Y-78497469D02*
X152378361Y-78545088D01*
X152378361Y-78545088D02*
X152283123Y-78545088D01*
X152283123Y-78545088D02*
X152187885Y-78497469D01*
X152187885Y-78497469D02*
X152140266Y-78402231D01*
X152140266Y-78402231D02*
X152140266Y-78164136D01*
X152140266Y-78164136D02*
X152092647Y-78068898D01*
X152521219Y-77449850D02*
X152473600Y-77545088D01*
X152473600Y-77545088D02*
X152378361Y-77592707D01*
X152378361Y-77592707D02*
X151521219Y-77592707D01*
X152521219Y-76640326D02*
X151997409Y-76640326D01*
X151997409Y-76640326D02*
X151902171Y-76687945D01*
X151902171Y-76687945D02*
X151854552Y-76783183D01*
X151854552Y-76783183D02*
X151854552Y-76973659D01*
X151854552Y-76973659D02*
X151902171Y-77068897D01*
X152473600Y-76640326D02*
X152521219Y-76735564D01*
X152521219Y-76735564D02*
X152521219Y-76973659D01*
X152521219Y-76973659D02*
X152473600Y-77068897D01*
X152473600Y-77068897D02*
X152378361Y-77116516D01*
X152378361Y-77116516D02*
X152283123Y-77116516D01*
X152283123Y-77116516D02*
X152187885Y-77068897D01*
X152187885Y-77068897D02*
X152140266Y-76973659D01*
X152140266Y-76973659D02*
X152140266Y-76735564D01*
X152140266Y-76735564D02*
X152092647Y-76640326D01*
X152473600Y-75735564D02*
X152521219Y-75830802D01*
X152521219Y-75830802D02*
X152521219Y-76021278D01*
X152521219Y-76021278D02*
X152473600Y-76116516D01*
X152473600Y-76116516D02*
X152425980Y-76164135D01*
X152425980Y-76164135D02*
X152330742Y-76211754D01*
X152330742Y-76211754D02*
X152045028Y-76211754D01*
X152045028Y-76211754D02*
X151949790Y-76164135D01*
X151949790Y-76164135D02*
X151902171Y-76116516D01*
X151902171Y-76116516D02*
X151854552Y-76021278D01*
X151854552Y-76021278D02*
X151854552Y-75830802D01*
X151854552Y-75830802D02*
X151902171Y-75735564D01*
X152521219Y-75306992D02*
X151521219Y-75306992D01*
X152140266Y-75211754D02*
X152521219Y-74926040D01*
X151854552Y-74926040D02*
X152235504Y-75306992D01*
X152521219Y-74497468D02*
X151854552Y-74497468D01*
X151521219Y-74497468D02*
X151568838Y-74545087D01*
X151568838Y-74545087D02*
X151616457Y-74497468D01*
X151616457Y-74497468D02*
X151568838Y-74449849D01*
X151568838Y-74449849D02*
X151521219Y-74497468D01*
X151521219Y-74497468D02*
X151616457Y-74497468D01*
X151997409Y-73259373D02*
X151997409Y-72926040D01*
X152521219Y-72783183D02*
X152521219Y-73259373D01*
X152521219Y-73259373D02*
X151521219Y-73259373D01*
X151521219Y-73259373D02*
X151521219Y-72783183D01*
X152521219Y-72354611D02*
X151521219Y-72354611D01*
X152521219Y-71926040D02*
X151997409Y-71926040D01*
X151997409Y-71926040D02*
X151902171Y-71973659D01*
X151902171Y-71973659D02*
X151854552Y-72068897D01*
X151854552Y-72068897D02*
X151854552Y-72211754D01*
X151854552Y-72211754D02*
X151902171Y-72306992D01*
X151902171Y-72306992D02*
X151949790Y-72354611D01*
X152521219Y-71306992D02*
X152473600Y-71402230D01*
X152473600Y-71402230D02*
X152378361Y-71449849D01*
X152378361Y-71449849D02*
X151521219Y-71449849D01*
X152473600Y-70545087D02*
X152521219Y-70640325D01*
X152521219Y-70640325D02*
X152521219Y-70830801D01*
X152521219Y-70830801D02*
X152473600Y-70926039D01*
X152473600Y-70926039D02*
X152378361Y-70973658D01*
X152378361Y-70973658D02*
X151997409Y-70973658D01*
X151997409Y-70973658D02*
X151902171Y-70926039D01*
X151902171Y-70926039D02*
X151854552Y-70830801D01*
X151854552Y-70830801D02*
X151854552Y-70640325D01*
X151854552Y-70640325D02*
X151902171Y-70545087D01*
X151902171Y-70545087D02*
X151997409Y-70497468D01*
X151997409Y-70497468D02*
X152092647Y-70497468D01*
X152092647Y-70497468D02*
X152187885Y-70973658D01*
X152521219Y-70068896D02*
X151854552Y-70068896D01*
X152045028Y-70068896D02*
X151949790Y-70021277D01*
X151949790Y-70021277D02*
X151902171Y-69973658D01*
X151902171Y-69973658D02*
X151854552Y-69878420D01*
X151854552Y-69878420D02*
X151854552Y-69783182D01*
X152473600Y-69497467D02*
X152521219Y-69402229D01*
X152521219Y-69402229D02*
X152521219Y-69211753D01*
X152521219Y-69211753D02*
X152473600Y-69116515D01*
X152473600Y-69116515D02*
X152378361Y-69068896D01*
X152378361Y-69068896D02*
X152330742Y-69068896D01*
X152330742Y-69068896D02*
X152235504Y-69116515D01*
X152235504Y-69116515D02*
X152187885Y-69211753D01*
X152187885Y-69211753D02*
X152187885Y-69354610D01*
X152187885Y-69354610D02*
X152140266Y-69449848D01*
X152140266Y-69449848D02*
X152045028Y-69497467D01*
X152045028Y-69497467D02*
X151997409Y-69497467D01*
X151997409Y-69497467D02*
X151902171Y-69449848D01*
X151902171Y-69449848D02*
X151854552Y-69354610D01*
X151854552Y-69354610D02*
X151854552Y-69211753D01*
X151854552Y-69211753D02*
X151902171Y-69116515D01*
X163581733Y-92698673D02*
X163581733Y-93460578D01*
X163581733Y-95460578D02*
X163581733Y-96222483D01*
X163200780Y-95841530D02*
X163962685Y-95841530D01*
X142101673Y-96387219D02*
X142101673Y-95387219D01*
X142577863Y-96387219D02*
X142577863Y-95387219D01*
X142577863Y-95387219D02*
X143149291Y-96387219D01*
X143149291Y-96387219D02*
X143149291Y-95387219D01*
X143577863Y-96101504D02*
X144054053Y-96101504D01*
X143482625Y-96387219D02*
X143815958Y-95387219D01*
X143815958Y-95387219D02*
X144149291Y-96387219D01*
X155325482Y-73527219D02*
X154754054Y-73527219D01*
X155039768Y-73527219D02*
X155039768Y-72527219D01*
X155039768Y-72527219D02*
X154944530Y-72670076D01*
X154944530Y-72670076D02*
X154849292Y-72765314D01*
X154849292Y-72765314D02*
X154754054Y-72812933D01*
X155706435Y-72622457D02*
X155754054Y-72574838D01*
X155754054Y-72574838D02*
X155849292Y-72527219D01*
X155849292Y-72527219D02*
X156087387Y-72527219D01*
X156087387Y-72527219D02*
X156182625Y-72574838D01*
X156182625Y-72574838D02*
X156230244Y-72622457D01*
X156230244Y-72622457D02*
X156277863Y-72717695D01*
X156277863Y-72717695D02*
X156277863Y-72812933D01*
X156277863Y-72812933D02*
X156230244Y-72955790D01*
X156230244Y-72955790D02*
X155658816Y-73527219D01*
X155658816Y-73527219D02*
X156277863Y-73527219D01*
X156563578Y-72527219D02*
X156896911Y-73527219D01*
X156896911Y-73527219D02*
X157230244Y-72527219D01*
X158325483Y-73527219D02*
X158325483Y-72527219D01*
X158325483Y-72527219D02*
X158563578Y-72527219D01*
X158563578Y-72527219D02*
X158706435Y-72574838D01*
X158706435Y-72574838D02*
X158801673Y-72670076D01*
X158801673Y-72670076D02*
X158849292Y-72765314D01*
X158849292Y-72765314D02*
X158896911Y-72955790D01*
X158896911Y-72955790D02*
X158896911Y-73098647D01*
X158896911Y-73098647D02*
X158849292Y-73289123D01*
X158849292Y-73289123D02*
X158801673Y-73384361D01*
X158801673Y-73384361D02*
X158706435Y-73479600D01*
X158706435Y-73479600D02*
X158563578Y-73527219D01*
X158563578Y-73527219D02*
X158325483Y-73527219D01*
X159325483Y-73527219D02*
X159325483Y-72527219D01*
X159992149Y-72527219D02*
X160182625Y-72527219D01*
X160182625Y-72527219D02*
X160277863Y-72574838D01*
X160277863Y-72574838D02*
X160373101Y-72670076D01*
X160373101Y-72670076D02*
X160420720Y-72860552D01*
X160420720Y-72860552D02*
X160420720Y-73193885D01*
X160420720Y-73193885D02*
X160373101Y-73384361D01*
X160373101Y-73384361D02*
X160277863Y-73479600D01*
X160277863Y-73479600D02*
X160182625Y-73527219D01*
X160182625Y-73527219D02*
X159992149Y-73527219D01*
X159992149Y-73527219D02*
X159896911Y-73479600D01*
X159896911Y-73479600D02*
X159801673Y-73384361D01*
X159801673Y-73384361D02*
X159754054Y-73193885D01*
X159754054Y-73193885D02*
X159754054Y-72860552D01*
X159754054Y-72860552D02*
X159801673Y-72670076D01*
X159801673Y-72670076D02*
X159896911Y-72574838D01*
X159896911Y-72574838D02*
X159992149Y-72527219D01*
X142926275Y-92562564D02*
X142926275Y-91943517D01*
X142926275Y-91943517D02*
X143307227Y-92276850D01*
X143307227Y-92276850D02*
X143307227Y-92133993D01*
X143307227Y-92133993D02*
X143354846Y-92038755D01*
X143354846Y-92038755D02*
X143402465Y-91991136D01*
X143402465Y-91991136D02*
X143497703Y-91943517D01*
X143497703Y-91943517D02*
X143735798Y-91943517D01*
X143735798Y-91943517D02*
X143831036Y-91991136D01*
X143831036Y-91991136D02*
X143878656Y-92038755D01*
X143878656Y-92038755D02*
X143926275Y-92133993D01*
X143926275Y-92133993D02*
X143926275Y-92419707D01*
X143926275Y-92419707D02*
X143878656Y-92514945D01*
X143878656Y-92514945D02*
X143831036Y-92562564D01*
X142926275Y-91657802D02*
X143926275Y-91324469D01*
X143926275Y-91324469D02*
X142926275Y-90991136D01*
X142926275Y-90753040D02*
X142926275Y-90133993D01*
X142926275Y-90133993D02*
X143307227Y-90467326D01*
X143307227Y-90467326D02*
X143307227Y-90324469D01*
X143307227Y-90324469D02*
X143354846Y-90229231D01*
X143354846Y-90229231D02*
X143402465Y-90181612D01*
X143402465Y-90181612D02*
X143497703Y-90133993D01*
X143497703Y-90133993D02*
X143735798Y-90133993D01*
X143735798Y-90133993D02*
X143831036Y-90181612D01*
X143831036Y-90181612D02*
X143878656Y-90229231D01*
X143878656Y-90229231D02*
X143926275Y-90324469D01*
X143926275Y-90324469D02*
X143926275Y-90610183D01*
X143926275Y-90610183D02*
X143878656Y-90705421D01*
X143878656Y-90705421D02*
X143831036Y-90753040D01*
X143402465Y-88610183D02*
X143450084Y-88467326D01*
X143450084Y-88467326D02*
X143497703Y-88419707D01*
X143497703Y-88419707D02*
X143592941Y-88372088D01*
X143592941Y-88372088D02*
X143735798Y-88372088D01*
X143735798Y-88372088D02*
X143831036Y-88419707D01*
X143831036Y-88419707D02*
X143878656Y-88467326D01*
X143878656Y-88467326D02*
X143926275Y-88562564D01*
X143926275Y-88562564D02*
X143926275Y-88943516D01*
X143926275Y-88943516D02*
X142926275Y-88943516D01*
X142926275Y-88943516D02*
X142926275Y-88610183D01*
X142926275Y-88610183D02*
X142973894Y-88514945D01*
X142973894Y-88514945D02*
X143021513Y-88467326D01*
X143021513Y-88467326D02*
X143116751Y-88419707D01*
X143116751Y-88419707D02*
X143211989Y-88419707D01*
X143211989Y-88419707D02*
X143307227Y-88467326D01*
X143307227Y-88467326D02*
X143354846Y-88514945D01*
X143354846Y-88514945D02*
X143402465Y-88610183D01*
X143402465Y-88610183D02*
X143402465Y-88943516D01*
X142926275Y-84229229D02*
X142926275Y-83610182D01*
X142926275Y-83610182D02*
X143307227Y-83943515D01*
X143307227Y-83943515D02*
X143307227Y-83800658D01*
X143307227Y-83800658D02*
X143354846Y-83705420D01*
X143354846Y-83705420D02*
X143402465Y-83657801D01*
X143402465Y-83657801D02*
X143497703Y-83610182D01*
X143497703Y-83610182D02*
X143735798Y-83610182D01*
X143735798Y-83610182D02*
X143831036Y-83657801D01*
X143831036Y-83657801D02*
X143878656Y-83705420D01*
X143878656Y-83705420D02*
X143926275Y-83800658D01*
X143926275Y-83800658D02*
X143926275Y-84086372D01*
X143926275Y-84086372D02*
X143878656Y-84181610D01*
X143878656Y-84181610D02*
X143831036Y-84229229D01*
X142926275Y-83324467D02*
X143926275Y-82991134D01*
X143926275Y-82991134D02*
X142926275Y-82657801D01*
X142926275Y-82419705D02*
X142926275Y-81800658D01*
X142926275Y-81800658D02*
X143307227Y-82133991D01*
X143307227Y-82133991D02*
X143307227Y-81991134D01*
X143307227Y-81991134D02*
X143354846Y-81895896D01*
X143354846Y-81895896D02*
X143402465Y-81848277D01*
X143402465Y-81848277D02*
X143497703Y-81800658D01*
X143497703Y-81800658D02*
X143735798Y-81800658D01*
X143735798Y-81800658D02*
X143831036Y-81848277D01*
X143831036Y-81848277D02*
X143878656Y-81895896D01*
X143878656Y-81895896D02*
X143926275Y-81991134D01*
X143926275Y-81991134D02*
X143926275Y-82276848D01*
X143926275Y-82276848D02*
X143878656Y-82372086D01*
X143878656Y-82372086D02*
X143831036Y-82419705D01*
X143640560Y-80657800D02*
X143640560Y-80181610D01*
X143926275Y-80753038D02*
X142926275Y-80419705D01*
X142926275Y-80419705D02*
X143926275Y-80086372D01*
X145536219Y-87419706D02*
X145536219Y-87895896D01*
X145536219Y-87895896D02*
X144536219Y-87895896D01*
X145536219Y-87086372D02*
X144536219Y-87086372D01*
X145536219Y-86610182D02*
X144536219Y-86610182D01*
X144536219Y-86610182D02*
X145250504Y-86276849D01*
X145250504Y-86276849D02*
X144536219Y-85943516D01*
X144536219Y-85943516D02*
X145536219Y-85943516D01*
X145536219Y-85467325D02*
X144536219Y-85467325D01*
X144536219Y-85133992D02*
X144536219Y-84562564D01*
X145536219Y-84848278D02*
X144536219Y-84848278D01*
X145488600Y-83514944D02*
X145536219Y-83372087D01*
X145536219Y-83372087D02*
X145536219Y-83133992D01*
X145536219Y-83133992D02*
X145488600Y-83038754D01*
X145488600Y-83038754D02*
X145440980Y-82991135D01*
X145440980Y-82991135D02*
X145345742Y-82943516D01*
X145345742Y-82943516D02*
X145250504Y-82943516D01*
X145250504Y-82943516D02*
X145155266Y-82991135D01*
X145155266Y-82991135D02*
X145107647Y-83038754D01*
X145107647Y-83038754D02*
X145060028Y-83133992D01*
X145060028Y-83133992D02*
X145012409Y-83324468D01*
X145012409Y-83324468D02*
X144964790Y-83419706D01*
X144964790Y-83419706D02*
X144917171Y-83467325D01*
X144917171Y-83467325D02*
X144821933Y-83514944D01*
X144821933Y-83514944D02*
X144726695Y-83514944D01*
X144726695Y-83514944D02*
X144631457Y-83467325D01*
X144631457Y-83467325D02*
X144583838Y-83419706D01*
X144583838Y-83419706D02*
X144536219Y-83324468D01*
X144536219Y-83324468D02*
X144536219Y-83086373D01*
X144536219Y-83086373D02*
X144583838Y-82943516D01*
X144536219Y-82610182D02*
X145536219Y-82372087D01*
X145536219Y-82372087D02*
X144821933Y-82181611D01*
X144821933Y-82181611D02*
X145536219Y-81991135D01*
X145536219Y-81991135D02*
X144536219Y-81753040D01*
X145536219Y-81372087D02*
X144536219Y-81372087D01*
X144536219Y-81038754D02*
X144536219Y-80467326D01*
X145536219Y-80753040D02*
X144536219Y-80753040D01*
X145440980Y-79562564D02*
X145488600Y-79610183D01*
X145488600Y-79610183D02*
X145536219Y-79753040D01*
X145536219Y-79753040D02*
X145536219Y-79848278D01*
X145536219Y-79848278D02*
X145488600Y-79991135D01*
X145488600Y-79991135D02*
X145393361Y-80086373D01*
X145393361Y-80086373D02*
X145298123Y-80133992D01*
X145298123Y-80133992D02*
X145107647Y-80181611D01*
X145107647Y-80181611D02*
X144964790Y-80181611D01*
X144964790Y-80181611D02*
X144774314Y-80133992D01*
X144774314Y-80133992D02*
X144679076Y-80086373D01*
X144679076Y-80086373D02*
X144583838Y-79991135D01*
X144583838Y-79991135D02*
X144536219Y-79848278D01*
X144536219Y-79848278D02*
X144536219Y-79753040D01*
X144536219Y-79753040D02*
X144583838Y-79610183D01*
X144583838Y-79610183D02*
X144631457Y-79562564D01*
X145536219Y-79133992D02*
X144536219Y-79133992D01*
X145012409Y-79133992D02*
X145012409Y-78562564D01*
X145536219Y-78562564D02*
X144536219Y-78562564D01*
D12*
X157567333Y-82496819D02*
X157234000Y-82020628D01*
X156995905Y-82496819D02*
X156995905Y-81496819D01*
X156995905Y-81496819D02*
X157376857Y-81496819D01*
X157376857Y-81496819D02*
X157472095Y-81544438D01*
X157472095Y-81544438D02*
X157519714Y-81592057D01*
X157519714Y-81592057D02*
X157567333Y-81687295D01*
X157567333Y-81687295D02*
X157567333Y-81830152D01*
X157567333Y-81830152D02*
X157519714Y-81925390D01*
X157519714Y-81925390D02*
X157472095Y-81973009D01*
X157472095Y-81973009D02*
X157376857Y-82020628D01*
X157376857Y-82020628D02*
X156995905Y-82020628D01*
X157948286Y-81592057D02*
X157995905Y-81544438D01*
X157995905Y-81544438D02*
X158091143Y-81496819D01*
X158091143Y-81496819D02*
X158329238Y-81496819D01*
X158329238Y-81496819D02*
X158424476Y-81544438D01*
X158424476Y-81544438D02*
X158472095Y-81592057D01*
X158472095Y-81592057D02*
X158519714Y-81687295D01*
X158519714Y-81687295D02*
X158519714Y-81782533D01*
X158519714Y-81782533D02*
X158472095Y-81925390D01*
X158472095Y-81925390D02*
X157900667Y-82496819D01*
X157900667Y-82496819D02*
X158519714Y-82496819D01*
X157974833Y-101070580D02*
X157927214Y-101118200D01*
X157927214Y-101118200D02*
X157784357Y-101165819D01*
X157784357Y-101165819D02*
X157689119Y-101165819D01*
X157689119Y-101165819D02*
X157546262Y-101118200D01*
X157546262Y-101118200D02*
X157451024Y-101022961D01*
X157451024Y-101022961D02*
X157403405Y-100927723D01*
X157403405Y-100927723D02*
X157355786Y-100737247D01*
X157355786Y-100737247D02*
X157355786Y-100594390D01*
X157355786Y-100594390D02*
X157403405Y-100403914D01*
X157403405Y-100403914D02*
X157451024Y-100308676D01*
X157451024Y-100308676D02*
X157546262Y-100213438D01*
X157546262Y-100213438D02*
X157689119Y-100165819D01*
X157689119Y-100165819D02*
X157784357Y-100165819D01*
X157784357Y-100165819D02*
X157927214Y-100213438D01*
X157927214Y-100213438D02*
X157974833Y-100261057D01*
X158831976Y-100499152D02*
X158831976Y-101165819D01*
X158593881Y-100118200D02*
X158355786Y-100832485D01*
X158355786Y-100832485D02*
X158974833Y-100832485D01*
X136609905Y-96339819D02*
X136609905Y-95339819D01*
X136609905Y-95339819D02*
X136848000Y-95339819D01*
X136848000Y-95339819D02*
X136990857Y-95387438D01*
X136990857Y-95387438D02*
X137086095Y-95482676D01*
X137086095Y-95482676D02*
X137133714Y-95577914D01*
X137133714Y-95577914D02*
X137181333Y-95768390D01*
X137181333Y-95768390D02*
X137181333Y-95911247D01*
X137181333Y-95911247D02*
X137133714Y-96101723D01*
X137133714Y-96101723D02*
X137086095Y-96196961D01*
X137086095Y-96196961D02*
X136990857Y-96292200D01*
X136990857Y-96292200D02*
X136848000Y-96339819D01*
X136848000Y-96339819D02*
X136609905Y-96339819D01*
X137514667Y-95339819D02*
X138133714Y-95339819D01*
X138133714Y-95339819D02*
X137800381Y-95720771D01*
X137800381Y-95720771D02*
X137943238Y-95720771D01*
X137943238Y-95720771D02*
X138038476Y-95768390D01*
X138038476Y-95768390D02*
X138086095Y-95816009D01*
X138086095Y-95816009D02*
X138133714Y-95911247D01*
X138133714Y-95911247D02*
X138133714Y-96149342D01*
X138133714Y-96149342D02*
X138086095Y-96244580D01*
X138086095Y-96244580D02*
X138038476Y-96292200D01*
X138038476Y-96292200D02*
X137943238Y-96339819D01*
X137943238Y-96339819D02*
X137657524Y-96339819D01*
X137657524Y-96339819D02*
X137562286Y-96292200D01*
X137562286Y-96292200D02*
X137514667Y-96244580D01*
X147661333Y-88751580D02*
X147613714Y-88799200D01*
X147613714Y-88799200D02*
X147470857Y-88846819D01*
X147470857Y-88846819D02*
X147375619Y-88846819D01*
X147375619Y-88846819D02*
X147232762Y-88799200D01*
X147232762Y-88799200D02*
X147137524Y-88703961D01*
X147137524Y-88703961D02*
X147089905Y-88608723D01*
X147089905Y-88608723D02*
X147042286Y-88418247D01*
X147042286Y-88418247D02*
X147042286Y-88275390D01*
X147042286Y-88275390D02*
X147089905Y-88084914D01*
X147089905Y-88084914D02*
X147137524Y-87989676D01*
X147137524Y-87989676D02*
X147232762Y-87894438D01*
X147232762Y-87894438D02*
X147375619Y-87846819D01*
X147375619Y-87846819D02*
X147470857Y-87846819D01*
X147470857Y-87846819D02*
X147613714Y-87894438D01*
X147613714Y-87894438D02*
X147661333Y-87942057D01*
X147994667Y-87846819D02*
X148661333Y-87846819D01*
X148661333Y-87846819D02*
X148232762Y-88846819D01*
X148409819Y-96178666D02*
X147933628Y-96511999D01*
X148409819Y-96750094D02*
X147409819Y-96750094D01*
X147409819Y-96750094D02*
X147409819Y-96369142D01*
X147409819Y-96369142D02*
X147457438Y-96273904D01*
X147457438Y-96273904D02*
X147505057Y-96226285D01*
X147505057Y-96226285D02*
X147600295Y-96178666D01*
X147600295Y-96178666D02*
X147743152Y-96178666D01*
X147743152Y-96178666D02*
X147838390Y-96226285D01*
X147838390Y-96226285D02*
X147886009Y-96273904D01*
X147886009Y-96273904D02*
X147933628Y-96369142D01*
X147933628Y-96369142D02*
X147933628Y-96750094D01*
X147409819Y-95845332D02*
X147409819Y-95178666D01*
X147409819Y-95178666D02*
X148409819Y-95607237D01*
X136609905Y-98371819D02*
X136609905Y-97371819D01*
X136609905Y-97371819D02*
X136848000Y-97371819D01*
X136848000Y-97371819D02*
X136990857Y-97419438D01*
X136990857Y-97419438D02*
X137086095Y-97514676D01*
X137086095Y-97514676D02*
X137133714Y-97609914D01*
X137133714Y-97609914D02*
X137181333Y-97800390D01*
X137181333Y-97800390D02*
X137181333Y-97943247D01*
X137181333Y-97943247D02*
X137133714Y-98133723D01*
X137133714Y-98133723D02*
X137086095Y-98228961D01*
X137086095Y-98228961D02*
X136990857Y-98324200D01*
X136990857Y-98324200D02*
X136848000Y-98371819D01*
X136848000Y-98371819D02*
X136609905Y-98371819D01*
X137562286Y-97467057D02*
X137609905Y-97419438D01*
X137609905Y-97419438D02*
X137705143Y-97371819D01*
X137705143Y-97371819D02*
X137943238Y-97371819D01*
X137943238Y-97371819D02*
X138038476Y-97419438D01*
X138038476Y-97419438D02*
X138086095Y-97467057D01*
X138086095Y-97467057D02*
X138133714Y-97562295D01*
X138133714Y-97562295D02*
X138133714Y-97657533D01*
X138133714Y-97657533D02*
X138086095Y-97800390D01*
X138086095Y-97800390D02*
X137514667Y-98371819D01*
X137514667Y-98371819D02*
X138133714Y-98371819D01*
X157313333Y-90751819D02*
X156980000Y-90275628D01*
X156741905Y-90751819D02*
X156741905Y-89751819D01*
X156741905Y-89751819D02*
X157122857Y-89751819D01*
X157122857Y-89751819D02*
X157218095Y-89799438D01*
X157218095Y-89799438D02*
X157265714Y-89847057D01*
X157265714Y-89847057D02*
X157313333Y-89942295D01*
X157313333Y-89942295D02*
X157313333Y-90085152D01*
X157313333Y-90085152D02*
X157265714Y-90180390D01*
X157265714Y-90180390D02*
X157218095Y-90228009D01*
X157218095Y-90228009D02*
X157122857Y-90275628D01*
X157122857Y-90275628D02*
X156741905Y-90275628D01*
X158170476Y-90085152D02*
X158170476Y-90751819D01*
X157932381Y-89704200D02*
X157694286Y-90418485D01*
X157694286Y-90418485D02*
X158313333Y-90418485D01*
X161758333Y-88719819D02*
X161425000Y-88243628D01*
X161186905Y-88719819D02*
X161186905Y-87719819D01*
X161186905Y-87719819D02*
X161567857Y-87719819D01*
X161567857Y-87719819D02*
X161663095Y-87767438D01*
X161663095Y-87767438D02*
X161710714Y-87815057D01*
X161710714Y-87815057D02*
X161758333Y-87910295D01*
X161758333Y-87910295D02*
X161758333Y-88053152D01*
X161758333Y-88053152D02*
X161710714Y-88148390D01*
X161710714Y-88148390D02*
X161663095Y-88196009D01*
X161663095Y-88196009D02*
X161567857Y-88243628D01*
X161567857Y-88243628D02*
X161186905Y-88243628D01*
X162710714Y-88719819D02*
X162139286Y-88719819D01*
X162425000Y-88719819D02*
X162425000Y-87719819D01*
X162425000Y-87719819D02*
X162329762Y-87862676D01*
X162329762Y-87862676D02*
X162234524Y-87957914D01*
X162234524Y-87957914D02*
X162139286Y-88005533D01*
X157948333Y-105134580D02*
X157900714Y-105182200D01*
X157900714Y-105182200D02*
X157757857Y-105229819D01*
X157757857Y-105229819D02*
X157662619Y-105229819D01*
X157662619Y-105229819D02*
X157519762Y-105182200D01*
X157519762Y-105182200D02*
X157424524Y-105086961D01*
X157424524Y-105086961D02*
X157376905Y-104991723D01*
X157376905Y-104991723D02*
X157329286Y-104801247D01*
X157329286Y-104801247D02*
X157329286Y-104658390D01*
X157329286Y-104658390D02*
X157376905Y-104467914D01*
X157376905Y-104467914D02*
X157424524Y-104372676D01*
X157424524Y-104372676D02*
X157519762Y-104277438D01*
X157519762Y-104277438D02*
X157662619Y-104229819D01*
X157662619Y-104229819D02*
X157757857Y-104229819D01*
X157757857Y-104229819D02*
X157900714Y-104277438D01*
X157900714Y-104277438D02*
X157948333Y-104325057D01*
X158900714Y-105229819D02*
X158329286Y-105229819D01*
X158615000Y-105229819D02*
X158615000Y-104229819D01*
X158615000Y-104229819D02*
X158519762Y-104372676D01*
X158519762Y-104372676D02*
X158424524Y-104467914D01*
X158424524Y-104467914D02*
X158329286Y-104515533D01*
X155648819Y-96559666D02*
X155172628Y-96892999D01*
X155648819Y-97131094D02*
X154648819Y-97131094D01*
X154648819Y-97131094D02*
X154648819Y-96750142D01*
X154648819Y-96750142D02*
X154696438Y-96654904D01*
X154696438Y-96654904D02*
X154744057Y-96607285D01*
X154744057Y-96607285D02*
X154839295Y-96559666D01*
X154839295Y-96559666D02*
X154982152Y-96559666D01*
X154982152Y-96559666D02*
X155077390Y-96607285D01*
X155077390Y-96607285D02*
X155125009Y-96654904D01*
X155125009Y-96654904D02*
X155172628Y-96750142D01*
X155172628Y-96750142D02*
X155172628Y-97131094D01*
X154648819Y-95702523D02*
X154648819Y-95892999D01*
X154648819Y-95892999D02*
X154696438Y-95988237D01*
X154696438Y-95988237D02*
X154744057Y-96035856D01*
X154744057Y-96035856D02*
X154886914Y-96131094D01*
X154886914Y-96131094D02*
X155077390Y-96178713D01*
X155077390Y-96178713D02*
X155458342Y-96178713D01*
X155458342Y-96178713D02*
X155553580Y-96131094D01*
X155553580Y-96131094D02*
X155601200Y-96083475D01*
X155601200Y-96083475D02*
X155648819Y-95988237D01*
X155648819Y-95988237D02*
X155648819Y-95797761D01*
X155648819Y-95797761D02*
X155601200Y-95702523D01*
X155601200Y-95702523D02*
X155553580Y-95654904D01*
X155553580Y-95654904D02*
X155458342Y-95607285D01*
X155458342Y-95607285D02*
X155220247Y-95607285D01*
X155220247Y-95607285D02*
X155125009Y-95654904D01*
X155125009Y-95654904D02*
X155077390Y-95702523D01*
X155077390Y-95702523D02*
X155029771Y-95797761D01*
X155029771Y-95797761D02*
X155029771Y-95988237D01*
X155029771Y-95988237D02*
X155077390Y-96083475D01*
X155077390Y-96083475D02*
X155125009Y-96131094D01*
X155125009Y-96131094D02*
X155220247Y-96178713D01*
X159345333Y-81353819D02*
X159012000Y-80877628D01*
X158773905Y-81353819D02*
X158773905Y-80353819D01*
X158773905Y-80353819D02*
X159154857Y-80353819D01*
X159154857Y-80353819D02*
X159250095Y-80401438D01*
X159250095Y-80401438D02*
X159297714Y-80449057D01*
X159297714Y-80449057D02*
X159345333Y-80544295D01*
X159345333Y-80544295D02*
X159345333Y-80687152D01*
X159345333Y-80687152D02*
X159297714Y-80782390D01*
X159297714Y-80782390D02*
X159250095Y-80830009D01*
X159250095Y-80830009D02*
X159154857Y-80877628D01*
X159154857Y-80877628D02*
X158773905Y-80877628D01*
X159678667Y-80353819D02*
X160297714Y-80353819D01*
X160297714Y-80353819D02*
X159964381Y-80734771D01*
X159964381Y-80734771D02*
X160107238Y-80734771D01*
X160107238Y-80734771D02*
X160202476Y-80782390D01*
X160202476Y-80782390D02*
X160250095Y-80830009D01*
X160250095Y-80830009D02*
X160297714Y-80925247D01*
X160297714Y-80925247D02*
X160297714Y-81163342D01*
X160297714Y-81163342D02*
X160250095Y-81258580D01*
X160250095Y-81258580D02*
X160202476Y-81306200D01*
X160202476Y-81306200D02*
X160107238Y-81353819D01*
X160107238Y-81353819D02*
X159821524Y-81353819D01*
X159821524Y-81353819D02*
X159726286Y-81306200D01*
X159726286Y-81306200D02*
X159678667Y-81258580D01*
X157567333Y-83837319D02*
X157234000Y-83361128D01*
X156995905Y-83837319D02*
X156995905Y-82837319D01*
X156995905Y-82837319D02*
X157376857Y-82837319D01*
X157376857Y-82837319D02*
X157472095Y-82884938D01*
X157472095Y-82884938D02*
X157519714Y-82932557D01*
X157519714Y-82932557D02*
X157567333Y-83027795D01*
X157567333Y-83027795D02*
X157567333Y-83170652D01*
X157567333Y-83170652D02*
X157519714Y-83265890D01*
X157519714Y-83265890D02*
X157472095Y-83313509D01*
X157472095Y-83313509D02*
X157376857Y-83361128D01*
X157376857Y-83361128D02*
X156995905Y-83361128D01*
X158138762Y-83265890D02*
X158043524Y-83218271D01*
X158043524Y-83218271D02*
X157995905Y-83170652D01*
X157995905Y-83170652D02*
X157948286Y-83075414D01*
X157948286Y-83075414D02*
X157948286Y-83027795D01*
X157948286Y-83027795D02*
X157995905Y-82932557D01*
X157995905Y-82932557D02*
X158043524Y-82884938D01*
X158043524Y-82884938D02*
X158138762Y-82837319D01*
X158138762Y-82837319D02*
X158329238Y-82837319D01*
X158329238Y-82837319D02*
X158424476Y-82884938D01*
X158424476Y-82884938D02*
X158472095Y-82932557D01*
X158472095Y-82932557D02*
X158519714Y-83027795D01*
X158519714Y-83027795D02*
X158519714Y-83075414D01*
X158519714Y-83075414D02*
X158472095Y-83170652D01*
X158472095Y-83170652D02*
X158424476Y-83218271D01*
X158424476Y-83218271D02*
X158329238Y-83265890D01*
X158329238Y-83265890D02*
X158138762Y-83265890D01*
X158138762Y-83265890D02*
X158043524Y-83313509D01*
X158043524Y-83313509D02*
X157995905Y-83361128D01*
X157995905Y-83361128D02*
X157948286Y-83456366D01*
X157948286Y-83456366D02*
X157948286Y-83646842D01*
X157948286Y-83646842D02*
X157995905Y-83742080D01*
X157995905Y-83742080D02*
X158043524Y-83789700D01*
X158043524Y-83789700D02*
X158138762Y-83837319D01*
X158138762Y-83837319D02*
X158329238Y-83837319D01*
X158329238Y-83837319D02*
X158424476Y-83789700D01*
X158424476Y-83789700D02*
X158472095Y-83742080D01*
X158472095Y-83742080D02*
X158519714Y-83646842D01*
X158519714Y-83646842D02*
X158519714Y-83456366D01*
X158519714Y-83456366D02*
X158472095Y-83361128D01*
X158472095Y-83361128D02*
X158424476Y-83313509D01*
X158424476Y-83313509D02*
X158329238Y-83265890D01*
X159218333Y-90656580D02*
X159170714Y-90704200D01*
X159170714Y-90704200D02*
X159027857Y-90751819D01*
X159027857Y-90751819D02*
X158932619Y-90751819D01*
X158932619Y-90751819D02*
X158789762Y-90704200D01*
X158789762Y-90704200D02*
X158694524Y-90608961D01*
X158694524Y-90608961D02*
X158646905Y-90513723D01*
X158646905Y-90513723D02*
X158599286Y-90323247D01*
X158599286Y-90323247D02*
X158599286Y-90180390D01*
X158599286Y-90180390D02*
X158646905Y-89989914D01*
X158646905Y-89989914D02*
X158694524Y-89894676D01*
X158694524Y-89894676D02*
X158789762Y-89799438D01*
X158789762Y-89799438D02*
X158932619Y-89751819D01*
X158932619Y-89751819D02*
X159027857Y-89751819D01*
X159027857Y-89751819D02*
X159170714Y-89799438D01*
X159170714Y-89799438D02*
X159218333Y-89847057D01*
X159599286Y-89847057D02*
X159646905Y-89799438D01*
X159646905Y-89799438D02*
X159742143Y-89751819D01*
X159742143Y-89751819D02*
X159980238Y-89751819D01*
X159980238Y-89751819D02*
X160075476Y-89799438D01*
X160075476Y-89799438D02*
X160123095Y-89847057D01*
X160123095Y-89847057D02*
X160170714Y-89942295D01*
X160170714Y-89942295D02*
X160170714Y-90037533D01*
X160170714Y-90037533D02*
X160123095Y-90180390D01*
X160123095Y-90180390D02*
X159551667Y-90751819D01*
X159551667Y-90751819D02*
X160170714Y-90751819D01*
X146798833Y-101070580D02*
X146751214Y-101118200D01*
X146751214Y-101118200D02*
X146608357Y-101165819D01*
X146608357Y-101165819D02*
X146513119Y-101165819D01*
X146513119Y-101165819D02*
X146370262Y-101118200D01*
X146370262Y-101118200D02*
X146275024Y-101022961D01*
X146275024Y-101022961D02*
X146227405Y-100927723D01*
X146227405Y-100927723D02*
X146179786Y-100737247D01*
X146179786Y-100737247D02*
X146179786Y-100594390D01*
X146179786Y-100594390D02*
X146227405Y-100403914D01*
X146227405Y-100403914D02*
X146275024Y-100308676D01*
X146275024Y-100308676D02*
X146370262Y-100213438D01*
X146370262Y-100213438D02*
X146513119Y-100165819D01*
X146513119Y-100165819D02*
X146608357Y-100165819D01*
X146608357Y-100165819D02*
X146751214Y-100213438D01*
X146751214Y-100213438D02*
X146798833Y-100261057D01*
X147655976Y-100165819D02*
X147465500Y-100165819D01*
X147465500Y-100165819D02*
X147370262Y-100213438D01*
X147370262Y-100213438D02*
X147322643Y-100261057D01*
X147322643Y-100261057D02*
X147227405Y-100403914D01*
X147227405Y-100403914D02*
X147179786Y-100594390D01*
X147179786Y-100594390D02*
X147179786Y-100975342D01*
X147179786Y-100975342D02*
X147227405Y-101070580D01*
X147227405Y-101070580D02*
X147275024Y-101118200D01*
X147275024Y-101118200D02*
X147370262Y-101165819D01*
X147370262Y-101165819D02*
X147560738Y-101165819D01*
X147560738Y-101165819D02*
X147655976Y-101118200D01*
X147655976Y-101118200D02*
X147703595Y-101070580D01*
X147703595Y-101070580D02*
X147751214Y-100975342D01*
X147751214Y-100975342D02*
X147751214Y-100737247D01*
X147751214Y-100737247D02*
X147703595Y-100642009D01*
X147703595Y-100642009D02*
X147655976Y-100594390D01*
X147655976Y-100594390D02*
X147560738Y-100546771D01*
X147560738Y-100546771D02*
X147370262Y-100546771D01*
X147370262Y-100546771D02*
X147275024Y-100594390D01*
X147275024Y-100594390D02*
X147227405Y-100642009D01*
X147227405Y-100642009D02*
X147179786Y-100737247D01*
X151711819Y-94908666D02*
X151235628Y-95241999D01*
X151711819Y-95480094D02*
X150711819Y-95480094D01*
X150711819Y-95480094D02*
X150711819Y-95099142D01*
X150711819Y-95099142D02*
X150759438Y-95003904D01*
X150759438Y-95003904D02*
X150807057Y-94956285D01*
X150807057Y-94956285D02*
X150902295Y-94908666D01*
X150902295Y-94908666D02*
X151045152Y-94908666D01*
X151045152Y-94908666D02*
X151140390Y-94956285D01*
X151140390Y-94956285D02*
X151188009Y-95003904D01*
X151188009Y-95003904D02*
X151235628Y-95099142D01*
X151235628Y-95099142D02*
X151235628Y-95480094D01*
X150711819Y-94003904D02*
X150711819Y-94480094D01*
X150711819Y-94480094D02*
X151188009Y-94527713D01*
X151188009Y-94527713D02*
X151140390Y-94480094D01*
X151140390Y-94480094D02*
X151092771Y-94384856D01*
X151092771Y-94384856D02*
X151092771Y-94146761D01*
X151092771Y-94146761D02*
X151140390Y-94051523D01*
X151140390Y-94051523D02*
X151188009Y-94003904D01*
X151188009Y-94003904D02*
X151283247Y-93956285D01*
X151283247Y-93956285D02*
X151521342Y-93956285D01*
X151521342Y-93956285D02*
X151616580Y-94003904D01*
X151616580Y-94003904D02*
X151664200Y-94051523D01*
X151664200Y-94051523D02*
X151711819Y-94146761D01*
X151711819Y-94146761D02*
X151711819Y-94384856D01*
X151711819Y-94384856D02*
X151664200Y-94480094D01*
X151664200Y-94480094D02*
X151616580Y-94527713D01*
X146772333Y-103102580D02*
X146724714Y-103150200D01*
X146724714Y-103150200D02*
X146581857Y-103197819D01*
X146581857Y-103197819D02*
X146486619Y-103197819D01*
X146486619Y-103197819D02*
X146343762Y-103150200D01*
X146343762Y-103150200D02*
X146248524Y-103054961D01*
X146248524Y-103054961D02*
X146200905Y-102959723D01*
X146200905Y-102959723D02*
X146153286Y-102769247D01*
X146153286Y-102769247D02*
X146153286Y-102626390D01*
X146153286Y-102626390D02*
X146200905Y-102435914D01*
X146200905Y-102435914D02*
X146248524Y-102340676D01*
X146248524Y-102340676D02*
X146343762Y-102245438D01*
X146343762Y-102245438D02*
X146486619Y-102197819D01*
X146486619Y-102197819D02*
X146581857Y-102197819D01*
X146581857Y-102197819D02*
X146724714Y-102245438D01*
X146724714Y-102245438D02*
X146772333Y-102293057D01*
X147677095Y-102197819D02*
X147200905Y-102197819D01*
X147200905Y-102197819D02*
X147153286Y-102674009D01*
X147153286Y-102674009D02*
X147200905Y-102626390D01*
X147200905Y-102626390D02*
X147296143Y-102578771D01*
X147296143Y-102578771D02*
X147534238Y-102578771D01*
X147534238Y-102578771D02*
X147629476Y-102626390D01*
X147629476Y-102626390D02*
X147677095Y-102674009D01*
X147677095Y-102674009D02*
X147724714Y-102769247D01*
X147724714Y-102769247D02*
X147724714Y-103007342D01*
X147724714Y-103007342D02*
X147677095Y-103102580D01*
X147677095Y-103102580D02*
X147629476Y-103150200D01*
X147629476Y-103150200D02*
X147534238Y-103197819D01*
X147534238Y-103197819D02*
X147296143Y-103197819D01*
X147296143Y-103197819D02*
X147200905Y-103150200D01*
X147200905Y-103150200D02*
X147153286Y-103102580D01*
X157948333Y-103102580D02*
X157900714Y-103150200D01*
X157900714Y-103150200D02*
X157757857Y-103197819D01*
X157757857Y-103197819D02*
X157662619Y-103197819D01*
X157662619Y-103197819D02*
X157519762Y-103150200D01*
X157519762Y-103150200D02*
X157424524Y-103054961D01*
X157424524Y-103054961D02*
X157376905Y-102959723D01*
X157376905Y-102959723D02*
X157329286Y-102769247D01*
X157329286Y-102769247D02*
X157329286Y-102626390D01*
X157329286Y-102626390D02*
X157376905Y-102435914D01*
X157376905Y-102435914D02*
X157424524Y-102340676D01*
X157424524Y-102340676D02*
X157519762Y-102245438D01*
X157519762Y-102245438D02*
X157662619Y-102197819D01*
X157662619Y-102197819D02*
X157757857Y-102197819D01*
X157757857Y-102197819D02*
X157900714Y-102245438D01*
X157900714Y-102245438D02*
X157948333Y-102293057D01*
X158281667Y-102197819D02*
X158900714Y-102197819D01*
X158900714Y-102197819D02*
X158567381Y-102578771D01*
X158567381Y-102578771D02*
X158710238Y-102578771D01*
X158710238Y-102578771D02*
X158805476Y-102626390D01*
X158805476Y-102626390D02*
X158853095Y-102674009D01*
X158853095Y-102674009D02*
X158900714Y-102769247D01*
X158900714Y-102769247D02*
X158900714Y-103007342D01*
X158900714Y-103007342D02*
X158853095Y-103102580D01*
X158853095Y-103102580D02*
X158805476Y-103150200D01*
X158805476Y-103150200D02*
X158710238Y-103197819D01*
X158710238Y-103197819D02*
X158424524Y-103197819D01*
X158424524Y-103197819D02*
X158329286Y-103150200D01*
X158329286Y-103150200D02*
X158281667Y-103102580D01*
X136609905Y-100403819D02*
X136609905Y-99403819D01*
X136609905Y-99403819D02*
X136848000Y-99403819D01*
X136848000Y-99403819D02*
X136990857Y-99451438D01*
X136990857Y-99451438D02*
X137086095Y-99546676D01*
X137086095Y-99546676D02*
X137133714Y-99641914D01*
X137133714Y-99641914D02*
X137181333Y-99832390D01*
X137181333Y-99832390D02*
X137181333Y-99975247D01*
X137181333Y-99975247D02*
X137133714Y-100165723D01*
X137133714Y-100165723D02*
X137086095Y-100260961D01*
X137086095Y-100260961D02*
X136990857Y-100356200D01*
X136990857Y-100356200D02*
X136848000Y-100403819D01*
X136848000Y-100403819D02*
X136609905Y-100403819D01*
X138133714Y-100403819D02*
X137562286Y-100403819D01*
X137848000Y-100403819D02*
X137848000Y-99403819D01*
X137848000Y-99403819D02*
X137752762Y-99546676D01*
X137752762Y-99546676D02*
X137657524Y-99641914D01*
X137657524Y-99641914D02*
X137562286Y-99689533D01*
D13*
%TO.C,R2*%
X160806224Y-82281500D02*
X160296776Y-82281500D01*
X160806224Y-83326500D02*
X160296776Y-83326500D01*
%TO.C,C4*%
X155594267Y-100201000D02*
X155301733Y-100201000D01*
X155594267Y-101221000D02*
X155301733Y-101221000D01*
D12*
%TO.C,H3*%
X169219283Y-105135000D02*
G75*
G02*
X161182717Y-105135000I-4018283J0D01*
G01*
X161182717Y-105135000D02*
G75*
G02*
X169219283Y-105135000I4018283J0D01*
G01*
%TO.C,H1*%
X169219283Y-60431000D02*
G75*
G02*
X161182717Y-60431000I-4018283J0D01*
G01*
X161182717Y-60431000D02*
G75*
G02*
X169219283Y-60431000I4018283J0D01*
G01*
D13*
%TO.C,D3*%
X138675000Y-95150000D02*
X138675000Y-96620000D01*
X138675000Y-96620000D02*
X141135000Y-96620000D01*
X141135000Y-95150000D02*
X138675000Y-95150000D01*
%TO.C,C7*%
X156548000Y-85090000D02*
G75*
G02*
X148308000Y-85090000I-4120000J0D01*
G01*
X148308000Y-85090000D02*
G75*
G02*
X156548000Y-85090000I4120000J0D01*
G01*
%TO.C,R7*%
X149083500Y-97154276D02*
X149083500Y-97663724D01*
X150128500Y-97154276D02*
X150128500Y-97663724D01*
%TO.C,D2*%
X138675000Y-97182000D02*
X138675000Y-98652000D01*
X138675000Y-98652000D02*
X141135000Y-98652000D01*
X141135000Y-97182000D02*
X138675000Y-97182000D01*
D12*
%TO.C,Conn4*%
X136271000Y-78359000D02*
X137541000Y-78359000D01*
X136271000Y-85852000D02*
X136271000Y-78359000D01*
X137541000Y-78359000D02*
X142621000Y-78359000D01*
X137541000Y-85852000D02*
X136271000Y-85852000D01*
X137541000Y-85852000D02*
X137541000Y-78359000D01*
X137541000Y-85852000D02*
X142621000Y-85852000D01*
X142621000Y-78359000D02*
X142621000Y-85852000D01*
%TO.C,H4*%
X144073283Y-60431000D02*
G75*
G02*
X136036717Y-60431000I-4018283J0D01*
G01*
X136036717Y-60431000D02*
G75*
G02*
X144073283Y-60431000I4018283J0D01*
G01*
%TO.C,Conn1*%
X162941000Y-81915000D02*
X164211000Y-81915000D01*
X162941000Y-89408000D02*
X162941000Y-81915000D01*
X164211000Y-81915000D02*
X169291000Y-81915000D01*
X164211000Y-89408000D02*
X162941000Y-89408000D01*
X164211000Y-89408000D02*
X164211000Y-81915000D01*
X164211000Y-89408000D02*
X169291000Y-89408000D01*
X169291000Y-81915000D02*
X169291000Y-89408000D01*
D13*
%TO.C,R4*%
X157338500Y-87478776D02*
X157338500Y-87988224D01*
X158383500Y-87478776D02*
X158383500Y-87988224D01*
%TO.C,R1*%
X161402500Y-85493776D02*
X161402500Y-86003224D01*
X162447500Y-85493776D02*
X162447500Y-86003224D01*
%TO.C,C1*%
X155567767Y-104265000D02*
X155275233Y-104265000D01*
X155567767Y-105285000D02*
X155275233Y-105285000D01*
D12*
%TO.C,Conn2*%
X162941000Y-90678000D02*
X164211000Y-90678000D01*
X162941000Y-98171000D02*
X162941000Y-90678000D01*
X164211000Y-90678000D02*
X169291000Y-90678000D01*
X164211000Y-98171000D02*
X162941000Y-98171000D01*
X164211000Y-98171000D02*
X164211000Y-90678000D01*
X164211000Y-98171000D02*
X169291000Y-98171000D01*
X169291000Y-90678000D02*
X169291000Y-98171000D01*
D13*
%TO.C,R6*%
X153147500Y-97121276D02*
X153147500Y-97630724D01*
X154192500Y-97121276D02*
X154192500Y-97630724D01*
%TO.C,R3*%
X162584224Y-80249500D02*
X162074776Y-80249500D01*
X162584224Y-81294500D02*
X162074776Y-81294500D01*
D12*
%TO.C,Conn5*%
X136271000Y-86741000D02*
X137541000Y-86741000D01*
X136271000Y-94234000D02*
X136271000Y-86741000D01*
X137541000Y-86741000D02*
X142621000Y-86741000D01*
X137541000Y-94234000D02*
X136271000Y-94234000D01*
X137541000Y-94234000D02*
X137541000Y-86741000D01*
X137541000Y-94234000D02*
X142621000Y-94234000D01*
X142621000Y-86741000D02*
X142621000Y-94234000D01*
%TO.C,H2*%
X144073283Y-105135000D02*
G75*
G02*
X136036717Y-105135000I-4018283J0D01*
G01*
X136036717Y-105135000D02*
G75*
G02*
X144073283Y-105135000I4018283J0D01*
G01*
D13*
%TO.C,R8*%
X158518776Y-84290000D02*
X159028224Y-84290000D01*
X158518776Y-85335000D02*
X159028224Y-85335000D01*
%TO.C,C2*%
X159383000Y-87603323D02*
X159383000Y-87895857D01*
X160403000Y-87603323D02*
X160403000Y-87895857D01*
%TO.C,C6*%
X149486233Y-100201000D02*
X149778767Y-100201000D01*
X149486233Y-101221000D02*
X149778767Y-101221000D01*
%TO.C,R5*%
X151115500Y-97154276D02*
X151115500Y-97663724D01*
X152160500Y-97154276D02*
X152160500Y-97663724D01*
%TO.C,C5*%
X149459733Y-102233000D02*
X149752267Y-102233000D01*
X149459733Y-103253000D02*
X149752267Y-103253000D01*
%TO.C,C3*%
X155567767Y-102233000D02*
X155275233Y-102233000D01*
X155567767Y-103253000D02*
X155275233Y-103253000D01*
%TO.C,J2*%
X161738000Y-69215000D02*
X161738000Y-79435000D01*
X161738000Y-69215000D02*
X164398000Y-69215000D01*
X161738000Y-79435000D02*
X164398000Y-79435000D01*
X163068000Y-66615000D02*
X164398000Y-66615000D01*
X164398000Y-66615000D02*
X164398000Y-67945000D01*
X164398000Y-69215000D02*
X164398000Y-79435000D01*
%TO.C,J1*%
X165294000Y-69215000D02*
X165294000Y-76895000D01*
X165294000Y-69215000D02*
X167954000Y-69215000D01*
X165294000Y-76895000D02*
X167954000Y-76895000D01*
X166624000Y-66615000D02*
X167954000Y-66615000D01*
X167954000Y-66615000D02*
X167954000Y-67945000D01*
X167954000Y-69215000D02*
X167954000Y-76895000D01*
%TO.C,D1*%
X138675000Y-99214000D02*
X138675000Y-100684000D01*
X138675000Y-100684000D02*
X141135000Y-100684000D01*
X141135000Y-99214000D02*
X138675000Y-99214000D01*
D12*
%TO.C,Conn3*%
X136017000Y-64770000D02*
X136017000Y-77470000D01*
X136017000Y-77470000D02*
X137541000Y-77470000D01*
X137541000Y-64770000D02*
X136017000Y-64770000D01*
X137541000Y-77470000D02*
X137541000Y-64770000D01*
X142621000Y-64770000D02*
X137541000Y-64770000D01*
X142621000Y-64770000D02*
X142621000Y-77470000D01*
X142621000Y-77470000D02*
X137541000Y-77470000D01*
%TD*%
M02*
