%TF.GenerationSoftware,KiCad,Pcbnew,9.0.4*%
%TF.CreationDate,2025-11-09T18:49:48-06:00*%
%TF.ProjectId,Smart_MoCo,536d6172-745f-44d6-9f43-6f2e6b696361,rev?*%
%TF.SameCoordinates,Original*%
%TF.FileFunction,Paste,Top*%
%TF.FilePolarity,Positive*%
%FSLAX46Y46*%
G04 Gerber Fmt 4.6, Leading zero omitted, Abs format (unit mm)*
G04 Created by KiCad (PCBNEW 9.0.4) date 2025-11-09 18:49:48*
%MOMM*%
%LPD*%
G01*
G04 APERTURE LIST*
G04 Aperture macros list*
%AMRoundRect*
0 Rectangle with rounded corners*
0 $1 Rounding radius*
0 $2 $3 $4 $5 $6 $7 $8 $9 X,Y pos of 4 corners*
0 Add a 4 corners polygon primitive as box body*
4,1,4,$2,$3,$4,$5,$6,$7,$8,$9,$2,$3,0*
0 Add four circle primitives for the rounded corners*
1,1,$1+$1,$2,$3*
1,1,$1+$1,$4,$5*
1,1,$1+$1,$6,$7*
1,1,$1+$1,$8,$9*
0 Add four rect primitives between the rounded corners*
20,1,$1+$1,$2,$3,$4,$5,0*
20,1,$1+$1,$4,$5,$6,$7,0*
20,1,$1+$1,$6,$7,$8,$9,0*
20,1,$1+$1,$8,$9,$2,$3,0*%
G04 Aperture macros list end*
%ADD10RoundRect,0.237500X-0.250000X-0.237500X0.250000X-0.237500X0.250000X0.237500X-0.250000X0.237500X0*%
%ADD11RoundRect,0.237500X0.250000X0.237500X-0.250000X0.237500X-0.250000X-0.237500X0.250000X-0.237500X0*%
%ADD12RoundRect,0.250001X0.462499X0.849999X-0.462499X0.849999X-0.462499X-0.849999X0.462499X-0.849999X0*%
%ADD13RoundRect,0.237500X0.287500X0.237500X-0.287500X0.237500X-0.287500X-0.237500X0.287500X-0.237500X0*%
%ADD14RoundRect,0.237500X-0.237500X0.250000X-0.237500X-0.250000X0.237500X-0.250000X0.237500X0.250000X0*%
%ADD15RoundRect,0.237500X0.237500X-0.250000X0.237500X0.250000X-0.237500X0.250000X-0.237500X-0.250000X0*%
%ADD16RoundRect,0.150000X-0.625000X0.150000X-0.625000X-0.150000X0.625000X-0.150000X0.625000X0.150000X0*%
%ADD17RoundRect,0.250000X-0.650000X0.350000X-0.650000X-0.350000X0.650000X-0.350000X0.650000X0.350000X0*%
%ADD18RoundRect,0.237500X-0.237500X0.300000X-0.237500X-0.300000X0.237500X-0.300000X0.237500X0.300000X0*%
%ADD19RoundRect,0.150000X-0.512500X-0.150000X0.512500X-0.150000X0.512500X0.150000X-0.512500X0.150000X0*%
%ADD20RoundRect,0.150000X0.625000X-0.150000X0.625000X0.150000X-0.625000X0.150000X-0.625000X-0.150000X0*%
%ADD21RoundRect,0.250000X0.650000X-0.350000X0.650000X0.350000X-0.650000X0.350000X-0.650000X-0.350000X0*%
G04 APERTURE END LIST*
D10*
%TO.C,R2*%
X160227000Y-81280000D03*
X162052000Y-81280000D03*
%TD*%
D11*
%TO.C,R6*%
X164973000Y-77089000D03*
X163148000Y-77089000D03*
%TD*%
D12*
%TO.C,L2*%
X165246500Y-70485000D03*
X162921500Y-70485000D03*
%TD*%
D13*
%TO.C,D3*%
X168021000Y-93726000D03*
X166271000Y-93726000D03*
%TD*%
%TO.C,D2*%
X168021000Y-91694000D03*
X166271000Y-91694000D03*
%TD*%
D14*
%TO.C,R4*%
X158599500Y-84836000D03*
X158599500Y-86661000D03*
%TD*%
D15*
%TO.C,R5*%
X167513000Y-77089000D03*
X167513000Y-75264000D03*
%TD*%
D16*
%TO.C,J5*%
X147766000Y-69275000D03*
X147766000Y-70275000D03*
X147766000Y-71275000D03*
X147766000Y-72275000D03*
D17*
X143891000Y-67975000D03*
X143891000Y-73575000D03*
%TD*%
D16*
%TO.C,J7*%
X147766000Y-78008000D03*
X147766000Y-79008000D03*
D17*
X143891000Y-76708000D03*
X143891000Y-80308000D03*
%TD*%
D11*
%TO.C,R3*%
X162052000Y-79248000D03*
X160227000Y-79248000D03*
%TD*%
D18*
%TO.C,C2*%
X160433989Y-84891275D03*
X160433989Y-86616275D03*
%TD*%
D19*
%TO.C,U4*%
X162952000Y-73152000D03*
X162952000Y-74102000D03*
X162952000Y-75052000D03*
X165227000Y-75052000D03*
X165227000Y-74102000D03*
X165227000Y-73152000D03*
%TD*%
D16*
%TO.C,J6*%
X147766000Y-84739000D03*
X147766000Y-85739000D03*
D17*
X143891000Y-83439000D03*
X143891000Y-87039000D03*
%TD*%
D20*
%TO.C,J3*%
X163957000Y-85187000D03*
X163957000Y-84187000D03*
D21*
X167832000Y-86487000D03*
X167832000Y-82887000D03*
%TD*%
D18*
%TO.C,C10*%
X167513000Y-71300000D03*
X167513000Y-73025000D03*
%TD*%
D13*
%TO.C,D1*%
X168021000Y-89662000D03*
X166271000Y-89662000D03*
%TD*%
M02*
