%TF.GenerationSoftware,KiCad,Pcbnew,8.0.6*%
%TF.CreationDate,2025-04-08T19:20:38-05:00*%
%TF.ProjectId,Smart_MoCo,536d6172-745f-44d6-9f43-6f2e6b696361,rev?*%
%TF.SameCoordinates,Original*%
%TF.FileFunction,Copper,L2,Bot*%
%TF.FilePolarity,Positive*%
%FSLAX46Y46*%
G04 Gerber Fmt 4.6, Leading zero omitted, Abs format (unit mm)*
G04 Created by KiCad (PCBNEW 8.0.6) date 2025-04-08 19:20:38*
%MOMM*%
%LPD*%
G01*
G04 APERTURE LIST*
G04 Aperture macros list*
%AMRoundRect*
0 Rectangle with rounded corners*
0 $1 Rounding radius*
0 $2 $3 $4 $5 $6 $7 $8 $9 X,Y pos of 4 corners*
0 Add a 4 corners polygon primitive as box body*
4,1,4,$2,$3,$4,$5,$6,$7,$8,$9,$2,$3,0*
0 Add four circle primitives for the rounded corners*
1,1,$1+$1,$2,$3*
1,1,$1+$1,$4,$5*
1,1,$1+$1,$6,$7*
1,1,$1+$1,$8,$9*
0 Add four rect primitives between the rounded corners*
20,1,$1+$1,$2,$3,$4,$5,0*
20,1,$1+$1,$4,$5,$6,$7,0*
20,1,$1+$1,$6,$7,$8,$9,0*
20,1,$1+$1,$8,$9,$2,$3,0*%
G04 Aperture macros list end*
%TA.AperFunction,ComponentPad*%
%ADD10O,5.100000X3.000000*%
%TD*%
%TA.AperFunction,ComponentPad*%
%ADD11C,1.600000*%
%TD*%
%TA.AperFunction,ComponentPad*%
%ADD12C,1.524000*%
%TD*%
%TA.AperFunction,ComponentPad*%
%ADD13R,1.700000X1.700000*%
%TD*%
%TA.AperFunction,ComponentPad*%
%ADD14O,1.700000X1.700000*%
%TD*%
%TA.AperFunction,SMDPad,CuDef*%
%ADD15RoundRect,0.237500X0.250000X0.237500X-0.250000X0.237500X-0.250000X-0.237500X0.250000X-0.237500X0*%
%TD*%
%TA.AperFunction,SMDPad,CuDef*%
%ADD16RoundRect,0.150000X-0.825000X-0.150000X0.825000X-0.150000X0.825000X0.150000X-0.825000X0.150000X0*%
%TD*%
%TA.AperFunction,SMDPad,CuDef*%
%ADD17RoundRect,0.100000X-0.637500X-0.100000X0.637500X-0.100000X0.637500X0.100000X-0.637500X0.100000X0*%
%TD*%
%TA.AperFunction,SMDPad,CuDef*%
%ADD18RoundRect,0.237500X0.237500X-0.300000X0.237500X0.300000X-0.237500X0.300000X-0.237500X-0.300000X0*%
%TD*%
%TA.AperFunction,SMDPad,CuDef*%
%ADD19RoundRect,0.237500X-0.237500X0.300000X-0.237500X-0.300000X0.237500X-0.300000X0.237500X0.300000X0*%
%TD*%
%TA.AperFunction,SMDPad,CuDef*%
%ADD20R,0.660000X1.350000*%
%TD*%
%TA.AperFunction,SMDPad,CuDef*%
%ADD21R,10.300000X5.250000*%
%TD*%
%TA.AperFunction,SMDPad,CuDef*%
%ADD22R,6.230000X5.250000*%
%TD*%
%TA.AperFunction,ViaPad*%
%ADD23C,0.600000*%
%TD*%
%TA.AperFunction,ViaPad*%
%ADD24C,0.800100*%
%TD*%
%TA.AperFunction,Conductor*%
%ADD25C,0.254000*%
%TD*%
%TA.AperFunction,Conductor*%
%ADD26C,0.635000*%
%TD*%
G04 APERTURE END LIST*
D10*
%TO.P,Conn7,1,GND*%
%TO.N,+12V*%
X148663803Y-92582000D03*
%TO.P,Conn7,2,V+Log*%
%TO.N,GND*%
X156563803Y-92582000D03*
%TD*%
D11*
%TO.P,C7,1*%
%TO.N,+12V*%
X150678000Y-85090000D03*
%TO.P,C7,2*%
%TO.N,GND*%
X154178000Y-85090000D03*
%TD*%
D12*
%TO.P,Conn4,1*%
%TO.N,+3V3*%
X140081000Y-83312000D03*
%TO.P,Conn4,2*%
%TO.N,LIM_A*%
X140081000Y-80772000D03*
%TD*%
%TO.P,Conn1,1*%
%TO.N,CANH*%
X166751000Y-86868000D03*
%TO.P,Conn1,2*%
%TO.N,CANL*%
X166751000Y-84328000D03*
%TD*%
D10*
%TO.P,Conn6,1,GND*%
%TO.N,/OUTA*%
X156391954Y-60117315D03*
%TO.P,Conn6,2,V+Log*%
%TO.N,/OUTB*%
X148491954Y-60117315D03*
%TD*%
D12*
%TO.P,Conn2,1*%
%TO.N,CANH*%
X166751000Y-95631000D03*
%TO.P,Conn2,2*%
%TO.N,CANL*%
X166751000Y-93091000D03*
%TD*%
%TO.P,Conn5,1*%
%TO.N,+3V3*%
X140081000Y-91694000D03*
%TO.P,Conn5,2*%
%TO.N,LIM_B*%
X140081000Y-89154000D03*
%TD*%
D13*
%TO.P,J2,1,Pin_1*%
%TO.N,+5V*%
X163068000Y-67945000D03*
D14*
%TO.P,J2,2,Pin_2*%
%TO.N,GND*%
X163068000Y-70485000D03*
%TO.P,J2,3,Pin_3*%
%TO.N,+12V*%
X163068000Y-73025000D03*
%TO.P,J2,4,Pin_4*%
%TO.N,GND*%
X163068000Y-75565000D03*
%TO.P,J2,5,Pin_5*%
%TO.N,+3V3*%
X163068000Y-78105000D03*
%TD*%
D13*
%TO.P,J1,1,Pin_1*%
%TO.N,+3V3*%
X166624000Y-67945000D03*
D14*
%TO.P,J1,2,Pin_2*%
%TO.N,SWCLK*%
X166624000Y-70485000D03*
%TO.P,J1,3,Pin_3*%
%TO.N,SWDIO*%
X166624000Y-73025000D03*
%TO.P,J1,4,Pin_4*%
%TO.N,GND*%
X166624000Y-75565000D03*
%TD*%
D12*
%TO.P,Conn3,1*%
%TO.N,+3V3*%
X140081000Y-74930000D03*
%TO.P,Conn3,2*%
%TO.N,ENC_A{slash}PWM*%
X140081000Y-72390000D03*
%TO.P,Conn3,3*%
%TO.N,ENC_B*%
X140081000Y-69850000D03*
%TO.P,Conn3,4*%
%TO.N,GND*%
X140081000Y-67310000D03*
%TD*%
D15*
%TO.P,R10,1*%
%TO.N,LED_STATUS*%
X143063000Y-99949000D03*
%TO.P,R10,2*%
%TO.N,Net-(D1-A)*%
X141238000Y-99949000D03*
%TD*%
D16*
%TO.P,U3,1,TXD*%
%TO.N,CAN_TX*%
X158053000Y-99695000D03*
%TO.P,U3,2,GND*%
%TO.N,GND*%
X158053000Y-98425000D03*
%TO.P,U3,3,VCC*%
%TO.N,+5V*%
X158053000Y-97155000D03*
%TO.P,U3,4,RXD*%
%TO.N,CAN_RX*%
X158053000Y-95885000D03*
%TO.P,U3,5,VIO*%
%TO.N,+3V3*%
X163003000Y-95885000D03*
%TO.P,U3,6,CANL*%
%TO.N,CANL*%
X163003000Y-97155000D03*
%TO.P,U3,7,CANH*%
%TO.N,CANH*%
X163003000Y-98425000D03*
%TO.P,U3,8,STBY*%
%TO.N,GND*%
X163003000Y-99695000D03*
%TD*%
D17*
%TO.P,U1,1,PB8*%
%TO.N,GND*%
X149664500Y-104398000D03*
%TO.P,U1,2,PF0*%
%TO.N,LED_STATUS*%
X149664500Y-103748000D03*
%TO.P,U1,3,PF1*%
%TO.N,DIAG_A*%
X149664500Y-103098000D03*
%TO.P,U1,4,NRST*%
%TO.N,unconnected-(U1-NRST-Pad4)*%
X149664500Y-102448000D03*
%TO.P,U1,5,VDDA*%
%TO.N,+3V3*%
X149664500Y-101798000D03*
%TO.P,U1,6,PA0*%
%TO.N,CS*%
X149664500Y-101148000D03*
%TO.P,U1,7,PA1*%
%TO.N,ENC_B*%
X149664500Y-100498000D03*
%TO.P,U1,8,PA2*%
%TO.N,LIM_A*%
X149664500Y-99848000D03*
%TO.P,U1,9,PA3*%
%TO.N,LIM_B*%
X149664500Y-99198000D03*
%TO.P,U1,10,PA4*%
%TO.N,PWM*%
X149664500Y-98548000D03*
%TO.P,U1,11,PA5*%
%TO.N,ENC_A{slash}PWM*%
X155389500Y-98548000D03*
%TO.P,U1,12,PA6*%
%TO.N,unconnected-(U1-PA6-Pad12)*%
X155389500Y-99198000D03*
%TO.P,U1,13,PA7*%
%TO.N,IN_B*%
X155389500Y-99848000D03*
%TO.P,U1,14,PB1*%
%TO.N,IN_A*%
X155389500Y-100498000D03*
%TO.P,U1,15,VSSA*%
%TO.N,GND*%
X155389500Y-101148000D03*
%TO.P,U1,16,VDD*%
%TO.N,+3V3*%
X155389500Y-101798000D03*
%TO.P,U1,17,PA9/PA11*%
%TO.N,CAN_RX*%
X155389500Y-102448000D03*
%TO.P,U1,18,PA10/PA12*%
%TO.N,CAN_TX*%
X155389500Y-103098000D03*
%TO.P,U1,19,PA13*%
%TO.N,SWDIO*%
X155389500Y-103748000D03*
%TO.P,U1,20,PA14*%
%TO.N,SWCLK*%
X155389500Y-104398000D03*
%TD*%
D18*
%TO.P,C9,1*%
%TO.N,+5V*%
X160655000Y-93726000D03*
%TO.P,C9,2*%
%TO.N,GND*%
X160655000Y-92001000D03*
%TD*%
D19*
%TO.P,C8,1*%
%TO.N,GND*%
X163449000Y-92001000D03*
%TO.P,C8,2*%
%TO.N,+3V3*%
X163449000Y-93726000D03*
%TD*%
D15*
%TO.P,R11,1*%
%TO.N,IN_B*%
X143063000Y-97917000D03*
%TO.P,R11,2*%
%TO.N,Net-(D2-A)*%
X141238000Y-97917000D03*
%TD*%
D20*
%TO.P,U2,1,OUTA*%
%TO.N,/OUTA*%
X159400000Y-82656000D03*
%TO.P,U2,2,NC*%
%TO.N,unconnected-(U2-NC-Pad2)*%
X158400000Y-82656000D03*
%TO.P,U2,3,VCC*%
%TO.N,+12V*%
X157400000Y-82656000D03*
%TO.P,U2,4,INA*%
%TO.N,Net-(U2-INA)*%
X156400000Y-82656000D03*
%TO.P,U2,5,EN/DIAGA*%
%TO.N,Net-(U2-EN{slash}DIAGA)*%
X155400000Y-82656000D03*
%TO.P,U2,6,CS_DIS*%
%TO.N,GND*%
X154400000Y-82656000D03*
%TO.P,U2,7,PWM*%
%TO.N,Net-(U2-PWM)*%
X153400000Y-82656000D03*
%TO.P,U2,8,CS*%
%TO.N,Net-(U2-CS)*%
X152400000Y-82656000D03*
%TO.P,U2,9,EN/DIAGB*%
%TO.N,Net-(U2-EN{slash}DIAGB)*%
X151400000Y-82656000D03*
%TO.P,U2,10,INB*%
%TO.N,Net-(U2-INB)*%
X150400000Y-82656000D03*
%TO.P,U2,11,CP*%
%TO.N,unconnected-(U2-CP-Pad11)*%
X149400000Y-82656000D03*
%TO.P,U2,12,VBAT*%
%TO.N,+12V*%
X148400000Y-82656000D03*
%TO.P,U2,13,VCC*%
X147400000Y-82656000D03*
%TO.P,U2,14,NC*%
%TO.N,unconnected-(U2-NC-Pad14)*%
X146400000Y-82656000D03*
%TO.P,U2,15,OUTB*%
%TO.N,/OUTB*%
X145400000Y-82656000D03*
%TO.P,U2,16,OUTB*%
X145400000Y-64406000D03*
%TO.P,U2,17,NC*%
%TO.N,unconnected-(U2-NC-Pad17)*%
X146400000Y-64406000D03*
%TO.P,U2,18,GNDB*%
%TO.N,GND*%
X147400000Y-64406000D03*
%TO.P,U2,19,GNDB*%
X148400000Y-64406000D03*
%TO.P,U2,20,GNDB*%
X149400000Y-64406000D03*
%TO.P,U2,21,OUTB*%
%TO.N,/OUTB*%
X150400000Y-64406000D03*
%TO.P,U2,22,NC*%
%TO.N,unconnected-(U2-NC-Pad22)*%
X151400000Y-64406000D03*
%TO.P,U2,23,VCC*%
%TO.N,+12V*%
X152400000Y-64406000D03*
%TO.P,U2,24,NC*%
%TO.N,unconnected-(U2-NC-Pad24)*%
X153400000Y-64406000D03*
%TO.P,U2,25,OUTA*%
%TO.N,/OUTA*%
X154400000Y-64406000D03*
%TO.P,U2,26,GNDA*%
%TO.N,GND*%
X155400000Y-64406000D03*
%TO.P,U2,27,GNDA*%
X156400000Y-64406000D03*
%TO.P,U2,28,GNDA*%
X157400000Y-64406000D03*
%TO.P,U2,29,NC*%
%TO.N,unconnected-(U2-NC-Pad29)*%
X158400000Y-64406000D03*
%TO.P,U2,30,OUTA*%
%TO.N,/OUTA*%
X159400000Y-64406000D03*
D21*
%TO.P,U2,31,VCC*%
%TO.N,+12V*%
X152400000Y-76581000D03*
D22*
%TO.P,U2,32,OUTB*%
%TO.N,/OUTB*%
X148235000Y-70481000D03*
%TO.P,U2,33,OUTA*%
%TO.N,/OUTA*%
X156565000Y-70481000D03*
%TD*%
D15*
%TO.P,R12,1*%
%TO.N,IN_A*%
X143063000Y-95885000D03*
%TO.P,R12,2*%
%TO.N,Net-(D3-A)*%
X141238000Y-95885000D03*
%TD*%
%TO.P,R9,1*%
%TO.N,CANH*%
X167640000Y-90043000D03*
%TO.P,R9,2*%
%TO.N,CANL*%
X165815000Y-90043000D03*
%TD*%
D23*
%TO.N,CS*%
X152775261Y-100141425D03*
D24*
%TO.N,GND*%
X152908000Y-102616000D03*
D23*
X158053000Y-98425000D03*
X139460000Y-97917000D03*
D24*
X167513000Y-97536000D03*
X152908000Y-104648000D03*
X152908000Y-107061000D03*
X159766000Y-94996000D03*
D23*
X163449000Y-92001000D03*
D24*
X165354000Y-99187000D03*
D23*
%TO.N,+3V3*%
X165066541Y-92214167D03*
X148774780Y-101798001D03*
X156279220Y-101798001D03*
D24*
%TO.N,+12V*%
X152400000Y-64897000D03*
X150622000Y-80645000D03*
X152400000Y-68453000D03*
X154051000Y-80645000D03*
X148463000Y-81026000D03*
X156464000Y-80899000D03*
D23*
%TO.N,Net-(U2-EN{slash}DIAGA)*%
X155400000Y-82656000D03*
%TO.N,Net-(U2-EN{slash}DIAGB)*%
X151400000Y-82656000D03*
%TO.N,Net-(U2-CS)*%
X152400000Y-82656000D03*
%TO.N,Net-(U2-INA)*%
X155194000Y-83947000D03*
%TO.N,Net-(D1-A)*%
X141210000Y-99949000D03*
%TO.N,IN_A*%
X146843201Y-98774799D03*
X151638000Y-98321500D03*
%TO.N,Net-(D2-A)*%
X141238000Y-97917000D03*
%TO.N,DIAG_A*%
X153497212Y-100493450D03*
%TO.N,Net-(D3-A)*%
X141238000Y-95885000D03*
%TO.N,IN_B*%
X146612934Y-99582201D03*
X153670000Y-98288500D03*
%TO.N,Net-(U2-INB)*%
X150400000Y-82656000D03*
X153670000Y-95504000D03*
X152146000Y-94107000D03*
%TO.N,Net-(U2-PWM)*%
X152527000Y-83834202D03*
%TO.N,PWM*%
X149664500Y-98494801D03*
D24*
%TO.N,/OUTB*%
X145415000Y-77343000D03*
X145415000Y-75819000D03*
X146304000Y-66675000D03*
X148209000Y-66675000D03*
X150241000Y-66675000D03*
%TO.N,/OUTA*%
X159385000Y-74295000D03*
X159385000Y-79248000D03*
X154813000Y-66675000D03*
X156718000Y-66675000D03*
X159385000Y-77724000D03*
X158750000Y-66675000D03*
%TD*%
D25*
%TO.N,CS*%
X152775261Y-100141425D02*
X151768686Y-101148000D01*
X151768686Y-101148000D02*
X149664500Y-101148000D01*
D26*
%TO.N,GND*%
X157400000Y-64406000D02*
X157400000Y-63359600D01*
X147400000Y-64406000D02*
X147400000Y-63096000D01*
X147296000Y-62992000D02*
X143764000Y-62992000D01*
X147400000Y-63096000D02*
X147296000Y-62992000D01*
X160746300Y-63210300D02*
X160782000Y-63246000D01*
X157400000Y-63359600D02*
X157549300Y-63210300D01*
X157549300Y-63210300D02*
X160746300Y-63210300D01*
D25*
%TO.N,+3V3*%
X156279220Y-101798001D02*
X156279219Y-101798000D01*
X163554708Y-93726000D02*
X165066541Y-92214167D01*
X149664500Y-101798000D02*
X148774781Y-101798000D01*
X163003000Y-95885000D02*
X163449000Y-95439000D01*
X148774781Y-101798000D02*
X148774780Y-101798001D01*
X156279219Y-101798000D02*
X155389500Y-101798000D01*
X163449000Y-95439000D02*
X163449000Y-93726000D01*
%TO.N,+5V*%
X165443800Y-70320800D02*
X165443800Y-73622800D01*
X160655000Y-93726000D02*
X160655000Y-95281582D01*
X167804200Y-75076145D02*
X167804200Y-80330644D01*
X161518600Y-86616244D02*
X161518600Y-94417982D01*
X165443800Y-73622800D02*
X166205800Y-74384800D01*
X167112855Y-74384800D02*
X167804200Y-75076145D01*
X166205800Y-74384800D02*
X167112855Y-74384800D01*
X160655000Y-95281582D02*
X160607291Y-95329291D01*
X167804200Y-80330644D02*
X161518600Y-86616244D01*
X163068000Y-67945000D02*
X165443800Y-70320800D01*
X161518600Y-94417982D02*
X160607291Y-95329291D01*
X160607291Y-95329291D02*
X158781582Y-97155000D01*
D26*
%TO.N,+12V*%
X160909000Y-83193400D02*
X160909000Y-75184000D01*
X157615400Y-86487000D02*
X160909000Y-83193400D01*
X160909000Y-75184000D02*
X163068000Y-73025000D01*
X157615400Y-86487000D02*
X151765000Y-86487000D01*
D25*
%TO.N,Net-(U2-INA)*%
X155774400Y-83947000D02*
X156396981Y-83324419D01*
X156396981Y-83324419D02*
X156396981Y-82659019D01*
X155194000Y-83947000D02*
X155774400Y-83947000D01*
%TO.N,SWCLK*%
X168791000Y-80637000D02*
X168791000Y-72652000D01*
X156510193Y-104398000D02*
X161697800Y-99210393D01*
X161697800Y-99210393D02*
X161697800Y-95531938D01*
X162433000Y-86995000D02*
X168791000Y-80637000D01*
X168791000Y-72652000D02*
X166624000Y-70485000D01*
X161697800Y-95531938D02*
X162433000Y-94796738D01*
X162433000Y-94796738D02*
X162433000Y-86995000D01*
X155389500Y-104398000D02*
X156510193Y-104398000D01*
%TO.N,SWDIO*%
X161000600Y-96506000D02*
X160680123Y-96506000D01*
X161240600Y-95342560D02*
X161240600Y-96266000D01*
X161975800Y-86805622D02*
X161975800Y-94607360D01*
X159875546Y-99254022D02*
X159790693Y-99338874D01*
X168333800Y-74734800D02*
X168333800Y-80447622D01*
X156513615Y-103748000D02*
X159932452Y-100329162D01*
X161975800Y-94607360D02*
X161240600Y-95342560D01*
X160440123Y-96746000D02*
X160440123Y-96866000D01*
X166624000Y-73025000D02*
X168333800Y-74734800D01*
X160680123Y-97106000D02*
X161000600Y-97106000D01*
X161240600Y-97346000D02*
X161240600Y-97466000D01*
X168333800Y-80447622D02*
X161975800Y-86805622D01*
X160441569Y-99480634D02*
X160214957Y-99254022D01*
X161240600Y-98666000D02*
X161240600Y-99021015D01*
X160680123Y-98306000D02*
X161000600Y-98306000D01*
X160017304Y-100244308D02*
X159932452Y-100329162D01*
X156513615Y-103748000D02*
X155389500Y-103748000D01*
X161000600Y-97706000D02*
X160680123Y-97706000D01*
X161240600Y-98546000D02*
X161240600Y-98666000D01*
X159790693Y-99678286D02*
X160017304Y-99904897D01*
X161240600Y-99021015D02*
X160780981Y-99480634D01*
X160440123Y-97946000D02*
X160440123Y-98066000D01*
X159790693Y-99338874D02*
G75*
G03*
X159790673Y-99678306I169707J-169726D01*
G01*
X160214957Y-99254022D02*
G75*
G03*
X159875547Y-99254022I-169705J-169703D01*
G01*
X161240600Y-97466000D02*
G75*
G02*
X161000600Y-97706000I-240000J0D01*
G01*
X160440123Y-96866000D02*
G75*
G03*
X160680123Y-97105977I239977J0D01*
G01*
X161000600Y-97106000D02*
G75*
G02*
X161240600Y-97346000I0J-240000D01*
G01*
X160680123Y-96506000D02*
G75*
G03*
X160440100Y-96746000I-23J-240000D01*
G01*
X160440123Y-98066000D02*
G75*
G03*
X160680123Y-98305977I239977J0D01*
G01*
X160017304Y-99904897D02*
G75*
G02*
X160017302Y-100244305I-169704J-169703D01*
G01*
X160680123Y-97706000D02*
G75*
G03*
X160440100Y-97946000I-23J-240000D01*
G01*
X160780981Y-99480634D02*
G75*
G02*
X160441569Y-99480634I-169706J169704D01*
G01*
X161240600Y-96266000D02*
G75*
G02*
X161000600Y-96506000I-240000J0D01*
G01*
X161000600Y-98306000D02*
G75*
G02*
X161240600Y-98546000I0J-240000D01*
G01*
%TO.N,CANH*%
X167843200Y-94538800D02*
X167843200Y-87960200D01*
X166751000Y-95631000D02*
X163957000Y-98425000D01*
X167843200Y-87960200D02*
X166751000Y-86868000D01*
X166751000Y-95631000D02*
X167843200Y-94538800D01*
X163957000Y-98425000D02*
X163003000Y-98425000D01*
%TO.N,CANL*%
X165658800Y-91998800D02*
X165658800Y-85420200D01*
X163391262Y-97155000D02*
X166751000Y-93795262D01*
X166751000Y-93795262D02*
X166751000Y-93091000D01*
X165658800Y-85420200D02*
X166751000Y-84328000D01*
X166751000Y-93091000D02*
X165658800Y-91998800D01*
%TO.N,ENC_B*%
X141173200Y-92151200D02*
X148139601Y-99117601D01*
X140081000Y-69850000D02*
X138938000Y-70993000D01*
X138938000Y-70993000D02*
X138938000Y-89682605D01*
X139692095Y-90436700D02*
X140368305Y-90436700D01*
X141173200Y-91241595D02*
X141173200Y-92151200D01*
X148965834Y-100498000D02*
X149664500Y-100498000D01*
X148139601Y-99117601D02*
X148139601Y-99671767D01*
X140368305Y-90436700D02*
X141173200Y-91241595D01*
X138938000Y-89682605D02*
X139692095Y-90436700D01*
X148139601Y-99671767D02*
X148965834Y-100498000D01*
%TO.N,ENC_A{slash}PWM*%
X153107500Y-96266000D02*
X155389500Y-98548000D01*
X141681200Y-89809861D02*
X142544800Y-90673461D01*
X142544800Y-91583066D02*
X147227734Y-96266000D01*
X141681200Y-73990200D02*
X141681200Y-89809861D01*
X140081000Y-72390000D02*
X141681200Y-73990200D01*
X142544800Y-90673461D02*
X142544800Y-91583066D01*
X147227734Y-96266000D02*
X153107500Y-96266000D01*
%TO.N,LIM_A*%
X148105156Y-97790000D02*
X150255166Y-97790000D01*
X150749000Y-98283834D02*
X150749000Y-99500999D01*
X141224000Y-81915000D02*
X141224000Y-89999239D01*
X140081000Y-80772000D02*
X141224000Y-81915000D01*
X150749000Y-99500999D02*
X150401999Y-99848000D01*
X142087600Y-90862839D02*
X142087600Y-91772444D01*
X150401999Y-99848000D02*
X149664500Y-99848000D01*
X150255166Y-97790000D02*
X150749000Y-98283834D01*
X142087600Y-91772444D02*
X148105156Y-97790000D01*
X141224000Y-89999239D02*
X142087600Y-90862839D01*
%TO.N,LIM_B*%
X148866578Y-99198000D02*
X149664500Y-99198000D01*
X141630400Y-91961822D02*
X148866578Y-99198000D01*
X140081000Y-89502817D02*
X141630400Y-91052217D01*
X141630400Y-91052217D02*
X141630400Y-91961822D01*
%TO.N,IN_A*%
X143953401Y-95885000D02*
X143063000Y-95885000D01*
X146843200Y-98774799D02*
X143953401Y-95885000D01*
X152216500Y-98321500D02*
X154393000Y-100498000D01*
X146843201Y-98774799D02*
X146843200Y-98774799D01*
X154393000Y-100498000D02*
X155389500Y-100498000D01*
X151638000Y-98321500D02*
X152216500Y-98321500D01*
%TO.N,DIAG_A*%
X153497212Y-100493450D02*
X150892662Y-103098000D01*
X150892662Y-103098000D02*
X149664500Y-103098000D01*
%TO.N,IN_B*%
X153670000Y-98865999D02*
X154652001Y-99848000D01*
X146612934Y-99582201D02*
X144947733Y-97917000D01*
X154652001Y-99848000D02*
X155389500Y-99848000D01*
X153670000Y-98288500D02*
X153670000Y-98865999D01*
X144947733Y-97917000D02*
X143063000Y-97917000D01*
%TO.N,LED_STATUS*%
X144272000Y-99949000D02*
X148071000Y-103748000D01*
X143063000Y-99949000D02*
X144272000Y-99949000D01*
X148071000Y-103748000D02*
X149664500Y-103748000D01*
%TO.N,Net-(U2-INB)*%
X152146000Y-94107000D02*
X152273000Y-94107000D01*
X152273000Y-94107000D02*
X153670000Y-95504000D01*
%TO.N,Net-(U2-PWM)*%
X153400000Y-83321400D02*
X153400000Y-82656000D01*
X153060200Y-83661200D02*
X153400000Y-83321400D01*
X152527000Y-83834202D02*
X152700002Y-83661200D01*
X152700002Y-83661200D02*
X153060200Y-83661200D01*
%TO.N,CAN_TX*%
X156517037Y-103098000D02*
X158053000Y-101562037D01*
X158053000Y-101562037D02*
X158053000Y-99695000D01*
X155389500Y-103098000D02*
X156517037Y-103098000D01*
%TO.N,CAN_RX*%
X156747800Y-100048062D02*
X156747800Y-96215201D01*
X155425700Y-102484200D02*
X156484259Y-102484200D01*
X157099000Y-101869459D02*
X157099000Y-100399262D01*
X156747800Y-96215201D02*
X157078001Y-95885000D01*
X157099000Y-100399262D02*
X156747800Y-100048062D01*
X156484259Y-102484200D02*
X157099000Y-101869459D01*
X157078001Y-95885000D02*
X158053000Y-95885000D01*
%TD*%
%TA.AperFunction,Conductor*%
%TO.N,GND*%
G36*
X163201623Y-56781502D02*
G01*
X163248116Y-56835158D01*
X163258220Y-56905432D01*
X163228726Y-56970012D01*
X163192899Y-56998622D01*
X163155639Y-57018537D01*
X162831021Y-57235440D01*
X162831006Y-57235451D01*
X162529214Y-57483126D01*
X162529194Y-57483144D01*
X162253144Y-57759194D01*
X162253126Y-57759214D01*
X162005451Y-58061006D01*
X162005440Y-58061021D01*
X161788535Y-58385643D01*
X161604486Y-58729974D01*
X161455073Y-59090687D01*
X161455072Y-59090690D01*
X161341734Y-59464318D01*
X161265570Y-59847228D01*
X161265567Y-59847248D01*
X161227300Y-60235778D01*
X161227300Y-60626221D01*
X161265567Y-61014751D01*
X161265570Y-61014771D01*
X161341734Y-61397681D01*
X161455072Y-61771309D01*
X161455073Y-61771312D01*
X161604486Y-62132025D01*
X161788535Y-62476356D01*
X162005440Y-62800978D01*
X162005451Y-62800993D01*
X162253126Y-63102785D01*
X162253144Y-63102805D01*
X162529194Y-63378855D01*
X162529214Y-63378873D01*
X162816731Y-63614833D01*
X162831015Y-63626555D01*
X163155646Y-63843466D01*
X163499975Y-64027514D01*
X163860686Y-64176926D01*
X164234305Y-64290262D01*
X164234314Y-64290263D01*
X164234318Y-64290265D01*
X164364230Y-64316105D01*
X164617234Y-64366431D01*
X165005785Y-64404700D01*
X165005794Y-64404700D01*
X165396206Y-64404700D01*
X165396215Y-64404700D01*
X165784766Y-64366431D01*
X166100163Y-64303694D01*
X166167681Y-64290265D01*
X166167683Y-64290264D01*
X166167695Y-64290262D01*
X166541314Y-64176926D01*
X166902025Y-64027514D01*
X167246354Y-63843466D01*
X167570985Y-63626555D01*
X167872792Y-63378868D01*
X168148868Y-63102792D01*
X168396555Y-62800985D01*
X168613466Y-62476354D01*
X168680378Y-62351169D01*
X168730130Y-62300522D01*
X168799366Y-62284812D01*
X168866106Y-62309028D01*
X168909158Y-62365481D01*
X168917500Y-62410566D01*
X168917500Y-72006630D01*
X168897498Y-72074751D01*
X168843842Y-72121244D01*
X168773568Y-72131348D01*
X168708988Y-72101854D01*
X168702405Y-72095725D01*
X167630881Y-71024201D01*
X167596855Y-70961889D01*
X167601535Y-70896451D01*
X167600405Y-70896109D01*
X167601916Y-70891127D01*
X167601920Y-70891074D01*
X167601973Y-70890937D01*
X167602200Y-70890186D01*
X167602202Y-70890184D01*
X167662453Y-70691561D01*
X167665874Y-70656835D01*
X167682798Y-70485002D01*
X167682798Y-70484997D01*
X167662454Y-70278445D01*
X167662453Y-70278443D01*
X167662453Y-70278439D01*
X167602202Y-70079816D01*
X167504358Y-69896763D01*
X167372683Y-69736317D01*
X167212237Y-69604642D01*
X167029184Y-69506798D01*
X166830561Y-69446547D01*
X166830560Y-69446546D01*
X166830554Y-69446545D01*
X166624003Y-69426202D01*
X166623997Y-69426202D01*
X166417445Y-69446545D01*
X166218815Y-69506798D01*
X166035762Y-69604642D01*
X165875317Y-69736317D01*
X165743642Y-69896762D01*
X165734486Y-69913892D01*
X165684733Y-69964539D01*
X165615496Y-69980248D01*
X165548757Y-69956031D01*
X165534270Y-69943589D01*
X164158605Y-68567924D01*
X164124579Y-68505612D01*
X164121700Y-68478829D01*
X164121700Y-67074940D01*
X164121700Y-67074936D01*
X164121700Y-67074935D01*
X165570300Y-67074935D01*
X165570300Y-68815064D01*
X165582118Y-68874479D01*
X165582119Y-68874480D01*
X165627140Y-68941860D01*
X165694520Y-68986881D01*
X165753936Y-68998700D01*
X165753941Y-68998700D01*
X167494059Y-68998700D01*
X167494064Y-68998700D01*
X167553480Y-68986881D01*
X167620860Y-68941860D01*
X167665881Y-68874480D01*
X167677700Y-68815064D01*
X167677700Y-67074936D01*
X167665881Y-67015520D01*
X167620860Y-66948140D01*
X167553480Y-66903119D01*
X167553479Y-66903118D01*
X167494064Y-66891300D01*
X165753936Y-66891300D01*
X165753935Y-66891300D01*
X165694520Y-66903118D01*
X165627140Y-66948140D01*
X165582118Y-67015520D01*
X165570300Y-67074935D01*
X164121700Y-67074935D01*
X164109881Y-67015520D01*
X164064860Y-66948140D01*
X163997480Y-66903119D01*
X163997479Y-66903118D01*
X163938064Y-66891300D01*
X162197936Y-66891300D01*
X162197935Y-66891300D01*
X162138520Y-66903118D01*
X162071140Y-66948140D01*
X162026118Y-67015520D01*
X162014300Y-67074935D01*
X162014300Y-68815064D01*
X162026118Y-68874479D01*
X162026119Y-68874480D01*
X162071140Y-68941860D01*
X162138520Y-68986881D01*
X162197936Y-68998700D01*
X163601830Y-68998700D01*
X163669951Y-69018702D01*
X163690925Y-69035605D01*
X165076195Y-70420875D01*
X165110221Y-70483187D01*
X165113100Y-70509970D01*
X165113100Y-73666337D01*
X165135635Y-73750442D01*
X165135638Y-73750450D01*
X165179172Y-73825854D01*
X165247920Y-73894602D01*
X165247934Y-73894614D01*
X165936763Y-74583443D01*
X165936784Y-74583466D01*
X166002745Y-74649427D01*
X166055750Y-74680029D01*
X166078154Y-74692964D01*
X166098136Y-74698318D01*
X166098138Y-74698319D01*
X166098139Y-74698319D01*
X166130201Y-74706910D01*
X166162263Y-74715501D01*
X166162264Y-74715501D01*
X166257055Y-74715501D01*
X166257071Y-74715500D01*
X166923685Y-74715500D01*
X166991806Y-74735502D01*
X167012780Y-74752405D01*
X167436595Y-75176220D01*
X167470621Y-75238532D01*
X167473500Y-75265315D01*
X167473500Y-80141473D01*
X167453498Y-80209594D01*
X167436595Y-80230568D01*
X164387055Y-83280108D01*
X161315547Y-86351616D01*
X161315545Y-86351618D01*
X161284758Y-86382404D01*
X161253972Y-86413190D01*
X161210438Y-86488593D01*
X161210435Y-86488601D01*
X161187900Y-86572706D01*
X161187900Y-92884353D01*
X161167898Y-92952474D01*
X161114242Y-92998967D01*
X161043968Y-93009071D01*
X161020286Y-93003283D01*
X160975451Y-92987595D01*
X160975452Y-92987595D01*
X160965516Y-92986663D01*
X160945647Y-92984800D01*
X160945645Y-92984800D01*
X160364361Y-92984800D01*
X160364346Y-92984801D01*
X160340510Y-92987036D01*
X160334549Y-92987595D01*
X160334545Y-92987596D01*
X160334542Y-92987597D01*
X160209012Y-93031521D01*
X160209008Y-93031523D01*
X160101999Y-93110499D01*
X160023023Y-93217508D01*
X160023021Y-93217512D01*
X159979096Y-93343043D01*
X159979095Y-93343047D01*
X159976300Y-93372853D01*
X159976300Y-94079138D01*
X159976301Y-94079153D01*
X159978256Y-94100009D01*
X159979095Y-94108951D01*
X159979096Y-94108956D01*
X159979097Y-94108957D01*
X160023021Y-94234487D01*
X160023023Y-94234491D01*
X160101999Y-94341500D01*
X160209008Y-94420476D01*
X160209009Y-94420477D01*
X160209012Y-94420478D01*
X160239914Y-94431290D01*
X160297605Y-94472667D01*
X160323769Y-94538667D01*
X160324300Y-94550220D01*
X160324300Y-95092411D01*
X160304298Y-95160532D01*
X160287399Y-95181501D01*
X159860905Y-95607996D01*
X159446794Y-96022107D01*
X159384482Y-96056132D01*
X159313666Y-96051067D01*
X159256831Y-96008520D01*
X159232020Y-95942000D01*
X159231699Y-95933028D01*
X159231699Y-95701432D01*
X159221683Y-95632681D01*
X159169839Y-95526631D01*
X159169837Y-95526629D01*
X159169837Y-95526628D01*
X159086371Y-95443162D01*
X159077874Y-95439008D01*
X158980319Y-95391317D01*
X158911569Y-95381300D01*
X158911567Y-95381300D01*
X157194434Y-95381300D01*
X157125681Y-95391317D01*
X157019628Y-95443162D01*
X156936161Y-95526629D01*
X156936160Y-95526631D01*
X156912573Y-95574880D01*
X156880433Y-95614183D01*
X156880785Y-95614535D01*
X156877284Y-95618035D01*
X156876091Y-95619495D01*
X156874946Y-95620373D01*
X156705757Y-95789563D01*
X156544747Y-95950573D01*
X156544745Y-95950575D01*
X156528429Y-95966891D01*
X156483172Y-96012147D01*
X156439638Y-96087550D01*
X156439635Y-96087558D01*
X156417100Y-96171663D01*
X156417100Y-98104412D01*
X156397098Y-98172533D01*
X156343442Y-98219026D01*
X156273168Y-98229130D01*
X156208588Y-98199636D01*
X156202005Y-98193507D01*
X156201607Y-98193109D01*
X156201605Y-98193108D01*
X156097735Y-98147245D01*
X156097736Y-98147245D01*
X156072349Y-98144300D01*
X156072345Y-98144300D01*
X155505670Y-98144300D01*
X155437549Y-98124298D01*
X155416575Y-98107395D01*
X153531975Y-96222795D01*
X153497949Y-96160483D01*
X153503014Y-96089668D01*
X153545561Y-96032832D01*
X153612081Y-96008021D01*
X153621070Y-96007700D01*
X153742421Y-96007700D01*
X153881396Y-95966894D01*
X154003246Y-95888586D01*
X154098097Y-95779121D01*
X154158267Y-95647368D01*
X154178880Y-95504000D01*
X154158267Y-95360632D01*
X154098097Y-95228879D01*
X154003246Y-95119414D01*
X154003245Y-95119413D01*
X154003244Y-95119412D01*
X153881400Y-95041108D01*
X153881397Y-95041106D01*
X153881396Y-95041106D01*
X153742421Y-95000300D01*
X153686170Y-95000300D01*
X153618049Y-94980298D01*
X153597075Y-94963395D01*
X152670126Y-94036446D01*
X152636100Y-93974134D01*
X152634507Y-93965303D01*
X152634267Y-93963632D01*
X152574097Y-93831879D01*
X152479246Y-93722414D01*
X152479245Y-93722413D01*
X152479244Y-93722412D01*
X152357400Y-93644108D01*
X152357397Y-93644106D01*
X152357396Y-93644106D01*
X152357393Y-93644105D01*
X152218419Y-93603299D01*
X152209500Y-93602017D01*
X152209737Y-93600365D01*
X152151609Y-93583298D01*
X152105116Y-93529642D01*
X152095012Y-93459368D01*
X152095013Y-93459368D01*
X152100699Y-93419816D01*
X152100700Y-93419812D01*
X152100700Y-87134200D01*
X152120702Y-87066079D01*
X152174358Y-87019586D01*
X152226700Y-87008200D01*
X157684015Y-87008200D01*
X157684017Y-87008200D01*
X157816576Y-86972681D01*
X157861153Y-86946944D01*
X157935425Y-86904064D01*
X161326064Y-83513424D01*
X161374973Y-83428710D01*
X161394681Y-83394576D01*
X161430200Y-83262017D01*
X161430200Y-78104997D01*
X162009202Y-78104997D01*
X162009202Y-78105002D01*
X162029545Y-78311554D01*
X162029546Y-78311560D01*
X162029547Y-78311561D01*
X162089798Y-78510184D01*
X162187642Y-78693237D01*
X162319317Y-78853683D01*
X162479763Y-78985358D01*
X162662816Y-79083202D01*
X162861439Y-79143453D01*
X162861443Y-79143453D01*
X162861445Y-79143454D01*
X163067997Y-79163798D01*
X163068000Y-79163798D01*
X163068003Y-79163798D01*
X163274554Y-79143454D01*
X163274555Y-79143453D01*
X163274561Y-79143453D01*
X163473184Y-79083202D01*
X163656237Y-78985358D01*
X163816683Y-78853683D01*
X163948358Y-78693237D01*
X164046202Y-78510184D01*
X164106453Y-78311561D01*
X164126798Y-78105000D01*
X164106453Y-77898439D01*
X164046202Y-77699816D01*
X163948358Y-77516763D01*
X163816683Y-77356317D01*
X163656237Y-77224642D01*
X163473184Y-77126798D01*
X163274561Y-77066547D01*
X163274560Y-77066546D01*
X163274554Y-77066545D01*
X163068003Y-77046202D01*
X163067997Y-77046202D01*
X162861445Y-77066545D01*
X162662815Y-77126798D01*
X162479762Y-77224642D01*
X162319317Y-77356317D01*
X162187642Y-77516762D01*
X162089798Y-77699815D01*
X162029545Y-77898445D01*
X162009202Y-78104997D01*
X161430200Y-78104997D01*
X161430200Y-75452078D01*
X161450202Y-75383957D01*
X161467100Y-75362988D01*
X162735300Y-74094787D01*
X162797610Y-74060764D01*
X162855212Y-74063080D01*
X162855378Y-74062247D01*
X162860667Y-74063299D01*
X162860973Y-74063311D01*
X162861439Y-74063453D01*
X162861442Y-74063453D01*
X162861445Y-74063454D01*
X163067997Y-74083798D01*
X163068000Y-74083798D01*
X163068003Y-74083798D01*
X163274554Y-74063454D01*
X163274555Y-74063453D01*
X163274561Y-74063453D01*
X163473184Y-74003202D01*
X163656237Y-73905358D01*
X163816683Y-73773683D01*
X163948358Y-73613237D01*
X164046202Y-73430184D01*
X164106453Y-73231561D01*
X164109874Y-73196835D01*
X164126798Y-73025002D01*
X164126798Y-73024997D01*
X164106454Y-72818445D01*
X164106453Y-72818443D01*
X164106453Y-72818439D01*
X164046202Y-72619816D01*
X163948358Y-72436763D01*
X163816683Y-72276317D01*
X163656237Y-72144642D01*
X163473184Y-72046798D01*
X163274561Y-71986547D01*
X163274560Y-71986546D01*
X163274554Y-71986545D01*
X163068003Y-71966202D01*
X163067997Y-71966202D01*
X162861445Y-71986545D01*
X162662815Y-72046798D01*
X162479762Y-72144642D01*
X162319317Y-72276317D01*
X162187642Y-72436762D01*
X162089798Y-72619815D01*
X162029545Y-72818445D01*
X162009202Y-73024997D01*
X162009202Y-73025002D01*
X162029546Y-73231562D01*
X162029688Y-73232029D01*
X162029690Y-73232285D01*
X162030754Y-73237634D01*
X162029739Y-73237835D01*
X162030322Y-73303023D01*
X161998209Y-73357700D01*
X160697795Y-74658115D01*
X160635483Y-74692140D01*
X160564668Y-74687076D01*
X160507832Y-74644529D01*
X160483021Y-74578009D01*
X160482700Y-74569020D01*
X160482700Y-63857505D01*
X160482699Y-63857492D01*
X160481191Y-63843464D01*
X160477931Y-63813139D01*
X160466545Y-63760797D01*
X160464018Y-63750458D01*
X160420339Y-63668489D01*
X160373846Y-63614833D01*
X160373841Y-63614828D01*
X160373836Y-63614822D01*
X160355981Y-63596598D01*
X160355975Y-63596594D01*
X160274925Y-63551258D01*
X160274915Y-63551254D01*
X160206805Y-63531256D01*
X160206800Y-63531255D01*
X160206797Y-63531254D01*
X160206792Y-63531253D01*
X160206786Y-63531252D01*
X160148004Y-63522800D01*
X160148000Y-63522800D01*
X159059700Y-63522800D01*
X159059692Y-63522800D01*
X159015336Y-63527569D01*
X158962986Y-63538957D01*
X158952657Y-63541481D01*
X158952653Y-63541483D01*
X158941517Y-63547417D01*
X158871992Y-63561796D01*
X158812272Y-63540984D01*
X158809481Y-63539119D01*
X158809479Y-63539118D01*
X158750064Y-63527300D01*
X158049936Y-63527300D01*
X158049935Y-63527300D01*
X157990520Y-63539118D01*
X157923140Y-63584140D01*
X157878118Y-63651520D01*
X157866300Y-63710935D01*
X157866300Y-64936531D01*
X157846298Y-65004652D01*
X157792642Y-65051145D01*
X157777954Y-65056773D01*
X157767650Y-65059999D01*
X157767629Y-65060007D01*
X157759989Y-65063663D01*
X157705614Y-65076000D01*
X157094284Y-65076000D01*
X157042975Y-65065080D01*
X157031579Y-65059999D01*
X157021428Y-65055473D01*
X156960613Y-65038790D01*
X156952951Y-65036688D01*
X156927981Y-65031457D01*
X156927980Y-65031457D01*
X156861931Y-65036688D01*
X156835390Y-65038790D01*
X156767642Y-65060002D01*
X156767629Y-65060007D01*
X156759989Y-65063663D01*
X156705614Y-65076000D01*
X156094284Y-65076000D01*
X156042975Y-65065080D01*
X156031579Y-65059999D01*
X156021428Y-65055473D01*
X155960613Y-65038790D01*
X155952951Y-65036688D01*
X155927981Y-65031457D01*
X155927980Y-65031457D01*
X155861931Y-65036688D01*
X155835390Y-65038790D01*
X155767642Y-65060002D01*
X155767629Y-65060007D01*
X155759989Y-65063663D01*
X155705614Y-65076000D01*
X155201000Y-65076000D01*
X155132879Y-65055998D01*
X155086386Y-65002342D01*
X155075000Y-64950000D01*
X155075000Y-63862000D01*
X155095002Y-63793879D01*
X155148658Y-63747386D01*
X155201000Y-63736000D01*
X155705724Y-63736000D01*
X155757043Y-63746924D01*
X155778564Y-63756522D01*
X155847030Y-63775306D01*
X155872017Y-63780542D01*
X155964607Y-63773208D01*
X156032360Y-63751994D01*
X156039996Y-63748340D01*
X156094378Y-63736000D01*
X156752794Y-63736000D01*
X156752800Y-63736000D01*
X156797161Y-63731231D01*
X156849503Y-63719845D01*
X156859842Y-63717318D01*
X156941811Y-63673639D01*
X156995467Y-63627146D01*
X157013703Y-63609279D01*
X157029860Y-63580394D01*
X157059041Y-63528225D01*
X157059045Y-63528215D01*
X157063723Y-63512282D01*
X157079046Y-63460097D01*
X157087500Y-63401300D01*
X157087500Y-63335046D01*
X157091793Y-63302437D01*
X157104501Y-63255007D01*
X157117087Y-63224619D01*
X157141646Y-63182079D01*
X157161668Y-63155985D01*
X157345689Y-62971964D01*
X157371774Y-62951947D01*
X157412047Y-62928696D01*
X157412071Y-62928686D01*
X157414294Y-62927403D01*
X157426081Y-62922519D01*
X157437091Y-62917672D01*
X157437110Y-62917666D01*
X157437189Y-62917916D01*
X157444714Y-62914798D01*
X157483075Y-62904520D01*
X157483084Y-62904519D01*
X157492140Y-62902093D01*
X157524749Y-62897800D01*
X160147994Y-62897800D01*
X160148000Y-62897800D01*
X160192361Y-62893031D01*
X160244703Y-62881645D01*
X160255042Y-62879118D01*
X160337011Y-62835439D01*
X160390667Y-62788946D01*
X160408903Y-62771079D01*
X160429842Y-62733644D01*
X160454241Y-62690025D01*
X160454245Y-62690015D01*
X160459815Y-62671046D01*
X160474246Y-62621897D01*
X160482700Y-62563100D01*
X160482700Y-59996190D01*
X160481505Y-59973885D01*
X160478626Y-59947102D01*
X160454291Y-59869385D01*
X160454289Y-59869383D01*
X160454289Y-59869380D01*
X160420263Y-59807069D01*
X160384671Y-59759526D01*
X160384661Y-59759514D01*
X158680481Y-58055334D01*
X158663886Y-58040427D01*
X158663866Y-58040410D01*
X158663863Y-58040407D01*
X158642889Y-58023504D01*
X158642890Y-58023504D01*
X158642887Y-58023502D01*
X158570724Y-57985754D01*
X158502615Y-57965756D01*
X158502610Y-57965755D01*
X158502607Y-57965754D01*
X158502602Y-57965753D01*
X158502596Y-57965752D01*
X158443814Y-57957300D01*
X158443810Y-57957300D01*
X154484190Y-57957300D01*
X154484174Y-57957300D01*
X154461896Y-57958494D01*
X154461857Y-57958497D01*
X154435105Y-57961373D01*
X154435104Y-57961373D01*
X154357380Y-57985710D01*
X154295069Y-58019736D01*
X154247526Y-58055328D01*
X154247514Y-58055338D01*
X153305338Y-58997515D01*
X153305334Y-58997518D01*
X153290427Y-59014113D01*
X153290410Y-59014133D01*
X153273502Y-59035112D01*
X153235754Y-59107275D01*
X153215756Y-59175384D01*
X153215752Y-59175403D01*
X153207300Y-59234185D01*
X153207300Y-63278923D01*
X153187298Y-63347044D01*
X153133642Y-63393537D01*
X153063368Y-63403641D01*
X152998788Y-63374147D01*
X152988272Y-63363639D01*
X152988202Y-63363709D01*
X152988193Y-63363700D01*
X152988150Y-63363740D01*
X152986851Y-63362330D01*
X152968988Y-63344098D01*
X152968982Y-63344094D01*
X152887932Y-63298758D01*
X152887922Y-63298754D01*
X152819812Y-63278756D01*
X152819807Y-63278755D01*
X152819804Y-63278754D01*
X152819799Y-63278753D01*
X152819793Y-63278752D01*
X152761011Y-63270300D01*
X152761007Y-63270300D01*
X152038993Y-63270300D01*
X152038992Y-63270300D01*
X152012983Y-63271926D01*
X151981814Y-63275842D01*
X151901329Y-63303433D01*
X151868047Y-63323182D01*
X151848053Y-63335046D01*
X151840270Y-63339664D01*
X151819154Y-63354009D01*
X151819149Y-63354013D01*
X151815997Y-63357845D01*
X151757269Y-63397739D01*
X151686296Y-63399549D01*
X151625610Y-63362701D01*
X151594480Y-63298893D01*
X151592700Y-63277787D01*
X151592700Y-59234181D01*
X151592699Y-59234174D01*
X151591505Y-59211885D01*
X151588626Y-59185102D01*
X151564291Y-59107385D01*
X151564289Y-59107383D01*
X151564289Y-59107380D01*
X151530263Y-59045069D01*
X151494671Y-58997526D01*
X151494661Y-58997514D01*
X150552481Y-58055334D01*
X150535886Y-58040427D01*
X150535866Y-58040410D01*
X150535863Y-58040407D01*
X150514889Y-58023504D01*
X150514890Y-58023504D01*
X150514887Y-58023502D01*
X150442724Y-57985754D01*
X150374615Y-57965756D01*
X150374610Y-57965755D01*
X150374607Y-57965754D01*
X150374602Y-57965753D01*
X150374596Y-57965752D01*
X150315814Y-57957300D01*
X150315810Y-57957300D01*
X146356190Y-57957300D01*
X146356174Y-57957300D01*
X146333896Y-57958494D01*
X146333857Y-57958497D01*
X146307105Y-57961373D01*
X146307104Y-57961373D01*
X146229380Y-57985710D01*
X146167069Y-58019736D01*
X146119526Y-58055328D01*
X146119514Y-58055338D01*
X144415338Y-59759515D01*
X144415334Y-59759518D01*
X144400427Y-59776113D01*
X144400410Y-59776133D01*
X144383502Y-59797112D01*
X144345754Y-59869275D01*
X144325756Y-59937384D01*
X144325752Y-59937403D01*
X144317300Y-59996185D01*
X144317300Y-62344807D01*
X144322069Y-62389163D01*
X144333457Y-62441513D01*
X144335981Y-62451840D01*
X144335981Y-62451841D01*
X144335982Y-62451842D01*
X144379661Y-62533811D01*
X144405043Y-62563104D01*
X144426163Y-62587477D01*
X144444018Y-62605701D01*
X144444024Y-62605705D01*
X144525074Y-62651041D01*
X144525084Y-62651045D01*
X144561587Y-62661762D01*
X144593203Y-62671046D01*
X144651996Y-62679499D01*
X144651998Y-62679500D01*
X144652000Y-62679500D01*
X147320552Y-62679500D01*
X147353161Y-62683792D01*
X147398974Y-62696068D01*
X147398978Y-62696069D01*
X147398977Y-62696069D01*
X147399656Y-62696250D01*
X147400540Y-62696487D01*
X147430980Y-62709088D01*
X147473514Y-62733644D01*
X147499610Y-62753668D01*
X147638333Y-62892392D01*
X147658356Y-62918487D01*
X147682908Y-62961012D01*
X147695496Y-62991401D01*
X147708207Y-63038839D01*
X147712500Y-63071450D01*
X147712500Y-63401300D01*
X147717269Y-63445663D01*
X147728657Y-63498013D01*
X147731181Y-63508340D01*
X147731181Y-63508341D01*
X147731182Y-63508342D01*
X147774861Y-63590311D01*
X147817223Y-63639200D01*
X147821363Y-63643977D01*
X147839218Y-63662201D01*
X147839224Y-63662205D01*
X147920274Y-63707541D01*
X147920284Y-63707545D01*
X147953569Y-63717318D01*
X147988403Y-63727546D01*
X148047196Y-63735999D01*
X148047198Y-63736000D01*
X148047200Y-63736000D01*
X148705724Y-63736000D01*
X148757043Y-63746924D01*
X148778564Y-63756522D01*
X148847030Y-63775306D01*
X148872017Y-63780542D01*
X148964607Y-63773208D01*
X149032360Y-63751994D01*
X149039996Y-63748340D01*
X149094378Y-63736000D01*
X149599000Y-63736000D01*
X149667121Y-63756002D01*
X149713614Y-63809658D01*
X149725000Y-63862000D01*
X149725000Y-64950000D01*
X149704998Y-65018121D01*
X149651342Y-65064614D01*
X149599000Y-65076000D01*
X149094284Y-65076000D01*
X149042975Y-65065080D01*
X149031579Y-65059999D01*
X149021428Y-65055473D01*
X148960613Y-65038790D01*
X148952951Y-65036688D01*
X148927981Y-65031457D01*
X148927980Y-65031457D01*
X148861931Y-65036688D01*
X148835390Y-65038790D01*
X148767642Y-65060002D01*
X148767629Y-65060007D01*
X148759989Y-65063663D01*
X148705614Y-65076000D01*
X148094284Y-65076000D01*
X148042975Y-65065080D01*
X148031579Y-65059999D01*
X148021428Y-65055473D01*
X147960613Y-65038790D01*
X147952951Y-65036688D01*
X147927981Y-65031457D01*
X147927980Y-65031457D01*
X147861931Y-65036688D01*
X147835390Y-65038790D01*
X147767642Y-65060002D01*
X147767629Y-65060007D01*
X147759989Y-65063663D01*
X147705614Y-65076000D01*
X147094284Y-65076000D01*
X147042975Y-65065080D01*
X147031579Y-65059999D01*
X147021428Y-65055473D01*
X147021427Y-65055472D01*
X147021421Y-65055470D01*
X147017251Y-65053978D01*
X146959851Y-65012195D01*
X146934153Y-64946013D01*
X146933700Y-64935344D01*
X146933700Y-63710940D01*
X146933700Y-63710936D01*
X146921881Y-63651520D01*
X146876860Y-63584140D01*
X146813015Y-63541481D01*
X146809479Y-63539118D01*
X146750064Y-63527300D01*
X146141161Y-63527300D01*
X146073040Y-63507298D01*
X146029963Y-63460554D01*
X146029724Y-63460105D01*
X146024440Y-63450189D01*
X145977947Y-63396533D01*
X145977942Y-63396528D01*
X145977937Y-63396522D01*
X145960082Y-63378298D01*
X145960076Y-63378294D01*
X145879026Y-63332958D01*
X145879016Y-63332954D01*
X145810906Y-63312956D01*
X145810901Y-63312955D01*
X145810898Y-63312954D01*
X145810893Y-63312953D01*
X145810887Y-63312952D01*
X145752105Y-63304500D01*
X145752101Y-63304500D01*
X144652000Y-63304500D01*
X144651992Y-63304500D01*
X144607636Y-63309269D01*
X144555286Y-63320657D01*
X144544959Y-63323181D01*
X144462988Y-63366861D01*
X144409322Y-63413363D01*
X144391098Y-63431218D01*
X144391094Y-63431224D01*
X144345758Y-63512274D01*
X144345754Y-63512284D01*
X144325756Y-63580394D01*
X144325752Y-63580413D01*
X144317300Y-63639195D01*
X144317300Y-83440007D01*
X144322069Y-83484363D01*
X144333457Y-83536713D01*
X144335981Y-83547040D01*
X144335981Y-83547041D01*
X144335982Y-83547042D01*
X144379661Y-83629011D01*
X144416805Y-83671878D01*
X144426163Y-83682677D01*
X144444018Y-83700901D01*
X144444024Y-83700905D01*
X144525074Y-83746241D01*
X144525084Y-83746245D01*
X144548285Y-83753057D01*
X144593203Y-83766246D01*
X144651996Y-83774699D01*
X144651998Y-83774700D01*
X144652000Y-83774700D01*
X145755490Y-83774700D01*
X145755522Y-83774700D01*
X145761122Y-83774625D01*
X145767865Y-83774444D01*
X145795765Y-83769280D01*
X145831686Y-83762634D01*
X145831687Y-83762633D01*
X145831695Y-83762632D01*
X145898648Y-83739013D01*
X145920192Y-83729894D01*
X145990721Y-83721765D01*
X146054450Y-83753057D01*
X146091144Y-83813836D01*
X146095300Y-83845931D01*
X146095300Y-90920362D01*
X146075298Y-90988483D01*
X146058395Y-91009457D01*
X145685343Y-91382508D01*
X145685327Y-91382526D01*
X145670395Y-91399149D01*
X145670393Y-91399152D01*
X145670377Y-91399170D01*
X145653496Y-91420119D01*
X145615756Y-91492270D01*
X145595755Y-91560388D01*
X145595752Y-91560403D01*
X145587300Y-91619185D01*
X145587300Y-93673825D01*
X145588494Y-93696103D01*
X145588497Y-93696142D01*
X145591373Y-93722894D01*
X145591373Y-93722895D01*
X145615710Y-93800619D01*
X145649734Y-93862925D01*
X145658152Y-93874170D01*
X145682963Y-93940690D01*
X145667872Y-94010065D01*
X145617670Y-94060267D01*
X145548296Y-94075359D01*
X145481776Y-94050549D01*
X145468189Y-94038775D01*
X142912405Y-91482991D01*
X142878379Y-91420679D01*
X142875500Y-91393896D01*
X142875500Y-90727161D01*
X142875501Y-90727148D01*
X142875501Y-90629925D01*
X142852964Y-90545815D01*
X142852964Y-90545814D01*
X142809427Y-90470407D01*
X142809425Y-90470404D01*
X142743466Y-90404445D01*
X142743443Y-90404424D01*
X142048805Y-89709786D01*
X142014779Y-89647474D01*
X142011900Y-89620691D01*
X142011900Y-74043901D01*
X142011901Y-74043888D01*
X142011901Y-73946665D01*
X142011901Y-73946663D01*
X141989365Y-73862555D01*
X141968176Y-73825855D01*
X141945828Y-73787147D01*
X141485212Y-73326531D01*
X141017530Y-72858850D01*
X140983506Y-72796538D01*
X140986052Y-72733179D01*
X141020441Y-72619816D01*
X141032728Y-72579310D01*
X141032728Y-72579308D01*
X141032729Y-72579306D01*
X141051373Y-72390003D01*
X141051373Y-72389996D01*
X141032729Y-72200696D01*
X141032728Y-72200694D01*
X141032728Y-72200690D01*
X140977508Y-72018654D01*
X140887836Y-71850890D01*
X140767157Y-71703843D01*
X140620110Y-71583164D01*
X140452346Y-71493492D01*
X140270310Y-71438272D01*
X140270309Y-71438271D01*
X140270303Y-71438270D01*
X140081003Y-71419627D01*
X140080997Y-71419627D01*
X139891696Y-71438270D01*
X139709653Y-71493492D01*
X139541890Y-71583164D01*
X139474633Y-71638360D01*
X139409286Y-71666113D01*
X139339308Y-71654131D01*
X139286916Y-71606218D01*
X139268700Y-71540960D01*
X139268700Y-71182170D01*
X139288702Y-71114049D01*
X139305600Y-71093079D01*
X139612149Y-70786529D01*
X139674460Y-70752506D01*
X139737816Y-70755050D01*
X139891690Y-70801728D01*
X139891696Y-70801728D01*
X139891698Y-70801729D01*
X140080997Y-70820373D01*
X140081000Y-70820373D01*
X140081003Y-70820373D01*
X140270303Y-70801729D01*
X140270304Y-70801728D01*
X140270310Y-70801728D01*
X140452346Y-70746508D01*
X140620110Y-70656836D01*
X140767157Y-70536157D01*
X140887836Y-70389110D01*
X140977508Y-70221346D01*
X141032728Y-70039310D01*
X141042156Y-69943589D01*
X141051373Y-69850003D01*
X141051373Y-69849996D01*
X141032729Y-69660696D01*
X141032728Y-69660694D01*
X141032728Y-69660690D01*
X140977508Y-69478654D01*
X140887836Y-69310890D01*
X140767157Y-69163843D01*
X140620110Y-69043164D01*
X140452346Y-68953492D01*
X140270310Y-68898272D01*
X140270309Y-68898271D01*
X140270303Y-68898270D01*
X140081003Y-68879627D01*
X140080997Y-68879627D01*
X139891696Y-68898270D01*
X139709653Y-68953492D01*
X139541889Y-69043164D01*
X139394843Y-69163843D01*
X139274164Y-69310889D01*
X139184492Y-69478653D01*
X139129270Y-69660696D01*
X139110627Y-69849996D01*
X139110627Y-69850003D01*
X139129270Y-70039303D01*
X139175948Y-70193180D01*
X139176581Y-70264173D01*
X139144469Y-70318850D01*
X138734947Y-70728372D01*
X138734945Y-70728374D01*
X138716812Y-70746507D01*
X138673372Y-70789946D01*
X138629838Y-70865349D01*
X138629835Y-70865357D01*
X138607300Y-70949462D01*
X138607300Y-89726142D01*
X138629835Y-89810247D01*
X138629838Y-89810255D01*
X138673372Y-89885659D01*
X138742120Y-89954407D01*
X138742134Y-89954419D01*
X139423058Y-90635343D01*
X139423079Y-90635366D01*
X139489033Y-90701320D01*
X139489038Y-90701324D01*
X139489040Y-90701326D01*
X139489041Y-90701327D01*
X139489043Y-90701328D01*
X139495329Y-90704957D01*
X139544323Y-90756338D01*
X139557761Y-90826052D01*
X139531375Y-90891963D01*
X139512265Y-90911476D01*
X139394843Y-91007842D01*
X139274164Y-91154889D01*
X139184492Y-91322653D01*
X139129270Y-91504696D01*
X139110627Y-91693996D01*
X139110627Y-91694003D01*
X139129270Y-91883303D01*
X139129271Y-91883309D01*
X139129272Y-91883310D01*
X139184492Y-92065346D01*
X139274164Y-92233110D01*
X139394843Y-92380157D01*
X139541890Y-92500836D01*
X139709654Y-92590508D01*
X139891690Y-92645728D01*
X139891694Y-92645728D01*
X139891696Y-92645729D01*
X140080997Y-92664373D01*
X140081000Y-92664373D01*
X140081003Y-92664373D01*
X140270303Y-92645729D01*
X140270304Y-92645728D01*
X140270310Y-92645728D01*
X140452346Y-92590508D01*
X140620110Y-92500836D01*
X140767157Y-92380157D01*
X140767157Y-92380156D01*
X140770778Y-92377185D01*
X140836125Y-92349431D01*
X140906103Y-92361413D01*
X140939807Y-92385489D01*
X140977320Y-92423002D01*
X140977334Y-92423014D01*
X143570854Y-95016534D01*
X143604880Y-95078846D01*
X143599815Y-95149661D01*
X143557268Y-95206497D01*
X143490748Y-95231308D01*
X143440144Y-95224558D01*
X143395956Y-95209096D01*
X143395952Y-95209095D01*
X143386016Y-95208163D01*
X143366147Y-95206300D01*
X143366145Y-95206300D01*
X142759861Y-95206300D01*
X142759846Y-95206301D01*
X142736010Y-95208536D01*
X142730049Y-95209095D01*
X142730045Y-95209096D01*
X142730042Y-95209097D01*
X142604512Y-95253021D01*
X142604508Y-95253023D01*
X142497499Y-95331999D01*
X142418523Y-95439008D01*
X142418521Y-95439012D01*
X142374596Y-95564543D01*
X142374595Y-95564547D01*
X142371800Y-95594353D01*
X142371800Y-96175638D01*
X142371801Y-96175653D01*
X142372965Y-96188068D01*
X142374595Y-96205451D01*
X142374596Y-96205456D01*
X142374597Y-96205457D01*
X142418521Y-96330987D01*
X142418523Y-96330991D01*
X142497499Y-96438000D01*
X142604508Y-96516976D01*
X142604512Y-96516978D01*
X142716928Y-96556314D01*
X142730049Y-96560905D01*
X142759853Y-96563700D01*
X143366146Y-96563699D01*
X143395951Y-96560905D01*
X143521488Y-96516978D01*
X143604576Y-96455657D01*
X143628500Y-96438000D01*
X143713086Y-96323391D01*
X143715225Y-96324970D01*
X143754727Y-96284361D01*
X143823886Y-96268313D01*
X143890743Y-96292202D01*
X143905730Y-96305009D01*
X144971926Y-97371205D01*
X145005952Y-97433517D01*
X145000887Y-97504332D01*
X144958340Y-97561168D01*
X144891820Y-97585979D01*
X144882831Y-97586300D01*
X143837221Y-97586300D01*
X143769100Y-97566298D01*
X143722607Y-97512642D01*
X143718291Y-97501915D01*
X143711265Y-97481835D01*
X143707478Y-97471012D01*
X143707476Y-97471010D01*
X143707476Y-97471008D01*
X143628500Y-97363999D01*
X143521491Y-97285023D01*
X143521487Y-97285021D01*
X143395956Y-97241096D01*
X143395952Y-97241095D01*
X143386016Y-97240163D01*
X143366147Y-97238300D01*
X143366145Y-97238300D01*
X142759861Y-97238300D01*
X142759846Y-97238301D01*
X142736010Y-97240536D01*
X142730049Y-97241095D01*
X142730045Y-97241096D01*
X142730042Y-97241097D01*
X142604512Y-97285021D01*
X142604508Y-97285023D01*
X142497499Y-97363999D01*
X142418523Y-97471008D01*
X142418521Y-97471012D01*
X142374596Y-97596543D01*
X142374595Y-97596547D01*
X142371800Y-97626353D01*
X142371800Y-98207638D01*
X142371801Y-98207653D01*
X142373756Y-98228509D01*
X142374595Y-98237451D01*
X142374596Y-98237456D01*
X142374597Y-98237457D01*
X142418521Y-98362987D01*
X142418523Y-98362991D01*
X142497499Y-98470000D01*
X142604508Y-98548976D01*
X142604512Y-98548978D01*
X142646359Y-98563621D01*
X142730049Y-98592905D01*
X142759853Y-98595700D01*
X143366146Y-98595699D01*
X143395951Y-98592905D01*
X143521488Y-98548978D01*
X143628500Y-98470000D01*
X143696943Y-98377263D01*
X143707476Y-98362991D01*
X143707476Y-98362990D01*
X143707478Y-98362988D01*
X143718291Y-98332083D01*
X143759670Y-98274393D01*
X143825670Y-98248231D01*
X143837221Y-98247700D01*
X144758563Y-98247700D01*
X144826684Y-98267702D01*
X144847658Y-98284605D01*
X146067480Y-99504427D01*
X146101506Y-99566739D01*
X146103102Y-99575590D01*
X146124665Y-99725562D01*
X146124666Y-99725567D01*
X146124667Y-99725569D01*
X146184837Y-99857322D01*
X146264406Y-99949151D01*
X146279689Y-99966788D01*
X146394660Y-100040675D01*
X146401538Y-100045095D01*
X146540513Y-100085901D01*
X146685355Y-100085901D01*
X146824330Y-100045095D01*
X146946180Y-99966787D01*
X147041031Y-99857322D01*
X147101201Y-99725569D01*
X147121814Y-99582201D01*
X147101201Y-99438833D01*
X147064965Y-99359489D01*
X147054861Y-99289216D01*
X147084354Y-99224635D01*
X147111453Y-99201153D01*
X147176447Y-99159385D01*
X147271298Y-99049920D01*
X147300292Y-98986431D01*
X147346784Y-98932777D01*
X147414904Y-98912775D01*
X147483025Y-98932777D01*
X147504000Y-98949680D01*
X147771996Y-99217676D01*
X147806022Y-99279988D01*
X147808901Y-99306771D01*
X147808901Y-99715305D01*
X147829412Y-99791856D01*
X147831436Y-99799409D01*
X147831439Y-99799417D01*
X147874973Y-99874821D01*
X147943721Y-99943569D01*
X147943735Y-99943581D01*
X148696797Y-100696643D01*
X148696818Y-100696666D01*
X148742146Y-100741994D01*
X148776172Y-100804306D01*
X148771107Y-100875121D01*
X148768316Y-100881982D01*
X148726245Y-100977265D01*
X148723300Y-101002650D01*
X148723300Y-101193829D01*
X148703298Y-101261950D01*
X148649642Y-101308443D01*
X148632799Y-101314725D01*
X148598455Y-101324809D01*
X148563384Y-101335107D01*
X148563382Y-101335107D01*
X148563379Y-101335109D01*
X148441535Y-101413413D01*
X148346683Y-101522879D01*
X148286513Y-101654632D01*
X148265900Y-101798001D01*
X148286513Y-101941369D01*
X148346683Y-102073122D01*
X148441535Y-102182588D01*
X148563379Y-102260892D01*
X148563384Y-102260895D01*
X148632799Y-102281276D01*
X148692524Y-102319659D01*
X148722017Y-102384240D01*
X148723300Y-102402171D01*
X148723300Y-102593340D01*
X148723301Y-102593344D01*
X148726246Y-102618736D01*
X148726247Y-102618740D01*
X148771887Y-102722106D01*
X148781105Y-102792502D01*
X148771887Y-102823893D01*
X148726246Y-102927261D01*
X148726245Y-102927263D01*
X148723300Y-102952650D01*
X148723300Y-103243340D01*
X148723301Y-103243349D01*
X148727179Y-103276786D01*
X148715157Y-103346757D01*
X148667215Y-103399121D01*
X148602018Y-103417300D01*
X148260170Y-103417300D01*
X148192049Y-103397298D01*
X148171075Y-103380395D01*
X144543814Y-99753134D01*
X144543802Y-99753120D01*
X144475054Y-99684372D01*
X144399650Y-99640838D01*
X144399648Y-99640837D01*
X144399646Y-99640836D01*
X144315538Y-99618300D01*
X144315537Y-99618300D01*
X143837221Y-99618300D01*
X143769100Y-99598298D01*
X143722607Y-99544642D01*
X143718291Y-99533915D01*
X143709421Y-99508566D01*
X143707478Y-99503012D01*
X143707476Y-99503010D01*
X143707476Y-99503008D01*
X143628500Y-99395999D01*
X143521491Y-99317023D01*
X143521487Y-99317021D01*
X143395956Y-99273096D01*
X143395952Y-99273095D01*
X143386016Y-99272163D01*
X143366147Y-99270300D01*
X143366145Y-99270300D01*
X142759861Y-99270300D01*
X142759846Y-99270301D01*
X142736010Y-99272536D01*
X142730049Y-99273095D01*
X142730045Y-99273096D01*
X142730042Y-99273097D01*
X142604512Y-99317021D01*
X142604508Y-99317023D01*
X142497499Y-99395999D01*
X142418523Y-99503008D01*
X142418521Y-99503012D01*
X142374596Y-99628543D01*
X142374595Y-99628547D01*
X142371800Y-99658353D01*
X142371800Y-100239638D01*
X142371801Y-100239653D01*
X142372876Y-100251117D01*
X142374595Y-100269451D01*
X142374596Y-100269456D01*
X142374597Y-100269457D01*
X142418521Y-100394987D01*
X142418523Y-100394991D01*
X142497499Y-100502000D01*
X142604508Y-100580976D01*
X142604512Y-100580978D01*
X142730049Y-100624905D01*
X142759853Y-100627700D01*
X143366146Y-100627699D01*
X143395951Y-100624905D01*
X143521488Y-100580978D01*
X143539011Y-100568046D01*
X143628500Y-100502000D01*
X143707476Y-100394991D01*
X143707476Y-100394990D01*
X143707478Y-100394988D01*
X143718291Y-100364083D01*
X143759670Y-100306393D01*
X143825670Y-100280231D01*
X143837221Y-100279700D01*
X144082830Y-100279700D01*
X144150951Y-100299702D01*
X144171925Y-100316605D01*
X147801963Y-103946643D01*
X147801984Y-103946666D01*
X147867945Y-104012627D01*
X147935680Y-104051733D01*
X147943354Y-104056164D01*
X148027462Y-104078700D01*
X148778061Y-104078700D01*
X148846182Y-104098702D01*
X148849268Y-104100750D01*
X148852395Y-104102892D01*
X148956263Y-104148754D01*
X148981655Y-104151700D01*
X150347344Y-104151699D01*
X150372737Y-104148754D01*
X150476605Y-104102892D01*
X150556892Y-104022605D01*
X150602754Y-103918737D01*
X150605700Y-103893345D01*
X150605699Y-103602656D01*
X150602754Y-103577263D01*
X150601821Y-103569214D01*
X150613843Y-103499243D01*
X150661785Y-103446879D01*
X150726982Y-103428700D01*
X150936198Y-103428700D01*
X150936199Y-103428700D01*
X150936200Y-103428700D01*
X151020308Y-103406164D01*
X151078433Y-103372605D01*
X151095716Y-103362627D01*
X151167655Y-103290688D01*
X151167662Y-103290678D01*
X153424287Y-101034055D01*
X153486599Y-101000029D01*
X153513382Y-100997150D01*
X153569633Y-100997150D01*
X153708608Y-100956344D01*
X153830458Y-100878036D01*
X153925309Y-100768571D01*
X153934751Y-100747895D01*
X153981243Y-100694240D01*
X154049364Y-100674237D01*
X154117485Y-100694238D01*
X154138460Y-100711142D01*
X154189943Y-100762625D01*
X154265353Y-100806164D01*
X154265356Y-100806165D01*
X154287872Y-100812197D01*
X154287891Y-100812202D01*
X154349463Y-100828701D01*
X154349464Y-100828701D01*
X154444255Y-100828701D01*
X154444271Y-100828700D01*
X154503061Y-100828700D01*
X154571182Y-100848702D01*
X154574268Y-100850750D01*
X154577395Y-100852892D01*
X154681263Y-100898754D01*
X154706655Y-100901700D01*
X156072344Y-100901699D01*
X156097737Y-100898754D01*
X156201605Y-100852892D01*
X156281892Y-100772605D01*
X156327754Y-100668737D01*
X156330700Y-100643345D01*
X156330699Y-100402833D01*
X156350701Y-100334713D01*
X156404356Y-100288220D01*
X156474630Y-100278115D01*
X156539211Y-100307608D01*
X156545794Y-100313738D01*
X156551920Y-100319864D01*
X156551934Y-100319876D01*
X156731395Y-100499337D01*
X156765421Y-100561649D01*
X156768300Y-100588432D01*
X156768300Y-101282811D01*
X156748298Y-101350932D01*
X156694642Y-101397425D01*
X156624368Y-101407529D01*
X156574180Y-101388810D01*
X156549372Y-101372867D01*
X156490616Y-101335107D01*
X156351641Y-101294301D01*
X156206799Y-101294301D01*
X156067826Y-101335106D01*
X156067824Y-101335107D01*
X156006839Y-101374299D01*
X155938720Y-101394300D01*
X154706659Y-101394300D01*
X154706655Y-101394301D01*
X154681263Y-101397246D01*
X154681259Y-101397247D01*
X154577394Y-101443107D01*
X154497109Y-101523392D01*
X154497108Y-101523394D01*
X154451245Y-101627264D01*
X154448300Y-101652650D01*
X154448300Y-101943340D01*
X154448301Y-101943344D01*
X154451246Y-101968736D01*
X154451247Y-101968740D01*
X154496887Y-102072106D01*
X154506105Y-102142502D01*
X154496887Y-102173893D01*
X154451246Y-102277261D01*
X154451245Y-102277263D01*
X154448300Y-102302650D01*
X154448300Y-102593340D01*
X154448301Y-102593344D01*
X154451246Y-102618736D01*
X154451247Y-102618740D01*
X154496887Y-102722106D01*
X154506105Y-102792502D01*
X154496887Y-102823893D01*
X154451246Y-102927261D01*
X154451245Y-102927263D01*
X154448300Y-102952650D01*
X154448300Y-103243340D01*
X154448301Y-103243344D01*
X154451246Y-103268736D01*
X154451247Y-103268740D01*
X154496887Y-103372106D01*
X154506105Y-103442502D01*
X154496887Y-103473893D01*
X154451246Y-103577261D01*
X154451245Y-103577263D01*
X154448300Y-103602650D01*
X154448300Y-103893340D01*
X154448301Y-103893344D01*
X154451246Y-103918736D01*
X154451247Y-103918740D01*
X154496887Y-104022106D01*
X154506105Y-104092502D01*
X154496887Y-104123893D01*
X154451246Y-104227261D01*
X154451245Y-104227263D01*
X154448300Y-104252650D01*
X154448300Y-104543340D01*
X154448301Y-104543344D01*
X154451246Y-104568736D01*
X154451247Y-104568740D01*
X154497107Y-104672605D01*
X154577392Y-104752890D01*
X154577394Y-104752891D01*
X154577395Y-104752892D01*
X154681263Y-104798754D01*
X154706655Y-104801700D01*
X156072344Y-104801699D01*
X156097737Y-104798754D01*
X156201605Y-104752892D01*
X156201607Y-104752889D01*
X156204732Y-104750750D01*
X156211313Y-104748605D01*
X156212286Y-104748176D01*
X156212329Y-104748274D01*
X156272236Y-104728754D01*
X156275939Y-104728700D01*
X156553729Y-104728700D01*
X156553730Y-104728700D01*
X156553731Y-104728700D01*
X156637839Y-104706164D01*
X156695964Y-104672605D01*
X156713247Y-104662627D01*
X156785186Y-104590688D01*
X156785193Y-104590678D01*
X161890478Y-99485393D01*
X161890488Y-99485386D01*
X161962427Y-99413447D01*
X161993579Y-99359490D01*
X162005964Y-99338039D01*
X162028500Y-99253931D01*
X162028500Y-99054699D01*
X162048502Y-98986578D01*
X162102158Y-98940085D01*
X162154495Y-98928699D01*
X163861568Y-98928699D01*
X163930319Y-98918683D01*
X164036369Y-98866839D01*
X164119839Y-98783369D01*
X164161800Y-98697533D01*
X164185897Y-98663782D01*
X164221626Y-98628055D01*
X164221626Y-98628053D01*
X164231996Y-98617684D01*
X164232000Y-98617679D01*
X166282149Y-96567529D01*
X166344459Y-96533505D01*
X166407816Y-96536050D01*
X166561690Y-96582728D01*
X166561694Y-96582728D01*
X166561696Y-96582729D01*
X166750997Y-96601373D01*
X166751000Y-96601373D01*
X166751003Y-96601373D01*
X166940303Y-96582729D01*
X166940304Y-96582728D01*
X166940310Y-96582728D01*
X167122346Y-96527508D01*
X167290110Y-96437836D01*
X167437157Y-96317157D01*
X167557836Y-96170110D01*
X167647508Y-96002346D01*
X167702728Y-95820310D01*
X167705757Y-95789563D01*
X167721373Y-95631003D01*
X167721373Y-95630996D01*
X167702729Y-95441696D01*
X167702728Y-95441694D01*
X167702728Y-95441690D01*
X167656050Y-95287816D01*
X167655418Y-95216824D01*
X167687529Y-95162149D01*
X168035878Y-94813800D01*
X168035888Y-94813793D01*
X168107827Y-94741854D01*
X168135185Y-94694468D01*
X168151364Y-94666446D01*
X168173900Y-94582338D01*
X168173900Y-90679791D01*
X168193902Y-90611670D01*
X168200215Y-90603835D01*
X168199893Y-90603598D01*
X168284476Y-90488991D01*
X168284478Y-90488987D01*
X168290980Y-90470407D01*
X168328405Y-90363451D01*
X168331200Y-90333647D01*
X168331199Y-89752354D01*
X168328405Y-89722549D01*
X168284478Y-89597012D01*
X168284478Y-89597011D01*
X168247026Y-89546266D01*
X168205500Y-89490000D01*
X168205498Y-89489998D01*
X168199893Y-89482404D01*
X168202644Y-89480373D01*
X168176770Y-89432947D01*
X168173900Y-89406209D01*
X168173900Y-87916664D01*
X168173900Y-87916662D01*
X168151364Y-87832554D01*
X168135185Y-87804531D01*
X168107827Y-87757145D01*
X168041866Y-87691184D01*
X168041843Y-87691163D01*
X167687531Y-87336851D01*
X167653505Y-87274539D01*
X167656052Y-87211180D01*
X167702729Y-87057306D01*
X167721373Y-86868003D01*
X167721373Y-86867996D01*
X167702729Y-86678696D01*
X167702728Y-86678694D01*
X167702728Y-86678690D01*
X167647508Y-86496654D01*
X167557836Y-86328890D01*
X167437157Y-86181843D01*
X167290110Y-86061164D01*
X167122346Y-85971492D01*
X166940310Y-85916272D01*
X166940309Y-85916271D01*
X166940303Y-85916270D01*
X166751003Y-85897627D01*
X166750997Y-85897627D01*
X166561696Y-85916270D01*
X166379653Y-85971492D01*
X166211886Y-86061165D01*
X166211886Y-86061166D01*
X166195433Y-86074669D01*
X166130086Y-86102423D01*
X166060108Y-86090441D01*
X166007716Y-86042528D01*
X165989500Y-85977270D01*
X165989500Y-85609370D01*
X166009502Y-85541249D01*
X166026400Y-85520279D01*
X166282149Y-85264529D01*
X166344460Y-85230506D01*
X166407816Y-85233050D01*
X166561690Y-85279728D01*
X166561696Y-85279728D01*
X166561698Y-85279729D01*
X166750997Y-85298373D01*
X166751000Y-85298373D01*
X166751003Y-85298373D01*
X166940303Y-85279729D01*
X166940304Y-85279728D01*
X166940310Y-85279728D01*
X167122346Y-85224508D01*
X167290110Y-85134836D01*
X167437157Y-85014157D01*
X167557836Y-84867110D01*
X167647508Y-84699346D01*
X167702728Y-84517310D01*
X167707556Y-84468296D01*
X167721373Y-84328003D01*
X167721373Y-84327996D01*
X167702729Y-84138696D01*
X167702728Y-84138694D01*
X167702728Y-84138690D01*
X167647508Y-83956654D01*
X167557836Y-83788890D01*
X167437157Y-83641843D01*
X167290110Y-83521164D01*
X167122346Y-83431492D01*
X166940310Y-83376272D01*
X166940309Y-83376271D01*
X166940303Y-83376270D01*
X166822266Y-83364645D01*
X166756434Y-83338063D01*
X166715424Y-83280108D01*
X166712257Y-83209182D01*
X166745519Y-83150159D01*
X168702407Y-81193272D01*
X168764717Y-81159248D01*
X168835533Y-81164313D01*
X168892368Y-81206860D01*
X168917179Y-81273380D01*
X168917500Y-81282369D01*
X168917500Y-103155433D01*
X168897498Y-103223554D01*
X168843842Y-103270047D01*
X168773568Y-103280151D01*
X168708988Y-103250657D01*
X168680378Y-103214829D01*
X168613464Y-103089643D01*
X168396559Y-102765021D01*
X168396548Y-102765006D01*
X168148873Y-102463214D01*
X168148855Y-102463194D01*
X167872805Y-102187144D01*
X167872785Y-102187126D01*
X167570993Y-101939451D01*
X167570978Y-101939440D01*
X167246356Y-101722535D01*
X166902025Y-101538486D01*
X166541312Y-101389073D01*
X166541309Y-101389072D01*
X166225734Y-101293344D01*
X166167695Y-101275738D01*
X166167692Y-101275737D01*
X166167681Y-101275734D01*
X165784771Y-101199570D01*
X165784766Y-101199569D01*
X165784761Y-101199568D01*
X165784751Y-101199567D01*
X165396221Y-101161300D01*
X165396215Y-101161300D01*
X165005785Y-101161300D01*
X165005778Y-101161300D01*
X164617248Y-101199567D01*
X164617235Y-101199568D01*
X164617234Y-101199569D01*
X164617231Y-101199569D01*
X164617228Y-101199570D01*
X164234318Y-101275734D01*
X163860690Y-101389072D01*
X163860687Y-101389073D01*
X163499974Y-101538486D01*
X163155643Y-101722535D01*
X162831021Y-101939440D01*
X162831006Y-101939451D01*
X162529214Y-102187126D01*
X162529194Y-102187144D01*
X162253144Y-102463194D01*
X162253126Y-102463214D01*
X162005451Y-102765006D01*
X162005440Y-102765021D01*
X161788535Y-103089643D01*
X161604486Y-103433974D01*
X161455073Y-103794687D01*
X161455072Y-103794690D01*
X161341734Y-104168318D01*
X161265570Y-104551228D01*
X161265567Y-104551248D01*
X161227300Y-104939778D01*
X161227300Y-105330221D01*
X161265567Y-105718751D01*
X161265570Y-105718771D01*
X161341734Y-106101681D01*
X161455072Y-106475309D01*
X161455073Y-106475312D01*
X161604486Y-106836025D01*
X161788535Y-107180356D01*
X162005440Y-107504978D01*
X162005451Y-107504993D01*
X162253126Y-107806785D01*
X162253144Y-107806805D01*
X162529194Y-108082855D01*
X162529204Y-108082864D01*
X162529208Y-108082868D01*
X162831015Y-108330555D01*
X163155646Y-108547466D01*
X163270419Y-108608813D01*
X163271475Y-108609378D01*
X163322123Y-108659130D01*
X163337833Y-108728367D01*
X163313617Y-108795106D01*
X163257163Y-108838158D01*
X163212079Y-108846500D01*
X142043921Y-108846500D01*
X141975800Y-108826498D01*
X141929307Y-108772842D01*
X141919203Y-108702568D01*
X141948697Y-108637988D01*
X141984525Y-108609378D01*
X141984977Y-108609136D01*
X142100354Y-108547466D01*
X142424985Y-108330555D01*
X142726792Y-108082868D01*
X143002868Y-107806792D01*
X143250555Y-107504985D01*
X143467466Y-107180354D01*
X143651514Y-106836025D01*
X143800926Y-106475314D01*
X143914262Y-106101695D01*
X143990431Y-105718766D01*
X144028700Y-105330215D01*
X144028700Y-104939785D01*
X143990431Y-104551234D01*
X143931039Y-104252650D01*
X143914265Y-104168318D01*
X143914263Y-104168314D01*
X143914262Y-104168305D01*
X143800926Y-103794686D01*
X143651514Y-103433975D01*
X143467466Y-103089646D01*
X143250555Y-102765015D01*
X143215340Y-102722106D01*
X143002873Y-102463214D01*
X143002855Y-102463194D01*
X142726805Y-102187144D01*
X142726785Y-102187126D01*
X142424993Y-101939451D01*
X142424978Y-101939440D01*
X142100356Y-101722535D01*
X141756025Y-101538486D01*
X141395312Y-101389073D01*
X141395309Y-101389072D01*
X141079734Y-101293344D01*
X141021695Y-101275738D01*
X141021692Y-101275737D01*
X141021681Y-101275734D01*
X140638771Y-101199570D01*
X140638766Y-101199569D01*
X140638761Y-101199568D01*
X140638751Y-101199567D01*
X140250221Y-101161300D01*
X140250215Y-101161300D01*
X139859785Y-101161300D01*
X139859778Y-101161300D01*
X139471248Y-101199567D01*
X139471235Y-101199568D01*
X139471234Y-101199569D01*
X139471231Y-101199569D01*
X139471228Y-101199570D01*
X139088318Y-101275734D01*
X138714690Y-101389072D01*
X138714687Y-101389073D01*
X138353974Y-101538486D01*
X138009643Y-101722535D01*
X137685021Y-101939440D01*
X137685006Y-101939451D01*
X137383214Y-102187126D01*
X137383194Y-102187144D01*
X137107144Y-102463194D01*
X137107126Y-102463214D01*
X136859451Y-102765006D01*
X136859440Y-102765021D01*
X136642535Y-103089643D01*
X136627622Y-103117544D01*
X136577870Y-103168192D01*
X136508633Y-103183902D01*
X136441894Y-103159686D01*
X136398842Y-103103232D01*
X136390500Y-103058148D01*
X136390500Y-99658353D01*
X140546800Y-99658353D01*
X140546800Y-100239638D01*
X140546801Y-100239653D01*
X140547876Y-100251117D01*
X140549595Y-100269451D01*
X140549596Y-100269456D01*
X140549597Y-100269457D01*
X140593521Y-100394987D01*
X140593523Y-100394991D01*
X140672499Y-100502000D01*
X140779508Y-100580976D01*
X140779512Y-100580978D01*
X140905049Y-100624905D01*
X140934853Y-100627700D01*
X141541146Y-100627699D01*
X141570951Y-100624905D01*
X141696488Y-100580978D01*
X141714011Y-100568046D01*
X141803500Y-100502000D01*
X141882476Y-100394991D01*
X141882478Y-100394987D01*
X141896217Y-100355725D01*
X141926405Y-100269451D01*
X141929200Y-100239647D01*
X141929199Y-99658354D01*
X141926405Y-99628549D01*
X141882478Y-99503012D01*
X141882476Y-99503008D01*
X141803500Y-99395999D01*
X141696491Y-99317023D01*
X141696487Y-99317021D01*
X141570956Y-99273096D01*
X141570952Y-99273095D01*
X141561016Y-99272163D01*
X141541147Y-99270300D01*
X141541145Y-99270300D01*
X140934861Y-99270300D01*
X140934846Y-99270301D01*
X140911010Y-99272536D01*
X140905049Y-99273095D01*
X140905045Y-99273096D01*
X140905042Y-99273097D01*
X140779512Y-99317021D01*
X140779508Y-99317023D01*
X140672499Y-99395999D01*
X140593523Y-99503008D01*
X140593521Y-99503012D01*
X140549596Y-99628543D01*
X140549595Y-99628547D01*
X140546800Y-99658353D01*
X136390500Y-99658353D01*
X136390500Y-97626353D01*
X140546800Y-97626353D01*
X140546800Y-98207638D01*
X140546801Y-98207653D01*
X140548756Y-98228509D01*
X140549595Y-98237451D01*
X140549596Y-98237456D01*
X140549597Y-98237457D01*
X140593521Y-98362987D01*
X140593523Y-98362991D01*
X140672499Y-98470000D01*
X140779508Y-98548976D01*
X140779512Y-98548978D01*
X140821359Y-98563621D01*
X140905049Y-98592905D01*
X140934853Y-98595700D01*
X141541146Y-98595699D01*
X141570951Y-98592905D01*
X141696488Y-98548978D01*
X141803500Y-98470000D01*
X141871943Y-98377263D01*
X141882476Y-98362991D01*
X141882478Y-98362987D01*
X141894940Y-98327374D01*
X141926405Y-98237451D01*
X141929200Y-98207647D01*
X141929199Y-97626354D01*
X141926405Y-97596549D01*
X141882478Y-97471012D01*
X141882476Y-97471008D01*
X141803500Y-97363999D01*
X141696491Y-97285023D01*
X141696487Y-97285021D01*
X141570956Y-97241096D01*
X141570952Y-97241095D01*
X141561016Y-97240163D01*
X141541147Y-97238300D01*
X141541145Y-97238300D01*
X140934861Y-97238300D01*
X140934846Y-97238301D01*
X140911010Y-97240536D01*
X140905049Y-97241095D01*
X140905045Y-97241096D01*
X140905042Y-97241097D01*
X140779512Y-97285021D01*
X140779508Y-97285023D01*
X140672499Y-97363999D01*
X140593523Y-97471008D01*
X140593521Y-97471012D01*
X140549596Y-97596543D01*
X140549595Y-97596547D01*
X140546800Y-97626353D01*
X136390500Y-97626353D01*
X136390500Y-95594353D01*
X140546800Y-95594353D01*
X140546800Y-96175638D01*
X140546801Y-96175653D01*
X140547965Y-96188068D01*
X140549595Y-96205451D01*
X140549596Y-96205456D01*
X140549597Y-96205457D01*
X140593521Y-96330987D01*
X140593523Y-96330991D01*
X140672499Y-96438000D01*
X140779508Y-96516976D01*
X140779512Y-96516978D01*
X140891928Y-96556314D01*
X140905049Y-96560905D01*
X140934853Y-96563700D01*
X141541146Y-96563699D01*
X141570951Y-96560905D01*
X141696488Y-96516978D01*
X141779576Y-96455657D01*
X141803500Y-96438000D01*
X141882476Y-96330991D01*
X141882478Y-96330987D01*
X141883930Y-96326839D01*
X141926405Y-96205451D01*
X141929200Y-96175647D01*
X141929199Y-95594354D01*
X141926405Y-95564549D01*
X141882478Y-95439012D01*
X141882476Y-95439008D01*
X141803500Y-95331999D01*
X141696491Y-95253023D01*
X141696487Y-95253021D01*
X141570956Y-95209096D01*
X141570952Y-95209095D01*
X141561016Y-95208163D01*
X141541147Y-95206300D01*
X141541145Y-95206300D01*
X140934861Y-95206300D01*
X140934846Y-95206301D01*
X140911010Y-95208536D01*
X140905049Y-95209095D01*
X140905045Y-95209096D01*
X140905042Y-95209097D01*
X140779512Y-95253021D01*
X140779508Y-95253023D01*
X140672499Y-95331999D01*
X140593523Y-95439008D01*
X140593521Y-95439012D01*
X140549596Y-95564543D01*
X140549595Y-95564547D01*
X140546800Y-95594353D01*
X136390500Y-95594353D01*
X136390500Y-62507851D01*
X136410502Y-62439730D01*
X136464158Y-62393237D01*
X136534432Y-62383133D01*
X136599012Y-62412627D01*
X136627620Y-62448452D01*
X136639521Y-62470718D01*
X136642537Y-62476360D01*
X136859440Y-62800978D01*
X136859451Y-62800993D01*
X137107126Y-63102785D01*
X137107144Y-63102805D01*
X137383194Y-63378855D01*
X137383214Y-63378873D01*
X137670731Y-63614833D01*
X137685015Y-63626555D01*
X138009646Y-63843466D01*
X138353975Y-64027514D01*
X138714686Y-64176926D01*
X139088305Y-64290262D01*
X139088314Y-64290263D01*
X139088318Y-64290265D01*
X139218230Y-64316105D01*
X139471234Y-64366431D01*
X139859785Y-64404700D01*
X139859794Y-64404700D01*
X140250206Y-64404700D01*
X140250215Y-64404700D01*
X140638766Y-64366431D01*
X140954163Y-64303694D01*
X141021681Y-64290265D01*
X141021683Y-64290264D01*
X141021695Y-64290262D01*
X141395314Y-64176926D01*
X141756025Y-64027514D01*
X142100354Y-63843466D01*
X142424985Y-63626555D01*
X142726792Y-63378868D01*
X143002868Y-63102792D01*
X143250555Y-62800985D01*
X143467466Y-62476354D01*
X143651514Y-62132025D01*
X143800926Y-61771314D01*
X143914262Y-61397695D01*
X143990431Y-61014766D01*
X144028700Y-60626215D01*
X144028700Y-60235785D01*
X143990431Y-59847234D01*
X143914262Y-59464305D01*
X143800926Y-59090686D01*
X143651514Y-58729975D01*
X143467466Y-58385646D01*
X143250555Y-58061015D01*
X143233642Y-58040407D01*
X143002873Y-57759214D01*
X143002855Y-57759194D01*
X142726805Y-57483144D01*
X142726785Y-57483126D01*
X142424993Y-57235451D01*
X142424978Y-57235440D01*
X142100360Y-57018537D01*
X142063101Y-56998622D01*
X142012453Y-56948869D01*
X141996744Y-56879633D01*
X142020960Y-56812894D01*
X142077414Y-56769842D01*
X142122498Y-56761500D01*
X163133502Y-56761500D01*
X163201623Y-56781502D01*
G37*
%TD.AperFunction*%
%TA.AperFunction,Conductor*%
G36*
X160047707Y-96460722D02*
G01*
X160104542Y-96503269D01*
X160129353Y-96569789D01*
X160126514Y-96606817D01*
X160110115Y-96678668D01*
X160109423Y-96681698D01*
X160109423Y-96813786D01*
X160109399Y-96813867D01*
X160109400Y-96930303D01*
X160109401Y-96930306D01*
X160138021Y-97055694D01*
X160193827Y-97171569D01*
X160274020Y-97272119D01*
X160318392Y-97307500D01*
X160359183Y-97365609D01*
X160362082Y-97436546D01*
X160326169Y-97497790D01*
X160318392Y-97504529D01*
X160274040Y-97539894D01*
X160274038Y-97539896D01*
X160193847Y-97640442D01*
X160138042Y-97756314D01*
X160109423Y-97881698D01*
X160109423Y-98013786D01*
X160109399Y-98013867D01*
X160109400Y-98130303D01*
X160136318Y-98248231D01*
X160138021Y-98255694D01*
X160193827Y-98371569D01*
X160218620Y-98402656D01*
X160274017Y-98472116D01*
X160274018Y-98472117D01*
X160274020Y-98472119D01*
X160374578Y-98552302D01*
X160431101Y-98579517D01*
X160490455Y-98608096D01*
X160490456Y-98608096D01*
X160490458Y-98608097D01*
X160615848Y-98636706D01*
X160680155Y-98636700D01*
X160783900Y-98636700D01*
X160852021Y-98656702D01*
X160898514Y-98710358D01*
X160909900Y-98762700D01*
X160909900Y-98831845D01*
X160889898Y-98899966D01*
X160872995Y-98920940D01*
X160700370Y-99093565D01*
X160638058Y-99127591D01*
X160567243Y-99122526D01*
X160522180Y-99093565D01*
X160468042Y-99039427D01*
X160468040Y-99039424D01*
X160468040Y-99039425D01*
X160448799Y-99020183D01*
X160448798Y-99020182D01*
X160448798Y-99020181D01*
X160403333Y-98974716D01*
X160294436Y-98906290D01*
X160199297Y-98873000D01*
X160173048Y-98863815D01*
X160173046Y-98863814D01*
X160173048Y-98863814D01*
X160045251Y-98849416D01*
X159917454Y-98863816D01*
X159917452Y-98863816D01*
X159917449Y-98863817D01*
X159796067Y-98906290D01*
X159687169Y-98974717D01*
X159687168Y-98974718D01*
X159672494Y-98989393D01*
X159672494Y-98989394D01*
X159520592Y-99141293D01*
X159520327Y-99141594D01*
X159511421Y-99150499D01*
X159511418Y-99150503D01*
X159511416Y-99150505D01*
X159511416Y-99150506D01*
X159446014Y-99254581D01*
X159442989Y-99259394D01*
X159442988Y-99259395D01*
X159412915Y-99345322D01*
X159371533Y-99403010D01*
X159305531Y-99429168D01*
X159235864Y-99415490D01*
X159184652Y-99366319D01*
X159180797Y-99359047D01*
X159169839Y-99336631D01*
X159169837Y-99336629D01*
X159169837Y-99336628D01*
X159086371Y-99253162D01*
X159054728Y-99237693D01*
X158980319Y-99201317D01*
X158934485Y-99194639D01*
X158911570Y-99191300D01*
X157204500Y-99191300D01*
X157136379Y-99171298D01*
X157089886Y-99117642D01*
X157078500Y-99065300D01*
X157078500Y-97784699D01*
X157098502Y-97716578D01*
X157152158Y-97670085D01*
X157204495Y-97658699D01*
X158911568Y-97658699D01*
X158980319Y-97648683D01*
X159086369Y-97596839D01*
X159169839Y-97513369D01*
X159221683Y-97407319D01*
X159231700Y-97338569D01*
X159231699Y-97224751D01*
X159251700Y-97156632D01*
X159268599Y-97135661D01*
X159914580Y-96489680D01*
X159976891Y-96455657D01*
X160047707Y-96460722D01*
G37*
%TD.AperFunction*%
%TA.AperFunction,Conductor*%
G36*
X165706284Y-84293560D02*
G01*
X165763120Y-84336107D01*
X165787645Y-84399266D01*
X165799270Y-84517303D01*
X165845948Y-84671180D01*
X165846581Y-84742173D01*
X165814469Y-84796850D01*
X165455747Y-85155572D01*
X165455745Y-85155574D01*
X165424958Y-85186360D01*
X165394172Y-85217146D01*
X165350638Y-85292549D01*
X165350635Y-85292557D01*
X165328100Y-85376662D01*
X165328100Y-89368382D01*
X165308098Y-89436503D01*
X165276923Y-89469760D01*
X165249502Y-89489997D01*
X165249501Y-89489998D01*
X165170521Y-89597011D01*
X165170521Y-89597012D01*
X165126596Y-89722543D01*
X165126595Y-89722547D01*
X165123800Y-89752353D01*
X165123800Y-90333638D01*
X165123801Y-90333653D01*
X165125756Y-90354509D01*
X165126595Y-90363451D01*
X165126596Y-90363456D01*
X165126597Y-90363457D01*
X165170521Y-90488987D01*
X165170523Y-90488991D01*
X165249496Y-90595995D01*
X165249500Y-90596000D01*
X165276921Y-90616237D01*
X165319853Y-90672781D01*
X165328100Y-90717616D01*
X165328100Y-91597686D01*
X165308098Y-91665807D01*
X165254442Y-91712300D01*
X165184168Y-91722404D01*
X165166604Y-91718583D01*
X165153210Y-91714650D01*
X165138962Y-91710467D01*
X164994120Y-91710467D01*
X164855147Y-91751272D01*
X164855140Y-91751275D01*
X164733296Y-91829579D01*
X164638444Y-91939045D01*
X164578274Y-92070799D01*
X164578272Y-92070805D01*
X164556710Y-92220775D01*
X164527217Y-92285356D01*
X164521088Y-92291938D01*
X163862517Y-92950509D01*
X163800205Y-92984535D01*
X163761659Y-92986864D01*
X163739647Y-92984800D01*
X163158361Y-92984800D01*
X163158346Y-92984801D01*
X163134510Y-92987036D01*
X163128549Y-92987595D01*
X163128545Y-92987596D01*
X163128542Y-92987597D01*
X163003012Y-93031521D01*
X162964521Y-93059929D01*
X162897833Y-93084286D01*
X162828563Y-93068723D01*
X162778704Y-93018180D01*
X162763700Y-92958549D01*
X162763700Y-87184169D01*
X162783702Y-87116048D01*
X162800600Y-87095079D01*
X165573159Y-84322519D01*
X165635469Y-84288495D01*
X165706284Y-84293560D01*
G37*
%TD.AperFunction*%
%TA.AperFunction,Conductor*%
G36*
X154757043Y-81996924D02*
G01*
X154778564Y-82006522D01*
X154778570Y-82006523D01*
X154782736Y-82008014D01*
X154840141Y-82049791D01*
X154865846Y-82115970D01*
X154866300Y-82126653D01*
X154866300Y-83351064D01*
X154878118Y-83410479D01*
X154882868Y-83421945D01*
X154880135Y-83423076D01*
X154895708Y-83472801D01*
X154876927Y-83541269D01*
X154864953Y-83557567D01*
X154765903Y-83671878D01*
X154705733Y-83803631D01*
X154699651Y-83845931D01*
X154685120Y-83947000D01*
X154705733Y-84090368D01*
X154765903Y-84222121D01*
X154830869Y-84297097D01*
X154860755Y-84331587D01*
X154939550Y-84382225D01*
X154982604Y-84409894D01*
X155121579Y-84450700D01*
X155266421Y-84450700D01*
X155405396Y-84409894D01*
X155527246Y-84331586D01*
X155536257Y-84321187D01*
X155595984Y-84282804D01*
X155631481Y-84277700D01*
X155817936Y-84277700D01*
X155817937Y-84277700D01*
X155817938Y-84277700D01*
X155902046Y-84255164D01*
X155948826Y-84228155D01*
X155977454Y-84211627D01*
X156049392Y-84139689D01*
X156049399Y-84139679D01*
X156578634Y-83610445D01*
X156640943Y-83576423D01*
X156711759Y-83581488D01*
X156768594Y-83624035D01*
X156771588Y-83628209D01*
X156772137Y-83629009D01*
X156772139Y-83629011D01*
X156809283Y-83671878D01*
X156818641Y-83682677D01*
X156836496Y-83700901D01*
X156836502Y-83700905D01*
X156917552Y-83746241D01*
X156917562Y-83746245D01*
X156940763Y-83753057D01*
X156985681Y-83766246D01*
X157044474Y-83774699D01*
X157044476Y-83774700D01*
X157044478Y-83774700D01*
X157755490Y-83774700D01*
X157755522Y-83774700D01*
X157761122Y-83774625D01*
X157767865Y-83774444D01*
X157795765Y-83769280D01*
X157831686Y-83762634D01*
X157831687Y-83762633D01*
X157831695Y-83762632D01*
X157898648Y-83739013D01*
X157922158Y-83729063D01*
X157994031Y-83670233D01*
X158037586Y-83614166D01*
X158051986Y-83593084D01*
X158051986Y-83593083D01*
X158054343Y-83589633D01*
X158109282Y-83544663D01*
X158158389Y-83534700D01*
X158646252Y-83534700D01*
X158714373Y-83554702D01*
X158757449Y-83601444D01*
X158765366Y-83616300D01*
X158772139Y-83629011D01*
X158809283Y-83671878D01*
X158818641Y-83682677D01*
X158836496Y-83700901D01*
X158836502Y-83700905D01*
X158917552Y-83746241D01*
X158917562Y-83746245D01*
X158940763Y-83753057D01*
X158985681Y-83766246D01*
X159044474Y-83774699D01*
X159044476Y-83774700D01*
X159044478Y-83774700D01*
X159286422Y-83774700D01*
X159354543Y-83794702D01*
X159401036Y-83848358D01*
X159411140Y-83918632D01*
X159381646Y-83983212D01*
X159375518Y-83989793D01*
X158390677Y-84974634D01*
X157436416Y-85928895D01*
X157374104Y-85962921D01*
X157347321Y-85965800D01*
X152226700Y-85965800D01*
X152158579Y-85945798D01*
X152112086Y-85892142D01*
X152100700Y-85839800D01*
X152100700Y-84974634D01*
X152120702Y-84906513D01*
X152137600Y-84885543D01*
X152422807Y-84600337D01*
X152427991Y-84594964D01*
X152434120Y-84588380D01*
X152471203Y-84532877D01*
X152500696Y-84468296D01*
X152509862Y-84444466D01*
X152509862Y-84444462D01*
X152511866Y-84435684D01*
X152514246Y-84436227D01*
X152535007Y-84382225D01*
X152592266Y-84340249D01*
X152599603Y-84337848D01*
X152738396Y-84297096D01*
X152860246Y-84218788D01*
X152955097Y-84109323D01*
X152975085Y-84065557D01*
X153021578Y-84011902D01*
X153089698Y-83991900D01*
X153103736Y-83991900D01*
X153103737Y-83991900D01*
X153103738Y-83991900D01*
X153187846Y-83969364D01*
X153234626Y-83942355D01*
X153263254Y-83925827D01*
X153335193Y-83853888D01*
X153335200Y-83853878D01*
X153592678Y-83596400D01*
X153592688Y-83596393D01*
X153617477Y-83571605D01*
X153679789Y-83537579D01*
X153706572Y-83534700D01*
X153750059Y-83534700D01*
X153750064Y-83534700D01*
X153809480Y-83522881D01*
X153876860Y-83477860D01*
X153921881Y-83410480D01*
X153933700Y-83351064D01*
X153933700Y-82125465D01*
X153953702Y-82057344D01*
X154007358Y-82010851D01*
X154022048Y-82005222D01*
X154032360Y-82001994D01*
X154039996Y-81998340D01*
X154094378Y-81986000D01*
X154705724Y-81986000D01*
X154757043Y-81996924D01*
G37*
%TD.AperFunction*%
%TD*%
%TA.AperFunction,Conductor*%
%TO.N,+12V*%
G36*
X152829128Y-63499002D02*
G01*
X152875621Y-63552658D01*
X152885725Y-63622932D01*
X152878745Y-63648368D01*
X152866300Y-63710935D01*
X152866300Y-65101064D01*
X152878118Y-65160479D01*
X152878119Y-65160480D01*
X152923140Y-65227860D01*
X152990520Y-65272881D01*
X153049936Y-65284700D01*
X153081300Y-65284700D01*
X153149421Y-65304702D01*
X153195914Y-65358358D01*
X153207300Y-65410700D01*
X153207300Y-73280007D01*
X153212069Y-73324363D01*
X153223457Y-73376713D01*
X153225981Y-73387040D01*
X153269661Y-73469011D01*
X153316163Y-73522677D01*
X153334018Y-73540901D01*
X153334024Y-73540905D01*
X153415074Y-73586241D01*
X153415084Y-73586245D01*
X153448369Y-73596018D01*
X153483203Y-73606246D01*
X153541996Y-73614699D01*
X153541998Y-73614700D01*
X153542000Y-73614700D01*
X158161300Y-73614700D01*
X158229421Y-73634702D01*
X158275914Y-73688358D01*
X158287300Y-73740700D01*
X158287300Y-81651300D01*
X158267298Y-81719421D01*
X158213642Y-81765914D01*
X158161300Y-81777300D01*
X158049935Y-81777300D01*
X157990520Y-81789118D01*
X157923140Y-81834140D01*
X157878118Y-81901520D01*
X157866300Y-81960935D01*
X157866300Y-83351064D01*
X157879101Y-83415419D01*
X157872773Y-83486133D01*
X157829218Y-83542200D01*
X157762265Y-83565819D01*
X157755522Y-83566000D01*
X157044478Y-83566000D01*
X156976357Y-83545998D01*
X156929864Y-83492342D01*
X156919760Y-83422068D01*
X156920899Y-83415419D01*
X156924951Y-83395042D01*
X156933700Y-83351064D01*
X156933700Y-81960936D01*
X156921881Y-81901520D01*
X156876860Y-81834140D01*
X156809480Y-81789119D01*
X156809479Y-81789118D01*
X156750064Y-81777300D01*
X156049936Y-81777300D01*
X156049935Y-81777300D01*
X155990520Y-81789118D01*
X155990517Y-81789119D01*
X155970000Y-81802829D01*
X155902247Y-81824043D01*
X155833781Y-81805259D01*
X155830000Y-81802829D01*
X155809482Y-81789119D01*
X155809479Y-81789118D01*
X155750064Y-81777300D01*
X155049936Y-81777300D01*
X155049935Y-81777300D01*
X154990520Y-81789118D01*
X154990517Y-81789119D01*
X154970000Y-81802829D01*
X154902247Y-81824043D01*
X154833781Y-81805259D01*
X154830000Y-81802829D01*
X154809482Y-81789119D01*
X154809479Y-81789118D01*
X154750064Y-81777300D01*
X154049936Y-81777300D01*
X154049935Y-81777300D01*
X153990520Y-81789118D01*
X153990517Y-81789119D01*
X153970000Y-81802829D01*
X153902247Y-81824043D01*
X153833781Y-81805259D01*
X153830000Y-81802829D01*
X153809482Y-81789119D01*
X153809479Y-81789118D01*
X153750064Y-81777300D01*
X153049936Y-81777300D01*
X153049935Y-81777300D01*
X152990520Y-81789118D01*
X152990517Y-81789119D01*
X152970000Y-81802829D01*
X152902247Y-81824043D01*
X152833781Y-81805259D01*
X152830000Y-81802829D01*
X152809482Y-81789119D01*
X152809479Y-81789118D01*
X152750064Y-81777300D01*
X152049936Y-81777300D01*
X152049935Y-81777300D01*
X151990520Y-81789118D01*
X151990517Y-81789119D01*
X151970000Y-81802829D01*
X151902247Y-81824043D01*
X151833781Y-81805259D01*
X151830000Y-81802829D01*
X151809482Y-81789119D01*
X151809479Y-81789118D01*
X151750064Y-81777300D01*
X151049936Y-81777300D01*
X151049935Y-81777300D01*
X150990520Y-81789118D01*
X150990517Y-81789119D01*
X150970000Y-81802829D01*
X150902247Y-81824043D01*
X150833781Y-81805259D01*
X150830000Y-81802829D01*
X150809482Y-81789119D01*
X150809479Y-81789118D01*
X150750064Y-81777300D01*
X150049936Y-81777300D01*
X150049935Y-81777300D01*
X149990520Y-81789118D01*
X149990517Y-81789119D01*
X149970000Y-81802829D01*
X149902247Y-81824043D01*
X149833781Y-81805259D01*
X149830000Y-81802829D01*
X149809482Y-81789119D01*
X149809479Y-81789118D01*
X149750064Y-81777300D01*
X149049936Y-81777300D01*
X149049935Y-81777300D01*
X148990520Y-81789118D01*
X148923140Y-81834140D01*
X148878118Y-81901520D01*
X148866300Y-81960935D01*
X148866300Y-83351064D01*
X148878118Y-83410479D01*
X148878119Y-83410480D01*
X148923140Y-83477860D01*
X148990520Y-83522881D01*
X149049936Y-83534700D01*
X149049941Y-83534700D01*
X149750059Y-83534700D01*
X149750064Y-83534700D01*
X149809480Y-83522881D01*
X149830000Y-83509169D01*
X149897750Y-83487956D01*
X149966217Y-83506738D01*
X149969954Y-83509139D01*
X149990520Y-83522881D01*
X150049936Y-83534700D01*
X150049941Y-83534700D01*
X150750059Y-83534700D01*
X150750064Y-83534700D01*
X150809480Y-83522881D01*
X150830000Y-83509169D01*
X150897750Y-83487956D01*
X150966217Y-83506738D01*
X150969954Y-83509139D01*
X150990520Y-83522881D01*
X151049936Y-83534700D01*
X151049941Y-83534700D01*
X151750059Y-83534700D01*
X151750064Y-83534700D01*
X151809480Y-83522881D01*
X151830000Y-83509169D01*
X151897750Y-83487956D01*
X151966217Y-83506738D01*
X151969979Y-83509156D01*
X151990520Y-83522881D01*
X151997074Y-83527260D01*
X152042602Y-83581737D01*
X152051450Y-83652180D01*
X152041688Y-83684362D01*
X152038734Y-83690829D01*
X152038733Y-83690833D01*
X152028410Y-83762632D01*
X152018120Y-83834202D01*
X152038733Y-83977570D01*
X152098903Y-84109323D01*
X152193754Y-84218788D01*
X152254258Y-84257671D01*
X152300751Y-84311325D01*
X152310856Y-84381599D01*
X152281363Y-84446180D01*
X152275234Y-84452764D01*
X151892000Y-84835999D01*
X151892000Y-93419810D01*
X151871998Y-93487931D01*
X151855095Y-93508905D01*
X150785905Y-94578095D01*
X150723593Y-94612121D01*
X150696810Y-94615000D01*
X146737190Y-94615000D01*
X146669069Y-94594998D01*
X146648095Y-94578095D01*
X145832905Y-93762905D01*
X145798879Y-93700593D01*
X145796000Y-93673810D01*
X145796000Y-91619190D01*
X145816002Y-91551069D01*
X145832900Y-91530099D01*
X146304000Y-91059000D01*
X146304000Y-83660700D01*
X146324002Y-83592579D01*
X146377658Y-83546086D01*
X146430000Y-83534700D01*
X146750059Y-83534700D01*
X146750064Y-83534700D01*
X146809480Y-83522881D01*
X146876860Y-83477860D01*
X146921881Y-83410480D01*
X146933700Y-83351064D01*
X146933700Y-81960936D01*
X146921881Y-81901520D01*
X146876860Y-81834140D01*
X146809480Y-81789119D01*
X146809479Y-81789118D01*
X146750064Y-81777300D01*
X146638700Y-81777300D01*
X146570579Y-81757298D01*
X146524086Y-81703642D01*
X146512700Y-81651300D01*
X146512700Y-73740700D01*
X146532702Y-73672579D01*
X146586358Y-73626086D01*
X146638700Y-73614700D01*
X151257994Y-73614700D01*
X151258000Y-73614700D01*
X151302361Y-73609931D01*
X151354703Y-73598545D01*
X151365042Y-73596018D01*
X151447011Y-73552339D01*
X151500667Y-73505846D01*
X151518903Y-73487979D01*
X151529513Y-73469011D01*
X151564241Y-73406925D01*
X151564245Y-73406915D01*
X151573116Y-73376703D01*
X151584246Y-73338797D01*
X151592700Y-73280000D01*
X151592700Y-65410700D01*
X151612702Y-65342579D01*
X151666358Y-65296086D01*
X151718700Y-65284700D01*
X151750059Y-65284700D01*
X151750064Y-65284700D01*
X151809480Y-65272881D01*
X151876860Y-65227860D01*
X151921881Y-65160480D01*
X151933700Y-65101064D01*
X151933700Y-63710936D01*
X151921881Y-63651520D01*
X151919460Y-63639348D01*
X151921059Y-63639029D01*
X151914994Y-63582632D01*
X151946771Y-63519144D01*
X152007828Y-63482915D01*
X152038993Y-63479000D01*
X152761007Y-63479000D01*
X152829128Y-63499002D01*
G37*
%TD.AperFunction*%
%TD*%
%TA.AperFunction,Conductor*%
%TO.N,/OUTA*%
G36*
X158511931Y-58186002D02*
G01*
X158532905Y-58202905D01*
X160237095Y-59907095D01*
X160271121Y-59969407D01*
X160274000Y-59996190D01*
X160274000Y-62563100D01*
X160253998Y-62631221D01*
X160200342Y-62677714D01*
X160148000Y-62689100D01*
X157480683Y-62689100D01*
X157437037Y-62700795D01*
X157348126Y-62724618D01*
X157348121Y-62724620D01*
X157318127Y-62741938D01*
X157318126Y-62741937D01*
X157229278Y-62793233D01*
X157229268Y-62793241D01*
X156982941Y-63039568D01*
X156982933Y-63039578D01*
X156932705Y-63126578D01*
X156914321Y-63158418D01*
X156914319Y-63158423D01*
X156878800Y-63290984D01*
X156878800Y-63401300D01*
X156858798Y-63469421D01*
X156805142Y-63515914D01*
X156752800Y-63527300D01*
X156049935Y-63527300D01*
X155990520Y-63539118D01*
X155990517Y-63539119D01*
X155970000Y-63552829D01*
X155902247Y-63574043D01*
X155833781Y-63555259D01*
X155830000Y-63552829D01*
X155809482Y-63539119D01*
X155809479Y-63539118D01*
X155750064Y-63527300D01*
X155049936Y-63527300D01*
X155049935Y-63527300D01*
X154990520Y-63539118D01*
X154923140Y-63584140D01*
X154878118Y-63651520D01*
X154866300Y-63710935D01*
X154866300Y-65101064D01*
X154878118Y-65160479D01*
X154878119Y-65160480D01*
X154923140Y-65227860D01*
X154990520Y-65272881D01*
X155049936Y-65284700D01*
X155049941Y-65284700D01*
X155750059Y-65284700D01*
X155750064Y-65284700D01*
X155809480Y-65272881D01*
X155830000Y-65259169D01*
X155897750Y-65237956D01*
X155966217Y-65256738D01*
X155969954Y-65259139D01*
X155990520Y-65272881D01*
X156049936Y-65284700D01*
X156049941Y-65284700D01*
X156750059Y-65284700D01*
X156750064Y-65284700D01*
X156809480Y-65272881D01*
X156830000Y-65259169D01*
X156897750Y-65237956D01*
X156966217Y-65256738D01*
X156969954Y-65259139D01*
X156990520Y-65272881D01*
X157049936Y-65284700D01*
X157049941Y-65284700D01*
X157750059Y-65284700D01*
X157750064Y-65284700D01*
X157809480Y-65272881D01*
X157830000Y-65259169D01*
X157897750Y-65237956D01*
X157966217Y-65256738D01*
X157969954Y-65259139D01*
X157990520Y-65272881D01*
X158049936Y-65284700D01*
X158049941Y-65284700D01*
X158750059Y-65284700D01*
X158750064Y-65284700D01*
X158809480Y-65272881D01*
X158876860Y-65227860D01*
X158921881Y-65160480D01*
X158933700Y-65101064D01*
X158933700Y-63857500D01*
X158953702Y-63789379D01*
X159007358Y-63742886D01*
X159059700Y-63731500D01*
X160148000Y-63731500D01*
X160216121Y-63751502D01*
X160262614Y-63805158D01*
X160274000Y-63857500D01*
X160274000Y-83039121D01*
X160253998Y-83107242D01*
X160237095Y-83128216D01*
X159836216Y-83529095D01*
X159773904Y-83563121D01*
X159747121Y-83566000D01*
X159044478Y-83566000D01*
X158976357Y-83545998D01*
X158929864Y-83492342D01*
X158919760Y-83422068D01*
X158920899Y-83415419D01*
X158925045Y-83394576D01*
X158933700Y-83351064D01*
X158933700Y-81960936D01*
X158921881Y-81901520D01*
X158876860Y-81834140D01*
X158809480Y-81789119D01*
X158809479Y-81789118D01*
X158750064Y-81777300D01*
X158622000Y-81777300D01*
X158553879Y-81757298D01*
X158507386Y-81703642D01*
X158496000Y-81651300D01*
X158496000Y-73406000D01*
X153542000Y-73406000D01*
X153473879Y-73385998D01*
X153427386Y-73332342D01*
X153416000Y-73280000D01*
X153416000Y-65410700D01*
X153436002Y-65342579D01*
X153489658Y-65296086D01*
X153542000Y-65284700D01*
X153750059Y-65284700D01*
X153750064Y-65284700D01*
X153809480Y-65272881D01*
X153876860Y-65227860D01*
X153921881Y-65160480D01*
X153933700Y-65101064D01*
X153933700Y-63710936D01*
X153921881Y-63651520D01*
X153876860Y-63584140D01*
X153809480Y-63539119D01*
X153809479Y-63539118D01*
X153750064Y-63527300D01*
X153542000Y-63527300D01*
X153473879Y-63507298D01*
X153427386Y-63453642D01*
X153416000Y-63401300D01*
X153416000Y-59234190D01*
X153436002Y-59166069D01*
X153452905Y-59145095D01*
X154395095Y-58202905D01*
X154457407Y-58168879D01*
X154484190Y-58166000D01*
X158443810Y-58166000D01*
X158511931Y-58186002D01*
G37*
%TD.AperFunction*%
%TD*%
%TA.AperFunction,Conductor*%
%TO.N,/OUTB*%
G36*
X150383931Y-58186002D02*
G01*
X150404905Y-58202905D01*
X151347095Y-59145095D01*
X151381121Y-59207407D01*
X151384000Y-59234190D01*
X151384000Y-63401300D01*
X151363998Y-63469421D01*
X151310342Y-63515914D01*
X151258000Y-63527300D01*
X151049935Y-63527300D01*
X150990520Y-63539118D01*
X150923140Y-63584140D01*
X150878118Y-63651520D01*
X150866300Y-63710935D01*
X150866300Y-65101064D01*
X150878118Y-65160479D01*
X150878119Y-65160480D01*
X150923140Y-65227860D01*
X150990520Y-65272881D01*
X151049936Y-65284700D01*
X151049941Y-65284700D01*
X151258000Y-65284700D01*
X151326121Y-65304702D01*
X151372614Y-65358358D01*
X151384000Y-65410700D01*
X151384000Y-73280000D01*
X151363998Y-73348121D01*
X151310342Y-73394614D01*
X151258000Y-73406000D01*
X146304000Y-73406000D01*
X146304000Y-81651300D01*
X146283998Y-81719421D01*
X146230342Y-81765914D01*
X146178000Y-81777300D01*
X146049935Y-81777300D01*
X145990520Y-81789118D01*
X145923140Y-81834140D01*
X145878118Y-81901520D01*
X145866300Y-81960935D01*
X145866300Y-83351064D01*
X145879101Y-83415419D01*
X145872773Y-83486133D01*
X145829218Y-83542200D01*
X145762265Y-83565819D01*
X145755522Y-83566000D01*
X144652000Y-83566000D01*
X144583879Y-83545998D01*
X144537386Y-83492342D01*
X144526000Y-83440000D01*
X144526000Y-63639200D01*
X144546002Y-63571079D01*
X144599658Y-63524586D01*
X144652000Y-63513200D01*
X145752101Y-63513200D01*
X145820222Y-63533202D01*
X145866715Y-63586858D01*
X145876819Y-63657132D01*
X145875680Y-63663781D01*
X145866300Y-63710935D01*
X145866300Y-65101064D01*
X145878118Y-65160479D01*
X145878119Y-65160480D01*
X145923140Y-65227860D01*
X145990520Y-65272881D01*
X146049936Y-65284700D01*
X146049941Y-65284700D01*
X146750059Y-65284700D01*
X146750064Y-65284700D01*
X146809480Y-65272881D01*
X146830000Y-65259169D01*
X146897750Y-65237956D01*
X146966217Y-65256738D01*
X146969954Y-65259139D01*
X146990520Y-65272881D01*
X147049936Y-65284700D01*
X147049941Y-65284700D01*
X147750059Y-65284700D01*
X147750064Y-65284700D01*
X147809480Y-65272881D01*
X147830000Y-65259169D01*
X147897750Y-65237956D01*
X147966217Y-65256738D01*
X147969954Y-65259139D01*
X147990520Y-65272881D01*
X148049936Y-65284700D01*
X148049941Y-65284700D01*
X148750059Y-65284700D01*
X148750064Y-65284700D01*
X148809480Y-65272881D01*
X148830000Y-65259169D01*
X148897750Y-65237956D01*
X148966217Y-65256738D01*
X148969954Y-65259139D01*
X148990520Y-65272881D01*
X149049936Y-65284700D01*
X149049941Y-65284700D01*
X149750059Y-65284700D01*
X149750064Y-65284700D01*
X149809480Y-65272881D01*
X149876860Y-65227860D01*
X149921881Y-65160480D01*
X149933700Y-65101064D01*
X149933700Y-63710936D01*
X149921881Y-63651520D01*
X149876860Y-63584140D01*
X149809480Y-63539119D01*
X149809479Y-63539118D01*
X149750064Y-63527300D01*
X149049936Y-63527300D01*
X149049935Y-63527300D01*
X148990520Y-63539118D01*
X148990517Y-63539119D01*
X148970000Y-63552829D01*
X148902247Y-63574043D01*
X148833781Y-63555259D01*
X148830000Y-63552829D01*
X148809482Y-63539119D01*
X148809479Y-63539118D01*
X148750064Y-63527300D01*
X148049936Y-63527300D01*
X148047200Y-63527300D01*
X147979079Y-63507298D01*
X147932586Y-63453642D01*
X147921200Y-63401300D01*
X147921200Y-63027384D01*
X147893333Y-62923383D01*
X147885681Y-62894824D01*
X147817063Y-62775975D01*
X147616025Y-62574936D01*
X147529020Y-62524705D01*
X147497176Y-62506319D01*
X147497177Y-62506319D01*
X147452989Y-62494479D01*
X147364617Y-62470800D01*
X144652000Y-62470800D01*
X144583879Y-62450798D01*
X144537386Y-62397142D01*
X144526000Y-62344800D01*
X144526000Y-59996190D01*
X144546002Y-59928069D01*
X144562905Y-59907095D01*
X146267095Y-58202905D01*
X146329407Y-58168879D01*
X146356190Y-58166000D01*
X150315810Y-58166000D01*
X150383931Y-58186002D01*
G37*
%TD.AperFunction*%
%TD*%
M02*
