%TF.GenerationSoftware,KiCad,Pcbnew,9.0.4*%
%TF.CreationDate,2025-11-09T18:49:48-06:00*%
%TF.ProjectId,Smart_MoCo,536d6172-745f-44d6-9f43-6f2e6b696361,rev?*%
%TF.SameCoordinates,Original*%
%TF.FileFunction,Copper,L2,Inr*%
%TF.FilePolarity,Positive*%
%FSLAX46Y46*%
G04 Gerber Fmt 4.6, Leading zero omitted, Abs format (unit mm)*
G04 Created by KiCad (PCBNEW 9.0.4) date 2025-11-09 18:49:48*
%MOMM*%
%LPD*%
G01*
G04 APERTURE LIST*
%TA.AperFunction,ComponentPad*%
%ADD10C,1.955800*%
%TD*%
%TA.AperFunction,ComponentPad*%
%ADD11C,1.600000*%
%TD*%
%TA.AperFunction,ComponentPad*%
%ADD12R,1.700000X1.700000*%
%TD*%
%TA.AperFunction,ComponentPad*%
%ADD13C,1.700000*%
%TD*%
%TA.AperFunction,ViaPad*%
%ADD14C,0.600000*%
%TD*%
G04 APERTURE END LIST*
D10*
%TO.N,/OUTA*%
%TO.C,J4*%
X154305000Y-62103000D03*
%TO.N,/OUTB*%
X150804997Y-62103000D03*
%TD*%
D11*
%TO.N,+12V*%
%TO.C,C7*%
X151638000Y-84455000D03*
%TO.N,GND*%
X155138000Y-84455000D03*
%TD*%
D10*
%TO.N,GND*%
%TO.C,J2*%
X151130000Y-92456000D03*
%TO.N,+12V*%
X147629997Y-92456000D03*
%TD*%
D12*
%TO.N,+3V3*%
%TO.C,J1*%
X155702000Y-96647000D03*
D13*
%TO.N,SWCLK*%
X158242000Y-96647000D03*
%TO.N,SWDIO*%
X160782000Y-96647000D03*
%TO.N,GND*%
X163322000Y-96647000D03*
%TD*%
D14*
%TO.N,CS*%
X156845000Y-89027000D03*
%TO.N,GND*%
X168021000Y-89662000D03*
X162952000Y-73152000D03*
X166243000Y-87119000D03*
X149400000Y-64406000D03*
X168021000Y-91694000D03*
X156400000Y-64406000D03*
X159639000Y-89271091D03*
X157400000Y-64406000D03*
X163148000Y-77089000D03*
X147400000Y-64406000D03*
X155438000Y-92517200D03*
X160424500Y-84836000D03*
X154400000Y-82656000D03*
X144018000Y-72263000D03*
X155400000Y-64406000D03*
X168021000Y-93726000D03*
X148400000Y-64406000D03*
%TO.N,+3V3*%
X167513000Y-77089000D03*
X145415000Y-84201000D03*
X162052000Y-79248000D03*
X162052000Y-81280000D03*
X159512000Y-90297000D03*
X162921500Y-70485000D03*
X154548280Y-89863999D03*
X144018000Y-69469000D03*
X164973000Y-87119000D03*
%TO.N,+12V*%
X157988000Y-77347800D03*
%TO.N,Net-(U2-EN{slash}DIAGA)*%
X155400000Y-82656000D03*
%TO.N,Net-(U2-EN{slash}DIAGB)*%
X151400000Y-82656000D03*
%TO.N,Net-(U2-CS)*%
X152400000Y-82656000D03*
X158599500Y-84836000D03*
%TO.N,CANH*%
X163957000Y-85187000D03*
%TO.N,CANL*%
X163957000Y-84187000D03*
%TO.N,ENC_B*%
X154151922Y-89034562D03*
%TO.N,ENC_A{slash}PWM*%
X161984981Y-86549219D03*
%TO.N,LIM_A*%
X150749000Y-88773000D03*
%TO.N,LIM_B*%
X151511000Y-88142800D03*
%TO.N,Net-(D1-A)*%
X166271000Y-89662000D03*
%TO.N,IN_A*%
X162266792Y-88729142D03*
X156400000Y-82656000D03*
%TO.N,Net-(D2-A)*%
X166271000Y-91694000D03*
%TO.N,Net-(D3-A)*%
X166271000Y-93726000D03*
%TO.N,IN_B*%
X150400000Y-82656000D03*
X156452131Y-85736869D03*
%TO.N,CAN_TX*%
X162179000Y-91186000D03*
X167513000Y-88265000D03*
%TO.N,CAN_RX*%
X163703000Y-87119000D03*
X162369498Y-90169677D03*
%TO.N,/OUTB*%
X146304000Y-66167000D03*
X147955000Y-66167000D03*
X149606000Y-66167000D03*
%TO.N,/OUTA*%
X156591000Y-66167000D03*
X158496000Y-66167000D03*
X155067000Y-66167000D03*
%TD*%
%TA.AperFunction,Conductor*%
%TO.N,GND*%
G36*
X151565786Y-59194502D02*
G01*
X151612279Y-59248158D01*
X151622383Y-59318432D01*
X151609932Y-59357702D01*
X151557833Y-59459951D01*
X151557828Y-59459963D01*
X151505494Y-59621030D01*
X151505493Y-59621035D01*
X151505493Y-59621036D01*
X151478998Y-59788317D01*
X151478998Y-59957683D01*
X151492855Y-60045170D01*
X151505494Y-60124969D01*
X151552302Y-60269028D01*
X151557830Y-60286041D01*
X151557831Y-60286042D01*
X151634722Y-60436950D01*
X151734272Y-60573969D01*
X151854028Y-60693725D01*
X151854031Y-60693727D01*
X151991051Y-60793278D01*
X152141957Y-60870168D01*
X152303034Y-60922505D01*
X152470315Y-60949000D01*
X152470318Y-60949000D01*
X152639678Y-60949000D01*
X152639681Y-60949000D01*
X152806962Y-60922505D01*
X152968039Y-60870168D01*
X153118945Y-60793278D01*
X153255965Y-60693727D01*
X153375725Y-60573967D01*
X153475276Y-60436947D01*
X153552166Y-60286041D01*
X153604503Y-60124964D01*
X153630998Y-59957683D01*
X153630998Y-59788317D01*
X153604503Y-59621036D01*
X153552166Y-59459959D01*
X153500064Y-59357702D01*
X153486960Y-59287926D01*
X153513660Y-59222141D01*
X153571688Y-59181235D01*
X153612331Y-59174500D01*
X165162201Y-59174500D01*
X165230322Y-59194502D01*
X165276815Y-59248158D01*
X165286919Y-59318432D01*
X165257425Y-59383012D01*
X165251296Y-59389595D01*
X165107023Y-59533867D01*
X165107004Y-59533888D01*
X164919440Y-59778324D01*
X164765384Y-60045157D01*
X164765379Y-60045168D01*
X164647465Y-60329836D01*
X164567716Y-60627463D01*
X164527500Y-60932937D01*
X164527500Y-61241062D01*
X164567716Y-61546536D01*
X164567717Y-61546542D01*
X164567718Y-61546544D01*
X164647465Y-61844164D01*
X164765378Y-62128830D01*
X164765379Y-62128831D01*
X164765384Y-62128842D01*
X164919440Y-62395675D01*
X165107004Y-62640111D01*
X165107023Y-62640132D01*
X165324867Y-62857976D01*
X165324877Y-62857985D01*
X165324883Y-62857991D01*
X165324886Y-62857993D01*
X165324888Y-62857995D01*
X165569324Y-63045559D01*
X165836157Y-63199615D01*
X165836161Y-63199616D01*
X165836170Y-63199622D01*
X166120836Y-63317535D01*
X166418456Y-63397282D01*
X166418462Y-63397282D01*
X166418463Y-63397283D01*
X166453515Y-63401897D01*
X166723940Y-63437500D01*
X166723947Y-63437500D01*
X167032053Y-63437500D01*
X167032060Y-63437500D01*
X167337544Y-63397282D01*
X167635164Y-63317535D01*
X167919830Y-63199622D01*
X168186670Y-63045562D01*
X168186670Y-63045561D01*
X168186675Y-63045559D01*
X168328632Y-62936630D01*
X168431117Y-62857991D01*
X168495298Y-62793810D01*
X168575405Y-62713704D01*
X168637717Y-62679678D01*
X168708532Y-62684743D01*
X168765368Y-62727290D01*
X168790179Y-62793810D01*
X168790500Y-62802799D01*
X168790500Y-96147878D01*
X168790230Y-96156119D01*
X168774790Y-96391691D01*
X168772639Y-96408032D01*
X168727386Y-96635531D01*
X168723120Y-96651450D01*
X168648564Y-96871085D01*
X168642257Y-96886312D01*
X168539668Y-97094342D01*
X168531427Y-97108616D01*
X168402565Y-97301472D01*
X168392532Y-97314548D01*
X168239594Y-97488940D01*
X168227940Y-97500594D01*
X168053548Y-97653532D01*
X168040472Y-97663565D01*
X167847616Y-97792427D01*
X167833342Y-97800668D01*
X167625312Y-97903257D01*
X167610085Y-97909564D01*
X167390450Y-97984120D01*
X167374531Y-97988386D01*
X167147032Y-98033639D01*
X167130691Y-98035790D01*
X166895120Y-98051230D01*
X166886879Y-98051500D01*
X144771912Y-98051500D01*
X144763669Y-98051230D01*
X144735838Y-98049405D01*
X144528045Y-98035781D01*
X144511702Y-98033629D01*
X144284161Y-97988358D01*
X144268240Y-97984090D01*
X144048746Y-97909564D01*
X144048558Y-97909500D01*
X144033337Y-97903194D01*
X143825263Y-97800557D01*
X143810998Y-97792319D01*
X143618115Y-97663403D01*
X143605038Y-97653366D01*
X143430636Y-97500373D01*
X143418981Y-97488714D01*
X143398597Y-97465462D01*
X143266042Y-97314256D01*
X143256012Y-97301179D01*
X143152446Y-97146113D01*
X143127163Y-97108258D01*
X143118926Y-97093984D01*
X143016364Y-96885885D01*
X143010059Y-96870653D01*
X142935542Y-96650946D01*
X142931280Y-96635022D01*
X142886085Y-96407473D01*
X142883938Y-96391129D01*
X142880580Y-96339647D01*
X142868550Y-96155218D01*
X142868284Y-96146995D01*
X142868305Y-96085489D01*
X142868304Y-96085487D01*
X142868309Y-96070819D01*
X142868307Y-96070806D01*
X142868403Y-95776935D01*
X154648300Y-95776935D01*
X154648300Y-97517064D01*
X154660118Y-97576479D01*
X154660119Y-97576480D01*
X154705140Y-97643860D01*
X154772520Y-97688881D01*
X154831936Y-97700700D01*
X154831941Y-97700700D01*
X156572059Y-97700700D01*
X156572064Y-97700700D01*
X156631480Y-97688881D01*
X156698860Y-97643860D01*
X156743881Y-97576480D01*
X156755700Y-97517064D01*
X156755700Y-96543217D01*
X157188300Y-96543217D01*
X157188300Y-96543220D01*
X157188300Y-96750780D01*
X157228793Y-96954353D01*
X157228794Y-96954355D01*
X157228795Y-96954360D01*
X157308221Y-97146109D01*
X157308223Y-97146113D01*
X157308224Y-97146114D01*
X157423538Y-97318694D01*
X157570306Y-97465462D01*
X157736455Y-97576479D01*
X157742886Y-97580776D01*
X157742890Y-97580778D01*
X157934639Y-97660204D01*
X157934640Y-97660204D01*
X157934647Y-97660207D01*
X158138220Y-97700700D01*
X158138221Y-97700700D01*
X158345779Y-97700700D01*
X158345780Y-97700700D01*
X158549353Y-97660207D01*
X158741114Y-97580776D01*
X158913694Y-97465462D01*
X159060462Y-97318694D01*
X159175776Y-97146114D01*
X159255207Y-96954353D01*
X159295700Y-96750780D01*
X159295700Y-96543220D01*
X159295699Y-96543217D01*
X159728300Y-96543217D01*
X159728300Y-96543220D01*
X159728300Y-96750780D01*
X159768793Y-96954353D01*
X159768794Y-96954355D01*
X159768795Y-96954360D01*
X159848221Y-97146109D01*
X159848223Y-97146113D01*
X159848224Y-97146114D01*
X159963538Y-97318694D01*
X160110306Y-97465462D01*
X160276455Y-97576479D01*
X160282886Y-97580776D01*
X160282890Y-97580778D01*
X160474639Y-97660204D01*
X160474640Y-97660204D01*
X160474647Y-97660207D01*
X160678220Y-97700700D01*
X160678221Y-97700700D01*
X160885779Y-97700700D01*
X160885780Y-97700700D01*
X161089353Y-97660207D01*
X161281114Y-97580776D01*
X161453694Y-97465462D01*
X161600462Y-97318694D01*
X161715776Y-97146114D01*
X161795207Y-96954353D01*
X161835700Y-96750780D01*
X161835700Y-96543220D01*
X161795207Y-96339647D01*
X161744409Y-96217011D01*
X161715778Y-96147890D01*
X161715776Y-96147886D01*
X161673863Y-96085159D01*
X161600462Y-95975306D01*
X161453694Y-95828538D01*
X161366238Y-95770102D01*
X161281113Y-95713223D01*
X161281109Y-95713221D01*
X161089360Y-95633795D01*
X161089355Y-95633794D01*
X161089353Y-95633793D01*
X160966331Y-95609322D01*
X160885782Y-95593300D01*
X160885780Y-95593300D01*
X160678220Y-95593300D01*
X160678217Y-95593300D01*
X160557392Y-95617333D01*
X160474647Y-95633793D01*
X160474645Y-95633793D01*
X160474639Y-95633795D01*
X160282890Y-95713221D01*
X160282886Y-95713223D01*
X160110310Y-95828535D01*
X160110303Y-95828540D01*
X159963540Y-95975303D01*
X159963535Y-95975310D01*
X159848223Y-96147886D01*
X159848221Y-96147890D01*
X159768795Y-96339639D01*
X159768793Y-96339645D01*
X159768793Y-96339647D01*
X159752333Y-96422392D01*
X159728300Y-96543217D01*
X159295699Y-96543217D01*
X159255207Y-96339647D01*
X159204409Y-96217011D01*
X159175778Y-96147890D01*
X159175776Y-96147886D01*
X159133863Y-96085159D01*
X159060462Y-95975306D01*
X158913694Y-95828538D01*
X158826238Y-95770102D01*
X158741113Y-95713223D01*
X158741109Y-95713221D01*
X158549360Y-95633795D01*
X158549355Y-95633794D01*
X158549353Y-95633793D01*
X158426331Y-95609322D01*
X158345782Y-95593300D01*
X158345780Y-95593300D01*
X158138220Y-95593300D01*
X158138217Y-95593300D01*
X158017392Y-95617333D01*
X157934647Y-95633793D01*
X157934645Y-95633793D01*
X157934639Y-95633795D01*
X157742890Y-95713221D01*
X157742886Y-95713223D01*
X157570310Y-95828535D01*
X157570303Y-95828540D01*
X157423540Y-95975303D01*
X157423535Y-95975310D01*
X157308223Y-96147886D01*
X157308221Y-96147890D01*
X157228795Y-96339639D01*
X157228793Y-96339645D01*
X157228793Y-96339647D01*
X157212333Y-96422392D01*
X157188300Y-96543217D01*
X156755700Y-96543217D01*
X156755700Y-95776936D01*
X156743881Y-95717520D01*
X156698860Y-95650140D01*
X156631480Y-95605119D01*
X156631479Y-95605118D01*
X156572064Y-95593300D01*
X154831936Y-95593300D01*
X154831935Y-95593300D01*
X154772520Y-95605118D01*
X154705140Y-95650140D01*
X154660118Y-95717520D01*
X154648300Y-95776935D01*
X142868403Y-95776935D01*
X142869093Y-93659687D01*
X165767300Y-93659687D01*
X165767300Y-93792313D01*
X165790184Y-93877718D01*
X165801627Y-93920422D01*
X165867937Y-94035275D01*
X165867945Y-94035285D01*
X165961714Y-94129054D01*
X165961719Y-94129058D01*
X165961721Y-94129060D01*
X166076579Y-94195373D01*
X166204687Y-94229700D01*
X166204689Y-94229700D01*
X166337311Y-94229700D01*
X166337313Y-94229700D01*
X166465421Y-94195373D01*
X166580279Y-94129060D01*
X166674060Y-94035279D01*
X166740373Y-93920421D01*
X166774700Y-93792313D01*
X166774700Y-93659687D01*
X166740373Y-93531579D01*
X166674060Y-93416721D01*
X166674058Y-93416719D01*
X166674054Y-93416714D01*
X166580285Y-93322945D01*
X166580275Y-93322937D01*
X166465422Y-93256627D01*
X166422718Y-93245184D01*
X166337313Y-93222300D01*
X166204687Y-93222300D01*
X166140633Y-93239463D01*
X166076577Y-93256627D01*
X165961724Y-93322937D01*
X165961714Y-93322945D01*
X165867945Y-93416714D01*
X165867937Y-93416724D01*
X165801627Y-93531577D01*
X165799595Y-93539161D01*
X165767300Y-93659687D01*
X142869093Y-93659687D01*
X142869516Y-92363006D01*
X146448397Y-92363006D01*
X146448397Y-92548994D01*
X146477492Y-92732692D01*
X146477493Y-92732697D01*
X146534963Y-92909572D01*
X146534965Y-92909577D01*
X146534966Y-92909578D01*
X146619404Y-93075297D01*
X146728724Y-93225763D01*
X146860233Y-93357272D01*
X146942062Y-93416724D01*
X147010703Y-93466595D01*
X147176420Y-93551032D01*
X147353299Y-93608503D01*
X147353300Y-93608503D01*
X147353305Y-93608505D01*
X147537003Y-93637600D01*
X147537006Y-93637600D01*
X147722988Y-93637600D01*
X147722991Y-93637600D01*
X147906689Y-93608505D01*
X148083574Y-93551032D01*
X148249291Y-93466595D01*
X148399758Y-93357274D01*
X148531271Y-93225761D01*
X148640592Y-93075294D01*
X148725029Y-92909577D01*
X148782502Y-92732692D01*
X148811597Y-92548994D01*
X148811597Y-92363006D01*
X148782502Y-92179308D01*
X148725029Y-92002423D01*
X148640592Y-91836706D01*
X148531271Y-91686239D01*
X148531269Y-91686236D01*
X148399760Y-91554727D01*
X148249294Y-91445407D01*
X148249293Y-91445406D01*
X148249291Y-91445405D01*
X148083574Y-91360968D01*
X148083571Y-91360967D01*
X148083569Y-91360966D01*
X147906692Y-91303496D01*
X147906696Y-91303496D01*
X147872495Y-91298079D01*
X147722991Y-91274400D01*
X147537003Y-91274400D01*
X147362744Y-91302000D01*
X147353299Y-91303496D01*
X147176424Y-91360966D01*
X147176418Y-91360969D01*
X147010699Y-91445407D01*
X146860233Y-91554727D01*
X146728724Y-91686236D01*
X146619404Y-91836702D01*
X146534966Y-92002421D01*
X146534963Y-92002427D01*
X146477493Y-92179302D01*
X146477492Y-92179307D01*
X146477492Y-92179308D01*
X146448397Y-92363006D01*
X142869516Y-92363006D01*
X142870240Y-90141317D01*
X148303998Y-90141317D01*
X148303998Y-90310683D01*
X148313029Y-90367699D01*
X148330494Y-90477969D01*
X148372185Y-90606279D01*
X148382830Y-90639041D01*
X148459720Y-90789947D01*
X148459722Y-90789950D01*
X148559272Y-90926969D01*
X148679028Y-91046725D01*
X148679031Y-91046727D01*
X148816051Y-91146278D01*
X148966957Y-91223168D01*
X149128034Y-91275505D01*
X149295315Y-91302000D01*
X149295318Y-91302000D01*
X149464678Y-91302000D01*
X149464681Y-91302000D01*
X149631962Y-91275505D01*
X149793039Y-91223168D01*
X149943945Y-91146278D01*
X149980544Y-91119687D01*
X161675300Y-91119687D01*
X161675300Y-91252313D01*
X161689015Y-91303496D01*
X161709627Y-91380422D01*
X161775937Y-91495275D01*
X161775945Y-91495285D01*
X161869714Y-91589054D01*
X161869719Y-91589058D01*
X161869721Y-91589060D01*
X161984579Y-91655373D01*
X162112687Y-91689700D01*
X162112689Y-91689700D01*
X162245311Y-91689700D01*
X162245313Y-91689700D01*
X162373421Y-91655373D01*
X162421375Y-91627687D01*
X165767300Y-91627687D01*
X165767300Y-91760313D01*
X165787769Y-91836702D01*
X165801627Y-91888422D01*
X165867937Y-92003275D01*
X165867945Y-92003285D01*
X165961714Y-92097054D01*
X165961719Y-92097058D01*
X165961721Y-92097060D01*
X166076579Y-92163373D01*
X166204687Y-92197700D01*
X166204689Y-92197700D01*
X166337311Y-92197700D01*
X166337313Y-92197700D01*
X166465421Y-92163373D01*
X166580279Y-92097060D01*
X166674060Y-92003279D01*
X166740373Y-91888421D01*
X166774700Y-91760313D01*
X166774700Y-91627687D01*
X166740373Y-91499579D01*
X166737894Y-91495285D01*
X166674062Y-91384724D01*
X166674054Y-91384714D01*
X166580285Y-91290945D01*
X166580275Y-91290937D01*
X166465422Y-91224627D01*
X166422718Y-91213184D01*
X166337313Y-91190300D01*
X166204687Y-91190300D01*
X166140633Y-91207463D01*
X166076577Y-91224627D01*
X165961724Y-91290937D01*
X165961714Y-91290945D01*
X165867945Y-91384714D01*
X165867937Y-91384724D01*
X165801627Y-91499577D01*
X165793386Y-91530333D01*
X165767300Y-91627687D01*
X162421375Y-91627687D01*
X162488279Y-91589060D01*
X162488285Y-91589054D01*
X162547007Y-91530333D01*
X162582054Y-91495285D01*
X162582060Y-91495279D01*
X162648373Y-91380421D01*
X162682700Y-91252313D01*
X162682700Y-91119687D01*
X162648373Y-90991579D01*
X162648372Y-90991577D01*
X162582062Y-90876724D01*
X162582054Y-90876714D01*
X162540854Y-90835514D01*
X162506828Y-90773202D01*
X162511893Y-90702387D01*
X162554440Y-90645551D01*
X162566937Y-90637307D01*
X162678777Y-90572737D01*
X162772558Y-90478956D01*
X162838871Y-90364098D01*
X162873198Y-90235990D01*
X162873198Y-90103364D01*
X162838871Y-89975256D01*
X162838163Y-89974030D01*
X162772560Y-89860401D01*
X162772552Y-89860391D01*
X162678783Y-89766622D01*
X162678779Y-89766619D01*
X162678777Y-89766617D01*
X162563919Y-89700304D01*
X162435811Y-89665977D01*
X162303185Y-89665977D01*
X162239131Y-89683140D01*
X162175075Y-89700304D01*
X162060222Y-89766614D01*
X162060212Y-89766622D01*
X161966443Y-89860391D01*
X161966435Y-89860401D01*
X161900125Y-89975254D01*
X161896785Y-89987721D01*
X161865798Y-90103364D01*
X161865798Y-90235990D01*
X161874123Y-90267059D01*
X161900125Y-90364099D01*
X161966435Y-90478952D01*
X161966443Y-90478962D01*
X162007643Y-90520162D01*
X162041669Y-90582474D01*
X162036604Y-90653289D01*
X161994057Y-90710125D01*
X161981548Y-90718376D01*
X161869724Y-90782937D01*
X161869714Y-90782945D01*
X161775945Y-90876714D01*
X161775937Y-90876724D01*
X161709627Y-90991577D01*
X161701386Y-91022333D01*
X161675300Y-91119687D01*
X149980544Y-91119687D01*
X150080965Y-91046727D01*
X150080970Y-91046722D01*
X150105360Y-91022333D01*
X150200720Y-90926972D01*
X150200723Y-90926969D01*
X150200725Y-90926967D01*
X150300276Y-90789947D01*
X150377166Y-90639041D01*
X150429503Y-90477964D01*
X150455998Y-90310683D01*
X150455998Y-90141317D01*
X150429503Y-89974036D01*
X150377166Y-89812959D01*
X150300276Y-89662053D01*
X150218663Y-89549723D01*
X150200723Y-89525030D01*
X150080967Y-89405274D01*
X149943948Y-89305724D01*
X149943947Y-89305723D01*
X149943945Y-89305722D01*
X149793039Y-89228832D01*
X149793036Y-89228831D01*
X149793034Y-89228830D01*
X149631967Y-89176496D01*
X149631963Y-89176495D01*
X149631962Y-89176495D01*
X149464681Y-89150000D01*
X149295315Y-89150000D01*
X149130768Y-89176062D01*
X149128028Y-89176496D01*
X148966961Y-89228830D01*
X148966955Y-89228833D01*
X148816047Y-89305724D01*
X148679028Y-89405274D01*
X148559272Y-89525030D01*
X148459722Y-89662049D01*
X148382831Y-89812957D01*
X148382828Y-89812963D01*
X148330494Y-89974030D01*
X148330493Y-89974035D01*
X148330493Y-89974036D01*
X148303998Y-90141317D01*
X142870240Y-90141317D01*
X142870708Y-88706687D01*
X150245300Y-88706687D01*
X150245300Y-88839313D01*
X150245522Y-88840141D01*
X150279627Y-88967422D01*
X150345937Y-89082275D01*
X150345945Y-89082285D01*
X150439714Y-89176054D01*
X150439719Y-89176058D01*
X150439721Y-89176060D01*
X150439722Y-89176061D01*
X150439724Y-89176062D01*
X150554577Y-89242372D01*
X150554579Y-89242373D01*
X150682687Y-89276700D01*
X150682689Y-89276700D01*
X150815311Y-89276700D01*
X150815313Y-89276700D01*
X150943421Y-89242373D01*
X151058279Y-89176060D01*
X151152060Y-89082279D01*
X151217895Y-88968249D01*
X153648222Y-88968249D01*
X153648222Y-89100875D01*
X153668368Y-89176060D01*
X153682549Y-89228984D01*
X153748859Y-89343837D01*
X153748867Y-89343847D01*
X153842636Y-89437616D01*
X153842641Y-89437620D01*
X153842643Y-89437622D01*
X153842644Y-89437623D01*
X153842646Y-89437624D01*
X153894530Y-89467579D01*
X153957501Y-89503935D01*
X153990480Y-89512772D01*
X154051101Y-89549723D01*
X154082123Y-89613584D01*
X154079574Y-89667090D01*
X154078907Y-89669576D01*
X154078907Y-89669578D01*
X154044580Y-89797686D01*
X154044580Y-89930312D01*
X154056623Y-89975256D01*
X154078907Y-90058421D01*
X154145217Y-90173274D01*
X154145225Y-90173284D01*
X154238994Y-90267053D01*
X154238999Y-90267057D01*
X154239001Y-90267059D01*
X154353859Y-90333372D01*
X154481967Y-90367699D01*
X154481969Y-90367699D01*
X154614591Y-90367699D01*
X154614593Y-90367699D01*
X154742701Y-90333372D01*
X154857559Y-90267059D01*
X154893931Y-90230687D01*
X159008300Y-90230687D01*
X159008300Y-90363313D01*
X159031184Y-90448718D01*
X159042627Y-90491422D01*
X159108937Y-90606275D01*
X159108945Y-90606285D01*
X159202714Y-90700054D01*
X159202719Y-90700058D01*
X159202721Y-90700060D01*
X159202722Y-90700061D01*
X159202724Y-90700062D01*
X159220154Y-90710125D01*
X159317579Y-90766373D01*
X159445687Y-90800700D01*
X159445689Y-90800700D01*
X159578311Y-90800700D01*
X159578313Y-90800700D01*
X159706421Y-90766373D01*
X159821279Y-90700060D01*
X159915060Y-90606279D01*
X159981373Y-90491421D01*
X160015700Y-90363313D01*
X160015700Y-90230687D01*
X159981373Y-90102579D01*
X159959713Y-90065062D01*
X159915062Y-89987724D01*
X159915054Y-89987714D01*
X159821285Y-89893945D01*
X159821275Y-89893937D01*
X159706422Y-89827627D01*
X159651680Y-89812959D01*
X159578313Y-89793300D01*
X159445687Y-89793300D01*
X159381633Y-89810463D01*
X159317577Y-89827627D01*
X159202724Y-89893937D01*
X159202714Y-89893945D01*
X159108945Y-89987714D01*
X159108937Y-89987724D01*
X159042627Y-90102577D01*
X159023684Y-90173274D01*
X159008300Y-90230687D01*
X154893931Y-90230687D01*
X154951340Y-90173278D01*
X155017653Y-90058420D01*
X155051980Y-89930312D01*
X155051980Y-89797686D01*
X155017653Y-89669578D01*
X155015574Y-89665977D01*
X154974992Y-89595687D01*
X165767300Y-89595687D01*
X165767300Y-89728313D01*
X165777564Y-89766617D01*
X165801627Y-89856422D01*
X165867937Y-89971275D01*
X165867945Y-89971285D01*
X165961714Y-90065054D01*
X165961719Y-90065058D01*
X165961721Y-90065060D01*
X165961722Y-90065061D01*
X165961724Y-90065062D01*
X166076577Y-90131372D01*
X166076579Y-90131373D01*
X166204687Y-90165700D01*
X166204689Y-90165700D01*
X166337311Y-90165700D01*
X166337313Y-90165700D01*
X166465421Y-90131373D01*
X166580279Y-90065060D01*
X166674060Y-89971279D01*
X166740373Y-89856421D01*
X166774700Y-89728313D01*
X166774700Y-89595687D01*
X166740373Y-89467579D01*
X166736542Y-89460944D01*
X166674062Y-89352724D01*
X166674054Y-89352714D01*
X166580285Y-89258945D01*
X166580275Y-89258937D01*
X166465422Y-89192627D01*
X166405220Y-89176496D01*
X166337313Y-89158300D01*
X166204687Y-89158300D01*
X166140633Y-89175463D01*
X166076577Y-89192627D01*
X165961724Y-89258937D01*
X165961714Y-89258945D01*
X165867945Y-89352714D01*
X165867937Y-89352724D01*
X165801627Y-89467577D01*
X165782687Y-89538262D01*
X165767300Y-89595687D01*
X154974992Y-89595687D01*
X154951342Y-89554723D01*
X154951334Y-89554713D01*
X154857565Y-89460944D01*
X154857555Y-89460936D01*
X154742700Y-89394625D01*
X154709720Y-89385788D01*
X154649098Y-89348835D01*
X154618078Y-89284974D01*
X154620628Y-89231469D01*
X154621294Y-89228984D01*
X154621295Y-89228983D01*
X154655622Y-89100875D01*
X154655622Y-88968249D01*
X154653596Y-88960687D01*
X156341300Y-88960687D01*
X156341300Y-89093313D01*
X156358714Y-89158300D01*
X156375627Y-89221422D01*
X156441937Y-89336275D01*
X156441945Y-89336285D01*
X156535714Y-89430054D01*
X156535719Y-89430058D01*
X156535721Y-89430060D01*
X156535722Y-89430061D01*
X156535724Y-89430062D01*
X156600706Y-89467579D01*
X156650579Y-89496373D01*
X156778687Y-89530700D01*
X156778689Y-89530700D01*
X156911311Y-89530700D01*
X156911313Y-89530700D01*
X157039421Y-89496373D01*
X157154279Y-89430060D01*
X157248060Y-89336279D01*
X157314373Y-89221421D01*
X157348700Y-89093313D01*
X157348700Y-88960687D01*
X157314373Y-88832579D01*
X157292940Y-88795455D01*
X157248062Y-88717724D01*
X157248054Y-88717714D01*
X157193169Y-88662829D01*
X161763092Y-88662829D01*
X161763092Y-88795455D01*
X161774844Y-88839313D01*
X161797419Y-88923564D01*
X161863729Y-89038417D01*
X161863737Y-89038427D01*
X161957506Y-89132196D01*
X161957511Y-89132200D01*
X161957513Y-89132202D01*
X161957514Y-89132203D01*
X161957516Y-89132204D01*
X162072369Y-89198514D01*
X162072371Y-89198515D01*
X162200479Y-89232842D01*
X162200481Y-89232842D01*
X162333103Y-89232842D01*
X162333105Y-89232842D01*
X162461213Y-89198515D01*
X162576071Y-89132202D01*
X162669852Y-89038421D01*
X162736165Y-88923563D01*
X162770492Y-88795455D01*
X162770492Y-88662829D01*
X162736165Y-88534721D01*
X162695175Y-88463724D01*
X162669854Y-88419866D01*
X162669846Y-88419856D01*
X162576077Y-88326087D01*
X162576067Y-88326079D01*
X162530113Y-88299548D01*
X162461213Y-88259769D01*
X162333105Y-88225442D01*
X162200479Y-88225442D01*
X162136425Y-88242605D01*
X162072369Y-88259769D01*
X161957516Y-88326079D01*
X161957506Y-88326087D01*
X161863737Y-88419856D01*
X161863729Y-88419866D01*
X161797419Y-88534719D01*
X161785667Y-88578579D01*
X161763092Y-88662829D01*
X157193169Y-88662829D01*
X157154285Y-88623945D01*
X157154275Y-88623937D01*
X157039422Y-88557627D01*
X156975742Y-88540564D01*
X156911313Y-88523300D01*
X156778687Y-88523300D01*
X156714633Y-88540463D01*
X156650577Y-88557627D01*
X156535724Y-88623937D01*
X156535714Y-88623945D01*
X156441945Y-88717714D01*
X156441937Y-88717724D01*
X156375627Y-88832577D01*
X156352742Y-88917984D01*
X156341300Y-88960687D01*
X154653596Y-88960687D01*
X154621295Y-88840141D01*
X154595496Y-88795455D01*
X154554984Y-88725286D01*
X154554976Y-88725276D01*
X154461207Y-88631507D01*
X154461197Y-88631499D01*
X154346344Y-88565189D01*
X154303640Y-88553746D01*
X154218235Y-88530862D01*
X154085609Y-88530862D01*
X154029659Y-88545854D01*
X153957499Y-88565189D01*
X153842646Y-88631499D01*
X153842636Y-88631507D01*
X153748867Y-88725276D01*
X153748859Y-88725286D01*
X153682549Y-88840139D01*
X153659664Y-88925546D01*
X153648222Y-88968249D01*
X151217895Y-88968249D01*
X151218373Y-88967421D01*
X151252700Y-88839313D01*
X151252700Y-88750550D01*
X151253899Y-88741922D01*
X151265055Y-88717182D01*
X151272702Y-88691142D01*
X151279427Y-88685314D01*
X151283086Y-88677202D01*
X151305847Y-88662421D01*
X151326358Y-88644649D01*
X151335166Y-88643382D01*
X151342630Y-88638536D01*
X151369767Y-88638407D01*
X151396632Y-88634545D01*
X151411307Y-88637555D01*
X151444687Y-88646500D01*
X151577311Y-88646500D01*
X151577313Y-88646500D01*
X151705421Y-88612173D01*
X151820279Y-88545860D01*
X151914060Y-88452079D01*
X151980373Y-88337221D01*
X152014700Y-88209113D01*
X152014700Y-88198687D01*
X167009300Y-88198687D01*
X167009300Y-88331313D01*
X167019652Y-88369945D01*
X167043627Y-88459422D01*
X167109937Y-88574275D01*
X167109945Y-88574285D01*
X167203714Y-88668054D01*
X167203719Y-88668058D01*
X167203721Y-88668060D01*
X167203722Y-88668061D01*
X167203724Y-88668062D01*
X167318577Y-88734372D01*
X167318579Y-88734373D01*
X167446687Y-88768700D01*
X167446689Y-88768700D01*
X167579311Y-88768700D01*
X167579313Y-88768700D01*
X167707421Y-88734373D01*
X167822279Y-88668060D01*
X167916060Y-88574279D01*
X167982373Y-88459421D01*
X168016700Y-88331313D01*
X168016700Y-88198687D01*
X167982373Y-88070579D01*
X167916060Y-87955721D01*
X167916058Y-87955719D01*
X167916054Y-87955714D01*
X167822285Y-87861945D01*
X167822275Y-87861937D01*
X167707422Y-87795627D01*
X167664718Y-87784184D01*
X167579313Y-87761300D01*
X167446687Y-87761300D01*
X167382633Y-87778463D01*
X167318577Y-87795627D01*
X167203724Y-87861937D01*
X167203714Y-87861945D01*
X167109945Y-87955714D01*
X167109937Y-87955724D01*
X167043627Y-88070577D01*
X167020742Y-88155984D01*
X167009300Y-88198687D01*
X152014700Y-88198687D01*
X152014700Y-88076487D01*
X151980373Y-87948379D01*
X151914060Y-87833521D01*
X151914058Y-87833519D01*
X151914054Y-87833514D01*
X151820285Y-87739745D01*
X151820275Y-87739737D01*
X151705422Y-87673427D01*
X151662718Y-87661984D01*
X151577313Y-87639100D01*
X151444687Y-87639100D01*
X151380633Y-87656263D01*
X151316577Y-87673427D01*
X151201724Y-87739737D01*
X151201714Y-87739745D01*
X151107945Y-87833514D01*
X151107937Y-87833524D01*
X151041627Y-87948377D01*
X151007300Y-88076488D01*
X151007300Y-88156536D01*
X150987298Y-88224657D01*
X150933642Y-88271150D01*
X150863368Y-88281254D01*
X150848689Y-88278243D01*
X150815313Y-88269300D01*
X150682687Y-88269300D01*
X150638075Y-88281254D01*
X150554577Y-88303627D01*
X150439724Y-88369937D01*
X150439714Y-88369945D01*
X150345945Y-88463714D01*
X150345937Y-88463724D01*
X150279627Y-88578577D01*
X150261427Y-88646500D01*
X150245300Y-88706687D01*
X142870708Y-88706687D01*
X142871433Y-86482906D01*
X161481281Y-86482906D01*
X161481281Y-86615532D01*
X161490417Y-86649627D01*
X161515608Y-86743641D01*
X161581918Y-86858494D01*
X161581926Y-86858504D01*
X161675695Y-86952273D01*
X161675700Y-86952277D01*
X161675702Y-86952279D01*
X161790560Y-87018592D01*
X161918668Y-87052919D01*
X161918670Y-87052919D01*
X162051292Y-87052919D01*
X162051294Y-87052919D01*
X162052160Y-87052687D01*
X163199300Y-87052687D01*
X163199300Y-87185313D01*
X163222184Y-87270718D01*
X163233627Y-87313422D01*
X163299937Y-87428275D01*
X163299945Y-87428285D01*
X163393714Y-87522054D01*
X163393719Y-87522058D01*
X163393721Y-87522060D01*
X163508579Y-87588373D01*
X163636687Y-87622700D01*
X163636689Y-87622700D01*
X163769311Y-87622700D01*
X163769313Y-87622700D01*
X163897421Y-87588373D01*
X164012279Y-87522060D01*
X164106060Y-87428279D01*
X164172373Y-87313421D01*
X164206700Y-87185313D01*
X164206700Y-87052687D01*
X164469300Y-87052687D01*
X164469300Y-87185313D01*
X164492184Y-87270718D01*
X164503627Y-87313422D01*
X164569937Y-87428275D01*
X164569945Y-87428285D01*
X164663714Y-87522054D01*
X164663719Y-87522058D01*
X164663721Y-87522060D01*
X164778579Y-87588373D01*
X164906687Y-87622700D01*
X164906689Y-87622700D01*
X165039311Y-87622700D01*
X165039313Y-87622700D01*
X165167421Y-87588373D01*
X165282279Y-87522060D01*
X165376060Y-87428279D01*
X165442373Y-87313421D01*
X165476700Y-87185313D01*
X165476700Y-87052687D01*
X165442373Y-86924579D01*
X165404225Y-86858504D01*
X165376062Y-86809724D01*
X165376054Y-86809714D01*
X165282285Y-86715945D01*
X165282275Y-86715937D01*
X165167422Y-86649627D01*
X165124718Y-86638184D01*
X165039313Y-86615300D01*
X164906687Y-86615300D01*
X164842633Y-86632463D01*
X164778577Y-86649627D01*
X164663724Y-86715937D01*
X164663714Y-86715945D01*
X164569945Y-86809714D01*
X164569937Y-86809724D01*
X164503627Y-86924577D01*
X164496204Y-86952281D01*
X164469300Y-87052687D01*
X164206700Y-87052687D01*
X164172373Y-86924579D01*
X164134225Y-86858504D01*
X164106062Y-86809724D01*
X164106054Y-86809714D01*
X164012285Y-86715945D01*
X164012275Y-86715937D01*
X163897422Y-86649627D01*
X163854718Y-86638184D01*
X163769313Y-86615300D01*
X163636687Y-86615300D01*
X163572633Y-86632463D01*
X163508577Y-86649627D01*
X163393724Y-86715937D01*
X163393714Y-86715945D01*
X163299945Y-86809714D01*
X163299937Y-86809724D01*
X163233627Y-86924577D01*
X163226204Y-86952281D01*
X163199300Y-87052687D01*
X162052160Y-87052687D01*
X162179402Y-87018592D01*
X162294260Y-86952279D01*
X162388041Y-86858498D01*
X162454354Y-86743640D01*
X162488681Y-86615532D01*
X162488681Y-86482906D01*
X162454354Y-86354798D01*
X162388041Y-86239940D01*
X162388039Y-86239938D01*
X162388035Y-86239933D01*
X162294266Y-86146164D01*
X162294256Y-86146156D01*
X162179403Y-86079846D01*
X162136699Y-86068403D01*
X162051294Y-86045519D01*
X161918668Y-86045519D01*
X161854614Y-86062682D01*
X161790558Y-86079846D01*
X161675705Y-86146156D01*
X161675695Y-86146164D01*
X161581926Y-86239933D01*
X161581918Y-86239943D01*
X161515608Y-86354796D01*
X161492723Y-86440203D01*
X161481281Y-86482906D01*
X142871433Y-86482906D01*
X142871698Y-85670556D01*
X155948431Y-85670556D01*
X155948431Y-85803182D01*
X155971315Y-85888587D01*
X155982758Y-85931291D01*
X156049068Y-86046144D01*
X156049076Y-86046154D01*
X156142845Y-86139923D01*
X156142850Y-86139927D01*
X156142852Y-86139929D01*
X156142853Y-86139930D01*
X156142855Y-86139931D01*
X156153651Y-86146164D01*
X156257710Y-86206242D01*
X156385818Y-86240569D01*
X156385820Y-86240569D01*
X156518442Y-86240569D01*
X156518444Y-86240569D01*
X156646552Y-86206242D01*
X156761410Y-86139929D01*
X156855191Y-86046148D01*
X156921504Y-85931290D01*
X156955831Y-85803182D01*
X156955831Y-85670556D01*
X156921504Y-85542448D01*
X156894852Y-85496285D01*
X156855193Y-85427593D01*
X156855185Y-85427583D01*
X156761416Y-85333814D01*
X156761406Y-85333806D01*
X156646553Y-85267496D01*
X156593621Y-85253313D01*
X156518444Y-85233169D01*
X156385818Y-85233169D01*
X156321764Y-85250332D01*
X156257708Y-85267496D01*
X156142855Y-85333806D01*
X156142845Y-85333814D01*
X156049076Y-85427583D01*
X156049068Y-85427593D01*
X155982758Y-85542446D01*
X155959873Y-85627853D01*
X155948431Y-85670556D01*
X142871698Y-85670556D01*
X142872199Y-84134687D01*
X144911300Y-84134687D01*
X144911300Y-84267313D01*
X144928714Y-84332300D01*
X144945627Y-84395422D01*
X145011937Y-84510275D01*
X145011945Y-84510285D01*
X145105714Y-84604054D01*
X145105719Y-84604058D01*
X145105721Y-84604060D01*
X145105722Y-84604061D01*
X145105724Y-84604062D01*
X145170706Y-84641579D01*
X145220579Y-84670373D01*
X145348687Y-84704700D01*
X145348689Y-84704700D01*
X145481311Y-84704700D01*
X145481313Y-84704700D01*
X145609421Y-84670373D01*
X145724279Y-84604060D01*
X145818060Y-84510279D01*
X145884373Y-84395421D01*
X145894898Y-84356140D01*
X150634300Y-84356140D01*
X150634300Y-84553859D01*
X150672872Y-84747768D01*
X150672873Y-84747771D01*
X150685436Y-84778100D01*
X150748533Y-84930430D01*
X150790060Y-84992579D01*
X150858375Y-85094820D01*
X150858380Y-85094826D01*
X150998173Y-85234619D01*
X150998179Y-85234624D01*
X151162570Y-85344467D01*
X151345232Y-85420128D01*
X151539144Y-85458700D01*
X151736856Y-85458700D01*
X151930768Y-85420128D01*
X152113430Y-85344467D01*
X152277821Y-85234624D01*
X152417624Y-85094821D01*
X152527467Y-84930430D01*
X152594049Y-84769687D01*
X158095800Y-84769687D01*
X158095800Y-84902313D01*
X158103334Y-84930429D01*
X158130127Y-85030422D01*
X158196437Y-85145275D01*
X158196445Y-85145285D01*
X158290214Y-85239054D01*
X158290219Y-85239058D01*
X158290221Y-85239060D01*
X158290222Y-85239061D01*
X158290224Y-85239062D01*
X158405077Y-85305372D01*
X158405079Y-85305373D01*
X158533187Y-85339700D01*
X158533189Y-85339700D01*
X158665811Y-85339700D01*
X158665813Y-85339700D01*
X158793921Y-85305373D01*
X158908779Y-85239060D01*
X159002560Y-85145279D01*
X159068873Y-85030421D01*
X159103200Y-84902313D01*
X159103200Y-84769687D01*
X159068873Y-84641579D01*
X159047213Y-84604062D01*
X159002562Y-84526724D01*
X159002554Y-84526714D01*
X158908785Y-84432945D01*
X158908775Y-84432937D01*
X158793922Y-84366627D01*
X158751218Y-84355184D01*
X158665813Y-84332300D01*
X158533187Y-84332300D01*
X158469133Y-84349463D01*
X158405077Y-84366627D01*
X158290224Y-84432937D01*
X158290214Y-84432945D01*
X158196445Y-84526714D01*
X158196437Y-84526724D01*
X158130127Y-84641577D01*
X158110382Y-84715268D01*
X158095800Y-84769687D01*
X152594049Y-84769687D01*
X152603128Y-84747768D01*
X152641700Y-84553856D01*
X152641700Y-84356144D01*
X152603128Y-84162232D01*
X152585920Y-84120687D01*
X163453300Y-84120687D01*
X163453300Y-84253313D01*
X163470456Y-84317339D01*
X163487627Y-84381422D01*
X163553937Y-84496275D01*
X163553945Y-84496285D01*
X163653560Y-84595900D01*
X163651651Y-84597808D01*
X163685656Y-84644397D01*
X163689865Y-84715268D01*
X163655090Y-84777165D01*
X163650632Y-84781027D01*
X163553945Y-84877714D01*
X163553937Y-84877724D01*
X163487627Y-84992577D01*
X163477487Y-85030421D01*
X163453300Y-85120687D01*
X163453300Y-85253313D01*
X163467250Y-85305373D01*
X163487627Y-85381422D01*
X163553937Y-85496275D01*
X163553945Y-85496285D01*
X163647714Y-85590054D01*
X163647719Y-85590058D01*
X163647721Y-85590060D01*
X163762579Y-85656373D01*
X163890687Y-85690700D01*
X163890689Y-85690700D01*
X164023311Y-85690700D01*
X164023313Y-85690700D01*
X164151421Y-85656373D01*
X164266279Y-85590060D01*
X164360060Y-85496279D01*
X164426373Y-85381421D01*
X164460700Y-85253313D01*
X164460700Y-85120687D01*
X164426373Y-84992579D01*
X164426372Y-84992577D01*
X164360062Y-84877724D01*
X164360054Y-84877714D01*
X164260440Y-84778100D01*
X164262351Y-84776188D01*
X164228351Y-84729625D01*
X164224129Y-84658754D01*
X164258893Y-84596851D01*
X164263357Y-84592982D01*
X164360054Y-84496285D01*
X164360060Y-84496279D01*
X164426373Y-84381421D01*
X164460700Y-84253313D01*
X164460700Y-84120687D01*
X164426373Y-83992579D01*
X164360060Y-83877721D01*
X164360058Y-83877719D01*
X164360054Y-83877714D01*
X164266285Y-83783945D01*
X164266275Y-83783937D01*
X164151422Y-83717627D01*
X164108718Y-83706184D01*
X164023313Y-83683300D01*
X163890687Y-83683300D01*
X163826633Y-83700463D01*
X163762577Y-83717627D01*
X163647724Y-83783937D01*
X163647714Y-83783945D01*
X163553945Y-83877714D01*
X163553937Y-83877724D01*
X163487627Y-83992577D01*
X163464742Y-84077984D01*
X163453300Y-84120687D01*
X152585920Y-84120687D01*
X152527467Y-83979570D01*
X152417624Y-83815179D01*
X152417619Y-83815173D01*
X152277826Y-83675380D01*
X152277820Y-83675375D01*
X152223272Y-83638927D01*
X152113430Y-83565533D01*
X151998244Y-83517821D01*
X151930771Y-83489873D01*
X151930768Y-83489872D01*
X151736859Y-83451300D01*
X151736856Y-83451300D01*
X151539144Y-83451300D01*
X151539140Y-83451300D01*
X151345231Y-83489872D01*
X151345228Y-83489873D01*
X151162570Y-83565533D01*
X150998179Y-83675375D01*
X150998173Y-83675380D01*
X150858380Y-83815173D01*
X150858375Y-83815179D01*
X150748533Y-83979570D01*
X150672873Y-84162228D01*
X150672872Y-84162231D01*
X150634300Y-84356140D01*
X145894898Y-84356140D01*
X145918700Y-84267313D01*
X145918700Y-84134687D01*
X145884373Y-84006579D01*
X145876289Y-83992577D01*
X145818062Y-83891724D01*
X145818054Y-83891714D01*
X145724285Y-83797945D01*
X145724275Y-83797937D01*
X145609422Y-83731627D01*
X145557173Y-83717627D01*
X145481313Y-83697300D01*
X145348687Y-83697300D01*
X145284633Y-83714463D01*
X145220577Y-83731627D01*
X145105724Y-83797937D01*
X145105714Y-83797945D01*
X145011945Y-83891714D01*
X145011937Y-83891724D01*
X144945627Y-84006577D01*
X144922742Y-84091984D01*
X144911300Y-84134687D01*
X142872199Y-84134687D01*
X142872703Y-82589687D01*
X149896300Y-82589687D01*
X149896300Y-82722313D01*
X149900000Y-82736121D01*
X149930627Y-82850422D01*
X149996937Y-82965275D01*
X149996945Y-82965285D01*
X150090714Y-83059054D01*
X150090719Y-83059058D01*
X150090721Y-83059060D01*
X150205579Y-83125373D01*
X150333687Y-83159700D01*
X150333689Y-83159700D01*
X150466311Y-83159700D01*
X150466313Y-83159700D01*
X150594421Y-83125373D01*
X150709279Y-83059060D01*
X150709285Y-83059054D01*
X150808900Y-82959440D01*
X150810811Y-82961351D01*
X150857375Y-82927351D01*
X150928246Y-82923129D01*
X150990149Y-82957893D01*
X150994017Y-82962357D01*
X151090714Y-83059054D01*
X151090719Y-83059058D01*
X151090721Y-83059060D01*
X151205579Y-83125373D01*
X151333687Y-83159700D01*
X151333689Y-83159700D01*
X151466311Y-83159700D01*
X151466313Y-83159700D01*
X151594421Y-83125373D01*
X151709279Y-83059060D01*
X151709285Y-83059054D01*
X151808900Y-82959440D01*
X151810811Y-82961351D01*
X151857375Y-82927351D01*
X151928246Y-82923129D01*
X151990149Y-82957893D01*
X151994017Y-82962357D01*
X152090714Y-83059054D01*
X152090719Y-83059058D01*
X152090721Y-83059060D01*
X152205579Y-83125373D01*
X152333687Y-83159700D01*
X152333689Y-83159700D01*
X152466311Y-83159700D01*
X152466313Y-83159700D01*
X152594421Y-83125373D01*
X152709279Y-83059060D01*
X152803060Y-82965279D01*
X152869373Y-82850421D01*
X152903700Y-82722313D01*
X152903700Y-82589687D01*
X154896300Y-82589687D01*
X154896300Y-82722313D01*
X154900000Y-82736121D01*
X154930627Y-82850422D01*
X154996937Y-82965275D01*
X154996945Y-82965285D01*
X155090714Y-83059054D01*
X155090719Y-83059058D01*
X155090721Y-83059060D01*
X155205579Y-83125373D01*
X155333687Y-83159700D01*
X155333689Y-83159700D01*
X155466311Y-83159700D01*
X155466313Y-83159700D01*
X155594421Y-83125373D01*
X155709279Y-83059060D01*
X155709285Y-83059054D01*
X155808900Y-82959440D01*
X155810811Y-82961351D01*
X155857375Y-82927351D01*
X155928246Y-82923129D01*
X155990149Y-82957893D01*
X155994017Y-82962357D01*
X156090714Y-83059054D01*
X156090719Y-83059058D01*
X156090721Y-83059060D01*
X156205579Y-83125373D01*
X156333687Y-83159700D01*
X156333689Y-83159700D01*
X156466311Y-83159700D01*
X156466313Y-83159700D01*
X156594421Y-83125373D01*
X156709279Y-83059060D01*
X156803060Y-82965279D01*
X156869373Y-82850421D01*
X156903700Y-82722313D01*
X156903700Y-82589687D01*
X156869373Y-82461579D01*
X156824962Y-82384656D01*
X156803062Y-82346724D01*
X156803054Y-82346714D01*
X156709285Y-82252945D01*
X156709275Y-82252937D01*
X156594422Y-82186627D01*
X156551718Y-82175184D01*
X156466313Y-82152300D01*
X156333687Y-82152300D01*
X156269633Y-82169463D01*
X156205577Y-82186627D01*
X156090724Y-82252937D01*
X156090714Y-82252945D01*
X155991100Y-82352560D01*
X155989191Y-82350651D01*
X155942603Y-82384656D01*
X155871732Y-82388865D01*
X155809835Y-82354090D01*
X155805972Y-82349632D01*
X155709285Y-82252945D01*
X155709275Y-82252937D01*
X155594422Y-82186627D01*
X155551718Y-82175184D01*
X155466313Y-82152300D01*
X155333687Y-82152300D01*
X155269633Y-82169463D01*
X155205577Y-82186627D01*
X155090724Y-82252937D01*
X155090714Y-82252945D01*
X154996945Y-82346714D01*
X154996937Y-82346724D01*
X154930627Y-82461577D01*
X154907742Y-82546984D01*
X154896300Y-82589687D01*
X152903700Y-82589687D01*
X152869373Y-82461579D01*
X152824962Y-82384656D01*
X152803062Y-82346724D01*
X152803054Y-82346714D01*
X152709285Y-82252945D01*
X152709275Y-82252937D01*
X152594422Y-82186627D01*
X152551718Y-82175184D01*
X152466313Y-82152300D01*
X152333687Y-82152300D01*
X152269633Y-82169463D01*
X152205577Y-82186627D01*
X152090724Y-82252937D01*
X152090714Y-82252945D01*
X151991100Y-82352560D01*
X151989191Y-82350651D01*
X151942603Y-82384656D01*
X151871732Y-82388865D01*
X151809835Y-82354090D01*
X151805972Y-82349632D01*
X151709285Y-82252945D01*
X151709275Y-82252937D01*
X151594422Y-82186627D01*
X151551718Y-82175184D01*
X151466313Y-82152300D01*
X151333687Y-82152300D01*
X151269633Y-82169463D01*
X151205577Y-82186627D01*
X151090724Y-82252937D01*
X151090714Y-82252945D01*
X150991100Y-82352560D01*
X150989191Y-82350651D01*
X150942603Y-82384656D01*
X150871732Y-82388865D01*
X150809835Y-82354090D01*
X150805972Y-82349632D01*
X150709285Y-82252945D01*
X150709275Y-82252937D01*
X150594422Y-82186627D01*
X150551718Y-82175184D01*
X150466313Y-82152300D01*
X150333687Y-82152300D01*
X150269633Y-82169463D01*
X150205577Y-82186627D01*
X150090724Y-82252937D01*
X150090714Y-82252945D01*
X149996945Y-82346714D01*
X149996937Y-82346724D01*
X149930627Y-82461577D01*
X149907742Y-82546984D01*
X149896300Y-82589687D01*
X142872703Y-82589687D01*
X142873152Y-81213687D01*
X161548300Y-81213687D01*
X161548300Y-81346313D01*
X161571184Y-81431718D01*
X161582627Y-81474422D01*
X161648937Y-81589275D01*
X161648945Y-81589285D01*
X161742714Y-81683054D01*
X161742719Y-81683058D01*
X161742721Y-81683060D01*
X161857579Y-81749373D01*
X161985687Y-81783700D01*
X161985689Y-81783700D01*
X162118311Y-81783700D01*
X162118313Y-81783700D01*
X162246421Y-81749373D01*
X162361279Y-81683060D01*
X162455060Y-81589279D01*
X162521373Y-81474421D01*
X162555700Y-81346313D01*
X162555700Y-81213687D01*
X162521373Y-81085579D01*
X162455060Y-80970721D01*
X162455058Y-80970719D01*
X162455054Y-80970714D01*
X162361285Y-80876945D01*
X162361275Y-80876937D01*
X162246422Y-80810627D01*
X162203718Y-80799184D01*
X162118313Y-80776300D01*
X161985687Y-80776300D01*
X161921633Y-80793463D01*
X161857577Y-80810627D01*
X161742724Y-80876937D01*
X161742714Y-80876945D01*
X161648945Y-80970714D01*
X161648937Y-80970724D01*
X161582627Y-81085577D01*
X161559742Y-81170984D01*
X161548300Y-81213687D01*
X142873152Y-81213687D01*
X142873283Y-80810627D01*
X142873813Y-79181687D01*
X161548300Y-79181687D01*
X161548300Y-79314313D01*
X161571184Y-79399718D01*
X161582627Y-79442422D01*
X161648937Y-79557275D01*
X161648945Y-79557285D01*
X161742714Y-79651054D01*
X161742719Y-79651058D01*
X161742721Y-79651060D01*
X161857579Y-79717373D01*
X161985687Y-79751700D01*
X161985689Y-79751700D01*
X162118311Y-79751700D01*
X162118313Y-79751700D01*
X162246421Y-79717373D01*
X162361279Y-79651060D01*
X162455060Y-79557279D01*
X162521373Y-79442421D01*
X162555700Y-79314313D01*
X162555700Y-79181687D01*
X162521373Y-79053579D01*
X162455060Y-78938721D01*
X162455058Y-78938719D01*
X162455054Y-78938714D01*
X162361285Y-78844945D01*
X162361275Y-78844937D01*
X162246422Y-78778627D01*
X162203718Y-78767184D01*
X162118313Y-78744300D01*
X161985687Y-78744300D01*
X161921633Y-78761463D01*
X161857577Y-78778627D01*
X161742724Y-78844937D01*
X161742714Y-78844945D01*
X161648945Y-78938714D01*
X161648937Y-78938724D01*
X161582627Y-79053577D01*
X161559742Y-79138984D01*
X161548300Y-79181687D01*
X142873813Y-79181687D01*
X142873816Y-79173387D01*
X142873855Y-79053577D01*
X142874433Y-77281487D01*
X157484300Y-77281487D01*
X157484300Y-77414113D01*
X157505185Y-77492054D01*
X157518627Y-77542222D01*
X157584937Y-77657075D01*
X157584945Y-77657085D01*
X157678714Y-77750854D01*
X157678719Y-77750858D01*
X157678721Y-77750860D01*
X157793579Y-77817173D01*
X157921687Y-77851500D01*
X157921689Y-77851500D01*
X158054311Y-77851500D01*
X158054313Y-77851500D01*
X158182421Y-77817173D01*
X158297279Y-77750860D01*
X158391060Y-77657079D01*
X158457373Y-77542221D01*
X158491700Y-77414113D01*
X158491700Y-77281487D01*
X158457373Y-77153379D01*
X158391060Y-77038521D01*
X158391058Y-77038519D01*
X158391054Y-77038514D01*
X158375227Y-77022687D01*
X167009300Y-77022687D01*
X167009300Y-77155313D01*
X167032184Y-77240718D01*
X167043627Y-77283422D01*
X167109937Y-77398275D01*
X167109945Y-77398285D01*
X167203714Y-77492054D01*
X167203719Y-77492058D01*
X167203721Y-77492060D01*
X167203722Y-77492061D01*
X167203724Y-77492062D01*
X167318577Y-77558372D01*
X167318579Y-77558373D01*
X167446687Y-77592700D01*
X167446689Y-77592700D01*
X167579311Y-77592700D01*
X167579313Y-77592700D01*
X167707421Y-77558373D01*
X167822279Y-77492060D01*
X167916060Y-77398279D01*
X167982373Y-77283421D01*
X168016700Y-77155313D01*
X168016700Y-77022687D01*
X167982373Y-76894579D01*
X167916060Y-76779721D01*
X167916058Y-76779719D01*
X167916054Y-76779714D01*
X167822285Y-76685945D01*
X167822275Y-76685937D01*
X167707422Y-76619627D01*
X167664718Y-76608184D01*
X167579313Y-76585300D01*
X167446687Y-76585300D01*
X167382633Y-76602463D01*
X167318577Y-76619627D01*
X167203724Y-76685937D01*
X167203714Y-76685945D01*
X167109945Y-76779714D01*
X167109937Y-76779724D01*
X167043627Y-76894577D01*
X167030187Y-76944737D01*
X167009300Y-77022687D01*
X158375227Y-77022687D01*
X158297285Y-76944745D01*
X158297275Y-76944737D01*
X158182422Y-76878427D01*
X158139718Y-76866984D01*
X158054313Y-76844100D01*
X157921687Y-76844100D01*
X157857633Y-76861263D01*
X157793577Y-76878427D01*
X157678724Y-76944737D01*
X157678714Y-76944745D01*
X157584945Y-77038514D01*
X157584937Y-77038524D01*
X157518627Y-77153377D01*
X157495742Y-77238784D01*
X157484300Y-77281487D01*
X142874433Y-77281487D01*
X142876670Y-70418687D01*
X162417800Y-70418687D01*
X162417800Y-70551313D01*
X162440684Y-70636718D01*
X162452127Y-70679422D01*
X162518437Y-70794275D01*
X162518445Y-70794285D01*
X162612214Y-70888054D01*
X162612219Y-70888058D01*
X162612221Y-70888060D01*
X162727079Y-70954373D01*
X162855187Y-70988700D01*
X162855189Y-70988700D01*
X162987811Y-70988700D01*
X162987813Y-70988700D01*
X163115921Y-70954373D01*
X163230779Y-70888060D01*
X163324560Y-70794279D01*
X163390873Y-70679421D01*
X163425200Y-70551313D01*
X163425200Y-70418687D01*
X163390873Y-70290579D01*
X163324560Y-70175721D01*
X163324558Y-70175719D01*
X163324554Y-70175714D01*
X163230785Y-70081945D01*
X163230775Y-70081937D01*
X163115922Y-70015627D01*
X163073218Y-70004184D01*
X162987813Y-69981300D01*
X162855187Y-69981300D01*
X162791133Y-69998463D01*
X162727077Y-70015627D01*
X162612224Y-70081937D01*
X162612214Y-70081945D01*
X162518445Y-70175714D01*
X162518437Y-70175724D01*
X162452127Y-70290577D01*
X162429242Y-70375984D01*
X162417800Y-70418687D01*
X142876670Y-70418687D01*
X142877001Y-69402687D01*
X143514300Y-69402687D01*
X143514300Y-69535313D01*
X143537184Y-69620718D01*
X143548627Y-69663422D01*
X143614937Y-69778275D01*
X143614945Y-69778285D01*
X143708714Y-69872054D01*
X143708719Y-69872058D01*
X143708721Y-69872060D01*
X143823579Y-69938373D01*
X143951687Y-69972700D01*
X143951689Y-69972700D01*
X144084311Y-69972700D01*
X144084313Y-69972700D01*
X144212421Y-69938373D01*
X144327279Y-69872060D01*
X144421060Y-69778279D01*
X144487373Y-69663421D01*
X144521700Y-69535313D01*
X144521700Y-69402687D01*
X144487373Y-69274579D01*
X144421060Y-69159721D01*
X144421058Y-69159719D01*
X144421054Y-69159714D01*
X144327285Y-69065945D01*
X144327275Y-69065937D01*
X144212422Y-68999627D01*
X144169718Y-68988184D01*
X144084313Y-68965300D01*
X143951687Y-68965300D01*
X143887633Y-68982463D01*
X143823577Y-68999627D01*
X143708724Y-69065937D01*
X143708714Y-69065945D01*
X143614945Y-69159714D01*
X143614937Y-69159724D01*
X143548627Y-69274577D01*
X143525742Y-69359984D01*
X143514300Y-69402687D01*
X142877001Y-69402687D01*
X142878078Y-66100687D01*
X145800300Y-66100687D01*
X145800300Y-66233313D01*
X145823184Y-66318718D01*
X145834627Y-66361422D01*
X145900937Y-66476275D01*
X145900945Y-66476285D01*
X145994714Y-66570054D01*
X145994719Y-66570058D01*
X145994721Y-66570060D01*
X146109579Y-66636373D01*
X146237687Y-66670700D01*
X146237689Y-66670700D01*
X146370311Y-66670700D01*
X146370313Y-66670700D01*
X146498421Y-66636373D01*
X146613279Y-66570060D01*
X146707060Y-66476279D01*
X146773373Y-66361421D01*
X146807700Y-66233313D01*
X146807700Y-66100687D01*
X147451300Y-66100687D01*
X147451300Y-66233313D01*
X147474184Y-66318718D01*
X147485627Y-66361422D01*
X147551937Y-66476275D01*
X147551945Y-66476285D01*
X147645714Y-66570054D01*
X147645719Y-66570058D01*
X147645721Y-66570060D01*
X147760579Y-66636373D01*
X147888687Y-66670700D01*
X147888689Y-66670700D01*
X148021311Y-66670700D01*
X148021313Y-66670700D01*
X148149421Y-66636373D01*
X148264279Y-66570060D01*
X148358060Y-66476279D01*
X148424373Y-66361421D01*
X148458700Y-66233313D01*
X148458700Y-66100687D01*
X149102300Y-66100687D01*
X149102300Y-66233313D01*
X149125184Y-66318718D01*
X149136627Y-66361422D01*
X149202937Y-66476275D01*
X149202945Y-66476285D01*
X149296714Y-66570054D01*
X149296719Y-66570058D01*
X149296721Y-66570060D01*
X149411579Y-66636373D01*
X149539687Y-66670700D01*
X149539689Y-66670700D01*
X149672311Y-66670700D01*
X149672313Y-66670700D01*
X149800421Y-66636373D01*
X149915279Y-66570060D01*
X150009060Y-66476279D01*
X150075373Y-66361421D01*
X150109700Y-66233313D01*
X150109700Y-66100687D01*
X154563300Y-66100687D01*
X154563300Y-66233313D01*
X154586184Y-66318718D01*
X154597627Y-66361422D01*
X154663937Y-66476275D01*
X154663945Y-66476285D01*
X154757714Y-66570054D01*
X154757719Y-66570058D01*
X154757721Y-66570060D01*
X154872579Y-66636373D01*
X155000687Y-66670700D01*
X155000689Y-66670700D01*
X155133311Y-66670700D01*
X155133313Y-66670700D01*
X155261421Y-66636373D01*
X155376279Y-66570060D01*
X155470060Y-66476279D01*
X155536373Y-66361421D01*
X155570700Y-66233313D01*
X155570700Y-66100687D01*
X156087300Y-66100687D01*
X156087300Y-66233313D01*
X156110184Y-66318718D01*
X156121627Y-66361422D01*
X156187937Y-66476275D01*
X156187945Y-66476285D01*
X156281714Y-66570054D01*
X156281719Y-66570058D01*
X156281721Y-66570060D01*
X156396579Y-66636373D01*
X156524687Y-66670700D01*
X156524689Y-66670700D01*
X156657311Y-66670700D01*
X156657313Y-66670700D01*
X156785421Y-66636373D01*
X156900279Y-66570060D01*
X156994060Y-66476279D01*
X157060373Y-66361421D01*
X157094700Y-66233313D01*
X157094700Y-66100687D01*
X157992300Y-66100687D01*
X157992300Y-66233313D01*
X158015184Y-66318718D01*
X158026627Y-66361422D01*
X158092937Y-66476275D01*
X158092945Y-66476285D01*
X158186714Y-66570054D01*
X158186719Y-66570058D01*
X158186721Y-66570060D01*
X158301579Y-66636373D01*
X158429687Y-66670700D01*
X158429689Y-66670700D01*
X158562311Y-66670700D01*
X158562313Y-66670700D01*
X158690421Y-66636373D01*
X158805279Y-66570060D01*
X158899060Y-66476279D01*
X158965373Y-66361421D01*
X158999700Y-66233313D01*
X158999700Y-66100687D01*
X158965373Y-65972579D01*
X158899060Y-65857721D01*
X158899058Y-65857719D01*
X158899054Y-65857714D01*
X158805285Y-65763945D01*
X158805275Y-65763937D01*
X158690422Y-65697627D01*
X158647718Y-65686184D01*
X158562313Y-65663300D01*
X158429687Y-65663300D01*
X158365633Y-65680463D01*
X158301577Y-65697627D01*
X158186724Y-65763937D01*
X158186714Y-65763945D01*
X158092945Y-65857714D01*
X158092937Y-65857724D01*
X158026627Y-65972577D01*
X158003742Y-66057984D01*
X157992300Y-66100687D01*
X157094700Y-66100687D01*
X157060373Y-65972579D01*
X156994060Y-65857721D01*
X156994058Y-65857719D01*
X156994054Y-65857714D01*
X156900285Y-65763945D01*
X156900275Y-65763937D01*
X156785422Y-65697627D01*
X156742718Y-65686184D01*
X156657313Y-65663300D01*
X156524687Y-65663300D01*
X156460633Y-65680463D01*
X156396577Y-65697627D01*
X156281724Y-65763937D01*
X156281714Y-65763945D01*
X156187945Y-65857714D01*
X156187937Y-65857724D01*
X156121627Y-65972577D01*
X156098742Y-66057984D01*
X156087300Y-66100687D01*
X155570700Y-66100687D01*
X155536373Y-65972579D01*
X155470060Y-65857721D01*
X155470058Y-65857719D01*
X155470054Y-65857714D01*
X155376285Y-65763945D01*
X155376275Y-65763937D01*
X155261422Y-65697627D01*
X155218718Y-65686184D01*
X155133313Y-65663300D01*
X155000687Y-65663300D01*
X154936633Y-65680463D01*
X154872577Y-65697627D01*
X154757724Y-65763937D01*
X154757714Y-65763945D01*
X154663945Y-65857714D01*
X154663937Y-65857724D01*
X154597627Y-65972577D01*
X154574742Y-66057984D01*
X154563300Y-66100687D01*
X150109700Y-66100687D01*
X150075373Y-65972579D01*
X150009060Y-65857721D01*
X150009058Y-65857719D01*
X150009054Y-65857714D01*
X149915285Y-65763945D01*
X149915275Y-65763937D01*
X149800422Y-65697627D01*
X149757718Y-65686184D01*
X149672313Y-65663300D01*
X149539687Y-65663300D01*
X149475633Y-65680463D01*
X149411577Y-65697627D01*
X149296724Y-65763937D01*
X149296714Y-65763945D01*
X149202945Y-65857714D01*
X149202937Y-65857724D01*
X149136627Y-65972577D01*
X149113742Y-66057984D01*
X149102300Y-66100687D01*
X148458700Y-66100687D01*
X148424373Y-65972579D01*
X148358060Y-65857721D01*
X148358058Y-65857719D01*
X148358054Y-65857714D01*
X148264285Y-65763945D01*
X148264275Y-65763937D01*
X148149422Y-65697627D01*
X148106718Y-65686184D01*
X148021313Y-65663300D01*
X147888687Y-65663300D01*
X147824633Y-65680463D01*
X147760577Y-65697627D01*
X147645724Y-65763937D01*
X147645714Y-65763945D01*
X147551945Y-65857714D01*
X147551937Y-65857724D01*
X147485627Y-65972577D01*
X147462742Y-66057984D01*
X147451300Y-66100687D01*
X146807700Y-66100687D01*
X146773373Y-65972579D01*
X146707060Y-65857721D01*
X146707058Y-65857719D01*
X146707054Y-65857714D01*
X146613285Y-65763945D01*
X146613275Y-65763937D01*
X146498422Y-65697627D01*
X146455718Y-65686184D01*
X146370313Y-65663300D01*
X146237687Y-65663300D01*
X146173633Y-65680463D01*
X146109577Y-65697627D01*
X145994724Y-65763937D01*
X145994714Y-65763945D01*
X145900945Y-65857714D01*
X145900937Y-65857724D01*
X145834627Y-65972577D01*
X145811742Y-66057984D01*
X145800300Y-66100687D01*
X142878078Y-66100687D01*
X142879149Y-62814406D01*
X142899173Y-62746293D01*
X142952844Y-62699817D01*
X143023121Y-62689736D01*
X143087693Y-62719250D01*
X143094244Y-62725353D01*
X143226867Y-62857976D01*
X143226877Y-62857985D01*
X143226883Y-62857991D01*
X143226886Y-62857993D01*
X143226888Y-62857995D01*
X143471324Y-63045559D01*
X143738157Y-63199615D01*
X143738161Y-63199616D01*
X143738170Y-63199622D01*
X144022836Y-63317535D01*
X144320456Y-63397282D01*
X144320462Y-63397282D01*
X144320463Y-63397283D01*
X144355515Y-63401897D01*
X144625940Y-63437500D01*
X144625947Y-63437500D01*
X144934053Y-63437500D01*
X144934060Y-63437500D01*
X145239544Y-63397282D01*
X145537164Y-63317535D01*
X145821830Y-63199622D01*
X146088670Y-63045562D01*
X146088670Y-63045561D01*
X146088675Y-63045559D01*
X146230632Y-62936630D01*
X146333117Y-62857991D01*
X146550991Y-62640117D01*
X146629630Y-62537632D01*
X146738559Y-62395675D01*
X146892615Y-62128842D01*
X146892621Y-62128831D01*
X146892622Y-62128830D01*
X146941841Y-62010006D01*
X149623397Y-62010006D01*
X149623397Y-62195994D01*
X149652492Y-62379692D01*
X149652493Y-62379697D01*
X149682168Y-62471027D01*
X149709965Y-62556577D01*
X149792851Y-62719250D01*
X149794404Y-62722297D01*
X149903724Y-62872763D01*
X150035233Y-63004272D01*
X150035236Y-63004274D01*
X150185703Y-63113595D01*
X150351420Y-63198032D01*
X150528299Y-63255503D01*
X150528300Y-63255503D01*
X150528305Y-63255505D01*
X150712003Y-63284600D01*
X150712006Y-63284600D01*
X150897988Y-63284600D01*
X150897991Y-63284600D01*
X151081689Y-63255505D01*
X151258574Y-63198032D01*
X151424291Y-63113595D01*
X151574758Y-63004274D01*
X151706271Y-62872761D01*
X151815592Y-62722294D01*
X151900029Y-62556577D01*
X151957502Y-62379692D01*
X151986597Y-62195994D01*
X151986597Y-62010006D01*
X153123400Y-62010006D01*
X153123400Y-62195994D01*
X153152495Y-62379692D01*
X153152496Y-62379697D01*
X153182171Y-62471027D01*
X153209968Y-62556577D01*
X153292854Y-62719250D01*
X153294407Y-62722297D01*
X153403727Y-62872763D01*
X153535236Y-63004272D01*
X153535239Y-63004274D01*
X153685706Y-63113595D01*
X153851423Y-63198032D01*
X154028302Y-63255503D01*
X154028303Y-63255503D01*
X154028308Y-63255505D01*
X154212006Y-63284600D01*
X154212009Y-63284600D01*
X154397991Y-63284600D01*
X154397994Y-63284600D01*
X154581692Y-63255505D01*
X154758577Y-63198032D01*
X154924294Y-63113595D01*
X155074761Y-63004274D01*
X155206274Y-62872761D01*
X155315595Y-62722294D01*
X155400032Y-62556577D01*
X155457505Y-62379692D01*
X155486600Y-62195994D01*
X155486600Y-62010006D01*
X155457505Y-61826308D01*
X155400032Y-61649423D01*
X155315595Y-61483706D01*
X155206274Y-61333239D01*
X155206272Y-61333236D01*
X155074763Y-61201727D01*
X154924297Y-61092407D01*
X154924296Y-61092406D01*
X154924294Y-61092405D01*
X154758577Y-61007968D01*
X154758574Y-61007967D01*
X154758572Y-61007966D01*
X154581695Y-60950496D01*
X154581699Y-60950496D01*
X154547498Y-60945079D01*
X154397994Y-60921400D01*
X154212006Y-60921400D01*
X154037747Y-60949000D01*
X154028302Y-60950496D01*
X153851427Y-61007966D01*
X153851421Y-61007969D01*
X153685702Y-61092407D01*
X153535236Y-61201727D01*
X153403727Y-61333236D01*
X153294407Y-61483702D01*
X153209969Y-61649421D01*
X153209966Y-61649427D01*
X153152496Y-61826302D01*
X153152495Y-61826307D01*
X153152495Y-61826308D01*
X153123400Y-62010006D01*
X151986597Y-62010006D01*
X151957502Y-61826308D01*
X151900029Y-61649423D01*
X151815592Y-61483706D01*
X151706271Y-61333239D01*
X151706269Y-61333236D01*
X151574760Y-61201727D01*
X151424294Y-61092407D01*
X151424293Y-61092406D01*
X151424291Y-61092405D01*
X151258574Y-61007968D01*
X151258571Y-61007967D01*
X151258569Y-61007966D01*
X151081692Y-60950496D01*
X151081696Y-60950496D01*
X151047495Y-60945079D01*
X150897991Y-60921400D01*
X150712003Y-60921400D01*
X150537744Y-60949000D01*
X150528299Y-60950496D01*
X150351424Y-61007966D01*
X150351418Y-61007969D01*
X150185699Y-61092407D01*
X150035233Y-61201727D01*
X149903724Y-61333236D01*
X149794404Y-61483702D01*
X149709966Y-61649421D01*
X149709963Y-61649427D01*
X149652493Y-61826302D01*
X149652492Y-61826307D01*
X149652492Y-61826308D01*
X149623397Y-62010006D01*
X146941841Y-62010006D01*
X147010535Y-61844164D01*
X147090282Y-61546544D01*
X147130500Y-61241060D01*
X147130500Y-60932940D01*
X147090282Y-60627456D01*
X147010535Y-60329836D01*
X146892622Y-60045170D01*
X146892616Y-60045161D01*
X146892615Y-60045157D01*
X146738559Y-59778324D01*
X146550995Y-59533888D01*
X146550993Y-59533886D01*
X146550991Y-59533883D01*
X146550985Y-59533877D01*
X146550976Y-59533867D01*
X146406704Y-59389595D01*
X146372678Y-59327283D01*
X146377743Y-59256468D01*
X146420290Y-59199632D01*
X146486810Y-59174821D01*
X146495799Y-59174500D01*
X151497665Y-59174500D01*
X151565786Y-59194502D01*
G37*
%TD.AperFunction*%
%TD*%
M02*
