%TF.GenerationSoftware,KiCad,Pcbnew,8.0.6*%
%TF.CreationDate,2025-04-07T18:27:51-05:00*%
%TF.ProjectId,Smart_MoCo,536d6172-745f-44d6-9f43-6f2e6b696361,rev?*%
%TF.SameCoordinates,Original*%
%TF.FileFunction,Drillmap*%
%TF.FilePolarity,Positive*%
%FSLAX45Y45*%
G04 Gerber Fmt 4.5, Leading zero omitted, Abs format (unit mm)*
G04 Created by KiCad (PCBNEW 8.0.6) date 2025-04-07 18:27:51*
%MOMM*%
%LPD*%
G01*
G04 APERTURE LIST*
%ADD10C,0.100000*%
%ADD11C,0.200000*%
%ADD12C,0.294640*%
G04 APERTURE END LIST*
D10*
X13589000Y-6045200D02*
G75*
G02*
X14008100Y-5626100I419100J0D01*
G01*
X16941800Y-10515600D02*
G75*
G02*
X16522700Y-10934700I-419100J0D01*
G01*
X16522700Y-10934700D02*
X14008100Y-10934700D01*
X13589000Y-10515600D02*
X13589000Y-6045200D01*
X16941800Y-6045200D02*
X16941800Y-10515600D01*
X14008100Y-5626100D02*
X16522700Y-5626100D01*
X16522700Y-5626100D02*
G75*
G02*
X16941800Y-6045200I0J-419100D01*
G01*
X14008100Y-10934700D02*
G75*
G02*
X13589000Y-10515600I0J419100D01*
G01*
D11*
D12*
X13858180Y-5895780D02*
X14152820Y-6190420D01*
X14152820Y-5895780D02*
X13858180Y-6190420D01*
X13858180Y-10366180D02*
X14152820Y-10660820D01*
X14152820Y-10366180D02*
X13858180Y-10660820D01*
X16372780Y-5895780D02*
X16667420Y-6190420D01*
X16667420Y-5895780D02*
X16372780Y-6190420D01*
X16372780Y-10366180D02*
X16667420Y-10660820D01*
X16667420Y-10366180D02*
X16372780Y-10660820D01*
D11*
X13844777Y-11251184D02*
X13844777Y-11051184D01*
X13844777Y-11051184D02*
X13892396Y-11051184D01*
X13892396Y-11051184D02*
X13920967Y-11060708D01*
X13920967Y-11060708D02*
X13940015Y-11079755D01*
X13940015Y-11079755D02*
X13949539Y-11098803D01*
X13949539Y-11098803D02*
X13959062Y-11136898D01*
X13959062Y-11136898D02*
X13959062Y-11165470D01*
X13959062Y-11165470D02*
X13949539Y-11203565D01*
X13949539Y-11203565D02*
X13940015Y-11222612D01*
X13940015Y-11222612D02*
X13920967Y-11241660D01*
X13920967Y-11241660D02*
X13892396Y-11251184D01*
X13892396Y-11251184D02*
X13844777Y-11251184D01*
X14044777Y-11251184D02*
X14044777Y-11117850D01*
X14044777Y-11155946D02*
X14054301Y-11136898D01*
X14054301Y-11136898D02*
X14063824Y-11127374D01*
X14063824Y-11127374D02*
X14082872Y-11117850D01*
X14082872Y-11117850D02*
X14101920Y-11117850D01*
X14168586Y-11251184D02*
X14168586Y-11117850D01*
X14168586Y-11051184D02*
X14159062Y-11060708D01*
X14159062Y-11060708D02*
X14168586Y-11070231D01*
X14168586Y-11070231D02*
X14178110Y-11060708D01*
X14178110Y-11060708D02*
X14168586Y-11051184D01*
X14168586Y-11051184D02*
X14168586Y-11070231D01*
X14292396Y-11251184D02*
X14273348Y-11241660D01*
X14273348Y-11241660D02*
X14263824Y-11222612D01*
X14263824Y-11222612D02*
X14263824Y-11051184D01*
X14397158Y-11251184D02*
X14378110Y-11241660D01*
X14378110Y-11241660D02*
X14368586Y-11222612D01*
X14368586Y-11222612D02*
X14368586Y-11051184D01*
X14625729Y-11251184D02*
X14625729Y-11051184D01*
X14625729Y-11051184D02*
X14692396Y-11194041D01*
X14692396Y-11194041D02*
X14759062Y-11051184D01*
X14759062Y-11051184D02*
X14759062Y-11251184D01*
X14940015Y-11251184D02*
X14940015Y-11146422D01*
X14940015Y-11146422D02*
X14930491Y-11127374D01*
X14930491Y-11127374D02*
X14911443Y-11117850D01*
X14911443Y-11117850D02*
X14873348Y-11117850D01*
X14873348Y-11117850D02*
X14854301Y-11127374D01*
X14940015Y-11241660D02*
X14920967Y-11251184D01*
X14920967Y-11251184D02*
X14873348Y-11251184D01*
X14873348Y-11251184D02*
X14854301Y-11241660D01*
X14854301Y-11241660D02*
X14844777Y-11222612D01*
X14844777Y-11222612D02*
X14844777Y-11203565D01*
X14844777Y-11203565D02*
X14854301Y-11184517D01*
X14854301Y-11184517D02*
X14873348Y-11174993D01*
X14873348Y-11174993D02*
X14920967Y-11174993D01*
X14920967Y-11174993D02*
X14940015Y-11165470D01*
X15035253Y-11117850D02*
X15035253Y-11317850D01*
X15035253Y-11127374D02*
X15054301Y-11117850D01*
X15054301Y-11117850D02*
X15092396Y-11117850D01*
X15092396Y-11117850D02*
X15111443Y-11127374D01*
X15111443Y-11127374D02*
X15120967Y-11136898D01*
X15120967Y-11136898D02*
X15130491Y-11155946D01*
X15130491Y-11155946D02*
X15130491Y-11213088D01*
X15130491Y-11213088D02*
X15120967Y-11232136D01*
X15120967Y-11232136D02*
X15111443Y-11241660D01*
X15111443Y-11241660D02*
X15092396Y-11251184D01*
X15092396Y-11251184D02*
X15054301Y-11251184D01*
X15054301Y-11251184D02*
X15035253Y-11241660D01*
X15216205Y-11232136D02*
X15225729Y-11241660D01*
X15225729Y-11241660D02*
X15216205Y-11251184D01*
X15216205Y-11251184D02*
X15206682Y-11241660D01*
X15206682Y-11241660D02*
X15216205Y-11232136D01*
X15216205Y-11232136D02*
X15216205Y-11251184D01*
X15216205Y-11127374D02*
X15225729Y-11136898D01*
X15225729Y-11136898D02*
X15216205Y-11146422D01*
X15216205Y-11146422D02*
X15206682Y-11136898D01*
X15206682Y-11136898D02*
X15216205Y-11127374D01*
X15216205Y-11127374D02*
X15216205Y-11146422D01*
X13384000Y-11479700D02*
X13584000Y-11679700D01*
X13584000Y-11479700D02*
X13384000Y-11679700D01*
X13835253Y-11490231D02*
X13844777Y-11480708D01*
X13844777Y-11480708D02*
X13863824Y-11471184D01*
X13863824Y-11471184D02*
X13911443Y-11471184D01*
X13911443Y-11471184D02*
X13930491Y-11480708D01*
X13930491Y-11480708D02*
X13940015Y-11490231D01*
X13940015Y-11490231D02*
X13949539Y-11509279D01*
X13949539Y-11509279D02*
X13949539Y-11528327D01*
X13949539Y-11528327D02*
X13940015Y-11556898D01*
X13940015Y-11556898D02*
X13825729Y-11671184D01*
X13825729Y-11671184D02*
X13949539Y-11671184D01*
X14035253Y-11652136D02*
X14044777Y-11661660D01*
X14044777Y-11661660D02*
X14035253Y-11671184D01*
X14035253Y-11671184D02*
X14025729Y-11661660D01*
X14025729Y-11661660D02*
X14035253Y-11652136D01*
X14035253Y-11652136D02*
X14035253Y-11671184D01*
X14140015Y-11671184D02*
X14178110Y-11671184D01*
X14178110Y-11671184D02*
X14197158Y-11661660D01*
X14197158Y-11661660D02*
X14206682Y-11652136D01*
X14206682Y-11652136D02*
X14225729Y-11623565D01*
X14225729Y-11623565D02*
X14235253Y-11585469D01*
X14235253Y-11585469D02*
X14235253Y-11509279D01*
X14235253Y-11509279D02*
X14225729Y-11490231D01*
X14225729Y-11490231D02*
X14216205Y-11480708D01*
X14216205Y-11480708D02*
X14197158Y-11471184D01*
X14197158Y-11471184D02*
X14159062Y-11471184D01*
X14159062Y-11471184D02*
X14140015Y-11480708D01*
X14140015Y-11480708D02*
X14130491Y-11490231D01*
X14130491Y-11490231D02*
X14120967Y-11509279D01*
X14120967Y-11509279D02*
X14120967Y-11556898D01*
X14120967Y-11556898D02*
X14130491Y-11575946D01*
X14130491Y-11575946D02*
X14140015Y-11585469D01*
X14140015Y-11585469D02*
X14159062Y-11594993D01*
X14159062Y-11594993D02*
X14197158Y-11594993D01*
X14197158Y-11594993D02*
X14216205Y-11585469D01*
X14216205Y-11585469D02*
X14225729Y-11575946D01*
X14225729Y-11575946D02*
X14235253Y-11556898D01*
X14406682Y-11537850D02*
X14406682Y-11671184D01*
X14359062Y-11461660D02*
X14311443Y-11604517D01*
X14311443Y-11604517D02*
X14435253Y-11604517D01*
X14597158Y-11471184D02*
X14559062Y-11471184D01*
X14559062Y-11471184D02*
X14540015Y-11480708D01*
X14540015Y-11480708D02*
X14530491Y-11490231D01*
X14530491Y-11490231D02*
X14511443Y-11518803D01*
X14511443Y-11518803D02*
X14501920Y-11556898D01*
X14501920Y-11556898D02*
X14501920Y-11633088D01*
X14501920Y-11633088D02*
X14511443Y-11652136D01*
X14511443Y-11652136D02*
X14520967Y-11661660D01*
X14520967Y-11661660D02*
X14540015Y-11671184D01*
X14540015Y-11671184D02*
X14578110Y-11671184D01*
X14578110Y-11671184D02*
X14597158Y-11661660D01*
X14597158Y-11661660D02*
X14606682Y-11652136D01*
X14606682Y-11652136D02*
X14616205Y-11633088D01*
X14616205Y-11633088D02*
X14616205Y-11585469D01*
X14616205Y-11585469D02*
X14606682Y-11566422D01*
X14606682Y-11566422D02*
X14597158Y-11556898D01*
X14597158Y-11556898D02*
X14578110Y-11547374D01*
X14578110Y-11547374D02*
X14540015Y-11547374D01*
X14540015Y-11547374D02*
X14520967Y-11556898D01*
X14520967Y-11556898D02*
X14511443Y-11566422D01*
X14511443Y-11566422D02*
X14501920Y-11585469D01*
X14701920Y-11671184D02*
X14701920Y-11537850D01*
X14701920Y-11556898D02*
X14711443Y-11547374D01*
X14711443Y-11547374D02*
X14730491Y-11537850D01*
X14730491Y-11537850D02*
X14759063Y-11537850D01*
X14759063Y-11537850D02*
X14778110Y-11547374D01*
X14778110Y-11547374D02*
X14787634Y-11566422D01*
X14787634Y-11566422D02*
X14787634Y-11671184D01*
X14787634Y-11566422D02*
X14797158Y-11547374D01*
X14797158Y-11547374D02*
X14816205Y-11537850D01*
X14816205Y-11537850D02*
X14844777Y-11537850D01*
X14844777Y-11537850D02*
X14863824Y-11547374D01*
X14863824Y-11547374D02*
X14873348Y-11566422D01*
X14873348Y-11566422D02*
X14873348Y-11671184D01*
X14968586Y-11671184D02*
X14968586Y-11537850D01*
X14968586Y-11556898D02*
X14978110Y-11547374D01*
X14978110Y-11547374D02*
X14997158Y-11537850D01*
X14997158Y-11537850D02*
X15025729Y-11537850D01*
X15025729Y-11537850D02*
X15044777Y-11547374D01*
X15044777Y-11547374D02*
X15054301Y-11566422D01*
X15054301Y-11566422D02*
X15054301Y-11671184D01*
X15054301Y-11566422D02*
X15063824Y-11547374D01*
X15063824Y-11547374D02*
X15082872Y-11537850D01*
X15082872Y-11537850D02*
X15111443Y-11537850D01*
X15111443Y-11537850D02*
X15130491Y-11547374D01*
X15130491Y-11547374D02*
X15140015Y-11566422D01*
X15140015Y-11566422D02*
X15140015Y-11671184D01*
X15530491Y-11461660D02*
X15359063Y-11718803D01*
X15787634Y-11471184D02*
X15806682Y-11471184D01*
X15806682Y-11471184D02*
X15825729Y-11480708D01*
X15825729Y-11480708D02*
X15835253Y-11490231D01*
X15835253Y-11490231D02*
X15844777Y-11509279D01*
X15844777Y-11509279D02*
X15854301Y-11547374D01*
X15854301Y-11547374D02*
X15854301Y-11594993D01*
X15854301Y-11594993D02*
X15844777Y-11633088D01*
X15844777Y-11633088D02*
X15835253Y-11652136D01*
X15835253Y-11652136D02*
X15825729Y-11661660D01*
X15825729Y-11661660D02*
X15806682Y-11671184D01*
X15806682Y-11671184D02*
X15787634Y-11671184D01*
X15787634Y-11671184D02*
X15768586Y-11661660D01*
X15768586Y-11661660D02*
X15759063Y-11652136D01*
X15759063Y-11652136D02*
X15749539Y-11633088D01*
X15749539Y-11633088D02*
X15740015Y-11594993D01*
X15740015Y-11594993D02*
X15740015Y-11547374D01*
X15740015Y-11547374D02*
X15749539Y-11509279D01*
X15749539Y-11509279D02*
X15759063Y-11490231D01*
X15759063Y-11490231D02*
X15768586Y-11480708D01*
X15768586Y-11480708D02*
X15787634Y-11471184D01*
X15940015Y-11652136D02*
X15949539Y-11661660D01*
X15949539Y-11661660D02*
X15940015Y-11671184D01*
X15940015Y-11671184D02*
X15930491Y-11661660D01*
X15930491Y-11661660D02*
X15940015Y-11652136D01*
X15940015Y-11652136D02*
X15940015Y-11671184D01*
X16140015Y-11671184D02*
X16025729Y-11671184D01*
X16082872Y-11671184D02*
X16082872Y-11471184D01*
X16082872Y-11471184D02*
X16063825Y-11499755D01*
X16063825Y-11499755D02*
X16044777Y-11518803D01*
X16044777Y-11518803D02*
X16025729Y-11528327D01*
X16330491Y-11671184D02*
X16216206Y-11671184D01*
X16273348Y-11671184D02*
X16273348Y-11471184D01*
X16273348Y-11471184D02*
X16254301Y-11499755D01*
X16254301Y-11499755D02*
X16235253Y-11518803D01*
X16235253Y-11518803D02*
X16216206Y-11528327D01*
X16501920Y-11471184D02*
X16463825Y-11471184D01*
X16463825Y-11471184D02*
X16444777Y-11480708D01*
X16444777Y-11480708D02*
X16435253Y-11490231D01*
X16435253Y-11490231D02*
X16416206Y-11518803D01*
X16416206Y-11518803D02*
X16406682Y-11556898D01*
X16406682Y-11556898D02*
X16406682Y-11633088D01*
X16406682Y-11633088D02*
X16416206Y-11652136D01*
X16416206Y-11652136D02*
X16425729Y-11661660D01*
X16425729Y-11661660D02*
X16444777Y-11671184D01*
X16444777Y-11671184D02*
X16482872Y-11671184D01*
X16482872Y-11671184D02*
X16501920Y-11661660D01*
X16501920Y-11661660D02*
X16511444Y-11652136D01*
X16511444Y-11652136D02*
X16520967Y-11633088D01*
X16520967Y-11633088D02*
X16520967Y-11585469D01*
X16520967Y-11585469D02*
X16511444Y-11566422D01*
X16511444Y-11566422D02*
X16501920Y-11556898D01*
X16501920Y-11556898D02*
X16482872Y-11547374D01*
X16482872Y-11547374D02*
X16444777Y-11547374D01*
X16444777Y-11547374D02*
X16425729Y-11556898D01*
X16425729Y-11556898D02*
X16416206Y-11566422D01*
X16416206Y-11566422D02*
X16406682Y-11585469D01*
X16644777Y-11471184D02*
X16663825Y-11471184D01*
X16663825Y-11471184D02*
X16682872Y-11480708D01*
X16682872Y-11480708D02*
X16692396Y-11490231D01*
X16692396Y-11490231D02*
X16701920Y-11509279D01*
X16701920Y-11509279D02*
X16711444Y-11547374D01*
X16711444Y-11547374D02*
X16711444Y-11594993D01*
X16711444Y-11594993D02*
X16701920Y-11633088D01*
X16701920Y-11633088D02*
X16692396Y-11652136D01*
X16692396Y-11652136D02*
X16682872Y-11661660D01*
X16682872Y-11661660D02*
X16663825Y-11671184D01*
X16663825Y-11671184D02*
X16644777Y-11671184D01*
X16644777Y-11671184D02*
X16625729Y-11661660D01*
X16625729Y-11661660D02*
X16616206Y-11652136D01*
X16616206Y-11652136D02*
X16606682Y-11633088D01*
X16606682Y-11633088D02*
X16597158Y-11594993D01*
X16597158Y-11594993D02*
X16597158Y-11547374D01*
X16597158Y-11547374D02*
X16606682Y-11509279D01*
X16606682Y-11509279D02*
X16616206Y-11490231D01*
X16616206Y-11490231D02*
X16625729Y-11480708D01*
X16625729Y-11480708D02*
X16644777Y-11471184D01*
X16787634Y-11471184D02*
X16787634Y-11509279D01*
X16863825Y-11471184D02*
X16863825Y-11509279D01*
X17159063Y-11747374D02*
X17149539Y-11737850D01*
X17149539Y-11737850D02*
X17130491Y-11709279D01*
X17130491Y-11709279D02*
X17120968Y-11690231D01*
X17120968Y-11690231D02*
X17111444Y-11661660D01*
X17111444Y-11661660D02*
X17101920Y-11614041D01*
X17101920Y-11614041D02*
X17101920Y-11575946D01*
X17101920Y-11575946D02*
X17111444Y-11528327D01*
X17111444Y-11528327D02*
X17120968Y-11499755D01*
X17120968Y-11499755D02*
X17130491Y-11480708D01*
X17130491Y-11480708D02*
X17149539Y-11452136D01*
X17149539Y-11452136D02*
X17159063Y-11442612D01*
X17320968Y-11537850D02*
X17320968Y-11671184D01*
X17273349Y-11461660D02*
X17225730Y-11604517D01*
X17225730Y-11604517D02*
X17349539Y-11604517D01*
X17578111Y-11671184D02*
X17578111Y-11471184D01*
X17663825Y-11671184D02*
X17663825Y-11566422D01*
X17663825Y-11566422D02*
X17654301Y-11547374D01*
X17654301Y-11547374D02*
X17635253Y-11537850D01*
X17635253Y-11537850D02*
X17606682Y-11537850D01*
X17606682Y-11537850D02*
X17587634Y-11547374D01*
X17587634Y-11547374D02*
X17578111Y-11556898D01*
X17787634Y-11671184D02*
X17768587Y-11661660D01*
X17768587Y-11661660D02*
X17759063Y-11652136D01*
X17759063Y-11652136D02*
X17749539Y-11633088D01*
X17749539Y-11633088D02*
X17749539Y-11575946D01*
X17749539Y-11575946D02*
X17759063Y-11556898D01*
X17759063Y-11556898D02*
X17768587Y-11547374D01*
X17768587Y-11547374D02*
X17787634Y-11537850D01*
X17787634Y-11537850D02*
X17816206Y-11537850D01*
X17816206Y-11537850D02*
X17835253Y-11547374D01*
X17835253Y-11547374D02*
X17844777Y-11556898D01*
X17844777Y-11556898D02*
X17854301Y-11575946D01*
X17854301Y-11575946D02*
X17854301Y-11633088D01*
X17854301Y-11633088D02*
X17844777Y-11652136D01*
X17844777Y-11652136D02*
X17835253Y-11661660D01*
X17835253Y-11661660D02*
X17816206Y-11671184D01*
X17816206Y-11671184D02*
X17787634Y-11671184D01*
X17968587Y-11671184D02*
X17949539Y-11661660D01*
X17949539Y-11661660D02*
X17940015Y-11642612D01*
X17940015Y-11642612D02*
X17940015Y-11471184D01*
X18120968Y-11661660D02*
X18101920Y-11671184D01*
X18101920Y-11671184D02*
X18063825Y-11671184D01*
X18063825Y-11671184D02*
X18044777Y-11661660D01*
X18044777Y-11661660D02*
X18035253Y-11642612D01*
X18035253Y-11642612D02*
X18035253Y-11566422D01*
X18035253Y-11566422D02*
X18044777Y-11547374D01*
X18044777Y-11547374D02*
X18063825Y-11537850D01*
X18063825Y-11537850D02*
X18101920Y-11537850D01*
X18101920Y-11537850D02*
X18120968Y-11547374D01*
X18120968Y-11547374D02*
X18130492Y-11566422D01*
X18130492Y-11566422D02*
X18130492Y-11585469D01*
X18130492Y-11585469D02*
X18035253Y-11604517D01*
X18206682Y-11661660D02*
X18225730Y-11671184D01*
X18225730Y-11671184D02*
X18263825Y-11671184D01*
X18263825Y-11671184D02*
X18282873Y-11661660D01*
X18282873Y-11661660D02*
X18292396Y-11642612D01*
X18292396Y-11642612D02*
X18292396Y-11633088D01*
X18292396Y-11633088D02*
X18282873Y-11614041D01*
X18282873Y-11614041D02*
X18263825Y-11604517D01*
X18263825Y-11604517D02*
X18235253Y-11604517D01*
X18235253Y-11604517D02*
X18216206Y-11594993D01*
X18216206Y-11594993D02*
X18206682Y-11575946D01*
X18206682Y-11575946D02*
X18206682Y-11566422D01*
X18206682Y-11566422D02*
X18216206Y-11547374D01*
X18216206Y-11547374D02*
X18235253Y-11537850D01*
X18235253Y-11537850D02*
X18263825Y-11537850D01*
X18263825Y-11537850D02*
X18282873Y-11547374D01*
X18359063Y-11747374D02*
X18368587Y-11737850D01*
X18368587Y-11737850D02*
X18387634Y-11709279D01*
X18387634Y-11709279D02*
X18397158Y-11690231D01*
X18397158Y-11690231D02*
X18406682Y-11661660D01*
X18406682Y-11661660D02*
X18416206Y-11614041D01*
X18416206Y-11614041D02*
X18416206Y-11575946D01*
X18416206Y-11575946D02*
X18406682Y-11528327D01*
X18406682Y-11528327D02*
X18397158Y-11499755D01*
X18397158Y-11499755D02*
X18387634Y-11480708D01*
X18387634Y-11480708D02*
X18368587Y-11452136D01*
X18368587Y-11452136D02*
X18359063Y-11442612D01*
X18720968Y-11747374D02*
X18711444Y-11737850D01*
X18711444Y-11737850D02*
X18692396Y-11709279D01*
X18692396Y-11709279D02*
X18682873Y-11690231D01*
X18682873Y-11690231D02*
X18673349Y-11661660D01*
X18673349Y-11661660D02*
X18663825Y-11614041D01*
X18663825Y-11614041D02*
X18663825Y-11575946D01*
X18663825Y-11575946D02*
X18673349Y-11528327D01*
X18673349Y-11528327D02*
X18682873Y-11499755D01*
X18682873Y-11499755D02*
X18692396Y-11480708D01*
X18692396Y-11480708D02*
X18711444Y-11452136D01*
X18711444Y-11452136D02*
X18720968Y-11442612D01*
X18797158Y-11537850D02*
X18797158Y-11671184D01*
X18797158Y-11556898D02*
X18806682Y-11547374D01*
X18806682Y-11547374D02*
X18825730Y-11537850D01*
X18825730Y-11537850D02*
X18854301Y-11537850D01*
X18854301Y-11537850D02*
X18873349Y-11547374D01*
X18873349Y-11547374D02*
X18882873Y-11566422D01*
X18882873Y-11566422D02*
X18882873Y-11671184D01*
X19006682Y-11671184D02*
X18987634Y-11661660D01*
X18987634Y-11661660D02*
X18978111Y-11652136D01*
X18978111Y-11652136D02*
X18968587Y-11633088D01*
X18968587Y-11633088D02*
X18968587Y-11575946D01*
X18968587Y-11575946D02*
X18978111Y-11556898D01*
X18978111Y-11556898D02*
X18987634Y-11547374D01*
X18987634Y-11547374D02*
X19006682Y-11537850D01*
X19006682Y-11537850D02*
X19035254Y-11537850D01*
X19035254Y-11537850D02*
X19054301Y-11547374D01*
X19054301Y-11547374D02*
X19063825Y-11556898D01*
X19063825Y-11556898D02*
X19073349Y-11575946D01*
X19073349Y-11575946D02*
X19073349Y-11633088D01*
X19073349Y-11633088D02*
X19063825Y-11652136D01*
X19063825Y-11652136D02*
X19054301Y-11661660D01*
X19054301Y-11661660D02*
X19035254Y-11671184D01*
X19035254Y-11671184D02*
X19006682Y-11671184D01*
X19130492Y-11537850D02*
X19206682Y-11537850D01*
X19159063Y-11471184D02*
X19159063Y-11642612D01*
X19159063Y-11642612D02*
X19168587Y-11661660D01*
X19168587Y-11661660D02*
X19187634Y-11671184D01*
X19187634Y-11671184D02*
X19206682Y-11671184D01*
X19425730Y-11537850D02*
X19425730Y-11737850D01*
X19425730Y-11547374D02*
X19444777Y-11537850D01*
X19444777Y-11537850D02*
X19482873Y-11537850D01*
X19482873Y-11537850D02*
X19501920Y-11547374D01*
X19501920Y-11547374D02*
X19511444Y-11556898D01*
X19511444Y-11556898D02*
X19520968Y-11575946D01*
X19520968Y-11575946D02*
X19520968Y-11633088D01*
X19520968Y-11633088D02*
X19511444Y-11652136D01*
X19511444Y-11652136D02*
X19501920Y-11661660D01*
X19501920Y-11661660D02*
X19482873Y-11671184D01*
X19482873Y-11671184D02*
X19444777Y-11671184D01*
X19444777Y-11671184D02*
X19425730Y-11661660D01*
X19635254Y-11671184D02*
X19616206Y-11661660D01*
X19616206Y-11661660D02*
X19606682Y-11642612D01*
X19606682Y-11642612D02*
X19606682Y-11471184D01*
X19797158Y-11671184D02*
X19797158Y-11566422D01*
X19797158Y-11566422D02*
X19787635Y-11547374D01*
X19787635Y-11547374D02*
X19768587Y-11537850D01*
X19768587Y-11537850D02*
X19730492Y-11537850D01*
X19730492Y-11537850D02*
X19711444Y-11547374D01*
X19797158Y-11661660D02*
X19778111Y-11671184D01*
X19778111Y-11671184D02*
X19730492Y-11671184D01*
X19730492Y-11671184D02*
X19711444Y-11661660D01*
X19711444Y-11661660D02*
X19701920Y-11642612D01*
X19701920Y-11642612D02*
X19701920Y-11623565D01*
X19701920Y-11623565D02*
X19711444Y-11604517D01*
X19711444Y-11604517D02*
X19730492Y-11594993D01*
X19730492Y-11594993D02*
X19778111Y-11594993D01*
X19778111Y-11594993D02*
X19797158Y-11585469D01*
X19863825Y-11537850D02*
X19940015Y-11537850D01*
X19892396Y-11471184D02*
X19892396Y-11642612D01*
X19892396Y-11642612D02*
X19901920Y-11661660D01*
X19901920Y-11661660D02*
X19920968Y-11671184D01*
X19920968Y-11671184D02*
X19940015Y-11671184D01*
X20082873Y-11661660D02*
X20063825Y-11671184D01*
X20063825Y-11671184D02*
X20025730Y-11671184D01*
X20025730Y-11671184D02*
X20006682Y-11661660D01*
X20006682Y-11661660D02*
X19997158Y-11642612D01*
X19997158Y-11642612D02*
X19997158Y-11566422D01*
X19997158Y-11566422D02*
X20006682Y-11547374D01*
X20006682Y-11547374D02*
X20025730Y-11537850D01*
X20025730Y-11537850D02*
X20063825Y-11537850D01*
X20063825Y-11537850D02*
X20082873Y-11547374D01*
X20082873Y-11547374D02*
X20092396Y-11566422D01*
X20092396Y-11566422D02*
X20092396Y-11585469D01*
X20092396Y-11585469D02*
X19997158Y-11604517D01*
X20263825Y-11671184D02*
X20263825Y-11471184D01*
X20263825Y-11661660D02*
X20244777Y-11671184D01*
X20244777Y-11671184D02*
X20206682Y-11671184D01*
X20206682Y-11671184D02*
X20187635Y-11661660D01*
X20187635Y-11661660D02*
X20178111Y-11652136D01*
X20178111Y-11652136D02*
X20168587Y-11633088D01*
X20168587Y-11633088D02*
X20168587Y-11575946D01*
X20168587Y-11575946D02*
X20178111Y-11556898D01*
X20178111Y-11556898D02*
X20187635Y-11547374D01*
X20187635Y-11547374D02*
X20206682Y-11537850D01*
X20206682Y-11537850D02*
X20244777Y-11537850D01*
X20244777Y-11537850D02*
X20263825Y-11547374D01*
X20340016Y-11747374D02*
X20349539Y-11737850D01*
X20349539Y-11737850D02*
X20368587Y-11709279D01*
X20368587Y-11709279D02*
X20378111Y-11690231D01*
X20378111Y-11690231D02*
X20387635Y-11661660D01*
X20387635Y-11661660D02*
X20397158Y-11614041D01*
X20397158Y-11614041D02*
X20397158Y-11575946D01*
X20397158Y-11575946D02*
X20387635Y-11528327D01*
X20387635Y-11528327D02*
X20378111Y-11499755D01*
X20378111Y-11499755D02*
X20368587Y-11480708D01*
X20368587Y-11480708D02*
X20349539Y-11452136D01*
X20349539Y-11452136D02*
X20340016Y-11442612D01*
M02*
