M48
; DRILL file {KiCad 9.0.4} date 2025-11-09T18:50:02-0600
; FORMAT={-:-/ absolute / inch / decimal}
; #@! TF.CreationDate,2025-11-09T18:50:02-06:00
; #@! TF.GenerationSoftware,Kicad,Pcbnew,9.0.4
; #@! TF.FileFunction,Plated,1,4,PTH
FMAT,2
INCH
; #@! TA.AperFunction,Plated,PTH,ViaDrill
T1C0.0118
; #@! TA.AperFunction,Plated,PTH,ComponentDrill
T2C0.0315
; #@! TA.AperFunction,Plated,PTH,ComponentDrill
T3C0.0394
; #@! TA.AperFunction,Plated,PTH,ComponentDrill
T4C0.0570
%
G90
G05
T1
X5.67Y-2.735
X5.67Y-2.845
X5.725Y-3.315
X5.76Y-2.605
X5.8031Y-2.5357
X5.825Y-2.605
X5.8425Y-2.5357
X5.8819Y-2.5357
X5.89Y-2.605
X5.9213Y-3.2542
X5.935Y-3.495
X5.9606Y-3.2542
X5.965Y-3.4702
X6.0Y-3.2542
X6.069Y-3.5053
X6.0787Y-3.2542
X6.0846Y-3.538
X6.105Y-2.605
X6.1181Y-2.5357
X6.1181Y-3.2542
X6.1196Y-3.6424
X6.1575Y-2.5357
X6.1575Y-3.2542
X6.1595Y-3.3755
X6.165Y-2.605
X6.175Y-3.505
X6.1969Y-2.5357
X6.22Y-3.0452
X6.24Y-2.605
X6.2441Y-3.34
X6.28Y-3.555
X6.285Y-3.5146
X6.3159Y-3.34
X6.3774Y-3.4074
X6.38Y-3.12
X6.38Y-3.2
X6.385Y-3.59
X6.3885Y-3.4933
X6.3925Y-3.55
X6.4142Y-2.775
X6.4154Y-2.88
X6.4231Y-3.035
X6.445Y-3.4299
X6.455Y-3.3144
X6.455Y-3.3538
X6.495Y-3.4299
X6.545Y-3.4299
X6.5461Y-3.53
X6.5461Y-3.61
X6.5461Y-3.69
X6.595Y-3.035
X6.595Y-3.475
X6.615Y-3.53
X6.615Y-3.61
X6.615Y-3.69
T2
X5.97Y-3.325
X6.1078Y-3.325
T3
X6.13Y-3.805
X6.23Y-3.805
X6.33Y-3.805
X6.43Y-3.805
T4
X5.8122Y-3.64
X5.9372Y-2.445
X5.95Y-3.64
X6.075Y-2.445
M30
