%TF.GenerationSoftware,KiCad,Pcbnew,8.0.6*%
%TF.CreationDate,2025-04-08T19:20:38-05:00*%
%TF.ProjectId,Smart_MoCo,536d6172-745f-44d6-9f43-6f2e6b696361,rev?*%
%TF.SameCoordinates,Original*%
%TF.FileFunction,Paste,Bot*%
%TF.FilePolarity,Positive*%
%FSLAX46Y46*%
G04 Gerber Fmt 4.6, Leading zero omitted, Abs format (unit mm)*
G04 Created by KiCad (PCBNEW 8.0.6) date 2025-04-08 19:20:38*
%MOMM*%
%LPD*%
G01*
G04 APERTURE LIST*
G04 Aperture macros list*
%AMRoundRect*
0 Rectangle with rounded corners*
0 $1 Rounding radius*
0 $2 $3 $4 $5 $6 $7 $8 $9 X,Y pos of 4 corners*
0 Add a 4 corners polygon primitive as box body*
4,1,4,$2,$3,$4,$5,$6,$7,$8,$9,$2,$3,0*
0 Add four circle primitives for the rounded corners*
1,1,$1+$1,$2,$3*
1,1,$1+$1,$4,$5*
1,1,$1+$1,$6,$7*
1,1,$1+$1,$8,$9*
0 Add four rect primitives between the rounded corners*
20,1,$1+$1,$2,$3,$4,$5,0*
20,1,$1+$1,$4,$5,$6,$7,0*
20,1,$1+$1,$6,$7,$8,$9,0*
20,1,$1+$1,$8,$9,$2,$3,0*%
G04 Aperture macros list end*
%ADD10RoundRect,0.237500X0.250000X0.237500X-0.250000X0.237500X-0.250000X-0.237500X0.250000X-0.237500X0*%
%ADD11RoundRect,0.150000X-0.825000X-0.150000X0.825000X-0.150000X0.825000X0.150000X-0.825000X0.150000X0*%
%ADD12RoundRect,0.100000X-0.637500X-0.100000X0.637500X-0.100000X0.637500X0.100000X-0.637500X0.100000X0*%
%ADD13RoundRect,0.237500X0.237500X-0.300000X0.237500X0.300000X-0.237500X0.300000X-0.237500X-0.300000X0*%
%ADD14RoundRect,0.237500X-0.237500X0.300000X-0.237500X-0.300000X0.237500X-0.300000X0.237500X0.300000X0*%
%ADD15R,0.660000X1.350000*%
%ADD16R,10.300000X5.250000*%
%ADD17R,6.230000X5.250000*%
G04 APERTURE END LIST*
D10*
%TO.C,R10*%
X143063000Y-99949000D03*
X141238000Y-99949000D03*
%TD*%
D11*
%TO.C,U3*%
X158053000Y-99695000D03*
X158053000Y-98425000D03*
X158053000Y-97155000D03*
X158053000Y-95885000D03*
X163003000Y-95885000D03*
X163003000Y-97155000D03*
X163003000Y-98425000D03*
X163003000Y-99695000D03*
%TD*%
D12*
%TO.C,U1*%
X149664500Y-104398000D03*
X149664500Y-103748000D03*
X149664500Y-103098000D03*
X149664500Y-102448000D03*
X149664500Y-101798000D03*
X149664500Y-101148000D03*
X149664500Y-100498000D03*
X149664500Y-99848000D03*
X149664500Y-99198000D03*
X149664500Y-98548000D03*
X155389500Y-98548000D03*
X155389500Y-99198000D03*
X155389500Y-99848000D03*
X155389500Y-100498000D03*
X155389500Y-101148000D03*
X155389500Y-101798000D03*
X155389500Y-102448000D03*
X155389500Y-103098000D03*
X155389500Y-103748000D03*
X155389500Y-104398000D03*
%TD*%
D13*
%TO.C,C9*%
X160655000Y-93726000D03*
X160655000Y-92001000D03*
%TD*%
D14*
%TO.C,C8*%
X163449000Y-92001000D03*
X163449000Y-93726000D03*
%TD*%
D10*
%TO.C,R11*%
X143063000Y-97917000D03*
X141238000Y-97917000D03*
%TD*%
D15*
%TO.C,U2*%
X159400000Y-82656000D03*
X158400000Y-82656000D03*
X157400000Y-82656000D03*
X156400000Y-82656000D03*
X155400000Y-82656000D03*
X154400000Y-82656000D03*
X153400000Y-82656000D03*
X152400000Y-82656000D03*
X151400000Y-82656000D03*
X150400000Y-82656000D03*
X149400000Y-82656000D03*
X148400000Y-82656000D03*
X147400000Y-82656000D03*
X146400000Y-82656000D03*
X145400000Y-82656000D03*
X145400000Y-64406000D03*
X146400000Y-64406000D03*
X147400000Y-64406000D03*
X148400000Y-64406000D03*
X149400000Y-64406000D03*
X150400000Y-64406000D03*
X151400000Y-64406000D03*
X152400000Y-64406000D03*
X153400000Y-64406000D03*
X154400000Y-64406000D03*
X155400000Y-64406000D03*
X156400000Y-64406000D03*
X157400000Y-64406000D03*
X158400000Y-64406000D03*
X159400000Y-64406000D03*
D16*
X152400000Y-76581000D03*
D17*
X148235000Y-70481000D03*
X156565000Y-70481000D03*
%TD*%
D10*
%TO.C,R12*%
X143063000Y-95885000D03*
X141238000Y-95885000D03*
%TD*%
%TO.C,R9*%
X167640000Y-90043000D03*
X165815000Y-90043000D03*
%TD*%
M02*
