%TF.GenerationSoftware,KiCad,Pcbnew,8.0.6*%
%TF.CreationDate,2025-04-08T19:20:38-05:00*%
%TF.ProjectId,Smart_MoCo,536d6172-745f-44d6-9f43-6f2e6b696361,rev?*%
%TF.SameCoordinates,Original*%
%TF.FileFunction,Legend,Bot*%
%TF.FilePolarity,Positive*%
%FSLAX46Y46*%
G04 Gerber Fmt 4.6, Leading zero omitted, Abs format (unit mm)*
G04 Created by KiCad (PCBNEW 8.0.6) date 2025-04-08 19:20:38*
%MOMM*%
%LPD*%
G01*
G04 APERTURE LIST*
%ADD10C,0.150000*%
%ADD11C,0.200000*%
%ADD12C,0.010000*%
%ADD13C,0.120000*%
%ADD14C,0.000000*%
G04 APERTURE END LIST*
D10*
X139768857Y-100403819D02*
X140102190Y-99927628D01*
X140340285Y-100403819D02*
X140340285Y-99403819D01*
X140340285Y-99403819D02*
X139959333Y-99403819D01*
X139959333Y-99403819D02*
X139864095Y-99451438D01*
X139864095Y-99451438D02*
X139816476Y-99499057D01*
X139816476Y-99499057D02*
X139768857Y-99594295D01*
X139768857Y-99594295D02*
X139768857Y-99737152D01*
X139768857Y-99737152D02*
X139816476Y-99832390D01*
X139816476Y-99832390D02*
X139864095Y-99880009D01*
X139864095Y-99880009D02*
X139959333Y-99927628D01*
X139959333Y-99927628D02*
X140340285Y-99927628D01*
X138816476Y-100403819D02*
X139387904Y-100403819D01*
X139102190Y-100403819D02*
X139102190Y-99403819D01*
X139102190Y-99403819D02*
X139197428Y-99546676D01*
X139197428Y-99546676D02*
X139292666Y-99641914D01*
X139292666Y-99641914D02*
X139387904Y-99689533D01*
X138197428Y-99403819D02*
X138102190Y-99403819D01*
X138102190Y-99403819D02*
X138006952Y-99451438D01*
X138006952Y-99451438D02*
X137959333Y-99499057D01*
X137959333Y-99499057D02*
X137911714Y-99594295D01*
X137911714Y-99594295D02*
X137864095Y-99784771D01*
X137864095Y-99784771D02*
X137864095Y-100022866D01*
X137864095Y-100022866D02*
X137911714Y-100213342D01*
X137911714Y-100213342D02*
X137959333Y-100308580D01*
X137959333Y-100308580D02*
X138006952Y-100356200D01*
X138006952Y-100356200D02*
X138102190Y-100403819D01*
X138102190Y-100403819D02*
X138197428Y-100403819D01*
X138197428Y-100403819D02*
X138292666Y-100356200D01*
X138292666Y-100356200D02*
X138340285Y-100308580D01*
X138340285Y-100308580D02*
X138387904Y-100213342D01*
X138387904Y-100213342D02*
X138435523Y-100022866D01*
X138435523Y-100022866D02*
X138435523Y-99784771D01*
X138435523Y-99784771D02*
X138387904Y-99594295D01*
X138387904Y-99594295D02*
X138340285Y-99499057D01*
X138340285Y-99499057D02*
X138292666Y-99451438D01*
X138292666Y-99451438D02*
X138197428Y-99403819D01*
X161289904Y-100644819D02*
X161289904Y-101454342D01*
X161289904Y-101454342D02*
X161242285Y-101549580D01*
X161242285Y-101549580D02*
X161194666Y-101597200D01*
X161194666Y-101597200D02*
X161099428Y-101644819D01*
X161099428Y-101644819D02*
X160908952Y-101644819D01*
X160908952Y-101644819D02*
X160813714Y-101597200D01*
X160813714Y-101597200D02*
X160766095Y-101549580D01*
X160766095Y-101549580D02*
X160718476Y-101454342D01*
X160718476Y-101454342D02*
X160718476Y-100644819D01*
X160337523Y-100644819D02*
X159718476Y-100644819D01*
X159718476Y-100644819D02*
X160051809Y-101025771D01*
X160051809Y-101025771D02*
X159908952Y-101025771D01*
X159908952Y-101025771D02*
X159813714Y-101073390D01*
X159813714Y-101073390D02*
X159766095Y-101121009D01*
X159766095Y-101121009D02*
X159718476Y-101216247D01*
X159718476Y-101216247D02*
X159718476Y-101454342D01*
X159718476Y-101454342D02*
X159766095Y-101549580D01*
X159766095Y-101549580D02*
X159813714Y-101597200D01*
X159813714Y-101597200D02*
X159908952Y-101644819D01*
X159908952Y-101644819D02*
X160194666Y-101644819D01*
X160194666Y-101644819D02*
X160289904Y-101597200D01*
X160289904Y-101597200D02*
X160337523Y-101549580D01*
X153796904Y-105245819D02*
X153796904Y-106055342D01*
X153796904Y-106055342D02*
X153749285Y-106150580D01*
X153749285Y-106150580D02*
X153701666Y-106198200D01*
X153701666Y-106198200D02*
X153606428Y-106245819D01*
X153606428Y-106245819D02*
X153415952Y-106245819D01*
X153415952Y-106245819D02*
X153320714Y-106198200D01*
X153320714Y-106198200D02*
X153273095Y-106150580D01*
X153273095Y-106150580D02*
X153225476Y-106055342D01*
X153225476Y-106055342D02*
X153225476Y-105245819D01*
X152225476Y-106245819D02*
X152796904Y-106245819D01*
X152511190Y-106245819D02*
X152511190Y-105245819D01*
X152511190Y-105245819D02*
X152606428Y-105388676D01*
X152606428Y-105388676D02*
X152701666Y-105483914D01*
X152701666Y-105483914D02*
X152796904Y-105531533D01*
X162444580Y-92696833D02*
X162492200Y-92649214D01*
X162492200Y-92649214D02*
X162539819Y-92506357D01*
X162539819Y-92506357D02*
X162539819Y-92411119D01*
X162539819Y-92411119D02*
X162492200Y-92268262D01*
X162492200Y-92268262D02*
X162396961Y-92173024D01*
X162396961Y-92173024D02*
X162301723Y-92125405D01*
X162301723Y-92125405D02*
X162111247Y-92077786D01*
X162111247Y-92077786D02*
X161968390Y-92077786D01*
X161968390Y-92077786D02*
X161777914Y-92125405D01*
X161777914Y-92125405D02*
X161682676Y-92173024D01*
X161682676Y-92173024D02*
X161587438Y-92268262D01*
X161587438Y-92268262D02*
X161539819Y-92411119D01*
X161539819Y-92411119D02*
X161539819Y-92506357D01*
X161539819Y-92506357D02*
X161587438Y-92649214D01*
X161587438Y-92649214D02*
X161635057Y-92696833D01*
X162539819Y-93173024D02*
X162539819Y-93363500D01*
X162539819Y-93363500D02*
X162492200Y-93458738D01*
X162492200Y-93458738D02*
X162444580Y-93506357D01*
X162444580Y-93506357D02*
X162301723Y-93601595D01*
X162301723Y-93601595D02*
X162111247Y-93649214D01*
X162111247Y-93649214D02*
X161730295Y-93649214D01*
X161730295Y-93649214D02*
X161635057Y-93601595D01*
X161635057Y-93601595D02*
X161587438Y-93553976D01*
X161587438Y-93553976D02*
X161539819Y-93458738D01*
X161539819Y-93458738D02*
X161539819Y-93268262D01*
X161539819Y-93268262D02*
X161587438Y-93173024D01*
X161587438Y-93173024D02*
X161635057Y-93125405D01*
X161635057Y-93125405D02*
X161730295Y-93077786D01*
X161730295Y-93077786D02*
X161968390Y-93077786D01*
X161968390Y-93077786D02*
X162063628Y-93125405D01*
X162063628Y-93125405D02*
X162111247Y-93173024D01*
X162111247Y-93173024D02*
X162158866Y-93268262D01*
X162158866Y-93268262D02*
X162158866Y-93458738D01*
X162158866Y-93458738D02*
X162111247Y-93553976D01*
X162111247Y-93553976D02*
X162063628Y-93601595D01*
X162063628Y-93601595D02*
X161968390Y-93649214D01*
X165205580Y-92723333D02*
X165253200Y-92675714D01*
X165253200Y-92675714D02*
X165300819Y-92532857D01*
X165300819Y-92532857D02*
X165300819Y-92437619D01*
X165300819Y-92437619D02*
X165253200Y-92294762D01*
X165253200Y-92294762D02*
X165157961Y-92199524D01*
X165157961Y-92199524D02*
X165062723Y-92151905D01*
X165062723Y-92151905D02*
X164872247Y-92104286D01*
X164872247Y-92104286D02*
X164729390Y-92104286D01*
X164729390Y-92104286D02*
X164538914Y-92151905D01*
X164538914Y-92151905D02*
X164443676Y-92199524D01*
X164443676Y-92199524D02*
X164348438Y-92294762D01*
X164348438Y-92294762D02*
X164300819Y-92437619D01*
X164300819Y-92437619D02*
X164300819Y-92532857D01*
X164300819Y-92532857D02*
X164348438Y-92675714D01*
X164348438Y-92675714D02*
X164396057Y-92723333D01*
X164729390Y-93294762D02*
X164681771Y-93199524D01*
X164681771Y-93199524D02*
X164634152Y-93151905D01*
X164634152Y-93151905D02*
X164538914Y-93104286D01*
X164538914Y-93104286D02*
X164491295Y-93104286D01*
X164491295Y-93104286D02*
X164396057Y-93151905D01*
X164396057Y-93151905D02*
X164348438Y-93199524D01*
X164348438Y-93199524D02*
X164300819Y-93294762D01*
X164300819Y-93294762D02*
X164300819Y-93485238D01*
X164300819Y-93485238D02*
X164348438Y-93580476D01*
X164348438Y-93580476D02*
X164396057Y-93628095D01*
X164396057Y-93628095D02*
X164491295Y-93675714D01*
X164491295Y-93675714D02*
X164538914Y-93675714D01*
X164538914Y-93675714D02*
X164634152Y-93628095D01*
X164634152Y-93628095D02*
X164681771Y-93580476D01*
X164681771Y-93580476D02*
X164729390Y-93485238D01*
X164729390Y-93485238D02*
X164729390Y-93294762D01*
X164729390Y-93294762D02*
X164777009Y-93199524D01*
X164777009Y-93199524D02*
X164824628Y-93151905D01*
X164824628Y-93151905D02*
X164919866Y-93104286D01*
X164919866Y-93104286D02*
X165110342Y-93104286D01*
X165110342Y-93104286D02*
X165205580Y-93151905D01*
X165205580Y-93151905D02*
X165253200Y-93199524D01*
X165253200Y-93199524D02*
X165300819Y-93294762D01*
X165300819Y-93294762D02*
X165300819Y-93485238D01*
X165300819Y-93485238D02*
X165253200Y-93580476D01*
X165253200Y-93580476D02*
X165205580Y-93628095D01*
X165205580Y-93628095D02*
X165110342Y-93675714D01*
X165110342Y-93675714D02*
X164919866Y-93675714D01*
X164919866Y-93675714D02*
X164824628Y-93628095D01*
X164824628Y-93628095D02*
X164777009Y-93580476D01*
X164777009Y-93580476D02*
X164729390Y-93485238D01*
X139768857Y-98371819D02*
X140102190Y-97895628D01*
X140340285Y-98371819D02*
X140340285Y-97371819D01*
X140340285Y-97371819D02*
X139959333Y-97371819D01*
X139959333Y-97371819D02*
X139864095Y-97419438D01*
X139864095Y-97419438D02*
X139816476Y-97467057D01*
X139816476Y-97467057D02*
X139768857Y-97562295D01*
X139768857Y-97562295D02*
X139768857Y-97705152D01*
X139768857Y-97705152D02*
X139816476Y-97800390D01*
X139816476Y-97800390D02*
X139864095Y-97848009D01*
X139864095Y-97848009D02*
X139959333Y-97895628D01*
X139959333Y-97895628D02*
X140340285Y-97895628D01*
X138816476Y-98371819D02*
X139387904Y-98371819D01*
X139102190Y-98371819D02*
X139102190Y-97371819D01*
X139102190Y-97371819D02*
X139197428Y-97514676D01*
X139197428Y-97514676D02*
X139292666Y-97609914D01*
X139292666Y-97609914D02*
X139387904Y-97657533D01*
X137864095Y-98371819D02*
X138435523Y-98371819D01*
X138149809Y-98371819D02*
X138149809Y-97371819D01*
X138149809Y-97371819D02*
X138245047Y-97514676D01*
X138245047Y-97514676D02*
X138340285Y-97609914D01*
X138340285Y-97609914D02*
X138435523Y-97657533D01*
X161633819Y-79756095D02*
X162443342Y-79756095D01*
X162443342Y-79756095D02*
X162538580Y-79803714D01*
X162538580Y-79803714D02*
X162586200Y-79851333D01*
X162586200Y-79851333D02*
X162633819Y-79946571D01*
X162633819Y-79946571D02*
X162633819Y-80137047D01*
X162633819Y-80137047D02*
X162586200Y-80232285D01*
X162586200Y-80232285D02*
X162538580Y-80279904D01*
X162538580Y-80279904D02*
X162443342Y-80327523D01*
X162443342Y-80327523D02*
X161633819Y-80327523D01*
X161729057Y-80756095D02*
X161681438Y-80803714D01*
X161681438Y-80803714D02*
X161633819Y-80898952D01*
X161633819Y-80898952D02*
X161633819Y-81137047D01*
X161633819Y-81137047D02*
X161681438Y-81232285D01*
X161681438Y-81232285D02*
X161729057Y-81279904D01*
X161729057Y-81279904D02*
X161824295Y-81327523D01*
X161824295Y-81327523D02*
X161919533Y-81327523D01*
X161919533Y-81327523D02*
X162062390Y-81279904D01*
X162062390Y-81279904D02*
X162633819Y-80708476D01*
X162633819Y-80708476D02*
X162633819Y-81327523D01*
X139768857Y-96339819D02*
X140102190Y-95863628D01*
X140340285Y-96339819D02*
X140340285Y-95339819D01*
X140340285Y-95339819D02*
X139959333Y-95339819D01*
X139959333Y-95339819D02*
X139864095Y-95387438D01*
X139864095Y-95387438D02*
X139816476Y-95435057D01*
X139816476Y-95435057D02*
X139768857Y-95530295D01*
X139768857Y-95530295D02*
X139768857Y-95673152D01*
X139768857Y-95673152D02*
X139816476Y-95768390D01*
X139816476Y-95768390D02*
X139864095Y-95816009D01*
X139864095Y-95816009D02*
X139959333Y-95863628D01*
X139959333Y-95863628D02*
X140340285Y-95863628D01*
X138816476Y-96339819D02*
X139387904Y-96339819D01*
X139102190Y-96339819D02*
X139102190Y-95339819D01*
X139102190Y-95339819D02*
X139197428Y-95482676D01*
X139197428Y-95482676D02*
X139292666Y-95577914D01*
X139292666Y-95577914D02*
X139387904Y-95625533D01*
X138435523Y-95435057D02*
X138387904Y-95387438D01*
X138387904Y-95387438D02*
X138292666Y-95339819D01*
X138292666Y-95339819D02*
X138054571Y-95339819D01*
X138054571Y-95339819D02*
X137959333Y-95387438D01*
X137959333Y-95387438D02*
X137911714Y-95435057D01*
X137911714Y-95435057D02*
X137864095Y-95530295D01*
X137864095Y-95530295D02*
X137864095Y-95625533D01*
X137864095Y-95625533D02*
X137911714Y-95768390D01*
X137911714Y-95768390D02*
X138483142Y-96339819D01*
X138483142Y-96339819D02*
X137864095Y-96339819D01*
X166894166Y-89067819D02*
X167227499Y-88591628D01*
X167465594Y-89067819D02*
X167465594Y-88067819D01*
X167465594Y-88067819D02*
X167084642Y-88067819D01*
X167084642Y-88067819D02*
X166989404Y-88115438D01*
X166989404Y-88115438D02*
X166941785Y-88163057D01*
X166941785Y-88163057D02*
X166894166Y-88258295D01*
X166894166Y-88258295D02*
X166894166Y-88401152D01*
X166894166Y-88401152D02*
X166941785Y-88496390D01*
X166941785Y-88496390D02*
X166989404Y-88544009D01*
X166989404Y-88544009D02*
X167084642Y-88591628D01*
X167084642Y-88591628D02*
X167465594Y-88591628D01*
X166417975Y-89067819D02*
X166227499Y-89067819D01*
X166227499Y-89067819D02*
X166132261Y-89020200D01*
X166132261Y-89020200D02*
X166084642Y-88972580D01*
X166084642Y-88972580D02*
X165989404Y-88829723D01*
X165989404Y-88829723D02*
X165941785Y-88639247D01*
X165941785Y-88639247D02*
X165941785Y-88258295D01*
X165941785Y-88258295D02*
X165989404Y-88163057D01*
X165989404Y-88163057D02*
X166037023Y-88115438D01*
X166037023Y-88115438D02*
X166132261Y-88067819D01*
X166132261Y-88067819D02*
X166322737Y-88067819D01*
X166322737Y-88067819D02*
X166417975Y-88115438D01*
X166417975Y-88115438D02*
X166465594Y-88163057D01*
X166465594Y-88163057D02*
X166513213Y-88258295D01*
X166513213Y-88258295D02*
X166513213Y-88496390D01*
X166513213Y-88496390D02*
X166465594Y-88591628D01*
X166465594Y-88591628D02*
X166417975Y-88639247D01*
X166417975Y-88639247D02*
X166322737Y-88686866D01*
X166322737Y-88686866D02*
X166132261Y-88686866D01*
X166132261Y-88686866D02*
X166037023Y-88639247D01*
X166037023Y-88639247D02*
X165989404Y-88591628D01*
X165989404Y-88591628D02*
X165941785Y-88496390D01*
D11*
%TO.C,REF\u002A\u002A*%
X164337804Y-89443777D02*
X164338000Y-89535000D01*
X164329743Y-89345367D02*
X164337804Y-89443777D01*
X164338000Y-89535000D02*
X164330162Y-89617952D01*
X164313986Y-89240850D02*
X164329743Y-89345367D01*
X164330162Y-89617952D02*
X164314122Y-89691555D01*
X164290701Y-89131307D02*
X164313986Y-89240850D01*
X164260059Y-89017819D02*
X164290701Y-89131307D01*
X164314122Y-89691555D02*
X164289710Y-89754727D01*
X164222226Y-88901467D02*
X164260059Y-89017819D01*
X164289710Y-89754727D02*
X164256757Y-89806386D01*
X164177374Y-88783332D02*
X164222226Y-88901467D01*
X164256757Y-89806386D02*
X164215095Y-89845451D01*
X164125669Y-88664495D02*
X164177374Y-88783332D01*
X164215095Y-89845451D02*
X164164555Y-89870843D01*
X164067282Y-88546038D02*
X164125669Y-88664495D01*
X164099606Y-86067059D02*
X164111905Y-86046920D01*
X163945520Y-86475664D02*
X164111905Y-86046920D01*
X164164555Y-89870843D02*
X164104968Y-89881479D01*
X164085544Y-86092565D02*
X164099606Y-86067059D01*
X164091312Y-88434011D02*
X164093769Y-88553951D01*
X164093769Y-88553951D02*
X164093434Y-88657371D01*
X164093434Y-88657371D02*
X164092293Y-88702999D01*
X164085822Y-88297191D02*
X164091312Y-88434011D01*
X164092293Y-88702999D02*
X164090544Y-88744630D01*
X164090544Y-88744630D02*
X164088217Y-88782312D01*
X164077060Y-88143134D02*
X164085822Y-88297191D01*
X164067375Y-86128657D02*
X164085544Y-86092565D01*
X164088217Y-88782312D02*
X164085341Y-88816087D01*
X164085341Y-88816087D02*
X164081946Y-88846002D01*
X164081946Y-88846002D02*
X164078063Y-88872101D01*
X164064787Y-87971479D02*
X164077060Y-88143134D01*
X164078063Y-88872101D02*
X164073720Y-88894429D01*
X164073720Y-88894429D02*
X164068949Y-88913031D01*
X164045971Y-86175557D02*
X164067375Y-86128657D01*
X164002380Y-88429041D02*
X164067282Y-88546038D01*
X164048764Y-87781869D02*
X164064787Y-87971479D01*
X164068949Y-88913031D02*
X164063779Y-88927951D01*
X164063779Y-88927951D02*
X164058239Y-88939235D01*
X164058239Y-88939235D02*
X164052361Y-88946928D01*
X164052361Y-88946928D02*
X164049304Y-88949441D01*
X164028750Y-87573944D02*
X164048764Y-87781869D01*
X164049304Y-88949441D02*
X164046173Y-88951073D01*
X164022210Y-86233486D02*
X164045971Y-86175557D01*
X164046173Y-88951073D02*
X164042973Y-88951830D01*
X164042973Y-88951830D02*
X164039706Y-88951717D01*
X164039706Y-88951717D02*
X164036377Y-88950740D01*
X164104968Y-89881479D02*
X164036165Y-89876278D01*
X164036377Y-88950740D02*
X164032990Y-88948904D01*
X164002248Y-87371970D02*
X164028750Y-87573944D01*
X164032990Y-88948904D02*
X164026054Y-88942679D01*
X163996964Y-86302666D02*
X164022210Y-86233486D01*
X164026054Y-88942679D02*
X164018928Y-88933087D01*
X164018928Y-88933087D02*
X164011643Y-88920172D01*
X164011643Y-88920172D02*
X164004229Y-88903980D01*
X163931134Y-88314585D02*
X164002380Y-88429041D01*
X163965738Y-87183859D02*
X164002248Y-87371970D01*
X163971109Y-86383319D02*
X163996964Y-86302666D01*
X164004229Y-88903980D02*
X163989182Y-88861092D01*
X163989182Y-88861092D02*
X163974577Y-88806022D01*
X163958227Y-86428016D02*
X163971109Y-86383319D01*
X163919932Y-87009121D02*
X163965738Y-87183859D01*
X163945520Y-86475664D02*
X163958227Y-86428016D01*
X164036165Y-89876278D02*
X163957977Y-89854160D01*
X163974577Y-88806022D02*
X163946915Y-88664423D01*
X163933098Y-86526292D02*
X163945520Y-86475664D01*
X163921071Y-86579925D02*
X163933098Y-86526292D01*
X163853711Y-88203752D02*
X163931134Y-88314585D01*
X163946915Y-88664423D02*
X163921681Y-88489357D01*
X163909548Y-86636593D02*
X163921071Y-86579925D01*
X163865541Y-86847270D02*
X163919932Y-87009121D01*
X163898638Y-86696323D02*
X163909548Y-86636593D01*
X163921681Y-88489357D02*
X163899315Y-88290997D01*
X163888451Y-86759142D02*
X163898638Y-86696323D01*
X163879095Y-86825078D02*
X163888451Y-86759142D01*
X163899315Y-88290997D02*
X163880256Y-88079518D01*
X163870681Y-86894159D02*
X163879095Y-86825078D01*
X163863318Y-86966413D02*
X163870681Y-86894159D01*
X163957977Y-89854160D02*
X163870236Y-89814043D01*
X163803277Y-86697815D02*
X163865541Y-86847270D01*
X163880256Y-88079518D02*
X163864945Y-87865094D01*
X163857114Y-87041867D02*
X163863318Y-86966413D01*
X163852179Y-87120549D02*
X163857114Y-87041867D01*
X163864945Y-87865094D02*
X163853820Y-87657900D01*
X163770280Y-88097622D02*
X163853711Y-88203752D01*
X163848624Y-87202487D02*
X163852179Y-87120549D01*
X163846556Y-87287708D02*
X163848624Y-87202487D01*
X163853820Y-87657900D02*
X163847322Y-87468110D01*
X163846086Y-87376240D02*
X163846556Y-87287708D01*
X163847322Y-87468110D02*
X163846086Y-87376240D01*
X163809921Y-87411167D02*
X163826502Y-87430637D01*
X163826502Y-87430637D02*
X163824306Y-87444758D01*
X163727406Y-87360141D02*
X163809921Y-87411167D01*
X163733851Y-86560268D02*
X163803277Y-86697815D01*
X163824306Y-87444758D02*
X163801589Y-87452540D01*
X163870236Y-89814043D02*
X163772772Y-89754847D01*
X163681012Y-87997277D02*
X163770280Y-88097622D01*
X163801589Y-87452540D02*
X163756607Y-87452991D01*
X163657975Y-86434141D02*
X163733851Y-86560268D01*
X163590715Y-87299604D02*
X163727406Y-87360141D01*
X163756607Y-87452991D02*
X163702472Y-87447458D01*
X162996706Y-87250511D02*
X163681012Y-87997277D01*
X163772772Y-89754847D02*
X163665416Y-89675489D01*
X163576360Y-86318945D02*
X163657975Y-86434141D01*
X163702472Y-87447458D02*
X163646281Y-87437621D01*
X163413802Y-87237479D02*
X163590715Y-87299604D01*
X163646281Y-87437621D02*
X163588203Y-87423681D01*
X163489717Y-86214191D02*
X163576360Y-86318945D01*
X163665416Y-89675489D02*
X163548001Y-89574890D01*
X163588203Y-87423681D02*
X163528411Y-87405837D01*
X163398759Y-86119391D02*
X163489717Y-86214191D01*
X163528411Y-87405837D02*
X163467074Y-87384287D01*
X163548001Y-89574890D02*
X163420356Y-89451968D01*
X163210623Y-87181691D02*
X163413802Y-87237479D01*
X163467074Y-87384287D02*
X163404364Y-87359232D01*
X163304196Y-86034055D02*
X163398759Y-86119391D01*
X163206740Y-85957697D02*
X163304196Y-86034055D01*
X163420356Y-89451968D02*
X163282313Y-89305643D01*
X163404364Y-87359232D02*
X163275507Y-87299401D01*
X162995131Y-87140161D02*
X163210623Y-87181691D01*
X163107103Y-85889826D02*
X163206740Y-85957697D01*
X163275507Y-87299401D02*
X163143208Y-87227938D01*
X163282313Y-89305643D02*
X163133703Y-89134832D01*
X163005996Y-85829954D02*
X163107103Y-85889826D01*
X163143208Y-87227938D02*
X163008832Y-87146437D01*
X162904130Y-85777594D02*
X163005996Y-85829954D01*
X162847610Y-87095492D02*
X162996706Y-87250511D01*
X162781281Y-87120814D02*
X162995131Y-87140161D01*
X163133703Y-89134832D02*
X162974357Y-88938455D01*
X162802217Y-85732255D02*
X162904130Y-85777594D01*
X163008832Y-87146437D02*
X162873747Y-87056493D01*
X162709945Y-86963846D02*
X162847610Y-87095492D01*
X162974357Y-88938455D02*
X162804107Y-88715432D01*
X162700969Y-85693449D02*
X162802217Y-85732255D01*
X162679332Y-87121935D02*
X162781281Y-87120814D01*
X162873747Y-87056493D02*
X162739320Y-86959699D01*
X162585031Y-86860929D02*
X162709945Y-86963846D01*
X162601096Y-85660688D02*
X162700969Y-85693449D01*
X162583027Y-87131573D02*
X162679332Y-87121935D01*
X162804107Y-88715432D02*
X162638255Y-88482560D01*
X162739320Y-86959699D02*
X162606917Y-86857650D01*
X162408325Y-85611347D02*
X162601096Y-85660688D01*
X162527768Y-86821916D02*
X162585031Y-86860929D01*
X162494109Y-87150719D02*
X162583027Y-87131573D01*
X162474187Y-86792093D02*
X162527768Y-86821916D01*
X162638255Y-88482560D02*
X162502466Y-88272072D01*
X162414324Y-87180362D02*
X162494109Y-87150719D01*
X162606917Y-86857650D02*
X162477906Y-86751940D01*
X162424453Y-86772127D02*
X162474187Y-86792093D01*
X162378731Y-86762690D02*
X162424453Y-86772127D01*
X162345414Y-87221494D02*
X162414324Y-87180362D01*
X162229594Y-85580320D02*
X162408325Y-85611347D01*
X162502466Y-88272072D02*
X162394996Y-88082977D01*
X162337187Y-86764449D02*
X162378731Y-86762690D01*
X162477906Y-86751940D02*
X162353653Y-86644163D01*
X162289125Y-87275104D02*
X162345414Y-87221494D01*
X162299984Y-86778074D02*
X162337187Y-86764449D01*
X162330608Y-89100906D02*
X162333811Y-89013046D01*
X162323306Y-89173258D02*
X162330608Y-89100906D01*
X162333811Y-89013046D02*
X162326868Y-88787261D01*
X162312165Y-89230986D02*
X162323306Y-89173258D01*
X162394996Y-88082977D02*
X162314102Y-87914283D01*
X162297449Y-89274974D02*
X162312165Y-89230986D01*
X162326868Y-88787261D02*
X162300383Y-88488828D01*
X162267289Y-86804234D02*
X162299984Y-86778074D01*
X162279418Y-89306108D02*
X162297449Y-89274974D01*
X162247201Y-87342184D02*
X162289125Y-87275104D01*
X162258335Y-89325272D02*
X162279418Y-89306108D01*
X162239265Y-86843598D02*
X162267289Y-86804234D01*
X162234461Y-89333350D02*
X162258335Y-89325272D01*
X162314102Y-87914283D02*
X162258037Y-87765002D01*
X162300383Y-88488828D02*
X162252262Y-88110670D01*
X162221385Y-87423723D02*
X162247201Y-87342184D01*
X162216078Y-86896835D02*
X162239265Y-86843598D01*
X162353653Y-86644163D02*
X162235526Y-86535914D01*
X162208058Y-89331227D02*
X162234461Y-89333350D01*
X162070597Y-85563701D02*
X162229594Y-85580320D01*
X162258037Y-87765002D02*
X162225060Y-87634141D01*
X162213424Y-87520712D02*
X162221385Y-87423723D01*
X162197893Y-86964614D02*
X162216078Y-86896835D01*
X162225060Y-87634141D02*
X162213424Y-87520712D01*
X162179389Y-89319788D02*
X162208058Y-89331227D01*
X162252262Y-88110670D02*
X162203052Y-87714151D01*
X162184874Y-87047605D02*
X162197893Y-86964614D01*
X162203052Y-87714151D02*
X162187764Y-87545066D01*
X162177187Y-87146477D02*
X162184874Y-87047605D01*
X162148714Y-89299916D02*
X162179389Y-89319788D01*
X162187764Y-87545066D02*
X162178467Y-87394538D01*
X162174996Y-87261898D02*
X162177187Y-87146477D01*
X162178467Y-87394538D02*
X162174996Y-87261898D01*
X162082398Y-89238417D02*
X162148714Y-89299916D01*
X162235526Y-86535914D02*
X162124891Y-86428786D01*
X162011204Y-89153805D02*
X162082398Y-89238417D01*
X161937025Y-85557579D02*
X162070597Y-85563701D01*
X162124891Y-86428786D02*
X162023114Y-86324374D01*
X161937228Y-89053157D02*
X162011204Y-89153805D01*
X161862564Y-88943550D02*
X161937228Y-89053157D01*
X161834569Y-85558046D02*
X161937025Y-85557579D01*
X162023114Y-86324374D02*
X161931564Y-86224272D01*
X161719554Y-88725764D02*
X161862564Y-88943550D01*
X161931564Y-86224272D02*
X161851607Y-86130075D01*
X161745774Y-85563110D02*
X161834569Y-85558046D01*
X161851607Y-86130075D02*
X161816718Y-86085882D01*
X161816718Y-86085882D02*
X161785638Y-86043978D01*
X161785638Y-86043978D02*
X161758191Y-86004306D01*
X161734198Y-85567628D02*
X161745774Y-85563110D01*
X161721855Y-85573973D02*
X161734198Y-85567628D01*
X161758191Y-86004306D02*
X161734198Y-85966807D01*
X161707031Y-85583663D02*
X161721855Y-85573973D01*
X161655397Y-88631739D02*
X161719554Y-88725764D01*
X161734198Y-85966807D02*
X161713483Y-85931423D01*
X161699132Y-85589907D02*
X161707031Y-85583663D01*
X161691144Y-85597161D02*
X161699132Y-85589907D01*
X161713483Y-85931423D02*
X161695869Y-85898095D01*
X161683245Y-85605484D02*
X161691144Y-85597161D01*
X161675612Y-85614934D02*
X161683245Y-85605484D01*
X161695869Y-85898095D02*
X161681178Y-85866767D01*
X161668421Y-85625569D02*
X161675612Y-85614934D01*
X161681178Y-85866767D02*
X161669233Y-85837379D01*
X161661851Y-85637447D02*
X161668421Y-85625569D01*
X161656078Y-85650626D02*
X161661851Y-85637447D01*
X161669233Y-85837379D02*
X161659858Y-85809874D01*
X161651280Y-85665164D02*
X161656078Y-85650626D01*
X161598933Y-88557062D02*
X161655397Y-88631739D01*
X161659858Y-85809874D02*
X161652874Y-85784193D01*
X161647633Y-85681119D02*
X161651280Y-85665164D01*
X161652874Y-85784193D02*
X161648105Y-85760278D01*
X161645315Y-85698551D02*
X161647633Y-85681119D01*
X161648105Y-85760278D02*
X161645374Y-85738072D01*
X161644503Y-85717515D02*
X161645315Y-85698551D01*
X161645374Y-85738072D02*
X161644503Y-85717515D01*
X161459992Y-88391581D02*
X161598933Y-88557062D01*
X161394041Y-88317265D02*
X161459992Y-88391581D01*
X161329600Y-88249831D02*
X161394041Y-88317265D01*
X161266040Y-88190224D02*
X161329600Y-88249831D01*
X161234394Y-88163653D02*
X161266040Y-88190224D01*
X161202733Y-88139394D02*
X161234394Y-88163653D01*
X161170979Y-88117567D02*
X161202733Y-88139394D01*
X161139053Y-88098289D02*
X161170979Y-88117567D01*
X161106877Y-88081679D02*
X161139053Y-88098289D01*
X161074371Y-88067855D02*
X161106877Y-88081679D01*
X161041459Y-88056937D02*
X161074371Y-88067855D01*
X161008060Y-88049042D02*
X161041459Y-88056937D01*
X160974098Y-88044289D02*
X161008060Y-88049042D01*
X160939492Y-88042797D02*
X160974098Y-88044289D01*
X160904166Y-88044684D02*
X160939492Y-88042797D01*
X160868040Y-88050068D02*
X160904166Y-88044684D01*
X160831035Y-88059068D02*
X160868040Y-88050068D01*
X160793075Y-88071802D02*
X160831035Y-88059068D01*
X160754079Y-88088389D02*
X160793075Y-88071802D01*
X160713969Y-88108948D02*
X160754079Y-88088389D01*
X160672668Y-88133597D02*
X160713969Y-88108948D01*
X160630097Y-88162454D02*
X160672668Y-88133597D01*
X160586176Y-88195638D02*
X160630097Y-88162454D01*
X160540828Y-88233268D02*
X160586176Y-88195638D01*
X160493974Y-88275461D02*
X160540828Y-88233268D01*
X160445536Y-88322337D02*
X160493974Y-88275461D01*
X160349156Y-88396945D02*
X160445536Y-88322337D01*
X160239196Y-88443440D02*
X160349156Y-88396945D01*
X160116749Y-88463510D02*
X160239196Y-88443440D01*
X159982906Y-88458844D02*
X160116749Y-88463510D01*
X159838757Y-88431131D02*
X159982906Y-88458844D01*
X159685393Y-88382057D02*
X159838757Y-88431131D01*
X159523907Y-88313312D02*
X159685393Y-88382057D01*
X159355388Y-88226584D02*
X159523907Y-88313312D01*
X159180929Y-88123561D02*
X159355388Y-88226584D01*
X159001620Y-88005932D02*
X159180929Y-88123561D01*
X158632817Y-87733607D02*
X159001620Y-88005932D01*
X158257709Y-87423117D02*
X158632817Y-87733607D01*
X157885026Y-87087966D02*
X158257709Y-87423117D01*
X157523496Y-86741662D02*
X157885026Y-87087966D01*
X157181848Y-86397710D02*
X157523496Y-86741662D01*
X156593118Y-85770893D02*
X157181848Y-86397710D01*
X156038334Y-85139777D02*
X156593118Y-85770893D01*
D12*
%TO.C,G\u002A\u002A\u002A*%
X148362532Y-88847706D02*
X148361663Y-88922946D01*
X148359890Y-89002352D01*
X148357128Y-89071464D01*
X148353171Y-89132816D01*
X148347809Y-89188946D01*
X148340836Y-89242389D01*
X148332042Y-89295683D01*
X148321221Y-89351363D01*
X148320889Y-89352985D01*
X148314056Y-89394465D01*
X148310638Y-89432914D01*
X148310642Y-89465455D01*
X148314072Y-89489211D01*
X148320934Y-89501304D01*
X148321694Y-89501279D01*
X148326846Y-89492844D01*
X148334769Y-89472679D01*
X148344772Y-89443006D01*
X148356165Y-89406045D01*
X148368256Y-89364018D01*
X148380354Y-89319145D01*
X148391768Y-89273647D01*
X148397948Y-89246471D01*
X148410711Y-89181758D01*
X148423322Y-89107446D01*
X148435340Y-89026991D01*
X148446323Y-88943846D01*
X148455830Y-88861466D01*
X148463418Y-88783308D01*
X148468645Y-88712824D01*
X148471071Y-88653470D01*
X148471525Y-88634586D01*
X148472626Y-88622920D01*
X148474914Y-88623493D01*
X148479031Y-88634794D01*
X148480095Y-88638962D01*
X148482902Y-88660852D01*
X148485013Y-88694663D01*
X148486445Y-88738130D01*
X148487213Y-88788985D01*
X148487333Y-88844962D01*
X148486822Y-88903795D01*
X148485694Y-88963217D01*
X148483967Y-89020962D01*
X148481656Y-89074763D01*
X148478776Y-89122355D01*
X148475343Y-89161470D01*
X148459607Y-89286800D01*
X148439441Y-89410678D01*
X148415890Y-89524998D01*
X148393077Y-89613441D01*
X148389315Y-89628027D01*
X148360073Y-89718029D01*
X148358971Y-89721073D01*
X148347670Y-89757367D01*
X148338439Y-89795459D01*
X148333182Y-89827584D01*
X148332574Y-89833484D01*
X148317532Y-89922069D01*
X148292546Y-90001936D01*
X148258116Y-90072235D01*
X148214742Y-90132122D01*
X148163020Y-90180656D01*
X148162924Y-90180747D01*
X148103162Y-90217265D01*
X148098817Y-90219306D01*
X148069027Y-90232305D01*
X148041688Y-90242744D01*
X148022236Y-90248522D01*
X148007487Y-90253178D01*
X147982201Y-90264812D01*
X147956476Y-90279780D01*
X147934234Y-90293755D01*
X147848890Y-90338012D01*
X147754691Y-90374152D01*
X147679237Y-90394630D01*
X147655078Y-90401187D01*
X147553493Y-90418132D01*
X147453379Y-90424000D01*
X147439134Y-90424309D01*
X147419093Y-90427502D01*
X147401465Y-90436256D01*
X147379809Y-90453120D01*
X147351753Y-90475648D01*
X147270703Y-90528865D01*
X147185856Y-90567685D01*
X147097326Y-90592053D01*
X147049575Y-90598106D01*
X146984764Y-90599533D01*
X146918470Y-90594696D01*
X146857205Y-90583818D01*
X146818905Y-90572110D01*
X146769892Y-90552844D01*
X146717955Y-90528941D01*
X146667847Y-90502601D01*
X146624320Y-90476025D01*
X146574933Y-90440809D01*
X146509493Y-90387637D01*
X146443399Y-90326267D01*
X146375809Y-90255763D01*
X146315845Y-90186670D01*
X146660749Y-90186670D01*
X146662327Y-90190375D01*
X146672861Y-90202429D01*
X146691009Y-90221355D01*
X146715424Y-90245677D01*
X146731968Y-90261617D01*
X146778636Y-90303018D01*
X146822551Y-90335537D01*
X146867743Y-90361941D01*
X146918241Y-90384998D01*
X146949110Y-90395795D01*
X146985069Y-90403033D01*
X147028647Y-90406180D01*
X147038150Y-90406428D01*
X147068411Y-90406579D01*
X147092919Y-90405780D01*
X147107089Y-90404150D01*
X147116799Y-90401117D01*
X147127141Y-90394630D01*
X147122663Y-90388702D01*
X147103446Y-90383793D01*
X147083199Y-90379673D01*
X147044729Y-90369362D01*
X146999624Y-90355239D01*
X146952037Y-90338698D01*
X146906121Y-90321138D01*
X146866030Y-90303954D01*
X146863312Y-90302692D01*
X146806522Y-90273837D01*
X146739804Y-90235594D01*
X146662589Y-90187637D01*
X146660749Y-90186670D01*
X146315845Y-90186670D01*
X146305883Y-90175191D01*
X146274278Y-90135600D01*
X147090440Y-90135600D01*
X147095312Y-90139260D01*
X147111960Y-90145770D01*
X147137682Y-90154328D01*
X147169772Y-90164135D01*
X147205528Y-90174392D01*
X147242246Y-90184299D01*
X147277221Y-90193056D01*
X147307749Y-90199863D01*
X147311419Y-90200608D01*
X147349365Y-90208111D01*
X147375813Y-90212445D01*
X147393652Y-90213522D01*
X147405771Y-90211256D01*
X147415059Y-90205558D01*
X147424405Y-90196342D01*
X147426053Y-90194587D01*
X147433036Y-90186579D01*
X147435514Y-90180656D01*
X147431756Y-90176268D01*
X147420031Y-90172864D01*
X147398608Y-90169894D01*
X147365755Y-90166806D01*
X147319742Y-90163051D01*
X147276461Y-90159119D01*
X147230507Y-90154143D01*
X147188492Y-90148856D01*
X147155901Y-90143897D01*
X147144499Y-90141946D01*
X147117731Y-90137831D01*
X147098526Y-90135563D01*
X147090445Y-90135594D01*
X147090440Y-90135600D01*
X146274278Y-90135600D01*
X146236927Y-90088810D01*
X147827022Y-90088810D01*
X147828623Y-90090822D01*
X147836338Y-90092874D01*
X147855000Y-90095655D01*
X147880294Y-90098450D01*
X147928853Y-90103081D01*
X147973677Y-90066769D01*
X148005021Y-90040014D01*
X148079965Y-89963608D01*
X148148985Y-89874287D01*
X148212554Y-89771464D01*
X148221919Y-89754007D01*
X148234215Y-89726094D01*
X148240939Y-89699415D01*
X148244241Y-89666876D01*
X148247499Y-89613441D01*
X148210366Y-89686079D01*
X148161655Y-89772950D01*
X148101430Y-89859907D01*
X148035257Y-89934886D01*
X147961943Y-89999218D01*
X147880294Y-90054234D01*
X147874370Y-90057725D01*
X147849773Y-90072278D01*
X147835249Y-90081202D01*
X147828448Y-90086158D01*
X147827022Y-90088810D01*
X146236927Y-90088810D01*
X146232779Y-90083614D01*
X146155656Y-89980097D01*
X146073672Y-89863706D01*
X146051698Y-89831771D01*
X146045392Y-89822617D01*
X146871765Y-89822617D01*
X146875500Y-89826353D01*
X146879236Y-89822617D01*
X146875500Y-89818882D01*
X146871765Y-89822617D01*
X146045392Y-89822617D01*
X146023847Y-89791341D01*
X145999350Y-89755829D01*
X145979482Y-89727084D01*
X145965521Y-89706955D01*
X145958744Y-89697291D01*
X145946522Y-89688746D01*
X145921183Y-89680502D01*
X145881912Y-89672508D01*
X145864008Y-89669361D01*
X145695313Y-89632028D01*
X145526306Y-89581107D01*
X145359471Y-89517535D01*
X145197293Y-89442247D01*
X145042257Y-89356181D01*
X144996830Y-89328010D01*
X144841096Y-89220348D01*
X144694816Y-89101544D01*
X144558515Y-88972315D01*
X144432720Y-88833380D01*
X144317957Y-88685457D01*
X144214751Y-88529262D01*
X144123630Y-88365514D01*
X144045118Y-88194930D01*
X143979743Y-88018228D01*
X143928031Y-87836127D01*
X143904382Y-87729988D01*
X143886228Y-87627700D01*
X143873427Y-87526417D01*
X143865592Y-87422275D01*
X143862337Y-87311410D01*
X143863273Y-87189961D01*
X143863528Y-87179149D01*
X143866549Y-87091389D01*
X143871309Y-87013818D01*
X143878296Y-86942214D01*
X143887998Y-86872352D01*
X143900904Y-86800010D01*
X143917502Y-86720964D01*
X143937708Y-86629957D01*
X143921242Y-86609024D01*
X143916134Y-86602872D01*
X143900561Y-86584986D01*
X143877342Y-86558832D01*
X143848010Y-86526098D01*
X143814099Y-86488474D01*
X143777140Y-86447648D01*
X143738666Y-86405309D01*
X143700212Y-86363146D01*
X143663308Y-86322847D01*
X143629489Y-86286102D01*
X143600287Y-86254599D01*
X143577236Y-86230027D01*
X143549479Y-86201839D01*
X143512230Y-86166196D01*
X143471690Y-86129170D01*
X143430614Y-86093168D01*
X143391754Y-86060597D01*
X143357864Y-86033864D01*
X143331698Y-86015376D01*
X143330227Y-86014450D01*
X143297181Y-85998643D01*
X143263876Y-85993703D01*
X143251412Y-85993539D01*
X143238304Y-85992372D01*
X143236819Y-85988961D01*
X143244794Y-85981975D01*
X143247703Y-85979970D01*
X143271863Y-85973672D01*
X143305576Y-85978501D01*
X143348583Y-85994364D01*
X143400624Y-86021171D01*
X143461442Y-86058829D01*
X143464842Y-86061085D01*
X143510727Y-86092954D01*
X143560275Y-86130039D01*
X143614599Y-86173269D01*
X143674811Y-86223571D01*
X143742024Y-86281874D01*
X143817352Y-86349106D01*
X143901906Y-86426195D01*
X143906700Y-86430601D01*
X143935210Y-86456585D01*
X143954982Y-86473748D01*
X143967935Y-86483291D01*
X143975991Y-86486415D01*
X143981069Y-86484321D01*
X143985090Y-86478208D01*
X143989378Y-86470920D01*
X143994301Y-86468344D01*
X144000554Y-86475785D01*
X144010749Y-86494948D01*
X144015818Y-86504751D01*
X144028667Y-86528603D01*
X144039112Y-86546764D01*
X144039524Y-86547444D01*
X144041088Y-86552973D01*
X144033018Y-86547825D01*
X144015777Y-86532289D01*
X143998393Y-86516533D01*
X143984376Y-86505432D01*
X143977853Y-86502407D01*
X143976763Y-86504298D01*
X143971853Y-86517453D01*
X143964975Y-86539004D01*
X143957404Y-86564558D01*
X143950416Y-86589724D01*
X143945288Y-86610112D01*
X143943294Y-86621330D01*
X143944470Y-86624414D01*
X143953300Y-86637970D01*
X143969363Y-86659509D01*
X143990971Y-86686808D01*
X144016437Y-86717643D01*
X144021608Y-86723790D01*
X144052885Y-86761199D01*
X144084967Y-86799898D01*
X144114364Y-86835663D01*
X144137582Y-86864264D01*
X144147229Y-86876219D01*
X144170406Y-86904725D01*
X144199899Y-86940819D01*
X144233668Y-86982009D01*
X144269670Y-87025801D01*
X144305864Y-87069706D01*
X144332089Y-87101639D01*
X144368866Y-87147407D01*
X144399252Y-87187007D01*
X144425450Y-87223558D01*
X144449661Y-87260181D01*
X144474086Y-87299994D01*
X144500928Y-87346117D01*
X144545659Y-87423656D01*
X144641922Y-87585665D01*
X144737037Y-87738662D01*
X144833323Y-87886240D01*
X144933100Y-88031995D01*
X145038688Y-88179521D01*
X145087995Y-88248172D01*
X145131147Y-88311080D01*
X145169664Y-88370808D01*
X145206173Y-88431430D01*
X145243299Y-88497021D01*
X145246325Y-88502488D01*
X145276565Y-88555778D01*
X145309918Y-88612521D01*
X145343864Y-88668549D01*
X145375883Y-88719696D01*
X145403453Y-88761794D01*
X145421881Y-88789771D01*
X145450864Y-88835725D01*
X145483432Y-88889069D01*
X145517613Y-88946521D01*
X145551435Y-89004798D01*
X145582927Y-89060617D01*
X145602772Y-89096186D01*
X145639351Y-89160781D01*
X145677409Y-89226904D01*
X145716141Y-89293235D01*
X145754741Y-89358455D01*
X145792403Y-89421243D01*
X145828323Y-89480280D01*
X145861694Y-89534246D01*
X145891710Y-89581822D01*
X145917566Y-89621686D01*
X145938457Y-89652521D01*
X145953576Y-89673005D01*
X145962118Y-89681819D01*
X145975478Y-89686680D01*
X146006310Y-89692937D01*
X146048621Y-89698109D01*
X146100370Y-89702181D01*
X146159519Y-89705139D01*
X146224026Y-89706967D01*
X146291854Y-89707651D01*
X146360961Y-89707176D01*
X146429309Y-89705526D01*
X146494857Y-89702687D01*
X146555567Y-89698644D01*
X146609397Y-89693382D01*
X146654310Y-89686886D01*
X146654578Y-89686838D01*
X146695025Y-89686838D01*
X146697209Y-89690517D01*
X146708900Y-89701723D01*
X146728473Y-89718328D01*
X146753632Y-89738312D01*
X146773668Y-89753722D01*
X146813178Y-89783531D01*
X146841514Y-89803941D01*
X146858584Y-89814886D01*
X146864294Y-89816301D01*
X146864182Y-89815931D01*
X146857221Y-89808803D01*
X146841289Y-89795273D01*
X146818963Y-89777311D01*
X146792820Y-89756888D01*
X146765435Y-89735975D01*
X146739387Y-89716543D01*
X146717251Y-89700562D01*
X146701605Y-89690003D01*
X146695025Y-89686838D01*
X146654578Y-89686838D01*
X146679649Y-89682351D01*
X146620692Y-89626745D01*
X146561736Y-89571139D01*
X146620001Y-89617879D01*
X146636335Y-89631105D01*
X146658787Y-89649743D01*
X146674937Y-89663738D01*
X146682075Y-89670780D01*
X146683878Y-89672742D01*
X146696058Y-89676279D01*
X146718993Y-89675709D01*
X146753861Y-89670945D01*
X146801840Y-89661898D01*
X146813181Y-89659493D01*
X146842537Y-89652820D01*
X146877751Y-89644404D01*
X146915911Y-89634989D01*
X146954101Y-89625318D01*
X146989410Y-89616132D01*
X147018924Y-89608175D01*
X147039728Y-89602190D01*
X147048911Y-89598919D01*
X147048413Y-89598309D01*
X147060015Y-89598309D01*
X147060869Y-89600246D01*
X147070320Y-89610488D01*
X147088596Y-89628044D01*
X147113986Y-89651399D01*
X147144780Y-89679038D01*
X147179267Y-89709447D01*
X147215737Y-89741111D01*
X147252480Y-89772515D01*
X147287783Y-89802144D01*
X147305067Y-89816301D01*
X147312777Y-89822617D01*
X147319938Y-89828483D01*
X147330982Y-89837321D01*
X147370579Y-89868176D01*
X147411340Y-89898865D01*
X147449054Y-89926253D01*
X147479506Y-89947205D01*
X147500253Y-89960281D01*
X147527855Y-89975986D01*
X147550165Y-89986726D01*
X147563705Y-89990706D01*
X147567686Y-89990372D01*
X147576122Y-89987046D01*
X147585649Y-89978998D01*
X147597253Y-89964817D01*
X147611924Y-89943091D01*
X147630649Y-89912408D01*
X147654416Y-89871359D01*
X147684213Y-89818530D01*
X147687525Y-89812607D01*
X147718184Y-89757005D01*
X147745494Y-89705658D01*
X147770674Y-89655955D01*
X147794943Y-89605286D01*
X147819519Y-89551043D01*
X147845619Y-89490615D01*
X147874464Y-89421392D01*
X147907271Y-89340764D01*
X147922919Y-89302232D01*
X147943591Y-89252108D01*
X147961958Y-89208481D01*
X147977377Y-89172828D01*
X147989207Y-89146628D01*
X147996805Y-89131358D01*
X147999529Y-89128496D01*
X147999221Y-89132754D01*
X147995835Y-89151972D01*
X147989200Y-89182207D01*
X147979921Y-89221112D01*
X147968602Y-89266339D01*
X147955849Y-89315540D01*
X147942264Y-89366366D01*
X147928453Y-89416470D01*
X147915021Y-89463503D01*
X147902571Y-89505117D01*
X147895371Y-89527822D01*
X147875782Y-89585716D01*
X147852451Y-89650755D01*
X147827002Y-89718652D01*
X147801060Y-89785121D01*
X147776249Y-89845878D01*
X147754193Y-89896635D01*
X147751920Y-89901685D01*
X147741690Y-89925846D01*
X147735230Y-89943578D01*
X147733855Y-89951344D01*
X147734037Y-89951490D01*
X147743292Y-89950175D01*
X147762232Y-89942830D01*
X147787873Y-89930962D01*
X147817231Y-89916082D01*
X147847324Y-89899697D01*
X147875167Y-89883316D01*
X147897778Y-89868448D01*
X147903992Y-89863904D01*
X147948848Y-89826564D01*
X147995157Y-89781240D01*
X148038388Y-89732636D01*
X148074013Y-89685455D01*
X148088025Y-89663331D01*
X148113126Y-89618741D01*
X148139668Y-89566628D01*
X148165672Y-89511110D01*
X148189162Y-89456302D01*
X148208157Y-89406321D01*
X148230858Y-89341142D01*
X148216315Y-89251997D01*
X148211529Y-89223716D01*
X148202227Y-89172110D01*
X148192067Y-89118814D01*
X148182529Y-89071714D01*
X148181829Y-89068386D01*
X148174883Y-89033881D01*
X148169676Y-89005289D01*
X148166700Y-88985503D01*
X148166449Y-88977414D01*
X148167838Y-88977428D01*
X148174125Y-88986832D01*
X148183895Y-89008562D01*
X148196579Y-89041187D01*
X148211609Y-89083275D01*
X148228416Y-89133395D01*
X148229781Y-89137551D01*
X148240877Y-89169302D01*
X148250630Y-89193838D01*
X148258028Y-89208802D01*
X148262062Y-89211836D01*
X148264938Y-89203104D01*
X148269914Y-89181175D01*
X148275979Y-89149724D01*
X148282642Y-89111684D01*
X148289412Y-89069987D01*
X148295800Y-89027568D01*
X148301314Y-88987359D01*
X148305464Y-88952294D01*
X148307521Y-88931256D01*
X148310761Y-88892583D01*
X148313757Y-88850652D01*
X148316378Y-88808056D01*
X148318494Y-88767390D01*
X148319976Y-88731245D01*
X148320694Y-88702217D01*
X148320517Y-88682898D01*
X148319316Y-88675882D01*
X148316724Y-88677962D01*
X148306593Y-88689547D01*
X148291034Y-88709021D01*
X148272170Y-88733779D01*
X148203958Y-88820631D01*
X148081293Y-88957861D01*
X147947550Y-89086017D01*
X147803739Y-89204353D01*
X147650867Y-89312125D01*
X147489944Y-89408587D01*
X147321979Y-89492993D01*
X147147980Y-89564596D01*
X147146300Y-89565214D01*
X147113415Y-89577420D01*
X147086216Y-89587716D01*
X147067488Y-89595035D01*
X147060015Y-89598309D01*
X147048413Y-89598309D01*
X147045863Y-89595185D01*
X147033727Y-89582087D01*
X147013633Y-89560949D01*
X146986961Y-89533212D01*
X146955087Y-89500312D01*
X146919389Y-89463687D01*
X146908834Y-89452873D01*
X146844330Y-89386149D01*
X146775334Y-89313813D01*
X146703339Y-89237495D01*
X146629843Y-89158822D01*
X146556338Y-89079423D01*
X146484322Y-89000925D01*
X146415287Y-88924958D01*
X146350730Y-88853148D01*
X146292146Y-88787126D01*
X146241029Y-88728518D01*
X146198875Y-88678953D01*
X146183375Y-88661346D01*
X146156747Y-88632728D01*
X146121958Y-88596419D01*
X146080404Y-88553837D01*
X146033480Y-88506402D01*
X145982581Y-88455532D01*
X145929103Y-88402645D01*
X145874442Y-88349159D01*
X145844137Y-88319708D01*
X145779244Y-88256850D01*
X145723418Y-88202829D01*
X145675673Y-88156362D01*
X145635021Y-88116166D01*
X145600475Y-88080960D01*
X145571050Y-88049460D01*
X145545758Y-88020384D01*
X145523613Y-87992449D01*
X145503629Y-87964373D01*
X145484819Y-87934873D01*
X145466195Y-87902667D01*
X145446772Y-87866471D01*
X145425563Y-87825004D01*
X145401581Y-87776983D01*
X145373840Y-87721124D01*
X145341353Y-87656147D01*
X145317383Y-87608418D01*
X145275273Y-87524236D01*
X145231733Y-87436761D01*
X145186310Y-87345068D01*
X145138549Y-87248229D01*
X145087998Y-87145316D01*
X145034204Y-87035402D01*
X144976711Y-86917560D01*
X144915068Y-86790862D01*
X144848819Y-86654382D01*
X144777513Y-86507191D01*
X144700695Y-86348363D01*
X144617911Y-86176970D01*
X144603532Y-86147197D01*
X144567501Y-86072711D01*
X144533508Y-86002612D01*
X144502108Y-85938033D01*
X144473858Y-85880110D01*
X144449311Y-85829976D01*
X144429023Y-85788768D01*
X144413549Y-85757618D01*
X144403444Y-85737663D01*
X144399264Y-85730036D01*
X144396249Y-85730433D01*
X144385652Y-85739545D01*
X144370008Y-85757255D01*
X144351481Y-85781244D01*
X144309578Y-85838623D01*
X144301514Y-85817296D01*
X144297161Y-85805805D01*
X144275281Y-85748528D01*
X144249782Y-85682401D01*
X144221658Y-85609958D01*
X144191905Y-85533733D01*
X144161518Y-85456260D01*
X144131494Y-85380073D01*
X144102828Y-85307704D01*
X144076515Y-85241689D01*
X144053551Y-85184560D01*
X144034932Y-85138852D01*
X144013039Y-85085915D01*
X143988448Y-85027416D01*
X143967778Y-84979731D01*
X143950191Y-84941090D01*
X143934846Y-84909724D01*
X143920904Y-84883864D01*
X143907525Y-84861741D01*
X143893871Y-84841585D01*
X143886572Y-84831250D01*
X143873849Y-84812096D01*
X143869937Y-84803092D01*
X143874590Y-84803038D01*
X143887562Y-84810734D01*
X143895065Y-84816897D01*
X143914127Y-84838696D01*
X143938815Y-84872868D01*
X143968682Y-84918640D01*
X144003281Y-84975241D01*
X144042165Y-85041896D01*
X144084888Y-85117832D01*
X144131004Y-85202277D01*
X144180064Y-85294457D01*
X144231623Y-85393600D01*
X144285234Y-85498931D01*
X144302525Y-85533162D01*
X144327836Y-85582913D01*
X144350540Y-85627113D01*
X144369824Y-85664199D01*
X144384871Y-85692608D01*
X144394868Y-85710778D01*
X144399000Y-85717147D01*
X144404659Y-85712107D01*
X144416813Y-85698165D01*
X144432618Y-85678476D01*
X144447660Y-85660249D01*
X144476665Y-85627927D01*
X144512985Y-85589569D01*
X144554354Y-85547410D01*
X144598505Y-85503686D01*
X144643171Y-85460635D01*
X144686085Y-85420493D01*
X144724980Y-85385495D01*
X144757589Y-85357879D01*
X144842597Y-85291941D01*
X145002370Y-85181909D01*
X145167360Y-85085865D01*
X145337727Y-85003743D01*
X145513630Y-84935479D01*
X145695228Y-84881005D01*
X145882681Y-84840256D01*
X146076147Y-84813166D01*
X146106551Y-84810537D01*
X146168022Y-84807228D01*
X146238209Y-84805385D01*
X146313233Y-84804976D01*
X146389217Y-84805972D01*
X146462282Y-84808343D01*
X146528552Y-84812058D01*
X146584147Y-84817089D01*
X146719723Y-84836491D01*
X146907838Y-84876007D01*
X147091058Y-84929431D01*
X147268817Y-84996518D01*
X147440549Y-85077020D01*
X147605687Y-85170691D01*
X147763663Y-85277282D01*
X147913912Y-85396548D01*
X147934913Y-85415017D01*
X147983002Y-85459729D01*
X148035364Y-85511050D01*
X148088855Y-85565736D01*
X148140335Y-85620540D01*
X148186662Y-85672220D01*
X148224695Y-85717529D01*
X148267280Y-85772232D01*
X148377463Y-85929841D01*
X148474133Y-86093796D01*
X148557304Y-86264130D01*
X148626990Y-86440878D01*
X148683205Y-86624073D01*
X148725963Y-86813749D01*
X148755278Y-87009941D01*
X148757932Y-87039350D01*
X148760751Y-87089761D01*
X148762670Y-87149155D01*
X148763689Y-87214120D01*
X148763808Y-87281240D01*
X148763026Y-87347102D01*
X148761343Y-87408292D01*
X148758761Y-87461396D01*
X148755278Y-87503000D01*
X148737255Y-87634533D01*
X148699239Y-87825726D01*
X148647976Y-88010060D01*
X148583438Y-88187618D01*
X148505597Y-88358482D01*
X148414425Y-88522735D01*
X148364475Y-88604911D01*
X148363696Y-88702217D01*
X148362532Y-88847706D01*
G36*
X148362532Y-88847706D02*
G01*
X148361663Y-88922946D01*
X148359890Y-89002352D01*
X148357128Y-89071464D01*
X148353171Y-89132816D01*
X148347809Y-89188946D01*
X148340836Y-89242389D01*
X148332042Y-89295683D01*
X148321221Y-89351363D01*
X148320889Y-89352985D01*
X148314056Y-89394465D01*
X148310638Y-89432914D01*
X148310642Y-89465455D01*
X148314072Y-89489211D01*
X148320934Y-89501304D01*
X148321694Y-89501279D01*
X148326846Y-89492844D01*
X148334769Y-89472679D01*
X148344772Y-89443006D01*
X148356165Y-89406045D01*
X148368256Y-89364018D01*
X148380354Y-89319145D01*
X148391768Y-89273647D01*
X148397948Y-89246471D01*
X148410711Y-89181758D01*
X148423322Y-89107446D01*
X148435340Y-89026991D01*
X148446323Y-88943846D01*
X148455830Y-88861466D01*
X148463418Y-88783308D01*
X148468645Y-88712824D01*
X148471071Y-88653470D01*
X148471525Y-88634586D01*
X148472626Y-88622920D01*
X148474914Y-88623493D01*
X148479031Y-88634794D01*
X148480095Y-88638962D01*
X148482902Y-88660852D01*
X148485013Y-88694663D01*
X148486445Y-88738130D01*
X148487213Y-88788985D01*
X148487333Y-88844962D01*
X148486822Y-88903795D01*
X148485694Y-88963217D01*
X148483967Y-89020962D01*
X148481656Y-89074763D01*
X148478776Y-89122355D01*
X148475343Y-89161470D01*
X148459607Y-89286800D01*
X148439441Y-89410678D01*
X148415890Y-89524998D01*
X148393077Y-89613441D01*
X148389315Y-89628027D01*
X148360073Y-89718029D01*
X148358971Y-89721073D01*
X148347670Y-89757367D01*
X148338439Y-89795459D01*
X148333182Y-89827584D01*
X148332574Y-89833484D01*
X148317532Y-89922069D01*
X148292546Y-90001936D01*
X148258116Y-90072235D01*
X148214742Y-90132122D01*
X148163020Y-90180656D01*
X148162924Y-90180747D01*
X148103162Y-90217265D01*
X148098817Y-90219306D01*
X148069027Y-90232305D01*
X148041688Y-90242744D01*
X148022236Y-90248522D01*
X148007487Y-90253178D01*
X147982201Y-90264812D01*
X147956476Y-90279780D01*
X147934234Y-90293755D01*
X147848890Y-90338012D01*
X147754691Y-90374152D01*
X147679237Y-90394630D01*
X147655078Y-90401187D01*
X147553493Y-90418132D01*
X147453379Y-90424000D01*
X147439134Y-90424309D01*
X147419093Y-90427502D01*
X147401465Y-90436256D01*
X147379809Y-90453120D01*
X147351753Y-90475648D01*
X147270703Y-90528865D01*
X147185856Y-90567685D01*
X147097326Y-90592053D01*
X147049575Y-90598106D01*
X146984764Y-90599533D01*
X146918470Y-90594696D01*
X146857205Y-90583818D01*
X146818905Y-90572110D01*
X146769892Y-90552844D01*
X146717955Y-90528941D01*
X146667847Y-90502601D01*
X146624320Y-90476025D01*
X146574933Y-90440809D01*
X146509493Y-90387637D01*
X146443399Y-90326267D01*
X146375809Y-90255763D01*
X146315845Y-90186670D01*
X146660749Y-90186670D01*
X146662327Y-90190375D01*
X146672861Y-90202429D01*
X146691009Y-90221355D01*
X146715424Y-90245677D01*
X146731968Y-90261617D01*
X146778636Y-90303018D01*
X146822551Y-90335537D01*
X146867743Y-90361941D01*
X146918241Y-90384998D01*
X146949110Y-90395795D01*
X146985069Y-90403033D01*
X147028647Y-90406180D01*
X147038150Y-90406428D01*
X147068411Y-90406579D01*
X147092919Y-90405780D01*
X147107089Y-90404150D01*
X147116799Y-90401117D01*
X147127141Y-90394630D01*
X147122663Y-90388702D01*
X147103446Y-90383793D01*
X147083199Y-90379673D01*
X147044729Y-90369362D01*
X146999624Y-90355239D01*
X146952037Y-90338698D01*
X146906121Y-90321138D01*
X146866030Y-90303954D01*
X146863312Y-90302692D01*
X146806522Y-90273837D01*
X146739804Y-90235594D01*
X146662589Y-90187637D01*
X146660749Y-90186670D01*
X146315845Y-90186670D01*
X146305883Y-90175191D01*
X146274278Y-90135600D01*
X147090440Y-90135600D01*
X147095312Y-90139260D01*
X147111960Y-90145770D01*
X147137682Y-90154328D01*
X147169772Y-90164135D01*
X147205528Y-90174392D01*
X147242246Y-90184299D01*
X147277221Y-90193056D01*
X147307749Y-90199863D01*
X147311419Y-90200608D01*
X147349365Y-90208111D01*
X147375813Y-90212445D01*
X147393652Y-90213522D01*
X147405771Y-90211256D01*
X147415059Y-90205558D01*
X147424405Y-90196342D01*
X147426053Y-90194587D01*
X147433036Y-90186579D01*
X147435514Y-90180656D01*
X147431756Y-90176268D01*
X147420031Y-90172864D01*
X147398608Y-90169894D01*
X147365755Y-90166806D01*
X147319742Y-90163051D01*
X147276461Y-90159119D01*
X147230507Y-90154143D01*
X147188492Y-90148856D01*
X147155901Y-90143897D01*
X147144499Y-90141946D01*
X147117731Y-90137831D01*
X147098526Y-90135563D01*
X147090445Y-90135594D01*
X147090440Y-90135600D01*
X146274278Y-90135600D01*
X146236927Y-90088810D01*
X147827022Y-90088810D01*
X147828623Y-90090822D01*
X147836338Y-90092874D01*
X147855000Y-90095655D01*
X147880294Y-90098450D01*
X147928853Y-90103081D01*
X147973677Y-90066769D01*
X148005021Y-90040014D01*
X148079965Y-89963608D01*
X148148985Y-89874287D01*
X148212554Y-89771464D01*
X148221919Y-89754007D01*
X148234215Y-89726094D01*
X148240939Y-89699415D01*
X148244241Y-89666876D01*
X148247499Y-89613441D01*
X148210366Y-89686079D01*
X148161655Y-89772950D01*
X148101430Y-89859907D01*
X148035257Y-89934886D01*
X147961943Y-89999218D01*
X147880294Y-90054234D01*
X147874370Y-90057725D01*
X147849773Y-90072278D01*
X147835249Y-90081202D01*
X147828448Y-90086158D01*
X147827022Y-90088810D01*
X146236927Y-90088810D01*
X146232779Y-90083614D01*
X146155656Y-89980097D01*
X146073672Y-89863706D01*
X146051698Y-89831771D01*
X146045392Y-89822617D01*
X146871765Y-89822617D01*
X146875500Y-89826353D01*
X146879236Y-89822617D01*
X146875500Y-89818882D01*
X146871765Y-89822617D01*
X146045392Y-89822617D01*
X146023847Y-89791341D01*
X145999350Y-89755829D01*
X145979482Y-89727084D01*
X145965521Y-89706955D01*
X145958744Y-89697291D01*
X145946522Y-89688746D01*
X145921183Y-89680502D01*
X145881912Y-89672508D01*
X145864008Y-89669361D01*
X145695313Y-89632028D01*
X145526306Y-89581107D01*
X145359471Y-89517535D01*
X145197293Y-89442247D01*
X145042257Y-89356181D01*
X144996830Y-89328010D01*
X144841096Y-89220348D01*
X144694816Y-89101544D01*
X144558515Y-88972315D01*
X144432720Y-88833380D01*
X144317957Y-88685457D01*
X144214751Y-88529262D01*
X144123630Y-88365514D01*
X144045118Y-88194930D01*
X143979743Y-88018228D01*
X143928031Y-87836127D01*
X143904382Y-87729988D01*
X143886228Y-87627700D01*
X143873427Y-87526417D01*
X143865592Y-87422275D01*
X143862337Y-87311410D01*
X143863273Y-87189961D01*
X143863528Y-87179149D01*
X143866549Y-87091389D01*
X143871309Y-87013818D01*
X143878296Y-86942214D01*
X143887998Y-86872352D01*
X143900904Y-86800010D01*
X143917502Y-86720964D01*
X143937708Y-86629957D01*
X143921242Y-86609024D01*
X143916134Y-86602872D01*
X143900561Y-86584986D01*
X143877342Y-86558832D01*
X143848010Y-86526098D01*
X143814099Y-86488474D01*
X143777140Y-86447648D01*
X143738666Y-86405309D01*
X143700212Y-86363146D01*
X143663308Y-86322847D01*
X143629489Y-86286102D01*
X143600287Y-86254599D01*
X143577236Y-86230027D01*
X143549479Y-86201839D01*
X143512230Y-86166196D01*
X143471690Y-86129170D01*
X143430614Y-86093168D01*
X143391754Y-86060597D01*
X143357864Y-86033864D01*
X143331698Y-86015376D01*
X143330227Y-86014450D01*
X143297181Y-85998643D01*
X143263876Y-85993703D01*
X143251412Y-85993539D01*
X143238304Y-85992372D01*
X143236819Y-85988961D01*
X143244794Y-85981975D01*
X143247703Y-85979970D01*
X143271863Y-85973672D01*
X143305576Y-85978501D01*
X143348583Y-85994364D01*
X143400624Y-86021171D01*
X143461442Y-86058829D01*
X143464842Y-86061085D01*
X143510727Y-86092954D01*
X143560275Y-86130039D01*
X143614599Y-86173269D01*
X143674811Y-86223571D01*
X143742024Y-86281874D01*
X143817352Y-86349106D01*
X143901906Y-86426195D01*
X143906700Y-86430601D01*
X143935210Y-86456585D01*
X143954982Y-86473748D01*
X143967935Y-86483291D01*
X143975991Y-86486415D01*
X143981069Y-86484321D01*
X143985090Y-86478208D01*
X143989378Y-86470920D01*
X143994301Y-86468344D01*
X144000554Y-86475785D01*
X144010749Y-86494948D01*
X144015818Y-86504751D01*
X144028667Y-86528603D01*
X144039112Y-86546764D01*
X144039524Y-86547444D01*
X144041088Y-86552973D01*
X144033018Y-86547825D01*
X144015777Y-86532289D01*
X143998393Y-86516533D01*
X143984376Y-86505432D01*
X143977853Y-86502407D01*
X143976763Y-86504298D01*
X143971853Y-86517453D01*
X143964975Y-86539004D01*
X143957404Y-86564558D01*
X143950416Y-86589724D01*
X143945288Y-86610112D01*
X143943294Y-86621330D01*
X143944470Y-86624414D01*
X143953300Y-86637970D01*
X143969363Y-86659509D01*
X143990971Y-86686808D01*
X144016437Y-86717643D01*
X144021608Y-86723790D01*
X144052885Y-86761199D01*
X144084967Y-86799898D01*
X144114364Y-86835663D01*
X144137582Y-86864264D01*
X144147229Y-86876219D01*
X144170406Y-86904725D01*
X144199899Y-86940819D01*
X144233668Y-86982009D01*
X144269670Y-87025801D01*
X144305864Y-87069706D01*
X144332089Y-87101639D01*
X144368866Y-87147407D01*
X144399252Y-87187007D01*
X144425450Y-87223558D01*
X144449661Y-87260181D01*
X144474086Y-87299994D01*
X144500928Y-87346117D01*
X144545659Y-87423656D01*
X144641922Y-87585665D01*
X144737037Y-87738662D01*
X144833323Y-87886240D01*
X144933100Y-88031995D01*
X145038688Y-88179521D01*
X145087995Y-88248172D01*
X145131147Y-88311080D01*
X145169664Y-88370808D01*
X145206173Y-88431430D01*
X145243299Y-88497021D01*
X145246325Y-88502488D01*
X145276565Y-88555778D01*
X145309918Y-88612521D01*
X145343864Y-88668549D01*
X145375883Y-88719696D01*
X145403453Y-88761794D01*
X145421881Y-88789771D01*
X145450864Y-88835725D01*
X145483432Y-88889069D01*
X145517613Y-88946521D01*
X145551435Y-89004798D01*
X145582927Y-89060617D01*
X145602772Y-89096186D01*
X145639351Y-89160781D01*
X145677409Y-89226904D01*
X145716141Y-89293235D01*
X145754741Y-89358455D01*
X145792403Y-89421243D01*
X145828323Y-89480280D01*
X145861694Y-89534246D01*
X145891710Y-89581822D01*
X145917566Y-89621686D01*
X145938457Y-89652521D01*
X145953576Y-89673005D01*
X145962118Y-89681819D01*
X145975478Y-89686680D01*
X146006310Y-89692937D01*
X146048621Y-89698109D01*
X146100370Y-89702181D01*
X146159519Y-89705139D01*
X146224026Y-89706967D01*
X146291854Y-89707651D01*
X146360961Y-89707176D01*
X146429309Y-89705526D01*
X146494857Y-89702687D01*
X146555567Y-89698644D01*
X146609397Y-89693382D01*
X146654310Y-89686886D01*
X146654578Y-89686838D01*
X146695025Y-89686838D01*
X146697209Y-89690517D01*
X146708900Y-89701723D01*
X146728473Y-89718328D01*
X146753632Y-89738312D01*
X146773668Y-89753722D01*
X146813178Y-89783531D01*
X146841514Y-89803941D01*
X146858584Y-89814886D01*
X146864294Y-89816301D01*
X146864182Y-89815931D01*
X146857221Y-89808803D01*
X146841289Y-89795273D01*
X146818963Y-89777311D01*
X146792820Y-89756888D01*
X146765435Y-89735975D01*
X146739387Y-89716543D01*
X146717251Y-89700562D01*
X146701605Y-89690003D01*
X146695025Y-89686838D01*
X146654578Y-89686838D01*
X146679649Y-89682351D01*
X146620692Y-89626745D01*
X146561736Y-89571139D01*
X146620001Y-89617879D01*
X146636335Y-89631105D01*
X146658787Y-89649743D01*
X146674937Y-89663738D01*
X146682075Y-89670780D01*
X146683878Y-89672742D01*
X146696058Y-89676279D01*
X146718993Y-89675709D01*
X146753861Y-89670945D01*
X146801840Y-89661898D01*
X146813181Y-89659493D01*
X146842537Y-89652820D01*
X146877751Y-89644404D01*
X146915911Y-89634989D01*
X146954101Y-89625318D01*
X146989410Y-89616132D01*
X147018924Y-89608175D01*
X147039728Y-89602190D01*
X147048911Y-89598919D01*
X147048413Y-89598309D01*
X147060015Y-89598309D01*
X147060869Y-89600246D01*
X147070320Y-89610488D01*
X147088596Y-89628044D01*
X147113986Y-89651399D01*
X147144780Y-89679038D01*
X147179267Y-89709447D01*
X147215737Y-89741111D01*
X147252480Y-89772515D01*
X147287783Y-89802144D01*
X147305067Y-89816301D01*
X147312777Y-89822617D01*
X147319938Y-89828483D01*
X147330982Y-89837321D01*
X147370579Y-89868176D01*
X147411340Y-89898865D01*
X147449054Y-89926253D01*
X147479506Y-89947205D01*
X147500253Y-89960281D01*
X147527855Y-89975986D01*
X147550165Y-89986726D01*
X147563705Y-89990706D01*
X147567686Y-89990372D01*
X147576122Y-89987046D01*
X147585649Y-89978998D01*
X147597253Y-89964817D01*
X147611924Y-89943091D01*
X147630649Y-89912408D01*
X147654416Y-89871359D01*
X147684213Y-89818530D01*
X147687525Y-89812607D01*
X147718184Y-89757005D01*
X147745494Y-89705658D01*
X147770674Y-89655955D01*
X147794943Y-89605286D01*
X147819519Y-89551043D01*
X147845619Y-89490615D01*
X147874464Y-89421392D01*
X147907271Y-89340764D01*
X147922919Y-89302232D01*
X147943591Y-89252108D01*
X147961958Y-89208481D01*
X147977377Y-89172828D01*
X147989207Y-89146628D01*
X147996805Y-89131358D01*
X147999529Y-89128496D01*
X147999221Y-89132754D01*
X147995835Y-89151972D01*
X147989200Y-89182207D01*
X147979921Y-89221112D01*
X147968602Y-89266339D01*
X147955849Y-89315540D01*
X147942264Y-89366366D01*
X147928453Y-89416470D01*
X147915021Y-89463503D01*
X147902571Y-89505117D01*
X147895371Y-89527822D01*
X147875782Y-89585716D01*
X147852451Y-89650755D01*
X147827002Y-89718652D01*
X147801060Y-89785121D01*
X147776249Y-89845878D01*
X147754193Y-89896635D01*
X147751920Y-89901685D01*
X147741690Y-89925846D01*
X147735230Y-89943578D01*
X147733855Y-89951344D01*
X147734037Y-89951490D01*
X147743292Y-89950175D01*
X147762232Y-89942830D01*
X147787873Y-89930962D01*
X147817231Y-89916082D01*
X147847324Y-89899697D01*
X147875167Y-89883316D01*
X147897778Y-89868448D01*
X147903992Y-89863904D01*
X147948848Y-89826564D01*
X147995157Y-89781240D01*
X148038388Y-89732636D01*
X148074013Y-89685455D01*
X148088025Y-89663331D01*
X148113126Y-89618741D01*
X148139668Y-89566628D01*
X148165672Y-89511110D01*
X148189162Y-89456302D01*
X148208157Y-89406321D01*
X148230858Y-89341142D01*
X148216315Y-89251997D01*
X148211529Y-89223716D01*
X148202227Y-89172110D01*
X148192067Y-89118814D01*
X148182529Y-89071714D01*
X148181829Y-89068386D01*
X148174883Y-89033881D01*
X148169676Y-89005289D01*
X148166700Y-88985503D01*
X148166449Y-88977414D01*
X148167838Y-88977428D01*
X148174125Y-88986832D01*
X148183895Y-89008562D01*
X148196579Y-89041187D01*
X148211609Y-89083275D01*
X148228416Y-89133395D01*
X148229781Y-89137551D01*
X148240877Y-89169302D01*
X148250630Y-89193838D01*
X148258028Y-89208802D01*
X148262062Y-89211836D01*
X148264938Y-89203104D01*
X148269914Y-89181175D01*
X148275979Y-89149724D01*
X148282642Y-89111684D01*
X148289412Y-89069987D01*
X148295800Y-89027568D01*
X148301314Y-88987359D01*
X148305464Y-88952294D01*
X148307521Y-88931256D01*
X148310761Y-88892583D01*
X148313757Y-88850652D01*
X148316378Y-88808056D01*
X148318494Y-88767390D01*
X148319976Y-88731245D01*
X148320694Y-88702217D01*
X148320517Y-88682898D01*
X148319316Y-88675882D01*
X148316724Y-88677962D01*
X148306593Y-88689547D01*
X148291034Y-88709021D01*
X148272170Y-88733779D01*
X148203958Y-88820631D01*
X148081293Y-88957861D01*
X147947550Y-89086017D01*
X147803739Y-89204353D01*
X147650867Y-89312125D01*
X147489944Y-89408587D01*
X147321979Y-89492993D01*
X147147980Y-89564596D01*
X147146300Y-89565214D01*
X147113415Y-89577420D01*
X147086216Y-89587716D01*
X147067488Y-89595035D01*
X147060015Y-89598309D01*
X147048413Y-89598309D01*
X147045863Y-89595185D01*
X147033727Y-89582087D01*
X147013633Y-89560949D01*
X146986961Y-89533212D01*
X146955087Y-89500312D01*
X146919389Y-89463687D01*
X146908834Y-89452873D01*
X146844330Y-89386149D01*
X146775334Y-89313813D01*
X146703339Y-89237495D01*
X146629843Y-89158822D01*
X146556338Y-89079423D01*
X146484322Y-89000925D01*
X146415287Y-88924958D01*
X146350730Y-88853148D01*
X146292146Y-88787126D01*
X146241029Y-88728518D01*
X146198875Y-88678953D01*
X146183375Y-88661346D01*
X146156747Y-88632728D01*
X146121958Y-88596419D01*
X146080404Y-88553837D01*
X146033480Y-88506402D01*
X145982581Y-88455532D01*
X145929103Y-88402645D01*
X145874442Y-88349159D01*
X145844137Y-88319708D01*
X145779244Y-88256850D01*
X145723418Y-88202829D01*
X145675673Y-88156362D01*
X145635021Y-88116166D01*
X145600475Y-88080960D01*
X145571050Y-88049460D01*
X145545758Y-88020384D01*
X145523613Y-87992449D01*
X145503629Y-87964373D01*
X145484819Y-87934873D01*
X145466195Y-87902667D01*
X145446772Y-87866471D01*
X145425563Y-87825004D01*
X145401581Y-87776983D01*
X145373840Y-87721124D01*
X145341353Y-87656147D01*
X145317383Y-87608418D01*
X145275273Y-87524236D01*
X145231733Y-87436761D01*
X145186310Y-87345068D01*
X145138549Y-87248229D01*
X145087998Y-87145316D01*
X145034204Y-87035402D01*
X144976711Y-86917560D01*
X144915068Y-86790862D01*
X144848819Y-86654382D01*
X144777513Y-86507191D01*
X144700695Y-86348363D01*
X144617911Y-86176970D01*
X144603532Y-86147197D01*
X144567501Y-86072711D01*
X144533508Y-86002612D01*
X144502108Y-85938033D01*
X144473858Y-85880110D01*
X144449311Y-85829976D01*
X144429023Y-85788768D01*
X144413549Y-85757618D01*
X144403444Y-85737663D01*
X144399264Y-85730036D01*
X144396249Y-85730433D01*
X144385652Y-85739545D01*
X144370008Y-85757255D01*
X144351481Y-85781244D01*
X144309578Y-85838623D01*
X144301514Y-85817296D01*
X144297161Y-85805805D01*
X144275281Y-85748528D01*
X144249782Y-85682401D01*
X144221658Y-85609958D01*
X144191905Y-85533733D01*
X144161518Y-85456260D01*
X144131494Y-85380073D01*
X144102828Y-85307704D01*
X144076515Y-85241689D01*
X144053551Y-85184560D01*
X144034932Y-85138852D01*
X144013039Y-85085915D01*
X143988448Y-85027416D01*
X143967778Y-84979731D01*
X143950191Y-84941090D01*
X143934846Y-84909724D01*
X143920904Y-84883864D01*
X143907525Y-84861741D01*
X143893871Y-84841585D01*
X143886572Y-84831250D01*
X143873849Y-84812096D01*
X143869937Y-84803092D01*
X143874590Y-84803038D01*
X143887562Y-84810734D01*
X143895065Y-84816897D01*
X143914127Y-84838696D01*
X143938815Y-84872868D01*
X143968682Y-84918640D01*
X144003281Y-84975241D01*
X144042165Y-85041896D01*
X144084888Y-85117832D01*
X144131004Y-85202277D01*
X144180064Y-85294457D01*
X144231623Y-85393600D01*
X144285234Y-85498931D01*
X144302525Y-85533162D01*
X144327836Y-85582913D01*
X144350540Y-85627113D01*
X144369824Y-85664199D01*
X144384871Y-85692608D01*
X144394868Y-85710778D01*
X144399000Y-85717147D01*
X144404659Y-85712107D01*
X144416813Y-85698165D01*
X144432618Y-85678476D01*
X144447660Y-85660249D01*
X144476665Y-85627927D01*
X144512985Y-85589569D01*
X144554354Y-85547410D01*
X144598505Y-85503686D01*
X144643171Y-85460635D01*
X144686085Y-85420493D01*
X144724980Y-85385495D01*
X144757589Y-85357879D01*
X144842597Y-85291941D01*
X145002370Y-85181909D01*
X145167360Y-85085865D01*
X145337727Y-85003743D01*
X145513630Y-84935479D01*
X145695228Y-84881005D01*
X145882681Y-84840256D01*
X146076147Y-84813166D01*
X146106551Y-84810537D01*
X146168022Y-84807228D01*
X146238209Y-84805385D01*
X146313233Y-84804976D01*
X146389217Y-84805972D01*
X146462282Y-84808343D01*
X146528552Y-84812058D01*
X146584147Y-84817089D01*
X146719723Y-84836491D01*
X146907838Y-84876007D01*
X147091058Y-84929431D01*
X147268817Y-84996518D01*
X147440549Y-85077020D01*
X147605687Y-85170691D01*
X147763663Y-85277282D01*
X147913912Y-85396548D01*
X147934913Y-85415017D01*
X147983002Y-85459729D01*
X148035364Y-85511050D01*
X148088855Y-85565736D01*
X148140335Y-85620540D01*
X148186662Y-85672220D01*
X148224695Y-85717529D01*
X148267280Y-85772232D01*
X148377463Y-85929841D01*
X148474133Y-86093796D01*
X148557304Y-86264130D01*
X148626990Y-86440878D01*
X148683205Y-86624073D01*
X148725963Y-86813749D01*
X148755278Y-87009941D01*
X148757932Y-87039350D01*
X148760751Y-87089761D01*
X148762670Y-87149155D01*
X148763689Y-87214120D01*
X148763808Y-87281240D01*
X148763026Y-87347102D01*
X148761343Y-87408292D01*
X148758761Y-87461396D01*
X148755278Y-87503000D01*
X148737255Y-87634533D01*
X148699239Y-87825726D01*
X148647976Y-88010060D01*
X148583438Y-88187618D01*
X148505597Y-88358482D01*
X148414425Y-88522735D01*
X148364475Y-88604911D01*
X148363696Y-88702217D01*
X148362532Y-88847706D01*
G37*
X144578294Y-86557970D02*
X144574559Y-86561706D01*
X144570824Y-86557970D01*
X144574559Y-86554235D01*
X144578294Y-86557970D01*
G36*
X144578294Y-86557970D02*
G01*
X144574559Y-86561706D01*
X144570824Y-86557970D01*
X144574559Y-86554235D01*
X144578294Y-86557970D01*
G37*
X141528755Y-83138801D02*
X141536646Y-83139769D01*
X141582573Y-83147190D01*
X141626250Y-83157959D01*
X141671354Y-83173299D01*
X141721565Y-83194435D01*
X141780559Y-83222590D01*
X141781080Y-83222849D01*
X141860223Y-83266277D01*
X141942584Y-83319580D01*
X142028445Y-83383052D01*
X142118088Y-83456987D01*
X142211796Y-83541680D01*
X142309849Y-83637424D01*
X142412531Y-83744513D01*
X142520123Y-83863241D01*
X142632907Y-83993903D01*
X142751165Y-84136792D01*
X142875179Y-84292203D01*
X143005231Y-84460429D01*
X143141603Y-84641764D01*
X143149487Y-84652435D01*
X143177434Y-84690812D01*
X143212461Y-84739531D01*
X143253544Y-84797130D01*
X143299659Y-84862145D01*
X143349781Y-84933114D01*
X143402888Y-85008573D01*
X143457955Y-85087060D01*
X143513958Y-85167111D01*
X143569873Y-85247265D01*
X143624677Y-85326057D01*
X143677344Y-85402024D01*
X143726852Y-85473705D01*
X143772176Y-85539636D01*
X143812292Y-85598354D01*
X143846177Y-85648395D01*
X143866503Y-85678494D01*
X143892680Y-85716914D01*
X143915193Y-85749559D01*
X143932885Y-85774767D01*
X143944598Y-85790876D01*
X143949171Y-85796221D01*
X143948888Y-85794640D01*
X143944061Y-85781795D01*
X143933864Y-85757106D01*
X143918845Y-85721800D01*
X143899550Y-85677109D01*
X143876527Y-85624261D01*
X143850321Y-85564487D01*
X143821481Y-85499014D01*
X143790552Y-85429074D01*
X143758082Y-85355895D01*
X143724617Y-85280707D01*
X143690705Y-85204739D01*
X143656892Y-85129221D01*
X143623725Y-85055383D01*
X143591751Y-84984453D01*
X143561516Y-84917662D01*
X143533569Y-84856239D01*
X143508455Y-84801413D01*
X143486721Y-84754413D01*
X143468914Y-84716470D01*
X143450833Y-84678520D01*
X143400170Y-84573968D01*
X143353257Y-84479898D01*
X143310331Y-84396729D01*
X143271630Y-84324880D01*
X143237388Y-84264769D01*
X143207842Y-84216817D01*
X143183229Y-84181443D01*
X143163784Y-84159065D01*
X143149744Y-84150104D01*
X143149567Y-84150072D01*
X143136173Y-84154966D01*
X143121758Y-84172476D01*
X143119848Y-84175506D01*
X143110799Y-84186047D01*
X143106590Y-84184480D01*
X143107863Y-84172748D01*
X143115258Y-84152792D01*
X143123237Y-84141015D01*
X143140407Y-84133875D01*
X143163046Y-84139775D01*
X143190622Y-84158418D01*
X143222607Y-84189509D01*
X143258469Y-84232752D01*
X143284072Y-84268051D01*
X143317968Y-84318340D01*
X143357448Y-84379854D01*
X143401868Y-84451512D01*
X143450584Y-84532234D01*
X143502952Y-84620937D01*
X143558327Y-84716544D01*
X143616066Y-84817971D01*
X143675525Y-84924141D01*
X143736059Y-85033970D01*
X143749084Y-85057780D01*
X143786444Y-85125982D01*
X143826147Y-85198341D01*
X143866294Y-85271403D01*
X143904985Y-85341712D01*
X143940320Y-85405813D01*
X143970401Y-85460253D01*
X143991124Y-85497783D01*
X144025264Y-85559923D01*
X144060582Y-85624528D01*
X144094965Y-85687720D01*
X144126300Y-85745619D01*
X144152471Y-85794348D01*
X144163584Y-85815070D01*
X144185549Y-85855494D01*
X144204800Y-85890224D01*
X144220274Y-85917377D01*
X144230908Y-85935073D01*
X144235638Y-85941433D01*
X144236415Y-85941119D01*
X144243961Y-85932888D01*
X144256661Y-85915745D01*
X144272244Y-85892714D01*
X144276444Y-85886391D01*
X144291516Y-85865757D01*
X144303335Y-85852680D01*
X144309636Y-85849759D01*
X144309956Y-85850275D01*
X144314487Y-85860817D01*
X144323469Y-85883477D01*
X144336310Y-85916671D01*
X144352414Y-85958814D01*
X144371186Y-86008324D01*
X144392033Y-86063616D01*
X144414359Y-86123106D01*
X144437569Y-86185212D01*
X144461070Y-86248348D01*
X144484266Y-86310932D01*
X144506563Y-86371379D01*
X144527367Y-86428106D01*
X144546082Y-86479529D01*
X144553788Y-86501383D01*
X144561493Y-86525021D01*
X144565464Y-86539750D01*
X144564946Y-86543029D01*
X144564308Y-86542197D01*
X144557375Y-86530964D01*
X144544382Y-86508585D01*
X144526221Y-86476666D01*
X144503786Y-86436812D01*
X144477969Y-86390629D01*
X144449665Y-86339722D01*
X144419765Y-86285696D01*
X144389164Y-86230157D01*
X144358754Y-86174710D01*
X144329428Y-86120961D01*
X144302080Y-86070514D01*
X144285143Y-86039506D01*
X144266585Y-86006420D01*
X144251297Y-85980153D01*
X144240522Y-85962834D01*
X144235502Y-85956588D01*
X144233434Y-85957465D01*
X144223914Y-85968439D01*
X144209556Y-85990503D01*
X144191307Y-86021797D01*
X144170118Y-86060459D01*
X144146936Y-86104628D01*
X144122711Y-86152443D01*
X144098391Y-86202042D01*
X144074925Y-86251564D01*
X144053261Y-86299147D01*
X144034350Y-86342931D01*
X144019138Y-86381054D01*
X143990136Y-86458138D01*
X143971343Y-86425878D01*
X143971034Y-86425345D01*
X143961194Y-86408143D01*
X143945661Y-86380668D01*
X143925928Y-86345574D01*
X143903487Y-86305515D01*
X143879832Y-86263148D01*
X143878955Y-86261574D01*
X143851527Y-86212794D01*
X143819203Y-86155942D01*
X143784623Y-86095623D01*
X143750426Y-86036441D01*
X143719252Y-85983001D01*
X143687952Y-85929440D01*
X143652280Y-85867985D01*
X143615642Y-85804520D01*
X143580897Y-85744001D01*
X143550908Y-85691382D01*
X143517723Y-85633142D01*
X143385868Y-85406812D01*
X143246225Y-85174712D01*
X143101038Y-84940588D01*
X143037371Y-84839605D01*
X142961609Y-84720016D01*
X142892292Y-84611389D01*
X142828704Y-84512693D01*
X142770130Y-84422893D01*
X142715856Y-84340956D01*
X142665168Y-84265851D01*
X142617350Y-84196543D01*
X142571689Y-84132001D01*
X142527470Y-84071191D01*
X142483978Y-84013079D01*
X142440499Y-83956634D01*
X142396318Y-83900823D01*
X142350720Y-83844612D01*
X142302992Y-83786968D01*
X142251474Y-83726193D01*
X142148088Y-83610124D01*
X142049489Y-83507743D01*
X141955408Y-83418834D01*
X141865578Y-83343177D01*
X141779730Y-83280553D01*
X141697595Y-83230745D01*
X141618905Y-83193534D01*
X141543392Y-83168701D01*
X141540716Y-83168037D01*
X141475915Y-83158160D01*
X141402855Y-83157577D01*
X141324853Y-83166325D01*
X141302442Y-83170116D01*
X141326813Y-83158822D01*
X141332886Y-83156193D01*
X141372700Y-83144618D01*
X141421599Y-83137566D01*
X141475109Y-83135478D01*
X141528755Y-83138801D01*
G36*
X141528755Y-83138801D02*
G01*
X141536646Y-83139769D01*
X141582573Y-83147190D01*
X141626250Y-83157959D01*
X141671354Y-83173299D01*
X141721565Y-83194435D01*
X141780559Y-83222590D01*
X141781080Y-83222849D01*
X141860223Y-83266277D01*
X141942584Y-83319580D01*
X142028445Y-83383052D01*
X142118088Y-83456987D01*
X142211796Y-83541680D01*
X142309849Y-83637424D01*
X142412531Y-83744513D01*
X142520123Y-83863241D01*
X142632907Y-83993903D01*
X142751165Y-84136792D01*
X142875179Y-84292203D01*
X143005231Y-84460429D01*
X143141603Y-84641764D01*
X143149487Y-84652435D01*
X143177434Y-84690812D01*
X143212461Y-84739531D01*
X143253544Y-84797130D01*
X143299659Y-84862145D01*
X143349781Y-84933114D01*
X143402888Y-85008573D01*
X143457955Y-85087060D01*
X143513958Y-85167111D01*
X143569873Y-85247265D01*
X143624677Y-85326057D01*
X143677344Y-85402024D01*
X143726852Y-85473705D01*
X143772176Y-85539636D01*
X143812292Y-85598354D01*
X143846177Y-85648395D01*
X143866503Y-85678494D01*
X143892680Y-85716914D01*
X143915193Y-85749559D01*
X143932885Y-85774767D01*
X143944598Y-85790876D01*
X143949171Y-85796221D01*
X143948888Y-85794640D01*
X143944061Y-85781795D01*
X143933864Y-85757106D01*
X143918845Y-85721800D01*
X143899550Y-85677109D01*
X143876527Y-85624261D01*
X143850321Y-85564487D01*
X143821481Y-85499014D01*
X143790552Y-85429074D01*
X143758082Y-85355895D01*
X143724617Y-85280707D01*
X143690705Y-85204739D01*
X143656892Y-85129221D01*
X143623725Y-85055383D01*
X143591751Y-84984453D01*
X143561516Y-84917662D01*
X143533569Y-84856239D01*
X143508455Y-84801413D01*
X143486721Y-84754413D01*
X143468914Y-84716470D01*
X143450833Y-84678520D01*
X143400170Y-84573968D01*
X143353257Y-84479898D01*
X143310331Y-84396729D01*
X143271630Y-84324880D01*
X143237388Y-84264769D01*
X143207842Y-84216817D01*
X143183229Y-84181443D01*
X143163784Y-84159065D01*
X143149744Y-84150104D01*
X143149567Y-84150072D01*
X143136173Y-84154966D01*
X143121758Y-84172476D01*
X143119848Y-84175506D01*
X143110799Y-84186047D01*
X143106590Y-84184480D01*
X143107863Y-84172748D01*
X143115258Y-84152792D01*
X143123237Y-84141015D01*
X143140407Y-84133875D01*
X143163046Y-84139775D01*
X143190622Y-84158418D01*
X143222607Y-84189509D01*
X143258469Y-84232752D01*
X143284072Y-84268051D01*
X143317968Y-84318340D01*
X143357448Y-84379854D01*
X143401868Y-84451512D01*
X143450584Y-84532234D01*
X143502952Y-84620937D01*
X143558327Y-84716544D01*
X143616066Y-84817971D01*
X143675525Y-84924141D01*
X143736059Y-85033970D01*
X143749084Y-85057780D01*
X143786444Y-85125982D01*
X143826147Y-85198341D01*
X143866294Y-85271403D01*
X143904985Y-85341712D01*
X143940320Y-85405813D01*
X143970401Y-85460253D01*
X143991124Y-85497783D01*
X144025264Y-85559923D01*
X144060582Y-85624528D01*
X144094965Y-85687720D01*
X144126300Y-85745619D01*
X144152471Y-85794348D01*
X144163584Y-85815070D01*
X144185549Y-85855494D01*
X144204800Y-85890224D01*
X144220274Y-85917377D01*
X144230908Y-85935073D01*
X144235638Y-85941433D01*
X144236415Y-85941119D01*
X144243961Y-85932888D01*
X144256661Y-85915745D01*
X144272244Y-85892714D01*
X144276444Y-85886391D01*
X144291516Y-85865757D01*
X144303335Y-85852680D01*
X144309636Y-85849759D01*
X144309956Y-85850275D01*
X144314487Y-85860817D01*
X144323469Y-85883477D01*
X144336310Y-85916671D01*
X144352414Y-85958814D01*
X144371186Y-86008324D01*
X144392033Y-86063616D01*
X144414359Y-86123106D01*
X144437569Y-86185212D01*
X144461070Y-86248348D01*
X144484266Y-86310932D01*
X144506563Y-86371379D01*
X144527367Y-86428106D01*
X144546082Y-86479529D01*
X144553788Y-86501383D01*
X144561493Y-86525021D01*
X144565464Y-86539750D01*
X144564946Y-86543029D01*
X144564308Y-86542197D01*
X144557375Y-86530964D01*
X144544382Y-86508585D01*
X144526221Y-86476666D01*
X144503786Y-86436812D01*
X144477969Y-86390629D01*
X144449665Y-86339722D01*
X144419765Y-86285696D01*
X144389164Y-86230157D01*
X144358754Y-86174710D01*
X144329428Y-86120961D01*
X144302080Y-86070514D01*
X144285143Y-86039506D01*
X144266585Y-86006420D01*
X144251297Y-85980153D01*
X144240522Y-85962834D01*
X144235502Y-85956588D01*
X144233434Y-85957465D01*
X144223914Y-85968439D01*
X144209556Y-85990503D01*
X144191307Y-86021797D01*
X144170118Y-86060459D01*
X144146936Y-86104628D01*
X144122711Y-86152443D01*
X144098391Y-86202042D01*
X144074925Y-86251564D01*
X144053261Y-86299147D01*
X144034350Y-86342931D01*
X144019138Y-86381054D01*
X143990136Y-86458138D01*
X143971343Y-86425878D01*
X143971034Y-86425345D01*
X143961194Y-86408143D01*
X143945661Y-86380668D01*
X143925928Y-86345574D01*
X143903487Y-86305515D01*
X143879832Y-86263148D01*
X143878955Y-86261574D01*
X143851527Y-86212794D01*
X143819203Y-86155942D01*
X143784623Y-86095623D01*
X143750426Y-86036441D01*
X143719252Y-85983001D01*
X143687952Y-85929440D01*
X143652280Y-85867985D01*
X143615642Y-85804520D01*
X143580897Y-85744001D01*
X143550908Y-85691382D01*
X143517723Y-85633142D01*
X143385868Y-85406812D01*
X143246225Y-85174712D01*
X143101038Y-84940588D01*
X143037371Y-84839605D01*
X142961609Y-84720016D01*
X142892292Y-84611389D01*
X142828704Y-84512693D01*
X142770130Y-84422893D01*
X142715856Y-84340956D01*
X142665168Y-84265851D01*
X142617350Y-84196543D01*
X142571689Y-84132001D01*
X142527470Y-84071191D01*
X142483978Y-84013079D01*
X142440499Y-83956634D01*
X142396318Y-83900823D01*
X142350720Y-83844612D01*
X142302992Y-83786968D01*
X142251474Y-83726193D01*
X142148088Y-83610124D01*
X142049489Y-83507743D01*
X141955408Y-83418834D01*
X141865578Y-83343177D01*
X141779730Y-83280553D01*
X141697595Y-83230745D01*
X141618905Y-83193534D01*
X141543392Y-83168701D01*
X141540716Y-83168037D01*
X141475915Y-83158160D01*
X141402855Y-83157577D01*
X141324853Y-83166325D01*
X141302442Y-83170116D01*
X141326813Y-83158822D01*
X141332886Y-83156193D01*
X141372700Y-83144618D01*
X141421599Y-83137566D01*
X141475109Y-83135478D01*
X141528755Y-83138801D01*
G37*
D13*
%TO.C,R10*%
X141895776Y-99426500D02*
X142405224Y-99426500D01*
X141895776Y-100471500D02*
X142405224Y-100471500D01*
%TO.C,U3*%
X158578000Y-95230000D02*
X160528000Y-95230000D01*
X158578000Y-100350000D02*
X160528000Y-100350000D01*
X162478000Y-95230000D02*
X160528000Y-95230000D01*
X162478000Y-100350000D02*
X160528000Y-100350000D01*
X158068000Y-100585000D02*
X157588000Y-100585000D01*
X157828000Y-100255000D01*
X158068000Y-100585000D01*
G36*
X158068000Y-100585000D02*
G01*
X157588000Y-100585000D01*
X157828000Y-100255000D01*
X158068000Y-100585000D01*
G37*
%TO.C,U1*%
X150327000Y-98088000D02*
X152527000Y-98088000D01*
X150327000Y-104858000D02*
X152527000Y-104858000D01*
X154727000Y-98088000D02*
X152527000Y-98088000D01*
X154727000Y-104858000D02*
X152527000Y-104858000D01*
X148667000Y-104398000D02*
X148337000Y-104638000D01*
X148337000Y-104158000D01*
X148667000Y-104398000D01*
G36*
X148667000Y-104398000D02*
G01*
X148337000Y-104638000D01*
X148337000Y-104158000D01*
X148667000Y-104398000D01*
G37*
%TO.C,C9*%
X160145000Y-92717233D02*
X160145000Y-93009767D01*
X161165000Y-92717233D02*
X161165000Y-93009767D01*
D14*
%TO.C,G\u002A\u002A\u002A*%
G36*
X154404057Y-89545700D02*
G01*
X154439193Y-89552651D01*
X154469279Y-89564701D01*
X154490374Y-89580036D01*
X154498536Y-89596842D01*
X154498123Y-89600591D01*
X154487965Y-89614572D01*
X154469101Y-89623884D01*
X154448086Y-89624882D01*
X154441684Y-89623660D01*
X154427143Y-89625033D01*
X154420385Y-89637099D01*
X154416254Y-89646122D01*
X154401983Y-89654751D01*
X154382726Y-89652885D01*
X154362341Y-89642147D01*
X154344683Y-89624163D01*
X154333611Y-89600556D01*
X154331566Y-89589073D01*
X154335778Y-89564672D01*
X154353808Y-89549758D01*
X154385313Y-89544704D01*
X154404057Y-89545700D01*
G37*
G36*
X151629023Y-88992825D02*
G01*
X151658459Y-89039862D01*
X151691147Y-89096945D01*
X151727924Y-89165444D01*
X151769630Y-89246732D01*
X151817102Y-89342179D01*
X151831252Y-89370287D01*
X151860995Y-89426816D01*
X151896028Y-89491025D01*
X151934037Y-89558757D01*
X151972707Y-89625854D01*
X152009724Y-89688160D01*
X152034003Y-89728752D01*
X152070511Y-89791362D01*
X152106261Y-89854345D01*
X152139204Y-89914030D01*
X152167295Y-89966747D01*
X152188487Y-90008824D01*
X152189244Y-90010400D01*
X152212059Y-90057734D01*
X152239901Y-90115234D01*
X152245189Y-90126121D01*
X152251747Y-90139621D01*
X152270443Y-90178108D01*
X152296914Y-90232445D01*
X152301357Y-90241564D01*
X152305149Y-90249322D01*
X152313398Y-90266199D01*
X152327566Y-90295185D01*
X152330315Y-90300810D01*
X152334013Y-90308392D01*
X152340864Y-90322437D01*
X152342226Y-90325269D01*
X152364524Y-90371621D01*
X152385352Y-90415838D01*
X152402177Y-90452552D01*
X152413830Y-90479226D01*
X152419140Y-90493325D01*
X152428037Y-90510183D01*
X152448932Y-90535446D01*
X152478943Y-90565644D01*
X152515450Y-90598529D01*
X152555835Y-90631856D01*
X152597480Y-90663378D01*
X152637764Y-90690848D01*
X152674070Y-90712019D01*
X152680579Y-90715343D01*
X152749239Y-90745753D01*
X152813913Y-90766160D01*
X152873017Y-90776537D01*
X152924969Y-90776862D01*
X152968185Y-90767111D01*
X153001082Y-90747259D01*
X153022077Y-90717284D01*
X153028752Y-90683421D01*
X153025109Y-90637638D01*
X153011181Y-90583204D01*
X152987590Y-90522017D01*
X152954957Y-90455973D01*
X152913902Y-90386968D01*
X152909456Y-90380108D01*
X152893314Y-90357041D01*
X152879777Y-90344007D01*
X152863871Y-90337377D01*
X152840619Y-90333522D01*
X152781961Y-90324392D01*
X152703512Y-90305629D01*
X152631158Y-90279008D01*
X152561266Y-90242840D01*
X152490206Y-90195434D01*
X152414346Y-90135098D01*
X152389546Y-90114993D01*
X152353518Y-90087802D01*
X152320928Y-90065134D01*
X152316134Y-90061947D01*
X152276832Y-90031755D01*
X152236984Y-89995031D01*
X152200276Y-89955687D01*
X152170395Y-89917637D01*
X152151028Y-89884794D01*
X152141860Y-89859681D01*
X152133668Y-89817023D01*
X152133783Y-89802351D01*
X152211821Y-89802351D01*
X152212097Y-89808739D01*
X152222111Y-89845737D01*
X152245009Y-89886617D01*
X152278727Y-89928730D01*
X152321203Y-89969425D01*
X152370373Y-90006052D01*
X152374366Y-90008690D01*
X152404246Y-90029949D01*
X152438906Y-90056488D01*
X152471636Y-90083197D01*
X152509852Y-90115019D01*
X152558471Y-90152572D01*
X152601748Y-90181365D01*
X152643351Y-90203523D01*
X152686947Y-90221169D01*
X152736203Y-90236428D01*
X152765698Y-90244497D01*
X152790065Y-90250610D01*
X152803696Y-90252809D01*
X152809623Y-90251531D01*
X152810878Y-90247213D01*
X152810435Y-90246070D01*
X152802182Y-90234875D01*
X152785099Y-90214466D01*
X152761281Y-90187294D01*
X152732822Y-90155815D01*
X152679001Y-90098971D01*
X152612859Y-90033801D01*
X152546962Y-89973603D01*
X152482812Y-89919522D01*
X152421915Y-89872704D01*
X152365773Y-89834295D01*
X152315890Y-89805441D01*
X152273771Y-89787289D01*
X152240919Y-89780983D01*
X152223974Y-89781946D01*
X152214026Y-89787833D01*
X152211821Y-89802351D01*
X152133783Y-89802351D01*
X152133982Y-89776944D01*
X152143132Y-89745240D01*
X152154379Y-89729363D01*
X152183123Y-89709817D01*
X152221357Y-89701867D01*
X152267491Y-89705314D01*
X152319934Y-89719959D01*
X152377093Y-89745603D01*
X152437379Y-89782046D01*
X152491395Y-89821645D01*
X152556035Y-89874353D01*
X152624892Y-89935027D01*
X152694920Y-90000802D01*
X152763078Y-90068815D01*
X152826320Y-90136200D01*
X152881603Y-90200094D01*
X152903709Y-90226571D01*
X152920382Y-90244534D01*
X152924005Y-90247213D01*
X152932353Y-90253385D01*
X152942612Y-90255278D01*
X152954148Y-90252369D01*
X152960961Y-90249357D01*
X152983083Y-90234896D01*
X153005145Y-90215464D01*
X153021643Y-90195851D01*
X153032073Y-90173009D01*
X153036859Y-90141795D01*
X153037860Y-90123203D01*
X153036394Y-90103698D01*
X153030690Y-90083320D01*
X153019381Y-90057471D01*
X153001098Y-90021550D01*
X152998427Y-90016474D01*
X152977789Y-89978391D01*
X152951956Y-89932124D01*
X152923961Y-89883055D01*
X152896839Y-89836566D01*
X152888304Y-89822218D01*
X152864559Y-89783690D01*
X152842483Y-89750976D01*
X152819297Y-89720586D01*
X152792223Y-89689029D01*
X152758484Y-89652814D01*
X152715301Y-89608450D01*
X152680430Y-89572429D01*
X152639749Y-89529062D01*
X152601844Y-89487322D01*
X152569799Y-89450616D01*
X152546698Y-89422346D01*
X152537428Y-89410356D01*
X152498819Y-89362872D01*
X152463011Y-89324270D01*
X152425534Y-89290434D01*
X152381919Y-89257246D01*
X152327697Y-89220588D01*
X152323650Y-89217958D01*
X152282321Y-89191900D01*
X152241571Y-89167491D01*
X152202962Y-89145487D01*
X152168053Y-89126640D01*
X152138404Y-89111703D01*
X152115575Y-89101431D01*
X152101127Y-89096576D01*
X152096619Y-89097892D01*
X152103611Y-89106132D01*
X152123664Y-89122050D01*
X152135425Y-89131447D01*
X152157401Y-89153295D01*
X152173356Y-89174833D01*
X152180960Y-89192580D01*
X152177883Y-89203057D01*
X152172582Y-89203155D01*
X152156877Y-89195516D01*
X152136950Y-89180432D01*
X152127209Y-89172211D01*
X152101684Y-89152845D01*
X152079922Y-89138926D01*
X152059111Y-89122736D01*
X152041966Y-89098803D01*
X152033393Y-89073602D01*
X152036103Y-89052482D01*
X152038113Y-89049052D01*
X152046666Y-89041395D01*
X152061689Y-89039186D01*
X152088223Y-89041350D01*
X152099649Y-89043100D01*
X152133926Y-89052393D01*
X152175021Y-89069030D01*
X152224539Y-89093791D01*
X152284089Y-89127454D01*
X152355276Y-89170797D01*
X152420201Y-89213993D01*
X152487074Y-89266639D01*
X152543834Y-89322283D01*
X152594062Y-89384129D01*
X152595562Y-89386148D01*
X152613424Y-89408010D01*
X152640448Y-89438759D01*
X152674177Y-89475700D01*
X152712154Y-89516133D01*
X152751919Y-89557362D01*
X152756683Y-89562244D01*
X152796408Y-89603830D01*
X152834007Y-89644629D01*
X152867015Y-89681869D01*
X152892967Y-89712774D01*
X152909398Y-89734571D01*
X152913840Y-89741296D01*
X152942782Y-89786849D01*
X152973154Y-89837227D01*
X153003467Y-89889699D01*
X153032233Y-89941535D01*
X153057964Y-89990007D01*
X153079171Y-90032383D01*
X153094366Y-90065935D01*
X153102060Y-90087932D01*
X153104926Y-90102907D01*
X153105982Y-90159548D01*
X153091035Y-90211581D01*
X153060526Y-90257947D01*
X153014897Y-90297585D01*
X152974015Y-90325269D01*
X152989991Y-90350585D01*
X153009393Y-90383845D01*
X153031588Y-90425917D01*
X153054198Y-90471891D01*
X153075016Y-90517132D01*
X153091837Y-90557008D01*
X153102456Y-90586883D01*
X153110690Y-90626307D01*
X153113052Y-90679457D01*
X153106110Y-90728987D01*
X153090228Y-90769438D01*
X153085362Y-90776911D01*
X153057055Y-90807843D01*
X153020596Y-90834975D01*
X152982820Y-90852992D01*
X152981762Y-90853321D01*
X152954340Y-90857620D01*
X152915787Y-90858665D01*
X152871184Y-90856803D01*
X152825613Y-90852381D01*
X152784153Y-90845745D01*
X152751888Y-90837242D01*
X152742587Y-90833871D01*
X152667238Y-90803309D01*
X152602486Y-90769877D01*
X152542693Y-90730318D01*
X152482223Y-90681372D01*
X152462882Y-90664673D01*
X152442878Y-90648718D01*
X152429999Y-90641530D01*
X152421077Y-90641545D01*
X152412945Y-90647201D01*
X152402534Y-90654801D01*
X152384005Y-90658254D01*
X152364912Y-90647745D01*
X152344112Y-90622461D01*
X152320461Y-90581591D01*
X152304918Y-90554028D01*
X152264465Y-90495920D01*
X152210784Y-90433393D01*
X152167023Y-90383070D01*
X152122475Y-90325269D01*
X152245575Y-90325269D01*
X152249795Y-90329488D01*
X152254014Y-90325269D01*
X152249795Y-90321050D01*
X152245575Y-90325269D01*
X152122475Y-90325269D01*
X152109468Y-90308392D01*
X152237137Y-90308392D01*
X152241356Y-90312611D01*
X152245575Y-90308392D01*
X152241356Y-90304173D01*
X152237137Y-90308392D01*
X152109468Y-90308392D01*
X152106636Y-90304717D01*
X152089035Y-90279407D01*
X152222329Y-90279407D01*
X152224479Y-90287296D01*
X152226213Y-90289794D01*
X152233913Y-90295734D01*
X152235068Y-90295185D01*
X152232917Y-90287296D01*
X152231184Y-90284798D01*
X152223483Y-90278857D01*
X152222329Y-90279407D01*
X152089035Y-90279407D01*
X152079850Y-90266199D01*
X152211821Y-90266199D01*
X152216040Y-90270419D01*
X152220260Y-90266199D01*
X152216040Y-90261980D01*
X152211821Y-90266199D01*
X152079850Y-90266199D01*
X152068113Y-90249322D01*
X152203383Y-90249322D01*
X152207602Y-90253542D01*
X152211821Y-90249322D01*
X152207602Y-90245103D01*
X152203383Y-90249322D01*
X152068113Y-90249322D01*
X152041082Y-90210451D01*
X152006452Y-90156498D01*
X152161953Y-90156498D01*
X152163240Y-90161852D01*
X152170592Y-90179525D01*
X152182286Y-90202910D01*
X152190252Y-90217107D01*
X152199156Y-90230673D01*
X152202620Y-90232445D01*
X152201332Y-90227092D01*
X152193981Y-90209418D01*
X152182286Y-90186033D01*
X152174321Y-90171836D01*
X152165416Y-90158270D01*
X152161953Y-90156498D01*
X152006452Y-90156498D01*
X151995619Y-90139621D01*
X152152751Y-90139621D01*
X152156971Y-90143841D01*
X152161190Y-90139621D01*
X152156971Y-90135402D01*
X152152751Y-90139621D01*
X151995619Y-90139621D01*
X151970408Y-90100343D01*
X151894661Y-89974464D01*
X151813887Y-89832885D01*
X151807663Y-89821819D01*
X151783925Y-89781246D01*
X151761159Y-89744611D01*
X151741688Y-89715565D01*
X151727839Y-89697759D01*
X151718930Y-89688834D01*
X151697011Y-89669060D01*
X151670410Y-89646760D01*
X151642604Y-89624664D01*
X151617067Y-89605502D01*
X151597274Y-89592003D01*
X151586700Y-89586897D01*
X151583528Y-89592310D01*
X151587614Y-89610598D01*
X151599039Y-89640334D01*
X151616956Y-89679992D01*
X151640522Y-89728045D01*
X151668892Y-89782969D01*
X151701219Y-89843237D01*
X151736660Y-89907325D01*
X151774368Y-89973706D01*
X151813500Y-90040854D01*
X151853209Y-90107244D01*
X151892651Y-90171351D01*
X151930981Y-90231648D01*
X151967353Y-90286611D01*
X152000922Y-90334712D01*
X152010697Y-90348399D01*
X152040962Y-90392472D01*
X152069568Y-90436413D01*
X152093675Y-90475777D01*
X152110444Y-90506122D01*
X152116210Y-90518010D01*
X152134276Y-90558546D01*
X152153247Y-90605055D01*
X152171541Y-90653269D01*
X152187578Y-90698923D01*
X152199778Y-90737752D01*
X152206559Y-90765489D01*
X152207071Y-90782031D01*
X152197995Y-90808765D01*
X152179166Y-90828258D01*
X152154098Y-90835801D01*
X152134636Y-90831361D01*
X152103021Y-90815589D01*
X152063769Y-90789730D01*
X152018788Y-90755167D01*
X151969987Y-90713286D01*
X151919274Y-90665470D01*
X151858787Y-90605825D01*
X151833586Y-90623770D01*
X151832142Y-90624772D01*
X151807875Y-90636771D01*
X151784539Y-90641714D01*
X151766543Y-90638294D01*
X151733270Y-90623543D01*
X151690311Y-90597770D01*
X151638779Y-90561662D01*
X151579789Y-90515903D01*
X151550402Y-90492280D01*
X151516157Y-90465008D01*
X151486574Y-90441713D01*
X151465869Y-90425731D01*
X151456385Y-90418415D01*
X151428228Y-90395389D01*
X151404051Y-90374029D01*
X151376846Y-90348444D01*
X151359957Y-90377070D01*
X151346052Y-90396527D01*
X151327044Y-90411387D01*
X151302619Y-90418135D01*
X151270334Y-90416960D01*
X151227746Y-90408053D01*
X151172411Y-90391602D01*
X151161151Y-90387670D01*
X151121472Y-90370364D01*
X151078967Y-90347752D01*
X151038293Y-90322642D01*
X151004106Y-90297844D01*
X150981064Y-90276167D01*
X150980839Y-90275897D01*
X150972029Y-90268194D01*
X150961854Y-90269720D01*
X150944533Y-90281284D01*
X150932713Y-90288942D01*
X150914788Y-90295735D01*
X150890486Y-90298943D01*
X150854589Y-90299631D01*
X150847359Y-90299568D01*
X150814247Y-90297990D01*
X150786104Y-90293187D01*
X150756298Y-90283608D01*
X150718200Y-90267699D01*
X150693218Y-90256414D01*
X150667309Y-90243537D01*
X150643168Y-90229543D01*
X150617890Y-90212442D01*
X150588572Y-90190248D01*
X150552309Y-90160975D01*
X150506198Y-90122633D01*
X150484646Y-90104711D01*
X150452550Y-90078419D01*
X150424730Y-90056077D01*
X150405486Y-90041165D01*
X150395496Y-90033426D01*
X150361549Y-90004100D01*
X150321628Y-89966214D01*
X150279177Y-89923112D01*
X150237642Y-89878141D01*
X150223278Y-89862123D01*
X150210124Y-89848363D01*
X150202312Y-89842631D01*
X150199974Y-89846210D01*
X150203240Y-89860382D01*
X150212242Y-89886431D01*
X150227110Y-89925639D01*
X150247976Y-89979289D01*
X150281315Y-90060262D01*
X150336810Y-90177958D01*
X150400406Y-90293564D01*
X150474173Y-90410755D01*
X150560184Y-90533208D01*
X150563153Y-90536673D01*
X150582896Y-90552320D01*
X150613652Y-90570773D01*
X150651616Y-90589685D01*
X150726666Y-90623870D01*
X150760584Y-90573924D01*
X150760643Y-90573837D01*
X150780188Y-90547388D01*
X150798846Y-90526002D01*
X150812585Y-90514301D01*
X150833808Y-90507577D01*
X150872831Y-90508115D01*
X150921699Y-90519827D01*
X150979174Y-90542290D01*
X151044020Y-90575080D01*
X151115000Y-90617775D01*
X151144473Y-90637172D01*
X151191161Y-90670419D01*
X151225750Y-90699427D01*
X151250363Y-90726074D01*
X151267124Y-90752238D01*
X151269034Y-90756077D01*
X151271391Y-90763325D01*
X151278138Y-90784068D01*
X151273920Y-90807970D01*
X151255538Y-90833691D01*
X151246867Y-90841950D01*
X151235703Y-90847683D01*
X151218905Y-90850909D01*
X151192727Y-90852321D01*
X151153423Y-90852613D01*
X151152178Y-90852612D01*
X151114158Y-90851869D01*
X151080395Y-90849212D01*
X151047615Y-90843805D01*
X151012544Y-90834813D01*
X150971906Y-90821400D01*
X150922427Y-90802730D01*
X150860832Y-90777969D01*
X150850489Y-90773760D01*
X150811943Y-90758379D01*
X150779558Y-90745925D01*
X150756476Y-90737583D01*
X150745836Y-90734538D01*
X150739474Y-90736552D01*
X150726638Y-90747196D01*
X150724033Y-90749736D01*
X150704550Y-90757556D01*
X150677239Y-90759473D01*
X150648602Y-90755567D01*
X150625144Y-90745921D01*
X150590991Y-90719268D01*
X150556201Y-90683948D01*
X150540532Y-90662235D01*
X150811899Y-90662235D01*
X150821509Y-90667270D01*
X150843581Y-90676816D01*
X150874619Y-90689490D01*
X150911160Y-90703938D01*
X150949740Y-90718810D01*
X150986896Y-90732754D01*
X151019165Y-90744419D01*
X151043084Y-90752453D01*
X151066282Y-90758707D01*
X151101641Y-90765544D01*
X151130612Y-90768228D01*
X151136621Y-90768215D01*
X151155624Y-90767142D01*
X151161346Y-90763325D01*
X151156734Y-90755309D01*
X151146131Y-90745470D01*
X151122418Y-90727664D01*
X151090416Y-90705852D01*
X151053729Y-90682330D01*
X151015958Y-90659396D01*
X150980705Y-90639347D01*
X150951573Y-90624479D01*
X150924411Y-90612102D01*
X150893332Y-90599461D01*
X150871833Y-90594361D01*
X150856583Y-90596797D01*
X150844251Y-90606762D01*
X150831507Y-90624250D01*
X150823708Y-90636563D01*
X150814181Y-90653979D01*
X150811899Y-90662235D01*
X150540532Y-90662235D01*
X150530880Y-90648860D01*
X150522158Y-90635724D01*
X150505977Y-90619906D01*
X150481529Y-90604271D01*
X150444962Y-90586002D01*
X150400002Y-90564274D01*
X150277309Y-90498487D01*
X150151514Y-90422291D01*
X150026987Y-90338426D01*
X149908100Y-90249629D01*
X149882184Y-90229386D01*
X149839379Y-90196535D01*
X149797310Y-90164835D01*
X149762189Y-90138995D01*
X149747112Y-90127844D01*
X149718379Y-90105049D01*
X149695759Y-90085080D01*
X149683162Y-90071288D01*
X149676338Y-90059682D01*
X149674797Y-90046572D01*
X149683703Y-90029920D01*
X149698055Y-90015439D01*
X149715246Y-90008824D01*
X149715909Y-90008841D01*
X149734585Y-90015222D01*
X149765193Y-90032973D01*
X149807421Y-90061877D01*
X149860954Y-90101722D01*
X149925479Y-90152293D01*
X150006102Y-90214797D01*
X150148043Y-90315706D01*
X150287349Y-90403166D01*
X150302452Y-90411950D01*
X150338643Y-90432655D01*
X150368638Y-90449333D01*
X150389660Y-90460458D01*
X150398937Y-90464505D01*
X150399137Y-90462313D01*
X150392828Y-90449321D01*
X150379561Y-90427251D01*
X150361075Y-90399106D01*
X150337949Y-90363402D01*
X150293011Y-90285456D01*
X150247098Y-90195530D01*
X150201628Y-90096620D01*
X150158016Y-89991724D01*
X150117678Y-89883841D01*
X150112691Y-89869860D01*
X150098608Y-89832493D01*
X150083590Y-89796503D01*
X150065813Y-89757862D01*
X150043453Y-89712544D01*
X150014684Y-89656521D01*
X150005850Y-89638884D01*
X149992052Y-89604863D01*
X149988683Y-89580632D01*
X149995708Y-89563764D01*
X150013089Y-89551832D01*
X150025300Y-89548281D01*
X150043420Y-89550668D01*
X150069317Y-89562003D01*
X150070698Y-89562708D01*
X150111824Y-89586492D01*
X150145477Y-89613156D01*
X150176224Y-89646971D01*
X150208632Y-89692203D01*
X150214937Y-89701533D01*
X150252523Y-89752493D01*
X150296833Y-89806628D01*
X150343986Y-89859543D01*
X150390099Y-89906846D01*
X150431290Y-89944143D01*
X150436198Y-89948190D01*
X150462674Y-89970087D01*
X150497205Y-89998722D01*
X150535870Y-90030840D01*
X150574745Y-90063185D01*
X150612140Y-90093370D01*
X150680022Y-90142272D01*
X150741013Y-90177542D01*
X150796229Y-90199780D01*
X150846787Y-90209586D01*
X150870261Y-90211056D01*
X150887756Y-90210045D01*
X150896959Y-90204648D01*
X150902549Y-90193517D01*
X150903654Y-90181438D01*
X150895360Y-90154043D01*
X150875342Y-90117300D01*
X150844213Y-90072273D01*
X150802585Y-90020022D01*
X150777920Y-89990317D01*
X150738267Y-89941000D01*
X150701955Y-89893971D01*
X150670515Y-89851331D01*
X150645482Y-89815181D01*
X150628387Y-89787624D01*
X150620765Y-89770762D01*
X150619225Y-89758538D01*
X150625171Y-89731288D01*
X150642985Y-89712237D01*
X150669873Y-89705118D01*
X150676497Y-89705680D01*
X150705411Y-89715988D01*
X150740960Y-89737765D01*
X150780956Y-89769041D01*
X150823210Y-89807848D01*
X150865535Y-89852216D01*
X150905742Y-89900174D01*
X150941643Y-89949754D01*
X150951332Y-89965034D01*
X150980095Y-90021385D01*
X150998578Y-90077127D01*
X151005110Y-90127582D01*
X151005292Y-90134011D01*
X151009465Y-90154053D01*
X151021166Y-90174697D01*
X151043062Y-90201105D01*
X151086635Y-90242942D01*
X151147809Y-90283171D01*
X151219679Y-90312034D01*
X151234639Y-90316402D01*
X151265075Y-90322876D01*
X151282917Y-90321266D01*
X151290075Y-90311002D01*
X151288461Y-90291515D01*
X151288307Y-90290810D01*
X151284134Y-90270267D01*
X151279377Y-90245003D01*
X151277934Y-90239267D01*
X151271244Y-90223996D01*
X151258884Y-90203835D01*
X151239885Y-90177537D01*
X151213278Y-90143855D01*
X151178096Y-90101543D01*
X151133369Y-90049355D01*
X151078128Y-89986043D01*
X151057581Y-89962100D01*
X151025151Y-89920493D01*
X151003712Y-89885895D01*
X150991871Y-89855856D01*
X150988233Y-89827926D01*
X150990279Y-89812380D01*
X151002266Y-89790074D01*
X151021513Y-89777454D01*
X151044004Y-89778106D01*
X151059480Y-89785806D01*
X151088457Y-89805130D01*
X151122235Y-89831541D01*
X151156915Y-89861933D01*
X151188596Y-89893201D01*
X151209544Y-89916983D01*
X151244052Y-89961542D01*
X151278256Y-90011265D01*
X151309358Y-90061769D01*
X151334561Y-90108675D01*
X151351068Y-90147603D01*
X151371035Y-90191099D01*
X151406697Y-90243170D01*
X151454349Y-90296100D01*
X151511928Y-90347327D01*
X151519760Y-90353616D01*
X151554754Y-90381964D01*
X151593711Y-90413821D01*
X151629562Y-90443413D01*
X151651702Y-90461278D01*
X151685712Y-90487113D01*
X151719139Y-90510931D01*
X151748841Y-90530593D01*
X151771675Y-90543960D01*
X151784499Y-90548890D01*
X151787782Y-90548185D01*
X151789795Y-90540861D01*
X151783633Y-90524705D01*
X151768705Y-90498631D01*
X151744419Y-90461551D01*
X151710184Y-90412378D01*
X151654854Y-90334287D01*
X151595163Y-90249879D01*
X151543667Y-90176844D01*
X151499463Y-90113892D01*
X151461647Y-90059731D01*
X151429316Y-90013072D01*
X151401567Y-89972624D01*
X151377495Y-89937096D01*
X151354787Y-89903946D01*
X151318510Y-89852556D01*
X151280889Y-89800689D01*
X151247183Y-89755668D01*
X151238831Y-89744728D01*
X151180575Y-89666734D01*
X151117623Y-89579923D01*
X151053439Y-89489185D01*
X150991492Y-89399410D01*
X150935246Y-89315490D01*
X150925823Y-89301207D01*
X150895253Y-89255228D01*
X150864566Y-89209537D01*
X150836873Y-89168749D01*
X150815285Y-89137483D01*
X150794828Y-89107046D01*
X150780124Y-89080181D01*
X150775290Y-89060686D01*
X150779698Y-89045626D01*
X150792719Y-89032063D01*
X150801528Y-89026597D01*
X150819701Y-89021515D01*
X150830504Y-89026368D01*
X150851709Y-89042767D01*
X150881039Y-89069321D01*
X150917059Y-89104549D01*
X150958329Y-89146969D01*
X151003411Y-89195099D01*
X151050867Y-89247457D01*
X151099260Y-89302562D01*
X151147152Y-89358931D01*
X151192455Y-89414426D01*
X151295053Y-89548897D01*
X151390361Y-89685965D01*
X151399056Y-89699077D01*
X151438414Y-89757396D01*
X151480536Y-89818409D01*
X151522453Y-89877890D01*
X151561195Y-89931617D01*
X151593794Y-89975363D01*
X151615842Y-90004262D01*
X151647689Y-90046137D01*
X151676814Y-90084581D01*
X151700703Y-90116273D01*
X151716841Y-90137890D01*
X151731788Y-90160212D01*
X151755372Y-90200666D01*
X151781078Y-90249173D01*
X151806739Y-90301295D01*
X151830190Y-90352594D01*
X151849266Y-90398632D01*
X151861800Y-90434970D01*
X151864878Y-90444824D01*
X151890322Y-90498590D01*
X151930573Y-90555036D01*
X151984407Y-90612635D01*
X152050598Y-90669865D01*
X152102403Y-90710565D01*
X152086250Y-90669811D01*
X152079723Y-90653344D01*
X152062711Y-90610824D01*
X152048435Y-90576814D01*
X152035118Y-90548125D01*
X152020982Y-90521571D01*
X152004249Y-90493963D01*
X151983142Y-90462113D01*
X151955882Y-90422834D01*
X151920692Y-90372937D01*
X151900793Y-90344558D01*
X151863758Y-90290273D01*
X151829136Y-90237121D01*
X151794943Y-90181852D01*
X151759195Y-90121216D01*
X151719906Y-90051966D01*
X151675092Y-89970851D01*
X151665637Y-89953622D01*
X151639951Y-89907194D01*
X151614946Y-89862480D01*
X151593076Y-89823853D01*
X151576796Y-89795687D01*
X151559061Y-89764224D01*
X151528390Y-89700475D01*
X151507245Y-89641838D01*
X151495898Y-89589869D01*
X151494621Y-89546126D01*
X151503686Y-89512167D01*
X151523364Y-89489547D01*
X151525072Y-89488441D01*
X151536834Y-89482525D01*
X151549383Y-89481752D01*
X151567603Y-89486680D01*
X151596378Y-89497865D01*
X151596717Y-89498003D01*
X151623679Y-89508295D01*
X151643771Y-89514750D01*
X151652667Y-89515973D01*
X151652907Y-89513526D01*
X151648491Y-89499776D01*
X151638861Y-89478883D01*
X151634655Y-89470510D01*
X151617268Y-89434255D01*
X151595912Y-89387894D01*
X151571967Y-89334605D01*
X151546816Y-89277565D01*
X151521840Y-89219954D01*
X151498420Y-89164950D01*
X151477937Y-89115730D01*
X151461772Y-89075473D01*
X151451308Y-89047357D01*
X151447997Y-89037369D01*
X151440008Y-89007275D01*
X151531296Y-89007275D01*
X151532115Y-89017673D01*
X151540079Y-89042359D01*
X151555257Y-89081500D01*
X151577717Y-89135263D01*
X151607527Y-89203817D01*
X151644754Y-89287329D01*
X151672554Y-89348862D01*
X151711503Y-89433848D01*
X151745308Y-89505745D01*
X151774769Y-89566088D01*
X151800684Y-89616410D01*
X151823852Y-89658243D01*
X151845072Y-89693122D01*
X151865143Y-89722578D01*
X151884863Y-89748147D01*
X151900889Y-89768152D01*
X151930331Y-89806529D01*
X151963363Y-89851076D01*
X151998012Y-89898992D01*
X152032307Y-89947476D01*
X152064274Y-89993729D01*
X152091940Y-90034951D01*
X152113333Y-90068341D01*
X152126480Y-90091100D01*
X152130679Y-90099283D01*
X152142159Y-90119967D01*
X152147260Y-90126121D01*
X152146039Y-90118586D01*
X152138549Y-90098203D01*
X152124845Y-90065812D01*
X152111364Y-90037331D01*
X152087811Y-89991773D01*
X152057851Y-89936806D01*
X152022975Y-89875062D01*
X151984673Y-89809175D01*
X151944436Y-89741777D01*
X151903758Y-89675502D01*
X151897171Y-89664699D01*
X151876097Y-89628402D01*
X151849531Y-89580865D01*
X151818960Y-89524828D01*
X151785869Y-89463032D01*
X151751745Y-89398217D01*
X151718074Y-89333124D01*
X151710559Y-89318470D01*
X151665152Y-89230765D01*
X151626650Y-89158001D01*
X151594873Y-89099859D01*
X151569637Y-89056023D01*
X151550763Y-89026178D01*
X151538069Y-89010005D01*
X151531373Y-89007190D01*
X151531296Y-89007275D01*
X151440008Y-89007275D01*
X151435947Y-88991980D01*
X151519861Y-88991980D01*
X151524080Y-88996199D01*
X151528300Y-88991980D01*
X151524080Y-88987761D01*
X151519861Y-88991980D01*
X151435947Y-88991980D01*
X151433569Y-88983023D01*
X151427508Y-88936689D01*
X151429943Y-88900507D01*
X151441003Y-88876615D01*
X151450560Y-88868599D01*
X151476546Y-88861361D01*
X151507114Y-88867633D01*
X151538979Y-88887067D01*
X151551846Y-88898272D01*
X151576555Y-88923401D01*
X151602001Y-88954462D01*
X151628428Y-88991980D01*
X151629023Y-88992825D01*
G37*
G36*
X157944703Y-89827395D02*
G01*
X157949765Y-89839482D01*
X157971690Y-89894904D01*
X157990202Y-89943156D01*
X158033565Y-90051904D01*
X158074119Y-90147014D01*
X158112720Y-90230449D01*
X158150226Y-90304173D01*
X158155626Y-90314257D01*
X158190994Y-90380622D01*
X158219095Y-90434113D01*
X158240716Y-90476404D01*
X158256642Y-90509166D01*
X158267660Y-90534074D01*
X158274556Y-90552800D01*
X158278118Y-90567016D01*
X158279130Y-90578396D01*
X158278221Y-90589510D01*
X158268706Y-90611234D01*
X158251485Y-90621303D01*
X158229857Y-90617125D01*
X158226982Y-90615384D01*
X158207958Y-90597986D01*
X158183178Y-90568313D01*
X158154145Y-90528729D01*
X158122362Y-90481601D01*
X158089331Y-90429293D01*
X158056554Y-90374170D01*
X158025534Y-90318598D01*
X157997773Y-90264943D01*
X157974775Y-90215568D01*
X157956970Y-90174887D01*
X157932072Y-90119832D01*
X157907111Y-90067275D01*
X157880373Y-90013819D01*
X157850144Y-89956061D01*
X157814711Y-89890601D01*
X157779745Y-89827395D01*
X157865642Y-89827395D01*
X157869861Y-89831615D01*
X157874080Y-89827395D01*
X157869861Y-89823176D01*
X157865642Y-89827395D01*
X157779745Y-89827395D01*
X157772358Y-89814041D01*
X157770356Y-89810518D01*
X157857203Y-89810518D01*
X157861422Y-89814738D01*
X157865642Y-89810518D01*
X157861422Y-89806299D01*
X157857203Y-89810518D01*
X157770356Y-89810518D01*
X157693309Y-89674914D01*
X157609749Y-89534630D01*
X157529514Y-89407668D01*
X157451595Y-89292597D01*
X157374981Y-89187988D01*
X157298662Y-89092409D01*
X157221630Y-89004431D01*
X157142873Y-88922624D01*
X157122276Y-88902767D01*
X157085517Y-88869943D01*
X157051841Y-88843026D01*
X157023410Y-88823572D01*
X157002386Y-88813137D01*
X156990932Y-88813278D01*
X156992842Y-88819417D01*
X157001556Y-88839033D01*
X157016423Y-88870407D01*
X157036565Y-88911804D01*
X157061103Y-88961489D01*
X157089158Y-89017727D01*
X157119853Y-89078783D01*
X157152309Y-89142923D01*
X157185648Y-89208412D01*
X157218992Y-89273515D01*
X157251462Y-89336496D01*
X157282181Y-89395622D01*
X157310270Y-89449158D01*
X157334851Y-89495368D01*
X157355045Y-89532517D01*
X157359846Y-89541156D01*
X157389580Y-89593103D01*
X157422428Y-89648397D01*
X157454725Y-89700948D01*
X157482803Y-89744667D01*
X157510330Y-89787716D01*
X157542966Y-89841551D01*
X157575131Y-89897022D01*
X157602718Y-89947192D01*
X157613684Y-89967920D01*
X157630335Y-89999288D01*
X157644414Y-90025347D01*
X157657402Y-90048521D01*
X157670779Y-90071239D01*
X157686024Y-90095927D01*
X157704618Y-90125011D01*
X157728042Y-90160918D01*
X157757776Y-90206075D01*
X157795299Y-90262908D01*
X157806354Y-90279729D01*
X157837209Y-90327504D01*
X157865266Y-90372104D01*
X157888868Y-90410824D01*
X157906354Y-90440959D01*
X157916066Y-90459804D01*
X157928539Y-90497265D01*
X157933065Y-90531613D01*
X157929169Y-90558321D01*
X157916828Y-90573909D01*
X157911777Y-90576242D01*
X157881490Y-90582070D01*
X157845053Y-90579900D01*
X157809490Y-90569987D01*
X157803412Y-90567456D01*
X157785751Y-90560231D01*
X157778116Y-90557324D01*
X157777928Y-90560334D01*
X157778259Y-90569160D01*
X157778509Y-90575808D01*
X157779995Y-90600024D01*
X157779911Y-90621526D01*
X157771779Y-90650718D01*
X157754700Y-90668009D01*
X157730217Y-90673781D01*
X157699870Y-90668415D01*
X157665202Y-90652293D01*
X157627753Y-90625798D01*
X157589067Y-90589312D01*
X157550684Y-90543215D01*
X157506961Y-90484357D01*
X157506982Y-90540458D01*
X157506643Y-90562246D01*
X157503827Y-90588080D01*
X157496658Y-90607676D01*
X157483362Y-90627584D01*
X157456574Y-90655697D01*
X157424111Y-90676391D01*
X157392668Y-90683907D01*
X157376641Y-90681977D01*
X157349845Y-90671560D01*
X157317787Y-90651120D01*
X157278794Y-90619537D01*
X157231194Y-90575690D01*
X157224141Y-90568962D01*
X157193623Y-90540943D01*
X157169650Y-90520775D01*
X157153980Y-90509859D01*
X157148366Y-90509596D01*
X157148222Y-90511810D01*
X157143532Y-90529820D01*
X157134281Y-90552539D01*
X157114355Y-90580255D01*
X157082674Y-90599355D01*
X157042695Y-90605574D01*
X156996051Y-90598690D01*
X156944374Y-90578481D01*
X156926736Y-90569754D01*
X156907841Y-90560800D01*
X156899325Y-90557329D01*
X156899055Y-90557487D01*
X156899742Y-90566375D01*
X156904237Y-90584699D01*
X156909261Y-90613888D01*
X156911992Y-90629753D01*
X156908354Y-90668949D01*
X156893794Y-90699201D01*
X156868963Y-90718047D01*
X156856481Y-90722336D01*
X156838944Y-90724162D01*
X156820382Y-90719617D01*
X156798748Y-90707463D01*
X156771989Y-90686463D01*
X156738057Y-90655378D01*
X156694900Y-90612972D01*
X156591634Y-90509647D01*
X156586291Y-90539817D01*
X156576903Y-90572119D01*
X156558267Y-90611465D01*
X156534771Y-90647150D01*
X156510147Y-90672667D01*
X156493176Y-90684225D01*
X156464590Y-90696421D01*
X156434734Y-90698681D01*
X156401689Y-90690408D01*
X156363535Y-90671008D01*
X156318352Y-90639887D01*
X156264220Y-90596448D01*
X156256072Y-90589615D01*
X156224857Y-90563726D01*
X156199030Y-90542754D01*
X156181082Y-90528703D01*
X156173506Y-90523575D01*
X156171145Y-90526911D01*
X156169496Y-90540871D01*
X156167471Y-90555856D01*
X156153696Y-90587087D01*
X156130202Y-90617615D01*
X156100902Y-90642842D01*
X156069707Y-90658169D01*
X156063601Y-90659725D01*
X156038772Y-90661630D01*
X156010980Y-90655806D01*
X155976879Y-90641242D01*
X155933123Y-90616928D01*
X155875843Y-90580795D01*
X155759819Y-90494125D01*
X155650589Y-90393854D01*
X155636123Y-90379287D01*
X155610365Y-90353927D01*
X155591503Y-90336174D01*
X155581157Y-90327528D01*
X155580950Y-90329488D01*
X155604635Y-90366692D01*
X155626764Y-90407219D01*
X155645129Y-90446513D01*
X155657765Y-90480370D01*
X155662712Y-90504588D01*
X155662423Y-90509665D01*
X155652764Y-90532084D01*
X155633822Y-90550002D01*
X155611511Y-90557329D01*
X155607023Y-90556636D01*
X155587611Y-90549341D01*
X155560208Y-90535786D01*
X155529235Y-90518079D01*
X155516007Y-90510122D01*
X155488026Y-90494069D01*
X155466718Y-90482913D01*
X155455890Y-90478699D01*
X155453786Y-90479012D01*
X155439389Y-90485713D01*
X155420043Y-90498427D01*
X155416471Y-90500893D01*
X155382429Y-90514127D01*
X155337628Y-90518126D01*
X155285039Y-90512890D01*
X155227633Y-90498421D01*
X155227308Y-90498316D01*
X155185967Y-90483189D01*
X155138150Y-90463025D01*
X155087565Y-90439668D01*
X155037918Y-90414963D01*
X154992915Y-90390753D01*
X154956264Y-90368882D01*
X154931671Y-90351193D01*
X154896338Y-90320643D01*
X154903245Y-90344728D01*
X154913950Y-90398059D01*
X154917475Y-90455136D01*
X154914193Y-90511714D01*
X154904567Y-90563884D01*
X154889064Y-90607738D01*
X154868149Y-90639365D01*
X154843943Y-90659368D01*
X154800076Y-90678369D01*
X154749343Y-90683186D01*
X154693227Y-90673753D01*
X154633211Y-90650003D01*
X154605778Y-90635204D01*
X154538592Y-90588451D01*
X154480438Y-90530530D01*
X154429780Y-90459734D01*
X154385081Y-90374358D01*
X154374855Y-90352071D01*
X154355442Y-90310990D01*
X154337007Y-90273330D01*
X154322463Y-90245103D01*
X154319320Y-90239259D01*
X154292292Y-90185048D01*
X154275665Y-90142673D01*
X154269099Y-90111082D01*
X154272255Y-90089220D01*
X154281576Y-90074346D01*
X154301380Y-90061364D01*
X154323787Y-90062434D01*
X154345519Y-90077005D01*
X154363298Y-90104526D01*
X154363526Y-90105049D01*
X154372269Y-90124210D01*
X154386893Y-90155368D01*
X154405953Y-90195482D01*
X154428005Y-90241510D01*
X154451604Y-90290411D01*
X154460937Y-90309619D01*
X154485775Y-90359718D01*
X154505954Y-90398132D01*
X154523187Y-90427659D01*
X154539187Y-90451098D01*
X154555667Y-90471245D01*
X154574341Y-90490900D01*
X154609989Y-90522648D01*
X154653383Y-90552750D01*
X154696479Y-90574694D01*
X154736537Y-90587376D01*
X154770819Y-90589691D01*
X154796585Y-90580535D01*
X154796836Y-90580345D01*
X154807504Y-90564016D01*
X154816348Y-90535755D01*
X154822522Y-90500376D01*
X154825180Y-90462691D01*
X154823477Y-90427512D01*
X154813569Y-90368331D01*
X154790726Y-90285133D01*
X154756558Y-90202374D01*
X154709435Y-90115590D01*
X154699519Y-90098424D01*
X154683043Y-90066600D01*
X154671675Y-90040067D01*
X154667436Y-90023270D01*
X154671780Y-90005671D01*
X154689127Y-89989470D01*
X154716808Y-89983508D01*
X154717253Y-89983524D01*
X154731372Y-89990441D01*
X154753061Y-90008188D01*
X154779911Y-90034191D01*
X154809514Y-90065876D01*
X154839461Y-90100672D01*
X154867344Y-90136005D01*
X154890752Y-90169303D01*
X154926069Y-90217205D01*
X154974466Y-90266097D01*
X155033394Y-90309631D01*
X155106026Y-90350478D01*
X155143667Y-90368522D01*
X155198254Y-90391810D01*
X155249166Y-90410299D01*
X155294155Y-90423366D01*
X155330975Y-90430390D01*
X155357380Y-90430749D01*
X155371121Y-90423822D01*
X155369838Y-90420061D01*
X155358386Y-90407408D01*
X155337689Y-90388843D01*
X155310440Y-90366891D01*
X155302977Y-90361113D01*
X155263638Y-90329884D01*
X155222171Y-90295975D01*
X155186406Y-90265770D01*
X155170266Y-90252132D01*
X155136418Y-90224541D01*
X155095242Y-90191807D01*
X155050521Y-90156928D01*
X155006038Y-90122901D01*
X154979787Y-90102766D01*
X154917757Y-90052142D01*
X154870315Y-90008127D01*
X154837000Y-89970217D01*
X154817347Y-89937911D01*
X154810896Y-89910704D01*
X154812164Y-89895707D01*
X154822604Y-89875936D01*
X154846409Y-89862857D01*
X154859080Y-89864205D01*
X154884053Y-89872711D01*
X154918283Y-89887185D01*
X154959053Y-89906301D01*
X155003647Y-89928737D01*
X155049348Y-89953166D01*
X155093440Y-89978265D01*
X155133207Y-90002709D01*
X155160512Y-90020851D01*
X155272346Y-90106850D01*
X155379364Y-90208641D01*
X155407191Y-90238462D01*
X155434991Y-90271046D01*
X155454486Y-90298830D01*
X155468153Y-90325462D01*
X155478467Y-90354587D01*
X155492495Y-90384303D01*
X155512769Y-90406489D01*
X155524235Y-90414117D01*
X155534764Y-90418037D01*
X155533595Y-90410023D01*
X155520833Y-90389861D01*
X155519297Y-90387648D01*
X155505208Y-90366120D01*
X155484336Y-90332931D01*
X155458192Y-90290578D01*
X155456525Y-90287845D01*
X155555551Y-90287845D01*
X155557701Y-90295734D01*
X155559435Y-90298232D01*
X155567136Y-90304173D01*
X155568290Y-90303623D01*
X155566140Y-90295734D01*
X155564406Y-90293236D01*
X155556705Y-90287296D01*
X155555551Y-90287845D01*
X155456525Y-90287845D01*
X155428286Y-90241556D01*
X155396127Y-90188361D01*
X155363225Y-90133490D01*
X155331090Y-90079437D01*
X155301233Y-90028700D01*
X155275163Y-89983774D01*
X155271717Y-89977787D01*
X155217080Y-89884882D01*
X155156094Y-89784388D01*
X155092230Y-89681884D01*
X155028959Y-89582946D01*
X154969754Y-89493152D01*
X154968776Y-89491696D01*
X154937070Y-89443926D01*
X154902625Y-89391138D01*
X154869530Y-89339647D01*
X154841877Y-89295768D01*
X154821401Y-89263285D01*
X154788725Y-89212793D01*
X154755299Y-89162394D01*
X154725847Y-89119273D01*
X154703619Y-89085987D01*
X154684822Y-89054972D01*
X154672109Y-89030662D01*
X154667436Y-89016503D01*
X154673143Y-88994756D01*
X154688983Y-88977970D01*
X154709964Y-88971133D01*
X154731055Y-88977342D01*
X154734729Y-88980735D01*
X154741359Y-88988619D01*
X154751593Y-89002149D01*
X154766411Y-89022710D01*
X154786798Y-89051686D01*
X154813734Y-89090461D01*
X154848202Y-89140419D01*
X154891186Y-89202944D01*
X154906520Y-89225003D01*
X154936532Y-89267337D01*
X154971466Y-89315872D01*
X155008138Y-89366199D01*
X155043367Y-89413907D01*
X155066735Y-89445473D01*
X155122489Y-89522717D01*
X155172282Y-89595091D01*
X155219921Y-89668223D01*
X155269212Y-89747740D01*
X155294822Y-89788096D01*
X155330323Y-89840680D01*
X155371859Y-89899672D01*
X155417869Y-89963040D01*
X155466788Y-90028756D01*
X155517053Y-90094792D01*
X155567102Y-90159117D01*
X155615372Y-90219704D01*
X155660299Y-90274522D01*
X155685068Y-90303623D01*
X155700321Y-90321543D01*
X155733874Y-90358738D01*
X155759396Y-90384077D01*
X155792187Y-90412358D01*
X155835543Y-90447441D01*
X155880492Y-90481742D01*
X155924618Y-90513580D01*
X155965504Y-90541272D01*
X156000735Y-90563135D01*
X156027893Y-90577487D01*
X156044562Y-90582645D01*
X156056479Y-90578568D01*
X156072335Y-90565897D01*
X156081662Y-90545947D01*
X156083332Y-90513577D01*
X156076320Y-90473498D01*
X156060907Y-90429073D01*
X156054436Y-90416325D01*
X156035433Y-90386080D01*
X156008304Y-90347669D01*
X155975147Y-90303773D01*
X155938063Y-90257073D01*
X155899152Y-90210251D01*
X155860515Y-90165987D01*
X155824252Y-90126964D01*
X155812449Y-90114663D01*
X155743234Y-90036977D01*
X155689222Y-89965400D01*
X155650123Y-89899511D01*
X155625646Y-89838891D01*
X155621827Y-89825839D01*
X155614983Y-89798577D01*
X155613883Y-89780873D01*
X155618762Y-89768001D01*
X155629861Y-89755236D01*
X155650539Y-89743386D01*
X155674950Y-89747103D01*
X155701873Y-89767355D01*
X155702713Y-89768208D01*
X155747204Y-89814021D01*
X155793558Y-89862906D01*
X155839490Y-89912348D01*
X155882710Y-89959835D01*
X155920932Y-90002854D01*
X155951868Y-90038893D01*
X155973231Y-90065438D01*
X155985028Y-90082056D01*
X156011896Y-90125331D01*
X156039560Y-90176046D01*
X156064808Y-90228485D01*
X156075563Y-90252360D01*
X156097101Y-90297766D01*
X156116681Y-90333322D01*
X156137318Y-90363080D01*
X156162028Y-90391088D01*
X156193825Y-90421397D01*
X156235726Y-90458057D01*
X156273876Y-90490728D01*
X156321966Y-90531386D01*
X156359925Y-90562451D01*
X156389254Y-90584886D01*
X156411456Y-90599655D01*
X156428033Y-90607723D01*
X156440488Y-90610053D01*
X156450323Y-90607610D01*
X156459040Y-90601357D01*
X156469844Y-90590081D01*
X156491079Y-90552358D01*
X156498599Y-90508217D01*
X156498580Y-90506364D01*
X156493961Y-90471273D01*
X156481820Y-90423877D01*
X156463042Y-90366330D01*
X156438511Y-90300785D01*
X156409111Y-90229395D01*
X156381604Y-90167532D01*
X156485027Y-90167532D01*
X156486022Y-90174202D01*
X156490374Y-90186033D01*
X156500063Y-90208062D01*
X156523575Y-90253458D01*
X156553267Y-90304390D01*
X156586223Y-90356157D01*
X156619522Y-90404063D01*
X156650248Y-90443409D01*
X156661565Y-90456470D01*
X156694316Y-90492603D01*
X156730825Y-90531167D01*
X156765090Y-90565768D01*
X156771567Y-90572099D01*
X156797737Y-90597262D01*
X156814251Y-90611828D01*
X156822945Y-90616977D01*
X156825657Y-90613888D01*
X156824223Y-90603741D01*
X156819974Y-90590280D01*
X156809329Y-90563363D01*
X156794397Y-90529050D01*
X156776972Y-90491599D01*
X156766565Y-90470173D01*
X156753533Y-90444943D01*
X156740528Y-90423112D01*
X156725531Y-90402153D01*
X156706524Y-90379533D01*
X156681487Y-90352724D01*
X156648402Y-90319195D01*
X156605249Y-90276416D01*
X156575460Y-90247041D01*
X156540361Y-90212715D01*
X156515055Y-90188614D01*
X156498256Y-90173724D01*
X156488676Y-90167035D01*
X156485027Y-90167532D01*
X156381604Y-90167532D01*
X156375726Y-90154312D01*
X156339240Y-90077691D01*
X156300538Y-90001683D01*
X156260502Y-89928441D01*
X156246692Y-89902216D01*
X156229322Y-89864461D01*
X156216604Y-89831398D01*
X156210656Y-89814008D01*
X156197683Y-89779755D01*
X156185517Y-89751449D01*
X156177954Y-89734674D01*
X156170755Y-89711206D01*
X156172638Y-89694090D01*
X156183461Y-89678276D01*
X156200508Y-89666683D01*
X156229803Y-89664234D01*
X156266132Y-89675874D01*
X156272884Y-89679443D01*
X156302369Y-89700440D01*
X156337749Y-89731972D01*
X156376379Y-89771246D01*
X156415616Y-89815465D01*
X156452814Y-89861835D01*
X156485330Y-89907562D01*
X156507022Y-89939722D01*
X156537160Y-89982563D01*
X156566432Y-90022425D01*
X156590763Y-90053663D01*
X156591094Y-90054066D01*
X156636490Y-90110005D01*
X156672704Y-90155881D01*
X156701652Y-90194322D01*
X156725248Y-90227953D01*
X156745406Y-90259401D01*
X156764044Y-90291292D01*
X156781040Y-90319545D01*
X156832174Y-90387649D01*
X156891248Y-90446353D01*
X156954718Y-90491930D01*
X156977491Y-90504231D01*
X157011842Y-90518360D01*
X157039257Y-90523980D01*
X157057412Y-90520742D01*
X157063981Y-90508298D01*
X157059639Y-90485601D01*
X157139927Y-90485601D01*
X157144147Y-90489821D01*
X157148366Y-90485601D01*
X157144147Y-90481382D01*
X157139927Y-90485601D01*
X157059639Y-90485601D01*
X157059465Y-90484690D01*
X157046727Y-90449836D01*
X157027016Y-90406503D01*
X157001583Y-90357439D01*
X156971677Y-90305391D01*
X156940079Y-90253804D01*
X156883396Y-90164242D01*
X156820964Y-90068581D01*
X156755584Y-89970984D01*
X156690057Y-89875614D01*
X156627186Y-89786636D01*
X156569773Y-89708211D01*
X156559917Y-89694994D01*
X156516157Y-89635265D01*
X156467580Y-89567591D01*
X156417692Y-89496929D01*
X156369995Y-89428231D01*
X156327997Y-89366451D01*
X156305068Y-89332358D01*
X156268917Y-89279034D01*
X156234139Y-89228212D01*
X156202725Y-89182782D01*
X156176666Y-89145634D01*
X156157952Y-89119656D01*
X156151093Y-89110342D01*
X156117905Y-89064106D01*
X156085733Y-89017528D01*
X156056068Y-88972935D01*
X156030399Y-88932657D01*
X156010219Y-88899020D01*
X155997018Y-88874352D01*
X155992286Y-88860980D01*
X155997247Y-88843730D01*
X156013425Y-88826252D01*
X156034608Y-88818990D01*
X156036406Y-88819220D01*
X156051111Y-88828685D01*
X156072575Y-88850915D01*
X156099295Y-88884389D01*
X156113768Y-88903526D01*
X156141356Y-88939405D01*
X156174473Y-88981997D01*
X156210167Y-89027508D01*
X156245486Y-89072146D01*
X156269623Y-89103064D01*
X156311791Y-89158968D01*
X156356442Y-89220014D01*
X156399569Y-89280700D01*
X156437167Y-89335518D01*
X156461759Y-89371862D01*
X156501914Y-89429980D01*
X156543983Y-89489689D01*
X156584261Y-89545742D01*
X156619041Y-89592894D01*
X156655035Y-89640888D01*
X156685828Y-89682479D01*
X156711548Y-89718199D01*
X156734479Y-89751444D01*
X156756903Y-89785612D01*
X156781100Y-89824098D01*
X156809355Y-89870299D01*
X156843950Y-89927613D01*
X156861165Y-89956118D01*
X156887400Y-89998941D01*
X156911399Y-90036932D01*
X156934965Y-90072681D01*
X156959905Y-90108775D01*
X156988024Y-90147804D01*
X157021127Y-90192358D01*
X157061021Y-90245024D01*
X157109511Y-90308392D01*
X157145565Y-90354125D01*
X157187579Y-90404763D01*
X157229737Y-90453135D01*
X157259487Y-90485601D01*
X157270292Y-90497393D01*
X157307500Y-90535690D01*
X157339617Y-90566180D01*
X157364895Y-90587015D01*
X157381592Y-90596349D01*
X157400920Y-90597038D01*
X157416140Y-90585047D01*
X157423529Y-90558789D01*
X157423335Y-90517798D01*
X157423057Y-90514683D01*
X157417527Y-90482172D01*
X157406316Y-90442179D01*
X157388945Y-90393527D01*
X157364934Y-90335040D01*
X157333801Y-90265540D01*
X157300102Y-90194472D01*
X157398225Y-90194472D01*
X157405997Y-90208414D01*
X157425368Y-90238844D01*
X157452327Y-90278345D01*
X157485085Y-90324450D01*
X157521856Y-90374694D01*
X157560850Y-90426613D01*
X157600281Y-90477739D01*
X157638359Y-90525608D01*
X157649849Y-90538973D01*
X157668410Y-90557214D01*
X157683102Y-90567815D01*
X157691431Y-90569160D01*
X157690902Y-90559634D01*
X157689596Y-90556293D01*
X157672126Y-90522575D01*
X157643439Y-90478919D01*
X157604526Y-90426743D01*
X157556380Y-90367462D01*
X157520487Y-90325176D01*
X157485488Y-90284755D01*
X157454519Y-90249799D01*
X157428944Y-90221800D01*
X157410127Y-90202252D01*
X157399433Y-90192645D01*
X157398225Y-90194472D01*
X157300102Y-90194472D01*
X157295066Y-90183851D01*
X157248250Y-90088795D01*
X157235362Y-90062907D01*
X157207201Y-90005385D01*
X157185771Y-89959730D01*
X157170165Y-89923779D01*
X157159477Y-89895368D01*
X157152798Y-89872335D01*
X157149224Y-89852516D01*
X157145687Y-89831647D01*
X157136183Y-89795746D01*
X157124603Y-89766552D01*
X157113676Y-89743914D01*
X157107382Y-89722543D01*
X157110433Y-89707006D01*
X157122710Y-89692687D01*
X157124855Y-89690823D01*
X157140801Y-89682333D01*
X157158185Y-89683952D01*
X157178838Y-89696759D01*
X157204590Y-89721834D01*
X157237270Y-89760257D01*
X157245451Y-89770360D01*
X157275331Y-89807104D01*
X157310903Y-89850681D01*
X157348396Y-89896474D01*
X157384037Y-89939869D01*
X157405958Y-89966549D01*
X157442431Y-90011375D01*
X157473152Y-90050170D01*
X157499867Y-90085532D01*
X157524321Y-90120057D01*
X157548259Y-90156343D01*
X157573426Y-90196986D01*
X157601567Y-90244583D01*
X157634428Y-90301733D01*
X157673752Y-90371031D01*
X157685885Y-90389755D01*
X157713844Y-90419942D01*
X157753918Y-90450322D01*
X157759922Y-90454307D01*
X157789087Y-90472613D01*
X157814203Y-90486814D01*
X157830389Y-90494116D01*
X157849987Y-90499784D01*
X157835511Y-90471597D01*
X157833216Y-90467419D01*
X157821248Y-90447581D01*
X157802081Y-90417149D01*
X157777315Y-90378619D01*
X157748549Y-90334488D01*
X157717384Y-90287250D01*
X157716745Y-90286287D01*
X157680903Y-90231018D01*
X157643545Y-90171287D01*
X157607449Y-90111682D01*
X157575394Y-90056788D01*
X157550158Y-90011190D01*
X157546508Y-90004348D01*
X157516414Y-89950034D01*
X157481898Y-89890612D01*
X157446942Y-89832820D01*
X157415529Y-89783395D01*
X157394206Y-89750291D01*
X157359566Y-89693768D01*
X157321460Y-89628415D01*
X157279292Y-89553147D01*
X157232468Y-89466878D01*
X157180394Y-89368523D01*
X157122474Y-89256997D01*
X157058113Y-89131216D01*
X157025147Y-89066189D01*
X156989268Y-88994518D01*
X156960431Y-88935300D01*
X156938168Y-88887144D01*
X156922008Y-88848658D01*
X156911480Y-88818450D01*
X156906113Y-88795127D01*
X156905438Y-88777298D01*
X156908983Y-88763570D01*
X156916279Y-88752553D01*
X156926854Y-88742852D01*
X156947657Y-88731611D01*
X156983403Y-88728319D01*
X157025949Y-88739796D01*
X157074862Y-88765845D01*
X157129706Y-88806273D01*
X157190047Y-88860884D01*
X157251733Y-88923759D01*
X157341323Y-89024191D01*
X157430684Y-89135492D01*
X157520619Y-89258777D01*
X157611931Y-89395162D01*
X157705421Y-89545763D01*
X157801894Y-89711695D01*
X157801898Y-89711703D01*
X157821220Y-89745124D01*
X157837593Y-89771944D01*
X157849286Y-89789433D01*
X157854574Y-89794864D01*
X157854671Y-89793890D01*
X157850509Y-89781750D01*
X157840282Y-89758242D01*
X157825268Y-89726213D01*
X157806749Y-89688512D01*
X157747398Y-89563436D01*
X157692560Y-89432006D01*
X157648114Y-89306436D01*
X157614520Y-89188169D01*
X157592235Y-89078650D01*
X157581717Y-88979322D01*
X157581131Y-88965249D01*
X157581258Y-88914126D01*
X157586305Y-88876672D01*
X157597099Y-88850654D01*
X157614466Y-88833840D01*
X157639232Y-88823997D01*
X157648892Y-88821932D01*
X157668011Y-88821195D01*
X157689082Y-88826765D01*
X157718327Y-88839893D01*
X157720330Y-88840891D01*
X157756502Y-88863323D01*
X157797986Y-88895566D01*
X157840611Y-88933886D01*
X157880207Y-88974550D01*
X157912603Y-89013825D01*
X157919754Y-89024141D01*
X157941913Y-89060859D01*
X157968601Y-89110323D01*
X157998838Y-89170319D01*
X158031645Y-89238634D01*
X158066041Y-89313053D01*
X158101047Y-89391363D01*
X158135682Y-89471350D01*
X158168967Y-89550800D01*
X158199921Y-89627499D01*
X158227565Y-89699234D01*
X158250919Y-89763792D01*
X158269003Y-89818957D01*
X158275715Y-89842068D01*
X158286794Y-89882145D01*
X158300722Y-89933903D01*
X158316832Y-89994809D01*
X158334455Y-90062336D01*
X158352922Y-90133953D01*
X158371566Y-90207130D01*
X158396579Y-90305141D01*
X158420710Y-90397585D01*
X158442056Y-90476626D01*
X158461100Y-90543860D01*
X158478326Y-90600884D01*
X158494218Y-90649293D01*
X158509259Y-90690684D01*
X158523933Y-90726652D01*
X158538724Y-90758795D01*
X158550631Y-90782488D01*
X158573915Y-90825288D01*
X158596636Y-90862997D01*
X158617125Y-90893076D01*
X158633717Y-90912985D01*
X158644741Y-90920186D01*
X158648990Y-90918505D01*
X158660518Y-90905693D01*
X158672350Y-90884404D01*
X158675664Y-90876525D01*
X158680443Y-90861571D01*
X158683826Y-90843406D01*
X158686017Y-90819297D01*
X158687225Y-90786514D01*
X158687656Y-90742322D01*
X158687517Y-90683989D01*
X158686863Y-90629211D01*
X158682009Y-90504037D01*
X158671985Y-90389307D01*
X158656097Y-90280823D01*
X158633651Y-90174387D01*
X158603952Y-90065800D01*
X158566307Y-89950864D01*
X158555364Y-89919288D01*
X158539506Y-89871223D01*
X158529486Y-89836159D01*
X158525046Y-89812348D01*
X158525928Y-89798041D01*
X158531871Y-89791489D01*
X158542617Y-89790945D01*
X158547706Y-89792413D01*
X158555645Y-89798762D01*
X158564282Y-89812016D01*
X158574772Y-89834455D01*
X158588268Y-89868357D01*
X158605922Y-89916000D01*
X158635199Y-90000511D01*
X158674968Y-90135095D01*
X158705064Y-90268156D01*
X158726238Y-90403954D01*
X158739246Y-90546744D01*
X158744841Y-90700784D01*
X158744865Y-90702633D01*
X158744575Y-90774448D01*
X158741389Y-90831746D01*
X158734858Y-90876662D01*
X158724536Y-90911330D01*
X158709973Y-90937885D01*
X158690721Y-90958461D01*
X158670746Y-90971894D01*
X158643499Y-90978726D01*
X158615751Y-90971739D01*
X158586846Y-90950407D01*
X158556126Y-90914204D01*
X158522935Y-90862605D01*
X158486618Y-90795084D01*
X158478538Y-90778205D01*
X158461286Y-90738615D01*
X158443202Y-90693533D01*
X158427087Y-90649798D01*
X158425019Y-90643834D01*
X158417668Y-90622142D01*
X158410408Y-90599686D01*
X158402815Y-90574905D01*
X158394465Y-90546242D01*
X158384934Y-90512135D01*
X158373798Y-90471027D01*
X158360634Y-90421356D01*
X158345016Y-90361564D01*
X158326522Y-90290092D01*
X158304727Y-90205379D01*
X158279207Y-90105867D01*
X158266557Y-90056896D01*
X158244251Y-89973251D01*
X158223002Y-89898177D01*
X158201756Y-89828704D01*
X158179458Y-89761865D01*
X158155053Y-89694690D01*
X158127485Y-89624212D01*
X158095700Y-89547463D01*
X158058642Y-89461474D01*
X158015257Y-89363276D01*
X157973510Y-89271479D01*
X157935612Y-89192868D01*
X157900960Y-89127004D01*
X157868424Y-89072271D01*
X157836878Y-89027053D01*
X157805191Y-88989736D01*
X157772236Y-88958703D01*
X157736884Y-88932339D01*
X157698008Y-88909028D01*
X157655194Y-88885726D01*
X157649676Y-88907711D01*
X157647551Y-88922414D01*
X157647729Y-88958198D01*
X157652148Y-89005109D01*
X157660260Y-89060038D01*
X157671514Y-89119875D01*
X157685361Y-89181509D01*
X157701250Y-89241832D01*
X157718632Y-89297734D01*
X157742500Y-89364037D01*
X157780619Y-89460095D01*
X157823864Y-89560056D01*
X157869811Y-89658141D01*
X157873346Y-89665438D01*
X157897626Y-89717855D01*
X157924088Y-89778168D01*
X157937635Y-89810518D01*
X157944703Y-89827395D01*
G37*
D13*
%TO.C,C8*%
X162939000Y-93009767D02*
X162939000Y-92717233D01*
X163959000Y-93009767D02*
X163959000Y-92717233D01*
%TO.C,R11*%
X141895776Y-97394500D02*
X142405224Y-97394500D01*
X141895776Y-98439500D02*
X142405224Y-98439500D01*
%TO.C,U2*%
X143700000Y-65431000D02*
X143700000Y-65531000D01*
X143700000Y-81631000D02*
X143700000Y-65531000D01*
X144900000Y-65431000D02*
X143700000Y-65431000D01*
X144900000Y-81631000D02*
X143700000Y-81631000D01*
X159900000Y-65431000D02*
X161100000Y-65431000D01*
X159900000Y-81631000D02*
X161100000Y-81631000D01*
X161100000Y-65431000D02*
X161100000Y-65531000D01*
X161100000Y-81531000D02*
X161100000Y-65531000D01*
X161100000Y-81631000D02*
X161100000Y-81531000D01*
X160330000Y-82371000D02*
X160000000Y-82131000D01*
X160330000Y-81891000D01*
X160330000Y-82371000D01*
G36*
X160330000Y-82371000D02*
G01*
X160000000Y-82131000D01*
X160330000Y-81891000D01*
X160330000Y-82371000D01*
G37*
%TO.C,R12*%
X141895776Y-95362500D02*
X142405224Y-95362500D01*
X141895776Y-96407500D02*
X142405224Y-96407500D01*
%TO.C,R9*%
X166472776Y-89520500D02*
X166982224Y-89520500D01*
X166472776Y-90565500D02*
X166982224Y-90565500D01*
%TD*%
M02*
