%TF.GenerationSoftware,KiCad,Pcbnew,8.0.6*%
%TF.CreationDate,2025-04-07T18:27:51-05:00*%
%TF.ProjectId,Smart_MoCo,536d6172-745f-44d6-9f43-6f2e6b696361,rev?*%
%TF.SameCoordinates,Original*%
%TF.FileFunction,Drillmap*%
%TF.FilePolarity,Positive*%
%FSLAX45Y45*%
G04 Gerber Fmt 4.5, Leading zero omitted, Abs format (unit mm)*
G04 Created by KiCad (PCBNEW 8.0.6) date 2025-04-07 18:27:51*
%MOMM*%
%LPD*%
G01*
G04 APERTURE LIST*
%ADD10C,0.100000*%
%ADD11C,0.200000*%
G04 APERTURE END LIST*
D10*
X13589000Y-6045200D02*
G75*
G02*
X14008100Y-5626100I419100J0D01*
G01*
X16941800Y-10515600D02*
G75*
G02*
X16522700Y-10934700I-419100J0D01*
G01*
X16522700Y-10934700D02*
X14008100Y-10934700D01*
X13589000Y-10515600D02*
X13589000Y-6045200D01*
X16941800Y-6045200D02*
X16941800Y-10515600D01*
X14008100Y-5626100D02*
X16522700Y-5626100D01*
X16522700Y-5626100D02*
G75*
G02*
X16941800Y-6045200I0J-419100D01*
G01*
X14008100Y-10934700D02*
G75*
G02*
X13589000Y-10515600I0J419100D01*
G01*
D11*
D10*
X14106000Y-9979900D02*
X14136000Y-10009900D01*
X14136000Y-9979900D02*
X14106000Y-10009900D01*
X14108800Y-9573500D02*
X14138800Y-9603500D01*
X14138800Y-9573500D02*
X14108800Y-9603500D01*
X14108800Y-9776700D02*
X14138800Y-9806700D01*
X14138800Y-9776700D02*
X14108800Y-9806700D01*
X14646293Y-9943220D02*
X14676293Y-9973220D01*
X14676293Y-9943220D02*
X14646293Y-9973220D01*
X14669320Y-9862480D02*
X14699320Y-9892480D01*
X14699320Y-9862480D02*
X14669320Y-9892480D01*
X14862478Y-10164800D02*
X14892478Y-10194800D01*
X14892478Y-10164800D02*
X14862478Y-10194800D01*
X14951450Y-9834480D02*
X14981450Y-9864480D01*
X14981450Y-9834480D02*
X14951450Y-9864480D01*
X15025000Y-8250600D02*
X15055000Y-8280600D01*
X15055000Y-8250600D02*
X15025000Y-8280600D01*
X15125000Y-8250600D02*
X15155000Y-8280600D01*
X15155000Y-8250600D02*
X15125000Y-8280600D01*
X15148800Y-9817150D02*
X15178800Y-9847150D01*
X15178800Y-9817150D02*
X15148800Y-9847150D01*
X15199600Y-9395700D02*
X15229600Y-9425700D01*
X15229600Y-9395700D02*
X15199600Y-9425700D01*
X15225000Y-8250600D02*
X15255000Y-8280600D01*
X15255000Y-8250600D02*
X15225000Y-8280600D01*
X15237700Y-8368420D02*
X15267700Y-8398420D01*
X15267700Y-8368420D02*
X15237700Y-8398420D01*
X15262526Y-9999143D02*
X15292526Y-10029143D01*
X15292526Y-9999143D02*
X15262526Y-10029143D01*
X15334721Y-10034345D02*
X15364721Y-10064345D01*
X15364721Y-10034345D02*
X15334721Y-10064345D01*
X15352000Y-9535400D02*
X15382000Y-9565400D01*
X15382000Y-9535400D02*
X15352000Y-9565400D01*
X15352000Y-9813850D02*
X15382000Y-9843850D01*
X15382000Y-9813850D02*
X15352000Y-9843850D01*
X15504400Y-8379700D02*
X15534400Y-8409700D01*
X15534400Y-8379700D02*
X15504400Y-8409700D01*
X15525000Y-8250600D02*
X15555000Y-8280600D01*
X15555000Y-8250600D02*
X15525000Y-8280600D01*
X15612922Y-10164800D02*
X15642922Y-10194800D01*
X15642922Y-10164800D02*
X15612922Y-10194800D01*
X16285300Y-9573500D02*
X16315300Y-9603500D01*
X16315300Y-9573500D02*
X16285300Y-9603500D01*
X16329900Y-9185100D02*
X16359900Y-9215100D01*
X16359900Y-9185100D02*
X16329900Y-9215100D01*
X13863002Y-9664700D02*
G75*
G02*
X13822997Y-9664700I-20003J0D01*
G01*
X13822997Y-9664700D02*
G75*
G02*
X13863002Y-9664700I20003J0D01*
G01*
X13863002Y-9842500D02*
G75*
G02*
X13822997Y-9842500I-20003J0D01*
G01*
X13822997Y-9842500D02*
G75*
G02*
X13863002Y-9842500I20003J0D01*
G01*
X14561502Y-7467600D02*
G75*
G02*
X14521497Y-7467600I-20003J0D01*
G01*
X14521497Y-7467600D02*
G75*
G02*
X14561502Y-7467600I20003J0D01*
G01*
X14561502Y-7620000D02*
G75*
G02*
X14521497Y-7620000I-20003J0D01*
G01*
X14521497Y-7620000D02*
G75*
G02*
X14561502Y-7620000I20003J0D01*
G01*
X14561502Y-7772400D02*
G75*
G02*
X14521497Y-7772400I-20003J0D01*
G01*
X14521497Y-7772400D02*
G75*
G02*
X14561502Y-7772400I20003J0D01*
G01*
X14561502Y-7924800D02*
G75*
G02*
X14521497Y-7924800I-20003J0D01*
G01*
X14521497Y-7924800D02*
G75*
G02*
X14561502Y-7924800I20003J0D01*
G01*
X14650402Y-6692900D02*
G75*
G02*
X14610397Y-6692900I-20003J0D01*
G01*
X14610397Y-6692900D02*
G75*
G02*
X14650402Y-6692900I20003J0D01*
G01*
X14752002Y-6616700D02*
G75*
G02*
X14711997Y-6616700I-20003J0D01*
G01*
X14711997Y-6616700D02*
G75*
G02*
X14752002Y-6616700I20003J0D01*
G01*
X14840902Y-6692900D02*
G75*
G02*
X14800897Y-6692900I-20003J0D01*
G01*
X14800897Y-6692900D02*
G75*
G02*
X14840902Y-6692900I20003J0D01*
G01*
X14904402Y-8026400D02*
G75*
G02*
X14864397Y-8026400I-20003J0D01*
G01*
X14864397Y-8026400D02*
G75*
G02*
X14904402Y-8026400I20003J0D01*
G01*
X14942502Y-6616700D02*
G75*
G02*
X14902497Y-6616700I-20003J0D01*
G01*
X14902497Y-6616700D02*
G75*
G02*
X14942502Y-6616700I20003J0D01*
G01*
X15044102Y-6692900D02*
G75*
G02*
X15004097Y-6692900I-20003J0D01*
G01*
X15004097Y-6692900D02*
G75*
G02*
X15044102Y-6692900I20003J0D01*
G01*
X15158402Y-8026400D02*
G75*
G02*
X15118397Y-8026400I-20003J0D01*
G01*
X15118397Y-8026400D02*
G75*
G02*
X15158402Y-8026400I20003J0D01*
G01*
X15260002Y-6705600D02*
G75*
G02*
X15219997Y-6705600I-20003J0D01*
G01*
X15219997Y-6705600D02*
G75*
G02*
X15260002Y-6705600I20003J0D01*
G01*
X15260002Y-7061200D02*
G75*
G02*
X15219997Y-7061200I-20003J0D01*
G01*
X15219997Y-7061200D02*
G75*
G02*
X15260002Y-7061200I20003J0D01*
G01*
X15310802Y-10261600D02*
G75*
G02*
X15270797Y-10261600I-20003J0D01*
G01*
X15270797Y-10261600D02*
G75*
G02*
X15310802Y-10261600I20003J0D01*
G01*
X15310802Y-10464800D02*
G75*
G02*
X15270797Y-10464800I-20003J0D01*
G01*
X15270797Y-10464800D02*
G75*
G02*
X15310802Y-10464800I20003J0D01*
G01*
X15336202Y-10706100D02*
G75*
G02*
X15296197Y-10706100I-20003J0D01*
G01*
X15296197Y-10706100D02*
G75*
G02*
X15336202Y-10706100I20003J0D01*
G01*
X15412402Y-8026400D02*
G75*
G02*
X15372397Y-8026400I-20003J0D01*
G01*
X15372397Y-8026400D02*
G75*
G02*
X15412402Y-8026400I20003J0D01*
G01*
X15501302Y-6705600D02*
G75*
G02*
X15461297Y-6705600I-20003J0D01*
G01*
X15461297Y-6705600D02*
G75*
G02*
X15501302Y-6705600I20003J0D01*
G01*
X15602902Y-6616700D02*
G75*
G02*
X15562897Y-6616700I-20003J0D01*
G01*
X15562897Y-6616700D02*
G75*
G02*
X15602902Y-6616700I20003J0D01*
G01*
X15666402Y-8026400D02*
G75*
G02*
X15626397Y-8026400I-20003J0D01*
G01*
X15626397Y-8026400D02*
G75*
G02*
X15666402Y-8026400I20003J0D01*
G01*
X15691802Y-6705600D02*
G75*
G02*
X15651797Y-6705600I-20003J0D01*
G01*
X15651797Y-6705600D02*
G75*
G02*
X15691802Y-6705600I20003J0D01*
G01*
X15806102Y-6616700D02*
G75*
G02*
X15766097Y-6616700I-20003J0D01*
G01*
X15766097Y-6616700D02*
G75*
G02*
X15806102Y-6616700I20003J0D01*
G01*
X15895002Y-6705600D02*
G75*
G02*
X15854997Y-6705600I-20003J0D01*
G01*
X15854997Y-6705600D02*
G75*
G02*
X15895002Y-6705600I20003J0D01*
G01*
X15958502Y-7467600D02*
G75*
G02*
X15918497Y-7467600I-20003J0D01*
G01*
X15918497Y-7467600D02*
G75*
G02*
X15958502Y-7467600I20003J0D01*
G01*
X15958502Y-7620000D02*
G75*
G02*
X15918497Y-7620000I-20003J0D01*
G01*
X15918497Y-7620000D02*
G75*
G02*
X15958502Y-7620000I20003J0D01*
G01*
X15958502Y-7772400D02*
G75*
G02*
X15918497Y-7772400I-20003J0D01*
G01*
X15918497Y-7772400D02*
G75*
G02*
X15958502Y-7772400I20003J0D01*
G01*
X15958502Y-7924800D02*
G75*
G02*
X15918497Y-7924800I-20003J0D01*
G01*
X15918497Y-7924800D02*
G75*
G02*
X15958502Y-7924800I20003J0D01*
G01*
X15996602Y-9499600D02*
G75*
G02*
X15956597Y-9499600I-20003J0D01*
G01*
X15956597Y-9499600D02*
G75*
G02*
X15996602Y-9499600I20003J0D01*
G01*
X15996602Y-9791700D02*
G75*
G02*
X15956597Y-9791700I-20003J0D01*
G01*
X15956597Y-9791700D02*
G75*
G02*
X15996602Y-9791700I20003J0D01*
G01*
X16555402Y-9918700D02*
G75*
G02*
X16515397Y-9918700I-20003J0D01*
G01*
X16515397Y-9918700D02*
G75*
G02*
X16555402Y-9918700I20003J0D01*
G01*
X16771302Y-9753600D02*
G75*
G02*
X16731297Y-9753600I-20003J0D01*
G01*
X16731297Y-9753600D02*
G75*
G02*
X16771302Y-9753600I20003J0D01*
G01*
X15067800Y-8469000D02*
X15067800Y-8549000D01*
X15027800Y-8509000D02*
X15107800Y-8509000D01*
X15417800Y-8469000D02*
X15417800Y-8549000D01*
X15377800Y-8509000D02*
X15457800Y-8509000D01*
X14039920Y-6762820D02*
X14039920Y-6699180D01*
X13976280Y-6699180D01*
X13976280Y-6762820D01*
X14039920Y-6762820D01*
X14039920Y-7016820D02*
X14039920Y-6953180D01*
X13976280Y-6953180D01*
X13976280Y-7016820D01*
X14039920Y-7016820D01*
X14039920Y-7270820D02*
X14039920Y-7207180D01*
X13976280Y-7207180D01*
X13976280Y-7270820D01*
X14039920Y-7270820D01*
X14039920Y-7524820D02*
X14039920Y-7461180D01*
X13976280Y-7461180D01*
X13976280Y-7524820D01*
X14039920Y-7524820D01*
X14039920Y-8109020D02*
X14039920Y-8045380D01*
X13976280Y-8045380D01*
X13976280Y-8109020D01*
X14039920Y-8109020D01*
X14039920Y-8363020D02*
X14039920Y-8299380D01*
X13976280Y-8299380D01*
X13976280Y-8363020D01*
X14039920Y-8363020D01*
X14039920Y-8947220D02*
X14039920Y-8883580D01*
X13976280Y-8883580D01*
X13976280Y-8947220D01*
X14039920Y-8947220D01*
X14039920Y-9201220D02*
X14039920Y-9137580D01*
X13976280Y-9137580D01*
X13976280Y-9201220D01*
X14039920Y-9201220D01*
X16706920Y-8464620D02*
X16706920Y-8400980D01*
X16643280Y-8400980D01*
X16643280Y-8464620D01*
X16706920Y-8464620D01*
X16706920Y-8718620D02*
X16706920Y-8654980D01*
X16643280Y-8654980D01*
X16643280Y-8718620D01*
X16706920Y-8718620D01*
X16706920Y-9340920D02*
X16706920Y-9277280D01*
X16643280Y-9277280D01*
X16643280Y-9340920D01*
X16706920Y-9340920D01*
X16706920Y-9594920D02*
X16706920Y-9531280D01*
X16643280Y-9531280D01*
X16643280Y-9594920D01*
X16706920Y-9594920D01*
X16306800Y-6844500D02*
X16356800Y-6794500D01*
X16306800Y-6744500D01*
X16256800Y-6794500D01*
X16306800Y-6844500D01*
X16306800Y-7098500D02*
X16356800Y-7048500D01*
X16306800Y-6998500D01*
X16256800Y-7048500D01*
X16306800Y-7098500D01*
X16306800Y-7352500D02*
X16356800Y-7302500D01*
X16306800Y-7252500D01*
X16256800Y-7302500D01*
X16306800Y-7352500D01*
X16306800Y-7606500D02*
X16356800Y-7556500D01*
X16306800Y-7506500D01*
X16256800Y-7556500D01*
X16306800Y-7606500D01*
X16306800Y-7860500D02*
X16356800Y-7810500D01*
X16306800Y-7760500D01*
X16256800Y-7810500D01*
X16306800Y-7860500D01*
X16662400Y-6844500D02*
X16712400Y-6794500D01*
X16662400Y-6744500D01*
X16612400Y-6794500D01*
X16662400Y-6844500D01*
X16662400Y-7098500D02*
X16712400Y-7048500D01*
X16662400Y-6998500D01*
X16612400Y-7048500D01*
X16662400Y-7098500D01*
X16662400Y-7352500D02*
X16712400Y-7302500D01*
X16662400Y-7252500D01*
X16612400Y-7302500D01*
X16662400Y-7352500D01*
X16662400Y-7606500D02*
X16712400Y-7556500D01*
X16662400Y-7506500D01*
X16612400Y-7556500D01*
X16662400Y-7606500D01*
D11*
X14749195Y-5911731D02*
X14949195Y-6111731D01*
X14949195Y-5911731D02*
X14749195Y-6111731D01*
X14949195Y-6011731D02*
G75*
G02*
X14749195Y-6011731I-100000J0D01*
G01*
X14749195Y-6011731D02*
G75*
G02*
X14949195Y-6011731I100000J0D01*
G01*
D10*
X14744195Y-6111731D02*
X14954195Y-6111731D01*
X14954195Y-5911731D02*
G75*
G02*
X14954195Y-6111731I0J-100000D01*
G01*
X14954195Y-5911731D02*
X14744195Y-5911731D01*
X14744195Y-5911731D02*
G75*
G03*
X14744195Y-6111731I0J-100000D01*
G01*
D11*
X14766380Y-9158200D02*
X14966380Y-9358200D01*
X14966380Y-9158200D02*
X14766380Y-9358200D01*
X14966380Y-9258200D02*
G75*
G02*
X14766380Y-9258200I-100000J0D01*
G01*
X14766380Y-9258200D02*
G75*
G02*
X14966380Y-9258200I100000J0D01*
G01*
D10*
X14971380Y-9158200D02*
X14761380Y-9158200D01*
X14761380Y-9358200D02*
G75*
G02*
X14761380Y-9158200I0J100000D01*
G01*
X14761380Y-9358200D02*
X14971380Y-9358200D01*
X14971380Y-9358200D02*
G75*
G03*
X14971380Y-9158200I0J100000D01*
G01*
D11*
X15539195Y-5911731D02*
X15739195Y-6111731D01*
X15739195Y-5911731D02*
X15539195Y-6111731D01*
X15739195Y-6011731D02*
G75*
G02*
X15539195Y-6011731I-100000J0D01*
G01*
X15539195Y-6011731D02*
G75*
G02*
X15739195Y-6011731I100000J0D01*
G01*
D10*
X15534195Y-6111731D02*
X15744195Y-6111731D01*
X15744195Y-5911731D02*
G75*
G02*
X15744195Y-6111731I0J-100000D01*
G01*
X15744195Y-5911731D02*
X15534195Y-5911731D01*
X15534195Y-5911731D02*
G75*
G03*
X15534195Y-6111731I0J-100000D01*
G01*
D11*
X15556380Y-9158200D02*
X15756380Y-9358200D01*
X15756380Y-9158200D02*
X15556380Y-9358200D01*
X15756380Y-9258200D02*
G75*
G02*
X15556380Y-9258200I-100000J0D01*
G01*
X15556380Y-9258200D02*
G75*
G02*
X15756380Y-9258200I100000J0D01*
G01*
D10*
X15761380Y-9158200D02*
X15551380Y-9158200D01*
X15551380Y-9358200D02*
G75*
G02*
X15551380Y-9158200I0J100000D01*
G01*
X15551380Y-9358200D02*
X15761380Y-9358200D01*
X15761380Y-9358200D02*
G75*
G03*
X15761380Y-9158200I0J100000D01*
G01*
D11*
X13844777Y-11251184D02*
X13844777Y-11051184D01*
X13844777Y-11051184D02*
X13892396Y-11051184D01*
X13892396Y-11051184D02*
X13920967Y-11060708D01*
X13920967Y-11060708D02*
X13940015Y-11079755D01*
X13940015Y-11079755D02*
X13949539Y-11098803D01*
X13949539Y-11098803D02*
X13959062Y-11136898D01*
X13959062Y-11136898D02*
X13959062Y-11165470D01*
X13959062Y-11165470D02*
X13949539Y-11203565D01*
X13949539Y-11203565D02*
X13940015Y-11222612D01*
X13940015Y-11222612D02*
X13920967Y-11241660D01*
X13920967Y-11241660D02*
X13892396Y-11251184D01*
X13892396Y-11251184D02*
X13844777Y-11251184D01*
X14044777Y-11251184D02*
X14044777Y-11117850D01*
X14044777Y-11155946D02*
X14054301Y-11136898D01*
X14054301Y-11136898D02*
X14063824Y-11127374D01*
X14063824Y-11127374D02*
X14082872Y-11117850D01*
X14082872Y-11117850D02*
X14101920Y-11117850D01*
X14168586Y-11251184D02*
X14168586Y-11117850D01*
X14168586Y-11051184D02*
X14159062Y-11060708D01*
X14159062Y-11060708D02*
X14168586Y-11070231D01*
X14168586Y-11070231D02*
X14178110Y-11060708D01*
X14178110Y-11060708D02*
X14168586Y-11051184D01*
X14168586Y-11051184D02*
X14168586Y-11070231D01*
X14292396Y-11251184D02*
X14273348Y-11241660D01*
X14273348Y-11241660D02*
X14263824Y-11222612D01*
X14263824Y-11222612D02*
X14263824Y-11051184D01*
X14397158Y-11251184D02*
X14378110Y-11241660D01*
X14378110Y-11241660D02*
X14368586Y-11222612D01*
X14368586Y-11222612D02*
X14368586Y-11051184D01*
X14625729Y-11251184D02*
X14625729Y-11051184D01*
X14625729Y-11051184D02*
X14692396Y-11194041D01*
X14692396Y-11194041D02*
X14759062Y-11051184D01*
X14759062Y-11051184D02*
X14759062Y-11251184D01*
X14940015Y-11251184D02*
X14940015Y-11146422D01*
X14940015Y-11146422D02*
X14930491Y-11127374D01*
X14930491Y-11127374D02*
X14911443Y-11117850D01*
X14911443Y-11117850D02*
X14873348Y-11117850D01*
X14873348Y-11117850D02*
X14854301Y-11127374D01*
X14940015Y-11241660D02*
X14920967Y-11251184D01*
X14920967Y-11251184D02*
X14873348Y-11251184D01*
X14873348Y-11251184D02*
X14854301Y-11241660D01*
X14854301Y-11241660D02*
X14844777Y-11222612D01*
X14844777Y-11222612D02*
X14844777Y-11203565D01*
X14844777Y-11203565D02*
X14854301Y-11184517D01*
X14854301Y-11184517D02*
X14873348Y-11174993D01*
X14873348Y-11174993D02*
X14920967Y-11174993D01*
X14920967Y-11174993D02*
X14940015Y-11165470D01*
X15035253Y-11117850D02*
X15035253Y-11317850D01*
X15035253Y-11127374D02*
X15054301Y-11117850D01*
X15054301Y-11117850D02*
X15092396Y-11117850D01*
X15092396Y-11117850D02*
X15111443Y-11127374D01*
X15111443Y-11127374D02*
X15120967Y-11136898D01*
X15120967Y-11136898D02*
X15130491Y-11155946D01*
X15130491Y-11155946D02*
X15130491Y-11213088D01*
X15130491Y-11213088D02*
X15120967Y-11232136D01*
X15120967Y-11232136D02*
X15111443Y-11241660D01*
X15111443Y-11241660D02*
X15092396Y-11251184D01*
X15092396Y-11251184D02*
X15054301Y-11251184D01*
X15054301Y-11251184D02*
X15035253Y-11241660D01*
X15216205Y-11232136D02*
X15225729Y-11241660D01*
X15225729Y-11241660D02*
X15216205Y-11251184D01*
X15216205Y-11251184D02*
X15206682Y-11241660D01*
X15206682Y-11241660D02*
X15216205Y-11232136D01*
X15216205Y-11232136D02*
X15216205Y-11251184D01*
X15216205Y-11127374D02*
X15225729Y-11136898D01*
X15225729Y-11136898D02*
X15216205Y-11146422D01*
X15216205Y-11146422D02*
X15206682Y-11136898D01*
X15206682Y-11136898D02*
X15216205Y-11127374D01*
X15216205Y-11127374D02*
X15216205Y-11146422D01*
D10*
X13554000Y-11564700D02*
X13584000Y-11594700D01*
X13584000Y-11564700D02*
X13554000Y-11594700D01*
D11*
X13882872Y-11471184D02*
X13901920Y-11471184D01*
X13901920Y-11471184D02*
X13920967Y-11480708D01*
X13920967Y-11480708D02*
X13930491Y-11490231D01*
X13930491Y-11490231D02*
X13940015Y-11509279D01*
X13940015Y-11509279D02*
X13949539Y-11547374D01*
X13949539Y-11547374D02*
X13949539Y-11594993D01*
X13949539Y-11594993D02*
X13940015Y-11633088D01*
X13940015Y-11633088D02*
X13930491Y-11652136D01*
X13930491Y-11652136D02*
X13920967Y-11661660D01*
X13920967Y-11661660D02*
X13901920Y-11671184D01*
X13901920Y-11671184D02*
X13882872Y-11671184D01*
X13882872Y-11671184D02*
X13863824Y-11661660D01*
X13863824Y-11661660D02*
X13854301Y-11652136D01*
X13854301Y-11652136D02*
X13844777Y-11633088D01*
X13844777Y-11633088D02*
X13835253Y-11594993D01*
X13835253Y-11594993D02*
X13835253Y-11547374D01*
X13835253Y-11547374D02*
X13844777Y-11509279D01*
X13844777Y-11509279D02*
X13854301Y-11490231D01*
X13854301Y-11490231D02*
X13863824Y-11480708D01*
X13863824Y-11480708D02*
X13882872Y-11471184D01*
X14035253Y-11652136D02*
X14044777Y-11661660D01*
X14044777Y-11661660D02*
X14035253Y-11671184D01*
X14035253Y-11671184D02*
X14025729Y-11661660D01*
X14025729Y-11661660D02*
X14035253Y-11652136D01*
X14035253Y-11652136D02*
X14035253Y-11671184D01*
X14111443Y-11471184D02*
X14235253Y-11471184D01*
X14235253Y-11471184D02*
X14168586Y-11547374D01*
X14168586Y-11547374D02*
X14197158Y-11547374D01*
X14197158Y-11547374D02*
X14216205Y-11556898D01*
X14216205Y-11556898D02*
X14225729Y-11566422D01*
X14225729Y-11566422D02*
X14235253Y-11585469D01*
X14235253Y-11585469D02*
X14235253Y-11633088D01*
X14235253Y-11633088D02*
X14225729Y-11652136D01*
X14225729Y-11652136D02*
X14216205Y-11661660D01*
X14216205Y-11661660D02*
X14197158Y-11671184D01*
X14197158Y-11671184D02*
X14140015Y-11671184D01*
X14140015Y-11671184D02*
X14120967Y-11661660D01*
X14120967Y-11661660D02*
X14111443Y-11652136D01*
X14359062Y-11471184D02*
X14378110Y-11471184D01*
X14378110Y-11471184D02*
X14397158Y-11480708D01*
X14397158Y-11480708D02*
X14406682Y-11490231D01*
X14406682Y-11490231D02*
X14416205Y-11509279D01*
X14416205Y-11509279D02*
X14425729Y-11547374D01*
X14425729Y-11547374D02*
X14425729Y-11594993D01*
X14425729Y-11594993D02*
X14416205Y-11633088D01*
X14416205Y-11633088D02*
X14406682Y-11652136D01*
X14406682Y-11652136D02*
X14397158Y-11661660D01*
X14397158Y-11661660D02*
X14378110Y-11671184D01*
X14378110Y-11671184D02*
X14359062Y-11671184D01*
X14359062Y-11671184D02*
X14340015Y-11661660D01*
X14340015Y-11661660D02*
X14330491Y-11652136D01*
X14330491Y-11652136D02*
X14320967Y-11633088D01*
X14320967Y-11633088D02*
X14311443Y-11594993D01*
X14311443Y-11594993D02*
X14311443Y-11547374D01*
X14311443Y-11547374D02*
X14320967Y-11509279D01*
X14320967Y-11509279D02*
X14330491Y-11490231D01*
X14330491Y-11490231D02*
X14340015Y-11480708D01*
X14340015Y-11480708D02*
X14359062Y-11471184D01*
X14549539Y-11471184D02*
X14568586Y-11471184D01*
X14568586Y-11471184D02*
X14587634Y-11480708D01*
X14587634Y-11480708D02*
X14597158Y-11490231D01*
X14597158Y-11490231D02*
X14606682Y-11509279D01*
X14606682Y-11509279D02*
X14616205Y-11547374D01*
X14616205Y-11547374D02*
X14616205Y-11594993D01*
X14616205Y-11594993D02*
X14606682Y-11633088D01*
X14606682Y-11633088D02*
X14597158Y-11652136D01*
X14597158Y-11652136D02*
X14587634Y-11661660D01*
X14587634Y-11661660D02*
X14568586Y-11671184D01*
X14568586Y-11671184D02*
X14549539Y-11671184D01*
X14549539Y-11671184D02*
X14530491Y-11661660D01*
X14530491Y-11661660D02*
X14520967Y-11652136D01*
X14520967Y-11652136D02*
X14511443Y-11633088D01*
X14511443Y-11633088D02*
X14501920Y-11594993D01*
X14501920Y-11594993D02*
X14501920Y-11547374D01*
X14501920Y-11547374D02*
X14511443Y-11509279D01*
X14511443Y-11509279D02*
X14520967Y-11490231D01*
X14520967Y-11490231D02*
X14530491Y-11480708D01*
X14530491Y-11480708D02*
X14549539Y-11471184D01*
X14701920Y-11671184D02*
X14701920Y-11537850D01*
X14701920Y-11556898D02*
X14711443Y-11547374D01*
X14711443Y-11547374D02*
X14730491Y-11537850D01*
X14730491Y-11537850D02*
X14759063Y-11537850D01*
X14759063Y-11537850D02*
X14778110Y-11547374D01*
X14778110Y-11547374D02*
X14787634Y-11566422D01*
X14787634Y-11566422D02*
X14787634Y-11671184D01*
X14787634Y-11566422D02*
X14797158Y-11547374D01*
X14797158Y-11547374D02*
X14816205Y-11537850D01*
X14816205Y-11537850D02*
X14844777Y-11537850D01*
X14844777Y-11537850D02*
X14863824Y-11547374D01*
X14863824Y-11547374D02*
X14873348Y-11566422D01*
X14873348Y-11566422D02*
X14873348Y-11671184D01*
X14968586Y-11671184D02*
X14968586Y-11537850D01*
X14968586Y-11556898D02*
X14978110Y-11547374D01*
X14978110Y-11547374D02*
X14997158Y-11537850D01*
X14997158Y-11537850D02*
X15025729Y-11537850D01*
X15025729Y-11537850D02*
X15044777Y-11547374D01*
X15044777Y-11547374D02*
X15054301Y-11566422D01*
X15054301Y-11566422D02*
X15054301Y-11671184D01*
X15054301Y-11566422D02*
X15063824Y-11547374D01*
X15063824Y-11547374D02*
X15082872Y-11537850D01*
X15082872Y-11537850D02*
X15111443Y-11537850D01*
X15111443Y-11537850D02*
X15130491Y-11547374D01*
X15130491Y-11547374D02*
X15140015Y-11566422D01*
X15140015Y-11566422D02*
X15140015Y-11671184D01*
X15530491Y-11461660D02*
X15359063Y-11718803D01*
X15787634Y-11471184D02*
X15806682Y-11471184D01*
X15806682Y-11471184D02*
X15825729Y-11480708D01*
X15825729Y-11480708D02*
X15835253Y-11490231D01*
X15835253Y-11490231D02*
X15844777Y-11509279D01*
X15844777Y-11509279D02*
X15854301Y-11547374D01*
X15854301Y-11547374D02*
X15854301Y-11594993D01*
X15854301Y-11594993D02*
X15844777Y-11633088D01*
X15844777Y-11633088D02*
X15835253Y-11652136D01*
X15835253Y-11652136D02*
X15825729Y-11661660D01*
X15825729Y-11661660D02*
X15806682Y-11671184D01*
X15806682Y-11671184D02*
X15787634Y-11671184D01*
X15787634Y-11671184D02*
X15768586Y-11661660D01*
X15768586Y-11661660D02*
X15759063Y-11652136D01*
X15759063Y-11652136D02*
X15749539Y-11633088D01*
X15749539Y-11633088D02*
X15740015Y-11594993D01*
X15740015Y-11594993D02*
X15740015Y-11547374D01*
X15740015Y-11547374D02*
X15749539Y-11509279D01*
X15749539Y-11509279D02*
X15759063Y-11490231D01*
X15759063Y-11490231D02*
X15768586Y-11480708D01*
X15768586Y-11480708D02*
X15787634Y-11471184D01*
X15940015Y-11652136D02*
X15949539Y-11661660D01*
X15949539Y-11661660D02*
X15940015Y-11671184D01*
X15940015Y-11671184D02*
X15930491Y-11661660D01*
X15930491Y-11661660D02*
X15940015Y-11652136D01*
X15940015Y-11652136D02*
X15940015Y-11671184D01*
X16073348Y-11471184D02*
X16092396Y-11471184D01*
X16092396Y-11471184D02*
X16111444Y-11480708D01*
X16111444Y-11480708D02*
X16120967Y-11490231D01*
X16120967Y-11490231D02*
X16130491Y-11509279D01*
X16130491Y-11509279D02*
X16140015Y-11547374D01*
X16140015Y-11547374D02*
X16140015Y-11594993D01*
X16140015Y-11594993D02*
X16130491Y-11633088D01*
X16130491Y-11633088D02*
X16120967Y-11652136D01*
X16120967Y-11652136D02*
X16111444Y-11661660D01*
X16111444Y-11661660D02*
X16092396Y-11671184D01*
X16092396Y-11671184D02*
X16073348Y-11671184D01*
X16073348Y-11671184D02*
X16054301Y-11661660D01*
X16054301Y-11661660D02*
X16044777Y-11652136D01*
X16044777Y-11652136D02*
X16035253Y-11633088D01*
X16035253Y-11633088D02*
X16025729Y-11594993D01*
X16025729Y-11594993D02*
X16025729Y-11547374D01*
X16025729Y-11547374D02*
X16035253Y-11509279D01*
X16035253Y-11509279D02*
X16044777Y-11490231D01*
X16044777Y-11490231D02*
X16054301Y-11480708D01*
X16054301Y-11480708D02*
X16073348Y-11471184D01*
X16330491Y-11671184D02*
X16216206Y-11671184D01*
X16273348Y-11671184D02*
X16273348Y-11471184D01*
X16273348Y-11471184D02*
X16254301Y-11499755D01*
X16254301Y-11499755D02*
X16235253Y-11518803D01*
X16235253Y-11518803D02*
X16216206Y-11528327D01*
X16520967Y-11671184D02*
X16406682Y-11671184D01*
X16463825Y-11671184D02*
X16463825Y-11471184D01*
X16463825Y-11471184D02*
X16444777Y-11499755D01*
X16444777Y-11499755D02*
X16425729Y-11518803D01*
X16425729Y-11518803D02*
X16406682Y-11528327D01*
X16635253Y-11556898D02*
X16616206Y-11547374D01*
X16616206Y-11547374D02*
X16606682Y-11537850D01*
X16606682Y-11537850D02*
X16597158Y-11518803D01*
X16597158Y-11518803D02*
X16597158Y-11509279D01*
X16597158Y-11509279D02*
X16606682Y-11490231D01*
X16606682Y-11490231D02*
X16616206Y-11480708D01*
X16616206Y-11480708D02*
X16635253Y-11471184D01*
X16635253Y-11471184D02*
X16673348Y-11471184D01*
X16673348Y-11471184D02*
X16692396Y-11480708D01*
X16692396Y-11480708D02*
X16701920Y-11490231D01*
X16701920Y-11490231D02*
X16711444Y-11509279D01*
X16711444Y-11509279D02*
X16711444Y-11518803D01*
X16711444Y-11518803D02*
X16701920Y-11537850D01*
X16701920Y-11537850D02*
X16692396Y-11547374D01*
X16692396Y-11547374D02*
X16673348Y-11556898D01*
X16673348Y-11556898D02*
X16635253Y-11556898D01*
X16635253Y-11556898D02*
X16616206Y-11566422D01*
X16616206Y-11566422D02*
X16606682Y-11575946D01*
X16606682Y-11575946D02*
X16597158Y-11594993D01*
X16597158Y-11594993D02*
X16597158Y-11633088D01*
X16597158Y-11633088D02*
X16606682Y-11652136D01*
X16606682Y-11652136D02*
X16616206Y-11661660D01*
X16616206Y-11661660D02*
X16635253Y-11671184D01*
X16635253Y-11671184D02*
X16673348Y-11671184D01*
X16673348Y-11671184D02*
X16692396Y-11661660D01*
X16692396Y-11661660D02*
X16701920Y-11652136D01*
X16701920Y-11652136D02*
X16711444Y-11633088D01*
X16711444Y-11633088D02*
X16711444Y-11594993D01*
X16711444Y-11594993D02*
X16701920Y-11575946D01*
X16701920Y-11575946D02*
X16692396Y-11566422D01*
X16692396Y-11566422D02*
X16673348Y-11556898D01*
X16787634Y-11471184D02*
X16787634Y-11509279D01*
X16863825Y-11471184D02*
X16863825Y-11509279D01*
X17159063Y-11747374D02*
X17149539Y-11737850D01*
X17149539Y-11737850D02*
X17130491Y-11709279D01*
X17130491Y-11709279D02*
X17120968Y-11690231D01*
X17120968Y-11690231D02*
X17111444Y-11661660D01*
X17111444Y-11661660D02*
X17101920Y-11614041D01*
X17101920Y-11614041D02*
X17101920Y-11575946D01*
X17101920Y-11575946D02*
X17111444Y-11528327D01*
X17111444Y-11528327D02*
X17120968Y-11499755D01*
X17120968Y-11499755D02*
X17130491Y-11480708D01*
X17130491Y-11480708D02*
X17149539Y-11452136D01*
X17149539Y-11452136D02*
X17159063Y-11442612D01*
X17225730Y-11490231D02*
X17235253Y-11480708D01*
X17235253Y-11480708D02*
X17254301Y-11471184D01*
X17254301Y-11471184D02*
X17301920Y-11471184D01*
X17301920Y-11471184D02*
X17320968Y-11480708D01*
X17320968Y-11480708D02*
X17330491Y-11490231D01*
X17330491Y-11490231D02*
X17340015Y-11509279D01*
X17340015Y-11509279D02*
X17340015Y-11528327D01*
X17340015Y-11528327D02*
X17330491Y-11556898D01*
X17330491Y-11556898D02*
X17216206Y-11671184D01*
X17216206Y-11671184D02*
X17340015Y-11671184D01*
X17416206Y-11490231D02*
X17425730Y-11480708D01*
X17425730Y-11480708D02*
X17444777Y-11471184D01*
X17444777Y-11471184D02*
X17492396Y-11471184D01*
X17492396Y-11471184D02*
X17511444Y-11480708D01*
X17511444Y-11480708D02*
X17520968Y-11490231D01*
X17520968Y-11490231D02*
X17530491Y-11509279D01*
X17530491Y-11509279D02*
X17530491Y-11528327D01*
X17530491Y-11528327D02*
X17520968Y-11556898D01*
X17520968Y-11556898D02*
X17406682Y-11671184D01*
X17406682Y-11671184D02*
X17530491Y-11671184D01*
X17768587Y-11671184D02*
X17768587Y-11471184D01*
X17854301Y-11671184D02*
X17854301Y-11566422D01*
X17854301Y-11566422D02*
X17844777Y-11547374D01*
X17844777Y-11547374D02*
X17825730Y-11537850D01*
X17825730Y-11537850D02*
X17797158Y-11537850D01*
X17797158Y-11537850D02*
X17778111Y-11547374D01*
X17778111Y-11547374D02*
X17768587Y-11556898D01*
X17978111Y-11671184D02*
X17959063Y-11661660D01*
X17959063Y-11661660D02*
X17949539Y-11652136D01*
X17949539Y-11652136D02*
X17940015Y-11633088D01*
X17940015Y-11633088D02*
X17940015Y-11575946D01*
X17940015Y-11575946D02*
X17949539Y-11556898D01*
X17949539Y-11556898D02*
X17959063Y-11547374D01*
X17959063Y-11547374D02*
X17978111Y-11537850D01*
X17978111Y-11537850D02*
X18006682Y-11537850D01*
X18006682Y-11537850D02*
X18025730Y-11547374D01*
X18025730Y-11547374D02*
X18035253Y-11556898D01*
X18035253Y-11556898D02*
X18044777Y-11575946D01*
X18044777Y-11575946D02*
X18044777Y-11633088D01*
X18044777Y-11633088D02*
X18035253Y-11652136D01*
X18035253Y-11652136D02*
X18025730Y-11661660D01*
X18025730Y-11661660D02*
X18006682Y-11671184D01*
X18006682Y-11671184D02*
X17978111Y-11671184D01*
X18159063Y-11671184D02*
X18140015Y-11661660D01*
X18140015Y-11661660D02*
X18130492Y-11642612D01*
X18130492Y-11642612D02*
X18130492Y-11471184D01*
X18311444Y-11661660D02*
X18292396Y-11671184D01*
X18292396Y-11671184D02*
X18254301Y-11671184D01*
X18254301Y-11671184D02*
X18235253Y-11661660D01*
X18235253Y-11661660D02*
X18225730Y-11642612D01*
X18225730Y-11642612D02*
X18225730Y-11566422D01*
X18225730Y-11566422D02*
X18235253Y-11547374D01*
X18235253Y-11547374D02*
X18254301Y-11537850D01*
X18254301Y-11537850D02*
X18292396Y-11537850D01*
X18292396Y-11537850D02*
X18311444Y-11547374D01*
X18311444Y-11547374D02*
X18320968Y-11566422D01*
X18320968Y-11566422D02*
X18320968Y-11585469D01*
X18320968Y-11585469D02*
X18225730Y-11604517D01*
X18397158Y-11661660D02*
X18416206Y-11671184D01*
X18416206Y-11671184D02*
X18454301Y-11671184D01*
X18454301Y-11671184D02*
X18473349Y-11661660D01*
X18473349Y-11661660D02*
X18482873Y-11642612D01*
X18482873Y-11642612D02*
X18482873Y-11633088D01*
X18482873Y-11633088D02*
X18473349Y-11614041D01*
X18473349Y-11614041D02*
X18454301Y-11604517D01*
X18454301Y-11604517D02*
X18425730Y-11604517D01*
X18425730Y-11604517D02*
X18406682Y-11594993D01*
X18406682Y-11594993D02*
X18397158Y-11575946D01*
X18397158Y-11575946D02*
X18397158Y-11566422D01*
X18397158Y-11566422D02*
X18406682Y-11547374D01*
X18406682Y-11547374D02*
X18425730Y-11537850D01*
X18425730Y-11537850D02*
X18454301Y-11537850D01*
X18454301Y-11537850D02*
X18473349Y-11547374D01*
X18549539Y-11747374D02*
X18559063Y-11737850D01*
X18559063Y-11737850D02*
X18578111Y-11709279D01*
X18578111Y-11709279D02*
X18587634Y-11690231D01*
X18587634Y-11690231D02*
X18597158Y-11661660D01*
X18597158Y-11661660D02*
X18606682Y-11614041D01*
X18606682Y-11614041D02*
X18606682Y-11575946D01*
X18606682Y-11575946D02*
X18597158Y-11528327D01*
X18597158Y-11528327D02*
X18587634Y-11499755D01*
X18587634Y-11499755D02*
X18578111Y-11480708D01*
X18578111Y-11480708D02*
X18559063Y-11452136D01*
X18559063Y-11452136D02*
X18549539Y-11442612D01*
D10*
X13584000Y-11843700D02*
G75*
G02*
X13543995Y-11843700I-20003J0D01*
G01*
X13543995Y-11843700D02*
G75*
G02*
X13584000Y-11843700I20003J0D01*
G01*
D11*
X13882872Y-11735184D02*
X13901920Y-11735184D01*
X13901920Y-11735184D02*
X13920967Y-11744708D01*
X13920967Y-11744708D02*
X13930491Y-11754231D01*
X13930491Y-11754231D02*
X13940015Y-11773279D01*
X13940015Y-11773279D02*
X13949539Y-11811374D01*
X13949539Y-11811374D02*
X13949539Y-11858993D01*
X13949539Y-11858993D02*
X13940015Y-11897088D01*
X13940015Y-11897088D02*
X13930491Y-11916136D01*
X13930491Y-11916136D02*
X13920967Y-11925660D01*
X13920967Y-11925660D02*
X13901920Y-11935184D01*
X13901920Y-11935184D02*
X13882872Y-11935184D01*
X13882872Y-11935184D02*
X13863824Y-11925660D01*
X13863824Y-11925660D02*
X13854301Y-11916136D01*
X13854301Y-11916136D02*
X13844777Y-11897088D01*
X13844777Y-11897088D02*
X13835253Y-11858993D01*
X13835253Y-11858993D02*
X13835253Y-11811374D01*
X13835253Y-11811374D02*
X13844777Y-11773279D01*
X13844777Y-11773279D02*
X13854301Y-11754231D01*
X13854301Y-11754231D02*
X13863824Y-11744708D01*
X13863824Y-11744708D02*
X13882872Y-11735184D01*
X14035253Y-11916136D02*
X14044777Y-11925660D01*
X14044777Y-11925660D02*
X14035253Y-11935184D01*
X14035253Y-11935184D02*
X14025729Y-11925660D01*
X14025729Y-11925660D02*
X14035253Y-11916136D01*
X14035253Y-11916136D02*
X14035253Y-11935184D01*
X14216205Y-11801850D02*
X14216205Y-11935184D01*
X14168586Y-11725660D02*
X14120967Y-11868517D01*
X14120967Y-11868517D02*
X14244777Y-11868517D01*
X14359062Y-11735184D02*
X14378110Y-11735184D01*
X14378110Y-11735184D02*
X14397158Y-11744708D01*
X14397158Y-11744708D02*
X14406682Y-11754231D01*
X14406682Y-11754231D02*
X14416205Y-11773279D01*
X14416205Y-11773279D02*
X14425729Y-11811374D01*
X14425729Y-11811374D02*
X14425729Y-11858993D01*
X14425729Y-11858993D02*
X14416205Y-11897088D01*
X14416205Y-11897088D02*
X14406682Y-11916136D01*
X14406682Y-11916136D02*
X14397158Y-11925660D01*
X14397158Y-11925660D02*
X14378110Y-11935184D01*
X14378110Y-11935184D02*
X14359062Y-11935184D01*
X14359062Y-11935184D02*
X14340015Y-11925660D01*
X14340015Y-11925660D02*
X14330491Y-11916136D01*
X14330491Y-11916136D02*
X14320967Y-11897088D01*
X14320967Y-11897088D02*
X14311443Y-11858993D01*
X14311443Y-11858993D02*
X14311443Y-11811374D01*
X14311443Y-11811374D02*
X14320967Y-11773279D01*
X14320967Y-11773279D02*
X14330491Y-11754231D01*
X14330491Y-11754231D02*
X14340015Y-11744708D01*
X14340015Y-11744708D02*
X14359062Y-11735184D01*
X14549539Y-11735184D02*
X14568586Y-11735184D01*
X14568586Y-11735184D02*
X14587634Y-11744708D01*
X14587634Y-11744708D02*
X14597158Y-11754231D01*
X14597158Y-11754231D02*
X14606682Y-11773279D01*
X14606682Y-11773279D02*
X14616205Y-11811374D01*
X14616205Y-11811374D02*
X14616205Y-11858993D01*
X14616205Y-11858993D02*
X14606682Y-11897088D01*
X14606682Y-11897088D02*
X14597158Y-11916136D01*
X14597158Y-11916136D02*
X14587634Y-11925660D01*
X14587634Y-11925660D02*
X14568586Y-11935184D01*
X14568586Y-11935184D02*
X14549539Y-11935184D01*
X14549539Y-11935184D02*
X14530491Y-11925660D01*
X14530491Y-11925660D02*
X14520967Y-11916136D01*
X14520967Y-11916136D02*
X14511443Y-11897088D01*
X14511443Y-11897088D02*
X14501920Y-11858993D01*
X14501920Y-11858993D02*
X14501920Y-11811374D01*
X14501920Y-11811374D02*
X14511443Y-11773279D01*
X14511443Y-11773279D02*
X14520967Y-11754231D01*
X14520967Y-11754231D02*
X14530491Y-11744708D01*
X14530491Y-11744708D02*
X14549539Y-11735184D01*
X14701920Y-11935184D02*
X14701920Y-11801850D01*
X14701920Y-11820898D02*
X14711443Y-11811374D01*
X14711443Y-11811374D02*
X14730491Y-11801850D01*
X14730491Y-11801850D02*
X14759063Y-11801850D01*
X14759063Y-11801850D02*
X14778110Y-11811374D01*
X14778110Y-11811374D02*
X14787634Y-11830422D01*
X14787634Y-11830422D02*
X14787634Y-11935184D01*
X14787634Y-11830422D02*
X14797158Y-11811374D01*
X14797158Y-11811374D02*
X14816205Y-11801850D01*
X14816205Y-11801850D02*
X14844777Y-11801850D01*
X14844777Y-11801850D02*
X14863824Y-11811374D01*
X14863824Y-11811374D02*
X14873348Y-11830422D01*
X14873348Y-11830422D02*
X14873348Y-11935184D01*
X14968586Y-11935184D02*
X14968586Y-11801850D01*
X14968586Y-11820898D02*
X14978110Y-11811374D01*
X14978110Y-11811374D02*
X14997158Y-11801850D01*
X14997158Y-11801850D02*
X15025729Y-11801850D01*
X15025729Y-11801850D02*
X15044777Y-11811374D01*
X15044777Y-11811374D02*
X15054301Y-11830422D01*
X15054301Y-11830422D02*
X15054301Y-11935184D01*
X15054301Y-11830422D02*
X15063824Y-11811374D01*
X15063824Y-11811374D02*
X15082872Y-11801850D01*
X15082872Y-11801850D02*
X15111443Y-11801850D01*
X15111443Y-11801850D02*
X15130491Y-11811374D01*
X15130491Y-11811374D02*
X15140015Y-11830422D01*
X15140015Y-11830422D02*
X15140015Y-11935184D01*
X15530491Y-11725660D02*
X15359063Y-11982803D01*
X15787634Y-11735184D02*
X15806682Y-11735184D01*
X15806682Y-11735184D02*
X15825729Y-11744708D01*
X15825729Y-11744708D02*
X15835253Y-11754231D01*
X15835253Y-11754231D02*
X15844777Y-11773279D01*
X15844777Y-11773279D02*
X15854301Y-11811374D01*
X15854301Y-11811374D02*
X15854301Y-11858993D01*
X15854301Y-11858993D02*
X15844777Y-11897088D01*
X15844777Y-11897088D02*
X15835253Y-11916136D01*
X15835253Y-11916136D02*
X15825729Y-11925660D01*
X15825729Y-11925660D02*
X15806682Y-11935184D01*
X15806682Y-11935184D02*
X15787634Y-11935184D01*
X15787634Y-11935184D02*
X15768586Y-11925660D01*
X15768586Y-11925660D02*
X15759063Y-11916136D01*
X15759063Y-11916136D02*
X15749539Y-11897088D01*
X15749539Y-11897088D02*
X15740015Y-11858993D01*
X15740015Y-11858993D02*
X15740015Y-11811374D01*
X15740015Y-11811374D02*
X15749539Y-11773279D01*
X15749539Y-11773279D02*
X15759063Y-11754231D01*
X15759063Y-11754231D02*
X15768586Y-11744708D01*
X15768586Y-11744708D02*
X15787634Y-11735184D01*
X15940015Y-11916136D02*
X15949539Y-11925660D01*
X15949539Y-11925660D02*
X15940015Y-11935184D01*
X15940015Y-11935184D02*
X15930491Y-11925660D01*
X15930491Y-11925660D02*
X15940015Y-11916136D01*
X15940015Y-11916136D02*
X15940015Y-11935184D01*
X16073348Y-11735184D02*
X16092396Y-11735184D01*
X16092396Y-11735184D02*
X16111444Y-11744708D01*
X16111444Y-11744708D02*
X16120967Y-11754231D01*
X16120967Y-11754231D02*
X16130491Y-11773279D01*
X16130491Y-11773279D02*
X16140015Y-11811374D01*
X16140015Y-11811374D02*
X16140015Y-11858993D01*
X16140015Y-11858993D02*
X16130491Y-11897088D01*
X16130491Y-11897088D02*
X16120967Y-11916136D01*
X16120967Y-11916136D02*
X16111444Y-11925660D01*
X16111444Y-11925660D02*
X16092396Y-11935184D01*
X16092396Y-11935184D02*
X16073348Y-11935184D01*
X16073348Y-11935184D02*
X16054301Y-11925660D01*
X16054301Y-11925660D02*
X16044777Y-11916136D01*
X16044777Y-11916136D02*
X16035253Y-11897088D01*
X16035253Y-11897088D02*
X16025729Y-11858993D01*
X16025729Y-11858993D02*
X16025729Y-11811374D01*
X16025729Y-11811374D02*
X16035253Y-11773279D01*
X16035253Y-11773279D02*
X16044777Y-11754231D01*
X16044777Y-11754231D02*
X16054301Y-11744708D01*
X16054301Y-11744708D02*
X16073348Y-11735184D01*
X16330491Y-11935184D02*
X16216206Y-11935184D01*
X16273348Y-11935184D02*
X16273348Y-11735184D01*
X16273348Y-11735184D02*
X16254301Y-11763755D01*
X16254301Y-11763755D02*
X16235253Y-11782803D01*
X16235253Y-11782803D02*
X16216206Y-11792327D01*
X16511444Y-11735184D02*
X16416206Y-11735184D01*
X16416206Y-11735184D02*
X16406682Y-11830422D01*
X16406682Y-11830422D02*
X16416206Y-11820898D01*
X16416206Y-11820898D02*
X16435253Y-11811374D01*
X16435253Y-11811374D02*
X16482872Y-11811374D01*
X16482872Y-11811374D02*
X16501920Y-11820898D01*
X16501920Y-11820898D02*
X16511444Y-11830422D01*
X16511444Y-11830422D02*
X16520967Y-11849469D01*
X16520967Y-11849469D02*
X16520967Y-11897088D01*
X16520967Y-11897088D02*
X16511444Y-11916136D01*
X16511444Y-11916136D02*
X16501920Y-11925660D01*
X16501920Y-11925660D02*
X16482872Y-11935184D01*
X16482872Y-11935184D02*
X16435253Y-11935184D01*
X16435253Y-11935184D02*
X16416206Y-11925660D01*
X16416206Y-11925660D02*
X16406682Y-11916136D01*
X16635253Y-11820898D02*
X16616206Y-11811374D01*
X16616206Y-11811374D02*
X16606682Y-11801850D01*
X16606682Y-11801850D02*
X16597158Y-11782803D01*
X16597158Y-11782803D02*
X16597158Y-11773279D01*
X16597158Y-11773279D02*
X16606682Y-11754231D01*
X16606682Y-11754231D02*
X16616206Y-11744708D01*
X16616206Y-11744708D02*
X16635253Y-11735184D01*
X16635253Y-11735184D02*
X16673348Y-11735184D01*
X16673348Y-11735184D02*
X16692396Y-11744708D01*
X16692396Y-11744708D02*
X16701920Y-11754231D01*
X16701920Y-11754231D02*
X16711444Y-11773279D01*
X16711444Y-11773279D02*
X16711444Y-11782803D01*
X16711444Y-11782803D02*
X16701920Y-11801850D01*
X16701920Y-11801850D02*
X16692396Y-11811374D01*
X16692396Y-11811374D02*
X16673348Y-11820898D01*
X16673348Y-11820898D02*
X16635253Y-11820898D01*
X16635253Y-11820898D02*
X16616206Y-11830422D01*
X16616206Y-11830422D02*
X16606682Y-11839946D01*
X16606682Y-11839946D02*
X16597158Y-11858993D01*
X16597158Y-11858993D02*
X16597158Y-11897088D01*
X16597158Y-11897088D02*
X16606682Y-11916136D01*
X16606682Y-11916136D02*
X16616206Y-11925660D01*
X16616206Y-11925660D02*
X16635253Y-11935184D01*
X16635253Y-11935184D02*
X16673348Y-11935184D01*
X16673348Y-11935184D02*
X16692396Y-11925660D01*
X16692396Y-11925660D02*
X16701920Y-11916136D01*
X16701920Y-11916136D02*
X16711444Y-11897088D01*
X16711444Y-11897088D02*
X16711444Y-11858993D01*
X16711444Y-11858993D02*
X16701920Y-11839946D01*
X16701920Y-11839946D02*
X16692396Y-11830422D01*
X16692396Y-11830422D02*
X16673348Y-11820898D01*
X16787634Y-11735184D02*
X16787634Y-11773279D01*
X16863825Y-11735184D02*
X16863825Y-11773279D01*
X17159063Y-12011374D02*
X17149539Y-12001850D01*
X17149539Y-12001850D02*
X17130491Y-11973279D01*
X17130491Y-11973279D02*
X17120968Y-11954231D01*
X17120968Y-11954231D02*
X17111444Y-11925660D01*
X17111444Y-11925660D02*
X17101920Y-11878041D01*
X17101920Y-11878041D02*
X17101920Y-11839946D01*
X17101920Y-11839946D02*
X17111444Y-11792327D01*
X17111444Y-11792327D02*
X17120968Y-11763755D01*
X17120968Y-11763755D02*
X17130491Y-11744708D01*
X17130491Y-11744708D02*
X17149539Y-11716136D01*
X17149539Y-11716136D02*
X17159063Y-11706612D01*
X17216206Y-11735184D02*
X17340015Y-11735184D01*
X17340015Y-11735184D02*
X17273349Y-11811374D01*
X17273349Y-11811374D02*
X17301920Y-11811374D01*
X17301920Y-11811374D02*
X17320968Y-11820898D01*
X17320968Y-11820898D02*
X17330491Y-11830422D01*
X17330491Y-11830422D02*
X17340015Y-11849469D01*
X17340015Y-11849469D02*
X17340015Y-11897088D01*
X17340015Y-11897088D02*
X17330491Y-11916136D01*
X17330491Y-11916136D02*
X17320968Y-11925660D01*
X17320968Y-11925660D02*
X17301920Y-11935184D01*
X17301920Y-11935184D02*
X17244777Y-11935184D01*
X17244777Y-11935184D02*
X17225730Y-11925660D01*
X17225730Y-11925660D02*
X17216206Y-11916136D01*
X17406682Y-11735184D02*
X17530491Y-11735184D01*
X17530491Y-11735184D02*
X17463825Y-11811374D01*
X17463825Y-11811374D02*
X17492396Y-11811374D01*
X17492396Y-11811374D02*
X17511444Y-11820898D01*
X17511444Y-11820898D02*
X17520968Y-11830422D01*
X17520968Y-11830422D02*
X17530491Y-11849469D01*
X17530491Y-11849469D02*
X17530491Y-11897088D01*
X17530491Y-11897088D02*
X17520968Y-11916136D01*
X17520968Y-11916136D02*
X17511444Y-11925660D01*
X17511444Y-11925660D02*
X17492396Y-11935184D01*
X17492396Y-11935184D02*
X17435253Y-11935184D01*
X17435253Y-11935184D02*
X17416206Y-11925660D01*
X17416206Y-11925660D02*
X17406682Y-11916136D01*
X17768587Y-11935184D02*
X17768587Y-11735184D01*
X17854301Y-11935184D02*
X17854301Y-11830422D01*
X17854301Y-11830422D02*
X17844777Y-11811374D01*
X17844777Y-11811374D02*
X17825730Y-11801850D01*
X17825730Y-11801850D02*
X17797158Y-11801850D01*
X17797158Y-11801850D02*
X17778111Y-11811374D01*
X17778111Y-11811374D02*
X17768587Y-11820898D01*
X17978111Y-11935184D02*
X17959063Y-11925660D01*
X17959063Y-11925660D02*
X17949539Y-11916136D01*
X17949539Y-11916136D02*
X17940015Y-11897088D01*
X17940015Y-11897088D02*
X17940015Y-11839946D01*
X17940015Y-11839946D02*
X17949539Y-11820898D01*
X17949539Y-11820898D02*
X17959063Y-11811374D01*
X17959063Y-11811374D02*
X17978111Y-11801850D01*
X17978111Y-11801850D02*
X18006682Y-11801850D01*
X18006682Y-11801850D02*
X18025730Y-11811374D01*
X18025730Y-11811374D02*
X18035253Y-11820898D01*
X18035253Y-11820898D02*
X18044777Y-11839946D01*
X18044777Y-11839946D02*
X18044777Y-11897088D01*
X18044777Y-11897088D02*
X18035253Y-11916136D01*
X18035253Y-11916136D02*
X18025730Y-11925660D01*
X18025730Y-11925660D02*
X18006682Y-11935184D01*
X18006682Y-11935184D02*
X17978111Y-11935184D01*
X18159063Y-11935184D02*
X18140015Y-11925660D01*
X18140015Y-11925660D02*
X18130492Y-11906612D01*
X18130492Y-11906612D02*
X18130492Y-11735184D01*
X18311444Y-11925660D02*
X18292396Y-11935184D01*
X18292396Y-11935184D02*
X18254301Y-11935184D01*
X18254301Y-11935184D02*
X18235253Y-11925660D01*
X18235253Y-11925660D02*
X18225730Y-11906612D01*
X18225730Y-11906612D02*
X18225730Y-11830422D01*
X18225730Y-11830422D02*
X18235253Y-11811374D01*
X18235253Y-11811374D02*
X18254301Y-11801850D01*
X18254301Y-11801850D02*
X18292396Y-11801850D01*
X18292396Y-11801850D02*
X18311444Y-11811374D01*
X18311444Y-11811374D02*
X18320968Y-11830422D01*
X18320968Y-11830422D02*
X18320968Y-11849469D01*
X18320968Y-11849469D02*
X18225730Y-11868517D01*
X18397158Y-11925660D02*
X18416206Y-11935184D01*
X18416206Y-11935184D02*
X18454301Y-11935184D01*
X18454301Y-11935184D02*
X18473349Y-11925660D01*
X18473349Y-11925660D02*
X18482873Y-11906612D01*
X18482873Y-11906612D02*
X18482873Y-11897088D01*
X18482873Y-11897088D02*
X18473349Y-11878041D01*
X18473349Y-11878041D02*
X18454301Y-11868517D01*
X18454301Y-11868517D02*
X18425730Y-11868517D01*
X18425730Y-11868517D02*
X18406682Y-11858993D01*
X18406682Y-11858993D02*
X18397158Y-11839946D01*
X18397158Y-11839946D02*
X18397158Y-11830422D01*
X18397158Y-11830422D02*
X18406682Y-11811374D01*
X18406682Y-11811374D02*
X18425730Y-11801850D01*
X18425730Y-11801850D02*
X18454301Y-11801850D01*
X18454301Y-11801850D02*
X18473349Y-11811374D01*
X18549539Y-12011374D02*
X18559063Y-12001850D01*
X18559063Y-12001850D02*
X18578111Y-11973279D01*
X18578111Y-11973279D02*
X18587634Y-11954231D01*
X18587634Y-11954231D02*
X18597158Y-11925660D01*
X18597158Y-11925660D02*
X18606682Y-11878041D01*
X18606682Y-11878041D02*
X18606682Y-11839946D01*
X18606682Y-11839946D02*
X18597158Y-11792327D01*
X18597158Y-11792327D02*
X18587634Y-11763755D01*
X18587634Y-11763755D02*
X18578111Y-11744708D01*
X18578111Y-11744708D02*
X18559063Y-11716136D01*
X18559063Y-11716136D02*
X18549539Y-11706612D01*
D10*
X13544000Y-12067700D02*
X13544000Y-12147700D01*
X13504000Y-12107700D02*
X13584000Y-12107700D01*
D11*
X13882872Y-11999184D02*
X13901920Y-11999184D01*
X13901920Y-11999184D02*
X13920967Y-12008708D01*
X13920967Y-12008708D02*
X13930491Y-12018231D01*
X13930491Y-12018231D02*
X13940015Y-12037279D01*
X13940015Y-12037279D02*
X13949539Y-12075374D01*
X13949539Y-12075374D02*
X13949539Y-12122993D01*
X13949539Y-12122993D02*
X13940015Y-12161088D01*
X13940015Y-12161088D02*
X13930491Y-12180136D01*
X13930491Y-12180136D02*
X13920967Y-12189660D01*
X13920967Y-12189660D02*
X13901920Y-12199184D01*
X13901920Y-12199184D02*
X13882872Y-12199184D01*
X13882872Y-12199184D02*
X13863824Y-12189660D01*
X13863824Y-12189660D02*
X13854301Y-12180136D01*
X13854301Y-12180136D02*
X13844777Y-12161088D01*
X13844777Y-12161088D02*
X13835253Y-12122993D01*
X13835253Y-12122993D02*
X13835253Y-12075374D01*
X13835253Y-12075374D02*
X13844777Y-12037279D01*
X13844777Y-12037279D02*
X13854301Y-12018231D01*
X13854301Y-12018231D02*
X13863824Y-12008708D01*
X13863824Y-12008708D02*
X13882872Y-11999184D01*
X14035253Y-12180136D02*
X14044777Y-12189660D01*
X14044777Y-12189660D02*
X14035253Y-12199184D01*
X14035253Y-12199184D02*
X14025729Y-12189660D01*
X14025729Y-12189660D02*
X14035253Y-12180136D01*
X14035253Y-12180136D02*
X14035253Y-12199184D01*
X14159062Y-12084898D02*
X14140015Y-12075374D01*
X14140015Y-12075374D02*
X14130491Y-12065850D01*
X14130491Y-12065850D02*
X14120967Y-12046803D01*
X14120967Y-12046803D02*
X14120967Y-12037279D01*
X14120967Y-12037279D02*
X14130491Y-12018231D01*
X14130491Y-12018231D02*
X14140015Y-12008708D01*
X14140015Y-12008708D02*
X14159062Y-11999184D01*
X14159062Y-11999184D02*
X14197158Y-11999184D01*
X14197158Y-11999184D02*
X14216205Y-12008708D01*
X14216205Y-12008708D02*
X14225729Y-12018231D01*
X14225729Y-12018231D02*
X14235253Y-12037279D01*
X14235253Y-12037279D02*
X14235253Y-12046803D01*
X14235253Y-12046803D02*
X14225729Y-12065850D01*
X14225729Y-12065850D02*
X14216205Y-12075374D01*
X14216205Y-12075374D02*
X14197158Y-12084898D01*
X14197158Y-12084898D02*
X14159062Y-12084898D01*
X14159062Y-12084898D02*
X14140015Y-12094422D01*
X14140015Y-12094422D02*
X14130491Y-12103946D01*
X14130491Y-12103946D02*
X14120967Y-12122993D01*
X14120967Y-12122993D02*
X14120967Y-12161088D01*
X14120967Y-12161088D02*
X14130491Y-12180136D01*
X14130491Y-12180136D02*
X14140015Y-12189660D01*
X14140015Y-12189660D02*
X14159062Y-12199184D01*
X14159062Y-12199184D02*
X14197158Y-12199184D01*
X14197158Y-12199184D02*
X14216205Y-12189660D01*
X14216205Y-12189660D02*
X14225729Y-12180136D01*
X14225729Y-12180136D02*
X14235253Y-12161088D01*
X14235253Y-12161088D02*
X14235253Y-12122993D01*
X14235253Y-12122993D02*
X14225729Y-12103946D01*
X14225729Y-12103946D02*
X14216205Y-12094422D01*
X14216205Y-12094422D02*
X14197158Y-12084898D01*
X14359062Y-11999184D02*
X14378110Y-11999184D01*
X14378110Y-11999184D02*
X14397158Y-12008708D01*
X14397158Y-12008708D02*
X14406682Y-12018231D01*
X14406682Y-12018231D02*
X14416205Y-12037279D01*
X14416205Y-12037279D02*
X14425729Y-12075374D01*
X14425729Y-12075374D02*
X14425729Y-12122993D01*
X14425729Y-12122993D02*
X14416205Y-12161088D01*
X14416205Y-12161088D02*
X14406682Y-12180136D01*
X14406682Y-12180136D02*
X14397158Y-12189660D01*
X14397158Y-12189660D02*
X14378110Y-12199184D01*
X14378110Y-12199184D02*
X14359062Y-12199184D01*
X14359062Y-12199184D02*
X14340015Y-12189660D01*
X14340015Y-12189660D02*
X14330491Y-12180136D01*
X14330491Y-12180136D02*
X14320967Y-12161088D01*
X14320967Y-12161088D02*
X14311443Y-12122993D01*
X14311443Y-12122993D02*
X14311443Y-12075374D01*
X14311443Y-12075374D02*
X14320967Y-12037279D01*
X14320967Y-12037279D02*
X14330491Y-12018231D01*
X14330491Y-12018231D02*
X14340015Y-12008708D01*
X14340015Y-12008708D02*
X14359062Y-11999184D01*
X14549539Y-11999184D02*
X14568586Y-11999184D01*
X14568586Y-11999184D02*
X14587634Y-12008708D01*
X14587634Y-12008708D02*
X14597158Y-12018231D01*
X14597158Y-12018231D02*
X14606682Y-12037279D01*
X14606682Y-12037279D02*
X14616205Y-12075374D01*
X14616205Y-12075374D02*
X14616205Y-12122993D01*
X14616205Y-12122993D02*
X14606682Y-12161088D01*
X14606682Y-12161088D02*
X14597158Y-12180136D01*
X14597158Y-12180136D02*
X14587634Y-12189660D01*
X14587634Y-12189660D02*
X14568586Y-12199184D01*
X14568586Y-12199184D02*
X14549539Y-12199184D01*
X14549539Y-12199184D02*
X14530491Y-12189660D01*
X14530491Y-12189660D02*
X14520967Y-12180136D01*
X14520967Y-12180136D02*
X14511443Y-12161088D01*
X14511443Y-12161088D02*
X14501920Y-12122993D01*
X14501920Y-12122993D02*
X14501920Y-12075374D01*
X14501920Y-12075374D02*
X14511443Y-12037279D01*
X14511443Y-12037279D02*
X14520967Y-12018231D01*
X14520967Y-12018231D02*
X14530491Y-12008708D01*
X14530491Y-12008708D02*
X14549539Y-11999184D01*
X14701920Y-12199184D02*
X14701920Y-12065850D01*
X14701920Y-12084898D02*
X14711443Y-12075374D01*
X14711443Y-12075374D02*
X14730491Y-12065850D01*
X14730491Y-12065850D02*
X14759063Y-12065850D01*
X14759063Y-12065850D02*
X14778110Y-12075374D01*
X14778110Y-12075374D02*
X14787634Y-12094422D01*
X14787634Y-12094422D02*
X14787634Y-12199184D01*
X14787634Y-12094422D02*
X14797158Y-12075374D01*
X14797158Y-12075374D02*
X14816205Y-12065850D01*
X14816205Y-12065850D02*
X14844777Y-12065850D01*
X14844777Y-12065850D02*
X14863824Y-12075374D01*
X14863824Y-12075374D02*
X14873348Y-12094422D01*
X14873348Y-12094422D02*
X14873348Y-12199184D01*
X14968586Y-12199184D02*
X14968586Y-12065850D01*
X14968586Y-12084898D02*
X14978110Y-12075374D01*
X14978110Y-12075374D02*
X14997158Y-12065850D01*
X14997158Y-12065850D02*
X15025729Y-12065850D01*
X15025729Y-12065850D02*
X15044777Y-12075374D01*
X15044777Y-12075374D02*
X15054301Y-12094422D01*
X15054301Y-12094422D02*
X15054301Y-12199184D01*
X15054301Y-12094422D02*
X15063824Y-12075374D01*
X15063824Y-12075374D02*
X15082872Y-12065850D01*
X15082872Y-12065850D02*
X15111443Y-12065850D01*
X15111443Y-12065850D02*
X15130491Y-12075374D01*
X15130491Y-12075374D02*
X15140015Y-12094422D01*
X15140015Y-12094422D02*
X15140015Y-12199184D01*
X15530491Y-11989660D02*
X15359063Y-12246803D01*
X15787634Y-11999184D02*
X15806682Y-11999184D01*
X15806682Y-11999184D02*
X15825729Y-12008708D01*
X15825729Y-12008708D02*
X15835253Y-12018231D01*
X15835253Y-12018231D02*
X15844777Y-12037279D01*
X15844777Y-12037279D02*
X15854301Y-12075374D01*
X15854301Y-12075374D02*
X15854301Y-12122993D01*
X15854301Y-12122993D02*
X15844777Y-12161088D01*
X15844777Y-12161088D02*
X15835253Y-12180136D01*
X15835253Y-12180136D02*
X15825729Y-12189660D01*
X15825729Y-12189660D02*
X15806682Y-12199184D01*
X15806682Y-12199184D02*
X15787634Y-12199184D01*
X15787634Y-12199184D02*
X15768586Y-12189660D01*
X15768586Y-12189660D02*
X15759063Y-12180136D01*
X15759063Y-12180136D02*
X15749539Y-12161088D01*
X15749539Y-12161088D02*
X15740015Y-12122993D01*
X15740015Y-12122993D02*
X15740015Y-12075374D01*
X15740015Y-12075374D02*
X15749539Y-12037279D01*
X15749539Y-12037279D02*
X15759063Y-12018231D01*
X15759063Y-12018231D02*
X15768586Y-12008708D01*
X15768586Y-12008708D02*
X15787634Y-11999184D01*
X15940015Y-12180136D02*
X15949539Y-12189660D01*
X15949539Y-12189660D02*
X15940015Y-12199184D01*
X15940015Y-12199184D02*
X15930491Y-12189660D01*
X15930491Y-12189660D02*
X15940015Y-12180136D01*
X15940015Y-12180136D02*
X15940015Y-12199184D01*
X16073348Y-11999184D02*
X16092396Y-11999184D01*
X16092396Y-11999184D02*
X16111444Y-12008708D01*
X16111444Y-12008708D02*
X16120967Y-12018231D01*
X16120967Y-12018231D02*
X16130491Y-12037279D01*
X16130491Y-12037279D02*
X16140015Y-12075374D01*
X16140015Y-12075374D02*
X16140015Y-12122993D01*
X16140015Y-12122993D02*
X16130491Y-12161088D01*
X16130491Y-12161088D02*
X16120967Y-12180136D01*
X16120967Y-12180136D02*
X16111444Y-12189660D01*
X16111444Y-12189660D02*
X16092396Y-12199184D01*
X16092396Y-12199184D02*
X16073348Y-12199184D01*
X16073348Y-12199184D02*
X16054301Y-12189660D01*
X16054301Y-12189660D02*
X16044777Y-12180136D01*
X16044777Y-12180136D02*
X16035253Y-12161088D01*
X16035253Y-12161088D02*
X16025729Y-12122993D01*
X16025729Y-12122993D02*
X16025729Y-12075374D01*
X16025729Y-12075374D02*
X16035253Y-12037279D01*
X16035253Y-12037279D02*
X16044777Y-12018231D01*
X16044777Y-12018231D02*
X16054301Y-12008708D01*
X16054301Y-12008708D02*
X16073348Y-11999184D01*
X16206682Y-11999184D02*
X16330491Y-11999184D01*
X16330491Y-11999184D02*
X16263825Y-12075374D01*
X16263825Y-12075374D02*
X16292396Y-12075374D01*
X16292396Y-12075374D02*
X16311444Y-12084898D01*
X16311444Y-12084898D02*
X16320967Y-12094422D01*
X16320967Y-12094422D02*
X16330491Y-12113469D01*
X16330491Y-12113469D02*
X16330491Y-12161088D01*
X16330491Y-12161088D02*
X16320967Y-12180136D01*
X16320967Y-12180136D02*
X16311444Y-12189660D01*
X16311444Y-12189660D02*
X16292396Y-12199184D01*
X16292396Y-12199184D02*
X16235253Y-12199184D01*
X16235253Y-12199184D02*
X16216206Y-12189660D01*
X16216206Y-12189660D02*
X16206682Y-12180136D01*
X16520967Y-12199184D02*
X16406682Y-12199184D01*
X16463825Y-12199184D02*
X16463825Y-11999184D01*
X16463825Y-11999184D02*
X16444777Y-12027755D01*
X16444777Y-12027755D02*
X16425729Y-12046803D01*
X16425729Y-12046803D02*
X16406682Y-12056327D01*
X16701920Y-11999184D02*
X16606682Y-11999184D01*
X16606682Y-11999184D02*
X16597158Y-12094422D01*
X16597158Y-12094422D02*
X16606682Y-12084898D01*
X16606682Y-12084898D02*
X16625729Y-12075374D01*
X16625729Y-12075374D02*
X16673348Y-12075374D01*
X16673348Y-12075374D02*
X16692396Y-12084898D01*
X16692396Y-12084898D02*
X16701920Y-12094422D01*
X16701920Y-12094422D02*
X16711444Y-12113469D01*
X16711444Y-12113469D02*
X16711444Y-12161088D01*
X16711444Y-12161088D02*
X16701920Y-12180136D01*
X16701920Y-12180136D02*
X16692396Y-12189660D01*
X16692396Y-12189660D02*
X16673348Y-12199184D01*
X16673348Y-12199184D02*
X16625729Y-12199184D01*
X16625729Y-12199184D02*
X16606682Y-12189660D01*
X16606682Y-12189660D02*
X16597158Y-12180136D01*
X16787634Y-11999184D02*
X16787634Y-12037279D01*
X16863825Y-11999184D02*
X16863825Y-12037279D01*
X17159063Y-12275374D02*
X17149539Y-12265850D01*
X17149539Y-12265850D02*
X17130491Y-12237279D01*
X17130491Y-12237279D02*
X17120968Y-12218231D01*
X17120968Y-12218231D02*
X17111444Y-12189660D01*
X17111444Y-12189660D02*
X17101920Y-12142041D01*
X17101920Y-12142041D02*
X17101920Y-12103946D01*
X17101920Y-12103946D02*
X17111444Y-12056327D01*
X17111444Y-12056327D02*
X17120968Y-12027755D01*
X17120968Y-12027755D02*
X17130491Y-12008708D01*
X17130491Y-12008708D02*
X17149539Y-11980136D01*
X17149539Y-11980136D02*
X17159063Y-11970612D01*
X17225730Y-12018231D02*
X17235253Y-12008708D01*
X17235253Y-12008708D02*
X17254301Y-11999184D01*
X17254301Y-11999184D02*
X17301920Y-11999184D01*
X17301920Y-11999184D02*
X17320968Y-12008708D01*
X17320968Y-12008708D02*
X17330491Y-12018231D01*
X17330491Y-12018231D02*
X17340015Y-12037279D01*
X17340015Y-12037279D02*
X17340015Y-12056327D01*
X17340015Y-12056327D02*
X17330491Y-12084898D01*
X17330491Y-12084898D02*
X17216206Y-12199184D01*
X17216206Y-12199184D02*
X17340015Y-12199184D01*
X17578111Y-12199184D02*
X17578111Y-11999184D01*
X17663825Y-12199184D02*
X17663825Y-12094422D01*
X17663825Y-12094422D02*
X17654301Y-12075374D01*
X17654301Y-12075374D02*
X17635253Y-12065850D01*
X17635253Y-12065850D02*
X17606682Y-12065850D01*
X17606682Y-12065850D02*
X17587634Y-12075374D01*
X17587634Y-12075374D02*
X17578111Y-12084898D01*
X17787634Y-12199184D02*
X17768587Y-12189660D01*
X17768587Y-12189660D02*
X17759063Y-12180136D01*
X17759063Y-12180136D02*
X17749539Y-12161088D01*
X17749539Y-12161088D02*
X17749539Y-12103946D01*
X17749539Y-12103946D02*
X17759063Y-12084898D01*
X17759063Y-12084898D02*
X17768587Y-12075374D01*
X17768587Y-12075374D02*
X17787634Y-12065850D01*
X17787634Y-12065850D02*
X17816206Y-12065850D01*
X17816206Y-12065850D02*
X17835253Y-12075374D01*
X17835253Y-12075374D02*
X17844777Y-12084898D01*
X17844777Y-12084898D02*
X17854301Y-12103946D01*
X17854301Y-12103946D02*
X17854301Y-12161088D01*
X17854301Y-12161088D02*
X17844777Y-12180136D01*
X17844777Y-12180136D02*
X17835253Y-12189660D01*
X17835253Y-12189660D02*
X17816206Y-12199184D01*
X17816206Y-12199184D02*
X17787634Y-12199184D01*
X17968587Y-12199184D02*
X17949539Y-12189660D01*
X17949539Y-12189660D02*
X17940015Y-12170612D01*
X17940015Y-12170612D02*
X17940015Y-11999184D01*
X18120968Y-12189660D02*
X18101920Y-12199184D01*
X18101920Y-12199184D02*
X18063825Y-12199184D01*
X18063825Y-12199184D02*
X18044777Y-12189660D01*
X18044777Y-12189660D02*
X18035253Y-12170612D01*
X18035253Y-12170612D02*
X18035253Y-12094422D01*
X18035253Y-12094422D02*
X18044777Y-12075374D01*
X18044777Y-12075374D02*
X18063825Y-12065850D01*
X18063825Y-12065850D02*
X18101920Y-12065850D01*
X18101920Y-12065850D02*
X18120968Y-12075374D01*
X18120968Y-12075374D02*
X18130492Y-12094422D01*
X18130492Y-12094422D02*
X18130492Y-12113469D01*
X18130492Y-12113469D02*
X18035253Y-12132517D01*
X18206682Y-12189660D02*
X18225730Y-12199184D01*
X18225730Y-12199184D02*
X18263825Y-12199184D01*
X18263825Y-12199184D02*
X18282873Y-12189660D01*
X18282873Y-12189660D02*
X18292396Y-12170612D01*
X18292396Y-12170612D02*
X18292396Y-12161088D01*
X18292396Y-12161088D02*
X18282873Y-12142041D01*
X18282873Y-12142041D02*
X18263825Y-12132517D01*
X18263825Y-12132517D02*
X18235253Y-12132517D01*
X18235253Y-12132517D02*
X18216206Y-12122993D01*
X18216206Y-12122993D02*
X18206682Y-12103946D01*
X18206682Y-12103946D02*
X18206682Y-12094422D01*
X18206682Y-12094422D02*
X18216206Y-12075374D01*
X18216206Y-12075374D02*
X18235253Y-12065850D01*
X18235253Y-12065850D02*
X18263825Y-12065850D01*
X18263825Y-12065850D02*
X18282873Y-12075374D01*
X18359063Y-12275374D02*
X18368587Y-12265850D01*
X18368587Y-12265850D02*
X18387634Y-12237279D01*
X18387634Y-12237279D02*
X18397158Y-12218231D01*
X18397158Y-12218231D02*
X18406682Y-12189660D01*
X18406682Y-12189660D02*
X18416206Y-12142041D01*
X18416206Y-12142041D02*
X18416206Y-12103946D01*
X18416206Y-12103946D02*
X18406682Y-12056327D01*
X18406682Y-12056327D02*
X18397158Y-12027755D01*
X18397158Y-12027755D02*
X18387634Y-12008708D01*
X18387634Y-12008708D02*
X18368587Y-11980136D01*
X18368587Y-11980136D02*
X18359063Y-11970612D01*
D10*
X13570820Y-12403520D02*
X13570820Y-12339880D01*
X13507180Y-12339880D01*
X13507180Y-12403520D01*
X13570820Y-12403520D01*
D11*
X13882872Y-12263184D02*
X13901920Y-12263184D01*
X13901920Y-12263184D02*
X13920967Y-12272708D01*
X13920967Y-12272708D02*
X13930491Y-12282231D01*
X13930491Y-12282231D02*
X13940015Y-12301279D01*
X13940015Y-12301279D02*
X13949539Y-12339374D01*
X13949539Y-12339374D02*
X13949539Y-12386993D01*
X13949539Y-12386993D02*
X13940015Y-12425088D01*
X13940015Y-12425088D02*
X13930491Y-12444136D01*
X13930491Y-12444136D02*
X13920967Y-12453660D01*
X13920967Y-12453660D02*
X13901920Y-12463184D01*
X13901920Y-12463184D02*
X13882872Y-12463184D01*
X13882872Y-12463184D02*
X13863824Y-12453660D01*
X13863824Y-12453660D02*
X13854301Y-12444136D01*
X13854301Y-12444136D02*
X13844777Y-12425088D01*
X13844777Y-12425088D02*
X13835253Y-12386993D01*
X13835253Y-12386993D02*
X13835253Y-12339374D01*
X13835253Y-12339374D02*
X13844777Y-12301279D01*
X13844777Y-12301279D02*
X13854301Y-12282231D01*
X13854301Y-12282231D02*
X13863824Y-12272708D01*
X13863824Y-12272708D02*
X13882872Y-12263184D01*
X14035253Y-12444136D02*
X14044777Y-12453660D01*
X14044777Y-12453660D02*
X14035253Y-12463184D01*
X14035253Y-12463184D02*
X14025729Y-12453660D01*
X14025729Y-12453660D02*
X14035253Y-12444136D01*
X14035253Y-12444136D02*
X14035253Y-12463184D01*
X14140015Y-12463184D02*
X14178110Y-12463184D01*
X14178110Y-12463184D02*
X14197158Y-12453660D01*
X14197158Y-12453660D02*
X14206682Y-12444136D01*
X14206682Y-12444136D02*
X14225729Y-12415565D01*
X14225729Y-12415565D02*
X14235253Y-12377469D01*
X14235253Y-12377469D02*
X14235253Y-12301279D01*
X14235253Y-12301279D02*
X14225729Y-12282231D01*
X14225729Y-12282231D02*
X14216205Y-12272708D01*
X14216205Y-12272708D02*
X14197158Y-12263184D01*
X14197158Y-12263184D02*
X14159062Y-12263184D01*
X14159062Y-12263184D02*
X14140015Y-12272708D01*
X14140015Y-12272708D02*
X14130491Y-12282231D01*
X14130491Y-12282231D02*
X14120967Y-12301279D01*
X14120967Y-12301279D02*
X14120967Y-12348898D01*
X14120967Y-12348898D02*
X14130491Y-12367946D01*
X14130491Y-12367946D02*
X14140015Y-12377469D01*
X14140015Y-12377469D02*
X14159062Y-12386993D01*
X14159062Y-12386993D02*
X14197158Y-12386993D01*
X14197158Y-12386993D02*
X14216205Y-12377469D01*
X14216205Y-12377469D02*
X14225729Y-12367946D01*
X14225729Y-12367946D02*
X14235253Y-12348898D01*
X14359062Y-12263184D02*
X14378110Y-12263184D01*
X14378110Y-12263184D02*
X14397158Y-12272708D01*
X14397158Y-12272708D02*
X14406682Y-12282231D01*
X14406682Y-12282231D02*
X14416205Y-12301279D01*
X14416205Y-12301279D02*
X14425729Y-12339374D01*
X14425729Y-12339374D02*
X14425729Y-12386993D01*
X14425729Y-12386993D02*
X14416205Y-12425088D01*
X14416205Y-12425088D02*
X14406682Y-12444136D01*
X14406682Y-12444136D02*
X14397158Y-12453660D01*
X14397158Y-12453660D02*
X14378110Y-12463184D01*
X14378110Y-12463184D02*
X14359062Y-12463184D01*
X14359062Y-12463184D02*
X14340015Y-12453660D01*
X14340015Y-12453660D02*
X14330491Y-12444136D01*
X14330491Y-12444136D02*
X14320967Y-12425088D01*
X14320967Y-12425088D02*
X14311443Y-12386993D01*
X14311443Y-12386993D02*
X14311443Y-12339374D01*
X14311443Y-12339374D02*
X14320967Y-12301279D01*
X14320967Y-12301279D02*
X14330491Y-12282231D01*
X14330491Y-12282231D02*
X14340015Y-12272708D01*
X14340015Y-12272708D02*
X14359062Y-12263184D01*
X14549539Y-12263184D02*
X14568586Y-12263184D01*
X14568586Y-12263184D02*
X14587634Y-12272708D01*
X14587634Y-12272708D02*
X14597158Y-12282231D01*
X14597158Y-12282231D02*
X14606682Y-12301279D01*
X14606682Y-12301279D02*
X14616205Y-12339374D01*
X14616205Y-12339374D02*
X14616205Y-12386993D01*
X14616205Y-12386993D02*
X14606682Y-12425088D01*
X14606682Y-12425088D02*
X14597158Y-12444136D01*
X14597158Y-12444136D02*
X14587634Y-12453660D01*
X14587634Y-12453660D02*
X14568586Y-12463184D01*
X14568586Y-12463184D02*
X14549539Y-12463184D01*
X14549539Y-12463184D02*
X14530491Y-12453660D01*
X14530491Y-12453660D02*
X14520967Y-12444136D01*
X14520967Y-12444136D02*
X14511443Y-12425088D01*
X14511443Y-12425088D02*
X14501920Y-12386993D01*
X14501920Y-12386993D02*
X14501920Y-12339374D01*
X14501920Y-12339374D02*
X14511443Y-12301279D01*
X14511443Y-12301279D02*
X14520967Y-12282231D01*
X14520967Y-12282231D02*
X14530491Y-12272708D01*
X14530491Y-12272708D02*
X14549539Y-12263184D01*
X14701920Y-12463184D02*
X14701920Y-12329850D01*
X14701920Y-12348898D02*
X14711443Y-12339374D01*
X14711443Y-12339374D02*
X14730491Y-12329850D01*
X14730491Y-12329850D02*
X14759063Y-12329850D01*
X14759063Y-12329850D02*
X14778110Y-12339374D01*
X14778110Y-12339374D02*
X14787634Y-12358422D01*
X14787634Y-12358422D02*
X14787634Y-12463184D01*
X14787634Y-12358422D02*
X14797158Y-12339374D01*
X14797158Y-12339374D02*
X14816205Y-12329850D01*
X14816205Y-12329850D02*
X14844777Y-12329850D01*
X14844777Y-12329850D02*
X14863824Y-12339374D01*
X14863824Y-12339374D02*
X14873348Y-12358422D01*
X14873348Y-12358422D02*
X14873348Y-12463184D01*
X14968586Y-12463184D02*
X14968586Y-12329850D01*
X14968586Y-12348898D02*
X14978110Y-12339374D01*
X14978110Y-12339374D02*
X14997158Y-12329850D01*
X14997158Y-12329850D02*
X15025729Y-12329850D01*
X15025729Y-12329850D02*
X15044777Y-12339374D01*
X15044777Y-12339374D02*
X15054301Y-12358422D01*
X15054301Y-12358422D02*
X15054301Y-12463184D01*
X15054301Y-12358422D02*
X15063824Y-12339374D01*
X15063824Y-12339374D02*
X15082872Y-12329850D01*
X15082872Y-12329850D02*
X15111443Y-12329850D01*
X15111443Y-12329850D02*
X15130491Y-12339374D01*
X15130491Y-12339374D02*
X15140015Y-12358422D01*
X15140015Y-12358422D02*
X15140015Y-12463184D01*
X15530491Y-12253660D02*
X15359063Y-12510803D01*
X15787634Y-12263184D02*
X15806682Y-12263184D01*
X15806682Y-12263184D02*
X15825729Y-12272708D01*
X15825729Y-12272708D02*
X15835253Y-12282231D01*
X15835253Y-12282231D02*
X15844777Y-12301279D01*
X15844777Y-12301279D02*
X15854301Y-12339374D01*
X15854301Y-12339374D02*
X15854301Y-12386993D01*
X15854301Y-12386993D02*
X15844777Y-12425088D01*
X15844777Y-12425088D02*
X15835253Y-12444136D01*
X15835253Y-12444136D02*
X15825729Y-12453660D01*
X15825729Y-12453660D02*
X15806682Y-12463184D01*
X15806682Y-12463184D02*
X15787634Y-12463184D01*
X15787634Y-12463184D02*
X15768586Y-12453660D01*
X15768586Y-12453660D02*
X15759063Y-12444136D01*
X15759063Y-12444136D02*
X15749539Y-12425088D01*
X15749539Y-12425088D02*
X15740015Y-12386993D01*
X15740015Y-12386993D02*
X15740015Y-12339374D01*
X15740015Y-12339374D02*
X15749539Y-12301279D01*
X15749539Y-12301279D02*
X15759063Y-12282231D01*
X15759063Y-12282231D02*
X15768586Y-12272708D01*
X15768586Y-12272708D02*
X15787634Y-12263184D01*
X15940015Y-12444136D02*
X15949539Y-12453660D01*
X15949539Y-12453660D02*
X15940015Y-12463184D01*
X15940015Y-12463184D02*
X15930491Y-12453660D01*
X15930491Y-12453660D02*
X15940015Y-12444136D01*
X15940015Y-12444136D02*
X15940015Y-12463184D01*
X16073348Y-12263184D02*
X16092396Y-12263184D01*
X16092396Y-12263184D02*
X16111444Y-12272708D01*
X16111444Y-12272708D02*
X16120967Y-12282231D01*
X16120967Y-12282231D02*
X16130491Y-12301279D01*
X16130491Y-12301279D02*
X16140015Y-12339374D01*
X16140015Y-12339374D02*
X16140015Y-12386993D01*
X16140015Y-12386993D02*
X16130491Y-12425088D01*
X16130491Y-12425088D02*
X16120967Y-12444136D01*
X16120967Y-12444136D02*
X16111444Y-12453660D01*
X16111444Y-12453660D02*
X16092396Y-12463184D01*
X16092396Y-12463184D02*
X16073348Y-12463184D01*
X16073348Y-12463184D02*
X16054301Y-12453660D01*
X16054301Y-12453660D02*
X16044777Y-12444136D01*
X16044777Y-12444136D02*
X16035253Y-12425088D01*
X16035253Y-12425088D02*
X16025729Y-12386993D01*
X16025729Y-12386993D02*
X16025729Y-12339374D01*
X16025729Y-12339374D02*
X16035253Y-12301279D01*
X16035253Y-12301279D02*
X16044777Y-12282231D01*
X16044777Y-12282231D02*
X16054301Y-12272708D01*
X16054301Y-12272708D02*
X16073348Y-12263184D01*
X16206682Y-12263184D02*
X16330491Y-12263184D01*
X16330491Y-12263184D02*
X16263825Y-12339374D01*
X16263825Y-12339374D02*
X16292396Y-12339374D01*
X16292396Y-12339374D02*
X16311444Y-12348898D01*
X16311444Y-12348898D02*
X16320967Y-12358422D01*
X16320967Y-12358422D02*
X16330491Y-12377469D01*
X16330491Y-12377469D02*
X16330491Y-12425088D01*
X16330491Y-12425088D02*
X16320967Y-12444136D01*
X16320967Y-12444136D02*
X16311444Y-12453660D01*
X16311444Y-12453660D02*
X16292396Y-12463184D01*
X16292396Y-12463184D02*
X16235253Y-12463184D01*
X16235253Y-12463184D02*
X16216206Y-12453660D01*
X16216206Y-12453660D02*
X16206682Y-12444136D01*
X16511444Y-12263184D02*
X16416206Y-12263184D01*
X16416206Y-12263184D02*
X16406682Y-12358422D01*
X16406682Y-12358422D02*
X16416206Y-12348898D01*
X16416206Y-12348898D02*
X16435253Y-12339374D01*
X16435253Y-12339374D02*
X16482872Y-12339374D01*
X16482872Y-12339374D02*
X16501920Y-12348898D01*
X16501920Y-12348898D02*
X16511444Y-12358422D01*
X16511444Y-12358422D02*
X16520967Y-12377469D01*
X16520967Y-12377469D02*
X16520967Y-12425088D01*
X16520967Y-12425088D02*
X16511444Y-12444136D01*
X16511444Y-12444136D02*
X16501920Y-12453660D01*
X16501920Y-12453660D02*
X16482872Y-12463184D01*
X16482872Y-12463184D02*
X16435253Y-12463184D01*
X16435253Y-12463184D02*
X16416206Y-12453660D01*
X16416206Y-12453660D02*
X16406682Y-12444136D01*
X16692396Y-12329850D02*
X16692396Y-12463184D01*
X16644777Y-12253660D02*
X16597158Y-12396517D01*
X16597158Y-12396517D02*
X16720967Y-12396517D01*
X16787634Y-12263184D02*
X16787634Y-12301279D01*
X16863825Y-12263184D02*
X16863825Y-12301279D01*
X17159063Y-12539374D02*
X17149539Y-12529850D01*
X17149539Y-12529850D02*
X17130491Y-12501279D01*
X17130491Y-12501279D02*
X17120968Y-12482231D01*
X17120968Y-12482231D02*
X17111444Y-12453660D01*
X17111444Y-12453660D02*
X17101920Y-12406041D01*
X17101920Y-12406041D02*
X17101920Y-12367946D01*
X17101920Y-12367946D02*
X17111444Y-12320327D01*
X17111444Y-12320327D02*
X17120968Y-12291755D01*
X17120968Y-12291755D02*
X17130491Y-12272708D01*
X17130491Y-12272708D02*
X17149539Y-12244136D01*
X17149539Y-12244136D02*
X17159063Y-12234612D01*
X17340015Y-12463184D02*
X17225730Y-12463184D01*
X17282872Y-12463184D02*
X17282872Y-12263184D01*
X17282872Y-12263184D02*
X17263825Y-12291755D01*
X17263825Y-12291755D02*
X17244777Y-12310803D01*
X17244777Y-12310803D02*
X17225730Y-12320327D01*
X17416206Y-12282231D02*
X17425730Y-12272708D01*
X17425730Y-12272708D02*
X17444777Y-12263184D01*
X17444777Y-12263184D02*
X17492396Y-12263184D01*
X17492396Y-12263184D02*
X17511444Y-12272708D01*
X17511444Y-12272708D02*
X17520968Y-12282231D01*
X17520968Y-12282231D02*
X17530491Y-12301279D01*
X17530491Y-12301279D02*
X17530491Y-12320327D01*
X17530491Y-12320327D02*
X17520968Y-12348898D01*
X17520968Y-12348898D02*
X17406682Y-12463184D01*
X17406682Y-12463184D02*
X17530491Y-12463184D01*
X17768587Y-12463184D02*
X17768587Y-12263184D01*
X17854301Y-12463184D02*
X17854301Y-12358422D01*
X17854301Y-12358422D02*
X17844777Y-12339374D01*
X17844777Y-12339374D02*
X17825730Y-12329850D01*
X17825730Y-12329850D02*
X17797158Y-12329850D01*
X17797158Y-12329850D02*
X17778111Y-12339374D01*
X17778111Y-12339374D02*
X17768587Y-12348898D01*
X17978111Y-12463184D02*
X17959063Y-12453660D01*
X17959063Y-12453660D02*
X17949539Y-12444136D01*
X17949539Y-12444136D02*
X17940015Y-12425088D01*
X17940015Y-12425088D02*
X17940015Y-12367946D01*
X17940015Y-12367946D02*
X17949539Y-12348898D01*
X17949539Y-12348898D02*
X17959063Y-12339374D01*
X17959063Y-12339374D02*
X17978111Y-12329850D01*
X17978111Y-12329850D02*
X18006682Y-12329850D01*
X18006682Y-12329850D02*
X18025730Y-12339374D01*
X18025730Y-12339374D02*
X18035253Y-12348898D01*
X18035253Y-12348898D02*
X18044777Y-12367946D01*
X18044777Y-12367946D02*
X18044777Y-12425088D01*
X18044777Y-12425088D02*
X18035253Y-12444136D01*
X18035253Y-12444136D02*
X18025730Y-12453660D01*
X18025730Y-12453660D02*
X18006682Y-12463184D01*
X18006682Y-12463184D02*
X17978111Y-12463184D01*
X18159063Y-12463184D02*
X18140015Y-12453660D01*
X18140015Y-12453660D02*
X18130492Y-12434612D01*
X18130492Y-12434612D02*
X18130492Y-12263184D01*
X18311444Y-12453660D02*
X18292396Y-12463184D01*
X18292396Y-12463184D02*
X18254301Y-12463184D01*
X18254301Y-12463184D02*
X18235253Y-12453660D01*
X18235253Y-12453660D02*
X18225730Y-12434612D01*
X18225730Y-12434612D02*
X18225730Y-12358422D01*
X18225730Y-12358422D02*
X18235253Y-12339374D01*
X18235253Y-12339374D02*
X18254301Y-12329850D01*
X18254301Y-12329850D02*
X18292396Y-12329850D01*
X18292396Y-12329850D02*
X18311444Y-12339374D01*
X18311444Y-12339374D02*
X18320968Y-12358422D01*
X18320968Y-12358422D02*
X18320968Y-12377469D01*
X18320968Y-12377469D02*
X18225730Y-12396517D01*
X18397158Y-12453660D02*
X18416206Y-12463184D01*
X18416206Y-12463184D02*
X18454301Y-12463184D01*
X18454301Y-12463184D02*
X18473349Y-12453660D01*
X18473349Y-12453660D02*
X18482873Y-12434612D01*
X18482873Y-12434612D02*
X18482873Y-12425088D01*
X18482873Y-12425088D02*
X18473349Y-12406041D01*
X18473349Y-12406041D02*
X18454301Y-12396517D01*
X18454301Y-12396517D02*
X18425730Y-12396517D01*
X18425730Y-12396517D02*
X18406682Y-12386993D01*
X18406682Y-12386993D02*
X18397158Y-12367946D01*
X18397158Y-12367946D02*
X18397158Y-12358422D01*
X18397158Y-12358422D02*
X18406682Y-12339374D01*
X18406682Y-12339374D02*
X18425730Y-12329850D01*
X18425730Y-12329850D02*
X18454301Y-12329850D01*
X18454301Y-12329850D02*
X18473349Y-12339374D01*
X18549539Y-12539374D02*
X18559063Y-12529850D01*
X18559063Y-12529850D02*
X18578111Y-12501279D01*
X18578111Y-12501279D02*
X18587634Y-12482231D01*
X18587634Y-12482231D02*
X18597158Y-12453660D01*
X18597158Y-12453660D02*
X18606682Y-12406041D01*
X18606682Y-12406041D02*
X18606682Y-12367946D01*
X18606682Y-12367946D02*
X18597158Y-12320327D01*
X18597158Y-12320327D02*
X18587634Y-12291755D01*
X18587634Y-12291755D02*
X18578111Y-12272708D01*
X18578111Y-12272708D02*
X18559063Y-12244136D01*
X18559063Y-12244136D02*
X18549539Y-12234612D01*
D10*
X13534000Y-12685700D02*
X13584000Y-12635700D01*
X13534000Y-12585700D01*
X13484000Y-12635700D01*
X13534000Y-12685700D01*
D11*
X13949539Y-12727184D02*
X13835253Y-12727184D01*
X13892396Y-12727184D02*
X13892396Y-12527184D01*
X13892396Y-12527184D02*
X13873348Y-12555755D01*
X13873348Y-12555755D02*
X13854301Y-12574803D01*
X13854301Y-12574803D02*
X13835253Y-12584327D01*
X14035253Y-12708136D02*
X14044777Y-12717660D01*
X14044777Y-12717660D02*
X14035253Y-12727184D01*
X14035253Y-12727184D02*
X14025729Y-12717660D01*
X14025729Y-12717660D02*
X14035253Y-12708136D01*
X14035253Y-12708136D02*
X14035253Y-12727184D01*
X14168586Y-12527184D02*
X14187634Y-12527184D01*
X14187634Y-12527184D02*
X14206682Y-12536708D01*
X14206682Y-12536708D02*
X14216205Y-12546231D01*
X14216205Y-12546231D02*
X14225729Y-12565279D01*
X14225729Y-12565279D02*
X14235253Y-12603374D01*
X14235253Y-12603374D02*
X14235253Y-12650993D01*
X14235253Y-12650993D02*
X14225729Y-12689088D01*
X14225729Y-12689088D02*
X14216205Y-12708136D01*
X14216205Y-12708136D02*
X14206682Y-12717660D01*
X14206682Y-12717660D02*
X14187634Y-12727184D01*
X14187634Y-12727184D02*
X14168586Y-12727184D01*
X14168586Y-12727184D02*
X14149539Y-12717660D01*
X14149539Y-12717660D02*
X14140015Y-12708136D01*
X14140015Y-12708136D02*
X14130491Y-12689088D01*
X14130491Y-12689088D02*
X14120967Y-12650993D01*
X14120967Y-12650993D02*
X14120967Y-12603374D01*
X14120967Y-12603374D02*
X14130491Y-12565279D01*
X14130491Y-12565279D02*
X14140015Y-12546231D01*
X14140015Y-12546231D02*
X14149539Y-12536708D01*
X14149539Y-12536708D02*
X14168586Y-12527184D01*
X14359062Y-12527184D02*
X14378110Y-12527184D01*
X14378110Y-12527184D02*
X14397158Y-12536708D01*
X14397158Y-12536708D02*
X14406682Y-12546231D01*
X14406682Y-12546231D02*
X14416205Y-12565279D01*
X14416205Y-12565279D02*
X14425729Y-12603374D01*
X14425729Y-12603374D02*
X14425729Y-12650993D01*
X14425729Y-12650993D02*
X14416205Y-12689088D01*
X14416205Y-12689088D02*
X14406682Y-12708136D01*
X14406682Y-12708136D02*
X14397158Y-12717660D01*
X14397158Y-12717660D02*
X14378110Y-12727184D01*
X14378110Y-12727184D02*
X14359062Y-12727184D01*
X14359062Y-12727184D02*
X14340015Y-12717660D01*
X14340015Y-12717660D02*
X14330491Y-12708136D01*
X14330491Y-12708136D02*
X14320967Y-12689088D01*
X14320967Y-12689088D02*
X14311443Y-12650993D01*
X14311443Y-12650993D02*
X14311443Y-12603374D01*
X14311443Y-12603374D02*
X14320967Y-12565279D01*
X14320967Y-12565279D02*
X14330491Y-12546231D01*
X14330491Y-12546231D02*
X14340015Y-12536708D01*
X14340015Y-12536708D02*
X14359062Y-12527184D01*
X14549539Y-12527184D02*
X14568586Y-12527184D01*
X14568586Y-12527184D02*
X14587634Y-12536708D01*
X14587634Y-12536708D02*
X14597158Y-12546231D01*
X14597158Y-12546231D02*
X14606682Y-12565279D01*
X14606682Y-12565279D02*
X14616205Y-12603374D01*
X14616205Y-12603374D02*
X14616205Y-12650993D01*
X14616205Y-12650993D02*
X14606682Y-12689088D01*
X14606682Y-12689088D02*
X14597158Y-12708136D01*
X14597158Y-12708136D02*
X14587634Y-12717660D01*
X14587634Y-12717660D02*
X14568586Y-12727184D01*
X14568586Y-12727184D02*
X14549539Y-12727184D01*
X14549539Y-12727184D02*
X14530491Y-12717660D01*
X14530491Y-12717660D02*
X14520967Y-12708136D01*
X14520967Y-12708136D02*
X14511443Y-12689088D01*
X14511443Y-12689088D02*
X14501920Y-12650993D01*
X14501920Y-12650993D02*
X14501920Y-12603374D01*
X14501920Y-12603374D02*
X14511443Y-12565279D01*
X14511443Y-12565279D02*
X14520967Y-12546231D01*
X14520967Y-12546231D02*
X14530491Y-12536708D01*
X14530491Y-12536708D02*
X14549539Y-12527184D01*
X14701920Y-12727184D02*
X14701920Y-12593850D01*
X14701920Y-12612898D02*
X14711443Y-12603374D01*
X14711443Y-12603374D02*
X14730491Y-12593850D01*
X14730491Y-12593850D02*
X14759063Y-12593850D01*
X14759063Y-12593850D02*
X14778110Y-12603374D01*
X14778110Y-12603374D02*
X14787634Y-12622422D01*
X14787634Y-12622422D02*
X14787634Y-12727184D01*
X14787634Y-12622422D02*
X14797158Y-12603374D01*
X14797158Y-12603374D02*
X14816205Y-12593850D01*
X14816205Y-12593850D02*
X14844777Y-12593850D01*
X14844777Y-12593850D02*
X14863824Y-12603374D01*
X14863824Y-12603374D02*
X14873348Y-12622422D01*
X14873348Y-12622422D02*
X14873348Y-12727184D01*
X14968586Y-12727184D02*
X14968586Y-12593850D01*
X14968586Y-12612898D02*
X14978110Y-12603374D01*
X14978110Y-12603374D02*
X14997158Y-12593850D01*
X14997158Y-12593850D02*
X15025729Y-12593850D01*
X15025729Y-12593850D02*
X15044777Y-12603374D01*
X15044777Y-12603374D02*
X15054301Y-12622422D01*
X15054301Y-12622422D02*
X15054301Y-12727184D01*
X15054301Y-12622422D02*
X15063824Y-12603374D01*
X15063824Y-12603374D02*
X15082872Y-12593850D01*
X15082872Y-12593850D02*
X15111443Y-12593850D01*
X15111443Y-12593850D02*
X15130491Y-12603374D01*
X15130491Y-12603374D02*
X15140015Y-12622422D01*
X15140015Y-12622422D02*
X15140015Y-12727184D01*
X15530491Y-12517660D02*
X15359063Y-12774803D01*
X15787634Y-12527184D02*
X15806682Y-12527184D01*
X15806682Y-12527184D02*
X15825729Y-12536708D01*
X15825729Y-12536708D02*
X15835253Y-12546231D01*
X15835253Y-12546231D02*
X15844777Y-12565279D01*
X15844777Y-12565279D02*
X15854301Y-12603374D01*
X15854301Y-12603374D02*
X15854301Y-12650993D01*
X15854301Y-12650993D02*
X15844777Y-12689088D01*
X15844777Y-12689088D02*
X15835253Y-12708136D01*
X15835253Y-12708136D02*
X15825729Y-12717660D01*
X15825729Y-12717660D02*
X15806682Y-12727184D01*
X15806682Y-12727184D02*
X15787634Y-12727184D01*
X15787634Y-12727184D02*
X15768586Y-12717660D01*
X15768586Y-12717660D02*
X15759063Y-12708136D01*
X15759063Y-12708136D02*
X15749539Y-12689088D01*
X15749539Y-12689088D02*
X15740015Y-12650993D01*
X15740015Y-12650993D02*
X15740015Y-12603374D01*
X15740015Y-12603374D02*
X15749539Y-12565279D01*
X15749539Y-12565279D02*
X15759063Y-12546231D01*
X15759063Y-12546231D02*
X15768586Y-12536708D01*
X15768586Y-12536708D02*
X15787634Y-12527184D01*
X15940015Y-12708136D02*
X15949539Y-12717660D01*
X15949539Y-12717660D02*
X15940015Y-12727184D01*
X15940015Y-12727184D02*
X15930491Y-12717660D01*
X15930491Y-12717660D02*
X15940015Y-12708136D01*
X15940015Y-12708136D02*
X15940015Y-12727184D01*
X16073348Y-12527184D02*
X16092396Y-12527184D01*
X16092396Y-12527184D02*
X16111444Y-12536708D01*
X16111444Y-12536708D02*
X16120967Y-12546231D01*
X16120967Y-12546231D02*
X16130491Y-12565279D01*
X16130491Y-12565279D02*
X16140015Y-12603374D01*
X16140015Y-12603374D02*
X16140015Y-12650993D01*
X16140015Y-12650993D02*
X16130491Y-12689088D01*
X16130491Y-12689088D02*
X16120967Y-12708136D01*
X16120967Y-12708136D02*
X16111444Y-12717660D01*
X16111444Y-12717660D02*
X16092396Y-12727184D01*
X16092396Y-12727184D02*
X16073348Y-12727184D01*
X16073348Y-12727184D02*
X16054301Y-12717660D01*
X16054301Y-12717660D02*
X16044777Y-12708136D01*
X16044777Y-12708136D02*
X16035253Y-12689088D01*
X16035253Y-12689088D02*
X16025729Y-12650993D01*
X16025729Y-12650993D02*
X16025729Y-12603374D01*
X16025729Y-12603374D02*
X16035253Y-12565279D01*
X16035253Y-12565279D02*
X16044777Y-12546231D01*
X16044777Y-12546231D02*
X16054301Y-12536708D01*
X16054301Y-12536708D02*
X16073348Y-12527184D01*
X16206682Y-12527184D02*
X16330491Y-12527184D01*
X16330491Y-12527184D02*
X16263825Y-12603374D01*
X16263825Y-12603374D02*
X16292396Y-12603374D01*
X16292396Y-12603374D02*
X16311444Y-12612898D01*
X16311444Y-12612898D02*
X16320967Y-12622422D01*
X16320967Y-12622422D02*
X16330491Y-12641469D01*
X16330491Y-12641469D02*
X16330491Y-12689088D01*
X16330491Y-12689088D02*
X16320967Y-12708136D01*
X16320967Y-12708136D02*
X16311444Y-12717660D01*
X16311444Y-12717660D02*
X16292396Y-12727184D01*
X16292396Y-12727184D02*
X16235253Y-12727184D01*
X16235253Y-12727184D02*
X16216206Y-12717660D01*
X16216206Y-12717660D02*
X16206682Y-12708136D01*
X16425729Y-12727184D02*
X16463825Y-12727184D01*
X16463825Y-12727184D02*
X16482872Y-12717660D01*
X16482872Y-12717660D02*
X16492396Y-12708136D01*
X16492396Y-12708136D02*
X16511444Y-12679565D01*
X16511444Y-12679565D02*
X16520967Y-12641469D01*
X16520967Y-12641469D02*
X16520967Y-12565279D01*
X16520967Y-12565279D02*
X16511444Y-12546231D01*
X16511444Y-12546231D02*
X16501920Y-12536708D01*
X16501920Y-12536708D02*
X16482872Y-12527184D01*
X16482872Y-12527184D02*
X16444777Y-12527184D01*
X16444777Y-12527184D02*
X16425729Y-12536708D01*
X16425729Y-12536708D02*
X16416206Y-12546231D01*
X16416206Y-12546231D02*
X16406682Y-12565279D01*
X16406682Y-12565279D02*
X16406682Y-12612898D01*
X16406682Y-12612898D02*
X16416206Y-12631946D01*
X16416206Y-12631946D02*
X16425729Y-12641469D01*
X16425729Y-12641469D02*
X16444777Y-12650993D01*
X16444777Y-12650993D02*
X16482872Y-12650993D01*
X16482872Y-12650993D02*
X16501920Y-12641469D01*
X16501920Y-12641469D02*
X16511444Y-12631946D01*
X16511444Y-12631946D02*
X16520967Y-12612898D01*
X16692396Y-12593850D02*
X16692396Y-12727184D01*
X16644777Y-12517660D02*
X16597158Y-12660517D01*
X16597158Y-12660517D02*
X16720967Y-12660517D01*
X16787634Y-12527184D02*
X16787634Y-12565279D01*
X16863825Y-12527184D02*
X16863825Y-12565279D01*
X17159063Y-12803374D02*
X17149539Y-12793850D01*
X17149539Y-12793850D02*
X17130491Y-12765279D01*
X17130491Y-12765279D02*
X17120968Y-12746231D01*
X17120968Y-12746231D02*
X17111444Y-12717660D01*
X17111444Y-12717660D02*
X17101920Y-12670041D01*
X17101920Y-12670041D02*
X17101920Y-12631946D01*
X17101920Y-12631946D02*
X17111444Y-12584327D01*
X17111444Y-12584327D02*
X17120968Y-12555755D01*
X17120968Y-12555755D02*
X17130491Y-12536708D01*
X17130491Y-12536708D02*
X17149539Y-12508136D01*
X17149539Y-12508136D02*
X17159063Y-12498612D01*
X17244777Y-12727184D02*
X17282872Y-12727184D01*
X17282872Y-12727184D02*
X17301920Y-12717660D01*
X17301920Y-12717660D02*
X17311444Y-12708136D01*
X17311444Y-12708136D02*
X17330491Y-12679565D01*
X17330491Y-12679565D02*
X17340015Y-12641469D01*
X17340015Y-12641469D02*
X17340015Y-12565279D01*
X17340015Y-12565279D02*
X17330491Y-12546231D01*
X17330491Y-12546231D02*
X17320968Y-12536708D01*
X17320968Y-12536708D02*
X17301920Y-12527184D01*
X17301920Y-12527184D02*
X17263825Y-12527184D01*
X17263825Y-12527184D02*
X17244777Y-12536708D01*
X17244777Y-12536708D02*
X17235253Y-12546231D01*
X17235253Y-12546231D02*
X17225730Y-12565279D01*
X17225730Y-12565279D02*
X17225730Y-12612898D01*
X17225730Y-12612898D02*
X17235253Y-12631946D01*
X17235253Y-12631946D02*
X17244777Y-12641469D01*
X17244777Y-12641469D02*
X17263825Y-12650993D01*
X17263825Y-12650993D02*
X17301920Y-12650993D01*
X17301920Y-12650993D02*
X17320968Y-12641469D01*
X17320968Y-12641469D02*
X17330491Y-12631946D01*
X17330491Y-12631946D02*
X17340015Y-12612898D01*
X17578111Y-12727184D02*
X17578111Y-12527184D01*
X17663825Y-12727184D02*
X17663825Y-12622422D01*
X17663825Y-12622422D02*
X17654301Y-12603374D01*
X17654301Y-12603374D02*
X17635253Y-12593850D01*
X17635253Y-12593850D02*
X17606682Y-12593850D01*
X17606682Y-12593850D02*
X17587634Y-12603374D01*
X17587634Y-12603374D02*
X17578111Y-12612898D01*
X17787634Y-12727184D02*
X17768587Y-12717660D01*
X17768587Y-12717660D02*
X17759063Y-12708136D01*
X17759063Y-12708136D02*
X17749539Y-12689088D01*
X17749539Y-12689088D02*
X17749539Y-12631946D01*
X17749539Y-12631946D02*
X17759063Y-12612898D01*
X17759063Y-12612898D02*
X17768587Y-12603374D01*
X17768587Y-12603374D02*
X17787634Y-12593850D01*
X17787634Y-12593850D02*
X17816206Y-12593850D01*
X17816206Y-12593850D02*
X17835253Y-12603374D01*
X17835253Y-12603374D02*
X17844777Y-12612898D01*
X17844777Y-12612898D02*
X17854301Y-12631946D01*
X17854301Y-12631946D02*
X17854301Y-12689088D01*
X17854301Y-12689088D02*
X17844777Y-12708136D01*
X17844777Y-12708136D02*
X17835253Y-12717660D01*
X17835253Y-12717660D02*
X17816206Y-12727184D01*
X17816206Y-12727184D02*
X17787634Y-12727184D01*
X17968587Y-12727184D02*
X17949539Y-12717660D01*
X17949539Y-12717660D02*
X17940015Y-12698612D01*
X17940015Y-12698612D02*
X17940015Y-12527184D01*
X18120968Y-12717660D02*
X18101920Y-12727184D01*
X18101920Y-12727184D02*
X18063825Y-12727184D01*
X18063825Y-12727184D02*
X18044777Y-12717660D01*
X18044777Y-12717660D02*
X18035253Y-12698612D01*
X18035253Y-12698612D02*
X18035253Y-12622422D01*
X18035253Y-12622422D02*
X18044777Y-12603374D01*
X18044777Y-12603374D02*
X18063825Y-12593850D01*
X18063825Y-12593850D02*
X18101920Y-12593850D01*
X18101920Y-12593850D02*
X18120968Y-12603374D01*
X18120968Y-12603374D02*
X18130492Y-12622422D01*
X18130492Y-12622422D02*
X18130492Y-12641469D01*
X18130492Y-12641469D02*
X18035253Y-12660517D01*
X18206682Y-12717660D02*
X18225730Y-12727184D01*
X18225730Y-12727184D02*
X18263825Y-12727184D01*
X18263825Y-12727184D02*
X18282873Y-12717660D01*
X18282873Y-12717660D02*
X18292396Y-12698612D01*
X18292396Y-12698612D02*
X18292396Y-12689088D01*
X18292396Y-12689088D02*
X18282873Y-12670041D01*
X18282873Y-12670041D02*
X18263825Y-12660517D01*
X18263825Y-12660517D02*
X18235253Y-12660517D01*
X18235253Y-12660517D02*
X18216206Y-12650993D01*
X18216206Y-12650993D02*
X18206682Y-12631946D01*
X18206682Y-12631946D02*
X18206682Y-12622422D01*
X18206682Y-12622422D02*
X18216206Y-12603374D01*
X18216206Y-12603374D02*
X18235253Y-12593850D01*
X18235253Y-12593850D02*
X18263825Y-12593850D01*
X18263825Y-12593850D02*
X18282873Y-12603374D01*
X18359063Y-12803374D02*
X18368587Y-12793850D01*
X18368587Y-12793850D02*
X18387634Y-12765279D01*
X18387634Y-12765279D02*
X18397158Y-12746231D01*
X18397158Y-12746231D02*
X18406682Y-12717660D01*
X18406682Y-12717660D02*
X18416206Y-12670041D01*
X18416206Y-12670041D02*
X18416206Y-12631946D01*
X18416206Y-12631946D02*
X18406682Y-12584327D01*
X18406682Y-12584327D02*
X18397158Y-12555755D01*
X18397158Y-12555755D02*
X18387634Y-12536708D01*
X18387634Y-12536708D02*
X18368587Y-12508136D01*
X18368587Y-12508136D02*
X18359063Y-12498612D01*
X13384000Y-12799700D02*
X13584000Y-12999700D01*
X13584000Y-12799700D02*
X13384000Y-12999700D01*
X13584000Y-12899700D02*
G75*
G02*
X13384000Y-12899700I-100000J0D01*
G01*
X13384000Y-12899700D02*
G75*
G02*
X13584000Y-12899700I100000J0D01*
G01*
X13835253Y-12810231D02*
X13844777Y-12800708D01*
X13844777Y-12800708D02*
X13863824Y-12791184D01*
X13863824Y-12791184D02*
X13911443Y-12791184D01*
X13911443Y-12791184D02*
X13930491Y-12800708D01*
X13930491Y-12800708D02*
X13940015Y-12810231D01*
X13940015Y-12810231D02*
X13949539Y-12829279D01*
X13949539Y-12829279D02*
X13949539Y-12848327D01*
X13949539Y-12848327D02*
X13940015Y-12876898D01*
X13940015Y-12876898D02*
X13825729Y-12991184D01*
X13825729Y-12991184D02*
X13949539Y-12991184D01*
X14035253Y-12972136D02*
X14044777Y-12981660D01*
X14044777Y-12981660D02*
X14035253Y-12991184D01*
X14035253Y-12991184D02*
X14025729Y-12981660D01*
X14025729Y-12981660D02*
X14035253Y-12972136D01*
X14035253Y-12972136D02*
X14035253Y-12991184D01*
X14168586Y-12791184D02*
X14187634Y-12791184D01*
X14187634Y-12791184D02*
X14206682Y-12800708D01*
X14206682Y-12800708D02*
X14216205Y-12810231D01*
X14216205Y-12810231D02*
X14225729Y-12829279D01*
X14225729Y-12829279D02*
X14235253Y-12867374D01*
X14235253Y-12867374D02*
X14235253Y-12914993D01*
X14235253Y-12914993D02*
X14225729Y-12953088D01*
X14225729Y-12953088D02*
X14216205Y-12972136D01*
X14216205Y-12972136D02*
X14206682Y-12981660D01*
X14206682Y-12981660D02*
X14187634Y-12991184D01*
X14187634Y-12991184D02*
X14168586Y-12991184D01*
X14168586Y-12991184D02*
X14149539Y-12981660D01*
X14149539Y-12981660D02*
X14140015Y-12972136D01*
X14140015Y-12972136D02*
X14130491Y-12953088D01*
X14130491Y-12953088D02*
X14120967Y-12914993D01*
X14120967Y-12914993D02*
X14120967Y-12867374D01*
X14120967Y-12867374D02*
X14130491Y-12829279D01*
X14130491Y-12829279D02*
X14140015Y-12810231D01*
X14140015Y-12810231D02*
X14149539Y-12800708D01*
X14149539Y-12800708D02*
X14168586Y-12791184D01*
X14359062Y-12791184D02*
X14378110Y-12791184D01*
X14378110Y-12791184D02*
X14397158Y-12800708D01*
X14397158Y-12800708D02*
X14406682Y-12810231D01*
X14406682Y-12810231D02*
X14416205Y-12829279D01*
X14416205Y-12829279D02*
X14425729Y-12867374D01*
X14425729Y-12867374D02*
X14425729Y-12914993D01*
X14425729Y-12914993D02*
X14416205Y-12953088D01*
X14416205Y-12953088D02*
X14406682Y-12972136D01*
X14406682Y-12972136D02*
X14397158Y-12981660D01*
X14397158Y-12981660D02*
X14378110Y-12991184D01*
X14378110Y-12991184D02*
X14359062Y-12991184D01*
X14359062Y-12991184D02*
X14340015Y-12981660D01*
X14340015Y-12981660D02*
X14330491Y-12972136D01*
X14330491Y-12972136D02*
X14320967Y-12953088D01*
X14320967Y-12953088D02*
X14311443Y-12914993D01*
X14311443Y-12914993D02*
X14311443Y-12867374D01*
X14311443Y-12867374D02*
X14320967Y-12829279D01*
X14320967Y-12829279D02*
X14330491Y-12810231D01*
X14330491Y-12810231D02*
X14340015Y-12800708D01*
X14340015Y-12800708D02*
X14359062Y-12791184D01*
X14549539Y-12791184D02*
X14568586Y-12791184D01*
X14568586Y-12791184D02*
X14587634Y-12800708D01*
X14587634Y-12800708D02*
X14597158Y-12810231D01*
X14597158Y-12810231D02*
X14606682Y-12829279D01*
X14606682Y-12829279D02*
X14616205Y-12867374D01*
X14616205Y-12867374D02*
X14616205Y-12914993D01*
X14616205Y-12914993D02*
X14606682Y-12953088D01*
X14606682Y-12953088D02*
X14597158Y-12972136D01*
X14597158Y-12972136D02*
X14587634Y-12981660D01*
X14587634Y-12981660D02*
X14568586Y-12991184D01*
X14568586Y-12991184D02*
X14549539Y-12991184D01*
X14549539Y-12991184D02*
X14530491Y-12981660D01*
X14530491Y-12981660D02*
X14520967Y-12972136D01*
X14520967Y-12972136D02*
X14511443Y-12953088D01*
X14511443Y-12953088D02*
X14501920Y-12914993D01*
X14501920Y-12914993D02*
X14501920Y-12867374D01*
X14501920Y-12867374D02*
X14511443Y-12829279D01*
X14511443Y-12829279D02*
X14520967Y-12810231D01*
X14520967Y-12810231D02*
X14530491Y-12800708D01*
X14530491Y-12800708D02*
X14549539Y-12791184D01*
X14701920Y-12991184D02*
X14701920Y-12857850D01*
X14701920Y-12876898D02*
X14711443Y-12867374D01*
X14711443Y-12867374D02*
X14730491Y-12857850D01*
X14730491Y-12857850D02*
X14759063Y-12857850D01*
X14759063Y-12857850D02*
X14778110Y-12867374D01*
X14778110Y-12867374D02*
X14787634Y-12886422D01*
X14787634Y-12886422D02*
X14787634Y-12991184D01*
X14787634Y-12886422D02*
X14797158Y-12867374D01*
X14797158Y-12867374D02*
X14816205Y-12857850D01*
X14816205Y-12857850D02*
X14844777Y-12857850D01*
X14844777Y-12857850D02*
X14863824Y-12867374D01*
X14863824Y-12867374D02*
X14873348Y-12886422D01*
X14873348Y-12886422D02*
X14873348Y-12991184D01*
X14968586Y-12991184D02*
X14968586Y-12857850D01*
X14968586Y-12876898D02*
X14978110Y-12867374D01*
X14978110Y-12867374D02*
X14997158Y-12857850D01*
X14997158Y-12857850D02*
X15025729Y-12857850D01*
X15025729Y-12857850D02*
X15044777Y-12867374D01*
X15044777Y-12867374D02*
X15054301Y-12886422D01*
X15054301Y-12886422D02*
X15054301Y-12991184D01*
X15054301Y-12886422D02*
X15063824Y-12867374D01*
X15063824Y-12867374D02*
X15082872Y-12857850D01*
X15082872Y-12857850D02*
X15111443Y-12857850D01*
X15111443Y-12857850D02*
X15130491Y-12867374D01*
X15130491Y-12867374D02*
X15140015Y-12886422D01*
X15140015Y-12886422D02*
X15140015Y-12991184D01*
X15530491Y-12781660D02*
X15359063Y-13038803D01*
X15787634Y-12791184D02*
X15806682Y-12791184D01*
X15806682Y-12791184D02*
X15825729Y-12800708D01*
X15825729Y-12800708D02*
X15835253Y-12810231D01*
X15835253Y-12810231D02*
X15844777Y-12829279D01*
X15844777Y-12829279D02*
X15854301Y-12867374D01*
X15854301Y-12867374D02*
X15854301Y-12914993D01*
X15854301Y-12914993D02*
X15844777Y-12953088D01*
X15844777Y-12953088D02*
X15835253Y-12972136D01*
X15835253Y-12972136D02*
X15825729Y-12981660D01*
X15825729Y-12981660D02*
X15806682Y-12991184D01*
X15806682Y-12991184D02*
X15787634Y-12991184D01*
X15787634Y-12991184D02*
X15768586Y-12981660D01*
X15768586Y-12981660D02*
X15759063Y-12972136D01*
X15759063Y-12972136D02*
X15749539Y-12953088D01*
X15749539Y-12953088D02*
X15740015Y-12914993D01*
X15740015Y-12914993D02*
X15740015Y-12867374D01*
X15740015Y-12867374D02*
X15749539Y-12829279D01*
X15749539Y-12829279D02*
X15759063Y-12810231D01*
X15759063Y-12810231D02*
X15768586Y-12800708D01*
X15768586Y-12800708D02*
X15787634Y-12791184D01*
X15940015Y-12972136D02*
X15949539Y-12981660D01*
X15949539Y-12981660D02*
X15940015Y-12991184D01*
X15940015Y-12991184D02*
X15930491Y-12981660D01*
X15930491Y-12981660D02*
X15940015Y-12972136D01*
X15940015Y-12972136D02*
X15940015Y-12991184D01*
X16073348Y-12791184D02*
X16092396Y-12791184D01*
X16092396Y-12791184D02*
X16111444Y-12800708D01*
X16111444Y-12800708D02*
X16120967Y-12810231D01*
X16120967Y-12810231D02*
X16130491Y-12829279D01*
X16130491Y-12829279D02*
X16140015Y-12867374D01*
X16140015Y-12867374D02*
X16140015Y-12914993D01*
X16140015Y-12914993D02*
X16130491Y-12953088D01*
X16130491Y-12953088D02*
X16120967Y-12972136D01*
X16120967Y-12972136D02*
X16111444Y-12981660D01*
X16111444Y-12981660D02*
X16092396Y-12991184D01*
X16092396Y-12991184D02*
X16073348Y-12991184D01*
X16073348Y-12991184D02*
X16054301Y-12981660D01*
X16054301Y-12981660D02*
X16044777Y-12972136D01*
X16044777Y-12972136D02*
X16035253Y-12953088D01*
X16035253Y-12953088D02*
X16025729Y-12914993D01*
X16025729Y-12914993D02*
X16025729Y-12867374D01*
X16025729Y-12867374D02*
X16035253Y-12829279D01*
X16035253Y-12829279D02*
X16044777Y-12810231D01*
X16044777Y-12810231D02*
X16054301Y-12800708D01*
X16054301Y-12800708D02*
X16073348Y-12791184D01*
X16206682Y-12791184D02*
X16340015Y-12791184D01*
X16340015Y-12791184D02*
X16254301Y-12991184D01*
X16444777Y-12876898D02*
X16425729Y-12867374D01*
X16425729Y-12867374D02*
X16416206Y-12857850D01*
X16416206Y-12857850D02*
X16406682Y-12838803D01*
X16406682Y-12838803D02*
X16406682Y-12829279D01*
X16406682Y-12829279D02*
X16416206Y-12810231D01*
X16416206Y-12810231D02*
X16425729Y-12800708D01*
X16425729Y-12800708D02*
X16444777Y-12791184D01*
X16444777Y-12791184D02*
X16482872Y-12791184D01*
X16482872Y-12791184D02*
X16501920Y-12800708D01*
X16501920Y-12800708D02*
X16511444Y-12810231D01*
X16511444Y-12810231D02*
X16520967Y-12829279D01*
X16520967Y-12829279D02*
X16520967Y-12838803D01*
X16520967Y-12838803D02*
X16511444Y-12857850D01*
X16511444Y-12857850D02*
X16501920Y-12867374D01*
X16501920Y-12867374D02*
X16482872Y-12876898D01*
X16482872Y-12876898D02*
X16444777Y-12876898D01*
X16444777Y-12876898D02*
X16425729Y-12886422D01*
X16425729Y-12886422D02*
X16416206Y-12895946D01*
X16416206Y-12895946D02*
X16406682Y-12914993D01*
X16406682Y-12914993D02*
X16406682Y-12953088D01*
X16406682Y-12953088D02*
X16416206Y-12972136D01*
X16416206Y-12972136D02*
X16425729Y-12981660D01*
X16425729Y-12981660D02*
X16444777Y-12991184D01*
X16444777Y-12991184D02*
X16482872Y-12991184D01*
X16482872Y-12991184D02*
X16501920Y-12981660D01*
X16501920Y-12981660D02*
X16511444Y-12972136D01*
X16511444Y-12972136D02*
X16520967Y-12953088D01*
X16520967Y-12953088D02*
X16520967Y-12914993D01*
X16520967Y-12914993D02*
X16511444Y-12895946D01*
X16511444Y-12895946D02*
X16501920Y-12886422D01*
X16501920Y-12886422D02*
X16482872Y-12876898D01*
X16587634Y-12791184D02*
X16720967Y-12791184D01*
X16720967Y-12791184D02*
X16635253Y-12991184D01*
X16787634Y-12791184D02*
X16787634Y-12829279D01*
X16863825Y-12791184D02*
X16863825Y-12829279D01*
X17159063Y-13067374D02*
X17149539Y-13057850D01*
X17149539Y-13057850D02*
X17130491Y-13029279D01*
X17130491Y-13029279D02*
X17120968Y-13010231D01*
X17120968Y-13010231D02*
X17111444Y-12981660D01*
X17111444Y-12981660D02*
X17101920Y-12934041D01*
X17101920Y-12934041D02*
X17101920Y-12895946D01*
X17101920Y-12895946D02*
X17111444Y-12848327D01*
X17111444Y-12848327D02*
X17120968Y-12819755D01*
X17120968Y-12819755D02*
X17130491Y-12800708D01*
X17130491Y-12800708D02*
X17149539Y-12772136D01*
X17149539Y-12772136D02*
X17159063Y-12762612D01*
X17273349Y-12791184D02*
X17292396Y-12791184D01*
X17292396Y-12791184D02*
X17311444Y-12800708D01*
X17311444Y-12800708D02*
X17320968Y-12810231D01*
X17320968Y-12810231D02*
X17330491Y-12829279D01*
X17330491Y-12829279D02*
X17340015Y-12867374D01*
X17340015Y-12867374D02*
X17340015Y-12914993D01*
X17340015Y-12914993D02*
X17330491Y-12953088D01*
X17330491Y-12953088D02*
X17320968Y-12972136D01*
X17320968Y-12972136D02*
X17311444Y-12981660D01*
X17311444Y-12981660D02*
X17292396Y-12991184D01*
X17292396Y-12991184D02*
X17273349Y-12991184D01*
X17273349Y-12991184D02*
X17254301Y-12981660D01*
X17254301Y-12981660D02*
X17244777Y-12972136D01*
X17244777Y-12972136D02*
X17235253Y-12953088D01*
X17235253Y-12953088D02*
X17225730Y-12914993D01*
X17225730Y-12914993D02*
X17225730Y-12867374D01*
X17225730Y-12867374D02*
X17235253Y-12829279D01*
X17235253Y-12829279D02*
X17244777Y-12810231D01*
X17244777Y-12810231D02*
X17254301Y-12800708D01*
X17254301Y-12800708D02*
X17273349Y-12791184D01*
X17578111Y-12991184D02*
X17578111Y-12791184D01*
X17663825Y-12991184D02*
X17663825Y-12886422D01*
X17663825Y-12886422D02*
X17654301Y-12867374D01*
X17654301Y-12867374D02*
X17635253Y-12857850D01*
X17635253Y-12857850D02*
X17606682Y-12857850D01*
X17606682Y-12857850D02*
X17587634Y-12867374D01*
X17587634Y-12867374D02*
X17578111Y-12876898D01*
X17787634Y-12991184D02*
X17768587Y-12981660D01*
X17768587Y-12981660D02*
X17759063Y-12972136D01*
X17759063Y-12972136D02*
X17749539Y-12953088D01*
X17749539Y-12953088D02*
X17749539Y-12895946D01*
X17749539Y-12895946D02*
X17759063Y-12876898D01*
X17759063Y-12876898D02*
X17768587Y-12867374D01*
X17768587Y-12867374D02*
X17787634Y-12857850D01*
X17787634Y-12857850D02*
X17816206Y-12857850D01*
X17816206Y-12857850D02*
X17835253Y-12867374D01*
X17835253Y-12867374D02*
X17844777Y-12876898D01*
X17844777Y-12876898D02*
X17854301Y-12895946D01*
X17854301Y-12895946D02*
X17854301Y-12953088D01*
X17854301Y-12953088D02*
X17844777Y-12972136D01*
X17844777Y-12972136D02*
X17835253Y-12981660D01*
X17835253Y-12981660D02*
X17816206Y-12991184D01*
X17816206Y-12991184D02*
X17787634Y-12991184D01*
X17968587Y-12991184D02*
X17949539Y-12981660D01*
X17949539Y-12981660D02*
X17940015Y-12962612D01*
X17940015Y-12962612D02*
X17940015Y-12791184D01*
X18120968Y-12981660D02*
X18101920Y-12991184D01*
X18101920Y-12991184D02*
X18063825Y-12991184D01*
X18063825Y-12991184D02*
X18044777Y-12981660D01*
X18044777Y-12981660D02*
X18035253Y-12962612D01*
X18035253Y-12962612D02*
X18035253Y-12886422D01*
X18035253Y-12886422D02*
X18044777Y-12867374D01*
X18044777Y-12867374D02*
X18063825Y-12857850D01*
X18063825Y-12857850D02*
X18101920Y-12857850D01*
X18101920Y-12857850D02*
X18120968Y-12867374D01*
X18120968Y-12867374D02*
X18130492Y-12886422D01*
X18130492Y-12886422D02*
X18130492Y-12905469D01*
X18130492Y-12905469D02*
X18035253Y-12924517D01*
X18206682Y-12981660D02*
X18225730Y-12991184D01*
X18225730Y-12991184D02*
X18263825Y-12991184D01*
X18263825Y-12991184D02*
X18282873Y-12981660D01*
X18282873Y-12981660D02*
X18292396Y-12962612D01*
X18292396Y-12962612D02*
X18292396Y-12953088D01*
X18292396Y-12953088D02*
X18282873Y-12934041D01*
X18282873Y-12934041D02*
X18263825Y-12924517D01*
X18263825Y-12924517D02*
X18235253Y-12924517D01*
X18235253Y-12924517D02*
X18216206Y-12914993D01*
X18216206Y-12914993D02*
X18206682Y-12895946D01*
X18206682Y-12895946D02*
X18206682Y-12886422D01*
X18206682Y-12886422D02*
X18216206Y-12867374D01*
X18216206Y-12867374D02*
X18235253Y-12857850D01*
X18235253Y-12857850D02*
X18263825Y-12857850D01*
X18263825Y-12857850D02*
X18282873Y-12867374D01*
X18530492Y-12914993D02*
X18682873Y-12914993D01*
X18606682Y-12991184D02*
X18606682Y-12838803D01*
X19016206Y-12857850D02*
X19016206Y-12991184D01*
X18968587Y-12781660D02*
X18920968Y-12924517D01*
X18920968Y-12924517D02*
X19044777Y-12924517D01*
X19263825Y-12981660D02*
X19282873Y-12991184D01*
X19282873Y-12991184D02*
X19320968Y-12991184D01*
X19320968Y-12991184D02*
X19340016Y-12981660D01*
X19340016Y-12981660D02*
X19349539Y-12962612D01*
X19349539Y-12962612D02*
X19349539Y-12953088D01*
X19349539Y-12953088D02*
X19340016Y-12934041D01*
X19340016Y-12934041D02*
X19320968Y-12924517D01*
X19320968Y-12924517D02*
X19292396Y-12924517D01*
X19292396Y-12924517D02*
X19273349Y-12914993D01*
X19273349Y-12914993D02*
X19263825Y-12895946D01*
X19263825Y-12895946D02*
X19263825Y-12886422D01*
X19263825Y-12886422D02*
X19273349Y-12867374D01*
X19273349Y-12867374D02*
X19292396Y-12857850D01*
X19292396Y-12857850D02*
X19320968Y-12857850D01*
X19320968Y-12857850D02*
X19340016Y-12867374D01*
X19463825Y-12991184D02*
X19444777Y-12981660D01*
X19444777Y-12981660D02*
X19435254Y-12962612D01*
X19435254Y-12962612D02*
X19435254Y-12791184D01*
X19568587Y-12991184D02*
X19549539Y-12981660D01*
X19549539Y-12981660D02*
X19540016Y-12972136D01*
X19540016Y-12972136D02*
X19530492Y-12953088D01*
X19530492Y-12953088D02*
X19530492Y-12895946D01*
X19530492Y-12895946D02*
X19540016Y-12876898D01*
X19540016Y-12876898D02*
X19549539Y-12867374D01*
X19549539Y-12867374D02*
X19568587Y-12857850D01*
X19568587Y-12857850D02*
X19597158Y-12857850D01*
X19597158Y-12857850D02*
X19616206Y-12867374D01*
X19616206Y-12867374D02*
X19625730Y-12876898D01*
X19625730Y-12876898D02*
X19635254Y-12895946D01*
X19635254Y-12895946D02*
X19635254Y-12953088D01*
X19635254Y-12953088D02*
X19625730Y-12972136D01*
X19625730Y-12972136D02*
X19616206Y-12981660D01*
X19616206Y-12981660D02*
X19597158Y-12991184D01*
X19597158Y-12991184D02*
X19568587Y-12991184D01*
X19692397Y-12857850D02*
X19768587Y-12857850D01*
X19720968Y-12791184D02*
X19720968Y-12962612D01*
X19720968Y-12962612D02*
X19730492Y-12981660D01*
X19730492Y-12981660D02*
X19749539Y-12991184D01*
X19749539Y-12991184D02*
X19768587Y-12991184D01*
X19825730Y-12981660D02*
X19844777Y-12991184D01*
X19844777Y-12991184D02*
X19882873Y-12991184D01*
X19882873Y-12991184D02*
X19901920Y-12981660D01*
X19901920Y-12981660D02*
X19911444Y-12962612D01*
X19911444Y-12962612D02*
X19911444Y-12953088D01*
X19911444Y-12953088D02*
X19901920Y-12934041D01*
X19901920Y-12934041D02*
X19882873Y-12924517D01*
X19882873Y-12924517D02*
X19854301Y-12924517D01*
X19854301Y-12924517D02*
X19835254Y-12914993D01*
X19835254Y-12914993D02*
X19825730Y-12895946D01*
X19825730Y-12895946D02*
X19825730Y-12886422D01*
X19825730Y-12886422D02*
X19835254Y-12867374D01*
X19835254Y-12867374D02*
X19854301Y-12857850D01*
X19854301Y-12857850D02*
X19882873Y-12857850D01*
X19882873Y-12857850D02*
X19901920Y-12867374D01*
X19978111Y-13067374D02*
X19987635Y-13057850D01*
X19987635Y-13057850D02*
X20006682Y-13029279D01*
X20006682Y-13029279D02*
X20016206Y-13010231D01*
X20016206Y-13010231D02*
X20025730Y-12981660D01*
X20025730Y-12981660D02*
X20035254Y-12934041D01*
X20035254Y-12934041D02*
X20035254Y-12895946D01*
X20035254Y-12895946D02*
X20025730Y-12848327D01*
X20025730Y-12848327D02*
X20016206Y-12819755D01*
X20016206Y-12819755D02*
X20006682Y-12800708D01*
X20006682Y-12800708D02*
X19987635Y-12772136D01*
X19987635Y-12772136D02*
X19978111Y-12762612D01*
M02*
