%TF.GenerationSoftware,KiCad,Pcbnew,8.0.5*%
%TF.CreationDate,2024-10-31T22:44:31-05:00*%
%TF.ProjectId,Buck_Breakout,4275636b-5f42-4726-9561-6b6f75742e6b,rev?*%
%TF.SameCoordinates,Original*%
%TF.FileFunction,Legend,Bot*%
%TF.FilePolarity,Positive*%
%FSLAX46Y46*%
G04 Gerber Fmt 4.6, Leading zero omitted, Abs format (unit mm)*
G04 Created by KiCad (PCBNEW 8.0.5) date 2024-10-31 22:44:31*
%MOMM*%
%LPD*%
G01*
G04 APERTURE LIST*
%ADD10C,0.088900*%
G04 APERTURE END LIST*
D10*
X90764656Y-55446104D02*
X90673942Y-55476342D01*
X90673942Y-55476342D02*
X90643704Y-55506580D01*
X90643704Y-55506580D02*
X90613466Y-55567056D01*
X90613466Y-55567056D02*
X90613466Y-55657770D01*
X90613466Y-55657770D02*
X90643704Y-55718246D01*
X90643704Y-55718246D02*
X90673942Y-55748485D01*
X90673942Y-55748485D02*
X90734418Y-55778723D01*
X90734418Y-55778723D02*
X90976323Y-55778723D01*
X90976323Y-55778723D02*
X90976323Y-55143723D01*
X90976323Y-55143723D02*
X90764656Y-55143723D01*
X90764656Y-55143723D02*
X90704180Y-55173961D01*
X90704180Y-55173961D02*
X90673942Y-55204199D01*
X90673942Y-55204199D02*
X90643704Y-55264675D01*
X90643704Y-55264675D02*
X90643704Y-55325151D01*
X90643704Y-55325151D02*
X90673942Y-55385627D01*
X90673942Y-55385627D02*
X90704180Y-55415865D01*
X90704180Y-55415865D02*
X90764656Y-55446104D01*
X90764656Y-55446104D02*
X90976323Y-55446104D01*
X90069180Y-55355389D02*
X90069180Y-55778723D01*
X90341323Y-55355389D02*
X90341323Y-55688008D01*
X90341323Y-55688008D02*
X90311085Y-55748485D01*
X90311085Y-55748485D02*
X90250609Y-55778723D01*
X90250609Y-55778723D02*
X90159894Y-55778723D01*
X90159894Y-55778723D02*
X90099418Y-55748485D01*
X90099418Y-55748485D02*
X90069180Y-55718246D01*
X89494656Y-55748485D02*
X89555132Y-55778723D01*
X89555132Y-55778723D02*
X89676085Y-55778723D01*
X89676085Y-55778723D02*
X89736561Y-55748485D01*
X89736561Y-55748485D02*
X89766799Y-55718246D01*
X89766799Y-55718246D02*
X89797037Y-55657770D01*
X89797037Y-55657770D02*
X89797037Y-55476342D01*
X89797037Y-55476342D02*
X89766799Y-55415865D01*
X89766799Y-55415865D02*
X89736561Y-55385627D01*
X89736561Y-55385627D02*
X89676085Y-55355389D01*
X89676085Y-55355389D02*
X89555132Y-55355389D01*
X89555132Y-55355389D02*
X89494656Y-55385627D01*
X89222513Y-55778723D02*
X89222513Y-55143723D01*
X89162037Y-55536818D02*
X88980608Y-55778723D01*
X88980608Y-55355389D02*
X89222513Y-55597294D01*
X87861798Y-55718246D02*
X87892036Y-55748485D01*
X87892036Y-55748485D02*
X87982750Y-55778723D01*
X87982750Y-55778723D02*
X88043226Y-55778723D01*
X88043226Y-55778723D02*
X88133941Y-55748485D01*
X88133941Y-55748485D02*
X88194417Y-55688008D01*
X88194417Y-55688008D02*
X88224655Y-55627532D01*
X88224655Y-55627532D02*
X88254893Y-55506580D01*
X88254893Y-55506580D02*
X88254893Y-55415865D01*
X88254893Y-55415865D02*
X88224655Y-55294913D01*
X88224655Y-55294913D02*
X88194417Y-55234437D01*
X88194417Y-55234437D02*
X88133941Y-55173961D01*
X88133941Y-55173961D02*
X88043226Y-55143723D01*
X88043226Y-55143723D02*
X87982750Y-55143723D01*
X87982750Y-55143723D02*
X87892036Y-55173961D01*
X87892036Y-55173961D02*
X87861798Y-55204199D01*
X87498941Y-55778723D02*
X87559417Y-55748485D01*
X87559417Y-55748485D02*
X87589655Y-55718246D01*
X87589655Y-55718246D02*
X87619893Y-55657770D01*
X87619893Y-55657770D02*
X87619893Y-55476342D01*
X87619893Y-55476342D02*
X87589655Y-55415865D01*
X87589655Y-55415865D02*
X87559417Y-55385627D01*
X87559417Y-55385627D02*
X87498941Y-55355389D01*
X87498941Y-55355389D02*
X87408226Y-55355389D01*
X87408226Y-55355389D02*
X87347750Y-55385627D01*
X87347750Y-55385627D02*
X87317512Y-55415865D01*
X87317512Y-55415865D02*
X87287274Y-55476342D01*
X87287274Y-55476342D02*
X87287274Y-55657770D01*
X87287274Y-55657770D02*
X87317512Y-55718246D01*
X87317512Y-55718246D02*
X87347750Y-55748485D01*
X87347750Y-55748485D02*
X87408226Y-55778723D01*
X87408226Y-55778723D02*
X87498941Y-55778723D01*
X87015131Y-55355389D02*
X87015131Y-55778723D01*
X87015131Y-55415865D02*
X86984893Y-55385627D01*
X86984893Y-55385627D02*
X86924417Y-55355389D01*
X86924417Y-55355389D02*
X86833702Y-55355389D01*
X86833702Y-55355389D02*
X86773226Y-55385627D01*
X86773226Y-55385627D02*
X86742988Y-55446104D01*
X86742988Y-55446104D02*
X86742988Y-55778723D01*
X86501083Y-55355389D02*
X86349893Y-55778723D01*
X86349893Y-55778723D02*
X86198702Y-55355389D01*
X85714892Y-55748485D02*
X85775368Y-55778723D01*
X85775368Y-55778723D02*
X85896321Y-55778723D01*
X85896321Y-55778723D02*
X85956797Y-55748485D01*
X85956797Y-55748485D02*
X85987035Y-55688008D01*
X85987035Y-55688008D02*
X85987035Y-55446104D01*
X85987035Y-55446104D02*
X85956797Y-55385627D01*
X85956797Y-55385627D02*
X85896321Y-55355389D01*
X85896321Y-55355389D02*
X85775368Y-55355389D01*
X85775368Y-55355389D02*
X85714892Y-55385627D01*
X85714892Y-55385627D02*
X85684654Y-55446104D01*
X85684654Y-55446104D02*
X85684654Y-55506580D01*
X85684654Y-55506580D02*
X85987035Y-55567056D01*
X85412511Y-55778723D02*
X85412511Y-55355389D01*
X85412511Y-55476342D02*
X85382273Y-55415865D01*
X85382273Y-55415865D02*
X85352035Y-55385627D01*
X85352035Y-55385627D02*
X85291559Y-55355389D01*
X85291559Y-55355389D02*
X85231082Y-55355389D01*
X85110130Y-55355389D02*
X84868226Y-55355389D01*
X85019416Y-55143723D02*
X85019416Y-55688008D01*
X85019416Y-55688008D02*
X84989178Y-55748485D01*
X84989178Y-55748485D02*
X84928702Y-55778723D01*
X84928702Y-55778723D02*
X84868226Y-55778723D01*
X84414654Y-55748485D02*
X84475130Y-55778723D01*
X84475130Y-55778723D02*
X84596083Y-55778723D01*
X84596083Y-55778723D02*
X84656559Y-55748485D01*
X84656559Y-55748485D02*
X84686797Y-55688008D01*
X84686797Y-55688008D02*
X84686797Y-55446104D01*
X84686797Y-55446104D02*
X84656559Y-55385627D01*
X84656559Y-55385627D02*
X84596083Y-55355389D01*
X84596083Y-55355389D02*
X84475130Y-55355389D01*
X84475130Y-55355389D02*
X84414654Y-55385627D01*
X84414654Y-55385627D02*
X84384416Y-55446104D01*
X84384416Y-55446104D02*
X84384416Y-55506580D01*
X84384416Y-55506580D02*
X84686797Y-55567056D01*
X84112273Y-55778723D02*
X84112273Y-55355389D01*
X84112273Y-55476342D02*
X84082035Y-55415865D01*
X84082035Y-55415865D02*
X84051797Y-55385627D01*
X84051797Y-55385627D02*
X83991321Y-55355389D01*
X83991321Y-55355389D02*
X83930844Y-55355389D01*
X83023701Y-55446104D02*
X82932987Y-55476342D01*
X82932987Y-55476342D02*
X82902749Y-55506580D01*
X82902749Y-55506580D02*
X82872511Y-55567056D01*
X82872511Y-55567056D02*
X82872511Y-55657770D01*
X82872511Y-55657770D02*
X82902749Y-55718246D01*
X82902749Y-55718246D02*
X82932987Y-55748485D01*
X82932987Y-55748485D02*
X82993463Y-55778723D01*
X82993463Y-55778723D02*
X83235368Y-55778723D01*
X83235368Y-55778723D02*
X83235368Y-55143723D01*
X83235368Y-55143723D02*
X83023701Y-55143723D01*
X83023701Y-55143723D02*
X82963225Y-55173961D01*
X82963225Y-55173961D02*
X82932987Y-55204199D01*
X82932987Y-55204199D02*
X82902749Y-55264675D01*
X82902749Y-55264675D02*
X82902749Y-55325151D01*
X82902749Y-55325151D02*
X82932987Y-55385627D01*
X82932987Y-55385627D02*
X82963225Y-55415865D01*
X82963225Y-55415865D02*
X83023701Y-55446104D01*
X83023701Y-55446104D02*
X83235368Y-55446104D01*
X82600368Y-55778723D02*
X82600368Y-55355389D01*
X82600368Y-55476342D02*
X82570130Y-55415865D01*
X82570130Y-55415865D02*
X82539892Y-55385627D01*
X82539892Y-55385627D02*
X82479416Y-55355389D01*
X82479416Y-55355389D02*
X82418939Y-55355389D01*
X81965368Y-55748485D02*
X82025844Y-55778723D01*
X82025844Y-55778723D02*
X82146797Y-55778723D01*
X82146797Y-55778723D02*
X82207273Y-55748485D01*
X82207273Y-55748485D02*
X82237511Y-55688008D01*
X82237511Y-55688008D02*
X82237511Y-55446104D01*
X82237511Y-55446104D02*
X82207273Y-55385627D01*
X82207273Y-55385627D02*
X82146797Y-55355389D01*
X82146797Y-55355389D02*
X82025844Y-55355389D01*
X82025844Y-55355389D02*
X81965368Y-55385627D01*
X81965368Y-55385627D02*
X81935130Y-55446104D01*
X81935130Y-55446104D02*
X81935130Y-55506580D01*
X81935130Y-55506580D02*
X82237511Y-55567056D01*
X81390844Y-55778723D02*
X81390844Y-55446104D01*
X81390844Y-55446104D02*
X81421082Y-55385627D01*
X81421082Y-55385627D02*
X81481558Y-55355389D01*
X81481558Y-55355389D02*
X81602511Y-55355389D01*
X81602511Y-55355389D02*
X81662987Y-55385627D01*
X81390844Y-55748485D02*
X81451320Y-55778723D01*
X81451320Y-55778723D02*
X81602511Y-55778723D01*
X81602511Y-55778723D02*
X81662987Y-55748485D01*
X81662987Y-55748485D02*
X81693225Y-55688008D01*
X81693225Y-55688008D02*
X81693225Y-55627532D01*
X81693225Y-55627532D02*
X81662987Y-55567056D01*
X81662987Y-55567056D02*
X81602511Y-55536818D01*
X81602511Y-55536818D02*
X81451320Y-55536818D01*
X81451320Y-55536818D02*
X81390844Y-55506580D01*
X81088463Y-55778723D02*
X81088463Y-55143723D01*
X81027987Y-55536818D02*
X80846558Y-55778723D01*
X80846558Y-55355389D02*
X81088463Y-55597294D01*
X80483701Y-55778723D02*
X80544177Y-55748485D01*
X80544177Y-55748485D02*
X80574415Y-55718246D01*
X80574415Y-55718246D02*
X80604653Y-55657770D01*
X80604653Y-55657770D02*
X80604653Y-55476342D01*
X80604653Y-55476342D02*
X80574415Y-55415865D01*
X80574415Y-55415865D02*
X80544177Y-55385627D01*
X80544177Y-55385627D02*
X80483701Y-55355389D01*
X80483701Y-55355389D02*
X80392986Y-55355389D01*
X80392986Y-55355389D02*
X80332510Y-55385627D01*
X80332510Y-55385627D02*
X80302272Y-55415865D01*
X80302272Y-55415865D02*
X80272034Y-55476342D01*
X80272034Y-55476342D02*
X80272034Y-55657770D01*
X80272034Y-55657770D02*
X80302272Y-55718246D01*
X80302272Y-55718246D02*
X80332510Y-55748485D01*
X80332510Y-55748485D02*
X80392986Y-55778723D01*
X80392986Y-55778723D02*
X80483701Y-55778723D01*
X79727748Y-55355389D02*
X79727748Y-55778723D01*
X79999891Y-55355389D02*
X79999891Y-55688008D01*
X79999891Y-55688008D02*
X79969653Y-55748485D01*
X79969653Y-55748485D02*
X79909177Y-55778723D01*
X79909177Y-55778723D02*
X79818462Y-55778723D01*
X79818462Y-55778723D02*
X79757986Y-55748485D01*
X79757986Y-55748485D02*
X79727748Y-55718246D01*
X79516081Y-55355389D02*
X79274177Y-55355389D01*
X79425367Y-55143723D02*
X79425367Y-55688008D01*
X79425367Y-55688008D02*
X79395129Y-55748485D01*
X79395129Y-55748485D02*
X79334653Y-55778723D01*
X79334653Y-55778723D02*
X79274177Y-55778723D01*
X79032272Y-55748485D02*
X79032272Y-55778723D01*
X79032272Y-55778723D02*
X79062510Y-55839199D01*
X79062510Y-55839199D02*
X79092748Y-55869437D01*
X77913462Y-55778723D02*
X78125129Y-55476342D01*
X78276319Y-55778723D02*
X78276319Y-55143723D01*
X78276319Y-55143723D02*
X78034414Y-55143723D01*
X78034414Y-55143723D02*
X77973938Y-55173961D01*
X77973938Y-55173961D02*
X77943700Y-55204199D01*
X77943700Y-55204199D02*
X77913462Y-55264675D01*
X77913462Y-55264675D02*
X77913462Y-55355389D01*
X77913462Y-55355389D02*
X77943700Y-55415865D01*
X77943700Y-55415865D02*
X77973938Y-55446104D01*
X77973938Y-55446104D02*
X78034414Y-55476342D01*
X78034414Y-55476342D02*
X78276319Y-55476342D01*
X77399414Y-55748485D02*
X77459890Y-55778723D01*
X77459890Y-55778723D02*
X77580843Y-55778723D01*
X77580843Y-55778723D02*
X77641319Y-55748485D01*
X77641319Y-55748485D02*
X77671557Y-55688008D01*
X77671557Y-55688008D02*
X77671557Y-55446104D01*
X77671557Y-55446104D02*
X77641319Y-55385627D01*
X77641319Y-55385627D02*
X77580843Y-55355389D01*
X77580843Y-55355389D02*
X77459890Y-55355389D01*
X77459890Y-55355389D02*
X77399414Y-55385627D01*
X77399414Y-55385627D02*
X77369176Y-55446104D01*
X77369176Y-55446104D02*
X77369176Y-55506580D01*
X77369176Y-55506580D02*
X77671557Y-55567056D01*
X77157509Y-55355389D02*
X77006319Y-55778723D01*
X77006319Y-55778723D02*
X76855128Y-55355389D01*
X76280604Y-55778723D02*
X76643461Y-55778723D01*
X76462033Y-55778723D02*
X76462033Y-55143723D01*
X76462033Y-55143723D02*
X76522509Y-55234437D01*
X76522509Y-55234437D02*
X76582985Y-55294913D01*
X76582985Y-55294913D02*
X76643461Y-55325151D01*
X90976323Y-56801037D02*
X90976323Y-56166037D01*
X90976323Y-56166037D02*
X90764656Y-56619608D01*
X90764656Y-56619608D02*
X90552990Y-56166037D01*
X90552990Y-56166037D02*
X90552990Y-56801037D01*
X89978466Y-56801037D02*
X89978466Y-56468418D01*
X89978466Y-56468418D02*
X90008704Y-56407941D01*
X90008704Y-56407941D02*
X90069180Y-56377703D01*
X90069180Y-56377703D02*
X90190133Y-56377703D01*
X90190133Y-56377703D02*
X90250609Y-56407941D01*
X89978466Y-56770799D02*
X90038942Y-56801037D01*
X90038942Y-56801037D02*
X90190133Y-56801037D01*
X90190133Y-56801037D02*
X90250609Y-56770799D01*
X90250609Y-56770799D02*
X90280847Y-56710322D01*
X90280847Y-56710322D02*
X90280847Y-56649846D01*
X90280847Y-56649846D02*
X90250609Y-56589370D01*
X90250609Y-56589370D02*
X90190133Y-56559132D01*
X90190133Y-56559132D02*
X90038942Y-56559132D01*
X90038942Y-56559132D02*
X89978466Y-56528894D01*
X89676085Y-56801037D02*
X89676085Y-56377703D01*
X89676085Y-56498656D02*
X89645847Y-56438179D01*
X89645847Y-56438179D02*
X89615609Y-56407941D01*
X89615609Y-56407941D02*
X89555133Y-56377703D01*
X89555133Y-56377703D02*
X89494656Y-56377703D01*
X89313228Y-56770799D02*
X89252752Y-56801037D01*
X89252752Y-56801037D02*
X89131800Y-56801037D01*
X89131800Y-56801037D02*
X89071323Y-56770799D01*
X89071323Y-56770799D02*
X89041085Y-56710322D01*
X89041085Y-56710322D02*
X89041085Y-56680084D01*
X89041085Y-56680084D02*
X89071323Y-56619608D01*
X89071323Y-56619608D02*
X89131800Y-56589370D01*
X89131800Y-56589370D02*
X89222514Y-56589370D01*
X89222514Y-56589370D02*
X89282990Y-56559132D01*
X89282990Y-56559132D02*
X89313228Y-56498656D01*
X89313228Y-56498656D02*
X89313228Y-56468418D01*
X89313228Y-56468418D02*
X89282990Y-56407941D01*
X89282990Y-56407941D02*
X89222514Y-56377703D01*
X89222514Y-56377703D02*
X89131800Y-56377703D01*
X89131800Y-56377703D02*
X89071323Y-56407941D01*
X87922275Y-56801037D02*
X88133942Y-56498656D01*
X88285132Y-56801037D02*
X88285132Y-56166037D01*
X88285132Y-56166037D02*
X88043227Y-56166037D01*
X88043227Y-56166037D02*
X87982751Y-56196275D01*
X87982751Y-56196275D02*
X87952513Y-56226513D01*
X87952513Y-56226513D02*
X87922275Y-56286989D01*
X87922275Y-56286989D02*
X87922275Y-56377703D01*
X87922275Y-56377703D02*
X87952513Y-56438179D01*
X87952513Y-56438179D02*
X87982751Y-56468418D01*
X87982751Y-56468418D02*
X88043227Y-56498656D01*
X88043227Y-56498656D02*
X88285132Y-56498656D01*
X87559418Y-56801037D02*
X87619894Y-56770799D01*
X87619894Y-56770799D02*
X87650132Y-56740560D01*
X87650132Y-56740560D02*
X87680370Y-56680084D01*
X87680370Y-56680084D02*
X87680370Y-56498656D01*
X87680370Y-56498656D02*
X87650132Y-56438179D01*
X87650132Y-56438179D02*
X87619894Y-56407941D01*
X87619894Y-56407941D02*
X87559418Y-56377703D01*
X87559418Y-56377703D02*
X87468703Y-56377703D01*
X87468703Y-56377703D02*
X87408227Y-56407941D01*
X87408227Y-56407941D02*
X87377989Y-56438179D01*
X87377989Y-56438179D02*
X87347751Y-56498656D01*
X87347751Y-56498656D02*
X87347751Y-56680084D01*
X87347751Y-56680084D02*
X87377989Y-56740560D01*
X87377989Y-56740560D02*
X87408227Y-56770799D01*
X87408227Y-56770799D02*
X87468703Y-56801037D01*
X87468703Y-56801037D02*
X87559418Y-56801037D01*
X87136084Y-56377703D02*
X86984894Y-56801037D01*
X86984894Y-56801037D02*
X86833703Y-56377703D01*
X86349893Y-56770799D02*
X86410369Y-56801037D01*
X86410369Y-56801037D02*
X86531322Y-56801037D01*
X86531322Y-56801037D02*
X86591798Y-56770799D01*
X86591798Y-56770799D02*
X86622036Y-56710322D01*
X86622036Y-56710322D02*
X86622036Y-56468418D01*
X86622036Y-56468418D02*
X86591798Y-56407941D01*
X86591798Y-56407941D02*
X86531322Y-56377703D01*
X86531322Y-56377703D02*
X86410369Y-56377703D01*
X86410369Y-56377703D02*
X86349893Y-56407941D01*
X86349893Y-56407941D02*
X86319655Y-56468418D01*
X86319655Y-56468418D02*
X86319655Y-56528894D01*
X86319655Y-56528894D02*
X86622036Y-56589370D01*
X86047512Y-56801037D02*
X86047512Y-56377703D01*
X86047512Y-56498656D02*
X86017274Y-56438179D01*
X86017274Y-56438179D02*
X85987036Y-56407941D01*
X85987036Y-56407941D02*
X85926560Y-56377703D01*
X85926560Y-56377703D02*
X85866083Y-56377703D01*
X85170607Y-56801037D02*
X85170607Y-56166037D01*
X85170607Y-56166037D02*
X85019417Y-56166037D01*
X85019417Y-56166037D02*
X84928702Y-56196275D01*
X84928702Y-56196275D02*
X84868226Y-56256751D01*
X84868226Y-56256751D02*
X84837988Y-56317227D01*
X84837988Y-56317227D02*
X84807750Y-56438179D01*
X84807750Y-56438179D02*
X84807750Y-56528894D01*
X84807750Y-56528894D02*
X84837988Y-56649846D01*
X84837988Y-56649846D02*
X84868226Y-56710322D01*
X84868226Y-56710322D02*
X84928702Y-56770799D01*
X84928702Y-56770799D02*
X85019417Y-56801037D01*
X85019417Y-56801037D02*
X85170607Y-56801037D01*
X84293702Y-56770799D02*
X84354178Y-56801037D01*
X84354178Y-56801037D02*
X84475131Y-56801037D01*
X84475131Y-56801037D02*
X84535607Y-56770799D01*
X84535607Y-56770799D02*
X84565845Y-56710322D01*
X84565845Y-56710322D02*
X84565845Y-56468418D01*
X84565845Y-56468418D02*
X84535607Y-56407941D01*
X84535607Y-56407941D02*
X84475131Y-56377703D01*
X84475131Y-56377703D02*
X84354178Y-56377703D01*
X84354178Y-56377703D02*
X84293702Y-56407941D01*
X84293702Y-56407941D02*
X84263464Y-56468418D01*
X84263464Y-56468418D02*
X84263464Y-56528894D01*
X84263464Y-56528894D02*
X84565845Y-56589370D01*
X84021559Y-56770799D02*
X83961083Y-56801037D01*
X83961083Y-56801037D02*
X83840131Y-56801037D01*
X83840131Y-56801037D02*
X83779654Y-56770799D01*
X83779654Y-56770799D02*
X83749416Y-56710322D01*
X83749416Y-56710322D02*
X83749416Y-56680084D01*
X83749416Y-56680084D02*
X83779654Y-56619608D01*
X83779654Y-56619608D02*
X83840131Y-56589370D01*
X83840131Y-56589370D02*
X83930845Y-56589370D01*
X83930845Y-56589370D02*
X83991321Y-56559132D01*
X83991321Y-56559132D02*
X84021559Y-56498656D01*
X84021559Y-56498656D02*
X84021559Y-56468418D01*
X84021559Y-56468418D02*
X83991321Y-56407941D01*
X83991321Y-56407941D02*
X83930845Y-56377703D01*
X83930845Y-56377703D02*
X83840131Y-56377703D01*
X83840131Y-56377703D02*
X83779654Y-56407941D01*
X83477273Y-56801037D02*
X83477273Y-56377703D01*
X83477273Y-56166037D02*
X83507511Y-56196275D01*
X83507511Y-56196275D02*
X83477273Y-56226513D01*
X83477273Y-56226513D02*
X83447035Y-56196275D01*
X83447035Y-56196275D02*
X83477273Y-56166037D01*
X83477273Y-56166037D02*
X83477273Y-56226513D01*
X82902749Y-56377703D02*
X82902749Y-56891751D01*
X82902749Y-56891751D02*
X82932987Y-56952227D01*
X82932987Y-56952227D02*
X82963225Y-56982465D01*
X82963225Y-56982465D02*
X83023702Y-57012703D01*
X83023702Y-57012703D02*
X83114416Y-57012703D01*
X83114416Y-57012703D02*
X83174892Y-56982465D01*
X82902749Y-56770799D02*
X82963225Y-56801037D01*
X82963225Y-56801037D02*
X83084178Y-56801037D01*
X83084178Y-56801037D02*
X83144654Y-56770799D01*
X83144654Y-56770799D02*
X83174892Y-56740560D01*
X83174892Y-56740560D02*
X83205130Y-56680084D01*
X83205130Y-56680084D02*
X83205130Y-56498656D01*
X83205130Y-56498656D02*
X83174892Y-56438179D01*
X83174892Y-56438179D02*
X83144654Y-56407941D01*
X83144654Y-56407941D02*
X83084178Y-56377703D01*
X83084178Y-56377703D02*
X82963225Y-56377703D01*
X82963225Y-56377703D02*
X82902749Y-56407941D01*
X82600368Y-56377703D02*
X82600368Y-56801037D01*
X82600368Y-56438179D02*
X82570130Y-56407941D01*
X82570130Y-56407941D02*
X82509654Y-56377703D01*
X82509654Y-56377703D02*
X82418939Y-56377703D01*
X82418939Y-56377703D02*
X82358463Y-56407941D01*
X82358463Y-56407941D02*
X82328225Y-56468418D01*
X82328225Y-56468418D02*
X82328225Y-56801037D01*
X81632748Y-56166037D02*
X81269891Y-56166037D01*
X81451320Y-56801037D02*
X81451320Y-56166037D01*
X80816319Y-56770799D02*
X80876795Y-56801037D01*
X80876795Y-56801037D02*
X80997748Y-56801037D01*
X80997748Y-56801037D02*
X81058224Y-56770799D01*
X81058224Y-56770799D02*
X81088462Y-56710322D01*
X81088462Y-56710322D02*
X81088462Y-56468418D01*
X81088462Y-56468418D02*
X81058224Y-56407941D01*
X81058224Y-56407941D02*
X80997748Y-56377703D01*
X80997748Y-56377703D02*
X80876795Y-56377703D01*
X80876795Y-56377703D02*
X80816319Y-56407941D01*
X80816319Y-56407941D02*
X80786081Y-56468418D01*
X80786081Y-56468418D02*
X80786081Y-56528894D01*
X80786081Y-56528894D02*
X81088462Y-56589370D01*
X80241795Y-56801037D02*
X80241795Y-56468418D01*
X80241795Y-56468418D02*
X80272033Y-56407941D01*
X80272033Y-56407941D02*
X80332509Y-56377703D01*
X80332509Y-56377703D02*
X80453462Y-56377703D01*
X80453462Y-56377703D02*
X80513938Y-56407941D01*
X80241795Y-56770799D02*
X80302271Y-56801037D01*
X80302271Y-56801037D02*
X80453462Y-56801037D01*
X80453462Y-56801037D02*
X80513938Y-56770799D01*
X80513938Y-56770799D02*
X80544176Y-56710322D01*
X80544176Y-56710322D02*
X80544176Y-56649846D01*
X80544176Y-56649846D02*
X80513938Y-56589370D01*
X80513938Y-56589370D02*
X80453462Y-56559132D01*
X80453462Y-56559132D02*
X80302271Y-56559132D01*
X80302271Y-56559132D02*
X80241795Y-56528894D01*
X79939414Y-56801037D02*
X79939414Y-56377703D01*
X79939414Y-56438179D02*
X79909176Y-56407941D01*
X79909176Y-56407941D02*
X79848700Y-56377703D01*
X79848700Y-56377703D02*
X79757985Y-56377703D01*
X79757985Y-56377703D02*
X79697509Y-56407941D01*
X79697509Y-56407941D02*
X79667271Y-56468418D01*
X79667271Y-56468418D02*
X79667271Y-56801037D01*
X79667271Y-56468418D02*
X79637033Y-56407941D01*
X79637033Y-56407941D02*
X79576557Y-56377703D01*
X79576557Y-56377703D02*
X79485843Y-56377703D01*
X79485843Y-56377703D02*
X79425366Y-56407941D01*
X79425366Y-56407941D02*
X79395128Y-56468418D01*
X79395128Y-56468418D02*
X79395128Y-56801037D01*
X90976323Y-57823351D02*
X90976323Y-57188351D01*
X90976323Y-57188351D02*
X90764656Y-57641922D01*
X90764656Y-57641922D02*
X90552990Y-57188351D01*
X90552990Y-57188351D02*
X90552990Y-57823351D01*
X90250609Y-57823351D02*
X90250609Y-57400017D01*
X90250609Y-57188351D02*
X90280847Y-57218589D01*
X90280847Y-57218589D02*
X90250609Y-57248827D01*
X90250609Y-57248827D02*
X90220371Y-57218589D01*
X90220371Y-57218589D02*
X90250609Y-57188351D01*
X90250609Y-57188351D02*
X90250609Y-57248827D01*
X89978466Y-57793113D02*
X89917990Y-57823351D01*
X89917990Y-57823351D02*
X89797038Y-57823351D01*
X89797038Y-57823351D02*
X89736561Y-57793113D01*
X89736561Y-57793113D02*
X89706323Y-57732636D01*
X89706323Y-57732636D02*
X89706323Y-57702398D01*
X89706323Y-57702398D02*
X89736561Y-57641922D01*
X89736561Y-57641922D02*
X89797038Y-57611684D01*
X89797038Y-57611684D02*
X89887752Y-57611684D01*
X89887752Y-57611684D02*
X89948228Y-57581446D01*
X89948228Y-57581446D02*
X89978466Y-57520970D01*
X89978466Y-57520970D02*
X89978466Y-57490732D01*
X89978466Y-57490732D02*
X89948228Y-57430255D01*
X89948228Y-57430255D02*
X89887752Y-57400017D01*
X89887752Y-57400017D02*
X89797038Y-57400017D01*
X89797038Y-57400017D02*
X89736561Y-57430255D01*
X89464418Y-57793113D02*
X89403942Y-57823351D01*
X89403942Y-57823351D02*
X89282990Y-57823351D01*
X89282990Y-57823351D02*
X89222513Y-57793113D01*
X89222513Y-57793113D02*
X89192275Y-57732636D01*
X89192275Y-57732636D02*
X89192275Y-57702398D01*
X89192275Y-57702398D02*
X89222513Y-57641922D01*
X89222513Y-57641922D02*
X89282990Y-57611684D01*
X89282990Y-57611684D02*
X89373704Y-57611684D01*
X89373704Y-57611684D02*
X89434180Y-57581446D01*
X89434180Y-57581446D02*
X89464418Y-57520970D01*
X89464418Y-57520970D02*
X89464418Y-57490732D01*
X89464418Y-57490732D02*
X89434180Y-57430255D01*
X89434180Y-57430255D02*
X89373704Y-57400017D01*
X89373704Y-57400017D02*
X89282990Y-57400017D01*
X89282990Y-57400017D02*
X89222513Y-57430255D01*
X88829418Y-57823351D02*
X88889894Y-57793113D01*
X88889894Y-57793113D02*
X88920132Y-57762874D01*
X88920132Y-57762874D02*
X88950370Y-57702398D01*
X88950370Y-57702398D02*
X88950370Y-57520970D01*
X88950370Y-57520970D02*
X88920132Y-57460493D01*
X88920132Y-57460493D02*
X88889894Y-57430255D01*
X88889894Y-57430255D02*
X88829418Y-57400017D01*
X88829418Y-57400017D02*
X88738703Y-57400017D01*
X88738703Y-57400017D02*
X88678227Y-57430255D01*
X88678227Y-57430255D02*
X88647989Y-57460493D01*
X88647989Y-57460493D02*
X88617751Y-57520970D01*
X88617751Y-57520970D02*
X88617751Y-57702398D01*
X88617751Y-57702398D02*
X88647989Y-57762874D01*
X88647989Y-57762874D02*
X88678227Y-57793113D01*
X88678227Y-57793113D02*
X88738703Y-57823351D01*
X88738703Y-57823351D02*
X88829418Y-57823351D01*
X88073465Y-57400017D02*
X88073465Y-57823351D01*
X88345608Y-57400017D02*
X88345608Y-57732636D01*
X88345608Y-57732636D02*
X88315370Y-57793113D01*
X88315370Y-57793113D02*
X88254894Y-57823351D01*
X88254894Y-57823351D02*
X88164179Y-57823351D01*
X88164179Y-57823351D02*
X88103703Y-57793113D01*
X88103703Y-57793113D02*
X88073465Y-57762874D01*
X87771084Y-57823351D02*
X87771084Y-57400017D01*
X87771084Y-57520970D02*
X87740846Y-57460493D01*
X87740846Y-57460493D02*
X87710608Y-57430255D01*
X87710608Y-57430255D02*
X87650132Y-57400017D01*
X87650132Y-57400017D02*
X87589655Y-57400017D01*
X87377989Y-57823351D02*
X87377989Y-57400017D01*
X87377989Y-57188351D02*
X87408227Y-57218589D01*
X87408227Y-57218589D02*
X87377989Y-57248827D01*
X87377989Y-57248827D02*
X87347751Y-57218589D01*
X87347751Y-57218589D02*
X87377989Y-57188351D01*
X87377989Y-57188351D02*
X87377989Y-57248827D01*
X86622036Y-57793113D02*
X86531322Y-57823351D01*
X86531322Y-57823351D02*
X86380131Y-57823351D01*
X86380131Y-57823351D02*
X86319655Y-57793113D01*
X86319655Y-57793113D02*
X86289417Y-57762874D01*
X86289417Y-57762874D02*
X86259179Y-57702398D01*
X86259179Y-57702398D02*
X86259179Y-57641922D01*
X86259179Y-57641922D02*
X86289417Y-57581446D01*
X86289417Y-57581446D02*
X86319655Y-57551208D01*
X86319655Y-57551208D02*
X86380131Y-57520970D01*
X86380131Y-57520970D02*
X86501084Y-57490732D01*
X86501084Y-57490732D02*
X86561560Y-57460493D01*
X86561560Y-57460493D02*
X86591798Y-57430255D01*
X86591798Y-57430255D02*
X86622036Y-57369779D01*
X86622036Y-57369779D02*
X86622036Y-57309303D01*
X86622036Y-57309303D02*
X86591798Y-57248827D01*
X86591798Y-57248827D02*
X86561560Y-57218589D01*
X86561560Y-57218589D02*
X86501084Y-57188351D01*
X86501084Y-57188351D02*
X86349893Y-57188351D01*
X86349893Y-57188351D02*
X86259179Y-57218589D01*
X85472988Y-57823351D02*
X85503227Y-57823351D01*
X85503227Y-57823351D02*
X85563703Y-57793113D01*
X85563703Y-57793113D02*
X85654417Y-57702398D01*
X85654417Y-57702398D02*
X85805607Y-57520970D01*
X85805607Y-57520970D02*
X85866084Y-57430255D01*
X85866084Y-57430255D02*
X85896322Y-57339541D01*
X85896322Y-57339541D02*
X85896322Y-57279065D01*
X85896322Y-57279065D02*
X85866084Y-57218589D01*
X85866084Y-57218589D02*
X85805607Y-57188351D01*
X85805607Y-57188351D02*
X85775369Y-57188351D01*
X85775369Y-57188351D02*
X85714893Y-57218589D01*
X85714893Y-57218589D02*
X85684655Y-57279065D01*
X85684655Y-57279065D02*
X85684655Y-57309303D01*
X85684655Y-57309303D02*
X85714893Y-57369779D01*
X85714893Y-57369779D02*
X85745131Y-57400017D01*
X85745131Y-57400017D02*
X85926560Y-57520970D01*
X85926560Y-57520970D02*
X85956798Y-57551208D01*
X85956798Y-57551208D02*
X85987036Y-57611684D01*
X85987036Y-57611684D02*
X85987036Y-57702398D01*
X85987036Y-57702398D02*
X85956798Y-57762874D01*
X85956798Y-57762874D02*
X85926560Y-57793113D01*
X85926560Y-57793113D02*
X85866084Y-57823351D01*
X85866084Y-57823351D02*
X85775369Y-57823351D01*
X85775369Y-57823351D02*
X85714893Y-57793113D01*
X85714893Y-57793113D02*
X85684655Y-57762874D01*
X85684655Y-57762874D02*
X85593941Y-57641922D01*
X85593941Y-57641922D02*
X85563703Y-57551208D01*
X85563703Y-57551208D02*
X85563703Y-57490732D01*
X85291560Y-57188351D02*
X84928703Y-57188351D01*
X85110132Y-57823351D02*
X85110132Y-57188351D01*
X84686798Y-57793113D02*
X84686798Y-57823351D01*
X84686798Y-57823351D02*
X84717036Y-57883827D01*
X84717036Y-57883827D02*
X84747274Y-57914065D01*
X83961083Y-57248827D02*
X83930845Y-57218589D01*
X83930845Y-57218589D02*
X83870369Y-57188351D01*
X83870369Y-57188351D02*
X83719178Y-57188351D01*
X83719178Y-57188351D02*
X83658702Y-57218589D01*
X83658702Y-57218589D02*
X83628464Y-57248827D01*
X83628464Y-57248827D02*
X83598226Y-57309303D01*
X83598226Y-57309303D02*
X83598226Y-57369779D01*
X83598226Y-57369779D02*
X83628464Y-57460493D01*
X83628464Y-57460493D02*
X83991321Y-57823351D01*
X83991321Y-57823351D02*
X83598226Y-57823351D01*
X83205131Y-57188351D02*
X83144654Y-57188351D01*
X83144654Y-57188351D02*
X83084178Y-57218589D01*
X83084178Y-57218589D02*
X83053940Y-57248827D01*
X83053940Y-57248827D02*
X83023702Y-57309303D01*
X83023702Y-57309303D02*
X82993464Y-57430255D01*
X82993464Y-57430255D02*
X82993464Y-57581446D01*
X82993464Y-57581446D02*
X83023702Y-57702398D01*
X83023702Y-57702398D02*
X83053940Y-57762874D01*
X83053940Y-57762874D02*
X83084178Y-57793113D01*
X83084178Y-57793113D02*
X83144654Y-57823351D01*
X83144654Y-57823351D02*
X83205131Y-57823351D01*
X83205131Y-57823351D02*
X83265607Y-57793113D01*
X83265607Y-57793113D02*
X83295845Y-57762874D01*
X83295845Y-57762874D02*
X83326083Y-57702398D01*
X83326083Y-57702398D02*
X83356321Y-57581446D01*
X83356321Y-57581446D02*
X83356321Y-57430255D01*
X83356321Y-57430255D02*
X83326083Y-57309303D01*
X83326083Y-57309303D02*
X83295845Y-57248827D01*
X83295845Y-57248827D02*
X83265607Y-57218589D01*
X83265607Y-57218589D02*
X83205131Y-57188351D01*
X82751559Y-57248827D02*
X82721321Y-57218589D01*
X82721321Y-57218589D02*
X82660845Y-57188351D01*
X82660845Y-57188351D02*
X82509654Y-57188351D01*
X82509654Y-57188351D02*
X82449178Y-57218589D01*
X82449178Y-57218589D02*
X82418940Y-57248827D01*
X82418940Y-57248827D02*
X82388702Y-57309303D01*
X82388702Y-57309303D02*
X82388702Y-57369779D01*
X82388702Y-57369779D02*
X82418940Y-57460493D01*
X82418940Y-57460493D02*
X82781797Y-57823351D01*
X82781797Y-57823351D02*
X82388702Y-57823351D01*
X81814178Y-57188351D02*
X82116559Y-57188351D01*
X82116559Y-57188351D02*
X82146797Y-57490732D01*
X82146797Y-57490732D02*
X82116559Y-57460493D01*
X82116559Y-57460493D02*
X82056083Y-57430255D01*
X82056083Y-57430255D02*
X81904892Y-57430255D01*
X81904892Y-57430255D02*
X81844416Y-57460493D01*
X81844416Y-57460493D02*
X81814178Y-57490732D01*
X81814178Y-57490732D02*
X81783940Y-57551208D01*
X81783940Y-57551208D02*
X81783940Y-57702398D01*
X81783940Y-57702398D02*
X81814178Y-57762874D01*
X81814178Y-57762874D02*
X81844416Y-57793113D01*
X81844416Y-57793113D02*
X81904892Y-57823351D01*
X81904892Y-57823351D02*
X82056083Y-57823351D01*
X82056083Y-57823351D02*
X82116559Y-57793113D01*
X82116559Y-57793113D02*
X82146797Y-57762874D01*
X90976323Y-58845665D02*
X90976323Y-58210665D01*
X90976323Y-58210665D02*
X90764656Y-58664236D01*
X90764656Y-58664236D02*
X90552990Y-58210665D01*
X90552990Y-58210665D02*
X90552990Y-58845665D01*
X89978466Y-58845665D02*
X89978466Y-58513046D01*
X89978466Y-58513046D02*
X90008704Y-58452569D01*
X90008704Y-58452569D02*
X90069180Y-58422331D01*
X90069180Y-58422331D02*
X90190133Y-58422331D01*
X90190133Y-58422331D02*
X90250609Y-58452569D01*
X89978466Y-58815427D02*
X90038942Y-58845665D01*
X90038942Y-58845665D02*
X90190133Y-58845665D01*
X90190133Y-58845665D02*
X90250609Y-58815427D01*
X90250609Y-58815427D02*
X90280847Y-58754950D01*
X90280847Y-58754950D02*
X90280847Y-58694474D01*
X90280847Y-58694474D02*
X90250609Y-58633998D01*
X90250609Y-58633998D02*
X90190133Y-58603760D01*
X90190133Y-58603760D02*
X90038942Y-58603760D01*
X90038942Y-58603760D02*
X89978466Y-58573522D01*
X89585371Y-58845665D02*
X89645847Y-58815427D01*
X89645847Y-58815427D02*
X89676085Y-58754950D01*
X89676085Y-58754950D02*
X89676085Y-58210665D01*
X89071323Y-58845665D02*
X89071323Y-58513046D01*
X89071323Y-58513046D02*
X89101561Y-58452569D01*
X89101561Y-58452569D02*
X89162037Y-58422331D01*
X89162037Y-58422331D02*
X89282990Y-58422331D01*
X89282990Y-58422331D02*
X89343466Y-58452569D01*
X89071323Y-58815427D02*
X89131799Y-58845665D01*
X89131799Y-58845665D02*
X89282990Y-58845665D01*
X89282990Y-58845665D02*
X89343466Y-58815427D01*
X89343466Y-58815427D02*
X89373704Y-58754950D01*
X89373704Y-58754950D02*
X89373704Y-58694474D01*
X89373704Y-58694474D02*
X89343466Y-58633998D01*
X89343466Y-58633998D02*
X89282990Y-58603760D01*
X89282990Y-58603760D02*
X89131799Y-58603760D01*
X89131799Y-58603760D02*
X89071323Y-58573522D01*
X88496799Y-58815427D02*
X88557275Y-58845665D01*
X88557275Y-58845665D02*
X88678228Y-58845665D01*
X88678228Y-58845665D02*
X88738704Y-58815427D01*
X88738704Y-58815427D02*
X88768942Y-58785188D01*
X88768942Y-58785188D02*
X88799180Y-58724712D01*
X88799180Y-58724712D02*
X88799180Y-58543284D01*
X88799180Y-58543284D02*
X88768942Y-58482807D01*
X88768942Y-58482807D02*
X88738704Y-58452569D01*
X88738704Y-58452569D02*
X88678228Y-58422331D01*
X88678228Y-58422331D02*
X88557275Y-58422331D01*
X88557275Y-58422331D02*
X88496799Y-58452569D01*
X88224656Y-58845665D02*
X88224656Y-58210665D01*
X88164180Y-58603760D02*
X87982751Y-58845665D01*
X87982751Y-58422331D02*
X88224656Y-58664236D01*
X87710608Y-58845665D02*
X87710608Y-58422331D01*
X87710608Y-58210665D02*
X87740846Y-58240903D01*
X87740846Y-58240903D02*
X87710608Y-58271141D01*
X87710608Y-58271141D02*
X87680370Y-58240903D01*
X87680370Y-58240903D02*
X87710608Y-58210665D01*
X87710608Y-58210665D02*
X87710608Y-58271141D01*
X86924417Y-58513046D02*
X86712750Y-58513046D01*
X86622036Y-58845665D02*
X86924417Y-58845665D01*
X86924417Y-58845665D02*
X86924417Y-58210665D01*
X86924417Y-58210665D02*
X86622036Y-58210665D01*
X86349893Y-58845665D02*
X86349893Y-58210665D01*
X86077750Y-58845665D02*
X86077750Y-58513046D01*
X86077750Y-58513046D02*
X86107988Y-58452569D01*
X86107988Y-58452569D02*
X86168464Y-58422331D01*
X86168464Y-58422331D02*
X86259179Y-58422331D01*
X86259179Y-58422331D02*
X86319655Y-58452569D01*
X86319655Y-58452569D02*
X86349893Y-58482807D01*
X85684655Y-58845665D02*
X85745131Y-58815427D01*
X85745131Y-58815427D02*
X85775369Y-58754950D01*
X85775369Y-58754950D02*
X85775369Y-58210665D01*
X85200845Y-58815427D02*
X85261321Y-58845665D01*
X85261321Y-58845665D02*
X85382274Y-58845665D01*
X85382274Y-58845665D02*
X85442750Y-58815427D01*
X85442750Y-58815427D02*
X85472988Y-58754950D01*
X85472988Y-58754950D02*
X85472988Y-58513046D01*
X85472988Y-58513046D02*
X85442750Y-58452569D01*
X85442750Y-58452569D02*
X85382274Y-58422331D01*
X85382274Y-58422331D02*
X85261321Y-58422331D01*
X85261321Y-58422331D02*
X85200845Y-58452569D01*
X85200845Y-58452569D02*
X85170607Y-58513046D01*
X85170607Y-58513046D02*
X85170607Y-58573522D01*
X85170607Y-58573522D02*
X85472988Y-58633998D01*
X84898464Y-58845665D02*
X84898464Y-58422331D01*
X84898464Y-58543284D02*
X84868226Y-58482807D01*
X84868226Y-58482807D02*
X84837988Y-58452569D01*
X84837988Y-58452569D02*
X84777512Y-58422331D01*
X84777512Y-58422331D02*
X84717035Y-58422331D01*
X84535607Y-58815427D02*
X84475131Y-58845665D01*
X84475131Y-58845665D02*
X84354179Y-58845665D01*
X84354179Y-58845665D02*
X84293702Y-58815427D01*
X84293702Y-58815427D02*
X84263464Y-58754950D01*
X84263464Y-58754950D02*
X84263464Y-58724712D01*
X84263464Y-58724712D02*
X84293702Y-58664236D01*
X84293702Y-58664236D02*
X84354179Y-58633998D01*
X84354179Y-58633998D02*
X84444893Y-58633998D01*
X84444893Y-58633998D02*
X84505369Y-58603760D01*
X84505369Y-58603760D02*
X84535607Y-58543284D01*
X84535607Y-58543284D02*
X84535607Y-58513046D01*
X84535607Y-58513046D02*
X84505369Y-58452569D01*
X84505369Y-58452569D02*
X84444893Y-58422331D01*
X84444893Y-58422331D02*
X84354179Y-58422331D01*
X84354179Y-58422331D02*
X84293702Y-58452569D01*
M02*
