%TF.GenerationSoftware,KiCad,Pcbnew,8.0.5*%
%TF.CreationDate,2024-10-31T22:44:31-05:00*%
%TF.ProjectId,Buck_Breakout,4275636b-5f42-4726-9561-6b6f75742e6b,rev?*%
%TF.SameCoordinates,Original*%
%TF.FileFunction,Copper,L1,Top*%
%TF.FilePolarity,Positive*%
%FSLAX46Y46*%
G04 Gerber Fmt 4.6, Leading zero omitted, Abs format (unit mm)*
G04 Created by KiCad (PCBNEW 8.0.5) date 2024-10-31 22:44:31*
%MOMM*%
%LPD*%
G01*
G04 APERTURE LIST*
G04 Aperture macros list*
%AMRoundRect*
0 Rectangle with rounded corners*
0 $1 Rounding radius*
0 $2 $3 $4 $5 $6 $7 $8 $9 X,Y pos of 4 corners*
0 Add a 4 corners polygon primitive as box body*
4,1,4,$2,$3,$4,$5,$6,$7,$8,$9,$2,$3,0*
0 Add four circle primitives for the rounded corners*
1,1,$1+$1,$2,$3*
1,1,$1+$1,$4,$5*
1,1,$1+$1,$6,$7*
1,1,$1+$1,$8,$9*
0 Add four rect primitives between the rounded corners*
20,1,$1+$1,$2,$3,$4,$5,0*
20,1,$1+$1,$4,$5,$6,$7,0*
20,1,$1+$1,$6,$7,$8,$9,0*
20,1,$1+$1,$8,$9,$2,$3,0*%
G04 Aperture macros list end*
%TA.AperFunction,SMDPad,CuDef*%
%ADD10RoundRect,0.237500X-0.300000X-0.237500X0.300000X-0.237500X0.300000X0.237500X-0.300000X0.237500X0*%
%TD*%
%TA.AperFunction,ComponentPad*%
%ADD11C,1.524000*%
%TD*%
%TA.AperFunction,SMDPad,CuDef*%
%ADD12RoundRect,0.150000X-0.150000X0.512500X-0.150000X-0.512500X0.150000X-0.512500X0.150000X0.512500X0*%
%TD*%
%TA.AperFunction,SMDPad,CuDef*%
%ADD13RoundRect,0.250001X0.849999X-0.462499X0.849999X0.462499X-0.849999X0.462499X-0.849999X-0.462499X0*%
%TD*%
%TA.AperFunction,SMDPad,CuDef*%
%ADD14RoundRect,0.237500X0.237500X-0.250000X0.237500X0.250000X-0.237500X0.250000X-0.237500X-0.250000X0*%
%TD*%
%TA.AperFunction,SMDPad,CuDef*%
%ADD15RoundRect,0.237500X0.300000X0.237500X-0.300000X0.237500X-0.300000X-0.237500X0.300000X-0.237500X0*%
%TD*%
%TA.AperFunction,SMDPad,CuDef*%
%ADD16RoundRect,0.237500X0.250000X0.237500X-0.250000X0.237500X-0.250000X-0.237500X0.250000X-0.237500X0*%
%TD*%
%TA.AperFunction,ViaPad*%
%ADD17C,0.600000*%
%TD*%
%TA.AperFunction,Conductor*%
%ADD18C,0.254000*%
%TD*%
%TA.AperFunction,Conductor*%
%ADD19C,0.508000*%
%TD*%
G04 APERTURE END LIST*
D10*
%TO.P,C1,1*%
%TO.N,INPUT*%
X79401500Y-53086000D03*
%TO.P,C1,2*%
%TO.N,GND*%
X81126500Y-53086000D03*
%TD*%
D11*
%TO.P,Conn1,1*%
%TO.N,GND*%
X74930000Y-58420000D03*
%TO.P,Conn1,2*%
%TO.N,INPUT*%
X74930000Y-55880000D03*
%TD*%
D12*
%TO.P,U1,1,GND*%
%TO.N,GND*%
X84108500Y-55626000D03*
%TO.P,U1,2,SW*%
%TO.N,Net-(U1-SW)*%
X83158500Y-55626000D03*
%TO.P,U1,3,VIN*%
%TO.N,INPUT*%
X82208500Y-55626000D03*
%TO.P,U1,4,FB*%
%TO.N,Net-(U1-FB)*%
X82208500Y-57901000D03*
%TO.P,U1,5,EN*%
%TO.N,INPUT*%
X83158500Y-57901000D03*
%TO.P,U1,6,BST*%
%TO.N,Net-(U1-BST)*%
X84108500Y-57901000D03*
%TD*%
D13*
%TO.P,L1,1,1*%
%TO.N,Net-(U1-SW)*%
X87918500Y-57912000D03*
%TO.P,L1,2,2*%
%TO.N,OUTPUT*%
X87918500Y-55587000D03*
%TD*%
D11*
%TO.P,Conn2,1*%
%TO.N,OUTPUT*%
X92710000Y-55880000D03*
%TO.P,Conn2,2*%
%TO.N,GND*%
X92710000Y-58420000D03*
%TD*%
D14*
%TO.P,R2,1*%
%TO.N,Net-(U1-FB)*%
X79348500Y-57930000D03*
%TO.P,R2,2*%
%TO.N,GND*%
X79348500Y-56105000D03*
%TD*%
D10*
%TO.P,C4,1*%
%TO.N,OUTPUT*%
X86868000Y-53086000D03*
%TO.P,C4,2*%
%TO.N,GND*%
X88593000Y-53086000D03*
%TD*%
D15*
%TO.P,C2,1*%
%TO.N,Net-(U1-SW)*%
X86561000Y-60065500D03*
%TO.P,C2,2*%
%TO.N,Net-(U1-BST)*%
X84836000Y-60065500D03*
%TD*%
D16*
%TO.P,R1,1*%
%TO.N,OUTPUT*%
X81173500Y-60065500D03*
%TO.P,R1,2*%
%TO.N,Net-(U1-FB)*%
X79348500Y-60065500D03*
%TD*%
D15*
%TO.P,C3,1*%
%TO.N,OUTPUT*%
X84836000Y-53086000D03*
%TO.P,C3,2*%
%TO.N,GND*%
X83111000Y-53086000D03*
%TD*%
D17*
%TO.N,GND*%
X84074000Y-54356000D03*
%TO.N,OUTPUT*%
X85698500Y-55988500D03*
X82904500Y-60071000D03*
%TD*%
D18*
%TO.N,INPUT*%
X83158500Y-57901000D02*
X83158500Y-57018500D01*
D19*
X77724000Y-53086000D02*
X79401500Y-53086000D01*
D18*
X82208500Y-56068500D02*
X82208500Y-55626000D01*
X83158500Y-57018500D02*
X82208500Y-56068500D01*
D19*
X79401500Y-53086000D02*
X81941500Y-55626000D01*
X81941500Y-55626000D02*
X82208500Y-55626000D01*
X74930000Y-55880000D02*
X77724000Y-53086000D01*
D18*
%TO.N,Net-(U1-BST)*%
X84836000Y-60065500D02*
X84108500Y-59338000D01*
X84108500Y-59338000D02*
X84108500Y-57901000D01*
%TO.N,Net-(U1-SW)*%
X87918500Y-58708000D02*
X87918500Y-57912000D01*
D19*
X86749000Y-56742500D02*
X87918500Y-57912000D01*
D18*
X86561000Y-60065500D02*
X87918500Y-58708000D01*
D19*
X83158500Y-56196842D02*
X83704158Y-56742500D01*
X83704158Y-56742500D02*
X86749000Y-56742500D01*
X83158500Y-55626000D02*
X83158500Y-56196842D01*
D18*
%TO.N,OUTPUT*%
X81179000Y-60071000D02*
X81173500Y-60065500D01*
X86904750Y-54573250D02*
X87918500Y-55587000D01*
X86100000Y-55587000D02*
X85698500Y-55988500D01*
X84836000Y-53086000D02*
X85417500Y-53086000D01*
X85417500Y-53086000D02*
X86904750Y-54573250D01*
D19*
X92417000Y-55587000D02*
X92710000Y-55880000D01*
D18*
X82904500Y-60071000D02*
X81179000Y-60071000D01*
D19*
X87918500Y-55587000D02*
X92417000Y-55587000D01*
D18*
X86868000Y-53086000D02*
X86868000Y-54536500D01*
X86868000Y-54536500D02*
X86904750Y-54573250D01*
X87918500Y-55587000D02*
X86100000Y-55587000D01*
%TO.N,Net-(U1-FB)*%
X79457500Y-57930000D02*
X79486500Y-57901000D01*
X79348500Y-57930000D02*
X79457500Y-57930000D01*
X79486500Y-57901000D02*
X82208500Y-57901000D01*
X79348500Y-60065500D02*
X79348500Y-57930000D01*
%TD*%
%TA.AperFunction,Conductor*%
%TO.N,GND*%
G36*
X93984042Y-51300765D02*
G01*
X94006774Y-51302254D01*
X94238114Y-51317417D01*
X94254172Y-51319532D01*
X94499888Y-51368408D01*
X94515554Y-51372606D01*
X94666736Y-51423925D01*
X94752788Y-51453136D01*
X94767765Y-51459339D01*
X94985336Y-51566633D01*
X94992460Y-51570146D01*
X95006508Y-51578256D01*
X95214815Y-51717443D01*
X95227679Y-51727314D01*
X95416033Y-51892497D01*
X95427502Y-51903966D01*
X95592685Y-52092320D01*
X95602559Y-52105188D01*
X95741743Y-52313492D01*
X95749853Y-52327539D01*
X95860657Y-52552227D01*
X95866864Y-52567213D01*
X95947393Y-52804445D01*
X95951591Y-52820111D01*
X96000465Y-53065813D01*
X96002583Y-53081895D01*
X96019235Y-53335956D01*
X96019500Y-53344066D01*
X96019500Y-60955933D01*
X96019235Y-60964043D01*
X96002583Y-61218104D01*
X96000465Y-61234186D01*
X95951591Y-61479888D01*
X95947393Y-61495554D01*
X95866864Y-61732786D01*
X95860657Y-61747772D01*
X95749853Y-61972460D01*
X95741743Y-61986507D01*
X95602559Y-62194811D01*
X95592685Y-62207679D01*
X95427502Y-62396033D01*
X95416033Y-62407502D01*
X95227679Y-62572685D01*
X95214811Y-62582559D01*
X95006507Y-62721743D01*
X94992460Y-62729853D01*
X94767772Y-62840657D01*
X94752786Y-62846864D01*
X94515554Y-62927393D01*
X94499888Y-62931591D01*
X94254186Y-62980465D01*
X94238104Y-62982583D01*
X93984043Y-62999235D01*
X93975933Y-62999500D01*
X73664067Y-62999500D01*
X73655957Y-62999235D01*
X73401895Y-62982583D01*
X73385814Y-62980465D01*
X73350770Y-62973494D01*
X73140111Y-62931591D01*
X73124445Y-62927393D01*
X72887213Y-62846864D01*
X72872227Y-62840657D01*
X72647539Y-62729853D01*
X72633492Y-62721743D01*
X72425188Y-62582559D01*
X72412320Y-62572685D01*
X72223966Y-62407502D01*
X72212497Y-62396033D01*
X72047314Y-62207679D01*
X72037440Y-62194811D01*
X71898256Y-61986507D01*
X71890146Y-61972460D01*
X71779464Y-61748019D01*
X71779339Y-61747765D01*
X71773135Y-61732786D01*
X71692606Y-61495554D01*
X71688408Y-61479888D01*
X71679736Y-61436292D01*
X71639532Y-61234172D01*
X71637417Y-61218114D01*
X71620765Y-60964042D01*
X71620500Y-60955933D01*
X71620500Y-55880000D01*
X73908582Y-55880000D01*
X73928208Y-56079271D01*
X73986333Y-56270881D01*
X74080718Y-56447463D01*
X74080720Y-56447465D01*
X74080722Y-56447469D01*
X74099070Y-56469826D01*
X74207747Y-56602252D01*
X74247245Y-56634666D01*
X74362531Y-56729278D01*
X74362534Y-56729280D01*
X74362536Y-56729281D01*
X74539118Y-56823666D01*
X74539120Y-56823667D01*
X74730731Y-56881792D01*
X74930000Y-56901418D01*
X75129269Y-56881792D01*
X75320880Y-56823667D01*
X75497469Y-56729278D01*
X75652252Y-56602252D01*
X75779278Y-56447469D01*
X75873667Y-56270880D01*
X75931792Y-56079269D01*
X75951418Y-55880000D01*
X75931792Y-55680731D01*
X75931790Y-55680727D01*
X75930887Y-55676181D01*
X75937111Y-55606589D01*
X75964820Y-55564306D01*
X77898308Y-53630819D01*
X77959631Y-53597334D01*
X77985989Y-53594500D01*
X78627714Y-53594500D01*
X78694753Y-53614185D01*
X78726979Y-53644187D01*
X78750026Y-53674974D01*
X78863285Y-53759758D01*
X78995843Y-53809200D01*
X79054443Y-53815500D01*
X79360509Y-53815499D01*
X79427548Y-53835183D01*
X79448190Y-53851818D01*
X81617681Y-56021309D01*
X81651166Y-56082632D01*
X81654000Y-56108990D01*
X81654000Y-56170339D01*
X81669000Y-56265052D01*
X81683632Y-56293767D01*
X81727174Y-56379223D01*
X81727176Y-56379225D01*
X81727178Y-56379228D01*
X81817771Y-56469821D01*
X81817773Y-56469822D01*
X81817777Y-56469826D01*
X81931945Y-56527998D01*
X81931946Y-56527998D01*
X81931948Y-56527999D01*
X81931947Y-56527999D01*
X82026661Y-56543000D01*
X82026666Y-56543000D01*
X82092115Y-56543000D01*
X82159154Y-56562685D01*
X82179796Y-56579319D01*
X82372796Y-56772319D01*
X82406281Y-56833642D01*
X82401297Y-56903334D01*
X82359425Y-56959267D01*
X82293961Y-56983684D01*
X82285115Y-56984000D01*
X82026661Y-56984000D01*
X81931947Y-56999000D01*
X81855833Y-57037783D01*
X81817777Y-57057174D01*
X81817776Y-57057175D01*
X81817771Y-57057178D01*
X81727178Y-57147771D01*
X81727175Y-57147776D01*
X81669000Y-57261947D01*
X81654000Y-57356660D01*
X81654000Y-57395500D01*
X81634315Y-57462539D01*
X81581511Y-57508294D01*
X81530000Y-57519500D01*
X80137339Y-57519500D01*
X80070300Y-57499815D01*
X80026683Y-57449478D01*
X80026511Y-57449573D01*
X80026078Y-57448780D01*
X80024545Y-57447011D01*
X80022763Y-57442711D01*
X80022258Y-57441785D01*
X79991911Y-57401246D01*
X79937474Y-57328526D01*
X79824215Y-57243742D01*
X79771535Y-57224093D01*
X79691659Y-57194300D01*
X79633065Y-57188000D01*
X79063946Y-57188000D01*
X79063937Y-57188001D01*
X79005340Y-57194300D01*
X78872790Y-57243739D01*
X78872781Y-57243744D01*
X78759526Y-57328526D01*
X78674744Y-57441781D01*
X78674741Y-57441788D01*
X78625300Y-57574339D01*
X78625300Y-57574341D01*
X78619000Y-57632926D01*
X78619000Y-58227053D01*
X78619001Y-58227062D01*
X78625300Y-58285659D01*
X78674739Y-58418209D01*
X78674741Y-58418213D01*
X78674742Y-58418215D01*
X78759526Y-58531474D01*
X78872785Y-58616258D01*
X78886331Y-58621310D01*
X78942265Y-58663180D01*
X78966684Y-58728644D01*
X78967000Y-58737493D01*
X78967000Y-59265844D01*
X78947315Y-59332883D01*
X78894511Y-59378638D01*
X78886337Y-59382025D01*
X78860284Y-59391742D01*
X78860281Y-59391744D01*
X78747026Y-59476526D01*
X78662244Y-59589781D01*
X78662241Y-59589788D01*
X78612800Y-59722339D01*
X78612800Y-59722341D01*
X78606500Y-59780926D01*
X78606500Y-60350053D01*
X78606501Y-60350062D01*
X78612800Y-60408659D01*
X78662239Y-60541209D01*
X78662241Y-60541213D01*
X78662242Y-60541215D01*
X78747026Y-60654474D01*
X78860285Y-60739258D01*
X78992843Y-60788700D01*
X79051443Y-60795000D01*
X79645556Y-60794999D01*
X79704157Y-60788700D01*
X79836715Y-60739258D01*
X79949974Y-60654474D01*
X80034758Y-60541215D01*
X80084200Y-60408657D01*
X80087685Y-60376234D01*
X80090499Y-60350073D01*
X80090499Y-60350062D01*
X80090500Y-60350057D01*
X80090499Y-59780944D01*
X80090497Y-59780926D01*
X80431500Y-59780926D01*
X80431500Y-60350053D01*
X80431501Y-60350062D01*
X80437800Y-60408659D01*
X80487239Y-60541209D01*
X80487241Y-60541213D01*
X80487242Y-60541215D01*
X80572026Y-60654474D01*
X80685285Y-60739258D01*
X80817843Y-60788700D01*
X80876443Y-60795000D01*
X81470556Y-60794999D01*
X81529157Y-60788700D01*
X81661715Y-60739258D01*
X81774974Y-60654474D01*
X81859758Y-60541215D01*
X81859758Y-60541212D01*
X81859760Y-60541211D01*
X81862760Y-60533168D01*
X81904630Y-60477234D01*
X81970094Y-60452816D01*
X81978942Y-60452500D01*
X82448723Y-60452500D01*
X82515762Y-60472185D01*
X82524210Y-60478125D01*
X82624855Y-60555354D01*
X82624861Y-60555357D01*
X82692301Y-60583291D01*
X82759746Y-60611228D01*
X82832123Y-60620756D01*
X82904499Y-60630285D01*
X82904500Y-60630285D01*
X82904501Y-60630285D01*
X82952751Y-60623932D01*
X83049254Y-60611228D01*
X83184143Y-60555355D01*
X83299974Y-60466474D01*
X83388855Y-60350643D01*
X83444728Y-60215754D01*
X83463785Y-60071000D01*
X83444728Y-59926246D01*
X83388855Y-59791358D01*
X83299974Y-59675526D01*
X83184143Y-59586645D01*
X83184140Y-59586644D01*
X83184138Y-59586642D01*
X83049257Y-59530773D01*
X83049252Y-59530771D01*
X82904501Y-59511715D01*
X82904499Y-59511715D01*
X82759747Y-59530771D01*
X82759745Y-59530772D01*
X82624861Y-59586643D01*
X82624858Y-59586644D01*
X82624858Y-59586645D01*
X82524207Y-59663877D01*
X82459040Y-59689070D01*
X82448723Y-59689500D01*
X81983044Y-59689500D01*
X81916005Y-59669815D01*
X81870250Y-59617011D01*
X81866871Y-59608857D01*
X81859758Y-59589785D01*
X81774974Y-59476526D01*
X81661715Y-59391742D01*
X81609035Y-59372093D01*
X81529159Y-59342300D01*
X81470565Y-59336000D01*
X80876446Y-59336000D01*
X80876437Y-59336001D01*
X80817840Y-59342300D01*
X80685290Y-59391739D01*
X80685281Y-59391744D01*
X80572026Y-59476526D01*
X80487244Y-59589781D01*
X80487241Y-59589788D01*
X80437800Y-59722339D01*
X80437800Y-59722341D01*
X80431500Y-59780926D01*
X80090497Y-59780926D01*
X80084200Y-59722343D01*
X80071790Y-59689070D01*
X80034760Y-59589790D01*
X80034759Y-59589788D01*
X80034758Y-59589785D01*
X79949974Y-59476526D01*
X79836715Y-59391742D01*
X79810663Y-59382025D01*
X79754731Y-59340152D01*
X79730316Y-59274686D01*
X79730000Y-59265844D01*
X79730000Y-58737493D01*
X79749685Y-58670454D01*
X79802489Y-58624699D01*
X79810660Y-58621313D01*
X79824215Y-58616258D01*
X79937474Y-58531474D01*
X80022258Y-58418215D01*
X80042791Y-58363165D01*
X80084663Y-58307232D01*
X80150127Y-58282816D01*
X80158972Y-58282500D01*
X81530000Y-58282500D01*
X81597039Y-58302185D01*
X81642794Y-58354989D01*
X81654000Y-58406500D01*
X81654000Y-58445339D01*
X81669000Y-58540052D01*
X81669002Y-58540055D01*
X81727174Y-58654223D01*
X81727176Y-58654225D01*
X81727178Y-58654228D01*
X81817771Y-58744821D01*
X81817773Y-58744822D01*
X81817777Y-58744826D01*
X81931945Y-58802998D01*
X81931946Y-58802998D01*
X81931948Y-58802999D01*
X81931947Y-58802999D01*
X82026661Y-58818000D01*
X82026666Y-58818000D01*
X82390339Y-58818000D01*
X82485052Y-58802999D01*
X82485053Y-58802998D01*
X82485055Y-58802998D01*
X82599223Y-58744826D01*
X82599230Y-58744818D01*
X82607122Y-58739087D01*
X82608668Y-58741216D01*
X82657125Y-58714749D01*
X82726817Y-58719723D01*
X82758945Y-58740370D01*
X82759878Y-58739087D01*
X82767772Y-58744821D01*
X82767777Y-58744826D01*
X82881945Y-58802998D01*
X82881946Y-58802998D01*
X82881948Y-58802999D01*
X82881947Y-58802999D01*
X82976661Y-58818000D01*
X82976666Y-58818000D01*
X83340339Y-58818000D01*
X83435052Y-58802999D01*
X83435053Y-58802998D01*
X83435055Y-58802998D01*
X83546705Y-58746108D01*
X83615373Y-58733212D01*
X83680114Y-58759488D01*
X83720372Y-58816594D01*
X83727000Y-58856593D01*
X83727000Y-59388225D01*
X83750660Y-59476526D01*
X83753000Y-59485258D01*
X83753001Y-59485259D01*
X83779277Y-59530769D01*
X83779277Y-59530772D01*
X83779279Y-59530772D01*
X83803224Y-59572247D01*
X83920477Y-59689500D01*
X84007681Y-59776703D01*
X84041166Y-59838026D01*
X84044000Y-59864384D01*
X84044000Y-60350053D01*
X84044001Y-60350062D01*
X84050300Y-60408659D01*
X84099739Y-60541209D01*
X84099741Y-60541213D01*
X84099742Y-60541215D01*
X84184526Y-60654474D01*
X84297785Y-60739258D01*
X84430343Y-60788700D01*
X84488943Y-60795000D01*
X85183056Y-60794999D01*
X85241657Y-60788700D01*
X85374215Y-60739258D01*
X85487474Y-60654474D01*
X85572258Y-60541215D01*
X85582319Y-60514238D01*
X85624190Y-60458308D01*
X85689654Y-60433891D01*
X85757927Y-60448743D01*
X85807332Y-60498148D01*
X85814677Y-60514230D01*
X85824742Y-60541215D01*
X85909526Y-60654474D01*
X86022785Y-60739258D01*
X86155343Y-60788700D01*
X86213943Y-60795000D01*
X86908056Y-60794999D01*
X86966657Y-60788700D01*
X87099215Y-60739258D01*
X87212474Y-60654474D01*
X87297258Y-60541215D01*
X87346700Y-60408657D01*
X87350185Y-60376234D01*
X87352999Y-60350073D01*
X87352999Y-60350062D01*
X87353000Y-60350057D01*
X87352999Y-59864383D01*
X87372683Y-59797345D01*
X87389313Y-59776708D01*
X88223776Y-58942247D01*
X88224497Y-58940997D01*
X88225379Y-58940156D01*
X88228724Y-58935798D01*
X88229403Y-58936319D01*
X88275064Y-58892784D01*
X88331883Y-58879000D01*
X88816754Y-58879000D01*
X88816770Y-58878999D01*
X88861512Y-58874188D01*
X88876841Y-58872540D01*
X89012767Y-58821842D01*
X89128904Y-58734904D01*
X89215842Y-58618767D01*
X89266540Y-58482841D01*
X89270572Y-58445339D01*
X89272999Y-58422770D01*
X89273000Y-58422753D01*
X89273000Y-57401246D01*
X89272999Y-57401229D01*
X89266540Y-57341161D01*
X89266540Y-57341159D01*
X89259949Y-57323489D01*
X89215844Y-57205238D01*
X89215843Y-57205237D01*
X89215842Y-57205233D01*
X89146227Y-57112237D01*
X89128904Y-57089095D01*
X89051626Y-57031247D01*
X89012767Y-57002158D01*
X89012764Y-57002156D01*
X89012761Y-57002155D01*
X88876849Y-56951462D01*
X88876838Y-56951459D01*
X88816770Y-56945000D01*
X88816754Y-56945000D01*
X87721990Y-56945000D01*
X87654951Y-56925315D01*
X87634309Y-56908681D01*
X87491309Y-56765681D01*
X87457824Y-56704358D01*
X87462808Y-56634666D01*
X87504680Y-56578733D01*
X87570144Y-56554316D01*
X87578990Y-56554000D01*
X88816754Y-56554000D01*
X88816770Y-56553999D01*
X88858257Y-56549537D01*
X88876841Y-56547540D01*
X89012767Y-56496842D01*
X89128904Y-56409904D01*
X89215842Y-56293767D01*
X89238134Y-56234000D01*
X89259706Y-56176166D01*
X89301577Y-56120232D01*
X89367042Y-56095816D01*
X89375887Y-56095500D01*
X91621167Y-56095500D01*
X91688206Y-56115185D01*
X91733961Y-56167989D01*
X91739827Y-56183504D01*
X91766333Y-56270881D01*
X91860718Y-56447463D01*
X91860720Y-56447465D01*
X91860722Y-56447469D01*
X91879070Y-56469826D01*
X91987747Y-56602252D01*
X92027245Y-56634666D01*
X92142531Y-56729278D01*
X92142534Y-56729280D01*
X92142536Y-56729281D01*
X92319118Y-56823666D01*
X92319120Y-56823667D01*
X92510731Y-56881792D01*
X92710000Y-56901418D01*
X92909269Y-56881792D01*
X93100880Y-56823667D01*
X93277469Y-56729278D01*
X93432252Y-56602252D01*
X93559278Y-56447469D01*
X93653667Y-56270880D01*
X93711792Y-56079269D01*
X93731418Y-55880000D01*
X93711792Y-55680731D01*
X93653667Y-55489120D01*
X93559278Y-55312531D01*
X93471440Y-55205499D01*
X93432252Y-55157747D01*
X93339545Y-55081666D01*
X93277469Y-55030722D01*
X93277465Y-55030720D01*
X93277463Y-55030718D01*
X93100881Y-54936333D01*
X92909271Y-54878208D01*
X92710000Y-54858582D01*
X92510728Y-54878208D01*
X92319118Y-54936333D01*
X92142536Y-55030718D01*
X92142529Y-55030723D01*
X92118610Y-55050353D01*
X92054300Y-55077666D01*
X92039945Y-55078500D01*
X89375887Y-55078500D01*
X89308848Y-55058815D01*
X89263093Y-55006011D01*
X89259706Y-54997834D01*
X89215844Y-54880238D01*
X89215843Y-54880237D01*
X89215842Y-54880233D01*
X89145825Y-54786700D01*
X89128904Y-54764095D01*
X89051626Y-54706247D01*
X89012767Y-54677158D01*
X89012764Y-54677156D01*
X89012761Y-54677155D01*
X88876849Y-54626462D01*
X88876838Y-54626459D01*
X88816770Y-54620000D01*
X88816754Y-54620000D01*
X87542385Y-54620000D01*
X87475346Y-54600315D01*
X87454704Y-54583681D01*
X87285819Y-54414796D01*
X87252334Y-54353473D01*
X87249500Y-54327115D01*
X87249500Y-53904304D01*
X87269185Y-53837265D01*
X87321989Y-53791510D01*
X87330140Y-53788132D01*
X87406215Y-53759758D01*
X87519474Y-53674974D01*
X87604258Y-53561715D01*
X87653700Y-53429157D01*
X87657185Y-53396734D01*
X87659999Y-53370573D01*
X87659999Y-53370562D01*
X87660000Y-53370557D01*
X87659999Y-52801444D01*
X87653700Y-52742843D01*
X87604258Y-52610285D01*
X87519474Y-52497026D01*
X87406215Y-52412242D01*
X87353535Y-52392593D01*
X87273659Y-52362800D01*
X87215065Y-52356500D01*
X86520946Y-52356500D01*
X86520937Y-52356501D01*
X86462340Y-52362800D01*
X86329790Y-52412239D01*
X86329781Y-52412244D01*
X86216526Y-52497026D01*
X86131744Y-52610281D01*
X86131741Y-52610288D01*
X86082300Y-52742839D01*
X86082300Y-52742841D01*
X86076000Y-52801426D01*
X86076000Y-52905614D01*
X86056315Y-52972653D01*
X86003511Y-53018408D01*
X85934353Y-53028352D01*
X85870797Y-52999327D01*
X85864319Y-52993295D01*
X85646000Y-52774976D01*
X85648344Y-52772631D01*
X85617002Y-52730249D01*
X85572258Y-52610285D01*
X85487474Y-52497026D01*
X85374215Y-52412242D01*
X85321535Y-52392593D01*
X85241659Y-52362800D01*
X85183065Y-52356500D01*
X84488946Y-52356500D01*
X84488937Y-52356501D01*
X84430340Y-52362800D01*
X84297790Y-52412239D01*
X84297781Y-52412244D01*
X84184526Y-52497026D01*
X84099744Y-52610281D01*
X84099741Y-52610288D01*
X84050300Y-52742839D01*
X84050300Y-52742841D01*
X84044000Y-52801426D01*
X84044000Y-53370553D01*
X84044001Y-53370562D01*
X84050300Y-53429159D01*
X84099739Y-53561709D01*
X84099741Y-53561713D01*
X84099742Y-53561715D01*
X84184526Y-53674974D01*
X84297785Y-53759758D01*
X84430343Y-53809200D01*
X84488943Y-53815500D01*
X85183056Y-53815499D01*
X85241657Y-53809200D01*
X85374215Y-53759758D01*
X85374218Y-53759756D01*
X85389721Y-53748151D01*
X85455185Y-53723733D01*
X85523458Y-53738584D01*
X85551713Y-53759736D01*
X86578677Y-54786700D01*
X86612162Y-54848023D01*
X86607178Y-54917715D01*
X86570460Y-55016157D01*
X86570459Y-55016161D01*
X86564000Y-55076229D01*
X86564000Y-55081500D01*
X86544315Y-55148539D01*
X86491511Y-55194294D01*
X86440000Y-55205500D01*
X86157837Y-55205500D01*
X86157821Y-55205499D01*
X86150225Y-55205499D01*
X86049775Y-55205499D01*
X85960700Y-55229366D01*
X85952743Y-55231499D01*
X85865756Y-55281721D01*
X85865755Y-55281722D01*
X85751020Y-55396456D01*
X85689696Y-55429940D01*
X85679524Y-55431713D01*
X85553747Y-55448271D01*
X85553745Y-55448272D01*
X85418861Y-55504143D01*
X85303026Y-55593026D01*
X85214143Y-55708861D01*
X85158272Y-55843745D01*
X85158271Y-55843747D01*
X85141848Y-55968500D01*
X85139215Y-55988500D01*
X85149751Y-56068533D01*
X85153080Y-56093815D01*
X85142314Y-56162850D01*
X85095935Y-56215106D01*
X85030141Y-56234000D01*
X83966147Y-56234000D01*
X83899108Y-56214315D01*
X83878471Y-56197685D01*
X83749317Y-56068531D01*
X83715834Y-56007210D01*
X83713000Y-55980852D01*
X83713000Y-55081660D01*
X83697999Y-54986947D01*
X83697998Y-54986945D01*
X83639826Y-54872777D01*
X83639822Y-54872773D01*
X83639821Y-54872771D01*
X83549228Y-54782178D01*
X83549225Y-54782176D01*
X83549223Y-54782174D01*
X83435055Y-54724002D01*
X83435054Y-54724001D01*
X83435051Y-54724000D01*
X83435052Y-54724000D01*
X83340339Y-54709000D01*
X83340334Y-54709000D01*
X82976666Y-54709000D01*
X82976661Y-54709000D01*
X82881947Y-54724000D01*
X82805833Y-54762783D01*
X82767777Y-54782174D01*
X82767776Y-54782175D01*
X82759878Y-54787913D01*
X82758332Y-54785785D01*
X82709858Y-54812254D01*
X82640166Y-54807270D01*
X82608052Y-54786631D01*
X82607122Y-54787913D01*
X82599226Y-54782177D01*
X82599223Y-54782174D01*
X82485055Y-54724002D01*
X82485054Y-54724001D01*
X82485051Y-54724000D01*
X82485052Y-54724000D01*
X82390339Y-54709000D01*
X82390334Y-54709000D01*
X82026666Y-54709000D01*
X82026661Y-54709000D01*
X81931947Y-54724000D01*
X81931946Y-54724001D01*
X81897400Y-54741603D01*
X81828731Y-54754498D01*
X81763991Y-54728220D01*
X81753426Y-54718798D01*
X80229818Y-53195190D01*
X80196333Y-53133867D01*
X80193499Y-53107509D01*
X80193499Y-52801446D01*
X80193498Y-52801437D01*
X80193497Y-52801426D01*
X80187200Y-52742843D01*
X80137758Y-52610285D01*
X80052974Y-52497026D01*
X79939715Y-52412242D01*
X79887035Y-52392593D01*
X79807159Y-52362800D01*
X79748565Y-52356500D01*
X79054446Y-52356500D01*
X79054437Y-52356501D01*
X78995840Y-52362800D01*
X78863290Y-52412239D01*
X78863285Y-52412242D01*
X78750027Y-52497024D01*
X78750027Y-52497025D01*
X78726981Y-52527811D01*
X78671047Y-52569682D01*
X78627714Y-52577500D01*
X77657055Y-52577500D01*
X77527725Y-52612153D01*
X77411774Y-52679099D01*
X77411771Y-52679101D01*
X75245693Y-54845177D01*
X75184370Y-54878662D01*
X75133820Y-54879113D01*
X75129271Y-54878208D01*
X74930000Y-54858582D01*
X74730728Y-54878208D01*
X74539118Y-54936333D01*
X74362536Y-55030718D01*
X74207747Y-55157747D01*
X74080718Y-55312536D01*
X73986333Y-55489118D01*
X73928208Y-55680728D01*
X73908582Y-55880000D01*
X71620500Y-55880000D01*
X71620500Y-53344066D01*
X71620765Y-53335957D01*
X71624819Y-53274108D01*
X71637417Y-53081883D01*
X71639531Y-53065829D01*
X71688409Y-52820107D01*
X71692606Y-52804445D01*
X71717793Y-52730247D01*
X71773138Y-52567205D01*
X71779336Y-52552239D01*
X71890149Y-52327533D01*
X71898252Y-52313498D01*
X72037448Y-52105176D01*
X72047305Y-52092331D01*
X72212502Y-51903960D01*
X72223960Y-51892502D01*
X72412331Y-51727305D01*
X72425176Y-51717448D01*
X72633498Y-51578252D01*
X72647533Y-51570149D01*
X72872239Y-51459336D01*
X72887205Y-51453138D01*
X73054945Y-51396197D01*
X73124445Y-51372606D01*
X73140107Y-51368409D01*
X73385829Y-51319531D01*
X73401883Y-51317417D01*
X73634848Y-51302148D01*
X73655958Y-51300765D01*
X73664067Y-51300500D01*
X73725892Y-51300500D01*
X93914108Y-51300500D01*
X93975933Y-51300500D01*
X93984042Y-51300765D01*
G37*
%TD.AperFunction*%
%TD*%
M02*
